M48
; DRILL file {KiCad (6.0.5)} date Sat Jun  4 14:03:14 2022
; FORMAT={-:-/ absolute / inch / decimal}
; #@! TF.CreationDate,2022-06-04T14:03:14+08:00
; #@! TF.GenerationSoftware,Kicad,Pcbnew,(6.0.5)
; #@! TF.FileFunction,Plated,1,2,PTH
FMAT,2
INCH
; #@! TA.AperFunction,Plated,PTH,ViaDrill
T1C0.0157
; #@! TA.AperFunction,Plated,PTH,ComponentDrill
T2C0.0197
; #@! TA.AperFunction,Plated,PTH,ComponentDrill
T3C0.0236
; #@! TA.AperFunction,Plated,PTH,ComponentDrill
T4C0.1260
%
G90
G05
T1
X1.3307Y-1.0
X1.3307Y-1.4606
X1.3307Y-1.9213
X1.3307Y-2.3819
X1.3307Y-2.8425
X1.3307Y-3.3031
X1.3307Y-3.7638
X1.3307Y-4.2244
X1.557Y-1.0
X1.557Y-1.4606
X1.557Y-1.9213
X1.557Y-2.3819
X1.557Y-2.8425
X1.557Y-3.3031
X1.557Y-3.7638
X1.557Y-4.2244
X1.6673Y-1.1457
X1.6673Y-1.6063
X1.6673Y-2.0669
X1.6673Y-2.5276
X1.6673Y-2.9882
X1.6673Y-3.4488
X1.6673Y-3.9094
X1.6673Y-4.3701
X1.7145Y-0.9764
X1.7145Y-1.189
X1.7145Y-1.437
X1.7145Y-1.6496
X1.7145Y-1.8976
X1.7145Y-2.1102
X1.7145Y-2.3583
X1.7145Y-2.5709
X1.7145Y-2.8189
X1.7145Y-3.0315
X1.7145Y-3.2795
X1.7145Y-3.4921
X1.7145Y-3.7402
X1.7145Y-3.9528
X1.7145Y-4.2008
X1.7145Y-4.4134
X1.7381Y-1.0945
X1.7381Y-1.5551
X1.7381Y-2.0157
X1.7381Y-2.4764
X1.7381Y-2.937
X1.7381Y-3.3976
X1.7381Y-3.8583
X1.7381Y-4.3189
X1.8405Y-1.0994
X1.8405Y-1.56
X1.8405Y-2.0207
X1.8405Y-2.4813
X1.8405Y-2.9419
X1.8405Y-3.4026
X1.8405Y-3.8632
X1.8405Y-4.3238
X2.0059Y-1.0187
X2.0059Y-1.4793
X2.0059Y-1.94
X2.0059Y-2.4006
X2.0059Y-2.8612
X2.0059Y-3.3219
X2.0059Y-3.7825
X2.0059Y-4.2431
X2.1988Y-1.1496
X2.1988Y-1.6102
X2.1988Y-2.0709
X2.1988Y-2.5315
X2.1988Y-2.9921
X2.1988Y-3.4528
X2.1988Y-3.9134
X2.1988Y-4.374
X2.3562Y-0.9921
X2.3562Y-1.4528
X2.3562Y-1.9134
X2.3562Y-2.374
X2.3562Y-2.8346
X2.3562Y-3.2953
X2.3562Y-3.7559
X2.3562Y-4.2165
X2.372Y-1.1339
X2.372Y-1.5945
X2.372Y-2.0551
X2.372Y-2.5157
X2.372Y-2.9764
X2.372Y-3.437
X2.372Y-3.8976
X2.372Y-4.3583
X2.4156Y-1.2112
X2.4156Y-1.6718
X2.4156Y-2.1325
X2.4156Y-2.5931
X2.4156Y-3.0537
X2.4156Y-3.5144
X2.4156Y-3.975
X2.4156Y-4.4356
X3.2873Y-1.0
X3.2873Y-1.4606
X3.2873Y-1.9213
X3.2873Y-2.3819
X3.2873Y-2.8425
X3.2873Y-3.3031
X3.2873Y-3.7638
X3.2873Y-4.2244
X3.5137Y-1.0
X3.5137Y-1.4606
X3.5137Y-1.9213
X3.5137Y-2.3819
X3.5137Y-2.8425
X3.5137Y-3.3031
X3.5137Y-3.7638
X3.5137Y-4.2244
X3.624Y-1.1457
X3.624Y-1.6063
X3.624Y-2.0669
X3.624Y-2.5276
X3.624Y-2.9882
X3.624Y-3.4488
X3.624Y-3.9094
X3.624Y-4.3701
X3.6712Y-0.9764
X3.6712Y-1.189
X3.6712Y-1.437
X3.6712Y-1.6496
X3.6712Y-1.8976
X3.6712Y-2.1102
X3.6712Y-2.3583
X3.6712Y-2.5709
X3.6712Y-2.8189
X3.6712Y-3.0315
X3.6712Y-3.2795
X3.6712Y-3.4921
X3.6712Y-3.7402
X3.6712Y-3.9528
X3.6712Y-4.2008
X3.6712Y-4.4134
X3.6948Y-1.0945
X3.6948Y-1.5551
X3.6948Y-2.0157
X3.6948Y-2.4764
X3.6948Y-2.937
X3.6948Y-3.3976
X3.6948Y-3.8583
X3.6948Y-4.3189
X3.7972Y-1.0994
X3.7972Y-1.56
X3.7972Y-2.0207
X3.7972Y-2.4813
X3.7972Y-2.9419
X3.7972Y-3.4026
X3.7972Y-3.8632
X3.7972Y-4.3238
X3.9625Y-1.0187
X3.9625Y-1.4793
X3.9625Y-1.94
X3.9625Y-2.4006
X3.9625Y-2.8612
X3.9625Y-3.3219
X3.9625Y-3.7825
X3.9625Y-4.2431
X4.1555Y-1.1496
X4.1555Y-1.6102
X4.1555Y-2.0709
X4.1555Y-2.5315
X4.1555Y-2.9921
X4.1555Y-3.4528
X4.1555Y-3.9134
X4.1555Y-4.374
X4.3129Y-0.9921
X4.3129Y-1.4528
X4.3129Y-1.9134
X4.3129Y-2.374
X4.3129Y-2.8346
X4.3129Y-3.2953
X4.3129Y-3.7559
X4.3129Y-4.2165
X4.3287Y-1.1339
X4.3287Y-1.5945
X4.3287Y-2.0551
X4.3287Y-2.5157
X4.3287Y-2.9764
X4.3287Y-3.437
X4.3287Y-3.8976
X4.3287Y-4.3583
X4.3723Y-1.2112
X4.3723Y-1.6718
X4.3723Y-2.1325
X4.3723Y-2.5931
X4.3723Y-3.0537
X4.3723Y-3.5144
X4.3723Y-3.975
X4.3723Y-4.4356
T2
X1.0216Y-1.1161
X1.0216Y-1.5768
X1.0216Y-2.0374
X1.0216Y-2.498
X1.0216Y-2.9587
X1.0216Y-3.4193
X1.0216Y-3.8799
X1.0216Y-4.3406
X1.0493Y-1.0493
X1.0493Y-1.183
X1.0493Y-1.51
X1.0493Y-1.6436
X1.0493Y-1.9706
X1.0493Y-2.1042
X1.0493Y-2.4312
X1.0493Y-2.5648
X1.0493Y-2.8918
X1.0493Y-3.0255
X1.0493Y-3.3525
X1.0493Y-3.4861
X1.0493Y-3.8131
X1.0493Y-3.9467
X1.0493Y-4.2737
X1.0493Y-4.4074
X1.1161Y-1.0217
X1.1161Y-1.2106
X1.1161Y-1.4823
X1.1161Y-1.6713
X1.1161Y-1.9429
X1.1161Y-2.1319
X1.1161Y-2.4035
X1.1161Y-2.5925
X1.1161Y-2.8642
X1.1161Y-3.0531
X1.1161Y-3.3248
X1.1161Y-3.5138
X1.1161Y-3.7854
X1.1161Y-3.9744
X1.1161Y-4.2461
X1.1161Y-4.435
X1.1829Y-1.0493
X1.1829Y-1.183
X1.1829Y-1.51
X1.1829Y-1.6436
X1.1829Y-1.9706
X1.1829Y-2.1042
X1.1829Y-2.4312
X1.1829Y-2.5648
X1.1829Y-2.8918
X1.1829Y-3.0255
X1.1829Y-3.3525
X1.1829Y-3.4861
X1.1829Y-3.8131
X1.1829Y-3.9467
X1.1829Y-4.2737
X1.1829Y-4.4074
X1.2106Y-1.1161
X1.2106Y-1.5768
X1.2106Y-2.0374
X1.2106Y-2.498
X1.2106Y-2.9587
X1.2106Y-3.4193
X1.2106Y-3.8799
X1.2106Y-4.3406
X2.5177Y-1.1161
X2.5177Y-1.5768
X2.5177Y-2.0374
X2.5177Y-2.498
X2.5177Y-2.9587
X2.5177Y-3.4193
X2.5177Y-3.8799
X2.5177Y-4.3406
X2.5453Y-1.0493
X2.5453Y-1.183
X2.5453Y-1.51
X2.5453Y-1.6436
X2.5453Y-1.9706
X2.5453Y-2.1042
X2.5453Y-2.4312
X2.5453Y-2.5648
X2.5453Y-2.8918
X2.5453Y-3.0255
X2.5453Y-3.3525
X2.5453Y-3.4861
X2.5453Y-3.8131
X2.5453Y-3.9467
X2.5453Y-4.2737
X2.5453Y-4.4074
X2.6122Y-1.0217
X2.6122Y-1.2106
X2.6122Y-1.4823
X2.6122Y-1.6713
X2.6122Y-1.9429
X2.6122Y-2.1319
X2.6122Y-2.4035
X2.6122Y-2.5925
X2.6122Y-2.8642
X2.6122Y-3.0531
X2.6122Y-3.3248
X2.6122Y-3.5138
X2.6122Y-3.7854
X2.6122Y-3.9744
X2.6122Y-4.2461
X2.6122Y-4.435
X2.679Y-1.0493
X2.679Y-1.183
X2.679Y-1.51
X2.679Y-1.6436
X2.679Y-1.9706
X2.679Y-2.1042
X2.679Y-2.4312
X2.679Y-2.5648
X2.679Y-2.8918
X2.679Y-3.0255
X2.679Y-3.3525
X2.679Y-3.4861
X2.679Y-3.8131
X2.679Y-3.9467
X2.679Y-4.2737
X2.679Y-4.4074
X2.7066Y-1.1161
X2.7066Y-1.5768
X2.7066Y-2.0374
X2.7066Y-2.498
X2.7066Y-2.9587
X2.7066Y-3.4193
X2.7066Y-3.8799
X2.7066Y-4.3406
X2.9783Y-1.1161
X2.9783Y-1.5768
X2.9783Y-2.0374
X2.9783Y-2.498
X2.9783Y-2.9587
X2.9783Y-3.4193
X2.9783Y-3.8799
X2.9783Y-4.3406
X3.006Y-1.0493
X3.006Y-1.183
X3.006Y-1.51
X3.006Y-1.6436
X3.006Y-1.9706
X3.006Y-2.1042
X3.006Y-2.4312
X3.006Y-2.5648
X3.006Y-2.8918
X3.006Y-3.0255
X3.006Y-3.3525
X3.006Y-3.4861
X3.006Y-3.8131
X3.006Y-3.9467
X3.006Y-4.2737
X3.006Y-4.4074
X3.0728Y-1.0217
X3.0728Y-1.2106
X3.0728Y-1.4823
X3.0728Y-1.6713
X3.0728Y-1.9429
X3.0728Y-2.1319
X3.0728Y-2.4035
X3.0728Y-2.5925
X3.0728Y-2.8642
X3.0728Y-3.0531
X3.0728Y-3.3248
X3.0728Y-3.5138
X3.0728Y-3.7854
X3.0728Y-3.9744
X3.0728Y-4.2461
X3.0728Y-4.435
X3.1396Y-1.0493
X3.1396Y-1.183
X3.1396Y-1.51
X3.1396Y-1.6436
X3.1396Y-1.9706
X3.1396Y-2.1042
X3.1396Y-2.4312
X3.1396Y-2.5648
X3.1396Y-2.8918
X3.1396Y-3.0255
X3.1396Y-3.3525
X3.1396Y-3.4861
X3.1396Y-3.8131
X3.1396Y-3.9467
X3.1396Y-4.2737
X3.1396Y-4.4074
X3.1673Y-1.1161
X3.1673Y-1.5768
X3.1673Y-2.0374
X3.1673Y-2.498
X3.1673Y-2.9587
X3.1673Y-3.4193
X3.1673Y-3.8799
X3.1673Y-4.3406
X4.4744Y-1.1161
X4.4744Y-1.5768
X4.4744Y-2.0374
X4.4744Y-2.498
X4.4744Y-2.9587
X4.4744Y-3.4193
X4.4744Y-3.8799
X4.4744Y-4.3406
X4.502Y-1.0493
X4.502Y-1.183
X4.502Y-1.51
X4.502Y-1.6436
X4.502Y-1.9706
X4.502Y-2.1042
X4.502Y-2.4312
X4.502Y-2.5648
X4.502Y-2.8918
X4.502Y-3.0255
X4.502Y-3.3525
X4.502Y-3.4861
X4.502Y-3.8131
X4.502Y-3.9467
X4.502Y-4.2737
X4.502Y-4.4074
X4.5688Y-1.0217
X4.5688Y-1.2106
X4.5688Y-1.4823
X4.5688Y-1.6713
X4.5688Y-1.9429
X4.5688Y-2.1319
X4.5688Y-2.4035
X4.5688Y-2.5925
X4.5688Y-2.8642
X4.5688Y-3.0531
X4.5688Y-3.3248
X4.5688Y-3.5138
X4.5688Y-3.7854
X4.5688Y-3.9744
X4.5688Y-4.2461
X4.5688Y-4.435
X4.6357Y-1.0493
X4.6357Y-1.183
X4.6357Y-1.51
X4.6357Y-1.6436
X4.6357Y-1.9706
X4.6357Y-2.1042
X4.6357Y-2.4312
X4.6357Y-2.5648
X4.6357Y-2.8918
X4.6357Y-3.0255
X4.6357Y-3.3525
X4.6357Y-3.4861
X4.6357Y-3.8131
X4.6357Y-3.9467
X4.6357Y-4.2737
X4.6357Y-4.4074
X4.6633Y-1.1161
X4.6633Y-1.5768
X4.6633Y-2.0374
X4.6633Y-2.498
X4.6633Y-2.9587
X4.6633Y-3.4193
X4.6633Y-3.8799
X4.6633Y-4.3406
T4
X1.1161Y-1.1161
X1.1161Y-1.5768
X1.1161Y-2.0374
X1.1161Y-2.498
X1.1161Y-2.9587
X1.1161Y-3.4193
X1.1161Y-3.8799
X1.1161Y-4.3406
X2.6122Y-1.1161
X2.6122Y-1.5768
X2.6122Y-2.0374
X2.6122Y-2.498
X2.6122Y-2.9587
X2.6122Y-3.4193
X2.6122Y-3.8799
X2.6122Y-4.3406
X3.0728Y-1.1161
X3.0728Y-1.5768
X3.0728Y-2.0374
X3.0728Y-2.498
X3.0728Y-2.9587
X3.0728Y-3.4193
X3.0728Y-3.8799
X3.0728Y-4.3406
X4.5688Y-1.1161
X4.5688Y-1.5768
X4.5688Y-2.0374
X4.5688Y-2.498
X4.5688Y-2.9587
X4.5688Y-3.4193
X4.5688Y-3.8799
X4.5688Y-4.3406
T3
G00X1.6153Y-1.0933
M15
G01X1.6153Y-1.05
M16
G05
G00X1.6153Y-1.248
M15
G01X1.6153Y-1.2244
M16
G05
G00X1.6153Y-1.5539
M15
G01X1.6153Y-1.5106
M16
G05
G00X1.6153Y-1.7087
M15
G01X1.6153Y-1.685
M16
G05
G00X1.6153Y-2.0146
M15
G01X1.6153Y-1.9713
M16
G05
G00X1.6153Y-2.1693
M15
G01X1.6153Y-2.1457
M16
G05
G00X1.6153Y-2.4752
M15
G01X1.6153Y-2.4319
M16
G05
G00X1.6153Y-2.6299
M15
G01X1.6153Y-2.6063
M16
G05
G00X1.6153Y-2.9358
M15
G01X1.6153Y-2.8925
M16
G05
G00X1.6153Y-3.0906
M15
G01X1.6153Y-3.0669
M16
G05
G00X1.6153Y-3.3965
M15
G01X1.6153Y-3.3531
M16
G05
G00X1.6153Y-3.5512
M15
G01X1.6153Y-3.5276
M16
G05
G00X1.6153Y-3.8571
M15
G01X1.6153Y-3.8138
M16
G05
G00X1.6153Y-4.0118
M15
G01X1.6153Y-3.9882
M16
G05
G00X1.6153Y-4.3177
M15
G01X1.6153Y-4.2744
M16
G05
G00X1.6153Y-4.4724
M15
G01X1.6153Y-4.4488
M16
G05
G00X1.9555Y-1.0933
M15
G01X1.9555Y-1.05
M16
G05
G00X1.9555Y-1.248
M15
G01X1.9555Y-1.2244
M16
G05
G00X1.9555Y-1.5539
M15
G01X1.9555Y-1.5106
M16
G05
G00X1.9555Y-1.7087
M15
G01X1.9555Y-1.685
M16
G05
G00X1.9555Y-2.0146
M15
G01X1.9555Y-1.9713
M16
G05
G00X1.9555Y-2.1693
M15
G01X1.9555Y-2.1457
M16
G05
G00X1.9555Y-2.4752
M15
G01X1.9555Y-2.4319
M16
G05
G00X1.9555Y-2.6299
M15
G01X1.9555Y-2.6063
M16
G05
G00X1.9555Y-2.9358
M15
G01X1.9555Y-2.8925
M16
G05
G00X1.9555Y-3.0906
M15
G01X1.9555Y-3.0669
M16
G05
G00X1.9555Y-3.3965
M15
G01X1.9555Y-3.3531
M16
G05
G00X1.9555Y-3.5512
M15
G01X1.9555Y-3.5276
M16
G05
G00X1.9555Y-3.8571
M15
G01X1.9555Y-3.8138
M16
G05
G00X1.9555Y-4.0118
M15
G01X1.9555Y-3.9882
M16
G05
G00X1.9555Y-4.3177
M15
G01X1.9555Y-4.2744
M16
G05
G00X1.9555Y-4.4724
M15
G01X1.9555Y-4.4488
M16
G05
G00X3.572Y-1.0933
M15
G01X3.572Y-1.05
M16
G05
G00X3.572Y-1.248
M15
G01X3.572Y-1.2244
M16
G05
G00X3.572Y-1.5539
M15
G01X3.572Y-1.5106
M16
G05
G00X3.572Y-1.7087
M15
G01X3.572Y-1.685
M16
G05
G00X3.572Y-2.0146
M15
G01X3.572Y-1.9713
M16
G05
G00X3.572Y-2.1693
M15
G01X3.572Y-2.1457
M16
G05
G00X3.572Y-2.4752
M15
G01X3.572Y-2.4319
M16
G05
G00X3.572Y-2.6299
M15
G01X3.572Y-2.6063
M16
G05
G00X3.572Y-2.9358
M15
G01X3.572Y-2.8925
M16
G05
G00X3.572Y-3.0906
M15
G01X3.572Y-3.0669
M16
G05
G00X3.572Y-3.3965
M15
G01X3.572Y-3.3531
M16
G05
G00X3.572Y-3.5512
M15
G01X3.572Y-3.5276
M16
G05
G00X3.572Y-3.8571
M15
G01X3.572Y-3.8138
M16
G05
G00X3.572Y-4.0118
M15
G01X3.572Y-3.9882
M16
G05
G00X3.572Y-4.3177
M15
G01X3.572Y-4.2744
M16
G05
G00X3.572Y-4.4724
M15
G01X3.572Y-4.4488
M16
G05
G00X3.9122Y-1.0933
M15
G01X3.9122Y-1.05
M16
G05
G00X3.9122Y-1.248
M15
G01X3.9122Y-1.2244
M16
G05
G00X3.9122Y-1.5539
M15
G01X3.9122Y-1.5106
M16
G05
G00X3.9122Y-1.7087
M15
G01X3.9122Y-1.685
M16
G05
G00X3.9122Y-2.0146
M15
G01X3.9122Y-1.9713
M16
G05
G00X3.9122Y-2.1693
M15
G01X3.9122Y-2.1457
M16
G05
G00X3.9122Y-2.4752
M15
G01X3.9122Y-2.4319
M16
G05
G00X3.9122Y-2.6299
M15
G01X3.9122Y-2.6063
M16
G05
G00X3.9122Y-2.9358
M15
G01X3.9122Y-2.8925
M16
G05
G00X3.9122Y-3.0906
M15
G01X3.9122Y-3.0669
M16
G05
G00X3.9122Y-3.3965
M15
G01X3.9122Y-3.3531
M16
G05
G00X3.9122Y-3.5512
M15
G01X3.9122Y-3.5276
M16
G05
G00X3.9122Y-3.8571
M15
G01X3.9122Y-3.8138
M16
G05
G00X3.9122Y-4.0118
M15
G01X3.9122Y-3.9882
M16
G05
G00X3.9122Y-4.3177
M15
G01X3.9122Y-4.2744
M16
G05
G00X3.9122Y-4.4724
M15
G01X3.9122Y-4.4488
M16
G05
T0
M30
