%TF.GenerationSoftware,KiCad,Pcbnew,(6.0.5)*%
%TF.CreationDate,2022-06-04T14:03:13+08:00*%
%TF.ProjectId,panel,70616e65-6c2e-46b6-9963-61645f706362,rev?*%
%TF.SameCoordinates,Original*%
%TF.FileFunction,Legend,Bot*%
%TF.FilePolarity,Positive*%
%FSLAX46Y46*%
G04 Gerber Fmt 4.6, Leading zero omitted, Abs format (unit mm)*
G04 Created by KiCad (PCBNEW (6.0.5)) date 2022-06-04 14:03:13*
%MOMM*%
%LPD*%
G01*
G04 APERTURE LIST*
G04 Aperture macros list*
%AMRoundRect*
0 Rectangle with rounded corners*
0 $1 Rounding radius*
0 $2 $3 $4 $5 $6 $7 $8 $9 X,Y pos of 4 corners*
0 Add a 4 corners polygon primitive as box body*
4,1,4,$2,$3,$4,$5,$6,$7,$8,$9,$2,$3,0*
0 Add four circle primitives for the rounded corners*
1,1,$1+$1,$2,$3*
1,1,$1+$1,$4,$5*
1,1,$1+$1,$6,$7*
1,1,$1+$1,$8,$9*
0 Add four rect primitives between the rounded corners*
20,1,$1+$1,$2,$3,$4,$5,0*
20,1,$1+$1,$4,$5,$6,$7,0*
20,1,$1+$1,$6,$7,$8,$9,0*
20,1,$1+$1,$8,$9,$2,$3,0*%
G04 Aperture macros list end*
%ADD10C,0.150000*%
%ADD11C,0.120000*%
%ADD12C,0.100000*%
%ADD13C,0.650000*%
%ADD14R,0.575000X1.450000*%
%ADD15R,0.300000X1.450000*%
%ADD16O,1.200000X2.300000*%
%ADD17O,1.200000X1.800000*%
%ADD18RoundRect,0.225000X-0.250000X0.225000X-0.250000X-0.225000X0.250000X-0.225000X0.250000X0.225000X0*%
%ADD19RoundRect,0.200000X0.275000X-0.200000X0.275000X0.200000X-0.275000X0.200000X-0.275000X-0.200000X0*%
%ADD20RoundRect,0.249999X-0.450001X0.262501X-0.450001X-0.262501X0.450001X-0.262501X0.450001X0.262501X0*%
%ADD21R,0.600000X1.550000*%
%ADD22R,1.200000X1.800000*%
%ADD23C,0.500000*%
%ADD24C,0.800000*%
%ADD25C,6.400000*%
G04 APERTURE END LIST*
D10*
%TO.C,J1*%
X95381981Y-106102380D02*
X95381981Y-106816666D01*
X95429600Y-106959523D01*
X95524838Y-107054761D01*
X95667695Y-107102380D01*
X95762933Y-107102380D01*
X94381981Y-107102380D02*
X94953409Y-107102380D01*
X94667695Y-107102380D02*
X94667695Y-106102380D01*
X94762933Y-106245238D01*
X94858171Y-106340476D01*
X94953409Y-106388095D01*
X45681981Y-106102380D02*
X45681981Y-106816666D01*
X45729600Y-106959523D01*
X45824838Y-107054761D01*
X45967695Y-107102380D01*
X46062933Y-107102380D01*
X44681981Y-107102380D02*
X45253409Y-107102380D01*
X44967695Y-107102380D02*
X44967695Y-106102380D01*
X45062933Y-106245238D01*
X45158171Y-106340476D01*
X45253409Y-106388095D01*
X95381981Y-94402380D02*
X95381981Y-95116666D01*
X95429600Y-95259523D01*
X95524838Y-95354761D01*
X95667695Y-95402380D01*
X95762933Y-95402380D01*
X94381981Y-95402380D02*
X94953409Y-95402380D01*
X94667695Y-95402380D02*
X94667695Y-94402380D01*
X94762933Y-94545238D01*
X94858171Y-94640476D01*
X94953409Y-94688095D01*
X45681981Y-94402380D02*
X45681981Y-95116666D01*
X45729600Y-95259523D01*
X45824838Y-95354761D01*
X45967695Y-95402380D01*
X46062933Y-95402380D01*
X44681981Y-95402380D02*
X45253409Y-95402380D01*
X44967695Y-95402380D02*
X44967695Y-94402380D01*
X45062933Y-94545238D01*
X45158171Y-94640476D01*
X45253409Y-94688095D01*
X95381981Y-82702380D02*
X95381981Y-83416666D01*
X95429600Y-83559523D01*
X95524838Y-83654761D01*
X95667695Y-83702380D01*
X95762933Y-83702380D01*
X94381981Y-83702380D02*
X94953409Y-83702380D01*
X94667695Y-83702380D02*
X94667695Y-82702380D01*
X94762933Y-82845238D01*
X94858171Y-82940476D01*
X94953409Y-82988095D01*
X45681981Y-82702380D02*
X45681981Y-83416666D01*
X45729600Y-83559523D01*
X45824838Y-83654761D01*
X45967695Y-83702380D01*
X46062933Y-83702380D01*
X44681981Y-83702380D02*
X45253409Y-83702380D01*
X44967695Y-83702380D02*
X44967695Y-82702380D01*
X45062933Y-82845238D01*
X45158171Y-82940476D01*
X45253409Y-82988095D01*
X95381981Y-71002380D02*
X95381981Y-71716666D01*
X95429600Y-71859523D01*
X95524838Y-71954761D01*
X95667695Y-72002380D01*
X95762933Y-72002380D01*
X94381981Y-72002380D02*
X94953409Y-72002380D01*
X94667695Y-72002380D02*
X94667695Y-71002380D01*
X94762933Y-71145238D01*
X94858171Y-71240476D01*
X94953409Y-71288095D01*
X45681981Y-71002380D02*
X45681981Y-71716666D01*
X45729600Y-71859523D01*
X45824838Y-71954761D01*
X45967695Y-72002380D01*
X46062933Y-72002380D01*
X44681981Y-72002380D02*
X45253409Y-72002380D01*
X44967695Y-72002380D02*
X44967695Y-71002380D01*
X45062933Y-71145238D01*
X45158171Y-71240476D01*
X45253409Y-71288095D01*
X95381981Y-59302380D02*
X95381981Y-60016666D01*
X95429600Y-60159523D01*
X95524838Y-60254761D01*
X95667695Y-60302380D01*
X95762933Y-60302380D01*
X94381981Y-60302380D02*
X94953409Y-60302380D01*
X94667695Y-60302380D02*
X94667695Y-59302380D01*
X94762933Y-59445238D01*
X94858171Y-59540476D01*
X94953409Y-59588095D01*
X45681981Y-59302380D02*
X45681981Y-60016666D01*
X45729600Y-60159523D01*
X45824838Y-60254761D01*
X45967695Y-60302380D01*
X46062933Y-60302380D01*
X44681981Y-60302380D02*
X45253409Y-60302380D01*
X44967695Y-60302380D02*
X44967695Y-59302380D01*
X45062933Y-59445238D01*
X45158171Y-59540476D01*
X45253409Y-59588095D01*
X95381981Y-47602380D02*
X95381981Y-48316666D01*
X95429600Y-48459523D01*
X95524838Y-48554761D01*
X95667695Y-48602380D01*
X95762933Y-48602380D01*
X94381981Y-48602380D02*
X94953409Y-48602380D01*
X94667695Y-48602380D02*
X94667695Y-47602380D01*
X94762933Y-47745238D01*
X94858171Y-47840476D01*
X94953409Y-47888095D01*
X45681981Y-47602380D02*
X45681981Y-48316666D01*
X45729600Y-48459523D01*
X45824838Y-48554761D01*
X45967695Y-48602380D01*
X46062933Y-48602380D01*
X44681981Y-48602380D02*
X45253409Y-48602380D01*
X44967695Y-48602380D02*
X44967695Y-47602380D01*
X45062933Y-47745238D01*
X45158171Y-47840476D01*
X45253409Y-47888095D01*
X95381981Y-35902380D02*
X95381981Y-36616666D01*
X95429600Y-36759523D01*
X95524838Y-36854761D01*
X95667695Y-36902380D01*
X95762933Y-36902380D01*
X94381981Y-36902380D02*
X94953409Y-36902380D01*
X94667695Y-36902380D02*
X94667695Y-35902380D01*
X94762933Y-36045238D01*
X94858171Y-36140476D01*
X94953409Y-36188095D01*
X45681981Y-35902380D02*
X45681981Y-36616666D01*
X45729600Y-36759523D01*
X45824838Y-36854761D01*
X45967695Y-36902380D01*
X46062933Y-36902380D01*
X44681981Y-36902380D02*
X45253409Y-36902380D01*
X44967695Y-36902380D02*
X44967695Y-35902380D01*
X45062933Y-36045238D01*
X45158171Y-36140476D01*
X45253409Y-36188095D01*
X95381981Y-24202380D02*
X95381981Y-24916666D01*
X95429600Y-25059523D01*
X95524838Y-25154761D01*
X95667695Y-25202380D01*
X95762933Y-25202380D01*
X94381981Y-25202380D02*
X94953409Y-25202380D01*
X94667695Y-25202380D02*
X94667695Y-24202380D01*
X94762933Y-24345238D01*
X94858171Y-24440476D01*
X94953409Y-24488095D01*
X45681981Y-24202380D02*
X45681981Y-24916666D01*
X45729600Y-25059523D01*
X45824838Y-25154761D01*
X45967695Y-25202380D01*
X46062933Y-25202380D01*
X44681981Y-25202380D02*
X45253409Y-25202380D01*
X44967695Y-25202380D02*
X44967695Y-24202380D01*
X45062933Y-24345238D01*
X45158171Y-24440476D01*
X45253409Y-24488095D01*
%TO.C,C1*%
X83005790Y-61533333D02*
X83053409Y-61485714D01*
X83101028Y-61342857D01*
X83101028Y-61247619D01*
X83053409Y-61104761D01*
X82958171Y-61009523D01*
X82862933Y-60961904D01*
X82672457Y-60914285D01*
X82529600Y-60914285D01*
X82339124Y-60961904D01*
X82243886Y-61009523D01*
X82148648Y-61104761D01*
X82101028Y-61247619D01*
X82101028Y-61342857D01*
X82148648Y-61485714D01*
X82196267Y-61533333D01*
X83101028Y-62485714D02*
X83101028Y-61914285D01*
X83101028Y-62200000D02*
X82101028Y-62200000D01*
X82243886Y-62104761D01*
X82339124Y-62009523D01*
X82386743Y-61914285D01*
%TO.C,R1*%
X87101028Y-73233333D02*
X86624838Y-72900000D01*
X87101028Y-72661904D02*
X86101028Y-72661904D01*
X86101028Y-73042857D01*
X86148648Y-73138095D01*
X86196267Y-73185714D01*
X86291505Y-73233333D01*
X86434362Y-73233333D01*
X86529600Y-73185714D01*
X86577219Y-73138095D01*
X86624838Y-73042857D01*
X86624838Y-72661904D01*
X87101028Y-74185714D02*
X87101028Y-73614285D01*
X87101028Y-73900000D02*
X86101028Y-73900000D01*
X86243886Y-73804761D01*
X86339124Y-73709523D01*
X86386743Y-73614285D01*
%TO.C,C1*%
X33305790Y-108333333D02*
X33353409Y-108285714D01*
X33401028Y-108142857D01*
X33401028Y-108047619D01*
X33353409Y-107904761D01*
X33258171Y-107809523D01*
X33162933Y-107761904D01*
X32972457Y-107714285D01*
X32829600Y-107714285D01*
X32639124Y-107761904D01*
X32543886Y-107809523D01*
X32448648Y-107904761D01*
X32401028Y-108047619D01*
X32401028Y-108142857D01*
X32448648Y-108285714D01*
X32496267Y-108333333D01*
X33401028Y-109285714D02*
X33401028Y-108714285D01*
X33401028Y-109000000D02*
X32401028Y-109000000D01*
X32543886Y-108904761D01*
X32639124Y-108809523D01*
X32686743Y-108714285D01*
X33305790Y-96633333D02*
X33353409Y-96585714D01*
X33401028Y-96442857D01*
X33401028Y-96347619D01*
X33353409Y-96204761D01*
X33258171Y-96109523D01*
X33162933Y-96061904D01*
X32972457Y-96014285D01*
X32829600Y-96014285D01*
X32639124Y-96061904D01*
X32543886Y-96109523D01*
X32448648Y-96204761D01*
X32401028Y-96347619D01*
X32401028Y-96442857D01*
X32448648Y-96585714D01*
X32496267Y-96633333D01*
X33401028Y-97585714D02*
X33401028Y-97014285D01*
X33401028Y-97300000D02*
X32401028Y-97300000D01*
X32543886Y-97204761D01*
X32639124Y-97109523D01*
X32686743Y-97014285D01*
%TO.C,R2*%
X39201028Y-73233333D02*
X38724838Y-72900000D01*
X39201028Y-72661904D02*
X38201028Y-72661904D01*
X38201028Y-73042857D01*
X38248648Y-73138095D01*
X38296267Y-73185714D01*
X38391505Y-73233333D01*
X38534362Y-73233333D01*
X38629600Y-73185714D01*
X38677219Y-73138095D01*
X38724838Y-73042857D01*
X38724838Y-72661904D01*
X38296267Y-73614285D02*
X38248648Y-73661904D01*
X38201028Y-73757142D01*
X38201028Y-73995238D01*
X38248648Y-74090476D01*
X38296267Y-74138095D01*
X38391505Y-74185714D01*
X38486743Y-74185714D01*
X38629600Y-74138095D01*
X39201028Y-73566666D01*
X39201028Y-74185714D01*
%TO.C,C1*%
X83005790Y-96633333D02*
X83053409Y-96585714D01*
X83101028Y-96442857D01*
X83101028Y-96347619D01*
X83053409Y-96204761D01*
X82958171Y-96109523D01*
X82862933Y-96061904D01*
X82672457Y-96014285D01*
X82529600Y-96014285D01*
X82339124Y-96061904D01*
X82243886Y-96109523D01*
X82148648Y-96204761D01*
X82101028Y-96347619D01*
X82101028Y-96442857D01*
X82148648Y-96585714D01*
X82196267Y-96633333D01*
X83101028Y-97585714D02*
X83101028Y-97014285D01*
X83101028Y-97300000D02*
X82101028Y-97300000D01*
X82243886Y-97204761D01*
X82339124Y-97109523D01*
X82386743Y-97014285D01*
%TO.C,R3*%
X35401028Y-49833333D02*
X34924838Y-49500000D01*
X35401028Y-49261904D02*
X34401028Y-49261904D01*
X34401028Y-49642857D01*
X34448648Y-49738095D01*
X34496267Y-49785714D01*
X34591505Y-49833333D01*
X34734362Y-49833333D01*
X34829600Y-49785714D01*
X34877219Y-49738095D01*
X34924838Y-49642857D01*
X34924838Y-49261904D01*
X34401028Y-50166666D02*
X34401028Y-50785714D01*
X34781981Y-50452380D01*
X34781981Y-50595238D01*
X34829600Y-50690476D01*
X34877219Y-50738095D01*
X34972457Y-50785714D01*
X35210552Y-50785714D01*
X35305790Y-50738095D01*
X35353409Y-50690476D01*
X35401028Y-50595238D01*
X35401028Y-50309523D01*
X35353409Y-50214285D01*
X35305790Y-50166666D01*
X35401028Y-73233333D02*
X34924838Y-72900000D01*
X35401028Y-72661904D02*
X34401028Y-72661904D01*
X34401028Y-73042857D01*
X34448648Y-73138095D01*
X34496267Y-73185714D01*
X34591505Y-73233333D01*
X34734362Y-73233333D01*
X34829600Y-73185714D01*
X34877219Y-73138095D01*
X34924838Y-73042857D01*
X34924838Y-72661904D01*
X34401028Y-73566666D02*
X34401028Y-74185714D01*
X34781981Y-73852380D01*
X34781981Y-73995238D01*
X34829600Y-74090476D01*
X34877219Y-74138095D01*
X34972457Y-74185714D01*
X35210552Y-74185714D01*
X35305790Y-74138095D01*
X35353409Y-74090476D01*
X35401028Y-73995238D01*
X35401028Y-73709523D01*
X35353409Y-73614285D01*
X35305790Y-73566666D01*
X35401028Y-61533333D02*
X34924838Y-61200000D01*
X35401028Y-60961904D02*
X34401028Y-60961904D01*
X34401028Y-61342857D01*
X34448648Y-61438095D01*
X34496267Y-61485714D01*
X34591505Y-61533333D01*
X34734362Y-61533333D01*
X34829600Y-61485714D01*
X34877219Y-61438095D01*
X34924838Y-61342857D01*
X34924838Y-60961904D01*
X34401028Y-61866666D02*
X34401028Y-62485714D01*
X34781981Y-62152380D01*
X34781981Y-62295238D01*
X34829600Y-62390476D01*
X34877219Y-62438095D01*
X34972457Y-62485714D01*
X35210552Y-62485714D01*
X35305790Y-62438095D01*
X35353409Y-62390476D01*
X35401028Y-62295238D01*
X35401028Y-62009523D01*
X35353409Y-61914285D01*
X35305790Y-61866666D01*
%TO.C,J2*%
X108976981Y-106465380D02*
X108976981Y-107179666D01*
X109024600Y-107322523D01*
X109119838Y-107417761D01*
X109262695Y-107465380D01*
X109357933Y-107465380D01*
X108548409Y-106560619D02*
X108500790Y-106513000D01*
X108405552Y-106465380D01*
X108167457Y-106465380D01*
X108072219Y-106513000D01*
X108024600Y-106560619D01*
X107976981Y-106655857D01*
X107976981Y-106751095D01*
X108024600Y-106893952D01*
X108596028Y-107465380D01*
X107976981Y-107465380D01*
%TO.C,R2*%
X88901028Y-96633333D02*
X88424838Y-96300000D01*
X88901028Y-96061904D02*
X87901028Y-96061904D01*
X87901028Y-96442857D01*
X87948648Y-96538095D01*
X87996267Y-96585714D01*
X88091505Y-96633333D01*
X88234362Y-96633333D01*
X88329600Y-96585714D01*
X88377219Y-96538095D01*
X88424838Y-96442857D01*
X88424838Y-96061904D01*
X87996267Y-97014285D02*
X87948648Y-97061904D01*
X87901028Y-97157142D01*
X87901028Y-97395238D01*
X87948648Y-97490476D01*
X87996267Y-97538095D01*
X88091505Y-97585714D01*
X88186743Y-97585714D01*
X88329600Y-97538095D01*
X88901028Y-96966666D01*
X88901028Y-97585714D01*
%TO.C,R3*%
X35401028Y-96633333D02*
X34924838Y-96300000D01*
X35401028Y-96061904D02*
X34401028Y-96061904D01*
X34401028Y-96442857D01*
X34448648Y-96538095D01*
X34496267Y-96585714D01*
X34591505Y-96633333D01*
X34734362Y-96633333D01*
X34829600Y-96585714D01*
X34877219Y-96538095D01*
X34924838Y-96442857D01*
X34924838Y-96061904D01*
X34401028Y-96966666D02*
X34401028Y-97585714D01*
X34781981Y-97252380D01*
X34781981Y-97395238D01*
X34829600Y-97490476D01*
X34877219Y-97538095D01*
X34972457Y-97585714D01*
X35210552Y-97585714D01*
X35305790Y-97538095D01*
X35353409Y-97490476D01*
X35401028Y-97395238D01*
X35401028Y-97109523D01*
X35353409Y-97014285D01*
X35305790Y-96966666D01*
%TO.C,R2*%
X39201028Y-61533333D02*
X38724838Y-61200000D01*
X39201028Y-60961904D02*
X38201028Y-60961904D01*
X38201028Y-61342857D01*
X38248648Y-61438095D01*
X38296267Y-61485714D01*
X38391505Y-61533333D01*
X38534362Y-61533333D01*
X38629600Y-61485714D01*
X38677219Y-61438095D01*
X38724838Y-61342857D01*
X38724838Y-60961904D01*
X38296267Y-61914285D02*
X38248648Y-61961904D01*
X38201028Y-62057142D01*
X38201028Y-62295238D01*
X38248648Y-62390476D01*
X38296267Y-62438095D01*
X38391505Y-62485714D01*
X38486743Y-62485714D01*
X38629600Y-62438095D01*
X39201028Y-61866666D01*
X39201028Y-62485714D01*
X88901028Y-49833333D02*
X88424838Y-49500000D01*
X88901028Y-49261904D02*
X87901028Y-49261904D01*
X87901028Y-49642857D01*
X87948648Y-49738095D01*
X87996267Y-49785714D01*
X88091505Y-49833333D01*
X88234362Y-49833333D01*
X88329600Y-49785714D01*
X88377219Y-49738095D01*
X88424838Y-49642857D01*
X88424838Y-49261904D01*
X87996267Y-50214285D02*
X87948648Y-50261904D01*
X87901028Y-50357142D01*
X87901028Y-50595238D01*
X87948648Y-50690476D01*
X87996267Y-50738095D01*
X88091505Y-50785714D01*
X88186743Y-50785714D01*
X88329600Y-50738095D01*
X88901028Y-50166666D01*
X88901028Y-50785714D01*
%TO.C,R3*%
X85101028Y-96633333D02*
X84624838Y-96300000D01*
X85101028Y-96061904D02*
X84101028Y-96061904D01*
X84101028Y-96442857D01*
X84148648Y-96538095D01*
X84196267Y-96585714D01*
X84291505Y-96633333D01*
X84434362Y-96633333D01*
X84529600Y-96585714D01*
X84577219Y-96538095D01*
X84624838Y-96442857D01*
X84624838Y-96061904D01*
X84101028Y-96966666D02*
X84101028Y-97585714D01*
X84481981Y-97252380D01*
X84481981Y-97395238D01*
X84529600Y-97490476D01*
X84577219Y-97538095D01*
X84672457Y-97585714D01*
X84910552Y-97585714D01*
X85005790Y-97538095D01*
X85053409Y-97490476D01*
X85101028Y-97395238D01*
X85101028Y-97109523D01*
X85053409Y-97014285D01*
X85005790Y-96966666D01*
%TO.C,R2*%
X39201028Y-96633333D02*
X38724838Y-96300000D01*
X39201028Y-96061904D02*
X38201028Y-96061904D01*
X38201028Y-96442857D01*
X38248648Y-96538095D01*
X38296267Y-96585714D01*
X38391505Y-96633333D01*
X38534362Y-96633333D01*
X38629600Y-96585714D01*
X38677219Y-96538095D01*
X38724838Y-96442857D01*
X38724838Y-96061904D01*
X38296267Y-97014285D02*
X38248648Y-97061904D01*
X38201028Y-97157142D01*
X38201028Y-97395238D01*
X38248648Y-97490476D01*
X38296267Y-97538095D01*
X38391505Y-97585714D01*
X38486743Y-97585714D01*
X38629600Y-97538095D01*
X39201028Y-96966666D01*
X39201028Y-97585714D01*
%TO.C,C1*%
X33305790Y-49833333D02*
X33353409Y-49785714D01*
X33401028Y-49642857D01*
X33401028Y-49547619D01*
X33353409Y-49404761D01*
X33258171Y-49309523D01*
X33162933Y-49261904D01*
X32972457Y-49214285D01*
X32829600Y-49214285D01*
X32639124Y-49261904D01*
X32543886Y-49309523D01*
X32448648Y-49404761D01*
X32401028Y-49547619D01*
X32401028Y-49642857D01*
X32448648Y-49785714D01*
X32496267Y-49833333D01*
X33401028Y-50785714D02*
X33401028Y-50214285D01*
X33401028Y-50500000D02*
X32401028Y-50500000D01*
X32543886Y-50404761D01*
X32639124Y-50309523D01*
X32686743Y-50214285D01*
X83005790Y-38133333D02*
X83053409Y-38085714D01*
X83101028Y-37942857D01*
X83101028Y-37847619D01*
X83053409Y-37704761D01*
X82958171Y-37609523D01*
X82862933Y-37561904D01*
X82672457Y-37514285D01*
X82529600Y-37514285D01*
X82339124Y-37561904D01*
X82243886Y-37609523D01*
X82148648Y-37704761D01*
X82101028Y-37847619D01*
X82101028Y-37942857D01*
X82148648Y-38085714D01*
X82196267Y-38133333D01*
X83101028Y-39085714D02*
X83101028Y-38514285D01*
X83101028Y-38800000D02*
X82101028Y-38800000D01*
X82243886Y-38704761D01*
X82339124Y-38609523D01*
X82386743Y-38514285D01*
%TO.C,R3*%
X85101028Y-49833333D02*
X84624838Y-49500000D01*
X85101028Y-49261904D02*
X84101028Y-49261904D01*
X84101028Y-49642857D01*
X84148648Y-49738095D01*
X84196267Y-49785714D01*
X84291505Y-49833333D01*
X84434362Y-49833333D01*
X84529600Y-49785714D01*
X84577219Y-49738095D01*
X84624838Y-49642857D01*
X84624838Y-49261904D01*
X84101028Y-50166666D02*
X84101028Y-50785714D01*
X84481981Y-50452380D01*
X84481981Y-50595238D01*
X84529600Y-50690476D01*
X84577219Y-50738095D01*
X84672457Y-50785714D01*
X84910552Y-50785714D01*
X85005790Y-50738095D01*
X85053409Y-50690476D01*
X85101028Y-50595238D01*
X85101028Y-50309523D01*
X85053409Y-50214285D01*
X85005790Y-50166666D01*
%TO.C,J2*%
X59276981Y-47965380D02*
X59276981Y-48679666D01*
X59324600Y-48822523D01*
X59419838Y-48917761D01*
X59562695Y-48965380D01*
X59657933Y-48965380D01*
X58848409Y-48060619D02*
X58800790Y-48013000D01*
X58705552Y-47965380D01*
X58467457Y-47965380D01*
X58372219Y-48013000D01*
X58324600Y-48060619D01*
X58276981Y-48155857D01*
X58276981Y-48251095D01*
X58324600Y-48393952D01*
X58896028Y-48965380D01*
X58276981Y-48965380D01*
%TO.C,C1*%
X83005790Y-49833333D02*
X83053409Y-49785714D01*
X83101028Y-49642857D01*
X83101028Y-49547619D01*
X83053409Y-49404761D01*
X82958171Y-49309523D01*
X82862933Y-49261904D01*
X82672457Y-49214285D01*
X82529600Y-49214285D01*
X82339124Y-49261904D01*
X82243886Y-49309523D01*
X82148648Y-49404761D01*
X82101028Y-49547619D01*
X82101028Y-49642857D01*
X82148648Y-49785714D01*
X82196267Y-49833333D01*
X83101028Y-50785714D02*
X83101028Y-50214285D01*
X83101028Y-50500000D02*
X82101028Y-50500000D01*
X82243886Y-50404761D01*
X82339124Y-50309523D01*
X82386743Y-50214285D01*
%TO.C,J2*%
X108976981Y-83065380D02*
X108976981Y-83779666D01*
X109024600Y-83922523D01*
X109119838Y-84017761D01*
X109262695Y-84065380D01*
X109357933Y-84065380D01*
X108548409Y-83160619D02*
X108500790Y-83113000D01*
X108405552Y-83065380D01*
X108167457Y-83065380D01*
X108072219Y-83113000D01*
X108024600Y-83160619D01*
X107976981Y-83255857D01*
X107976981Y-83351095D01*
X108024600Y-83493952D01*
X108596028Y-84065380D01*
X107976981Y-84065380D01*
X59276981Y-83065380D02*
X59276981Y-83779666D01*
X59324600Y-83922523D01*
X59419838Y-84017761D01*
X59562695Y-84065380D01*
X59657933Y-84065380D01*
X58848409Y-83160619D02*
X58800790Y-83113000D01*
X58705552Y-83065380D01*
X58467457Y-83065380D01*
X58372219Y-83113000D01*
X58324600Y-83160619D01*
X58276981Y-83255857D01*
X58276981Y-83351095D01*
X58324600Y-83493952D01*
X58896028Y-84065380D01*
X58276981Y-84065380D01*
%TO.C,R3*%
X85101028Y-84933333D02*
X84624838Y-84600000D01*
X85101028Y-84361904D02*
X84101028Y-84361904D01*
X84101028Y-84742857D01*
X84148648Y-84838095D01*
X84196267Y-84885714D01*
X84291505Y-84933333D01*
X84434362Y-84933333D01*
X84529600Y-84885714D01*
X84577219Y-84838095D01*
X84624838Y-84742857D01*
X84624838Y-84361904D01*
X84101028Y-85266666D02*
X84101028Y-85885714D01*
X84481981Y-85552380D01*
X84481981Y-85695238D01*
X84529600Y-85790476D01*
X84577219Y-85838095D01*
X84672457Y-85885714D01*
X84910552Y-85885714D01*
X85005790Y-85838095D01*
X85053409Y-85790476D01*
X85101028Y-85695238D01*
X85101028Y-85409523D01*
X85053409Y-85314285D01*
X85005790Y-85266666D01*
%TO.C,R2*%
X39201028Y-84933333D02*
X38724838Y-84600000D01*
X39201028Y-84361904D02*
X38201028Y-84361904D01*
X38201028Y-84742857D01*
X38248648Y-84838095D01*
X38296267Y-84885714D01*
X38391505Y-84933333D01*
X38534362Y-84933333D01*
X38629600Y-84885714D01*
X38677219Y-84838095D01*
X38724838Y-84742857D01*
X38724838Y-84361904D01*
X38296267Y-85314285D02*
X38248648Y-85361904D01*
X38201028Y-85457142D01*
X38201028Y-85695238D01*
X38248648Y-85790476D01*
X38296267Y-85838095D01*
X38391505Y-85885714D01*
X38486743Y-85885714D01*
X38629600Y-85838095D01*
X39201028Y-85266666D01*
X39201028Y-85885714D01*
%TO.C,R3*%
X85101028Y-26433333D02*
X84624838Y-26100000D01*
X85101028Y-25861904D02*
X84101028Y-25861904D01*
X84101028Y-26242857D01*
X84148648Y-26338095D01*
X84196267Y-26385714D01*
X84291505Y-26433333D01*
X84434362Y-26433333D01*
X84529600Y-26385714D01*
X84577219Y-26338095D01*
X84624838Y-26242857D01*
X84624838Y-25861904D01*
X84101028Y-26766666D02*
X84101028Y-27385714D01*
X84481981Y-27052380D01*
X84481981Y-27195238D01*
X84529600Y-27290476D01*
X84577219Y-27338095D01*
X84672457Y-27385714D01*
X84910552Y-27385714D01*
X85005790Y-27338095D01*
X85053409Y-27290476D01*
X85101028Y-27195238D01*
X85101028Y-26909523D01*
X85053409Y-26814285D01*
X85005790Y-26766666D01*
%TO.C,R1*%
X87101028Y-96633333D02*
X86624838Y-96300000D01*
X87101028Y-96061904D02*
X86101028Y-96061904D01*
X86101028Y-96442857D01*
X86148648Y-96538095D01*
X86196267Y-96585714D01*
X86291505Y-96633333D01*
X86434362Y-96633333D01*
X86529600Y-96585714D01*
X86577219Y-96538095D01*
X86624838Y-96442857D01*
X86624838Y-96061904D01*
X87101028Y-97585714D02*
X87101028Y-97014285D01*
X87101028Y-97300000D02*
X86101028Y-97300000D01*
X86243886Y-97204761D01*
X86339124Y-97109523D01*
X86386743Y-97014285D01*
%TO.C,R2*%
X88901028Y-73233333D02*
X88424838Y-72900000D01*
X88901028Y-72661904D02*
X87901028Y-72661904D01*
X87901028Y-73042857D01*
X87948648Y-73138095D01*
X87996267Y-73185714D01*
X88091505Y-73233333D01*
X88234362Y-73233333D01*
X88329600Y-73185714D01*
X88377219Y-73138095D01*
X88424838Y-73042857D01*
X88424838Y-72661904D01*
X87996267Y-73614285D02*
X87948648Y-73661904D01*
X87901028Y-73757142D01*
X87901028Y-73995238D01*
X87948648Y-74090476D01*
X87996267Y-74138095D01*
X88091505Y-74185714D01*
X88186743Y-74185714D01*
X88329600Y-74138095D01*
X88901028Y-73566666D01*
X88901028Y-74185714D01*
%TO.C,J2*%
X59276981Y-36265380D02*
X59276981Y-36979666D01*
X59324600Y-37122523D01*
X59419838Y-37217761D01*
X59562695Y-37265380D01*
X59657933Y-37265380D01*
X58848409Y-36360619D02*
X58800790Y-36313000D01*
X58705552Y-36265380D01*
X58467457Y-36265380D01*
X58372219Y-36313000D01*
X58324600Y-36360619D01*
X58276981Y-36455857D01*
X58276981Y-36551095D01*
X58324600Y-36693952D01*
X58896028Y-37265380D01*
X58276981Y-37265380D01*
%TO.C,R1*%
X87101028Y-38133333D02*
X86624838Y-37800000D01*
X87101028Y-37561904D02*
X86101028Y-37561904D01*
X86101028Y-37942857D01*
X86148648Y-38038095D01*
X86196267Y-38085714D01*
X86291505Y-38133333D01*
X86434362Y-38133333D01*
X86529600Y-38085714D01*
X86577219Y-38038095D01*
X86624838Y-37942857D01*
X86624838Y-37561904D01*
X87101028Y-39085714D02*
X87101028Y-38514285D01*
X87101028Y-38800000D02*
X86101028Y-38800000D01*
X86243886Y-38704761D01*
X86339124Y-38609523D01*
X86386743Y-38514285D01*
%TO.C,R2*%
X88901028Y-38133333D02*
X88424838Y-37800000D01*
X88901028Y-37561904D02*
X87901028Y-37561904D01*
X87901028Y-37942857D01*
X87948648Y-38038095D01*
X87996267Y-38085714D01*
X88091505Y-38133333D01*
X88234362Y-38133333D01*
X88329600Y-38085714D01*
X88377219Y-38038095D01*
X88424838Y-37942857D01*
X88424838Y-37561904D01*
X87996267Y-38514285D02*
X87948648Y-38561904D01*
X87901028Y-38657142D01*
X87901028Y-38895238D01*
X87948648Y-38990476D01*
X87996267Y-39038095D01*
X88091505Y-39085714D01*
X88186743Y-39085714D01*
X88329600Y-39038095D01*
X88901028Y-38466666D01*
X88901028Y-39085714D01*
%TO.C,J2*%
X59276981Y-94765380D02*
X59276981Y-95479666D01*
X59324600Y-95622523D01*
X59419838Y-95717761D01*
X59562695Y-95765380D01*
X59657933Y-95765380D01*
X58848409Y-94860619D02*
X58800790Y-94813000D01*
X58705552Y-94765380D01*
X58467457Y-94765380D01*
X58372219Y-94813000D01*
X58324600Y-94860619D01*
X58276981Y-94955857D01*
X58276981Y-95051095D01*
X58324600Y-95193952D01*
X58896028Y-95765380D01*
X58276981Y-95765380D01*
%TO.C,R3*%
X85101028Y-73233333D02*
X84624838Y-72900000D01*
X85101028Y-72661904D02*
X84101028Y-72661904D01*
X84101028Y-73042857D01*
X84148648Y-73138095D01*
X84196267Y-73185714D01*
X84291505Y-73233333D01*
X84434362Y-73233333D01*
X84529600Y-73185714D01*
X84577219Y-73138095D01*
X84624838Y-73042857D01*
X84624838Y-72661904D01*
X84101028Y-73566666D02*
X84101028Y-74185714D01*
X84481981Y-73852380D01*
X84481981Y-73995238D01*
X84529600Y-74090476D01*
X84577219Y-74138095D01*
X84672457Y-74185714D01*
X84910552Y-74185714D01*
X85005790Y-74138095D01*
X85053409Y-74090476D01*
X85101028Y-73995238D01*
X85101028Y-73709523D01*
X85053409Y-73614285D01*
X85005790Y-73566666D01*
%TO.C,R1*%
X87101028Y-49833333D02*
X86624838Y-49500000D01*
X87101028Y-49261904D02*
X86101028Y-49261904D01*
X86101028Y-49642857D01*
X86148648Y-49738095D01*
X86196267Y-49785714D01*
X86291505Y-49833333D01*
X86434362Y-49833333D01*
X86529600Y-49785714D01*
X86577219Y-49738095D01*
X86624838Y-49642857D01*
X86624838Y-49261904D01*
X87101028Y-50785714D02*
X87101028Y-50214285D01*
X87101028Y-50500000D02*
X86101028Y-50500000D01*
X86243886Y-50404761D01*
X86339124Y-50309523D01*
X86386743Y-50214285D01*
%TO.C,J2*%
X108976981Y-36265380D02*
X108976981Y-36979666D01*
X109024600Y-37122523D01*
X109119838Y-37217761D01*
X109262695Y-37265380D01*
X109357933Y-37265380D01*
X108548409Y-36360619D02*
X108500790Y-36313000D01*
X108405552Y-36265380D01*
X108167457Y-36265380D01*
X108072219Y-36313000D01*
X108024600Y-36360619D01*
X107976981Y-36455857D01*
X107976981Y-36551095D01*
X108024600Y-36693952D01*
X108596028Y-37265380D01*
X107976981Y-37265380D01*
%TO.C,R2*%
X39201028Y-26433333D02*
X38724838Y-26100000D01*
X39201028Y-25861904D02*
X38201028Y-25861904D01*
X38201028Y-26242857D01*
X38248648Y-26338095D01*
X38296267Y-26385714D01*
X38391505Y-26433333D01*
X38534362Y-26433333D01*
X38629600Y-26385714D01*
X38677219Y-26338095D01*
X38724838Y-26242857D01*
X38724838Y-25861904D01*
X38296267Y-26814285D02*
X38248648Y-26861904D01*
X38201028Y-26957142D01*
X38201028Y-27195238D01*
X38248648Y-27290476D01*
X38296267Y-27338095D01*
X38391505Y-27385714D01*
X38486743Y-27385714D01*
X38629600Y-27338095D01*
X39201028Y-26766666D01*
X39201028Y-27385714D01*
X88901028Y-108333333D02*
X88424838Y-108000000D01*
X88901028Y-107761904D02*
X87901028Y-107761904D01*
X87901028Y-108142857D01*
X87948648Y-108238095D01*
X87996267Y-108285714D01*
X88091505Y-108333333D01*
X88234362Y-108333333D01*
X88329600Y-108285714D01*
X88377219Y-108238095D01*
X88424838Y-108142857D01*
X88424838Y-107761904D01*
X87996267Y-108714285D02*
X87948648Y-108761904D01*
X87901028Y-108857142D01*
X87901028Y-109095238D01*
X87948648Y-109190476D01*
X87996267Y-109238095D01*
X88091505Y-109285714D01*
X88186743Y-109285714D01*
X88329600Y-109238095D01*
X88901028Y-108666666D01*
X88901028Y-109285714D01*
%TO.C,J2*%
X59276981Y-71365380D02*
X59276981Y-72079666D01*
X59324600Y-72222523D01*
X59419838Y-72317761D01*
X59562695Y-72365380D01*
X59657933Y-72365380D01*
X58848409Y-71460619D02*
X58800790Y-71413000D01*
X58705552Y-71365380D01*
X58467457Y-71365380D01*
X58372219Y-71413000D01*
X58324600Y-71460619D01*
X58276981Y-71555857D01*
X58276981Y-71651095D01*
X58324600Y-71793952D01*
X58896028Y-72365380D01*
X58276981Y-72365380D01*
%TO.C,R1*%
X87101028Y-108333333D02*
X86624838Y-108000000D01*
X87101028Y-107761904D02*
X86101028Y-107761904D01*
X86101028Y-108142857D01*
X86148648Y-108238095D01*
X86196267Y-108285714D01*
X86291505Y-108333333D01*
X86434362Y-108333333D01*
X86529600Y-108285714D01*
X86577219Y-108238095D01*
X86624838Y-108142857D01*
X86624838Y-107761904D01*
X87101028Y-109285714D02*
X87101028Y-108714285D01*
X87101028Y-109000000D02*
X86101028Y-109000000D01*
X86243886Y-108904761D01*
X86339124Y-108809523D01*
X86386743Y-108714285D01*
X37401028Y-84933333D02*
X36924838Y-84600000D01*
X37401028Y-84361904D02*
X36401028Y-84361904D01*
X36401028Y-84742857D01*
X36448648Y-84838095D01*
X36496267Y-84885714D01*
X36591505Y-84933333D01*
X36734362Y-84933333D01*
X36829600Y-84885714D01*
X36877219Y-84838095D01*
X36924838Y-84742857D01*
X36924838Y-84361904D01*
X37401028Y-85885714D02*
X37401028Y-85314285D01*
X37401028Y-85600000D02*
X36401028Y-85600000D01*
X36543886Y-85504761D01*
X36639124Y-85409523D01*
X36686743Y-85314285D01*
X87101028Y-61533333D02*
X86624838Y-61200000D01*
X87101028Y-60961904D02*
X86101028Y-60961904D01*
X86101028Y-61342857D01*
X86148648Y-61438095D01*
X86196267Y-61485714D01*
X86291505Y-61533333D01*
X86434362Y-61533333D01*
X86529600Y-61485714D01*
X86577219Y-61438095D01*
X86624838Y-61342857D01*
X86624838Y-60961904D01*
X87101028Y-62485714D02*
X87101028Y-61914285D01*
X87101028Y-62200000D02*
X86101028Y-62200000D01*
X86243886Y-62104761D01*
X86339124Y-62009523D01*
X86386743Y-61914285D01*
X37401028Y-49833333D02*
X36924838Y-49500000D01*
X37401028Y-49261904D02*
X36401028Y-49261904D01*
X36401028Y-49642857D01*
X36448648Y-49738095D01*
X36496267Y-49785714D01*
X36591505Y-49833333D01*
X36734362Y-49833333D01*
X36829600Y-49785714D01*
X36877219Y-49738095D01*
X36924838Y-49642857D01*
X36924838Y-49261904D01*
X37401028Y-50785714D02*
X37401028Y-50214285D01*
X37401028Y-50500000D02*
X36401028Y-50500000D01*
X36543886Y-50404761D01*
X36639124Y-50309523D01*
X36686743Y-50214285D01*
X37401028Y-96633333D02*
X36924838Y-96300000D01*
X37401028Y-96061904D02*
X36401028Y-96061904D01*
X36401028Y-96442857D01*
X36448648Y-96538095D01*
X36496267Y-96585714D01*
X36591505Y-96633333D01*
X36734362Y-96633333D01*
X36829600Y-96585714D01*
X36877219Y-96538095D01*
X36924838Y-96442857D01*
X36924838Y-96061904D01*
X37401028Y-97585714D02*
X37401028Y-97014285D01*
X37401028Y-97300000D02*
X36401028Y-97300000D01*
X36543886Y-97204761D01*
X36639124Y-97109523D01*
X36686743Y-97014285D01*
%TO.C,R3*%
X35401028Y-84933333D02*
X34924838Y-84600000D01*
X35401028Y-84361904D02*
X34401028Y-84361904D01*
X34401028Y-84742857D01*
X34448648Y-84838095D01*
X34496267Y-84885714D01*
X34591505Y-84933333D01*
X34734362Y-84933333D01*
X34829600Y-84885714D01*
X34877219Y-84838095D01*
X34924838Y-84742857D01*
X34924838Y-84361904D01*
X34401028Y-85266666D02*
X34401028Y-85885714D01*
X34781981Y-85552380D01*
X34781981Y-85695238D01*
X34829600Y-85790476D01*
X34877219Y-85838095D01*
X34972457Y-85885714D01*
X35210552Y-85885714D01*
X35305790Y-85838095D01*
X35353409Y-85790476D01*
X35401028Y-85695238D01*
X35401028Y-85409523D01*
X35353409Y-85314285D01*
X35305790Y-85266666D01*
%TO.C,R1*%
X37401028Y-73233333D02*
X36924838Y-72900000D01*
X37401028Y-72661904D02*
X36401028Y-72661904D01*
X36401028Y-73042857D01*
X36448648Y-73138095D01*
X36496267Y-73185714D01*
X36591505Y-73233333D01*
X36734362Y-73233333D01*
X36829600Y-73185714D01*
X36877219Y-73138095D01*
X36924838Y-73042857D01*
X36924838Y-72661904D01*
X37401028Y-74185714D02*
X37401028Y-73614285D01*
X37401028Y-73900000D02*
X36401028Y-73900000D01*
X36543886Y-73804761D01*
X36639124Y-73709523D01*
X36686743Y-73614285D01*
%TO.C,J2*%
X108976981Y-24565380D02*
X108976981Y-25279666D01*
X109024600Y-25422523D01*
X109119838Y-25517761D01*
X109262695Y-25565380D01*
X109357933Y-25565380D01*
X108548409Y-24660619D02*
X108500790Y-24613000D01*
X108405552Y-24565380D01*
X108167457Y-24565380D01*
X108072219Y-24613000D01*
X108024600Y-24660619D01*
X107976981Y-24755857D01*
X107976981Y-24851095D01*
X108024600Y-24993952D01*
X108596028Y-25565380D01*
X107976981Y-25565380D01*
%TO.C,R3*%
X85101028Y-108333333D02*
X84624838Y-108000000D01*
X85101028Y-107761904D02*
X84101028Y-107761904D01*
X84101028Y-108142857D01*
X84148648Y-108238095D01*
X84196267Y-108285714D01*
X84291505Y-108333333D01*
X84434362Y-108333333D01*
X84529600Y-108285714D01*
X84577219Y-108238095D01*
X84624838Y-108142857D01*
X84624838Y-107761904D01*
X84101028Y-108666666D02*
X84101028Y-109285714D01*
X84481981Y-108952380D01*
X84481981Y-109095238D01*
X84529600Y-109190476D01*
X84577219Y-109238095D01*
X84672457Y-109285714D01*
X84910552Y-109285714D01*
X85005790Y-109238095D01*
X85053409Y-109190476D01*
X85101028Y-109095238D01*
X85101028Y-108809523D01*
X85053409Y-108714285D01*
X85005790Y-108666666D01*
X35401028Y-26433333D02*
X34924838Y-26100000D01*
X35401028Y-25861904D02*
X34401028Y-25861904D01*
X34401028Y-26242857D01*
X34448648Y-26338095D01*
X34496267Y-26385714D01*
X34591505Y-26433333D01*
X34734362Y-26433333D01*
X34829600Y-26385714D01*
X34877219Y-26338095D01*
X34924838Y-26242857D01*
X34924838Y-25861904D01*
X34401028Y-26766666D02*
X34401028Y-27385714D01*
X34781981Y-27052380D01*
X34781981Y-27195238D01*
X34829600Y-27290476D01*
X34877219Y-27338095D01*
X34972457Y-27385714D01*
X35210552Y-27385714D01*
X35305790Y-27338095D01*
X35353409Y-27290476D01*
X35401028Y-27195238D01*
X35401028Y-26909523D01*
X35353409Y-26814285D01*
X35305790Y-26766666D01*
X85101028Y-38133333D02*
X84624838Y-37800000D01*
X85101028Y-37561904D02*
X84101028Y-37561904D01*
X84101028Y-37942857D01*
X84148648Y-38038095D01*
X84196267Y-38085714D01*
X84291505Y-38133333D01*
X84434362Y-38133333D01*
X84529600Y-38085714D01*
X84577219Y-38038095D01*
X84624838Y-37942857D01*
X84624838Y-37561904D01*
X84101028Y-38466666D02*
X84101028Y-39085714D01*
X84481981Y-38752380D01*
X84481981Y-38895238D01*
X84529600Y-38990476D01*
X84577219Y-39038095D01*
X84672457Y-39085714D01*
X84910552Y-39085714D01*
X85005790Y-39038095D01*
X85053409Y-38990476D01*
X85101028Y-38895238D01*
X85101028Y-38609523D01*
X85053409Y-38514285D01*
X85005790Y-38466666D01*
X35401028Y-38133333D02*
X34924838Y-37800000D01*
X35401028Y-37561904D02*
X34401028Y-37561904D01*
X34401028Y-37942857D01*
X34448648Y-38038095D01*
X34496267Y-38085714D01*
X34591505Y-38133333D01*
X34734362Y-38133333D01*
X34829600Y-38085714D01*
X34877219Y-38038095D01*
X34924838Y-37942857D01*
X34924838Y-37561904D01*
X34401028Y-38466666D02*
X34401028Y-39085714D01*
X34781981Y-38752380D01*
X34781981Y-38895238D01*
X34829600Y-38990476D01*
X34877219Y-39038095D01*
X34972457Y-39085714D01*
X35210552Y-39085714D01*
X35305790Y-39038095D01*
X35353409Y-38990476D01*
X35401028Y-38895238D01*
X35401028Y-38609523D01*
X35353409Y-38514285D01*
X35305790Y-38466666D01*
%TO.C,C1*%
X33305790Y-61533333D02*
X33353409Y-61485714D01*
X33401028Y-61342857D01*
X33401028Y-61247619D01*
X33353409Y-61104761D01*
X33258171Y-61009523D01*
X33162933Y-60961904D01*
X32972457Y-60914285D01*
X32829600Y-60914285D01*
X32639124Y-60961904D01*
X32543886Y-61009523D01*
X32448648Y-61104761D01*
X32401028Y-61247619D01*
X32401028Y-61342857D01*
X32448648Y-61485714D01*
X32496267Y-61533333D01*
X33401028Y-62485714D02*
X33401028Y-61914285D01*
X33401028Y-62200000D02*
X32401028Y-62200000D01*
X32543886Y-62104761D01*
X32639124Y-62009523D01*
X32686743Y-61914285D01*
%TO.C,J2*%
X59276981Y-24565380D02*
X59276981Y-25279666D01*
X59324600Y-25422523D01*
X59419838Y-25517761D01*
X59562695Y-25565380D01*
X59657933Y-25565380D01*
X58848409Y-24660619D02*
X58800790Y-24613000D01*
X58705552Y-24565380D01*
X58467457Y-24565380D01*
X58372219Y-24613000D01*
X58324600Y-24660619D01*
X58276981Y-24755857D01*
X58276981Y-24851095D01*
X58324600Y-24993952D01*
X58896028Y-25565380D01*
X58276981Y-25565380D01*
%TO.C,C1*%
X33305790Y-84933333D02*
X33353409Y-84885714D01*
X33401028Y-84742857D01*
X33401028Y-84647619D01*
X33353409Y-84504761D01*
X33258171Y-84409523D01*
X33162933Y-84361904D01*
X32972457Y-84314285D01*
X32829600Y-84314285D01*
X32639124Y-84361904D01*
X32543886Y-84409523D01*
X32448648Y-84504761D01*
X32401028Y-84647619D01*
X32401028Y-84742857D01*
X32448648Y-84885714D01*
X32496267Y-84933333D01*
X33401028Y-85885714D02*
X33401028Y-85314285D01*
X33401028Y-85600000D02*
X32401028Y-85600000D01*
X32543886Y-85504761D01*
X32639124Y-85409523D01*
X32686743Y-85314285D01*
%TO.C,R3*%
X85101028Y-61533333D02*
X84624838Y-61200000D01*
X85101028Y-60961904D02*
X84101028Y-60961904D01*
X84101028Y-61342857D01*
X84148648Y-61438095D01*
X84196267Y-61485714D01*
X84291505Y-61533333D01*
X84434362Y-61533333D01*
X84529600Y-61485714D01*
X84577219Y-61438095D01*
X84624838Y-61342857D01*
X84624838Y-60961904D01*
X84101028Y-61866666D02*
X84101028Y-62485714D01*
X84481981Y-62152380D01*
X84481981Y-62295238D01*
X84529600Y-62390476D01*
X84577219Y-62438095D01*
X84672457Y-62485714D01*
X84910552Y-62485714D01*
X85005790Y-62438095D01*
X85053409Y-62390476D01*
X85101028Y-62295238D01*
X85101028Y-62009523D01*
X85053409Y-61914285D01*
X85005790Y-61866666D01*
%TO.C,R2*%
X39201028Y-38133333D02*
X38724838Y-37800000D01*
X39201028Y-37561904D02*
X38201028Y-37561904D01*
X38201028Y-37942857D01*
X38248648Y-38038095D01*
X38296267Y-38085714D01*
X38391505Y-38133333D01*
X38534362Y-38133333D01*
X38629600Y-38085714D01*
X38677219Y-38038095D01*
X38724838Y-37942857D01*
X38724838Y-37561904D01*
X38296267Y-38514285D02*
X38248648Y-38561904D01*
X38201028Y-38657142D01*
X38201028Y-38895238D01*
X38248648Y-38990476D01*
X38296267Y-39038095D01*
X38391505Y-39085714D01*
X38486743Y-39085714D01*
X38629600Y-39038095D01*
X39201028Y-38466666D01*
X39201028Y-39085714D01*
%TO.C,C1*%
X33305790Y-26433333D02*
X33353409Y-26385714D01*
X33401028Y-26242857D01*
X33401028Y-26147619D01*
X33353409Y-26004761D01*
X33258171Y-25909523D01*
X33162933Y-25861904D01*
X32972457Y-25814285D01*
X32829600Y-25814285D01*
X32639124Y-25861904D01*
X32543886Y-25909523D01*
X32448648Y-26004761D01*
X32401028Y-26147619D01*
X32401028Y-26242857D01*
X32448648Y-26385714D01*
X32496267Y-26433333D01*
X33401028Y-27385714D02*
X33401028Y-26814285D01*
X33401028Y-27100000D02*
X32401028Y-27100000D01*
X32543886Y-27004761D01*
X32639124Y-26909523D01*
X32686743Y-26814285D01*
%TO.C,R3*%
X35401028Y-108333333D02*
X34924838Y-108000000D01*
X35401028Y-107761904D02*
X34401028Y-107761904D01*
X34401028Y-108142857D01*
X34448648Y-108238095D01*
X34496267Y-108285714D01*
X34591505Y-108333333D01*
X34734362Y-108333333D01*
X34829600Y-108285714D01*
X34877219Y-108238095D01*
X34924838Y-108142857D01*
X34924838Y-107761904D01*
X34401028Y-108666666D02*
X34401028Y-109285714D01*
X34781981Y-108952380D01*
X34781981Y-109095238D01*
X34829600Y-109190476D01*
X34877219Y-109238095D01*
X34972457Y-109285714D01*
X35210552Y-109285714D01*
X35305790Y-109238095D01*
X35353409Y-109190476D01*
X35401028Y-109095238D01*
X35401028Y-108809523D01*
X35353409Y-108714285D01*
X35305790Y-108666666D01*
%TO.C,R1*%
X87101028Y-84933333D02*
X86624838Y-84600000D01*
X87101028Y-84361904D02*
X86101028Y-84361904D01*
X86101028Y-84742857D01*
X86148648Y-84838095D01*
X86196267Y-84885714D01*
X86291505Y-84933333D01*
X86434362Y-84933333D01*
X86529600Y-84885714D01*
X86577219Y-84838095D01*
X86624838Y-84742857D01*
X86624838Y-84361904D01*
X87101028Y-85885714D02*
X87101028Y-85314285D01*
X87101028Y-85600000D02*
X86101028Y-85600000D01*
X86243886Y-85504761D01*
X86339124Y-85409523D01*
X86386743Y-85314285D01*
X37401028Y-38133333D02*
X36924838Y-37800000D01*
X37401028Y-37561904D02*
X36401028Y-37561904D01*
X36401028Y-37942857D01*
X36448648Y-38038095D01*
X36496267Y-38085714D01*
X36591505Y-38133333D01*
X36734362Y-38133333D01*
X36829600Y-38085714D01*
X36877219Y-38038095D01*
X36924838Y-37942857D01*
X36924838Y-37561904D01*
X37401028Y-39085714D02*
X37401028Y-38514285D01*
X37401028Y-38800000D02*
X36401028Y-38800000D01*
X36543886Y-38704761D01*
X36639124Y-38609523D01*
X36686743Y-38514285D01*
%TO.C,R2*%
X39201028Y-49833333D02*
X38724838Y-49500000D01*
X39201028Y-49261904D02*
X38201028Y-49261904D01*
X38201028Y-49642857D01*
X38248648Y-49738095D01*
X38296267Y-49785714D01*
X38391505Y-49833333D01*
X38534362Y-49833333D01*
X38629600Y-49785714D01*
X38677219Y-49738095D01*
X38724838Y-49642857D01*
X38724838Y-49261904D01*
X38296267Y-50214285D02*
X38248648Y-50261904D01*
X38201028Y-50357142D01*
X38201028Y-50595238D01*
X38248648Y-50690476D01*
X38296267Y-50738095D01*
X38391505Y-50785714D01*
X38486743Y-50785714D01*
X38629600Y-50738095D01*
X39201028Y-50166666D01*
X39201028Y-50785714D01*
%TO.C,J2*%
X108976981Y-71365380D02*
X108976981Y-72079666D01*
X109024600Y-72222523D01*
X109119838Y-72317761D01*
X109262695Y-72365380D01*
X109357933Y-72365380D01*
X108548409Y-71460619D02*
X108500790Y-71413000D01*
X108405552Y-71365380D01*
X108167457Y-71365380D01*
X108072219Y-71413000D01*
X108024600Y-71460619D01*
X107976981Y-71555857D01*
X107976981Y-71651095D01*
X108024600Y-71793952D01*
X108596028Y-72365380D01*
X107976981Y-72365380D01*
%TO.C,R1*%
X37401028Y-61533333D02*
X36924838Y-61200000D01*
X37401028Y-60961904D02*
X36401028Y-60961904D01*
X36401028Y-61342857D01*
X36448648Y-61438095D01*
X36496267Y-61485714D01*
X36591505Y-61533333D01*
X36734362Y-61533333D01*
X36829600Y-61485714D01*
X36877219Y-61438095D01*
X36924838Y-61342857D01*
X36924838Y-60961904D01*
X37401028Y-62485714D02*
X37401028Y-61914285D01*
X37401028Y-62200000D02*
X36401028Y-62200000D01*
X36543886Y-62104761D01*
X36639124Y-62009523D01*
X36686743Y-61914285D01*
%TO.C,C1*%
X83005790Y-84933333D02*
X83053409Y-84885714D01*
X83101028Y-84742857D01*
X83101028Y-84647619D01*
X83053409Y-84504761D01*
X82958171Y-84409523D01*
X82862933Y-84361904D01*
X82672457Y-84314285D01*
X82529600Y-84314285D01*
X82339124Y-84361904D01*
X82243886Y-84409523D01*
X82148648Y-84504761D01*
X82101028Y-84647619D01*
X82101028Y-84742857D01*
X82148648Y-84885714D01*
X82196267Y-84933333D01*
X83101028Y-85885714D02*
X83101028Y-85314285D01*
X83101028Y-85600000D02*
X82101028Y-85600000D01*
X82243886Y-85504761D01*
X82339124Y-85409523D01*
X82386743Y-85314285D01*
%TO.C,R1*%
X87101028Y-26433333D02*
X86624838Y-26100000D01*
X87101028Y-25861904D02*
X86101028Y-25861904D01*
X86101028Y-26242857D01*
X86148648Y-26338095D01*
X86196267Y-26385714D01*
X86291505Y-26433333D01*
X86434362Y-26433333D01*
X86529600Y-26385714D01*
X86577219Y-26338095D01*
X86624838Y-26242857D01*
X86624838Y-25861904D01*
X87101028Y-27385714D02*
X87101028Y-26814285D01*
X87101028Y-27100000D02*
X86101028Y-27100000D01*
X86243886Y-27004761D01*
X86339124Y-26909523D01*
X86386743Y-26814285D01*
X37401028Y-26433333D02*
X36924838Y-26100000D01*
X37401028Y-25861904D02*
X36401028Y-25861904D01*
X36401028Y-26242857D01*
X36448648Y-26338095D01*
X36496267Y-26385714D01*
X36591505Y-26433333D01*
X36734362Y-26433333D01*
X36829600Y-26385714D01*
X36877219Y-26338095D01*
X36924838Y-26242857D01*
X36924838Y-25861904D01*
X37401028Y-27385714D02*
X37401028Y-26814285D01*
X37401028Y-27100000D02*
X36401028Y-27100000D01*
X36543886Y-27004761D01*
X36639124Y-26909523D01*
X36686743Y-26814285D01*
%TO.C,R2*%
X88901028Y-84933333D02*
X88424838Y-84600000D01*
X88901028Y-84361904D02*
X87901028Y-84361904D01*
X87901028Y-84742857D01*
X87948648Y-84838095D01*
X87996267Y-84885714D01*
X88091505Y-84933333D01*
X88234362Y-84933333D01*
X88329600Y-84885714D01*
X88377219Y-84838095D01*
X88424838Y-84742857D01*
X88424838Y-84361904D01*
X87996267Y-85314285D02*
X87948648Y-85361904D01*
X87901028Y-85457142D01*
X87901028Y-85695238D01*
X87948648Y-85790476D01*
X87996267Y-85838095D01*
X88091505Y-85885714D01*
X88186743Y-85885714D01*
X88329600Y-85838095D01*
X88901028Y-85266666D01*
X88901028Y-85885714D01*
%TO.C,C1*%
X83005790Y-108333333D02*
X83053409Y-108285714D01*
X83101028Y-108142857D01*
X83101028Y-108047619D01*
X83053409Y-107904761D01*
X82958171Y-107809523D01*
X82862933Y-107761904D01*
X82672457Y-107714285D01*
X82529600Y-107714285D01*
X82339124Y-107761904D01*
X82243886Y-107809523D01*
X82148648Y-107904761D01*
X82101028Y-108047619D01*
X82101028Y-108142857D01*
X82148648Y-108285714D01*
X82196267Y-108333333D01*
X83101028Y-109285714D02*
X83101028Y-108714285D01*
X83101028Y-109000000D02*
X82101028Y-109000000D01*
X82243886Y-108904761D01*
X82339124Y-108809523D01*
X82386743Y-108714285D01*
%TO.C,J2*%
X108976981Y-94765380D02*
X108976981Y-95479666D01*
X109024600Y-95622523D01*
X109119838Y-95717761D01*
X109262695Y-95765380D01*
X109357933Y-95765380D01*
X108548409Y-94860619D02*
X108500790Y-94813000D01*
X108405552Y-94765380D01*
X108167457Y-94765380D01*
X108072219Y-94813000D01*
X108024600Y-94860619D01*
X107976981Y-94955857D01*
X107976981Y-95051095D01*
X108024600Y-95193952D01*
X108596028Y-95765380D01*
X107976981Y-95765380D01*
%TO.C,R2*%
X39201028Y-108333333D02*
X38724838Y-108000000D01*
X39201028Y-107761904D02*
X38201028Y-107761904D01*
X38201028Y-108142857D01*
X38248648Y-108238095D01*
X38296267Y-108285714D01*
X38391505Y-108333333D01*
X38534362Y-108333333D01*
X38629600Y-108285714D01*
X38677219Y-108238095D01*
X38724838Y-108142857D01*
X38724838Y-107761904D01*
X38296267Y-108714285D02*
X38248648Y-108761904D01*
X38201028Y-108857142D01*
X38201028Y-109095238D01*
X38248648Y-109190476D01*
X38296267Y-109238095D01*
X38391505Y-109285714D01*
X38486743Y-109285714D01*
X38629600Y-109238095D01*
X39201028Y-108666666D01*
X39201028Y-109285714D01*
%TO.C,R1*%
X37401028Y-108333333D02*
X36924838Y-108000000D01*
X37401028Y-107761904D02*
X36401028Y-107761904D01*
X36401028Y-108142857D01*
X36448648Y-108238095D01*
X36496267Y-108285714D01*
X36591505Y-108333333D01*
X36734362Y-108333333D01*
X36829600Y-108285714D01*
X36877219Y-108238095D01*
X36924838Y-108142857D01*
X36924838Y-107761904D01*
X37401028Y-109285714D02*
X37401028Y-108714285D01*
X37401028Y-109000000D02*
X36401028Y-109000000D01*
X36543886Y-108904761D01*
X36639124Y-108809523D01*
X36686743Y-108714285D01*
%TO.C,J2*%
X108976981Y-59665380D02*
X108976981Y-60379666D01*
X109024600Y-60522523D01*
X109119838Y-60617761D01*
X109262695Y-60665380D01*
X109357933Y-60665380D01*
X108548409Y-59760619D02*
X108500790Y-59713000D01*
X108405552Y-59665380D01*
X108167457Y-59665380D01*
X108072219Y-59713000D01*
X108024600Y-59760619D01*
X107976981Y-59855857D01*
X107976981Y-59951095D01*
X108024600Y-60093952D01*
X108596028Y-60665380D01*
X107976981Y-60665380D01*
%TO.C,C1*%
X83005790Y-73233333D02*
X83053409Y-73185714D01*
X83101028Y-73042857D01*
X83101028Y-72947619D01*
X83053409Y-72804761D01*
X82958171Y-72709523D01*
X82862933Y-72661904D01*
X82672457Y-72614285D01*
X82529600Y-72614285D01*
X82339124Y-72661904D01*
X82243886Y-72709523D01*
X82148648Y-72804761D01*
X82101028Y-72947619D01*
X82101028Y-73042857D01*
X82148648Y-73185714D01*
X82196267Y-73233333D01*
X83101028Y-74185714D02*
X83101028Y-73614285D01*
X83101028Y-73900000D02*
X82101028Y-73900000D01*
X82243886Y-73804761D01*
X82339124Y-73709523D01*
X82386743Y-73614285D01*
%TO.C,R2*%
X88901028Y-61533333D02*
X88424838Y-61200000D01*
X88901028Y-60961904D02*
X87901028Y-60961904D01*
X87901028Y-61342857D01*
X87948648Y-61438095D01*
X87996267Y-61485714D01*
X88091505Y-61533333D01*
X88234362Y-61533333D01*
X88329600Y-61485714D01*
X88377219Y-61438095D01*
X88424838Y-61342857D01*
X88424838Y-60961904D01*
X87996267Y-61914285D02*
X87948648Y-61961904D01*
X87901028Y-62057142D01*
X87901028Y-62295238D01*
X87948648Y-62390476D01*
X87996267Y-62438095D01*
X88091505Y-62485714D01*
X88186743Y-62485714D01*
X88329600Y-62438095D01*
X88901028Y-61866666D01*
X88901028Y-62485714D01*
%TO.C,J2*%
X108976981Y-47965380D02*
X108976981Y-48679666D01*
X109024600Y-48822523D01*
X109119838Y-48917761D01*
X109262695Y-48965380D01*
X109357933Y-48965380D01*
X108548409Y-48060619D02*
X108500790Y-48013000D01*
X108405552Y-47965380D01*
X108167457Y-47965380D01*
X108072219Y-48013000D01*
X108024600Y-48060619D01*
X107976981Y-48155857D01*
X107976981Y-48251095D01*
X108024600Y-48393952D01*
X108596028Y-48965380D01*
X107976981Y-48965380D01*
X59276981Y-59665380D02*
X59276981Y-60379666D01*
X59324600Y-60522523D01*
X59419838Y-60617761D01*
X59562695Y-60665380D01*
X59657933Y-60665380D01*
X58848409Y-59760619D02*
X58800790Y-59713000D01*
X58705552Y-59665380D01*
X58467457Y-59665380D01*
X58372219Y-59713000D01*
X58324600Y-59760619D01*
X58276981Y-59855857D01*
X58276981Y-59951095D01*
X58324600Y-60093952D01*
X58896028Y-60665380D01*
X58276981Y-60665380D01*
%TO.C,C1*%
X83005790Y-26433333D02*
X83053409Y-26385714D01*
X83101028Y-26242857D01*
X83101028Y-26147619D01*
X83053409Y-26004761D01*
X82958171Y-25909523D01*
X82862933Y-25861904D01*
X82672457Y-25814285D01*
X82529600Y-25814285D01*
X82339124Y-25861904D01*
X82243886Y-25909523D01*
X82148648Y-26004761D01*
X82101028Y-26147619D01*
X82101028Y-26242857D01*
X82148648Y-26385714D01*
X82196267Y-26433333D01*
X83101028Y-27385714D02*
X83101028Y-26814285D01*
X83101028Y-27100000D02*
X82101028Y-27100000D01*
X82243886Y-27004761D01*
X82339124Y-26909523D01*
X82386743Y-26814285D01*
%TO.C,J2*%
X59276981Y-106465380D02*
X59276981Y-107179666D01*
X59324600Y-107322523D01*
X59419838Y-107417761D01*
X59562695Y-107465380D01*
X59657933Y-107465380D01*
X58848409Y-106560619D02*
X58800790Y-106513000D01*
X58705552Y-106465380D01*
X58467457Y-106465380D01*
X58372219Y-106513000D01*
X58324600Y-106560619D01*
X58276981Y-106655857D01*
X58276981Y-106751095D01*
X58324600Y-106893952D01*
X58896028Y-107465380D01*
X58276981Y-107465380D01*
%TO.C,C1*%
X33305790Y-73233333D02*
X33353409Y-73185714D01*
X33401028Y-73042857D01*
X33401028Y-72947619D01*
X33353409Y-72804761D01*
X33258171Y-72709523D01*
X33162933Y-72661904D01*
X32972457Y-72614285D01*
X32829600Y-72614285D01*
X32639124Y-72661904D01*
X32543886Y-72709523D01*
X32448648Y-72804761D01*
X32401028Y-72947619D01*
X32401028Y-73042857D01*
X32448648Y-73185714D01*
X32496267Y-73233333D01*
X33401028Y-74185714D02*
X33401028Y-73614285D01*
X33401028Y-73900000D02*
X32401028Y-73900000D01*
X32543886Y-73804761D01*
X32639124Y-73709523D01*
X32686743Y-73614285D01*
X33305790Y-38133333D02*
X33353409Y-38085714D01*
X33401028Y-37942857D01*
X33401028Y-37847619D01*
X33353409Y-37704761D01*
X33258171Y-37609523D01*
X33162933Y-37561904D01*
X32972457Y-37514285D01*
X32829600Y-37514285D01*
X32639124Y-37561904D01*
X32543886Y-37609523D01*
X32448648Y-37704761D01*
X32401028Y-37847619D01*
X32401028Y-37942857D01*
X32448648Y-38085714D01*
X32496267Y-38133333D01*
X33401028Y-39085714D02*
X33401028Y-38514285D01*
X33401028Y-38800000D02*
X32401028Y-38800000D01*
X32543886Y-38704761D01*
X32639124Y-38609523D01*
X32686743Y-38514285D01*
%TO.C,R2*%
X88901028Y-26433333D02*
X88424838Y-26100000D01*
X88901028Y-25861904D02*
X87901028Y-25861904D01*
X87901028Y-26242857D01*
X87948648Y-26338095D01*
X87996267Y-26385714D01*
X88091505Y-26433333D01*
X88234362Y-26433333D01*
X88329600Y-26385714D01*
X88377219Y-26338095D01*
X88424838Y-26242857D01*
X88424838Y-25861904D01*
X87996267Y-26814285D02*
X87948648Y-26861904D01*
X87901028Y-26957142D01*
X87901028Y-27195238D01*
X87948648Y-27290476D01*
X87996267Y-27338095D01*
X88091505Y-27385714D01*
X88186743Y-27385714D01*
X88329600Y-27338095D01*
X88901028Y-26766666D01*
X88901028Y-27385714D01*
D11*
%TO.C,C1*%
X83158648Y-64159420D02*
X83158648Y-64440580D01*
X82138648Y-64159420D02*
X82138648Y-64440580D01*
%TO.C,R1*%
X87171148Y-76037258D02*
X87171148Y-75562742D01*
X86126148Y-76037258D02*
X86126148Y-75562742D01*
%TO.C,C1*%
X33458648Y-110959420D02*
X33458648Y-111240580D01*
X32438648Y-110959420D02*
X32438648Y-111240580D01*
X32438648Y-99259420D02*
X32438648Y-99540580D01*
X33458648Y-99259420D02*
X33458648Y-99540580D01*
%TO.C,R2*%
X38226148Y-76037258D02*
X38226148Y-75562742D01*
X39271148Y-76037258D02*
X39271148Y-75562742D01*
%TO.C,C1*%
X82138648Y-99259420D02*
X82138648Y-99540580D01*
X83158648Y-99259420D02*
X83158648Y-99540580D01*
%TO.C,R3*%
X35683648Y-52372936D02*
X35683648Y-52827064D01*
X34213648Y-52372936D02*
X34213648Y-52827064D01*
X34213648Y-75772936D02*
X34213648Y-76227064D01*
X35683648Y-75772936D02*
X35683648Y-76227064D01*
X35683648Y-64072936D02*
X35683648Y-64527064D01*
X34213648Y-64072936D02*
X34213648Y-64527064D01*
D10*
%TO.C,J2*%
X111648648Y-112300000D02*
X111648648Y-109900000D01*
X105648648Y-109900000D02*
X105648648Y-112300000D01*
X105648648Y-112300000D02*
X106648648Y-112300000D01*
X110648648Y-108100000D02*
X106648648Y-108100000D01*
X110648648Y-112300000D02*
X111648648Y-112300000D01*
D11*
%TO.C,R2*%
X87926148Y-99437258D02*
X87926148Y-98962742D01*
X88971148Y-99437258D02*
X88971148Y-98962742D01*
%TO.C,R3*%
X35683648Y-99172936D02*
X35683648Y-99627064D01*
X34213648Y-99172936D02*
X34213648Y-99627064D01*
%TO.C,R2*%
X38226148Y-64337258D02*
X38226148Y-63862742D01*
X39271148Y-64337258D02*
X39271148Y-63862742D01*
X88971148Y-52637258D02*
X88971148Y-52162742D01*
X87926148Y-52637258D02*
X87926148Y-52162742D01*
%TO.C,R3*%
X85383648Y-99172936D02*
X85383648Y-99627064D01*
X83913648Y-99172936D02*
X83913648Y-99627064D01*
%TO.C,R2*%
X39271148Y-99437258D02*
X39271148Y-98962742D01*
X38226148Y-99437258D02*
X38226148Y-98962742D01*
%TO.C,C1*%
X32438648Y-52459420D02*
X32438648Y-52740580D01*
X33458648Y-52459420D02*
X33458648Y-52740580D01*
X83158648Y-40759420D02*
X83158648Y-41040580D01*
X82138648Y-40759420D02*
X82138648Y-41040580D01*
%TO.C,R3*%
X83913648Y-52372936D02*
X83913648Y-52827064D01*
X85383648Y-52372936D02*
X85383648Y-52827064D01*
D10*
%TO.C,J2*%
X60948648Y-49600000D02*
X56948648Y-49600000D01*
X55948648Y-53800000D02*
X56948648Y-53800000D01*
X60948648Y-53800000D02*
X61948648Y-53800000D01*
X61948648Y-53800000D02*
X61948648Y-51400000D01*
X55948648Y-51400000D02*
X55948648Y-53800000D01*
D11*
%TO.C,C1*%
X82138648Y-52459420D02*
X82138648Y-52740580D01*
X83158648Y-52459420D02*
X83158648Y-52740580D01*
D10*
%TO.C,J2*%
X111648648Y-88900000D02*
X111648648Y-86500000D01*
X105648648Y-88900000D02*
X106648648Y-88900000D01*
X105648648Y-86500000D02*
X105648648Y-88900000D01*
X110648648Y-88900000D02*
X111648648Y-88900000D01*
X110648648Y-84700000D02*
X106648648Y-84700000D01*
X55948648Y-88900000D02*
X56948648Y-88900000D01*
X60948648Y-84700000D02*
X56948648Y-84700000D01*
X55948648Y-86500000D02*
X55948648Y-88900000D01*
X60948648Y-88900000D02*
X61948648Y-88900000D01*
X61948648Y-88900000D02*
X61948648Y-86500000D01*
D11*
%TO.C,R3*%
X85383648Y-87472936D02*
X85383648Y-87927064D01*
X83913648Y-87472936D02*
X83913648Y-87927064D01*
%TO.C,R2*%
X39271148Y-87737258D02*
X39271148Y-87262742D01*
X38226148Y-87737258D02*
X38226148Y-87262742D01*
%TO.C,R3*%
X83913648Y-28972936D02*
X83913648Y-29427064D01*
X85383648Y-28972936D02*
X85383648Y-29427064D01*
%TO.C,R1*%
X87171148Y-99437258D02*
X87171148Y-98962742D01*
X86126148Y-99437258D02*
X86126148Y-98962742D01*
%TO.C,R2*%
X88971148Y-76037258D02*
X88971148Y-75562742D01*
X87926148Y-76037258D02*
X87926148Y-75562742D01*
D10*
%TO.C,J2*%
X55948648Y-39700000D02*
X55948648Y-42100000D01*
X60948648Y-37900000D02*
X56948648Y-37900000D01*
X60948648Y-42100000D02*
X61948648Y-42100000D01*
X61948648Y-42100000D02*
X61948648Y-39700000D01*
X55948648Y-42100000D02*
X56948648Y-42100000D01*
D11*
%TO.C,R1*%
X86126148Y-40937258D02*
X86126148Y-40462742D01*
X87171148Y-40937258D02*
X87171148Y-40462742D01*
%TO.C,R2*%
X88971148Y-40937258D02*
X88971148Y-40462742D01*
X87926148Y-40937258D02*
X87926148Y-40462742D01*
D10*
%TO.C,J2*%
X61948648Y-100600000D02*
X61948648Y-98200000D01*
X55948648Y-98200000D02*
X55948648Y-100600000D01*
X60948648Y-100600000D02*
X61948648Y-100600000D01*
X60948648Y-96400000D02*
X56948648Y-96400000D01*
X55948648Y-100600000D02*
X56948648Y-100600000D01*
D11*
%TO.C,R3*%
X83913648Y-75772936D02*
X83913648Y-76227064D01*
X85383648Y-75772936D02*
X85383648Y-76227064D01*
%TO.C,R1*%
X87171148Y-52637258D02*
X87171148Y-52162742D01*
X86126148Y-52637258D02*
X86126148Y-52162742D01*
D10*
%TO.C,J2*%
X111648648Y-42100000D02*
X111648648Y-39700000D01*
X105648648Y-39700000D02*
X105648648Y-42100000D01*
X105648648Y-42100000D02*
X106648648Y-42100000D01*
X110648648Y-42100000D02*
X111648648Y-42100000D01*
X110648648Y-37900000D02*
X106648648Y-37900000D01*
D11*
%TO.C,R2*%
X39271148Y-29237258D02*
X39271148Y-28762742D01*
X38226148Y-29237258D02*
X38226148Y-28762742D01*
X87926148Y-111137258D02*
X87926148Y-110662742D01*
X88971148Y-111137258D02*
X88971148Y-110662742D01*
D10*
%TO.C,J2*%
X61948648Y-77200000D02*
X61948648Y-74800000D01*
X55948648Y-74800000D02*
X55948648Y-77200000D01*
X60948648Y-77200000D02*
X61948648Y-77200000D01*
X55948648Y-77200000D02*
X56948648Y-77200000D01*
X60948648Y-73000000D02*
X56948648Y-73000000D01*
D11*
%TO.C,R1*%
X87171148Y-111137258D02*
X87171148Y-110662742D01*
X86126148Y-111137258D02*
X86126148Y-110662742D01*
X36426148Y-87737258D02*
X36426148Y-87262742D01*
X37471148Y-87737258D02*
X37471148Y-87262742D01*
X86126148Y-64337258D02*
X86126148Y-63862742D01*
X87171148Y-64337258D02*
X87171148Y-63862742D01*
X36426148Y-52637258D02*
X36426148Y-52162742D01*
X37471148Y-52637258D02*
X37471148Y-52162742D01*
X37471148Y-99437258D02*
X37471148Y-98962742D01*
X36426148Y-99437258D02*
X36426148Y-98962742D01*
%TO.C,R3*%
X35683648Y-87472936D02*
X35683648Y-87927064D01*
X34213648Y-87472936D02*
X34213648Y-87927064D01*
%TO.C,R1*%
X36426148Y-76037258D02*
X36426148Y-75562742D01*
X37471148Y-76037258D02*
X37471148Y-75562742D01*
D10*
%TO.C,J2*%
X105648648Y-30400000D02*
X106648648Y-30400000D01*
X111648648Y-30400000D02*
X111648648Y-28000000D01*
X110648648Y-26200000D02*
X106648648Y-26200000D01*
X105648648Y-28000000D02*
X105648648Y-30400000D01*
X110648648Y-30400000D02*
X111648648Y-30400000D01*
D11*
%TO.C,R3*%
X83913648Y-110872936D02*
X83913648Y-111327064D01*
X85383648Y-110872936D02*
X85383648Y-111327064D01*
X35683648Y-28972936D02*
X35683648Y-29427064D01*
X34213648Y-28972936D02*
X34213648Y-29427064D01*
X83913648Y-40672936D02*
X83913648Y-41127064D01*
X85383648Y-40672936D02*
X85383648Y-41127064D01*
X34213648Y-40672936D02*
X34213648Y-41127064D01*
X35683648Y-40672936D02*
X35683648Y-41127064D01*
%TO.C,C1*%
X32438648Y-64159420D02*
X32438648Y-64440580D01*
X33458648Y-64159420D02*
X33458648Y-64440580D01*
D10*
%TO.C,J2*%
X60948648Y-26200000D02*
X56948648Y-26200000D01*
X55948648Y-30400000D02*
X56948648Y-30400000D01*
X55948648Y-28000000D02*
X55948648Y-30400000D01*
X60948648Y-30400000D02*
X61948648Y-30400000D01*
X61948648Y-30400000D02*
X61948648Y-28000000D01*
D11*
%TO.C,C1*%
X33458648Y-87559420D02*
X33458648Y-87840580D01*
X32438648Y-87559420D02*
X32438648Y-87840580D01*
%TO.C,R3*%
X83913648Y-64072936D02*
X83913648Y-64527064D01*
X85383648Y-64072936D02*
X85383648Y-64527064D01*
%TO.C,R2*%
X38226148Y-40937258D02*
X38226148Y-40462742D01*
X39271148Y-40937258D02*
X39271148Y-40462742D01*
%TO.C,C1*%
X33458648Y-29059420D02*
X33458648Y-29340580D01*
X32438648Y-29059420D02*
X32438648Y-29340580D01*
%TO.C,R3*%
X34213648Y-110872936D02*
X34213648Y-111327064D01*
X35683648Y-110872936D02*
X35683648Y-111327064D01*
%TO.C,R1*%
X87171148Y-87737258D02*
X87171148Y-87262742D01*
X86126148Y-87737258D02*
X86126148Y-87262742D01*
X36426148Y-40937258D02*
X36426148Y-40462742D01*
X37471148Y-40937258D02*
X37471148Y-40462742D01*
%TO.C,R2*%
X38226148Y-52637258D02*
X38226148Y-52162742D01*
X39271148Y-52637258D02*
X39271148Y-52162742D01*
D10*
%TO.C,J2*%
X110648648Y-73000000D02*
X106648648Y-73000000D01*
X105648648Y-77200000D02*
X106648648Y-77200000D01*
X110648648Y-77200000D02*
X111648648Y-77200000D01*
X111648648Y-77200000D02*
X111648648Y-74800000D01*
X105648648Y-74800000D02*
X105648648Y-77200000D01*
D11*
%TO.C,R1*%
X37471148Y-64337258D02*
X37471148Y-63862742D01*
X36426148Y-64337258D02*
X36426148Y-63862742D01*
%TO.C,C1*%
X82138648Y-87559420D02*
X82138648Y-87840580D01*
X83158648Y-87559420D02*
X83158648Y-87840580D01*
%TO.C,R1*%
X87171148Y-29237258D02*
X87171148Y-28762742D01*
X86126148Y-29237258D02*
X86126148Y-28762742D01*
X37471148Y-29237258D02*
X37471148Y-28762742D01*
X36426148Y-29237258D02*
X36426148Y-28762742D01*
%TO.C,R2*%
X88971148Y-87737258D02*
X88971148Y-87262742D01*
X87926148Y-87737258D02*
X87926148Y-87262742D01*
%TO.C,C1*%
X82138648Y-110959420D02*
X82138648Y-111240580D01*
X83158648Y-110959420D02*
X83158648Y-111240580D01*
D10*
%TO.C,J2*%
X110648648Y-100600000D02*
X111648648Y-100600000D01*
X105648648Y-100600000D02*
X106648648Y-100600000D01*
X105648648Y-98200000D02*
X105648648Y-100600000D01*
X111648648Y-100600000D02*
X111648648Y-98200000D01*
X110648648Y-96400000D02*
X106648648Y-96400000D01*
D11*
%TO.C,R2*%
X39271148Y-111137258D02*
X39271148Y-110662742D01*
X38226148Y-111137258D02*
X38226148Y-110662742D01*
%TO.C,R1*%
X37471148Y-111137258D02*
X37471148Y-110662742D01*
X36426148Y-111137258D02*
X36426148Y-110662742D01*
D10*
%TO.C,J2*%
X111648648Y-65500000D02*
X111648648Y-63100000D01*
X110648648Y-61300000D02*
X106648648Y-61300000D01*
X110648648Y-65500000D02*
X111648648Y-65500000D01*
X105648648Y-65500000D02*
X106648648Y-65500000D01*
X105648648Y-63100000D02*
X105648648Y-65500000D01*
D11*
%TO.C,C1*%
X82138648Y-75859420D02*
X82138648Y-76140580D01*
X83158648Y-75859420D02*
X83158648Y-76140580D01*
%TO.C,R2*%
X88971148Y-64337258D02*
X88971148Y-63862742D01*
X87926148Y-64337258D02*
X87926148Y-63862742D01*
D10*
%TO.C,J2*%
X110648648Y-49600000D02*
X106648648Y-49600000D01*
X105648648Y-51400000D02*
X105648648Y-53800000D01*
X110648648Y-53800000D02*
X111648648Y-53800000D01*
X111648648Y-53800000D02*
X111648648Y-51400000D01*
X105648648Y-53800000D02*
X106648648Y-53800000D01*
X60948648Y-61300000D02*
X56948648Y-61300000D01*
X61948648Y-65500000D02*
X61948648Y-63100000D01*
X60948648Y-65500000D02*
X61948648Y-65500000D01*
X55948648Y-65500000D02*
X56948648Y-65500000D01*
X55948648Y-63100000D02*
X55948648Y-65500000D01*
D11*
%TO.C,C1*%
X83158648Y-29059420D02*
X83158648Y-29340580D01*
X82138648Y-29059420D02*
X82138648Y-29340580D01*
D10*
%TO.C,J2*%
X60948648Y-112300000D02*
X61948648Y-112300000D01*
X55948648Y-112300000D02*
X56948648Y-112300000D01*
X61948648Y-112300000D02*
X61948648Y-109900000D01*
X60948648Y-108100000D02*
X56948648Y-108100000D01*
X55948648Y-109900000D02*
X55948648Y-112300000D01*
D11*
%TO.C,C1*%
X32438648Y-75859420D02*
X32438648Y-76140580D01*
X33458648Y-75859420D02*
X33458648Y-76140580D01*
X32438648Y-40759420D02*
X32438648Y-41040580D01*
X33458648Y-40759420D02*
X33458648Y-41040580D01*
%TO.C,R2*%
X87926148Y-29237258D02*
X87926148Y-28762742D01*
X88971148Y-29237258D02*
X88971148Y-28762742D01*
%TD*%
%LPC*%
%TO.C,G1*%
G36*
X54599152Y-76080190D02*
G01*
X51424144Y-76080190D01*
X51424144Y-74095810D01*
X54599152Y-74095810D01*
X54599152Y-76080190D01*
G37*
D12*
X54599152Y-76080190D02*
X51424144Y-76080190D01*
X51424144Y-74095810D01*
X54599152Y-74095810D01*
X54599152Y-76080190D01*
G36*
X104299152Y-29280190D02*
G01*
X101124144Y-29280190D01*
X101124144Y-27295810D01*
X104299152Y-27295810D01*
X104299152Y-29280190D01*
G37*
X104299152Y-29280190D02*
X101124144Y-29280190D01*
X101124144Y-27295810D01*
X104299152Y-27295810D01*
X104299152Y-29280190D01*
G36*
X104299152Y-76080190D02*
G01*
X101124144Y-76080190D01*
X101124144Y-74095810D01*
X104299152Y-74095810D01*
X104299152Y-76080190D01*
G37*
X104299152Y-76080190D02*
X101124144Y-76080190D01*
X101124144Y-74095810D01*
X104299152Y-74095810D01*
X104299152Y-76080190D01*
G36*
X104299152Y-40980190D02*
G01*
X101124144Y-40980190D01*
X101124144Y-38995810D01*
X104299152Y-38995810D01*
X104299152Y-40980190D01*
G37*
X104299152Y-40980190D02*
X101124144Y-40980190D01*
X101124144Y-38995810D01*
X104299152Y-38995810D01*
X104299152Y-40980190D01*
G36*
X104299152Y-64380190D02*
G01*
X101124144Y-64380190D01*
X101124144Y-62395810D01*
X104299152Y-62395810D01*
X104299152Y-64380190D01*
G37*
X104299152Y-64380190D02*
X101124144Y-64380190D01*
X101124144Y-62395810D01*
X104299152Y-62395810D01*
X104299152Y-64380190D01*
G36*
X54599152Y-29280190D02*
G01*
X51424144Y-29280190D01*
X51424144Y-27295810D01*
X54599152Y-27295810D01*
X54599152Y-29280190D01*
G37*
X54599152Y-29280190D02*
X51424144Y-29280190D01*
X51424144Y-27295810D01*
X54599152Y-27295810D01*
X54599152Y-29280190D01*
G36*
X54599152Y-111180190D02*
G01*
X51424144Y-111180190D01*
X51424144Y-109195810D01*
X54599152Y-109195810D01*
X54599152Y-111180190D01*
G37*
X54599152Y-111180190D02*
X51424144Y-111180190D01*
X51424144Y-109195810D01*
X54599152Y-109195810D01*
X54599152Y-111180190D01*
G36*
X54599152Y-64380190D02*
G01*
X51424144Y-64380190D01*
X51424144Y-62395810D01*
X54599152Y-62395810D01*
X54599152Y-64380190D01*
G37*
X54599152Y-64380190D02*
X51424144Y-64380190D01*
X51424144Y-62395810D01*
X54599152Y-62395810D01*
X54599152Y-64380190D01*
G36*
X54599152Y-99480190D02*
G01*
X51424144Y-99480190D01*
X51424144Y-97495810D01*
X54599152Y-97495810D01*
X54599152Y-99480190D01*
G37*
X54599152Y-99480190D02*
X51424144Y-99480190D01*
X51424144Y-97495810D01*
X54599152Y-97495810D01*
X54599152Y-99480190D01*
G36*
X54599152Y-87780190D02*
G01*
X51424144Y-87780190D01*
X51424144Y-85795810D01*
X54599152Y-85795810D01*
X54599152Y-87780190D01*
G37*
X54599152Y-87780190D02*
X51424144Y-87780190D01*
X51424144Y-85795810D01*
X54599152Y-85795810D01*
X54599152Y-87780190D01*
G36*
X104299152Y-52680190D02*
G01*
X101124144Y-52680190D01*
X101124144Y-50695810D01*
X104299152Y-50695810D01*
X104299152Y-52680190D01*
G37*
X104299152Y-52680190D02*
X101124144Y-52680190D01*
X101124144Y-50695810D01*
X104299152Y-50695810D01*
X104299152Y-52680190D01*
G36*
X104299152Y-99480190D02*
G01*
X101124144Y-99480190D01*
X101124144Y-97495810D01*
X104299152Y-97495810D01*
X104299152Y-99480190D01*
G37*
X104299152Y-99480190D02*
X101124144Y-99480190D01*
X101124144Y-97495810D01*
X104299152Y-97495810D01*
X104299152Y-99480190D01*
G36*
X104299152Y-87780190D02*
G01*
X101124144Y-87780190D01*
X101124144Y-85795810D01*
X104299152Y-85795810D01*
X104299152Y-87780190D01*
G37*
X104299152Y-87780190D02*
X101124144Y-87780190D01*
X101124144Y-85795810D01*
X104299152Y-85795810D01*
X104299152Y-87780190D01*
G36*
X54599152Y-40980190D02*
G01*
X51424144Y-40980190D01*
X51424144Y-38995810D01*
X54599152Y-38995810D01*
X54599152Y-40980190D01*
G37*
X54599152Y-40980190D02*
X51424144Y-40980190D01*
X51424144Y-38995810D01*
X54599152Y-38995810D01*
X54599152Y-40980190D01*
G36*
X104299152Y-111180190D02*
G01*
X101124144Y-111180190D01*
X101124144Y-109195810D01*
X104299152Y-109195810D01*
X104299152Y-111180190D01*
G37*
X104299152Y-111180190D02*
X101124144Y-111180190D01*
X101124144Y-109195810D01*
X104299152Y-109195810D01*
X104299152Y-111180190D01*
G36*
X54599152Y-52680190D02*
G01*
X51424144Y-52680190D01*
X51424144Y-50695810D01*
X54599152Y-50695810D01*
X54599152Y-52680190D01*
G37*
X54599152Y-52680190D02*
X51424144Y-52680190D01*
X51424144Y-50695810D01*
X54599152Y-50695810D01*
X54599152Y-52680190D01*
%TD*%
D13*
%TO.C,J1*%
X92158648Y-109650000D03*
X97938648Y-109650000D03*
D14*
X98273648Y-108205000D03*
X97498648Y-108205000D03*
D15*
X96798648Y-108205000D03*
X96298648Y-108205000D03*
X95798648Y-108205000D03*
X95298648Y-108205000D03*
X94798648Y-108205000D03*
X94298648Y-108205000D03*
X93798648Y-108205000D03*
X93298648Y-108205000D03*
D14*
X92598648Y-108205000D03*
X91823648Y-108205000D03*
D16*
X99368648Y-109120000D03*
X90728648Y-109120000D03*
D17*
X90728648Y-113300000D03*
X99368648Y-113300000D03*
%TD*%
D13*
%TO.C,J1*%
X42458648Y-109650000D03*
X48238648Y-109650000D03*
D14*
X48573648Y-108205000D03*
X47798648Y-108205000D03*
D15*
X47098648Y-108205000D03*
X46598648Y-108205000D03*
X46098648Y-108205000D03*
X45598648Y-108205000D03*
X45098648Y-108205000D03*
X44598648Y-108205000D03*
X44098648Y-108205000D03*
X43598648Y-108205000D03*
D14*
X42898648Y-108205000D03*
X42123648Y-108205000D03*
D16*
X49668648Y-109120000D03*
X41028648Y-109120000D03*
D17*
X41028648Y-113300000D03*
X49668648Y-113300000D03*
%TD*%
D13*
%TO.C,J1*%
X92158648Y-97950000D03*
X97938648Y-97950000D03*
D14*
X98273648Y-96505000D03*
X97498648Y-96505000D03*
D15*
X96798648Y-96505000D03*
X96298648Y-96505000D03*
X95798648Y-96505000D03*
X95298648Y-96505000D03*
X94798648Y-96505000D03*
X94298648Y-96505000D03*
X93798648Y-96505000D03*
X93298648Y-96505000D03*
D14*
X92598648Y-96505000D03*
X91823648Y-96505000D03*
D16*
X99368648Y-97420000D03*
X90728648Y-97420000D03*
D17*
X90728648Y-101600000D03*
X99368648Y-101600000D03*
%TD*%
D13*
%TO.C,J1*%
X42458648Y-97950000D03*
X48238648Y-97950000D03*
D14*
X48573648Y-96505000D03*
X47798648Y-96505000D03*
D15*
X47098648Y-96505000D03*
X46598648Y-96505000D03*
X46098648Y-96505000D03*
X45598648Y-96505000D03*
X45098648Y-96505000D03*
X44598648Y-96505000D03*
X44098648Y-96505000D03*
X43598648Y-96505000D03*
D14*
X42898648Y-96505000D03*
X42123648Y-96505000D03*
D16*
X49668648Y-97420000D03*
X41028648Y-97420000D03*
D17*
X41028648Y-101600000D03*
X49668648Y-101600000D03*
%TD*%
D13*
%TO.C,J1*%
X92158648Y-86250000D03*
X97938648Y-86250000D03*
D14*
X98273648Y-84805000D03*
X97498648Y-84805000D03*
D15*
X96798648Y-84805000D03*
X96298648Y-84805000D03*
X95798648Y-84805000D03*
X95298648Y-84805000D03*
X94798648Y-84805000D03*
X94298648Y-84805000D03*
X93798648Y-84805000D03*
X93298648Y-84805000D03*
D14*
X92598648Y-84805000D03*
X91823648Y-84805000D03*
D16*
X99368648Y-85720000D03*
X90728648Y-85720000D03*
D17*
X90728648Y-89900000D03*
X99368648Y-89900000D03*
%TD*%
D13*
%TO.C,J1*%
X42458648Y-86250000D03*
X48238648Y-86250000D03*
D14*
X48573648Y-84805000D03*
X47798648Y-84805000D03*
D15*
X47098648Y-84805000D03*
X46598648Y-84805000D03*
X46098648Y-84805000D03*
X45598648Y-84805000D03*
X45098648Y-84805000D03*
X44598648Y-84805000D03*
X44098648Y-84805000D03*
X43598648Y-84805000D03*
D14*
X42898648Y-84805000D03*
X42123648Y-84805000D03*
D16*
X49668648Y-85720000D03*
X41028648Y-85720000D03*
D17*
X41028648Y-89900000D03*
X49668648Y-89900000D03*
%TD*%
D13*
%TO.C,J1*%
X92158648Y-74550000D03*
X97938648Y-74550000D03*
D14*
X98273648Y-73105000D03*
X97498648Y-73105000D03*
D15*
X96798648Y-73105000D03*
X96298648Y-73105000D03*
X95798648Y-73105000D03*
X95298648Y-73105000D03*
X94798648Y-73105000D03*
X94298648Y-73105000D03*
X93798648Y-73105000D03*
X93298648Y-73105000D03*
D14*
X92598648Y-73105000D03*
X91823648Y-73105000D03*
D16*
X99368648Y-74020000D03*
X90728648Y-74020000D03*
D17*
X90728648Y-78200000D03*
X99368648Y-78200000D03*
%TD*%
D13*
%TO.C,J1*%
X42458648Y-74550000D03*
X48238648Y-74550000D03*
D14*
X48573648Y-73105000D03*
X47798648Y-73105000D03*
D15*
X47098648Y-73105000D03*
X46598648Y-73105000D03*
X46098648Y-73105000D03*
X45598648Y-73105000D03*
X45098648Y-73105000D03*
X44598648Y-73105000D03*
X44098648Y-73105000D03*
X43598648Y-73105000D03*
D14*
X42898648Y-73105000D03*
X42123648Y-73105000D03*
D16*
X49668648Y-74020000D03*
X41028648Y-74020000D03*
D17*
X41028648Y-78200000D03*
X49668648Y-78200000D03*
%TD*%
D13*
%TO.C,J1*%
X92158648Y-62850000D03*
X97938648Y-62850000D03*
D14*
X98273648Y-61405000D03*
X97498648Y-61405000D03*
D15*
X96798648Y-61405000D03*
X96298648Y-61405000D03*
X95798648Y-61405000D03*
X95298648Y-61405000D03*
X94798648Y-61405000D03*
X94298648Y-61405000D03*
X93798648Y-61405000D03*
X93298648Y-61405000D03*
D14*
X92598648Y-61405000D03*
X91823648Y-61405000D03*
D16*
X99368648Y-62320000D03*
X90728648Y-62320000D03*
D17*
X90728648Y-66500000D03*
X99368648Y-66500000D03*
%TD*%
D13*
%TO.C,J1*%
X42458648Y-62850000D03*
X48238648Y-62850000D03*
D14*
X48573648Y-61405000D03*
X47798648Y-61405000D03*
D15*
X47098648Y-61405000D03*
X46598648Y-61405000D03*
X46098648Y-61405000D03*
X45598648Y-61405000D03*
X45098648Y-61405000D03*
X44598648Y-61405000D03*
X44098648Y-61405000D03*
X43598648Y-61405000D03*
D14*
X42898648Y-61405000D03*
X42123648Y-61405000D03*
D16*
X49668648Y-62320000D03*
X41028648Y-62320000D03*
D17*
X41028648Y-66500000D03*
X49668648Y-66500000D03*
%TD*%
D13*
%TO.C,J1*%
X92158648Y-51150000D03*
X97938648Y-51150000D03*
D14*
X98273648Y-49705000D03*
X97498648Y-49705000D03*
D15*
X96798648Y-49705000D03*
X96298648Y-49705000D03*
X95798648Y-49705000D03*
X95298648Y-49705000D03*
X94798648Y-49705000D03*
X94298648Y-49705000D03*
X93798648Y-49705000D03*
X93298648Y-49705000D03*
D14*
X92598648Y-49705000D03*
X91823648Y-49705000D03*
D16*
X99368648Y-50620000D03*
X90728648Y-50620000D03*
D17*
X90728648Y-54800000D03*
X99368648Y-54800000D03*
%TD*%
D13*
%TO.C,J1*%
X42458648Y-51150000D03*
X48238648Y-51150000D03*
D14*
X48573648Y-49705000D03*
X47798648Y-49705000D03*
D15*
X47098648Y-49705000D03*
X46598648Y-49705000D03*
X46098648Y-49705000D03*
X45598648Y-49705000D03*
X45098648Y-49705000D03*
X44598648Y-49705000D03*
X44098648Y-49705000D03*
X43598648Y-49705000D03*
D14*
X42898648Y-49705000D03*
X42123648Y-49705000D03*
D16*
X49668648Y-50620000D03*
X41028648Y-50620000D03*
D17*
X41028648Y-54800000D03*
X49668648Y-54800000D03*
%TD*%
D13*
%TO.C,J1*%
X92158648Y-39450000D03*
X97938648Y-39450000D03*
D14*
X98273648Y-38005000D03*
X97498648Y-38005000D03*
D15*
X96798648Y-38005000D03*
X96298648Y-38005000D03*
X95798648Y-38005000D03*
X95298648Y-38005000D03*
X94798648Y-38005000D03*
X94298648Y-38005000D03*
X93798648Y-38005000D03*
X93298648Y-38005000D03*
D14*
X92598648Y-38005000D03*
X91823648Y-38005000D03*
D16*
X99368648Y-38920000D03*
X90728648Y-38920000D03*
D17*
X90728648Y-43100000D03*
X99368648Y-43100000D03*
%TD*%
D13*
%TO.C,J1*%
X42458648Y-39450000D03*
X48238648Y-39450000D03*
D14*
X48573648Y-38005000D03*
X47798648Y-38005000D03*
D15*
X47098648Y-38005000D03*
X46598648Y-38005000D03*
X46098648Y-38005000D03*
X45598648Y-38005000D03*
X45098648Y-38005000D03*
X44598648Y-38005000D03*
X44098648Y-38005000D03*
X43598648Y-38005000D03*
D14*
X42898648Y-38005000D03*
X42123648Y-38005000D03*
D16*
X49668648Y-38920000D03*
X41028648Y-38920000D03*
D17*
X41028648Y-43100000D03*
X49668648Y-43100000D03*
%TD*%
D13*
%TO.C,J1*%
X92158648Y-27750000D03*
X97938648Y-27750000D03*
D14*
X98273648Y-26305000D03*
X97498648Y-26305000D03*
D15*
X96798648Y-26305000D03*
X96298648Y-26305000D03*
X95798648Y-26305000D03*
X95298648Y-26305000D03*
X94798648Y-26305000D03*
X94298648Y-26305000D03*
X93798648Y-26305000D03*
X93298648Y-26305000D03*
D14*
X92598648Y-26305000D03*
X91823648Y-26305000D03*
D16*
X99368648Y-27220000D03*
X90728648Y-27220000D03*
D17*
X90728648Y-31400000D03*
X99368648Y-31400000D03*
%TD*%
%TO.C,J1*%
X49668648Y-31400000D03*
X41028648Y-31400000D03*
D16*
X41028648Y-27220000D03*
X49668648Y-27220000D03*
D14*
X42123648Y-26305000D03*
X42898648Y-26305000D03*
D15*
X43598648Y-26305000D03*
X44098648Y-26305000D03*
X44598648Y-26305000D03*
X45098648Y-26305000D03*
X45598648Y-26305000D03*
X46098648Y-26305000D03*
X46598648Y-26305000D03*
X47098648Y-26305000D03*
D14*
X47798648Y-26305000D03*
X48573648Y-26305000D03*
D13*
X48238648Y-27750000D03*
X42458648Y-27750000D03*
%TD*%
D18*
%TO.C,C1*%
X82648648Y-63525000D03*
X82648648Y-65075000D03*
%TD*%
D19*
%TO.C,R1*%
X86648648Y-76625000D03*
X86648648Y-74975000D03*
%TD*%
D18*
%TO.C,C1*%
X32948648Y-110325000D03*
X32948648Y-111875000D03*
%TD*%
%TO.C,C1*%
X32948648Y-98625000D03*
X32948648Y-100175000D03*
%TD*%
D19*
%TO.C,R2*%
X38748648Y-76625000D03*
X38748648Y-74975000D03*
%TD*%
D18*
%TO.C,C1*%
X82648648Y-98625000D03*
X82648648Y-100175000D03*
%TD*%
D20*
%TO.C,R3*%
X34948648Y-51687500D03*
X34948648Y-53512500D03*
%TD*%
%TO.C,R3*%
X34948648Y-75087500D03*
X34948648Y-76912500D03*
%TD*%
%TO.C,R3*%
X34948648Y-63387500D03*
X34948648Y-65212500D03*
%TD*%
D21*
%TO.C,J2*%
X107148648Y-112675000D03*
X108148648Y-112675000D03*
X109148648Y-112675000D03*
X110148648Y-112675000D03*
D22*
X105848648Y-108800000D03*
X111448648Y-108800000D03*
%TD*%
D19*
%TO.C,R2*%
X88448648Y-100025000D03*
X88448648Y-98375000D03*
%TD*%
D20*
%TO.C,R3*%
X34948648Y-98487500D03*
X34948648Y-100312500D03*
%TD*%
D19*
%TO.C,R2*%
X38748648Y-64925000D03*
X38748648Y-63275000D03*
%TD*%
%TO.C,R2*%
X88448648Y-53225000D03*
X88448648Y-51575000D03*
%TD*%
D20*
%TO.C,R3*%
X84648648Y-98487500D03*
X84648648Y-100312500D03*
%TD*%
D19*
%TO.C,R2*%
X38748648Y-100025000D03*
X38748648Y-98375000D03*
%TD*%
D18*
%TO.C,C1*%
X32948648Y-51825000D03*
X32948648Y-53375000D03*
%TD*%
%TO.C,C1*%
X82648648Y-40125000D03*
X82648648Y-41675000D03*
%TD*%
D20*
%TO.C,R3*%
X84648648Y-51687500D03*
X84648648Y-53512500D03*
%TD*%
D21*
%TO.C,J2*%
X57448648Y-54175000D03*
X58448648Y-54175000D03*
X59448648Y-54175000D03*
X60448648Y-54175000D03*
D22*
X56148648Y-50300000D03*
X61748648Y-50300000D03*
%TD*%
D18*
%TO.C,C1*%
X82648648Y-51825000D03*
X82648648Y-53375000D03*
%TD*%
D21*
%TO.C,J2*%
X107148648Y-89275000D03*
X108148648Y-89275000D03*
X109148648Y-89275000D03*
X110148648Y-89275000D03*
D22*
X105848648Y-85400000D03*
X111448648Y-85400000D03*
%TD*%
D21*
%TO.C,J2*%
X57448648Y-89275000D03*
X58448648Y-89275000D03*
X59448648Y-89275000D03*
X60448648Y-89275000D03*
D22*
X56148648Y-85400000D03*
X61748648Y-85400000D03*
%TD*%
D20*
%TO.C,R3*%
X84648648Y-86787500D03*
X84648648Y-88612500D03*
%TD*%
D19*
%TO.C,R2*%
X38748648Y-88325000D03*
X38748648Y-86675000D03*
%TD*%
D20*
%TO.C,R3*%
X84648648Y-28287500D03*
X84648648Y-30112500D03*
%TD*%
D19*
%TO.C,R1*%
X86648648Y-100025000D03*
X86648648Y-98375000D03*
%TD*%
%TO.C,R2*%
X88448648Y-76625000D03*
X88448648Y-74975000D03*
%TD*%
D21*
%TO.C,J2*%
X57448648Y-42475000D03*
X58448648Y-42475000D03*
X59448648Y-42475000D03*
X60448648Y-42475000D03*
D22*
X61748648Y-38600000D03*
X56148648Y-38600000D03*
%TD*%
D19*
%TO.C,R1*%
X86648648Y-41525000D03*
X86648648Y-39875000D03*
%TD*%
%TO.C,R2*%
X88448648Y-41525000D03*
X88448648Y-39875000D03*
%TD*%
D21*
%TO.C,J2*%
X57448648Y-100975000D03*
X58448648Y-100975000D03*
X59448648Y-100975000D03*
X60448648Y-100975000D03*
D22*
X56148648Y-97100000D03*
X61748648Y-97100000D03*
%TD*%
D20*
%TO.C,R3*%
X84648648Y-75087500D03*
X84648648Y-76912500D03*
%TD*%
D19*
%TO.C,R1*%
X86648648Y-53225000D03*
X86648648Y-51575000D03*
%TD*%
D21*
%TO.C,J2*%
X107148648Y-42475000D03*
X108148648Y-42475000D03*
X109148648Y-42475000D03*
X110148648Y-42475000D03*
D22*
X111448648Y-38600000D03*
X105848648Y-38600000D03*
%TD*%
D19*
%TO.C,R2*%
X38748648Y-29825000D03*
X38748648Y-28175000D03*
%TD*%
%TO.C,R2*%
X88448648Y-111725000D03*
X88448648Y-110075000D03*
%TD*%
D21*
%TO.C,J2*%
X57448648Y-77575000D03*
X58448648Y-77575000D03*
X59448648Y-77575000D03*
X60448648Y-77575000D03*
D22*
X56148648Y-73700000D03*
X61748648Y-73700000D03*
%TD*%
D19*
%TO.C,R1*%
X86648648Y-111725000D03*
X86648648Y-110075000D03*
%TD*%
%TO.C,R1*%
X36948648Y-88325000D03*
X36948648Y-86675000D03*
%TD*%
%TO.C,R1*%
X86648648Y-64925000D03*
X86648648Y-63275000D03*
%TD*%
%TO.C,R1*%
X36948648Y-53225000D03*
X36948648Y-51575000D03*
%TD*%
%TO.C,R1*%
X36948648Y-100025000D03*
X36948648Y-98375000D03*
%TD*%
D20*
%TO.C,R3*%
X34948648Y-86787500D03*
X34948648Y-88612500D03*
%TD*%
D19*
%TO.C,R1*%
X36948648Y-76625000D03*
X36948648Y-74975000D03*
%TD*%
D21*
%TO.C,J2*%
X107148648Y-30775000D03*
X108148648Y-30775000D03*
X109148648Y-30775000D03*
X110148648Y-30775000D03*
D22*
X105848648Y-26900000D03*
X111448648Y-26900000D03*
%TD*%
D20*
%TO.C,R3*%
X84648648Y-110187500D03*
X84648648Y-112012500D03*
%TD*%
%TO.C,R3*%
X34948648Y-28287500D03*
X34948648Y-30112500D03*
%TD*%
%TO.C,R3*%
X84648648Y-39987500D03*
X84648648Y-41812500D03*
%TD*%
%TO.C,R3*%
X34948648Y-39987500D03*
X34948648Y-41812500D03*
%TD*%
D18*
%TO.C,C1*%
X32948648Y-63525000D03*
X32948648Y-65075000D03*
%TD*%
D21*
%TO.C,J2*%
X57448648Y-30775000D03*
X58448648Y-30775000D03*
X59448648Y-30775000D03*
X60448648Y-30775000D03*
D22*
X56148648Y-26900000D03*
X61748648Y-26900000D03*
%TD*%
D18*
%TO.C,C1*%
X32948648Y-86925000D03*
X32948648Y-88475000D03*
%TD*%
D20*
%TO.C,R3*%
X84648648Y-63387500D03*
X84648648Y-65212500D03*
%TD*%
D19*
%TO.C,R2*%
X38748648Y-41525000D03*
X38748648Y-39875000D03*
%TD*%
D18*
%TO.C,C1*%
X32948648Y-28425000D03*
X32948648Y-29975000D03*
%TD*%
D20*
%TO.C,R3*%
X34948648Y-110187500D03*
X34948648Y-112012500D03*
%TD*%
D19*
%TO.C,R1*%
X86648648Y-88325000D03*
X86648648Y-86675000D03*
%TD*%
%TO.C,R1*%
X36948648Y-41525000D03*
X36948648Y-39875000D03*
%TD*%
%TO.C,R2*%
X38748648Y-53225000D03*
X38748648Y-51575000D03*
%TD*%
D21*
%TO.C,J2*%
X107148648Y-77575000D03*
X108148648Y-77575000D03*
X109148648Y-77575000D03*
X110148648Y-77575000D03*
D22*
X111448648Y-73700000D03*
X105848648Y-73700000D03*
%TD*%
D19*
%TO.C,R1*%
X36948648Y-64925000D03*
X36948648Y-63275000D03*
%TD*%
D18*
%TO.C,C1*%
X82648648Y-86925000D03*
X82648648Y-88475000D03*
%TD*%
D19*
%TO.C,R1*%
X86648648Y-29825000D03*
X86648648Y-28175000D03*
%TD*%
%TO.C,R1*%
X36948648Y-29825000D03*
X36948648Y-28175000D03*
%TD*%
%TO.C,R2*%
X88448648Y-88325000D03*
X88448648Y-86675000D03*
%TD*%
D18*
%TO.C,C1*%
X82648648Y-110325000D03*
X82648648Y-111875000D03*
%TD*%
D21*
%TO.C,J2*%
X107148648Y-100975000D03*
X108148648Y-100975000D03*
X109148648Y-100975000D03*
X110148648Y-100975000D03*
D22*
X111448648Y-97100000D03*
X105848648Y-97100000D03*
%TD*%
D19*
%TO.C,R2*%
X38748648Y-111725000D03*
X38748648Y-110075000D03*
%TD*%
%TO.C,R1*%
X36948648Y-111725000D03*
X36948648Y-110075000D03*
%TD*%
D21*
%TO.C,J2*%
X107148648Y-65875000D03*
X108148648Y-65875000D03*
X109148648Y-65875000D03*
X110148648Y-65875000D03*
D22*
X105848648Y-62000000D03*
X111448648Y-62000000D03*
%TD*%
D18*
%TO.C,C1*%
X82648648Y-75225000D03*
X82648648Y-76775000D03*
%TD*%
D19*
%TO.C,R2*%
X88448648Y-64925000D03*
X88448648Y-63275000D03*
%TD*%
D21*
%TO.C,J2*%
X107148648Y-54175000D03*
X108148648Y-54175000D03*
X109148648Y-54175000D03*
X110148648Y-54175000D03*
D22*
X105848648Y-50300000D03*
X111448648Y-50300000D03*
%TD*%
D21*
%TO.C,J2*%
X57448648Y-65875000D03*
X58448648Y-65875000D03*
X59448648Y-65875000D03*
X60448648Y-65875000D03*
D22*
X56148648Y-62000000D03*
X61748648Y-62000000D03*
%TD*%
D18*
%TO.C,C1*%
X82648648Y-28425000D03*
X82648648Y-29975000D03*
%TD*%
D21*
%TO.C,J2*%
X57448648Y-112675000D03*
X58448648Y-112675000D03*
X59448648Y-112675000D03*
X60448648Y-112675000D03*
D22*
X61748648Y-108800000D03*
X56148648Y-108800000D03*
%TD*%
D18*
%TO.C,C1*%
X32948648Y-75225000D03*
X32948648Y-76775000D03*
%TD*%
%TO.C,C1*%
X32948648Y-40125000D03*
X32948648Y-41675000D03*
%TD*%
D19*
%TO.C,R2*%
X88448648Y-29825000D03*
X88448648Y-28175000D03*
%TD*%
D23*
%TO.C,REF\u002A\u002A*%
X24029255Y-52259398D03*
%TD*%
%TO.C,REF\u002A\u002A*%
X125111580Y-24000000D03*
%TD*%
%TO.C,REF\u002A\u002A*%
X87765765Y-82500000D03*
%TD*%
%TO.C,REF\u002A\u002A*%
X104331530Y-67800000D03*
%TD*%
%TO.C,REF\u002A\u002A*%
X41065765Y-47400000D03*
%TD*%
%TO.C,REF\u002A\u002A*%
X40065765Y-32700000D03*
%TD*%
%TO.C,REF\u002A\u002A*%
X73729255Y-63959398D03*
%TD*%
%TO.C,REF\u002A\u002A*%
X24000000Y-15857142D03*
%TD*%
%TO.C,REF\u002A\u002A*%
X53631530Y-79500000D03*
%TD*%
%TO.C,REF\u002A\u002A*%
X106331530Y-32700000D03*
%TD*%
%TO.C,REF\u002A\u002A*%
X39065765Y-114600000D03*
%TD*%
%TO.C,REF\u002A\u002A*%
X103331530Y-32700000D03*
%TD*%
%TO.C,REF\u002A\u002A*%
X53631530Y-114600000D03*
%TD*%
%TO.C,REF\u002A\u002A*%
X120130427Y-73650000D03*
%TD*%
%TO.C,REF\u002A\u002A*%
X70668040Y-75659398D03*
%TD*%
%TO.C,REF\u002A\u002A*%
X54631530Y-91200000D03*
%TD*%
%TO.C,REF\u002A\u002A*%
X105331530Y-24000000D03*
%TD*%
%TO.C,REF\u002A\u002A*%
X70668040Y-99059398D03*
%TD*%
D24*
%TO.C,MH2*%
X75648648Y-110250000D03*
X79745704Y-111947056D03*
X80448648Y-110250000D03*
D25*
X78048648Y-110250000D03*
D24*
X78048648Y-112650000D03*
X78048648Y-107850000D03*
X76351592Y-108552944D03*
X76351592Y-111947056D03*
X79745704Y-108552944D03*
%TD*%
D23*
%TO.C,REF\u002A\u002A*%
X125968723Y-114600000D03*
%TD*%
%TO.C,REF\u002A\u002A*%
X18428571Y-24000000D03*
%TD*%
%TO.C,REF\u002A\u002A*%
X24266868Y-29850000D03*
%TD*%
%TO.C,REF\u002A\u002A*%
X41065765Y-32700000D03*
%TD*%
D25*
%TO.C,MH1*%
X116048648Y-63450000D03*
D24*
X116048648Y-65850000D03*
X118448648Y-63450000D03*
X114351592Y-65147056D03*
X114351592Y-61752944D03*
X117745704Y-65147056D03*
X113648648Y-63450000D03*
X116048648Y-61050000D03*
X117745704Y-61752944D03*
%TD*%
D23*
%TO.C,REF\u002A\u002A*%
X56631530Y-105900000D03*
%TD*%
%TO.C,REF\u002A\u002A*%
X120368040Y-75659398D03*
%TD*%
%TO.C,REF\u002A\u002A*%
X90765765Y-67800000D03*
%TD*%
%TO.C,REF\u002A\u002A*%
X120130427Y-50250000D03*
%TD*%
D24*
%TO.C,MH2*%
X30045704Y-73452944D03*
X30045704Y-76847056D03*
X26651592Y-76847056D03*
X28348648Y-77550000D03*
X30748648Y-75150000D03*
X28348648Y-72750000D03*
X26651592Y-73452944D03*
X25948648Y-75150000D03*
D25*
X28348648Y-75150000D03*
%TD*%
D23*
%TO.C,REF\u002A\u002A*%
X53631530Y-59100000D03*
%TD*%
%TO.C,REF\u002A\u002A*%
X70668040Y-27840601D03*
%TD*%
%TO.C,REF\u002A\u002A*%
X24000000Y-16714285D03*
%TD*%
%TO.C,REF\u002A\u002A*%
X90765765Y-105900000D03*
%TD*%
%TO.C,REF\u002A\u002A*%
X88765765Y-32700000D03*
%TD*%
%TO.C,REF\u002A\u002A*%
X70430427Y-100050000D03*
%TD*%
%TO.C,REF\u002A\u002A*%
X120368040Y-74640601D03*
%TD*%
%TO.C,REF\u002A\u002A*%
X120130427Y-111750000D03*
%TD*%
%TO.C,REF\u002A\u002A*%
X105331530Y-102900000D03*
%TD*%
D24*
%TO.C,MH2*%
X78048648Y-49350000D03*
X79745704Y-53447056D03*
X75648648Y-51750000D03*
X76351592Y-50052944D03*
X80448648Y-51750000D03*
X79745704Y-50052944D03*
X76351592Y-53447056D03*
D25*
X78048648Y-51750000D03*
D24*
X78048648Y-54150000D03*
%TD*%
D23*
%TO.C,REF\u002A\u002A*%
X56631530Y-32700000D03*
%TD*%
%TO.C,REF\u002A\u002A*%
X70430427Y-53250000D03*
%TD*%
%TO.C,REF\u002A\u002A*%
X40065765Y-56100000D03*
%TD*%
D24*
%TO.C,MH1*%
X66348648Y-61050000D03*
D25*
X66348648Y-63450000D03*
D24*
X64651592Y-65147056D03*
X68045704Y-61752944D03*
X66348648Y-65850000D03*
X68748648Y-63450000D03*
X68045704Y-65147056D03*
X63948648Y-63450000D03*
X64651592Y-61752944D03*
%TD*%
%TO.C,MH2*%
X30748648Y-28350000D03*
X30045704Y-26652944D03*
X25948648Y-28350000D03*
X26651592Y-30047056D03*
X26651592Y-26652944D03*
X30045704Y-30047056D03*
X28348648Y-25950000D03*
D25*
X28348648Y-28350000D03*
D24*
X28348648Y-30750000D03*
%TD*%
D23*
%TO.C,REF\u002A\u002A*%
X88765765Y-35700000D03*
%TD*%
%TO.C,REF\u002A\u002A*%
X120368040Y-99059398D03*
%TD*%
D24*
%TO.C,MH1*%
X118448648Y-28350000D03*
X116048648Y-25950000D03*
X114351592Y-26652944D03*
X116048648Y-30750000D03*
X113648648Y-28350000D03*
X117745704Y-30047056D03*
X114351592Y-30047056D03*
D25*
X116048648Y-28350000D03*
D24*
X117745704Y-26652944D03*
%TD*%
%TO.C,MH1*%
X68045704Y-85152944D03*
X68045704Y-88547056D03*
D25*
X66348648Y-86850000D03*
D24*
X63948648Y-86850000D03*
X66348648Y-84450000D03*
X66348648Y-89250000D03*
X64651592Y-85152944D03*
X68748648Y-86850000D03*
X64651592Y-88547056D03*
%TD*%
D23*
%TO.C,REF\u002A\u002A*%
X40065765Y-59100000D03*
%TD*%
%TO.C,REF\u002A\u002A*%
X89765765Y-114600000D03*
%TD*%
%TO.C,REF\u002A\u002A*%
X24000000Y-18428571D03*
%TD*%
%TO.C,REF\u002A\u002A*%
X120130427Y-61950000D03*
%TD*%
%TO.C,REF\u002A\u002A*%
X24000000Y-19285714D03*
%TD*%
%TO.C,REF\u002A\u002A*%
X40065765Y-102900000D03*
%TD*%
%TO.C,REF\u002A\u002A*%
X40065765Y-82500000D03*
%TD*%
%TO.C,REF\u002A\u002A*%
X24029255Y-99059398D03*
%TD*%
%TO.C,REF\u002A\u002A*%
X38065765Y-70800000D03*
%TD*%
%TO.C,REF\u002A\u002A*%
X40065765Y-91200000D03*
%TD*%
%TO.C,REF\u002A\u002A*%
X120368040Y-40559398D03*
%TD*%
%TO.C,REF\u002A\u002A*%
X90765765Y-44400000D03*
%TD*%
%TO.C,REF\u002A\u002A*%
X73966868Y-53250000D03*
%TD*%
%TO.C,REF\u002A\u002A*%
X56631530Y-79500000D03*
%TD*%
%TO.C,REF\u002A\u002A*%
X120368040Y-110759398D03*
%TD*%
D24*
%TO.C,MH2*%
X76351592Y-96852944D03*
X75648648Y-98550000D03*
X78048648Y-96150000D03*
X79745704Y-100247056D03*
D25*
X78048648Y-98550000D03*
D24*
X79745704Y-96852944D03*
X76351592Y-100247056D03*
X78048648Y-100950000D03*
X80448648Y-98550000D03*
%TD*%
D23*
%TO.C,REF\u002A\u002A*%
X126825866Y-24000000D03*
%TD*%
%TO.C,REF\u002A\u002A*%
X73966868Y-108750000D03*
%TD*%
%TO.C,REF\u002A\u002A*%
X103331530Y-114600000D03*
%TD*%
%TO.C,REF\u002A\u002A*%
X54631530Y-94200000D03*
%TD*%
D24*
%TO.C,MH2*%
X26651592Y-85152944D03*
X30045704Y-85152944D03*
X26651592Y-88547056D03*
X30748648Y-86850000D03*
X30045704Y-88547056D03*
X25948648Y-86850000D03*
D25*
X28348648Y-86850000D03*
D24*
X28348648Y-89250000D03*
X28348648Y-84450000D03*
%TD*%
D23*
%TO.C,REF\u002A\u002A*%
X120397295Y-122742857D03*
%TD*%
%TO.C,REF\u002A\u002A*%
X104331530Y-102900000D03*
%TD*%
%TO.C,REF\u002A\u002A*%
X55631530Y-35700000D03*
%TD*%
%TO.C,REF\u002A\u002A*%
X38065765Y-114600000D03*
%TD*%
%TO.C,REF\u002A\u002A*%
X120397295Y-15857142D03*
%TD*%
%TO.C,REF\u002A\u002A*%
X56631530Y-47400000D03*
%TD*%
%TO.C,REF\u002A\u002A*%
X89765765Y-79500000D03*
%TD*%
%TO.C,REF\u002A\u002A*%
X40065765Y-44400000D03*
%TD*%
%TO.C,REF\u002A\u002A*%
X55631530Y-47400000D03*
%TD*%
D24*
%TO.C,MH2*%
X76351592Y-85152944D03*
X80448648Y-86850000D03*
X78048648Y-84450000D03*
X79745704Y-88547056D03*
X75648648Y-86850000D03*
D25*
X78048648Y-86850000D03*
D24*
X78048648Y-89250000D03*
X76351592Y-88547056D03*
X79745704Y-85152944D03*
%TD*%
D23*
%TO.C,REF\u002A\u002A*%
X87765765Y-59100000D03*
%TD*%
%TO.C,REF\u002A\u002A*%
X87765765Y-35700000D03*
%TD*%
%TO.C,REF\u002A\u002A*%
X103331530Y-35700000D03*
%TD*%
%TO.C,REF\u002A\u002A*%
X54631530Y-59100000D03*
%TD*%
%TO.C,REF\u002A\u002A*%
X24000000Y-119314285D03*
%TD*%
%TO.C,REF\u002A\u002A*%
X129397295Y-114600000D03*
%TD*%
D24*
%TO.C,MH1*%
X113648648Y-75150000D03*
X116048648Y-77550000D03*
X116048648Y-72750000D03*
X114351592Y-73452944D03*
X117745704Y-76847056D03*
D25*
X116048648Y-75150000D03*
D24*
X114351592Y-76847056D03*
X117745704Y-73452944D03*
X118448648Y-75150000D03*
%TD*%
D23*
%TO.C,REF\u002A\u002A*%
X56631530Y-24000000D03*
%TD*%
%TO.C,REF\u002A\u002A*%
X89765765Y-105900000D03*
%TD*%
D24*
%TO.C,MH2*%
X26651592Y-65147056D03*
X25948648Y-63450000D03*
X30748648Y-63450000D03*
D25*
X28348648Y-63450000D03*
D24*
X28348648Y-61050000D03*
X26651592Y-61752944D03*
X30045704Y-65147056D03*
X28348648Y-65850000D03*
X30045704Y-61752944D03*
%TD*%
D23*
%TO.C,REF\u002A\u002A*%
X90765765Y-32700000D03*
%TD*%
%TO.C,REF\u002A\u002A*%
X104331530Y-35700000D03*
%TD*%
%TO.C,REF\u002A\u002A*%
X24029255Y-51240601D03*
%TD*%
D25*
%TO.C,MH1*%
X116048648Y-110250000D03*
D24*
X117745704Y-111947056D03*
X113648648Y-110250000D03*
X116048648Y-112650000D03*
X114351592Y-111947056D03*
X116048648Y-107850000D03*
X117745704Y-108552944D03*
X114351592Y-108552944D03*
X118448648Y-110250000D03*
%TD*%
D23*
%TO.C,REF\u002A\u002A*%
X55631530Y-56100000D03*
%TD*%
%TO.C,REF\u002A\u002A*%
X90765765Y-79500000D03*
%TD*%
%TO.C,REF\u002A\u002A*%
X120397295Y-121028571D03*
%TD*%
D24*
%TO.C,MH1*%
X116048648Y-89250000D03*
X118448648Y-86850000D03*
X114351592Y-85152944D03*
X116048648Y-84450000D03*
X113648648Y-86850000D03*
X117745704Y-85152944D03*
D25*
X116048648Y-86850000D03*
D24*
X114351592Y-88547056D03*
X117745704Y-88547056D03*
%TD*%
D23*
%TO.C,REF\u002A\u002A*%
X70430427Y-85350000D03*
%TD*%
%TO.C,REF\u002A\u002A*%
X55631530Y-67800000D03*
%TD*%
%TO.C,REF\u002A\u002A*%
X120368040Y-27840601D03*
%TD*%
%TO.C,REF\u002A\u002A*%
X90765765Y-70800000D03*
%TD*%
%TO.C,REF\u002A\u002A*%
X106331530Y-59100000D03*
%TD*%
%TO.C,REF\u002A\u002A*%
X73729255Y-86340601D03*
%TD*%
%TO.C,REF\u002A\u002A*%
X120130427Y-76650000D03*
%TD*%
%TO.C,REF\u002A\u002A*%
X73729255Y-39540601D03*
%TD*%
%TO.C,REF\u002A\u002A*%
X87765765Y-102900000D03*
%TD*%
%TO.C,REF\u002A\u002A*%
X55631530Y-32700000D03*
%TD*%
%TO.C,REF\u002A\u002A*%
X106331530Y-102900000D03*
%TD*%
%TO.C,REF\u002A\u002A*%
X90765765Y-56100000D03*
%TD*%
%TO.C,REF\u002A\u002A*%
X55631530Y-102900000D03*
%TD*%
%TO.C,REF\u002A\u002A*%
X120368040Y-87359398D03*
%TD*%
%TO.C,REF\u002A\u002A*%
X73729255Y-75659398D03*
%TD*%
D24*
%TO.C,MH2*%
X28348648Y-100950000D03*
X26651592Y-100247056D03*
D25*
X28348648Y-98550000D03*
D24*
X25948648Y-98550000D03*
X26651592Y-96852944D03*
X30045704Y-100247056D03*
X28348648Y-96150000D03*
X30045704Y-96852944D03*
X30748648Y-98550000D03*
%TD*%
D23*
%TO.C,REF\u002A\u002A*%
X87765765Y-56100000D03*
%TD*%
%TO.C,REF\u002A\u002A*%
X24266868Y-111750000D03*
%TD*%
%TO.C,REF\u002A\u002A*%
X55631530Y-105900000D03*
%TD*%
%TO.C,REF\u002A\u002A*%
X123397295Y-114600000D03*
%TD*%
%TO.C,REF\u002A\u002A*%
X39065765Y-67800000D03*
%TD*%
D25*
%TO.C,MH2*%
X78048648Y-75150000D03*
D24*
X75648648Y-75150000D03*
X79745704Y-73452944D03*
X76351592Y-76847056D03*
X76351592Y-73452944D03*
X78048648Y-72750000D03*
X79745704Y-76847056D03*
X78048648Y-77550000D03*
X80448648Y-75150000D03*
%TD*%
D23*
%TO.C,REF\u002A\u002A*%
X106331530Y-114600000D03*
%TD*%
%TO.C,REF\u002A\u002A*%
X104331530Y-44400000D03*
%TD*%
%TO.C,REF\u002A\u002A*%
X120130427Y-64950000D03*
%TD*%
%TO.C,REF\u002A\u002A*%
X120130427Y-100050000D03*
%TD*%
%TO.C,REF\u002A\u002A*%
X90765765Y-94200000D03*
%TD*%
%TO.C,REF\u002A\u002A*%
X40065765Y-94200000D03*
%TD*%
%TO.C,REF\u002A\u002A*%
X120397295Y-15000000D03*
%TD*%
%TO.C,REF\u002A\u002A*%
X106331530Y-67800000D03*
%TD*%
%TO.C,REF\u002A\u002A*%
X70430427Y-41550000D03*
%TD*%
%TO.C,REF\u002A\u002A*%
X56631530Y-67800000D03*
%TD*%
%TO.C,REF\u002A\u002A*%
X41065765Y-44400000D03*
%TD*%
%TO.C,REF\u002A\u002A*%
X88765765Y-82500000D03*
%TD*%
%TO.C,REF\u002A\u002A*%
X90765765Y-102900000D03*
%TD*%
%TO.C,REF\u002A\u002A*%
X105331530Y-105900000D03*
%TD*%
%TO.C,REF\u002A\u002A*%
X54631530Y-67800000D03*
%TD*%
%TO.C,REF\u002A\u002A*%
X70668040Y-110759398D03*
%TD*%
%TO.C,REF\u002A\u002A*%
X40065765Y-35700000D03*
%TD*%
%TO.C,REF\u002A\u002A*%
X24029255Y-27840601D03*
%TD*%
%TO.C,REF\u002A\u002A*%
X88765765Y-105900000D03*
%TD*%
%TO.C,REF\u002A\u002A*%
X24266868Y-64950000D03*
%TD*%
%TO.C,REF\u002A\u002A*%
X106331530Y-47400000D03*
%TD*%
%TO.C,REF\u002A\u002A*%
X124254437Y-114600000D03*
%TD*%
%TO.C,REF\u002A\u002A*%
X73966868Y-29850000D03*
%TD*%
%TO.C,REF\u002A\u002A*%
X104331530Y-82500000D03*
%TD*%
%TO.C,REF\u002A\u002A*%
X41065765Y-59100000D03*
%TD*%
%TO.C,REF\u002A\u002A*%
X120130427Y-38550000D03*
%TD*%
%TO.C,REF\u002A\u002A*%
X21000000Y-24000000D03*
%TD*%
%TO.C,REF\u002A\u002A*%
X73729255Y-99059398D03*
%TD*%
%TO.C,REF\u002A\u002A*%
X120397295Y-123600000D03*
%TD*%
%TO.C,REF\u002A\u002A*%
X124254437Y-24000000D03*
%TD*%
%TO.C,REF\u002A\u002A*%
X24000000Y-121028571D03*
%TD*%
%TO.C,REF\u002A\u002A*%
X70668040Y-86340601D03*
%TD*%
%TO.C,REF\u002A\u002A*%
X38065765Y-79500000D03*
%TD*%
%TO.C,REF\u002A\u002A*%
X24266868Y-38550000D03*
%TD*%
%TO.C,REF\u002A\u002A*%
X53631530Y-56100000D03*
%TD*%
%TO.C,REF\u002A\u002A*%
X73729255Y-109740601D03*
%TD*%
%TO.C,REF\u002A\u002A*%
X104331530Y-59100000D03*
%TD*%
%TO.C,REF\u002A\u002A*%
X40065765Y-47400000D03*
%TD*%
%TO.C,REF\u002A\u002A*%
X90765765Y-91200000D03*
%TD*%
%TO.C,REF\u002A\u002A*%
X120368040Y-28859398D03*
%TD*%
%TO.C,REF\u002A\u002A*%
X54631530Y-35700000D03*
%TD*%
%TO.C,REF\u002A\u002A*%
X56631530Y-56100000D03*
%TD*%
%TO.C,REF\u002A\u002A*%
X103331530Y-24000000D03*
%TD*%
%TO.C,REF\u002A\u002A*%
X89765765Y-44400000D03*
%TD*%
%TO.C,REF\u002A\u002A*%
X120397295Y-16714285D03*
%TD*%
%TO.C,REF\u002A\u002A*%
X21000000Y-114600000D03*
%TD*%
%TO.C,REF\u002A\u002A*%
X87765765Y-67800000D03*
%TD*%
%TO.C,REF\u002A\u002A*%
X70430427Y-38550000D03*
%TD*%
%TO.C,REF\u002A\u002A*%
X120130427Y-53250000D03*
%TD*%
%TO.C,REF\u002A\u002A*%
X88765765Y-24000000D03*
%TD*%
%TO.C,REF\u002A\u002A*%
X73966868Y-64950000D03*
%TD*%
%TO.C,REF\u002A\u002A*%
X127683009Y-114600000D03*
%TD*%
%TO.C,REF\u002A\u002A*%
X88765765Y-79500000D03*
%TD*%
%TO.C,REF\u002A\u002A*%
X73729255Y-40559398D03*
%TD*%
%TO.C,REF\u002A\u002A*%
X24000000Y-122742857D03*
%TD*%
%TO.C,REF\u002A\u002A*%
X54631530Y-24000000D03*
%TD*%
%TO.C,REF\u002A\u002A*%
X53631530Y-91200000D03*
%TD*%
%TO.C,REF\u002A\u002A*%
X103331530Y-94200000D03*
%TD*%
%TO.C,REF\u002A\u002A*%
X24266868Y-100050000D03*
%TD*%
%TO.C,REF\u002A\u002A*%
X103331530Y-47400000D03*
%TD*%
%TO.C,REF\u002A\u002A*%
X40065765Y-114600000D03*
%TD*%
%TO.C,REF\u002A\u002A*%
X55631530Y-79500000D03*
%TD*%
%TO.C,REF\u002A\u002A*%
X40065765Y-70800000D03*
%TD*%
%TO.C,REF\u002A\u002A*%
X56631530Y-35700000D03*
%TD*%
%TO.C,REF\u002A\u002A*%
X24266868Y-97050000D03*
%TD*%
D24*
%TO.C,MH1*%
X66348648Y-42450000D03*
X68045704Y-41747056D03*
X64651592Y-38352944D03*
D25*
X66348648Y-40050000D03*
D24*
X63948648Y-40050000D03*
X68045704Y-38352944D03*
X64651592Y-41747056D03*
X66348648Y-37650000D03*
X68748648Y-40050000D03*
%TD*%
%TO.C,MH1*%
X116048648Y-42450000D03*
X113648648Y-40050000D03*
X117745704Y-38352944D03*
D25*
X116048648Y-40050000D03*
D24*
X118448648Y-40050000D03*
X116048648Y-37650000D03*
X114351592Y-41747056D03*
X114351592Y-38352944D03*
X117745704Y-41747056D03*
%TD*%
D23*
%TO.C,REF\u002A\u002A*%
X104331530Y-94200000D03*
%TD*%
%TO.C,REF\u002A\u002A*%
X120397295Y-21000000D03*
%TD*%
%TO.C,REF\u002A\u002A*%
X105331530Y-35700000D03*
%TD*%
%TO.C,REF\u002A\u002A*%
X120368040Y-98040601D03*
%TD*%
%TO.C,REF\u002A\u002A*%
X53631530Y-35700000D03*
%TD*%
%TO.C,REF\u002A\u002A*%
X54631530Y-82500000D03*
%TD*%
%TO.C,REF\u002A\u002A*%
X20142857Y-114600000D03*
%TD*%
%TO.C,REF\u002A\u002A*%
X127683009Y-24000000D03*
%TD*%
%TO.C,REF\u002A\u002A*%
X90765765Y-114600000D03*
%TD*%
%TO.C,REF\u002A\u002A*%
X55631530Y-70800000D03*
%TD*%
%TO.C,REF\u002A\u002A*%
X41065765Y-105900000D03*
%TD*%
%TO.C,REF\u002A\u002A*%
X38065765Y-59100000D03*
%TD*%
%TO.C,REF\u002A\u002A*%
X38065765Y-35700000D03*
%TD*%
%TO.C,REF\u002A\u002A*%
X17571428Y-114600000D03*
%TD*%
%TO.C,REF\u002A\u002A*%
X41065765Y-94200000D03*
%TD*%
%TO.C,REF\u002A\u002A*%
X70430427Y-76650000D03*
%TD*%
%TO.C,REF\u002A\u002A*%
X120397295Y-20142857D03*
%TD*%
%TO.C,REF\u002A\u002A*%
X53631530Y-24000000D03*
%TD*%
%TO.C,REF\u002A\u002A*%
X88765765Y-44400000D03*
%TD*%
%TO.C,REF\u002A\u002A*%
X41065765Y-70800000D03*
%TD*%
%TO.C,REF\u002A\u002A*%
X24000000Y-20142857D03*
%TD*%
%TO.C,REF\u002A\u002A*%
X120397295Y-118457142D03*
%TD*%
%TO.C,REF\u002A\u002A*%
X55631530Y-114600000D03*
%TD*%
%TO.C,REF\u002A\u002A*%
X16714285Y-24000000D03*
%TD*%
%TO.C,REF\u002A\u002A*%
X24029255Y-28859398D03*
%TD*%
%TO.C,REF\u002A\u002A*%
X73966868Y-97050000D03*
%TD*%
%TO.C,REF\u002A\u002A*%
X73966868Y-100050000D03*
%TD*%
%TO.C,REF\u002A\u002A*%
X120368040Y-63959398D03*
%TD*%
%TO.C,REF\u002A\u002A*%
X38065765Y-67800000D03*
%TD*%
%TO.C,REF\u002A\u002A*%
X105331530Y-94200000D03*
%TD*%
%TO.C,REF\u002A\u002A*%
X24000000Y-121885714D03*
%TD*%
%TO.C,REF\u002A\u002A*%
X89765765Y-56100000D03*
%TD*%
%TO.C,REF\u002A\u002A*%
X54631530Y-105900000D03*
%TD*%
%TO.C,REF\u002A\u002A*%
X24029255Y-40559398D03*
%TD*%
%TO.C,REF\u002A\u002A*%
X70668040Y-39540601D03*
%TD*%
%TO.C,REF\u002A\u002A*%
X41065765Y-67800000D03*
%TD*%
%TO.C,REF\u002A\u002A*%
X24029255Y-74640601D03*
%TD*%
%TO.C,REF\u002A\u002A*%
X105331530Y-91200000D03*
%TD*%
%TO.C,REF\u002A\u002A*%
X104331530Y-79500000D03*
%TD*%
%TO.C,REF\u002A\u002A*%
X120130427Y-29850000D03*
%TD*%
%TO.C,REF\u002A\u002A*%
X70430427Y-29850000D03*
%TD*%
%TO.C,REF\u002A\u002A*%
X123397295Y-24000000D03*
%TD*%
%TO.C,REF\u002A\u002A*%
X103331530Y-79500000D03*
%TD*%
D24*
%TO.C,MH2*%
X76351592Y-26652944D03*
X79745704Y-26652944D03*
D25*
X78048648Y-28350000D03*
D24*
X76351592Y-30047056D03*
X80448648Y-28350000D03*
X78048648Y-25950000D03*
X79745704Y-30047056D03*
X78048648Y-30750000D03*
X75648648Y-28350000D03*
%TD*%
D23*
%TO.C,REF\u002A\u002A*%
X106331530Y-94200000D03*
%TD*%
%TO.C,REF\u002A\u002A*%
X70668040Y-87359398D03*
%TD*%
D24*
%TO.C,MH1*%
X66348648Y-100950000D03*
X63948648Y-98550000D03*
X64651592Y-96852944D03*
X64651592Y-100247056D03*
X66348648Y-96150000D03*
X68748648Y-98550000D03*
D25*
X66348648Y-98550000D03*
D24*
X68045704Y-100247056D03*
X68045704Y-96852944D03*
%TD*%
%TO.C,MH1*%
X64651592Y-111947056D03*
X68045704Y-108552944D03*
X68748648Y-110250000D03*
X66348648Y-112650000D03*
D25*
X66348648Y-110250000D03*
D24*
X63948648Y-110250000D03*
X66348648Y-107850000D03*
X68045704Y-111947056D03*
X64651592Y-108552944D03*
%TD*%
D23*
%TO.C,REF\u002A\u002A*%
X73966868Y-38550000D03*
%TD*%
%TO.C,REF\u002A\u002A*%
X70668040Y-52259398D03*
%TD*%
%TO.C,REF\u002A\u002A*%
X41065765Y-82500000D03*
%TD*%
%TO.C,REF\u002A\u002A*%
X53631530Y-47400000D03*
%TD*%
%TO.C,REF\u002A\u002A*%
X53631530Y-70800000D03*
%TD*%
%TO.C,REF\u002A\u002A*%
X105331530Y-44400000D03*
%TD*%
%TO.C,REF\u002A\u002A*%
X89765765Y-32700000D03*
%TD*%
%TO.C,REF\u002A\u002A*%
X18428571Y-114600000D03*
%TD*%
%TO.C,REF\u002A\u002A*%
X90765765Y-59100000D03*
%TD*%
%TO.C,REF\u002A\u002A*%
X24029255Y-110759398D03*
%TD*%
%TO.C,REF\u002A\u002A*%
X120368040Y-39540601D03*
%TD*%
%TO.C,REF\u002A\u002A*%
X88765765Y-59100000D03*
%TD*%
%TO.C,REF\u002A\u002A*%
X87765765Y-32700000D03*
%TD*%
%TO.C,REF\u002A\u002A*%
X87765765Y-105900000D03*
%TD*%
%TO.C,REF\u002A\u002A*%
X105331530Y-56100000D03*
%TD*%
%TO.C,REF\u002A\u002A*%
X40065765Y-105900000D03*
%TD*%
%TO.C,REF\u002A\u002A*%
X41065765Y-79500000D03*
%TD*%
%TO.C,REF\u002A\u002A*%
X40065765Y-67800000D03*
%TD*%
%TO.C,REF\u002A\u002A*%
X53631530Y-67800000D03*
%TD*%
D24*
%TO.C,MH2*%
X30045704Y-50052944D03*
X26651592Y-53447056D03*
X25948648Y-51750000D03*
X28348648Y-49350000D03*
X30045704Y-53447056D03*
X28348648Y-54150000D03*
X30748648Y-51750000D03*
X26651592Y-50052944D03*
D25*
X28348648Y-51750000D03*
%TD*%
D23*
%TO.C,REF\u002A\u002A*%
X17571428Y-24000000D03*
%TD*%
%TO.C,REF\u002A\u002A*%
X120130427Y-85350000D03*
%TD*%
%TO.C,REF\u002A\u002A*%
X88765765Y-70800000D03*
%TD*%
%TO.C,REF\u002A\u002A*%
X24266868Y-50250000D03*
%TD*%
%TO.C,REF\u002A\u002A*%
X56631530Y-102900000D03*
%TD*%
%TO.C,REF\u002A\u002A*%
X70430427Y-64950000D03*
%TD*%
%TO.C,REF\u002A\u002A*%
X128540152Y-24000000D03*
%TD*%
%TO.C,REF\u002A\u002A*%
X73966868Y-85350000D03*
%TD*%
%TO.C,REF\u002A\u002A*%
X15000000Y-114600000D03*
%TD*%
%TO.C,REF\u002A\u002A*%
X54631530Y-47400000D03*
%TD*%
%TO.C,REF\u002A\u002A*%
X55631530Y-44400000D03*
%TD*%
%TO.C,REF\u002A\u002A*%
X88765765Y-102900000D03*
%TD*%
%TO.C,REF\u002A\u002A*%
X38065765Y-105900000D03*
%TD*%
%TO.C,REF\u002A\u002A*%
X70430427Y-108750000D03*
%TD*%
%TO.C,REF\u002A\u002A*%
X73966868Y-26850000D03*
%TD*%
%TO.C,REF\u002A\u002A*%
X24029255Y-109740601D03*
%TD*%
%TO.C,REF\u002A\u002A*%
X41065765Y-35700000D03*
%TD*%
%TO.C,REF\u002A\u002A*%
X41065765Y-24000000D03*
%TD*%
%TO.C,REF\u002A\u002A*%
X88765765Y-47400000D03*
%TD*%
%TO.C,REF\u002A\u002A*%
X89765765Y-70800000D03*
%TD*%
%TO.C,REF\u002A\u002A*%
X70668040Y-40559398D03*
%TD*%
%TO.C,REF\u002A\u002A*%
X40065765Y-79500000D03*
%TD*%
%TO.C,REF\u002A\u002A*%
X73729255Y-51240601D03*
%TD*%
%TO.C,REF\u002A\u002A*%
X120130427Y-41550000D03*
%TD*%
%TO.C,REF\u002A\u002A*%
X70430427Y-88350000D03*
%TD*%
D24*
%TO.C,MH2*%
X26651592Y-111947056D03*
X30748648Y-110250000D03*
X30045704Y-108552944D03*
X30045704Y-111947056D03*
D25*
X28348648Y-110250000D03*
D24*
X26651592Y-108552944D03*
X25948648Y-110250000D03*
X28348648Y-112650000D03*
X28348648Y-107850000D03*
%TD*%
D23*
%TO.C,REF\u002A\u002A*%
X104331530Y-24000000D03*
%TD*%
%TO.C,REF\u002A\u002A*%
X120368040Y-62940601D03*
%TD*%
%TO.C,REF\u002A\u002A*%
X106331530Y-24000000D03*
%TD*%
%TO.C,REF\u002A\u002A*%
X73966868Y-111750000D03*
%TD*%
%TO.C,REF\u002A\u002A*%
X88765765Y-56100000D03*
%TD*%
%TO.C,REF\u002A\u002A*%
X87765765Y-24000000D03*
%TD*%
%TO.C,REF\u002A\u002A*%
X54631530Y-32700000D03*
%TD*%
%TO.C,REF\u002A\u002A*%
X89765765Y-47400000D03*
%TD*%
%TO.C,REF\u002A\u002A*%
X89765765Y-59100000D03*
%TD*%
%TO.C,REF\u002A\u002A*%
X104331530Y-32700000D03*
%TD*%
%TO.C,REF\u002A\u002A*%
X38065765Y-24000000D03*
%TD*%
%TO.C,REF\u002A\u002A*%
X105331530Y-32700000D03*
%TD*%
%TO.C,REF\u002A\u002A*%
X104331530Y-105900000D03*
%TD*%
%TO.C,REF\u002A\u002A*%
X120130427Y-97050000D03*
%TD*%
%TO.C,REF\u002A\u002A*%
X15857142Y-114600000D03*
%TD*%
%TO.C,REF\u002A\u002A*%
X24000000Y-123600000D03*
%TD*%
%TO.C,REF\u002A\u002A*%
X56631530Y-94200000D03*
%TD*%
%TO.C,REF\u002A\u002A*%
X19285714Y-114600000D03*
%TD*%
%TO.C,REF\u002A\u002A*%
X120397295Y-18428571D03*
%TD*%
%TO.C,REF\u002A\u002A*%
X39065765Y-56100000D03*
%TD*%
%TO.C,REF\u002A\u002A*%
X105331530Y-47400000D03*
%TD*%
%TO.C,REF\u002A\u002A*%
X24000000Y-120171428D03*
%TD*%
%TO.C,REF\u002A\u002A*%
X106331530Y-82500000D03*
%TD*%
%TO.C,REF\u002A\u002A*%
X88765765Y-67800000D03*
%TD*%
%TO.C,REF\u002A\u002A*%
X38065765Y-82500000D03*
%TD*%
%TO.C,REF\u002A\u002A*%
X103331530Y-70800000D03*
%TD*%
%TO.C,REF\u002A\u002A*%
X41065765Y-102900000D03*
%TD*%
D24*
%TO.C,MH2*%
X26651592Y-38352944D03*
X28348648Y-37650000D03*
X30045704Y-41747056D03*
D25*
X28348648Y-40050000D03*
D24*
X28348648Y-42450000D03*
X26651592Y-41747056D03*
X30045704Y-38352944D03*
X25948648Y-40050000D03*
X30748648Y-40050000D03*
%TD*%
D23*
%TO.C,REF\u002A\u002A*%
X90765765Y-24000000D03*
%TD*%
%TO.C,REF\u002A\u002A*%
X39065765Y-44400000D03*
%TD*%
%TO.C,REF\u002A\u002A*%
X73729255Y-52259398D03*
%TD*%
%TO.C,REF\u002A\u002A*%
X106331530Y-35700000D03*
%TD*%
%TO.C,REF\u002A\u002A*%
X39065765Y-94200000D03*
%TD*%
%TO.C,REF\u002A\u002A*%
X120368040Y-86340601D03*
%TD*%
%TO.C,REF\u002A\u002A*%
X54631530Y-102900000D03*
%TD*%
%TO.C,REF\u002A\u002A*%
X54631530Y-114600000D03*
%TD*%
%TO.C,REF\u002A\u002A*%
X89765765Y-102900000D03*
%TD*%
%TO.C,REF\u002A\u002A*%
X103331530Y-56100000D03*
%TD*%
%TO.C,REF\u002A\u002A*%
X38065765Y-94200000D03*
%TD*%
%TO.C,REF\u002A\u002A*%
X105331530Y-70800000D03*
%TD*%
%TO.C,REF\u002A\u002A*%
X129397295Y-24000000D03*
%TD*%
%TO.C,REF\u002A\u002A*%
X55631530Y-82500000D03*
%TD*%
%TO.C,REF\u002A\u002A*%
X73966868Y-76650000D03*
%TD*%
D24*
%TO.C,MH1*%
X117745704Y-53447056D03*
X118448648Y-51750000D03*
X114351592Y-50052944D03*
X113648648Y-51750000D03*
X116048648Y-54150000D03*
X117745704Y-50052944D03*
X114351592Y-53447056D03*
D25*
X116048648Y-51750000D03*
D24*
X116048648Y-49350000D03*
%TD*%
D23*
%TO.C,REF\u002A\u002A*%
X70430427Y-73650000D03*
%TD*%
%TO.C,REF\u002A\u002A*%
X41065765Y-91200000D03*
%TD*%
%TO.C,REF\u002A\u002A*%
X56631530Y-91200000D03*
%TD*%
%TO.C,REF\u002A\u002A*%
X90765765Y-82500000D03*
%TD*%
%TO.C,REF\u002A\u002A*%
X53631530Y-82500000D03*
%TD*%
%TO.C,REF\u002A\u002A*%
X39065765Y-24000000D03*
%TD*%
%TO.C,REF\u002A\u002A*%
X39065765Y-82500000D03*
%TD*%
%TO.C,REF\u002A\u002A*%
X103331530Y-59100000D03*
%TD*%
%TO.C,REF\u002A\u002A*%
X73966868Y-41550000D03*
%TD*%
%TO.C,REF\u002A\u002A*%
X90765765Y-47400000D03*
%TD*%
%TO.C,REF\u002A\u002A*%
X70668040Y-74640601D03*
%TD*%
%TO.C,REF\u002A\u002A*%
X20142857Y-24000000D03*
%TD*%
D24*
%TO.C,MH1*%
X68045704Y-50052944D03*
X63948648Y-51750000D03*
X68045704Y-53447056D03*
X66348648Y-54150000D03*
X66348648Y-49350000D03*
D25*
X66348648Y-51750000D03*
D24*
X68748648Y-51750000D03*
X64651592Y-53447056D03*
X64651592Y-50052944D03*
%TD*%
D23*
%TO.C,REF\u002A\u002A*%
X16714285Y-114600000D03*
%TD*%
%TO.C,REF\u002A\u002A*%
X105331530Y-67800000D03*
%TD*%
%TO.C,REF\u002A\u002A*%
X39065765Y-47400000D03*
%TD*%
%TO.C,REF\u002A\u002A*%
X89765765Y-67800000D03*
%TD*%
%TO.C,REF\u002A\u002A*%
X105331530Y-114600000D03*
%TD*%
%TO.C,REF\u002A\u002A*%
X55631530Y-94200000D03*
%TD*%
%TO.C,REF\u002A\u002A*%
X73966868Y-88350000D03*
%TD*%
%TO.C,REF\u002A\u002A*%
X89765765Y-94200000D03*
%TD*%
%TO.C,REF\u002A\u002A*%
X70430427Y-50250000D03*
%TD*%
%TO.C,REF\u002A\u002A*%
X56631530Y-44400000D03*
%TD*%
%TO.C,REF\u002A\u002A*%
X120397295Y-119314285D03*
%TD*%
%TO.C,REF\u002A\u002A*%
X39065765Y-32700000D03*
%TD*%
%TO.C,REF\u002A\u002A*%
X120130427Y-26850000D03*
%TD*%
D24*
%TO.C,MH1*%
X68748648Y-28350000D03*
D25*
X66348648Y-28350000D03*
D24*
X66348648Y-25950000D03*
X66348648Y-30750000D03*
X68045704Y-26652944D03*
X64651592Y-26652944D03*
X68045704Y-30047056D03*
X63948648Y-28350000D03*
X64651592Y-30047056D03*
%TD*%
D23*
%TO.C,REF\u002A\u002A*%
X56631530Y-59100000D03*
%TD*%
%TO.C,REF\u002A\u002A*%
X24029255Y-63959398D03*
%TD*%
%TO.C,REF\u002A\u002A*%
X89765765Y-35700000D03*
%TD*%
D24*
%TO.C,MH2*%
X78048648Y-65850000D03*
X76351592Y-65147056D03*
X80448648Y-63450000D03*
X78048648Y-61050000D03*
X76351592Y-61752944D03*
X79745704Y-61752944D03*
D25*
X78048648Y-63450000D03*
D24*
X75648648Y-63450000D03*
X79745704Y-65147056D03*
%TD*%
D23*
%TO.C,REF\u002A\u002A*%
X105331530Y-82500000D03*
%TD*%
%TO.C,REF\u002A\u002A*%
X41065765Y-56100000D03*
%TD*%
%TO.C,REF\u002A\u002A*%
X120368040Y-52259398D03*
%TD*%
%TO.C,REF\u002A\u002A*%
X15857142Y-24000000D03*
%TD*%
%TO.C,REF\u002A\u002A*%
X70430427Y-111750000D03*
%TD*%
%TO.C,REF\u002A\u002A*%
X70668040Y-28859398D03*
%TD*%
%TO.C,REF\u002A\u002A*%
X53631530Y-102900000D03*
%TD*%
%TO.C,REF\u002A\u002A*%
X24266868Y-108750000D03*
%TD*%
%TO.C,REF\u002A\u002A*%
X120397295Y-117600000D03*
%TD*%
%TO.C,REF\u002A\u002A*%
X38065765Y-32700000D03*
%TD*%
%TO.C,REF\u002A\u002A*%
X73729255Y-74640601D03*
%TD*%
%TO.C,REF\u002A\u002A*%
X128540152Y-114600000D03*
%TD*%
%TO.C,REF\u002A\u002A*%
X38065765Y-91200000D03*
%TD*%
%TO.C,REF\u002A\u002A*%
X104331530Y-114600000D03*
%TD*%
%TO.C,REF\u002A\u002A*%
X103331530Y-44400000D03*
%TD*%
%TO.C,REF\u002A\u002A*%
X104331530Y-91200000D03*
%TD*%
%TO.C,REF\u002A\u002A*%
X56631530Y-70800000D03*
%TD*%
%TO.C,REF\u002A\u002A*%
X106331530Y-91200000D03*
%TD*%
%TO.C,REF\u002A\u002A*%
X88765765Y-114600000D03*
%TD*%
%TO.C,REF\u002A\u002A*%
X125111580Y-114600000D03*
%TD*%
%TO.C,REF\u002A\u002A*%
X24029255Y-39540601D03*
%TD*%
%TO.C,REF\u002A\u002A*%
X103331530Y-82500000D03*
%TD*%
%TO.C,REF\u002A\u002A*%
X24000000Y-117600000D03*
%TD*%
%TO.C,REF\u002A\u002A*%
X70430427Y-26850000D03*
%TD*%
%TO.C,REF\u002A\u002A*%
X41065765Y-114600000D03*
%TD*%
%TO.C,REF\u002A\u002A*%
X24000000Y-17571428D03*
%TD*%
%TO.C,REF\u002A\u002A*%
X70668040Y-63959398D03*
%TD*%
%TO.C,REF\u002A\u002A*%
X24029255Y-75659398D03*
%TD*%
%TO.C,REF\u002A\u002A*%
X24266868Y-76650000D03*
%TD*%
%TO.C,REF\u002A\u002A*%
X24266868Y-61950000D03*
%TD*%
%TO.C,REF\u002A\u002A*%
X70668040Y-98040601D03*
%TD*%
%TO.C,REF\u002A\u002A*%
X39065765Y-79500000D03*
%TD*%
%TO.C,REF\u002A\u002A*%
X70430427Y-61950000D03*
%TD*%
%TO.C,REF\u002A\u002A*%
X87765765Y-91200000D03*
%TD*%
%TO.C,REF\u002A\u002A*%
X38065765Y-47400000D03*
%TD*%
%TO.C,REF\u002A\u002A*%
X104331530Y-70800000D03*
%TD*%
%TO.C,REF\u002A\u002A*%
X24266868Y-85350000D03*
%TD*%
%TO.C,REF\u002A\u002A*%
X120397295Y-121885714D03*
%TD*%
%TO.C,REF\u002A\u002A*%
X87765765Y-70800000D03*
%TD*%
%TO.C,REF\u002A\u002A*%
X73729255Y-62940601D03*
%TD*%
%TO.C,REF\u002A\u002A*%
X70430427Y-97050000D03*
%TD*%
%TO.C,REF\u002A\u002A*%
X39065765Y-102900000D03*
%TD*%
%TO.C,REF\u002A\u002A*%
X70668040Y-51240601D03*
%TD*%
%TO.C,REF\u002A\u002A*%
X103331530Y-91200000D03*
%TD*%
%TO.C,REF\u002A\u002A*%
X24266868Y-88350000D03*
%TD*%
%TO.C,REF\u002A\u002A*%
X120397295Y-19285714D03*
%TD*%
%TO.C,REF\u002A\u002A*%
X104331530Y-56100000D03*
%TD*%
%TO.C,REF\u002A\u002A*%
X73729255Y-98040601D03*
%TD*%
D24*
%TO.C,MH1*%
X117745704Y-100247056D03*
X113648648Y-98550000D03*
X118448648Y-98550000D03*
X114351592Y-100247056D03*
X117745704Y-96852944D03*
X116048648Y-100950000D03*
D25*
X116048648Y-98550000D03*
D24*
X114351592Y-96852944D03*
X116048648Y-96150000D03*
%TD*%
D23*
%TO.C,REF\u002A\u002A*%
X103331530Y-105900000D03*
%TD*%
%TO.C,REF\u002A\u002A*%
X106331530Y-79500000D03*
%TD*%
%TO.C,REF\u002A\u002A*%
X87765765Y-44400000D03*
%TD*%
%TO.C,REF\u002A\u002A*%
X88765765Y-91200000D03*
%TD*%
%TO.C,REF\u002A\u002A*%
X24266868Y-73650000D03*
%TD*%
%TO.C,REF\u002A\u002A*%
X120130427Y-108750000D03*
%TD*%
%TO.C,REF\u002A\u002A*%
X54631530Y-44400000D03*
%TD*%
%TO.C,REF\u002A\u002A*%
X15000000Y-24000000D03*
%TD*%
%TO.C,REF\u002A\u002A*%
X73729255Y-110759398D03*
%TD*%
%TO.C,REF\u002A\u002A*%
X54631530Y-56100000D03*
%TD*%
%TO.C,REF\u002A\u002A*%
X54631530Y-79500000D03*
%TD*%
%TO.C,REF\u002A\u002A*%
X73966868Y-50250000D03*
%TD*%
%TO.C,REF\u002A\u002A*%
X73729255Y-28859398D03*
%TD*%
%TO.C,REF\u002A\u002A*%
X89765765Y-91200000D03*
%TD*%
%TO.C,REF\u002A\u002A*%
X40065765Y-24000000D03*
%TD*%
%TO.C,REF\u002A\u002A*%
X24029255Y-98040601D03*
%TD*%
%TO.C,REF\u002A\u002A*%
X70668040Y-62940601D03*
%TD*%
%TO.C,REF\u002A\u002A*%
X55631530Y-59100000D03*
%TD*%
%TO.C,REF\u002A\u002A*%
X120368040Y-51240601D03*
%TD*%
%TO.C,REF\u002A\u002A*%
X103331530Y-67800000D03*
%TD*%
%TO.C,REF\u002A\u002A*%
X73966868Y-61950000D03*
%TD*%
%TO.C,REF\u002A\u002A*%
X53631530Y-94200000D03*
%TD*%
%TO.C,REF\u002A\u002A*%
X38065765Y-56100000D03*
%TD*%
%TO.C,REF\u002A\u002A*%
X73729255Y-27840601D03*
%TD*%
%TO.C,REF\u002A\u002A*%
X87765765Y-47400000D03*
%TD*%
%TO.C,REF\u002A\u002A*%
X104331530Y-47400000D03*
%TD*%
%TO.C,REF\u002A\u002A*%
X24000000Y-21000000D03*
%TD*%
%TO.C,REF\u002A\u002A*%
X125968723Y-24000000D03*
%TD*%
%TO.C,REF\u002A\u002A*%
X24029255Y-87359398D03*
%TD*%
%TO.C,REF\u002A\u002A*%
X70668040Y-109740601D03*
%TD*%
D24*
%TO.C,MH2*%
X78048648Y-42450000D03*
X80448648Y-40050000D03*
X79745704Y-41747056D03*
X76351592Y-38352944D03*
X79745704Y-38352944D03*
X78048648Y-37650000D03*
X75648648Y-40050000D03*
X76351592Y-41747056D03*
D25*
X78048648Y-40050000D03*
%TD*%
D23*
%TO.C,REF\u002A\u002A*%
X89765765Y-24000000D03*
%TD*%
%TO.C,REF\u002A\u002A*%
X120130427Y-88350000D03*
%TD*%
%TO.C,REF\u002A\u002A*%
X105331530Y-79500000D03*
%TD*%
%TO.C,REF\u002A\u002A*%
X87765765Y-94200000D03*
%TD*%
%TO.C,REF\u002A\u002A*%
X39065765Y-105900000D03*
%TD*%
%TO.C,REF\u002A\u002A*%
X19285714Y-24000000D03*
%TD*%
%TO.C,REF\u002A\u002A*%
X24266868Y-53250000D03*
%TD*%
%TO.C,REF\u002A\u002A*%
X38065765Y-102900000D03*
%TD*%
%TO.C,REF\u002A\u002A*%
X120368040Y-109740601D03*
%TD*%
%TO.C,REF\u002A\u002A*%
X106331530Y-105900000D03*
%TD*%
%TO.C,REF\u002A\u002A*%
X39065765Y-59100000D03*
%TD*%
%TO.C,REF\u002A\u002A*%
X120397295Y-17571428D03*
%TD*%
%TO.C,REF\u002A\u002A*%
X73729255Y-87359398D03*
%TD*%
%TO.C,REF\u002A\u002A*%
X24000000Y-118457142D03*
%TD*%
%TO.C,REF\u002A\u002A*%
X24029255Y-62940601D03*
%TD*%
%TO.C,REF\u002A\u002A*%
X54631530Y-70800000D03*
%TD*%
%TO.C,REF\u002A\u002A*%
X106331530Y-44400000D03*
%TD*%
%TO.C,REF\u002A\u002A*%
X90765765Y-35700000D03*
%TD*%
%TO.C,REF\u002A\u002A*%
X24029255Y-86340601D03*
%TD*%
%TO.C,REF\u002A\u002A*%
X24266868Y-41550000D03*
%TD*%
%TO.C,REF\u002A\u002A*%
X106331530Y-56100000D03*
%TD*%
%TO.C,REF\u002A\u002A*%
X38065765Y-44400000D03*
%TD*%
%TO.C,REF\u002A\u002A*%
X24000000Y-15000000D03*
%TD*%
%TO.C,REF\u002A\u002A*%
X24266868Y-26850000D03*
%TD*%
%TO.C,REF\u002A\u002A*%
X56631530Y-114600000D03*
%TD*%
%TO.C,REF\u002A\u002A*%
X120397295Y-120171428D03*
%TD*%
%TO.C,REF\u002A\u002A*%
X87765765Y-114600000D03*
%TD*%
%TO.C,REF\u002A\u002A*%
X89765765Y-82500000D03*
%TD*%
%TO.C,REF\u002A\u002A*%
X53631530Y-44400000D03*
%TD*%
%TO.C,REF\u002A\u002A*%
X105331530Y-59100000D03*
%TD*%
D24*
%TO.C,MH1*%
X64651592Y-76847056D03*
X64651592Y-73452944D03*
X68045704Y-76847056D03*
D25*
X66348648Y-75150000D03*
D24*
X68045704Y-73452944D03*
X66348648Y-72750000D03*
X66348648Y-77550000D03*
X63948648Y-75150000D03*
X68748648Y-75150000D03*
%TD*%
D23*
%TO.C,REF\u002A\u002A*%
X55631530Y-24000000D03*
%TD*%
%TO.C,REF\u002A\u002A*%
X87765765Y-79500000D03*
%TD*%
%TO.C,REF\u002A\u002A*%
X39065765Y-70800000D03*
%TD*%
%TO.C,REF\u002A\u002A*%
X103331530Y-102900000D03*
%TD*%
%TO.C,REF\u002A\u002A*%
X39065765Y-91200000D03*
%TD*%
%TO.C,REF\u002A\u002A*%
X53631530Y-105900000D03*
%TD*%
%TO.C,REF\u002A\u002A*%
X55631530Y-91200000D03*
%TD*%
%TO.C,REF\u002A\u002A*%
X53631530Y-32700000D03*
%TD*%
%TO.C,REF\u002A\u002A*%
X56631530Y-82500000D03*
%TD*%
%TO.C,REF\u002A\u002A*%
X39065765Y-35700000D03*
%TD*%
%TO.C,REF\u002A\u002A*%
X88765765Y-94200000D03*
%TD*%
%TO.C,REF\u002A\u002A*%
X73966868Y-73650000D03*
%TD*%
%TO.C,REF\u002A\u002A*%
X106331530Y-70800000D03*
%TD*%
%TO.C,REF\u002A\u002A*%
X126825866Y-114600000D03*
%TD*%
M02*
