%TF.GenerationSoftware,KiCad,Pcbnew,(6.0.5)*%
%TF.CreationDate,2022-06-04T14:03:13+08:00*%
%TF.ProjectId,panel,70616e65-6c2e-46b6-9963-61645f706362,rev?*%
%TF.SameCoordinates,Original*%
%TF.FileFunction,Soldermask,Bot*%
%TF.FilePolarity,Negative*%
%FSLAX46Y46*%
G04 Gerber Fmt 4.6, Leading zero omitted, Abs format (unit mm)*
G04 Created by KiCad (PCBNEW (6.0.5)) date 2022-06-04 14:03:13*
%MOMM*%
%LPD*%
G01*
G04 APERTURE LIST*
G04 Aperture macros list*
%AMRoundRect*
0 Rectangle with rounded corners*
0 $1 Rounding radius*
0 $2 $3 $4 $5 $6 $7 $8 $9 X,Y pos of 4 corners*
0 Add a 4 corners polygon primitive as box body*
4,1,4,$2,$3,$4,$5,$6,$7,$8,$9,$2,$3,0*
0 Add four circle primitives for the rounded corners*
1,1,$1+$1,$2,$3*
1,1,$1+$1,$4,$5*
1,1,$1+$1,$6,$7*
1,1,$1+$1,$8,$9*
0 Add four rect primitives between the rounded corners*
20,1,$1+$1,$2,$3,$4,$5,0*
20,1,$1+$1,$4,$5,$6,$7,0*
20,1,$1+$1,$6,$7,$8,$9,0*
20,1,$1+$1,$8,$9,$2,$3,0*%
G04 Aperture macros list end*
%ADD10C,0.100000*%
%ADD11C,0.650000*%
%ADD12R,0.575000X1.450000*%
%ADD13R,0.300000X1.450000*%
%ADD14O,1.200000X2.300000*%
%ADD15O,1.200000X1.800000*%
%ADD16RoundRect,0.225000X-0.250000X0.225000X-0.250000X-0.225000X0.250000X-0.225000X0.250000X0.225000X0*%
%ADD17RoundRect,0.200000X0.275000X-0.200000X0.275000X0.200000X-0.275000X0.200000X-0.275000X-0.200000X0*%
%ADD18RoundRect,0.249999X-0.450001X0.262501X-0.450001X-0.262501X0.450001X-0.262501X0.450001X0.262501X0*%
%ADD19R,0.600000X1.550000*%
%ADD20R,1.200000X1.800000*%
%ADD21C,0.500000*%
%ADD22C,0.800000*%
%ADD23C,6.400000*%
G04 APERTURE END LIST*
%TO.C,G1*%
G36*
X54599152Y-76080190D02*
G01*
X51424144Y-76080190D01*
X51424144Y-74095810D01*
X54599152Y-74095810D01*
X54599152Y-76080190D01*
G37*
D10*
X54599152Y-76080190D02*
X51424144Y-76080190D01*
X51424144Y-74095810D01*
X54599152Y-74095810D01*
X54599152Y-76080190D01*
G36*
X104299152Y-29280190D02*
G01*
X101124144Y-29280190D01*
X101124144Y-27295810D01*
X104299152Y-27295810D01*
X104299152Y-29280190D01*
G37*
X104299152Y-29280190D02*
X101124144Y-29280190D01*
X101124144Y-27295810D01*
X104299152Y-27295810D01*
X104299152Y-29280190D01*
G36*
X104299152Y-76080190D02*
G01*
X101124144Y-76080190D01*
X101124144Y-74095810D01*
X104299152Y-74095810D01*
X104299152Y-76080190D01*
G37*
X104299152Y-76080190D02*
X101124144Y-76080190D01*
X101124144Y-74095810D01*
X104299152Y-74095810D01*
X104299152Y-76080190D01*
G36*
X104299152Y-40980190D02*
G01*
X101124144Y-40980190D01*
X101124144Y-38995810D01*
X104299152Y-38995810D01*
X104299152Y-40980190D01*
G37*
X104299152Y-40980190D02*
X101124144Y-40980190D01*
X101124144Y-38995810D01*
X104299152Y-38995810D01*
X104299152Y-40980190D01*
G36*
X104299152Y-64380190D02*
G01*
X101124144Y-64380190D01*
X101124144Y-62395810D01*
X104299152Y-62395810D01*
X104299152Y-64380190D01*
G37*
X104299152Y-64380190D02*
X101124144Y-64380190D01*
X101124144Y-62395810D01*
X104299152Y-62395810D01*
X104299152Y-64380190D01*
G36*
X54599152Y-29280190D02*
G01*
X51424144Y-29280190D01*
X51424144Y-27295810D01*
X54599152Y-27295810D01*
X54599152Y-29280190D01*
G37*
X54599152Y-29280190D02*
X51424144Y-29280190D01*
X51424144Y-27295810D01*
X54599152Y-27295810D01*
X54599152Y-29280190D01*
G36*
X54599152Y-111180190D02*
G01*
X51424144Y-111180190D01*
X51424144Y-109195810D01*
X54599152Y-109195810D01*
X54599152Y-111180190D01*
G37*
X54599152Y-111180190D02*
X51424144Y-111180190D01*
X51424144Y-109195810D01*
X54599152Y-109195810D01*
X54599152Y-111180190D01*
G36*
X54599152Y-64380190D02*
G01*
X51424144Y-64380190D01*
X51424144Y-62395810D01*
X54599152Y-62395810D01*
X54599152Y-64380190D01*
G37*
X54599152Y-64380190D02*
X51424144Y-64380190D01*
X51424144Y-62395810D01*
X54599152Y-62395810D01*
X54599152Y-64380190D01*
G36*
X54599152Y-99480190D02*
G01*
X51424144Y-99480190D01*
X51424144Y-97495810D01*
X54599152Y-97495810D01*
X54599152Y-99480190D01*
G37*
X54599152Y-99480190D02*
X51424144Y-99480190D01*
X51424144Y-97495810D01*
X54599152Y-97495810D01*
X54599152Y-99480190D01*
G36*
X54599152Y-87780190D02*
G01*
X51424144Y-87780190D01*
X51424144Y-85795810D01*
X54599152Y-85795810D01*
X54599152Y-87780190D01*
G37*
X54599152Y-87780190D02*
X51424144Y-87780190D01*
X51424144Y-85795810D01*
X54599152Y-85795810D01*
X54599152Y-87780190D01*
G36*
X104299152Y-52680190D02*
G01*
X101124144Y-52680190D01*
X101124144Y-50695810D01*
X104299152Y-50695810D01*
X104299152Y-52680190D01*
G37*
X104299152Y-52680190D02*
X101124144Y-52680190D01*
X101124144Y-50695810D01*
X104299152Y-50695810D01*
X104299152Y-52680190D01*
G36*
X104299152Y-99480190D02*
G01*
X101124144Y-99480190D01*
X101124144Y-97495810D01*
X104299152Y-97495810D01*
X104299152Y-99480190D01*
G37*
X104299152Y-99480190D02*
X101124144Y-99480190D01*
X101124144Y-97495810D01*
X104299152Y-97495810D01*
X104299152Y-99480190D01*
G36*
X104299152Y-87780190D02*
G01*
X101124144Y-87780190D01*
X101124144Y-85795810D01*
X104299152Y-85795810D01*
X104299152Y-87780190D01*
G37*
X104299152Y-87780190D02*
X101124144Y-87780190D01*
X101124144Y-85795810D01*
X104299152Y-85795810D01*
X104299152Y-87780190D01*
G36*
X54599152Y-40980190D02*
G01*
X51424144Y-40980190D01*
X51424144Y-38995810D01*
X54599152Y-38995810D01*
X54599152Y-40980190D01*
G37*
X54599152Y-40980190D02*
X51424144Y-40980190D01*
X51424144Y-38995810D01*
X54599152Y-38995810D01*
X54599152Y-40980190D01*
G36*
X104299152Y-111180190D02*
G01*
X101124144Y-111180190D01*
X101124144Y-109195810D01*
X104299152Y-109195810D01*
X104299152Y-111180190D01*
G37*
X104299152Y-111180190D02*
X101124144Y-111180190D01*
X101124144Y-109195810D01*
X104299152Y-109195810D01*
X104299152Y-111180190D01*
G36*
X54599152Y-52680190D02*
G01*
X51424144Y-52680190D01*
X51424144Y-50695810D01*
X54599152Y-50695810D01*
X54599152Y-52680190D01*
G37*
X54599152Y-52680190D02*
X51424144Y-52680190D01*
X51424144Y-50695810D01*
X54599152Y-50695810D01*
X54599152Y-52680190D01*
%TD*%
D11*
%TO.C,J1*%
X92158648Y-109650000D03*
X97938648Y-109650000D03*
D12*
X98273648Y-108205000D03*
X97498648Y-108205000D03*
D13*
X96798648Y-108205000D03*
X96298648Y-108205000D03*
X95798648Y-108205000D03*
X95298648Y-108205000D03*
X94798648Y-108205000D03*
X94298648Y-108205000D03*
X93798648Y-108205000D03*
X93298648Y-108205000D03*
D12*
X92598648Y-108205000D03*
X91823648Y-108205000D03*
D14*
X99368648Y-109120000D03*
X90728648Y-109120000D03*
D15*
X90728648Y-113300000D03*
X99368648Y-113300000D03*
%TD*%
D11*
%TO.C,J1*%
X42458648Y-109650000D03*
X48238648Y-109650000D03*
D12*
X48573648Y-108205000D03*
X47798648Y-108205000D03*
D13*
X47098648Y-108205000D03*
X46598648Y-108205000D03*
X46098648Y-108205000D03*
X45598648Y-108205000D03*
X45098648Y-108205000D03*
X44598648Y-108205000D03*
X44098648Y-108205000D03*
X43598648Y-108205000D03*
D12*
X42898648Y-108205000D03*
X42123648Y-108205000D03*
D14*
X49668648Y-109120000D03*
X41028648Y-109120000D03*
D15*
X41028648Y-113300000D03*
X49668648Y-113300000D03*
%TD*%
D11*
%TO.C,J1*%
X92158648Y-97950000D03*
X97938648Y-97950000D03*
D12*
X98273648Y-96505000D03*
X97498648Y-96505000D03*
D13*
X96798648Y-96505000D03*
X96298648Y-96505000D03*
X95798648Y-96505000D03*
X95298648Y-96505000D03*
X94798648Y-96505000D03*
X94298648Y-96505000D03*
X93798648Y-96505000D03*
X93298648Y-96505000D03*
D12*
X92598648Y-96505000D03*
X91823648Y-96505000D03*
D14*
X99368648Y-97420000D03*
X90728648Y-97420000D03*
D15*
X90728648Y-101600000D03*
X99368648Y-101600000D03*
%TD*%
D11*
%TO.C,J1*%
X42458648Y-97950000D03*
X48238648Y-97950000D03*
D12*
X48573648Y-96505000D03*
X47798648Y-96505000D03*
D13*
X47098648Y-96505000D03*
X46598648Y-96505000D03*
X46098648Y-96505000D03*
X45598648Y-96505000D03*
X45098648Y-96505000D03*
X44598648Y-96505000D03*
X44098648Y-96505000D03*
X43598648Y-96505000D03*
D12*
X42898648Y-96505000D03*
X42123648Y-96505000D03*
D14*
X49668648Y-97420000D03*
X41028648Y-97420000D03*
D15*
X41028648Y-101600000D03*
X49668648Y-101600000D03*
%TD*%
D11*
%TO.C,J1*%
X92158648Y-86250000D03*
X97938648Y-86250000D03*
D12*
X98273648Y-84805000D03*
X97498648Y-84805000D03*
D13*
X96798648Y-84805000D03*
X96298648Y-84805000D03*
X95798648Y-84805000D03*
X95298648Y-84805000D03*
X94798648Y-84805000D03*
X94298648Y-84805000D03*
X93798648Y-84805000D03*
X93298648Y-84805000D03*
D12*
X92598648Y-84805000D03*
X91823648Y-84805000D03*
D14*
X99368648Y-85720000D03*
X90728648Y-85720000D03*
D15*
X90728648Y-89900000D03*
X99368648Y-89900000D03*
%TD*%
D11*
%TO.C,J1*%
X42458648Y-86250000D03*
X48238648Y-86250000D03*
D12*
X48573648Y-84805000D03*
X47798648Y-84805000D03*
D13*
X47098648Y-84805000D03*
X46598648Y-84805000D03*
X46098648Y-84805000D03*
X45598648Y-84805000D03*
X45098648Y-84805000D03*
X44598648Y-84805000D03*
X44098648Y-84805000D03*
X43598648Y-84805000D03*
D12*
X42898648Y-84805000D03*
X42123648Y-84805000D03*
D14*
X49668648Y-85720000D03*
X41028648Y-85720000D03*
D15*
X41028648Y-89900000D03*
X49668648Y-89900000D03*
%TD*%
D11*
%TO.C,J1*%
X92158648Y-74550000D03*
X97938648Y-74550000D03*
D12*
X98273648Y-73105000D03*
X97498648Y-73105000D03*
D13*
X96798648Y-73105000D03*
X96298648Y-73105000D03*
X95798648Y-73105000D03*
X95298648Y-73105000D03*
X94798648Y-73105000D03*
X94298648Y-73105000D03*
X93798648Y-73105000D03*
X93298648Y-73105000D03*
D12*
X92598648Y-73105000D03*
X91823648Y-73105000D03*
D14*
X99368648Y-74020000D03*
X90728648Y-74020000D03*
D15*
X90728648Y-78200000D03*
X99368648Y-78200000D03*
%TD*%
D11*
%TO.C,J1*%
X42458648Y-74550000D03*
X48238648Y-74550000D03*
D12*
X48573648Y-73105000D03*
X47798648Y-73105000D03*
D13*
X47098648Y-73105000D03*
X46598648Y-73105000D03*
X46098648Y-73105000D03*
X45598648Y-73105000D03*
X45098648Y-73105000D03*
X44598648Y-73105000D03*
X44098648Y-73105000D03*
X43598648Y-73105000D03*
D12*
X42898648Y-73105000D03*
X42123648Y-73105000D03*
D14*
X49668648Y-74020000D03*
X41028648Y-74020000D03*
D15*
X41028648Y-78200000D03*
X49668648Y-78200000D03*
%TD*%
D11*
%TO.C,J1*%
X92158648Y-62850000D03*
X97938648Y-62850000D03*
D12*
X98273648Y-61405000D03*
X97498648Y-61405000D03*
D13*
X96798648Y-61405000D03*
X96298648Y-61405000D03*
X95798648Y-61405000D03*
X95298648Y-61405000D03*
X94798648Y-61405000D03*
X94298648Y-61405000D03*
X93798648Y-61405000D03*
X93298648Y-61405000D03*
D12*
X92598648Y-61405000D03*
X91823648Y-61405000D03*
D14*
X99368648Y-62320000D03*
X90728648Y-62320000D03*
D15*
X90728648Y-66500000D03*
X99368648Y-66500000D03*
%TD*%
D11*
%TO.C,J1*%
X42458648Y-62850000D03*
X48238648Y-62850000D03*
D12*
X48573648Y-61405000D03*
X47798648Y-61405000D03*
D13*
X47098648Y-61405000D03*
X46598648Y-61405000D03*
X46098648Y-61405000D03*
X45598648Y-61405000D03*
X45098648Y-61405000D03*
X44598648Y-61405000D03*
X44098648Y-61405000D03*
X43598648Y-61405000D03*
D12*
X42898648Y-61405000D03*
X42123648Y-61405000D03*
D14*
X49668648Y-62320000D03*
X41028648Y-62320000D03*
D15*
X41028648Y-66500000D03*
X49668648Y-66500000D03*
%TD*%
D11*
%TO.C,J1*%
X92158648Y-51150000D03*
X97938648Y-51150000D03*
D12*
X98273648Y-49705000D03*
X97498648Y-49705000D03*
D13*
X96798648Y-49705000D03*
X96298648Y-49705000D03*
X95798648Y-49705000D03*
X95298648Y-49705000D03*
X94798648Y-49705000D03*
X94298648Y-49705000D03*
X93798648Y-49705000D03*
X93298648Y-49705000D03*
D12*
X92598648Y-49705000D03*
X91823648Y-49705000D03*
D14*
X99368648Y-50620000D03*
X90728648Y-50620000D03*
D15*
X90728648Y-54800000D03*
X99368648Y-54800000D03*
%TD*%
D11*
%TO.C,J1*%
X42458648Y-51150000D03*
X48238648Y-51150000D03*
D12*
X48573648Y-49705000D03*
X47798648Y-49705000D03*
D13*
X47098648Y-49705000D03*
X46598648Y-49705000D03*
X46098648Y-49705000D03*
X45598648Y-49705000D03*
X45098648Y-49705000D03*
X44598648Y-49705000D03*
X44098648Y-49705000D03*
X43598648Y-49705000D03*
D12*
X42898648Y-49705000D03*
X42123648Y-49705000D03*
D14*
X49668648Y-50620000D03*
X41028648Y-50620000D03*
D15*
X41028648Y-54800000D03*
X49668648Y-54800000D03*
%TD*%
D11*
%TO.C,J1*%
X92158648Y-39450000D03*
X97938648Y-39450000D03*
D12*
X98273648Y-38005000D03*
X97498648Y-38005000D03*
D13*
X96798648Y-38005000D03*
X96298648Y-38005000D03*
X95798648Y-38005000D03*
X95298648Y-38005000D03*
X94798648Y-38005000D03*
X94298648Y-38005000D03*
X93798648Y-38005000D03*
X93298648Y-38005000D03*
D12*
X92598648Y-38005000D03*
X91823648Y-38005000D03*
D14*
X99368648Y-38920000D03*
X90728648Y-38920000D03*
D15*
X90728648Y-43100000D03*
X99368648Y-43100000D03*
%TD*%
D11*
%TO.C,J1*%
X42458648Y-39450000D03*
X48238648Y-39450000D03*
D12*
X48573648Y-38005000D03*
X47798648Y-38005000D03*
D13*
X47098648Y-38005000D03*
X46598648Y-38005000D03*
X46098648Y-38005000D03*
X45598648Y-38005000D03*
X45098648Y-38005000D03*
X44598648Y-38005000D03*
X44098648Y-38005000D03*
X43598648Y-38005000D03*
D12*
X42898648Y-38005000D03*
X42123648Y-38005000D03*
D14*
X49668648Y-38920000D03*
X41028648Y-38920000D03*
D15*
X41028648Y-43100000D03*
X49668648Y-43100000D03*
%TD*%
D11*
%TO.C,J1*%
X92158648Y-27750000D03*
X97938648Y-27750000D03*
D12*
X98273648Y-26305000D03*
X97498648Y-26305000D03*
D13*
X96798648Y-26305000D03*
X96298648Y-26305000D03*
X95798648Y-26305000D03*
X95298648Y-26305000D03*
X94798648Y-26305000D03*
X94298648Y-26305000D03*
X93798648Y-26305000D03*
X93298648Y-26305000D03*
D12*
X92598648Y-26305000D03*
X91823648Y-26305000D03*
D14*
X99368648Y-27220000D03*
X90728648Y-27220000D03*
D15*
X90728648Y-31400000D03*
X99368648Y-31400000D03*
%TD*%
%TO.C,J1*%
X49668648Y-31400000D03*
X41028648Y-31400000D03*
D14*
X41028648Y-27220000D03*
X49668648Y-27220000D03*
D12*
X42123648Y-26305000D03*
X42898648Y-26305000D03*
D13*
X43598648Y-26305000D03*
X44098648Y-26305000D03*
X44598648Y-26305000D03*
X45098648Y-26305000D03*
X45598648Y-26305000D03*
X46098648Y-26305000D03*
X46598648Y-26305000D03*
X47098648Y-26305000D03*
D12*
X47798648Y-26305000D03*
X48573648Y-26305000D03*
D11*
X48238648Y-27750000D03*
X42458648Y-27750000D03*
%TD*%
D16*
%TO.C,C1*%
X82648648Y-63525000D03*
X82648648Y-65075000D03*
%TD*%
D17*
%TO.C,R1*%
X86648648Y-76625000D03*
X86648648Y-74975000D03*
%TD*%
D16*
%TO.C,C1*%
X32948648Y-110325000D03*
X32948648Y-111875000D03*
%TD*%
%TO.C,C1*%
X32948648Y-98625000D03*
X32948648Y-100175000D03*
%TD*%
D17*
%TO.C,R2*%
X38748648Y-76625000D03*
X38748648Y-74975000D03*
%TD*%
D16*
%TO.C,C1*%
X82648648Y-98625000D03*
X82648648Y-100175000D03*
%TD*%
D18*
%TO.C,R3*%
X34948648Y-51687500D03*
X34948648Y-53512500D03*
%TD*%
%TO.C,R3*%
X34948648Y-75087500D03*
X34948648Y-76912500D03*
%TD*%
%TO.C,R3*%
X34948648Y-63387500D03*
X34948648Y-65212500D03*
%TD*%
D19*
%TO.C,J2*%
X107148648Y-112675000D03*
X108148648Y-112675000D03*
X109148648Y-112675000D03*
X110148648Y-112675000D03*
D20*
X105848648Y-108800000D03*
X111448648Y-108800000D03*
%TD*%
D17*
%TO.C,R2*%
X88448648Y-100025000D03*
X88448648Y-98375000D03*
%TD*%
D18*
%TO.C,R3*%
X34948648Y-98487500D03*
X34948648Y-100312500D03*
%TD*%
D17*
%TO.C,R2*%
X38748648Y-64925000D03*
X38748648Y-63275000D03*
%TD*%
%TO.C,R2*%
X88448648Y-53225000D03*
X88448648Y-51575000D03*
%TD*%
D18*
%TO.C,R3*%
X84648648Y-98487500D03*
X84648648Y-100312500D03*
%TD*%
D17*
%TO.C,R2*%
X38748648Y-100025000D03*
X38748648Y-98375000D03*
%TD*%
D16*
%TO.C,C1*%
X32948648Y-51825000D03*
X32948648Y-53375000D03*
%TD*%
%TO.C,C1*%
X82648648Y-40125000D03*
X82648648Y-41675000D03*
%TD*%
D18*
%TO.C,R3*%
X84648648Y-51687500D03*
X84648648Y-53512500D03*
%TD*%
D19*
%TO.C,J2*%
X57448648Y-54175000D03*
X58448648Y-54175000D03*
X59448648Y-54175000D03*
X60448648Y-54175000D03*
D20*
X56148648Y-50300000D03*
X61748648Y-50300000D03*
%TD*%
D16*
%TO.C,C1*%
X82648648Y-51825000D03*
X82648648Y-53375000D03*
%TD*%
D19*
%TO.C,J2*%
X107148648Y-89275000D03*
X108148648Y-89275000D03*
X109148648Y-89275000D03*
X110148648Y-89275000D03*
D20*
X105848648Y-85400000D03*
X111448648Y-85400000D03*
%TD*%
D19*
%TO.C,J2*%
X57448648Y-89275000D03*
X58448648Y-89275000D03*
X59448648Y-89275000D03*
X60448648Y-89275000D03*
D20*
X56148648Y-85400000D03*
X61748648Y-85400000D03*
%TD*%
D18*
%TO.C,R3*%
X84648648Y-86787500D03*
X84648648Y-88612500D03*
%TD*%
D17*
%TO.C,R2*%
X38748648Y-88325000D03*
X38748648Y-86675000D03*
%TD*%
D18*
%TO.C,R3*%
X84648648Y-28287500D03*
X84648648Y-30112500D03*
%TD*%
D17*
%TO.C,R1*%
X86648648Y-100025000D03*
X86648648Y-98375000D03*
%TD*%
%TO.C,R2*%
X88448648Y-76625000D03*
X88448648Y-74975000D03*
%TD*%
D19*
%TO.C,J2*%
X57448648Y-42475000D03*
X58448648Y-42475000D03*
X59448648Y-42475000D03*
X60448648Y-42475000D03*
D20*
X61748648Y-38600000D03*
X56148648Y-38600000D03*
%TD*%
D17*
%TO.C,R1*%
X86648648Y-41525000D03*
X86648648Y-39875000D03*
%TD*%
%TO.C,R2*%
X88448648Y-41525000D03*
X88448648Y-39875000D03*
%TD*%
D19*
%TO.C,J2*%
X57448648Y-100975000D03*
X58448648Y-100975000D03*
X59448648Y-100975000D03*
X60448648Y-100975000D03*
D20*
X56148648Y-97100000D03*
X61748648Y-97100000D03*
%TD*%
D18*
%TO.C,R3*%
X84648648Y-75087500D03*
X84648648Y-76912500D03*
%TD*%
D17*
%TO.C,R1*%
X86648648Y-53225000D03*
X86648648Y-51575000D03*
%TD*%
D19*
%TO.C,J2*%
X107148648Y-42475000D03*
X108148648Y-42475000D03*
X109148648Y-42475000D03*
X110148648Y-42475000D03*
D20*
X111448648Y-38600000D03*
X105848648Y-38600000D03*
%TD*%
D17*
%TO.C,R2*%
X38748648Y-29825000D03*
X38748648Y-28175000D03*
%TD*%
%TO.C,R2*%
X88448648Y-111725000D03*
X88448648Y-110075000D03*
%TD*%
D19*
%TO.C,J2*%
X57448648Y-77575000D03*
X58448648Y-77575000D03*
X59448648Y-77575000D03*
X60448648Y-77575000D03*
D20*
X56148648Y-73700000D03*
X61748648Y-73700000D03*
%TD*%
D17*
%TO.C,R1*%
X86648648Y-111725000D03*
X86648648Y-110075000D03*
%TD*%
%TO.C,R1*%
X36948648Y-88325000D03*
X36948648Y-86675000D03*
%TD*%
%TO.C,R1*%
X86648648Y-64925000D03*
X86648648Y-63275000D03*
%TD*%
%TO.C,R1*%
X36948648Y-53225000D03*
X36948648Y-51575000D03*
%TD*%
%TO.C,R1*%
X36948648Y-100025000D03*
X36948648Y-98375000D03*
%TD*%
D18*
%TO.C,R3*%
X34948648Y-86787500D03*
X34948648Y-88612500D03*
%TD*%
D17*
%TO.C,R1*%
X36948648Y-76625000D03*
X36948648Y-74975000D03*
%TD*%
D19*
%TO.C,J2*%
X107148648Y-30775000D03*
X108148648Y-30775000D03*
X109148648Y-30775000D03*
X110148648Y-30775000D03*
D20*
X105848648Y-26900000D03*
X111448648Y-26900000D03*
%TD*%
D18*
%TO.C,R3*%
X84648648Y-110187500D03*
X84648648Y-112012500D03*
%TD*%
%TO.C,R3*%
X34948648Y-28287500D03*
X34948648Y-30112500D03*
%TD*%
%TO.C,R3*%
X84648648Y-39987500D03*
X84648648Y-41812500D03*
%TD*%
%TO.C,R3*%
X34948648Y-39987500D03*
X34948648Y-41812500D03*
%TD*%
D16*
%TO.C,C1*%
X32948648Y-63525000D03*
X32948648Y-65075000D03*
%TD*%
D19*
%TO.C,J2*%
X57448648Y-30775000D03*
X58448648Y-30775000D03*
X59448648Y-30775000D03*
X60448648Y-30775000D03*
D20*
X56148648Y-26900000D03*
X61748648Y-26900000D03*
%TD*%
D16*
%TO.C,C1*%
X32948648Y-86925000D03*
X32948648Y-88475000D03*
%TD*%
D18*
%TO.C,R3*%
X84648648Y-63387500D03*
X84648648Y-65212500D03*
%TD*%
D17*
%TO.C,R2*%
X38748648Y-41525000D03*
X38748648Y-39875000D03*
%TD*%
D16*
%TO.C,C1*%
X32948648Y-28425000D03*
X32948648Y-29975000D03*
%TD*%
D18*
%TO.C,R3*%
X34948648Y-110187500D03*
X34948648Y-112012500D03*
%TD*%
D17*
%TO.C,R1*%
X86648648Y-88325000D03*
X86648648Y-86675000D03*
%TD*%
%TO.C,R1*%
X36948648Y-41525000D03*
X36948648Y-39875000D03*
%TD*%
%TO.C,R2*%
X38748648Y-53225000D03*
X38748648Y-51575000D03*
%TD*%
D19*
%TO.C,J2*%
X107148648Y-77575000D03*
X108148648Y-77575000D03*
X109148648Y-77575000D03*
X110148648Y-77575000D03*
D20*
X111448648Y-73700000D03*
X105848648Y-73700000D03*
%TD*%
D17*
%TO.C,R1*%
X36948648Y-64925000D03*
X36948648Y-63275000D03*
%TD*%
D16*
%TO.C,C1*%
X82648648Y-86925000D03*
X82648648Y-88475000D03*
%TD*%
D17*
%TO.C,R1*%
X86648648Y-29825000D03*
X86648648Y-28175000D03*
%TD*%
%TO.C,R1*%
X36948648Y-29825000D03*
X36948648Y-28175000D03*
%TD*%
%TO.C,R2*%
X88448648Y-88325000D03*
X88448648Y-86675000D03*
%TD*%
D16*
%TO.C,C1*%
X82648648Y-110325000D03*
X82648648Y-111875000D03*
%TD*%
D19*
%TO.C,J2*%
X107148648Y-100975000D03*
X108148648Y-100975000D03*
X109148648Y-100975000D03*
X110148648Y-100975000D03*
D20*
X111448648Y-97100000D03*
X105848648Y-97100000D03*
%TD*%
D17*
%TO.C,R2*%
X38748648Y-111725000D03*
X38748648Y-110075000D03*
%TD*%
%TO.C,R1*%
X36948648Y-111725000D03*
X36948648Y-110075000D03*
%TD*%
D19*
%TO.C,J2*%
X107148648Y-65875000D03*
X108148648Y-65875000D03*
X109148648Y-65875000D03*
X110148648Y-65875000D03*
D20*
X105848648Y-62000000D03*
X111448648Y-62000000D03*
%TD*%
D16*
%TO.C,C1*%
X82648648Y-75225000D03*
X82648648Y-76775000D03*
%TD*%
D17*
%TO.C,R2*%
X88448648Y-64925000D03*
X88448648Y-63275000D03*
%TD*%
D19*
%TO.C,J2*%
X107148648Y-54175000D03*
X108148648Y-54175000D03*
X109148648Y-54175000D03*
X110148648Y-54175000D03*
D20*
X105848648Y-50300000D03*
X111448648Y-50300000D03*
%TD*%
D19*
%TO.C,J2*%
X57448648Y-65875000D03*
X58448648Y-65875000D03*
X59448648Y-65875000D03*
X60448648Y-65875000D03*
D20*
X56148648Y-62000000D03*
X61748648Y-62000000D03*
%TD*%
D16*
%TO.C,C1*%
X82648648Y-28425000D03*
X82648648Y-29975000D03*
%TD*%
D19*
%TO.C,J2*%
X57448648Y-112675000D03*
X58448648Y-112675000D03*
X59448648Y-112675000D03*
X60448648Y-112675000D03*
D20*
X61748648Y-108800000D03*
X56148648Y-108800000D03*
%TD*%
D16*
%TO.C,C1*%
X32948648Y-75225000D03*
X32948648Y-76775000D03*
%TD*%
%TO.C,C1*%
X32948648Y-40125000D03*
X32948648Y-41675000D03*
%TD*%
D17*
%TO.C,R2*%
X88448648Y-29825000D03*
X88448648Y-28175000D03*
%TD*%
D21*
%TO.C,REF\u002A\u002A*%
X24029255Y-52259398D03*
%TD*%
%TO.C,REF\u002A\u002A*%
X125111580Y-24000000D03*
%TD*%
%TO.C,REF\u002A\u002A*%
X87765765Y-82500000D03*
%TD*%
%TO.C,REF\u002A\u002A*%
X104331530Y-67800000D03*
%TD*%
%TO.C,REF\u002A\u002A*%
X41065765Y-47400000D03*
%TD*%
%TO.C,REF\u002A\u002A*%
X40065765Y-32700000D03*
%TD*%
%TO.C,REF\u002A\u002A*%
X73729255Y-63959398D03*
%TD*%
%TO.C,REF\u002A\u002A*%
X24000000Y-15857142D03*
%TD*%
%TO.C,REF\u002A\u002A*%
X53631530Y-79500000D03*
%TD*%
%TO.C,REF\u002A\u002A*%
X106331530Y-32700000D03*
%TD*%
%TO.C,REF\u002A\u002A*%
X39065765Y-114600000D03*
%TD*%
%TO.C,REF\u002A\u002A*%
X103331530Y-32700000D03*
%TD*%
%TO.C,REF\u002A\u002A*%
X53631530Y-114600000D03*
%TD*%
%TO.C,REF\u002A\u002A*%
X120130427Y-73650000D03*
%TD*%
%TO.C,REF\u002A\u002A*%
X70668040Y-75659398D03*
%TD*%
%TO.C,REF\u002A\u002A*%
X54631530Y-91200000D03*
%TD*%
%TO.C,REF\u002A\u002A*%
X105331530Y-24000000D03*
%TD*%
%TO.C,REF\u002A\u002A*%
X70668040Y-99059398D03*
%TD*%
D22*
%TO.C,MH2*%
X75648648Y-110250000D03*
X79745704Y-111947056D03*
X80448648Y-110250000D03*
D23*
X78048648Y-110250000D03*
D22*
X78048648Y-112650000D03*
X78048648Y-107850000D03*
X76351592Y-108552944D03*
X76351592Y-111947056D03*
X79745704Y-108552944D03*
%TD*%
D21*
%TO.C,REF\u002A\u002A*%
X125968723Y-114600000D03*
%TD*%
%TO.C,REF\u002A\u002A*%
X18428571Y-24000000D03*
%TD*%
%TO.C,REF\u002A\u002A*%
X24266868Y-29850000D03*
%TD*%
%TO.C,REF\u002A\u002A*%
X41065765Y-32700000D03*
%TD*%
D23*
%TO.C,MH1*%
X116048648Y-63450000D03*
D22*
X116048648Y-65850000D03*
X118448648Y-63450000D03*
X114351592Y-65147056D03*
X114351592Y-61752944D03*
X117745704Y-65147056D03*
X113648648Y-63450000D03*
X116048648Y-61050000D03*
X117745704Y-61752944D03*
%TD*%
D21*
%TO.C,REF\u002A\u002A*%
X56631530Y-105900000D03*
%TD*%
%TO.C,REF\u002A\u002A*%
X120368040Y-75659398D03*
%TD*%
%TO.C,REF\u002A\u002A*%
X90765765Y-67800000D03*
%TD*%
%TO.C,REF\u002A\u002A*%
X120130427Y-50250000D03*
%TD*%
D22*
%TO.C,MH2*%
X30045704Y-73452944D03*
X30045704Y-76847056D03*
X26651592Y-76847056D03*
X28348648Y-77550000D03*
X30748648Y-75150000D03*
X28348648Y-72750000D03*
X26651592Y-73452944D03*
X25948648Y-75150000D03*
D23*
X28348648Y-75150000D03*
%TD*%
D21*
%TO.C,REF\u002A\u002A*%
X53631530Y-59100000D03*
%TD*%
%TO.C,REF\u002A\u002A*%
X70668040Y-27840601D03*
%TD*%
%TO.C,REF\u002A\u002A*%
X24000000Y-16714285D03*
%TD*%
%TO.C,REF\u002A\u002A*%
X90765765Y-105900000D03*
%TD*%
%TO.C,REF\u002A\u002A*%
X88765765Y-32700000D03*
%TD*%
%TO.C,REF\u002A\u002A*%
X70430427Y-100050000D03*
%TD*%
%TO.C,REF\u002A\u002A*%
X120368040Y-74640601D03*
%TD*%
%TO.C,REF\u002A\u002A*%
X120130427Y-111750000D03*
%TD*%
%TO.C,REF\u002A\u002A*%
X105331530Y-102900000D03*
%TD*%
D22*
%TO.C,MH2*%
X78048648Y-49350000D03*
X79745704Y-53447056D03*
X75648648Y-51750000D03*
X76351592Y-50052944D03*
X80448648Y-51750000D03*
X79745704Y-50052944D03*
X76351592Y-53447056D03*
D23*
X78048648Y-51750000D03*
D22*
X78048648Y-54150000D03*
%TD*%
D21*
%TO.C,REF\u002A\u002A*%
X56631530Y-32700000D03*
%TD*%
%TO.C,REF\u002A\u002A*%
X70430427Y-53250000D03*
%TD*%
%TO.C,REF\u002A\u002A*%
X40065765Y-56100000D03*
%TD*%
D22*
%TO.C,MH1*%
X66348648Y-61050000D03*
D23*
X66348648Y-63450000D03*
D22*
X64651592Y-65147056D03*
X68045704Y-61752944D03*
X66348648Y-65850000D03*
X68748648Y-63450000D03*
X68045704Y-65147056D03*
X63948648Y-63450000D03*
X64651592Y-61752944D03*
%TD*%
%TO.C,MH2*%
X30748648Y-28350000D03*
X30045704Y-26652944D03*
X25948648Y-28350000D03*
X26651592Y-30047056D03*
X26651592Y-26652944D03*
X30045704Y-30047056D03*
X28348648Y-25950000D03*
D23*
X28348648Y-28350000D03*
D22*
X28348648Y-30750000D03*
%TD*%
D21*
%TO.C,REF\u002A\u002A*%
X88765765Y-35700000D03*
%TD*%
%TO.C,REF\u002A\u002A*%
X120368040Y-99059398D03*
%TD*%
D22*
%TO.C,MH1*%
X118448648Y-28350000D03*
X116048648Y-25950000D03*
X114351592Y-26652944D03*
X116048648Y-30750000D03*
X113648648Y-28350000D03*
X117745704Y-30047056D03*
X114351592Y-30047056D03*
D23*
X116048648Y-28350000D03*
D22*
X117745704Y-26652944D03*
%TD*%
%TO.C,MH1*%
X68045704Y-85152944D03*
X68045704Y-88547056D03*
D23*
X66348648Y-86850000D03*
D22*
X63948648Y-86850000D03*
X66348648Y-84450000D03*
X66348648Y-89250000D03*
X64651592Y-85152944D03*
X68748648Y-86850000D03*
X64651592Y-88547056D03*
%TD*%
D21*
%TO.C,REF\u002A\u002A*%
X40065765Y-59100000D03*
%TD*%
%TO.C,REF\u002A\u002A*%
X89765765Y-114600000D03*
%TD*%
%TO.C,REF\u002A\u002A*%
X24000000Y-18428571D03*
%TD*%
%TO.C,REF\u002A\u002A*%
X120130427Y-61950000D03*
%TD*%
%TO.C,REF\u002A\u002A*%
X24000000Y-19285714D03*
%TD*%
%TO.C,REF\u002A\u002A*%
X40065765Y-102900000D03*
%TD*%
%TO.C,REF\u002A\u002A*%
X40065765Y-82500000D03*
%TD*%
%TO.C,REF\u002A\u002A*%
X24029255Y-99059398D03*
%TD*%
%TO.C,REF\u002A\u002A*%
X38065765Y-70800000D03*
%TD*%
%TO.C,REF\u002A\u002A*%
X40065765Y-91200000D03*
%TD*%
%TO.C,REF\u002A\u002A*%
X120368040Y-40559398D03*
%TD*%
%TO.C,REF\u002A\u002A*%
X90765765Y-44400000D03*
%TD*%
%TO.C,REF\u002A\u002A*%
X73966868Y-53250000D03*
%TD*%
%TO.C,REF\u002A\u002A*%
X56631530Y-79500000D03*
%TD*%
%TO.C,REF\u002A\u002A*%
X120368040Y-110759398D03*
%TD*%
D22*
%TO.C,MH2*%
X76351592Y-96852944D03*
X75648648Y-98550000D03*
X78048648Y-96150000D03*
X79745704Y-100247056D03*
D23*
X78048648Y-98550000D03*
D22*
X79745704Y-96852944D03*
X76351592Y-100247056D03*
X78048648Y-100950000D03*
X80448648Y-98550000D03*
%TD*%
D21*
%TO.C,REF\u002A\u002A*%
X126825866Y-24000000D03*
%TD*%
%TO.C,REF\u002A\u002A*%
X73966868Y-108750000D03*
%TD*%
%TO.C,REF\u002A\u002A*%
X103331530Y-114600000D03*
%TD*%
%TO.C,REF\u002A\u002A*%
X54631530Y-94200000D03*
%TD*%
D22*
%TO.C,MH2*%
X26651592Y-85152944D03*
X30045704Y-85152944D03*
X26651592Y-88547056D03*
X30748648Y-86850000D03*
X30045704Y-88547056D03*
X25948648Y-86850000D03*
D23*
X28348648Y-86850000D03*
D22*
X28348648Y-89250000D03*
X28348648Y-84450000D03*
%TD*%
D21*
%TO.C,REF\u002A\u002A*%
X120397295Y-122742857D03*
%TD*%
%TO.C,REF\u002A\u002A*%
X104331530Y-102900000D03*
%TD*%
%TO.C,REF\u002A\u002A*%
X55631530Y-35700000D03*
%TD*%
%TO.C,REF\u002A\u002A*%
X38065765Y-114600000D03*
%TD*%
%TO.C,REF\u002A\u002A*%
X120397295Y-15857142D03*
%TD*%
%TO.C,REF\u002A\u002A*%
X56631530Y-47400000D03*
%TD*%
%TO.C,REF\u002A\u002A*%
X89765765Y-79500000D03*
%TD*%
%TO.C,REF\u002A\u002A*%
X40065765Y-44400000D03*
%TD*%
%TO.C,REF\u002A\u002A*%
X55631530Y-47400000D03*
%TD*%
D22*
%TO.C,MH2*%
X76351592Y-85152944D03*
X80448648Y-86850000D03*
X78048648Y-84450000D03*
X79745704Y-88547056D03*
X75648648Y-86850000D03*
D23*
X78048648Y-86850000D03*
D22*
X78048648Y-89250000D03*
X76351592Y-88547056D03*
X79745704Y-85152944D03*
%TD*%
D21*
%TO.C,REF\u002A\u002A*%
X87765765Y-59100000D03*
%TD*%
%TO.C,REF\u002A\u002A*%
X87765765Y-35700000D03*
%TD*%
%TO.C,REF\u002A\u002A*%
X103331530Y-35700000D03*
%TD*%
%TO.C,REF\u002A\u002A*%
X54631530Y-59100000D03*
%TD*%
%TO.C,REF\u002A\u002A*%
X24000000Y-119314285D03*
%TD*%
%TO.C,REF\u002A\u002A*%
X129397295Y-114600000D03*
%TD*%
D22*
%TO.C,MH1*%
X113648648Y-75150000D03*
X116048648Y-77550000D03*
X116048648Y-72750000D03*
X114351592Y-73452944D03*
X117745704Y-76847056D03*
D23*
X116048648Y-75150000D03*
D22*
X114351592Y-76847056D03*
X117745704Y-73452944D03*
X118448648Y-75150000D03*
%TD*%
D21*
%TO.C,REF\u002A\u002A*%
X56631530Y-24000000D03*
%TD*%
%TO.C,REF\u002A\u002A*%
X89765765Y-105900000D03*
%TD*%
D22*
%TO.C,MH2*%
X26651592Y-65147056D03*
X25948648Y-63450000D03*
X30748648Y-63450000D03*
D23*
X28348648Y-63450000D03*
D22*
X28348648Y-61050000D03*
X26651592Y-61752944D03*
X30045704Y-65147056D03*
X28348648Y-65850000D03*
X30045704Y-61752944D03*
%TD*%
D21*
%TO.C,REF\u002A\u002A*%
X90765765Y-32700000D03*
%TD*%
%TO.C,REF\u002A\u002A*%
X104331530Y-35700000D03*
%TD*%
%TO.C,REF\u002A\u002A*%
X24029255Y-51240601D03*
%TD*%
D23*
%TO.C,MH1*%
X116048648Y-110250000D03*
D22*
X117745704Y-111947056D03*
X113648648Y-110250000D03*
X116048648Y-112650000D03*
X114351592Y-111947056D03*
X116048648Y-107850000D03*
X117745704Y-108552944D03*
X114351592Y-108552944D03*
X118448648Y-110250000D03*
%TD*%
D21*
%TO.C,REF\u002A\u002A*%
X55631530Y-56100000D03*
%TD*%
%TO.C,REF\u002A\u002A*%
X90765765Y-79500000D03*
%TD*%
%TO.C,REF\u002A\u002A*%
X120397295Y-121028571D03*
%TD*%
D22*
%TO.C,MH1*%
X116048648Y-89250000D03*
X118448648Y-86850000D03*
X114351592Y-85152944D03*
X116048648Y-84450000D03*
X113648648Y-86850000D03*
X117745704Y-85152944D03*
D23*
X116048648Y-86850000D03*
D22*
X114351592Y-88547056D03*
X117745704Y-88547056D03*
%TD*%
D21*
%TO.C,REF\u002A\u002A*%
X70430427Y-85350000D03*
%TD*%
%TO.C,REF\u002A\u002A*%
X55631530Y-67800000D03*
%TD*%
%TO.C,REF\u002A\u002A*%
X120368040Y-27840601D03*
%TD*%
%TO.C,REF\u002A\u002A*%
X90765765Y-70800000D03*
%TD*%
%TO.C,REF\u002A\u002A*%
X106331530Y-59100000D03*
%TD*%
%TO.C,REF\u002A\u002A*%
X73729255Y-86340601D03*
%TD*%
%TO.C,REF\u002A\u002A*%
X120130427Y-76650000D03*
%TD*%
%TO.C,REF\u002A\u002A*%
X73729255Y-39540601D03*
%TD*%
%TO.C,REF\u002A\u002A*%
X87765765Y-102900000D03*
%TD*%
%TO.C,REF\u002A\u002A*%
X55631530Y-32700000D03*
%TD*%
%TO.C,REF\u002A\u002A*%
X106331530Y-102900000D03*
%TD*%
%TO.C,REF\u002A\u002A*%
X90765765Y-56100000D03*
%TD*%
%TO.C,REF\u002A\u002A*%
X55631530Y-102900000D03*
%TD*%
%TO.C,REF\u002A\u002A*%
X120368040Y-87359398D03*
%TD*%
%TO.C,REF\u002A\u002A*%
X73729255Y-75659398D03*
%TD*%
D22*
%TO.C,MH2*%
X28348648Y-100950000D03*
X26651592Y-100247056D03*
D23*
X28348648Y-98550000D03*
D22*
X25948648Y-98550000D03*
X26651592Y-96852944D03*
X30045704Y-100247056D03*
X28348648Y-96150000D03*
X30045704Y-96852944D03*
X30748648Y-98550000D03*
%TD*%
D21*
%TO.C,REF\u002A\u002A*%
X87765765Y-56100000D03*
%TD*%
%TO.C,REF\u002A\u002A*%
X24266868Y-111750000D03*
%TD*%
%TO.C,REF\u002A\u002A*%
X55631530Y-105900000D03*
%TD*%
%TO.C,REF\u002A\u002A*%
X123397295Y-114600000D03*
%TD*%
%TO.C,REF\u002A\u002A*%
X39065765Y-67800000D03*
%TD*%
D23*
%TO.C,MH2*%
X78048648Y-75150000D03*
D22*
X75648648Y-75150000D03*
X79745704Y-73452944D03*
X76351592Y-76847056D03*
X76351592Y-73452944D03*
X78048648Y-72750000D03*
X79745704Y-76847056D03*
X78048648Y-77550000D03*
X80448648Y-75150000D03*
%TD*%
D21*
%TO.C,REF\u002A\u002A*%
X106331530Y-114600000D03*
%TD*%
%TO.C,REF\u002A\u002A*%
X104331530Y-44400000D03*
%TD*%
%TO.C,REF\u002A\u002A*%
X120130427Y-64950000D03*
%TD*%
%TO.C,REF\u002A\u002A*%
X120130427Y-100050000D03*
%TD*%
%TO.C,REF\u002A\u002A*%
X90765765Y-94200000D03*
%TD*%
%TO.C,REF\u002A\u002A*%
X40065765Y-94200000D03*
%TD*%
%TO.C,REF\u002A\u002A*%
X120397295Y-15000000D03*
%TD*%
%TO.C,REF\u002A\u002A*%
X106331530Y-67800000D03*
%TD*%
%TO.C,REF\u002A\u002A*%
X70430427Y-41550000D03*
%TD*%
%TO.C,REF\u002A\u002A*%
X56631530Y-67800000D03*
%TD*%
%TO.C,REF\u002A\u002A*%
X41065765Y-44400000D03*
%TD*%
%TO.C,REF\u002A\u002A*%
X88765765Y-82500000D03*
%TD*%
%TO.C,REF\u002A\u002A*%
X90765765Y-102900000D03*
%TD*%
%TO.C,REF\u002A\u002A*%
X105331530Y-105900000D03*
%TD*%
%TO.C,REF\u002A\u002A*%
X54631530Y-67800000D03*
%TD*%
%TO.C,REF\u002A\u002A*%
X70668040Y-110759398D03*
%TD*%
%TO.C,REF\u002A\u002A*%
X40065765Y-35700000D03*
%TD*%
%TO.C,REF\u002A\u002A*%
X24029255Y-27840601D03*
%TD*%
%TO.C,REF\u002A\u002A*%
X88765765Y-105900000D03*
%TD*%
%TO.C,REF\u002A\u002A*%
X24266868Y-64950000D03*
%TD*%
%TO.C,REF\u002A\u002A*%
X106331530Y-47400000D03*
%TD*%
%TO.C,REF\u002A\u002A*%
X124254437Y-114600000D03*
%TD*%
%TO.C,REF\u002A\u002A*%
X73966868Y-29850000D03*
%TD*%
%TO.C,REF\u002A\u002A*%
X104331530Y-82500000D03*
%TD*%
%TO.C,REF\u002A\u002A*%
X41065765Y-59100000D03*
%TD*%
%TO.C,REF\u002A\u002A*%
X120130427Y-38550000D03*
%TD*%
%TO.C,REF\u002A\u002A*%
X21000000Y-24000000D03*
%TD*%
%TO.C,REF\u002A\u002A*%
X73729255Y-99059398D03*
%TD*%
%TO.C,REF\u002A\u002A*%
X120397295Y-123600000D03*
%TD*%
%TO.C,REF\u002A\u002A*%
X124254437Y-24000000D03*
%TD*%
%TO.C,REF\u002A\u002A*%
X24000000Y-121028571D03*
%TD*%
%TO.C,REF\u002A\u002A*%
X70668040Y-86340601D03*
%TD*%
%TO.C,REF\u002A\u002A*%
X38065765Y-79500000D03*
%TD*%
%TO.C,REF\u002A\u002A*%
X24266868Y-38550000D03*
%TD*%
%TO.C,REF\u002A\u002A*%
X53631530Y-56100000D03*
%TD*%
%TO.C,REF\u002A\u002A*%
X73729255Y-109740601D03*
%TD*%
%TO.C,REF\u002A\u002A*%
X104331530Y-59100000D03*
%TD*%
%TO.C,REF\u002A\u002A*%
X40065765Y-47400000D03*
%TD*%
%TO.C,REF\u002A\u002A*%
X90765765Y-91200000D03*
%TD*%
%TO.C,REF\u002A\u002A*%
X120368040Y-28859398D03*
%TD*%
%TO.C,REF\u002A\u002A*%
X54631530Y-35700000D03*
%TD*%
%TO.C,REF\u002A\u002A*%
X56631530Y-56100000D03*
%TD*%
%TO.C,REF\u002A\u002A*%
X103331530Y-24000000D03*
%TD*%
%TO.C,REF\u002A\u002A*%
X89765765Y-44400000D03*
%TD*%
%TO.C,REF\u002A\u002A*%
X120397295Y-16714285D03*
%TD*%
%TO.C,REF\u002A\u002A*%
X21000000Y-114600000D03*
%TD*%
%TO.C,REF\u002A\u002A*%
X87765765Y-67800000D03*
%TD*%
%TO.C,REF\u002A\u002A*%
X70430427Y-38550000D03*
%TD*%
%TO.C,REF\u002A\u002A*%
X120130427Y-53250000D03*
%TD*%
%TO.C,REF\u002A\u002A*%
X88765765Y-24000000D03*
%TD*%
%TO.C,REF\u002A\u002A*%
X73966868Y-64950000D03*
%TD*%
%TO.C,REF\u002A\u002A*%
X127683009Y-114600000D03*
%TD*%
%TO.C,REF\u002A\u002A*%
X88765765Y-79500000D03*
%TD*%
%TO.C,REF\u002A\u002A*%
X73729255Y-40559398D03*
%TD*%
%TO.C,REF\u002A\u002A*%
X24000000Y-122742857D03*
%TD*%
%TO.C,REF\u002A\u002A*%
X54631530Y-24000000D03*
%TD*%
%TO.C,REF\u002A\u002A*%
X53631530Y-91200000D03*
%TD*%
%TO.C,REF\u002A\u002A*%
X103331530Y-94200000D03*
%TD*%
%TO.C,REF\u002A\u002A*%
X24266868Y-100050000D03*
%TD*%
%TO.C,REF\u002A\u002A*%
X103331530Y-47400000D03*
%TD*%
%TO.C,REF\u002A\u002A*%
X40065765Y-114600000D03*
%TD*%
%TO.C,REF\u002A\u002A*%
X55631530Y-79500000D03*
%TD*%
%TO.C,REF\u002A\u002A*%
X40065765Y-70800000D03*
%TD*%
%TO.C,REF\u002A\u002A*%
X56631530Y-35700000D03*
%TD*%
%TO.C,REF\u002A\u002A*%
X24266868Y-97050000D03*
%TD*%
D22*
%TO.C,MH1*%
X66348648Y-42450000D03*
X68045704Y-41747056D03*
X64651592Y-38352944D03*
D23*
X66348648Y-40050000D03*
D22*
X63948648Y-40050000D03*
X68045704Y-38352944D03*
X64651592Y-41747056D03*
X66348648Y-37650000D03*
X68748648Y-40050000D03*
%TD*%
%TO.C,MH1*%
X116048648Y-42450000D03*
X113648648Y-40050000D03*
X117745704Y-38352944D03*
D23*
X116048648Y-40050000D03*
D22*
X118448648Y-40050000D03*
X116048648Y-37650000D03*
X114351592Y-41747056D03*
X114351592Y-38352944D03*
X117745704Y-41747056D03*
%TD*%
D21*
%TO.C,REF\u002A\u002A*%
X104331530Y-94200000D03*
%TD*%
%TO.C,REF\u002A\u002A*%
X120397295Y-21000000D03*
%TD*%
%TO.C,REF\u002A\u002A*%
X105331530Y-35700000D03*
%TD*%
%TO.C,REF\u002A\u002A*%
X120368040Y-98040601D03*
%TD*%
%TO.C,REF\u002A\u002A*%
X53631530Y-35700000D03*
%TD*%
%TO.C,REF\u002A\u002A*%
X54631530Y-82500000D03*
%TD*%
%TO.C,REF\u002A\u002A*%
X20142857Y-114600000D03*
%TD*%
%TO.C,REF\u002A\u002A*%
X127683009Y-24000000D03*
%TD*%
%TO.C,REF\u002A\u002A*%
X90765765Y-114600000D03*
%TD*%
%TO.C,REF\u002A\u002A*%
X55631530Y-70800000D03*
%TD*%
%TO.C,REF\u002A\u002A*%
X41065765Y-105900000D03*
%TD*%
%TO.C,REF\u002A\u002A*%
X38065765Y-59100000D03*
%TD*%
%TO.C,REF\u002A\u002A*%
X38065765Y-35700000D03*
%TD*%
%TO.C,REF\u002A\u002A*%
X17571428Y-114600000D03*
%TD*%
%TO.C,REF\u002A\u002A*%
X41065765Y-94200000D03*
%TD*%
%TO.C,REF\u002A\u002A*%
X70430427Y-76650000D03*
%TD*%
%TO.C,REF\u002A\u002A*%
X120397295Y-20142857D03*
%TD*%
%TO.C,REF\u002A\u002A*%
X53631530Y-24000000D03*
%TD*%
%TO.C,REF\u002A\u002A*%
X88765765Y-44400000D03*
%TD*%
%TO.C,REF\u002A\u002A*%
X41065765Y-70800000D03*
%TD*%
%TO.C,REF\u002A\u002A*%
X24000000Y-20142857D03*
%TD*%
%TO.C,REF\u002A\u002A*%
X120397295Y-118457142D03*
%TD*%
%TO.C,REF\u002A\u002A*%
X55631530Y-114600000D03*
%TD*%
%TO.C,REF\u002A\u002A*%
X16714285Y-24000000D03*
%TD*%
%TO.C,REF\u002A\u002A*%
X24029255Y-28859398D03*
%TD*%
%TO.C,REF\u002A\u002A*%
X73966868Y-97050000D03*
%TD*%
%TO.C,REF\u002A\u002A*%
X73966868Y-100050000D03*
%TD*%
%TO.C,REF\u002A\u002A*%
X120368040Y-63959398D03*
%TD*%
%TO.C,REF\u002A\u002A*%
X38065765Y-67800000D03*
%TD*%
%TO.C,REF\u002A\u002A*%
X105331530Y-94200000D03*
%TD*%
%TO.C,REF\u002A\u002A*%
X24000000Y-121885714D03*
%TD*%
%TO.C,REF\u002A\u002A*%
X89765765Y-56100000D03*
%TD*%
%TO.C,REF\u002A\u002A*%
X54631530Y-105900000D03*
%TD*%
%TO.C,REF\u002A\u002A*%
X24029255Y-40559398D03*
%TD*%
%TO.C,REF\u002A\u002A*%
X70668040Y-39540601D03*
%TD*%
%TO.C,REF\u002A\u002A*%
X41065765Y-67800000D03*
%TD*%
%TO.C,REF\u002A\u002A*%
X24029255Y-74640601D03*
%TD*%
%TO.C,REF\u002A\u002A*%
X105331530Y-91200000D03*
%TD*%
%TO.C,REF\u002A\u002A*%
X104331530Y-79500000D03*
%TD*%
%TO.C,REF\u002A\u002A*%
X120130427Y-29850000D03*
%TD*%
%TO.C,REF\u002A\u002A*%
X70430427Y-29850000D03*
%TD*%
%TO.C,REF\u002A\u002A*%
X123397295Y-24000000D03*
%TD*%
%TO.C,REF\u002A\u002A*%
X103331530Y-79500000D03*
%TD*%
D22*
%TO.C,MH2*%
X76351592Y-26652944D03*
X79745704Y-26652944D03*
D23*
X78048648Y-28350000D03*
D22*
X76351592Y-30047056D03*
X80448648Y-28350000D03*
X78048648Y-25950000D03*
X79745704Y-30047056D03*
X78048648Y-30750000D03*
X75648648Y-28350000D03*
%TD*%
D21*
%TO.C,REF\u002A\u002A*%
X106331530Y-94200000D03*
%TD*%
%TO.C,REF\u002A\u002A*%
X70668040Y-87359398D03*
%TD*%
D22*
%TO.C,MH1*%
X66348648Y-100950000D03*
X63948648Y-98550000D03*
X64651592Y-96852944D03*
X64651592Y-100247056D03*
X66348648Y-96150000D03*
X68748648Y-98550000D03*
D23*
X66348648Y-98550000D03*
D22*
X68045704Y-100247056D03*
X68045704Y-96852944D03*
%TD*%
%TO.C,MH1*%
X64651592Y-111947056D03*
X68045704Y-108552944D03*
X68748648Y-110250000D03*
X66348648Y-112650000D03*
D23*
X66348648Y-110250000D03*
D22*
X63948648Y-110250000D03*
X66348648Y-107850000D03*
X68045704Y-111947056D03*
X64651592Y-108552944D03*
%TD*%
D21*
%TO.C,REF\u002A\u002A*%
X73966868Y-38550000D03*
%TD*%
%TO.C,REF\u002A\u002A*%
X70668040Y-52259398D03*
%TD*%
%TO.C,REF\u002A\u002A*%
X41065765Y-82500000D03*
%TD*%
%TO.C,REF\u002A\u002A*%
X53631530Y-47400000D03*
%TD*%
%TO.C,REF\u002A\u002A*%
X53631530Y-70800000D03*
%TD*%
%TO.C,REF\u002A\u002A*%
X105331530Y-44400000D03*
%TD*%
%TO.C,REF\u002A\u002A*%
X89765765Y-32700000D03*
%TD*%
%TO.C,REF\u002A\u002A*%
X18428571Y-114600000D03*
%TD*%
%TO.C,REF\u002A\u002A*%
X90765765Y-59100000D03*
%TD*%
%TO.C,REF\u002A\u002A*%
X24029255Y-110759398D03*
%TD*%
%TO.C,REF\u002A\u002A*%
X120368040Y-39540601D03*
%TD*%
%TO.C,REF\u002A\u002A*%
X88765765Y-59100000D03*
%TD*%
%TO.C,REF\u002A\u002A*%
X87765765Y-32700000D03*
%TD*%
%TO.C,REF\u002A\u002A*%
X87765765Y-105900000D03*
%TD*%
%TO.C,REF\u002A\u002A*%
X105331530Y-56100000D03*
%TD*%
%TO.C,REF\u002A\u002A*%
X40065765Y-105900000D03*
%TD*%
%TO.C,REF\u002A\u002A*%
X41065765Y-79500000D03*
%TD*%
%TO.C,REF\u002A\u002A*%
X40065765Y-67800000D03*
%TD*%
%TO.C,REF\u002A\u002A*%
X53631530Y-67800000D03*
%TD*%
D22*
%TO.C,MH2*%
X30045704Y-50052944D03*
X26651592Y-53447056D03*
X25948648Y-51750000D03*
X28348648Y-49350000D03*
X30045704Y-53447056D03*
X28348648Y-54150000D03*
X30748648Y-51750000D03*
X26651592Y-50052944D03*
D23*
X28348648Y-51750000D03*
%TD*%
D21*
%TO.C,REF\u002A\u002A*%
X17571428Y-24000000D03*
%TD*%
%TO.C,REF\u002A\u002A*%
X120130427Y-85350000D03*
%TD*%
%TO.C,REF\u002A\u002A*%
X88765765Y-70800000D03*
%TD*%
%TO.C,REF\u002A\u002A*%
X24266868Y-50250000D03*
%TD*%
%TO.C,REF\u002A\u002A*%
X56631530Y-102900000D03*
%TD*%
%TO.C,REF\u002A\u002A*%
X70430427Y-64950000D03*
%TD*%
%TO.C,REF\u002A\u002A*%
X128540152Y-24000000D03*
%TD*%
%TO.C,REF\u002A\u002A*%
X73966868Y-85350000D03*
%TD*%
%TO.C,REF\u002A\u002A*%
X15000000Y-114600000D03*
%TD*%
%TO.C,REF\u002A\u002A*%
X54631530Y-47400000D03*
%TD*%
%TO.C,REF\u002A\u002A*%
X55631530Y-44400000D03*
%TD*%
%TO.C,REF\u002A\u002A*%
X88765765Y-102900000D03*
%TD*%
%TO.C,REF\u002A\u002A*%
X38065765Y-105900000D03*
%TD*%
%TO.C,REF\u002A\u002A*%
X70430427Y-108750000D03*
%TD*%
%TO.C,REF\u002A\u002A*%
X73966868Y-26850000D03*
%TD*%
%TO.C,REF\u002A\u002A*%
X24029255Y-109740601D03*
%TD*%
%TO.C,REF\u002A\u002A*%
X41065765Y-35700000D03*
%TD*%
%TO.C,REF\u002A\u002A*%
X41065765Y-24000000D03*
%TD*%
%TO.C,REF\u002A\u002A*%
X88765765Y-47400000D03*
%TD*%
%TO.C,REF\u002A\u002A*%
X89765765Y-70800000D03*
%TD*%
%TO.C,REF\u002A\u002A*%
X70668040Y-40559398D03*
%TD*%
%TO.C,REF\u002A\u002A*%
X40065765Y-79500000D03*
%TD*%
%TO.C,REF\u002A\u002A*%
X73729255Y-51240601D03*
%TD*%
%TO.C,REF\u002A\u002A*%
X120130427Y-41550000D03*
%TD*%
%TO.C,REF\u002A\u002A*%
X70430427Y-88350000D03*
%TD*%
D22*
%TO.C,MH2*%
X26651592Y-111947056D03*
X30748648Y-110250000D03*
X30045704Y-108552944D03*
X30045704Y-111947056D03*
D23*
X28348648Y-110250000D03*
D22*
X26651592Y-108552944D03*
X25948648Y-110250000D03*
X28348648Y-112650000D03*
X28348648Y-107850000D03*
%TD*%
D21*
%TO.C,REF\u002A\u002A*%
X104331530Y-24000000D03*
%TD*%
%TO.C,REF\u002A\u002A*%
X120368040Y-62940601D03*
%TD*%
%TO.C,REF\u002A\u002A*%
X106331530Y-24000000D03*
%TD*%
%TO.C,REF\u002A\u002A*%
X73966868Y-111750000D03*
%TD*%
%TO.C,REF\u002A\u002A*%
X88765765Y-56100000D03*
%TD*%
%TO.C,REF\u002A\u002A*%
X87765765Y-24000000D03*
%TD*%
%TO.C,REF\u002A\u002A*%
X54631530Y-32700000D03*
%TD*%
%TO.C,REF\u002A\u002A*%
X89765765Y-47400000D03*
%TD*%
%TO.C,REF\u002A\u002A*%
X89765765Y-59100000D03*
%TD*%
%TO.C,REF\u002A\u002A*%
X104331530Y-32700000D03*
%TD*%
%TO.C,REF\u002A\u002A*%
X38065765Y-24000000D03*
%TD*%
%TO.C,REF\u002A\u002A*%
X105331530Y-32700000D03*
%TD*%
%TO.C,REF\u002A\u002A*%
X104331530Y-105900000D03*
%TD*%
%TO.C,REF\u002A\u002A*%
X120130427Y-97050000D03*
%TD*%
%TO.C,REF\u002A\u002A*%
X15857142Y-114600000D03*
%TD*%
%TO.C,REF\u002A\u002A*%
X24000000Y-123600000D03*
%TD*%
%TO.C,REF\u002A\u002A*%
X56631530Y-94200000D03*
%TD*%
%TO.C,REF\u002A\u002A*%
X19285714Y-114600000D03*
%TD*%
%TO.C,REF\u002A\u002A*%
X120397295Y-18428571D03*
%TD*%
%TO.C,REF\u002A\u002A*%
X39065765Y-56100000D03*
%TD*%
%TO.C,REF\u002A\u002A*%
X105331530Y-47400000D03*
%TD*%
%TO.C,REF\u002A\u002A*%
X24000000Y-120171428D03*
%TD*%
%TO.C,REF\u002A\u002A*%
X106331530Y-82500000D03*
%TD*%
%TO.C,REF\u002A\u002A*%
X88765765Y-67800000D03*
%TD*%
%TO.C,REF\u002A\u002A*%
X38065765Y-82500000D03*
%TD*%
%TO.C,REF\u002A\u002A*%
X103331530Y-70800000D03*
%TD*%
%TO.C,REF\u002A\u002A*%
X41065765Y-102900000D03*
%TD*%
D22*
%TO.C,MH2*%
X26651592Y-38352944D03*
X28348648Y-37650000D03*
X30045704Y-41747056D03*
D23*
X28348648Y-40050000D03*
D22*
X28348648Y-42450000D03*
X26651592Y-41747056D03*
X30045704Y-38352944D03*
X25948648Y-40050000D03*
X30748648Y-40050000D03*
%TD*%
D21*
%TO.C,REF\u002A\u002A*%
X90765765Y-24000000D03*
%TD*%
%TO.C,REF\u002A\u002A*%
X39065765Y-44400000D03*
%TD*%
%TO.C,REF\u002A\u002A*%
X73729255Y-52259398D03*
%TD*%
%TO.C,REF\u002A\u002A*%
X106331530Y-35700000D03*
%TD*%
%TO.C,REF\u002A\u002A*%
X39065765Y-94200000D03*
%TD*%
%TO.C,REF\u002A\u002A*%
X120368040Y-86340601D03*
%TD*%
%TO.C,REF\u002A\u002A*%
X54631530Y-102900000D03*
%TD*%
%TO.C,REF\u002A\u002A*%
X54631530Y-114600000D03*
%TD*%
%TO.C,REF\u002A\u002A*%
X89765765Y-102900000D03*
%TD*%
%TO.C,REF\u002A\u002A*%
X103331530Y-56100000D03*
%TD*%
%TO.C,REF\u002A\u002A*%
X38065765Y-94200000D03*
%TD*%
%TO.C,REF\u002A\u002A*%
X105331530Y-70800000D03*
%TD*%
%TO.C,REF\u002A\u002A*%
X129397295Y-24000000D03*
%TD*%
%TO.C,REF\u002A\u002A*%
X55631530Y-82500000D03*
%TD*%
%TO.C,REF\u002A\u002A*%
X73966868Y-76650000D03*
%TD*%
D22*
%TO.C,MH1*%
X117745704Y-53447056D03*
X118448648Y-51750000D03*
X114351592Y-50052944D03*
X113648648Y-51750000D03*
X116048648Y-54150000D03*
X117745704Y-50052944D03*
X114351592Y-53447056D03*
D23*
X116048648Y-51750000D03*
D22*
X116048648Y-49350000D03*
%TD*%
D21*
%TO.C,REF\u002A\u002A*%
X70430427Y-73650000D03*
%TD*%
%TO.C,REF\u002A\u002A*%
X41065765Y-91200000D03*
%TD*%
%TO.C,REF\u002A\u002A*%
X56631530Y-91200000D03*
%TD*%
%TO.C,REF\u002A\u002A*%
X90765765Y-82500000D03*
%TD*%
%TO.C,REF\u002A\u002A*%
X53631530Y-82500000D03*
%TD*%
%TO.C,REF\u002A\u002A*%
X39065765Y-24000000D03*
%TD*%
%TO.C,REF\u002A\u002A*%
X39065765Y-82500000D03*
%TD*%
%TO.C,REF\u002A\u002A*%
X103331530Y-59100000D03*
%TD*%
%TO.C,REF\u002A\u002A*%
X73966868Y-41550000D03*
%TD*%
%TO.C,REF\u002A\u002A*%
X90765765Y-47400000D03*
%TD*%
%TO.C,REF\u002A\u002A*%
X70668040Y-74640601D03*
%TD*%
%TO.C,REF\u002A\u002A*%
X20142857Y-24000000D03*
%TD*%
D22*
%TO.C,MH1*%
X68045704Y-50052944D03*
X63948648Y-51750000D03*
X68045704Y-53447056D03*
X66348648Y-54150000D03*
X66348648Y-49350000D03*
D23*
X66348648Y-51750000D03*
D22*
X68748648Y-51750000D03*
X64651592Y-53447056D03*
X64651592Y-50052944D03*
%TD*%
D21*
%TO.C,REF\u002A\u002A*%
X16714285Y-114600000D03*
%TD*%
%TO.C,REF\u002A\u002A*%
X105331530Y-67800000D03*
%TD*%
%TO.C,REF\u002A\u002A*%
X39065765Y-47400000D03*
%TD*%
%TO.C,REF\u002A\u002A*%
X89765765Y-67800000D03*
%TD*%
%TO.C,REF\u002A\u002A*%
X105331530Y-114600000D03*
%TD*%
%TO.C,REF\u002A\u002A*%
X55631530Y-94200000D03*
%TD*%
%TO.C,REF\u002A\u002A*%
X73966868Y-88350000D03*
%TD*%
%TO.C,REF\u002A\u002A*%
X89765765Y-94200000D03*
%TD*%
%TO.C,REF\u002A\u002A*%
X70430427Y-50250000D03*
%TD*%
%TO.C,REF\u002A\u002A*%
X56631530Y-44400000D03*
%TD*%
%TO.C,REF\u002A\u002A*%
X120397295Y-119314285D03*
%TD*%
%TO.C,REF\u002A\u002A*%
X39065765Y-32700000D03*
%TD*%
%TO.C,REF\u002A\u002A*%
X120130427Y-26850000D03*
%TD*%
D22*
%TO.C,MH1*%
X68748648Y-28350000D03*
D23*
X66348648Y-28350000D03*
D22*
X66348648Y-25950000D03*
X66348648Y-30750000D03*
X68045704Y-26652944D03*
X64651592Y-26652944D03*
X68045704Y-30047056D03*
X63948648Y-28350000D03*
X64651592Y-30047056D03*
%TD*%
D21*
%TO.C,REF\u002A\u002A*%
X56631530Y-59100000D03*
%TD*%
%TO.C,REF\u002A\u002A*%
X24029255Y-63959398D03*
%TD*%
%TO.C,REF\u002A\u002A*%
X89765765Y-35700000D03*
%TD*%
D22*
%TO.C,MH2*%
X78048648Y-65850000D03*
X76351592Y-65147056D03*
X80448648Y-63450000D03*
X78048648Y-61050000D03*
X76351592Y-61752944D03*
X79745704Y-61752944D03*
D23*
X78048648Y-63450000D03*
D22*
X75648648Y-63450000D03*
X79745704Y-65147056D03*
%TD*%
D21*
%TO.C,REF\u002A\u002A*%
X105331530Y-82500000D03*
%TD*%
%TO.C,REF\u002A\u002A*%
X41065765Y-56100000D03*
%TD*%
%TO.C,REF\u002A\u002A*%
X120368040Y-52259398D03*
%TD*%
%TO.C,REF\u002A\u002A*%
X15857142Y-24000000D03*
%TD*%
%TO.C,REF\u002A\u002A*%
X70430427Y-111750000D03*
%TD*%
%TO.C,REF\u002A\u002A*%
X70668040Y-28859398D03*
%TD*%
%TO.C,REF\u002A\u002A*%
X53631530Y-102900000D03*
%TD*%
%TO.C,REF\u002A\u002A*%
X24266868Y-108750000D03*
%TD*%
%TO.C,REF\u002A\u002A*%
X120397295Y-117600000D03*
%TD*%
%TO.C,REF\u002A\u002A*%
X38065765Y-32700000D03*
%TD*%
%TO.C,REF\u002A\u002A*%
X73729255Y-74640601D03*
%TD*%
%TO.C,REF\u002A\u002A*%
X128540152Y-114600000D03*
%TD*%
%TO.C,REF\u002A\u002A*%
X38065765Y-91200000D03*
%TD*%
%TO.C,REF\u002A\u002A*%
X104331530Y-114600000D03*
%TD*%
%TO.C,REF\u002A\u002A*%
X103331530Y-44400000D03*
%TD*%
%TO.C,REF\u002A\u002A*%
X104331530Y-91200000D03*
%TD*%
%TO.C,REF\u002A\u002A*%
X56631530Y-70800000D03*
%TD*%
%TO.C,REF\u002A\u002A*%
X106331530Y-91200000D03*
%TD*%
%TO.C,REF\u002A\u002A*%
X88765765Y-114600000D03*
%TD*%
%TO.C,REF\u002A\u002A*%
X125111580Y-114600000D03*
%TD*%
%TO.C,REF\u002A\u002A*%
X24029255Y-39540601D03*
%TD*%
%TO.C,REF\u002A\u002A*%
X103331530Y-82500000D03*
%TD*%
%TO.C,REF\u002A\u002A*%
X24000000Y-117600000D03*
%TD*%
%TO.C,REF\u002A\u002A*%
X70430427Y-26850000D03*
%TD*%
%TO.C,REF\u002A\u002A*%
X41065765Y-114600000D03*
%TD*%
%TO.C,REF\u002A\u002A*%
X24000000Y-17571428D03*
%TD*%
%TO.C,REF\u002A\u002A*%
X70668040Y-63959398D03*
%TD*%
%TO.C,REF\u002A\u002A*%
X24029255Y-75659398D03*
%TD*%
%TO.C,REF\u002A\u002A*%
X24266868Y-76650000D03*
%TD*%
%TO.C,REF\u002A\u002A*%
X24266868Y-61950000D03*
%TD*%
%TO.C,REF\u002A\u002A*%
X70668040Y-98040601D03*
%TD*%
%TO.C,REF\u002A\u002A*%
X39065765Y-79500000D03*
%TD*%
%TO.C,REF\u002A\u002A*%
X70430427Y-61950000D03*
%TD*%
%TO.C,REF\u002A\u002A*%
X87765765Y-91200000D03*
%TD*%
%TO.C,REF\u002A\u002A*%
X38065765Y-47400000D03*
%TD*%
%TO.C,REF\u002A\u002A*%
X104331530Y-70800000D03*
%TD*%
%TO.C,REF\u002A\u002A*%
X24266868Y-85350000D03*
%TD*%
%TO.C,REF\u002A\u002A*%
X120397295Y-121885714D03*
%TD*%
%TO.C,REF\u002A\u002A*%
X87765765Y-70800000D03*
%TD*%
%TO.C,REF\u002A\u002A*%
X73729255Y-62940601D03*
%TD*%
%TO.C,REF\u002A\u002A*%
X70430427Y-97050000D03*
%TD*%
%TO.C,REF\u002A\u002A*%
X39065765Y-102900000D03*
%TD*%
%TO.C,REF\u002A\u002A*%
X70668040Y-51240601D03*
%TD*%
%TO.C,REF\u002A\u002A*%
X103331530Y-91200000D03*
%TD*%
%TO.C,REF\u002A\u002A*%
X24266868Y-88350000D03*
%TD*%
%TO.C,REF\u002A\u002A*%
X120397295Y-19285714D03*
%TD*%
%TO.C,REF\u002A\u002A*%
X104331530Y-56100000D03*
%TD*%
%TO.C,REF\u002A\u002A*%
X73729255Y-98040601D03*
%TD*%
D22*
%TO.C,MH1*%
X117745704Y-100247056D03*
X113648648Y-98550000D03*
X118448648Y-98550000D03*
X114351592Y-100247056D03*
X117745704Y-96852944D03*
X116048648Y-100950000D03*
D23*
X116048648Y-98550000D03*
D22*
X114351592Y-96852944D03*
X116048648Y-96150000D03*
%TD*%
D21*
%TO.C,REF\u002A\u002A*%
X103331530Y-105900000D03*
%TD*%
%TO.C,REF\u002A\u002A*%
X106331530Y-79500000D03*
%TD*%
%TO.C,REF\u002A\u002A*%
X87765765Y-44400000D03*
%TD*%
%TO.C,REF\u002A\u002A*%
X88765765Y-91200000D03*
%TD*%
%TO.C,REF\u002A\u002A*%
X24266868Y-73650000D03*
%TD*%
%TO.C,REF\u002A\u002A*%
X120130427Y-108750000D03*
%TD*%
%TO.C,REF\u002A\u002A*%
X54631530Y-44400000D03*
%TD*%
%TO.C,REF\u002A\u002A*%
X15000000Y-24000000D03*
%TD*%
%TO.C,REF\u002A\u002A*%
X73729255Y-110759398D03*
%TD*%
%TO.C,REF\u002A\u002A*%
X54631530Y-56100000D03*
%TD*%
%TO.C,REF\u002A\u002A*%
X54631530Y-79500000D03*
%TD*%
%TO.C,REF\u002A\u002A*%
X73966868Y-50250000D03*
%TD*%
%TO.C,REF\u002A\u002A*%
X73729255Y-28859398D03*
%TD*%
%TO.C,REF\u002A\u002A*%
X89765765Y-91200000D03*
%TD*%
%TO.C,REF\u002A\u002A*%
X40065765Y-24000000D03*
%TD*%
%TO.C,REF\u002A\u002A*%
X24029255Y-98040601D03*
%TD*%
%TO.C,REF\u002A\u002A*%
X70668040Y-62940601D03*
%TD*%
%TO.C,REF\u002A\u002A*%
X55631530Y-59100000D03*
%TD*%
%TO.C,REF\u002A\u002A*%
X120368040Y-51240601D03*
%TD*%
%TO.C,REF\u002A\u002A*%
X103331530Y-67800000D03*
%TD*%
%TO.C,REF\u002A\u002A*%
X73966868Y-61950000D03*
%TD*%
%TO.C,REF\u002A\u002A*%
X53631530Y-94200000D03*
%TD*%
%TO.C,REF\u002A\u002A*%
X38065765Y-56100000D03*
%TD*%
%TO.C,REF\u002A\u002A*%
X73729255Y-27840601D03*
%TD*%
%TO.C,REF\u002A\u002A*%
X87765765Y-47400000D03*
%TD*%
%TO.C,REF\u002A\u002A*%
X104331530Y-47400000D03*
%TD*%
%TO.C,REF\u002A\u002A*%
X24000000Y-21000000D03*
%TD*%
%TO.C,REF\u002A\u002A*%
X125968723Y-24000000D03*
%TD*%
%TO.C,REF\u002A\u002A*%
X24029255Y-87359398D03*
%TD*%
%TO.C,REF\u002A\u002A*%
X70668040Y-109740601D03*
%TD*%
D22*
%TO.C,MH2*%
X78048648Y-42450000D03*
X80448648Y-40050000D03*
X79745704Y-41747056D03*
X76351592Y-38352944D03*
X79745704Y-38352944D03*
X78048648Y-37650000D03*
X75648648Y-40050000D03*
X76351592Y-41747056D03*
D23*
X78048648Y-40050000D03*
%TD*%
D21*
%TO.C,REF\u002A\u002A*%
X89765765Y-24000000D03*
%TD*%
%TO.C,REF\u002A\u002A*%
X120130427Y-88350000D03*
%TD*%
%TO.C,REF\u002A\u002A*%
X105331530Y-79500000D03*
%TD*%
%TO.C,REF\u002A\u002A*%
X87765765Y-94200000D03*
%TD*%
%TO.C,REF\u002A\u002A*%
X39065765Y-105900000D03*
%TD*%
%TO.C,REF\u002A\u002A*%
X19285714Y-24000000D03*
%TD*%
%TO.C,REF\u002A\u002A*%
X24266868Y-53250000D03*
%TD*%
%TO.C,REF\u002A\u002A*%
X38065765Y-102900000D03*
%TD*%
%TO.C,REF\u002A\u002A*%
X120368040Y-109740601D03*
%TD*%
%TO.C,REF\u002A\u002A*%
X106331530Y-105900000D03*
%TD*%
%TO.C,REF\u002A\u002A*%
X39065765Y-59100000D03*
%TD*%
%TO.C,REF\u002A\u002A*%
X120397295Y-17571428D03*
%TD*%
%TO.C,REF\u002A\u002A*%
X73729255Y-87359398D03*
%TD*%
%TO.C,REF\u002A\u002A*%
X24000000Y-118457142D03*
%TD*%
%TO.C,REF\u002A\u002A*%
X24029255Y-62940601D03*
%TD*%
%TO.C,REF\u002A\u002A*%
X54631530Y-70800000D03*
%TD*%
%TO.C,REF\u002A\u002A*%
X106331530Y-44400000D03*
%TD*%
%TO.C,REF\u002A\u002A*%
X90765765Y-35700000D03*
%TD*%
%TO.C,REF\u002A\u002A*%
X24029255Y-86340601D03*
%TD*%
%TO.C,REF\u002A\u002A*%
X24266868Y-41550000D03*
%TD*%
%TO.C,REF\u002A\u002A*%
X106331530Y-56100000D03*
%TD*%
%TO.C,REF\u002A\u002A*%
X38065765Y-44400000D03*
%TD*%
%TO.C,REF\u002A\u002A*%
X24000000Y-15000000D03*
%TD*%
%TO.C,REF\u002A\u002A*%
X24266868Y-26850000D03*
%TD*%
%TO.C,REF\u002A\u002A*%
X56631530Y-114600000D03*
%TD*%
%TO.C,REF\u002A\u002A*%
X120397295Y-120171428D03*
%TD*%
%TO.C,REF\u002A\u002A*%
X87765765Y-114600000D03*
%TD*%
%TO.C,REF\u002A\u002A*%
X89765765Y-82500000D03*
%TD*%
%TO.C,REF\u002A\u002A*%
X53631530Y-44400000D03*
%TD*%
%TO.C,REF\u002A\u002A*%
X105331530Y-59100000D03*
%TD*%
D22*
%TO.C,MH1*%
X64651592Y-76847056D03*
X64651592Y-73452944D03*
X68045704Y-76847056D03*
D23*
X66348648Y-75150000D03*
D22*
X68045704Y-73452944D03*
X66348648Y-72750000D03*
X66348648Y-77550000D03*
X63948648Y-75150000D03*
X68748648Y-75150000D03*
%TD*%
D21*
%TO.C,REF\u002A\u002A*%
X55631530Y-24000000D03*
%TD*%
%TO.C,REF\u002A\u002A*%
X87765765Y-79500000D03*
%TD*%
%TO.C,REF\u002A\u002A*%
X39065765Y-70800000D03*
%TD*%
%TO.C,REF\u002A\u002A*%
X103331530Y-102900000D03*
%TD*%
%TO.C,REF\u002A\u002A*%
X39065765Y-91200000D03*
%TD*%
%TO.C,REF\u002A\u002A*%
X53631530Y-105900000D03*
%TD*%
%TO.C,REF\u002A\u002A*%
X55631530Y-91200000D03*
%TD*%
%TO.C,REF\u002A\u002A*%
X53631530Y-32700000D03*
%TD*%
%TO.C,REF\u002A\u002A*%
X56631530Y-82500000D03*
%TD*%
%TO.C,REF\u002A\u002A*%
X39065765Y-35700000D03*
%TD*%
%TO.C,REF\u002A\u002A*%
X88765765Y-94200000D03*
%TD*%
%TO.C,REF\u002A\u002A*%
X73966868Y-73650000D03*
%TD*%
%TO.C,REF\u002A\u002A*%
X106331530Y-70800000D03*
%TD*%
%TO.C,REF\u002A\u002A*%
X126825866Y-114600000D03*
%TD*%
M02*
