%TF.GenerationSoftware,KiCad,Pcbnew,(6.0.5)*%
%TF.CreationDate,2022-06-04T14:03:13+08:00*%
%TF.ProjectId,panel,70616e65-6c2e-46b6-9963-61645f706362,rev?*%
%TF.SameCoordinates,Original*%
%TF.FileFunction,Profile,NP*%
%FSLAX46Y46*%
G04 Gerber Fmt 4.6, Leading zero omitted, Abs format (unit mm)*
G04 Created by KiCad (PCBNEW (6.0.5)) date 2022-06-04 14:03:13*
%MOMM*%
%LPD*%
G01*
G04 APERTURE LIST*
%TA.AperFunction,Profile*%
%ADD10C,0.100000*%
%TD*%
G04 APERTURE END LIST*
D10*
X67630833Y-24193258D02*
X67422042Y-24134513D01*
X76560860Y-24262337D02*
X76358956Y-24341578D01*
X116696981Y-44351414D02*
X116910583Y-44313750D01*
X69307399Y-113438775D02*
X69462668Y-113287330D01*
X75252521Y-31682293D02*
X75422098Y-31817526D01*
X68429052Y-24529736D02*
X68236042Y-24430785D01*
X41065765Y-102900000D02*
X53631530Y-102900000D01*
X119815858Y-77325000D02*
X119919590Y-77134516D01*
X26080404Y-71438184D02*
X25898205Y-71555861D01*
X90765765Y-70800000D02*
X90765765Y-67800000D01*
X119310196Y-113128333D02*
X119449614Y-112962180D01*
X68616891Y-24638184D02*
X68429052Y-24529736D01*
X24477705Y-61465483D02*
X24383597Y-61660901D01*
X118499090Y-59855861D02*
X118316891Y-59738184D01*
X56631530Y-91200000D02*
X66348648Y-91200000D01*
X21000000Y-61950000D02*
X21000000Y-64950000D01*
X70002760Y-30710076D02*
X70115858Y-30525000D01*
X67210583Y-114513750D02*
X67422042Y-114465486D01*
X120130427Y-111750000D02*
X123397295Y-111750000D01*
X24266868Y-50250000D02*
X21000000Y-50250000D01*
X41065765Y-91200000D02*
X53631530Y-91200000D01*
X120172131Y-62064583D02*
X120097948Y-61860766D01*
X119449614Y-101262180D02*
X119580578Y-101089284D01*
X28348648Y-35700000D02*
X28131818Y-35705407D01*
X56631530Y-70800000D02*
X56631530Y-67800000D01*
X21000000Y-64950000D02*
X24266868Y-64950000D01*
X74647681Y-66162180D02*
X74787099Y-66328333D01*
X24477705Y-96565483D02*
X24383597Y-96760901D01*
X77615527Y-56078383D02*
X77831818Y-56094592D01*
X116048648Y-35700000D02*
X106331530Y-35700000D01*
X24383597Y-30139098D02*
X24477705Y-30334516D01*
X70219590Y-30334516D02*
X70313698Y-30139098D01*
X90765765Y-47400000D02*
X90765765Y-44400000D01*
X118129052Y-43870263D02*
X118316891Y-43761815D01*
X70472131Y-108864583D02*
X70397948Y-108660766D01*
X68038339Y-44058421D02*
X68236042Y-43969214D01*
X69610196Y-113128333D02*
X69749614Y-112962180D01*
X123397295Y-21000000D02*
X123397295Y-26850000D01*
X69462668Y-37012669D02*
X69307399Y-36861224D01*
X73925164Y-26964583D02*
X73966868Y-26850000D01*
X77400314Y-114551414D02*
X77615527Y-114578383D01*
X76358956Y-36041578D02*
X76161253Y-36130785D01*
X27700314Y-59148585D02*
X27486712Y-59186249D01*
X87765765Y-79500000D02*
X87765765Y-82500000D01*
X70219590Y-53734516D02*
X70313698Y-53539098D01*
X70002760Y-42410076D02*
X70115858Y-42225000D01*
X24266868Y-76650000D02*
X24299347Y-76739233D01*
X68236042Y-102469214D02*
X68429052Y-102370263D01*
X67630833Y-35893258D02*
X67422042Y-35834513D01*
X27486712Y-114513750D02*
X27700314Y-114551414D01*
X21000000Y-85350000D02*
X21000000Y-88350000D01*
X27700314Y-91151414D02*
X27915527Y-91178383D01*
X120172131Y-108864583D02*
X120097948Y-108660766D01*
X116265477Y-32694592D02*
X116481768Y-32678383D01*
X68038339Y-102558421D02*
X68236042Y-102469214D01*
X118316891Y-90561815D02*
X118499090Y-90444138D01*
X116481768Y-59121616D02*
X116265477Y-59105407D01*
X76560860Y-32437662D02*
X76766462Y-32506741D01*
X87765765Y-91200000D02*
X87765765Y-94200000D01*
X56631530Y-47400000D02*
X56631530Y-44400000D01*
X77831818Y-70805407D02*
X77615527Y-70821616D01*
X24816717Y-49210715D02*
X24694535Y-49389923D01*
X38065765Y-70800000D02*
X28348648Y-70800000D01*
X118844774Y-95217706D02*
X118675197Y-95082473D01*
X119007399Y-36861224D02*
X118844774Y-36717706D01*
X56631530Y-59100000D02*
X56631530Y-56100000D01*
X74177705Y-77134516D02*
X74281437Y-77325000D01*
X119310196Y-48871666D02*
X119162668Y-48712669D01*
X77831818Y-24005407D02*
X77615527Y-24021616D01*
X75422098Y-102017526D02*
X75598205Y-102144138D01*
X25087099Y-31228333D02*
X25234627Y-31387330D01*
X66348648Y-24000000D02*
X56631530Y-24000000D01*
X119007399Y-25161224D02*
X118844774Y-25017706D01*
X66348648Y-102900000D02*
X66565477Y-102894592D01*
X76766462Y-47593258D02*
X76560860Y-47662337D01*
X119449614Y-77862180D02*
X119580578Y-77689284D01*
X24947681Y-72437819D02*
X24816717Y-72610715D01*
X116910583Y-114513750D02*
X117122042Y-114465486D01*
X74647681Y-77862180D02*
X74787099Y-78028333D01*
X103331530Y-32700000D02*
X103331530Y-35700000D01*
X25087099Y-60571666D02*
X24947681Y-60737819D01*
X106331530Y-94200000D02*
X106331530Y-91200000D01*
X119449614Y-42762180D02*
X119580578Y-42589284D01*
X76161253Y-82930785D02*
X75968243Y-83029736D01*
X70219590Y-61465483D02*
X70115858Y-61275000D01*
X24383597Y-112039098D02*
X24477705Y-112234516D01*
X24477705Y-108265483D02*
X24383597Y-108460901D01*
X75968243Y-43870263D02*
X76161253Y-43969214D01*
X53631530Y-67800000D02*
X53631530Y-70800000D01*
X26461253Y-94630785D02*
X26268243Y-94729736D01*
X69144774Y-55082293D02*
X69307399Y-54938775D01*
X117536435Y-44137662D02*
X117738339Y-44058421D01*
X68975197Y-59982473D02*
X68799090Y-59855861D01*
X118499090Y-102144138D02*
X118675197Y-102017526D01*
X116910583Y-105986249D02*
X116696981Y-105948585D01*
X68616891Y-55461815D02*
X68799090Y-55344138D01*
X26658956Y-44058421D02*
X26860860Y-44137662D01*
X76358956Y-24341578D02*
X76161253Y-24430785D01*
X70430427Y-61950000D02*
X70472131Y-62064583D01*
X77400314Y-91151414D02*
X77615527Y-91178383D01*
X87765765Y-94200000D02*
X78048648Y-94200000D01*
X116265477Y-105905407D02*
X116048648Y-105900000D01*
X69880578Y-30889284D02*
X70002760Y-30710076D01*
X25234627Y-66487330D02*
X25389896Y-66638775D01*
X75089896Y-101738775D02*
X75252521Y-101882293D01*
X120172131Y-26964583D02*
X120097948Y-26760766D01*
X38065765Y-32700000D02*
X38065765Y-35700000D01*
X66996981Y-59148585D02*
X66781768Y-59121616D01*
X41065765Y-82500000D02*
X41065765Y-79500000D01*
X25087099Y-113128333D02*
X25234627Y-113287330D01*
X123397295Y-64950000D02*
X123397295Y-73650000D01*
X73999347Y-65039233D02*
X74083597Y-65239098D01*
X116481768Y-114578383D02*
X116696981Y-114551414D01*
X25898205Y-102144138D02*
X26080404Y-102261815D01*
X75598205Y-71555861D02*
X75422098Y-71682473D01*
X66348648Y-79500000D02*
X66565477Y-79494592D01*
X119580578Y-65989284D02*
X119702760Y-65810076D01*
X77831818Y-47405407D02*
X77615527Y-47421616D01*
X74934627Y-107212669D02*
X74787099Y-107371666D01*
X25898205Y-90444138D02*
X26080404Y-90561815D01*
X117536435Y-32437662D02*
X117738339Y-32358421D01*
X26461253Y-47830785D02*
X26268243Y-47929736D01*
X70219590Y-49765483D02*
X70115858Y-49575000D01*
X119449614Y-49037819D02*
X119310196Y-48871666D01*
X76358956Y-79158421D02*
X76560860Y-79237662D01*
X87765765Y-82500000D02*
X78048648Y-82500000D01*
X74177705Y-65434516D02*
X74281437Y-65625000D01*
X76766462Y-94393258D02*
X76560860Y-94462337D01*
X106331530Y-117600000D02*
X106331530Y-114600000D01*
X120097948Y-100139233D02*
X120172131Y-99935416D01*
X38065765Y-82500000D02*
X28348648Y-82500000D01*
X75252521Y-55082293D02*
X75422098Y-55217526D01*
X24299347Y-85260766D02*
X24266868Y-85350000D01*
X75968243Y-67270263D02*
X76161253Y-67369214D01*
X69610196Y-60571666D02*
X69462668Y-60412669D01*
X116265477Y-102894592D02*
X116481768Y-102878383D01*
X76161253Y-106330785D02*
X75968243Y-106429736D01*
X27275253Y-91065486D02*
X27486712Y-91113750D01*
X69880578Y-72610715D02*
X69749614Y-72437819D01*
X74647681Y-72437819D02*
X74516717Y-72610715D01*
X69749614Y-54462180D02*
X69880578Y-54289284D01*
X24816717Y-65989284D02*
X24947681Y-66162180D01*
X69880578Y-89389284D02*
X70002760Y-89210076D01*
X66781768Y-67778383D02*
X66996981Y-67751414D01*
X75968243Y-59629736D02*
X75780404Y-59738184D01*
X119310196Y-101428333D02*
X119449614Y-101262180D01*
X74281437Y-65625000D02*
X74394535Y-65810076D01*
X26268243Y-102370263D02*
X26461253Y-102469214D01*
X76560860Y-44137662D02*
X76766462Y-44206741D01*
X74177705Y-88834516D02*
X74281437Y-89025000D01*
X74281437Y-112425000D02*
X74394535Y-112610076D01*
X24816717Y-30889284D02*
X24947681Y-31062180D01*
X119007399Y-54938775D02*
X119162668Y-54787330D01*
X75252521Y-78482293D02*
X75422098Y-78617526D01*
X123397295Y-76650000D02*
X123397295Y-85350000D01*
X117738339Y-114258421D02*
X117936042Y-114169214D01*
X56631530Y-105900000D02*
X56631530Y-102900000D01*
X38065765Y-114600000D02*
X38065765Y-117600000D01*
X26658956Y-32358421D02*
X26860860Y-32437662D01*
X87765765Y-105900000D02*
X78048648Y-105900000D01*
X75780404Y-32061815D02*
X75968243Y-32170263D01*
X68236042Y-36130785D02*
X68038339Y-36041578D01*
X74281437Y-84675000D02*
X74177705Y-84865483D01*
X26860860Y-90937662D02*
X27066462Y-91006741D01*
X25087099Y-83971666D02*
X24947681Y-84137819D01*
X25552521Y-78482293D02*
X25722098Y-78617526D01*
X118499090Y-83255861D02*
X118316891Y-83138184D01*
X120097948Y-26760766D02*
X120013698Y-26560901D01*
X25234627Y-72112669D02*
X25087099Y-72271666D01*
X75968243Y-90670263D02*
X76161253Y-90769214D01*
X116696981Y-105948585D02*
X116481768Y-105921616D01*
X120097948Y-76739233D02*
X120172131Y-76535416D01*
X119702760Y-54110076D02*
X119815858Y-53925000D01*
X68038339Y-94541578D02*
X67836435Y-94462337D01*
X116048648Y-114600000D02*
X116265477Y-114594592D01*
X74647681Y-84137819D02*
X74516717Y-84310715D01*
X26860860Y-47662337D02*
X26658956Y-47741578D01*
X117936042Y-106330785D02*
X117738339Y-106241578D01*
X25722098Y-43517526D02*
X25898205Y-43644138D01*
X67422042Y-59234513D02*
X67210583Y-59186249D01*
X68975197Y-36582473D02*
X68799090Y-36455861D01*
X66781768Y-91178383D02*
X66996981Y-91151414D01*
X116265477Y-114594592D02*
X116481768Y-114578383D01*
X119162668Y-89887330D02*
X119310196Y-89728333D01*
X28348648Y-102900000D02*
X38065765Y-102900000D01*
X26860860Y-32437662D02*
X27066462Y-32506741D01*
X25722098Y-36582473D02*
X25552521Y-36717706D01*
X41065765Y-32700000D02*
X53631530Y-32700000D01*
X78048648Y-47400000D02*
X77831818Y-47405407D01*
X75968243Y-83029736D02*
X75780404Y-83138184D01*
X56631530Y-82500000D02*
X56631530Y-79500000D01*
X116481768Y-102878383D02*
X116696981Y-102851414D01*
X27066462Y-114406741D02*
X27275253Y-114465486D01*
X66781768Y-56078383D02*
X66996981Y-56051414D01*
X116481768Y-82521616D02*
X116265477Y-82505407D01*
X25234627Y-101587330D02*
X25389896Y-101738775D01*
X28131818Y-56094592D02*
X28348648Y-56100000D01*
X77831818Y-59105407D02*
X77615527Y-59121616D01*
X26080404Y-48038184D02*
X25898205Y-48155861D01*
X24477705Y-77134516D02*
X24581437Y-77325000D01*
X118844774Y-90182293D02*
X119007399Y-90038775D01*
X26860860Y-114337662D02*
X27066462Y-114406741D01*
X123397295Y-108750000D02*
X120130427Y-108750000D01*
X69462668Y-113287330D02*
X69610196Y-113128333D01*
X28348648Y-91200000D02*
X38065765Y-91200000D01*
X69749614Y-84137819D02*
X69610196Y-83971666D01*
X76161253Y-90769214D02*
X76358956Y-90858421D01*
X75598205Y-106655861D02*
X75422098Y-106782473D01*
X68799090Y-78744138D02*
X68975197Y-78617526D01*
X117536435Y-94462337D02*
X117330833Y-94393258D01*
X68975197Y-66917526D02*
X69144774Y-66782293D01*
X27915527Y-94221616D02*
X27700314Y-94248585D01*
X69307399Y-36861224D02*
X69144774Y-36717706D01*
X68236042Y-71230785D02*
X68038339Y-71141578D01*
X120097948Y-29939233D02*
X120172131Y-29735416D01*
X70430427Y-111750000D02*
X73966868Y-111750000D01*
X117936042Y-24430785D02*
X117738339Y-24341578D01*
X69307399Y-101738775D02*
X69462668Y-101587330D01*
X76766462Y-70993258D02*
X76560860Y-71062337D01*
X117936042Y-94630785D02*
X117738339Y-94541578D01*
X117122042Y-44265486D02*
X117330833Y-44206741D01*
X74281437Y-72975000D02*
X74177705Y-73165483D01*
X25722098Y-71682473D02*
X25552521Y-71817706D01*
X116265477Y-70805407D02*
X116048648Y-70800000D01*
X66348648Y-70800000D02*
X56631530Y-70800000D01*
X41065765Y-105900000D02*
X41065765Y-102900000D01*
X70397948Y-53339233D02*
X70472131Y-53135416D01*
X68975197Y-55217526D02*
X69144774Y-55082293D01*
X21000000Y-76650000D02*
X24266868Y-76650000D01*
X117330833Y-94393258D02*
X117122042Y-94334513D01*
X119310196Y-89728333D02*
X119449614Y-89562180D01*
X75968243Y-32170263D02*
X76161253Y-32269214D01*
X27486712Y-82586249D02*
X27275253Y-82634513D01*
X76560860Y-106162337D02*
X76358956Y-106241578D01*
X26080404Y-59738184D02*
X25898205Y-59855861D01*
X69144774Y-60117706D02*
X68975197Y-59982473D01*
X27486712Y-47486249D02*
X27275253Y-47534513D01*
X26080404Y-78861815D02*
X26268243Y-78970263D01*
X117122042Y-35834513D02*
X116910583Y-35786249D01*
X119162668Y-66487330D02*
X119310196Y-66328333D01*
X66781768Y-79478383D02*
X66996981Y-79451414D01*
X70115858Y-61275000D02*
X70002760Y-61089923D01*
X66781768Y-105921616D02*
X66565477Y-105905407D01*
X119449614Y-107537819D02*
X119310196Y-107371666D01*
X77615527Y-79478383D02*
X77831818Y-79494592D01*
X68038339Y-71141578D02*
X67836435Y-71062337D01*
X67210583Y-105986249D02*
X66996981Y-105948585D01*
X24299347Y-29939233D02*
X24383597Y-30139098D01*
X120097948Y-111839233D02*
X120172131Y-111635416D01*
X74394535Y-42410076D02*
X74516717Y-42589284D01*
X76161253Y-32269214D02*
X76358956Y-32358421D01*
X117122042Y-67665486D02*
X117330833Y-67606741D01*
X24383597Y-61660901D02*
X24299347Y-61860766D01*
X38065765Y-94200000D02*
X28348648Y-94200000D01*
X74394535Y-37689923D02*
X74281437Y-37875000D01*
X116481768Y-32678383D02*
X116696981Y-32651414D01*
X75968243Y-24529736D02*
X75780404Y-24638184D01*
X26268243Y-43870263D02*
X26461253Y-43969214D01*
X73925164Y-29735416D02*
X73999347Y-29939233D01*
X24947681Y-66162180D02*
X25087099Y-66328333D01*
X74083597Y-49960901D02*
X73999347Y-50160766D01*
X103331530Y-35700000D02*
X90765765Y-35700000D01*
X118844774Y-83517706D02*
X118675197Y-83382473D01*
X76975253Y-82634513D02*
X76766462Y-82693258D01*
X73966868Y-50250000D02*
X70430427Y-50250000D01*
X118129052Y-67270263D02*
X118316891Y-67161815D01*
X25722098Y-95082473D02*
X25552521Y-95217706D01*
X24947681Y-112962180D02*
X25087099Y-113128333D01*
X70115858Y-84675000D02*
X70002760Y-84489923D01*
X118499090Y-78744138D02*
X118675197Y-78617526D01*
X119310196Y-54628333D02*
X119449614Y-54462180D01*
X67630833Y-67606741D02*
X67836435Y-67537662D01*
X73925164Y-38664583D02*
X73966868Y-38550000D01*
X25389896Y-54938775D02*
X25552521Y-55082293D01*
X74083597Y-96760901D02*
X73999347Y-96960766D01*
X70472131Y-99935416D02*
X70430427Y-100050000D01*
X116048648Y-24000000D02*
X106331530Y-24000000D01*
X28131818Y-105905407D02*
X27915527Y-105921616D01*
X116481768Y-79478383D02*
X116696981Y-79451414D01*
X116696981Y-67751414D02*
X116910583Y-67713750D01*
X27275253Y-79365486D02*
X27486712Y-79413750D01*
X24299347Y-53339233D02*
X24383597Y-53539098D01*
X68616891Y-83138184D02*
X68429052Y-83029736D01*
X68616891Y-43761815D02*
X68799090Y-43644138D01*
X68038339Y-106241578D02*
X67836435Y-106162337D01*
X27275253Y-59234513D02*
X27066462Y-59293258D01*
X24581437Y-72975000D02*
X24477705Y-73165483D01*
X120013698Y-108460901D02*
X119919590Y-108265483D01*
X24694535Y-72789923D02*
X24581437Y-72975000D01*
X27486712Y-44313750D02*
X27700314Y-44351414D01*
X66781768Y-114578383D02*
X66996981Y-114551414D01*
X75089896Y-90038775D02*
X75252521Y-90182293D01*
X27066462Y-47593258D02*
X26860860Y-47662337D01*
X70397948Y-100139233D02*
X70472131Y-99935416D01*
X120013698Y-41839098D02*
X120097948Y-41639233D01*
X69144774Y-78482293D02*
X69307399Y-78338775D01*
X76560860Y-67537662D02*
X76766462Y-67606741D01*
X67422042Y-70934513D02*
X67210583Y-70886249D01*
X70430427Y-88350000D02*
X73966868Y-88350000D01*
X67836435Y-90937662D02*
X68038339Y-90858421D01*
X68038339Y-47741578D02*
X67836435Y-47662337D01*
X67836435Y-67537662D02*
X68038339Y-67458421D01*
X70313698Y-38260901D02*
X70219590Y-38065483D01*
X120130427Y-53250000D02*
X123397295Y-53250000D01*
X70397948Y-85260766D02*
X70313698Y-85060901D01*
X103331530Y-82500000D02*
X90765765Y-82500000D01*
X26268243Y-114070263D02*
X26461253Y-114169214D01*
X75780404Y-55461815D02*
X75968243Y-55570263D01*
X70430427Y-29850000D02*
X73966868Y-29850000D01*
X24477705Y-65434516D02*
X24581437Y-65625000D01*
X70397948Y-65039233D02*
X70472131Y-64835416D01*
X123397295Y-29850000D02*
X123397295Y-38550000D01*
X68799090Y-36455861D02*
X68616891Y-36338184D01*
X24816717Y-37510715D02*
X24694535Y-37689923D01*
X76975253Y-67665486D02*
X77186712Y-67713750D01*
X87765765Y-114600000D02*
X87765765Y-117600000D01*
X74934627Y-113287330D02*
X75089896Y-113438775D01*
X66996981Y-94248585D02*
X66781768Y-94221616D01*
X70313698Y-41839098D02*
X70397948Y-41639233D01*
X120130427Y-97050000D02*
X120172131Y-97164583D01*
X74177705Y-84865483D02*
X74083597Y-85060901D01*
X74083597Y-76939098D02*
X74177705Y-77134516D01*
X24581437Y-30525000D02*
X24694535Y-30710076D01*
X116696981Y-35748585D02*
X116481768Y-35721616D01*
X119580578Y-77689284D02*
X119702760Y-77510076D01*
X120172131Y-76535416D02*
X120130427Y-76650000D01*
X24299347Y-61860766D02*
X24266868Y-61950000D01*
X74934627Y-60412669D02*
X74787099Y-60571666D01*
X116265477Y-35705407D02*
X116048648Y-35700000D01*
X123397295Y-111750000D02*
X123397295Y-117600000D01*
X56631530Y-102900000D02*
X66348648Y-102900000D01*
X26080404Y-94838184D02*
X25898205Y-94955861D01*
X119162668Y-83812669D02*
X119007399Y-83661224D01*
X78048648Y-32700000D02*
X87765765Y-32700000D01*
X117738339Y-55758421D02*
X117936042Y-55669214D01*
X66565477Y-56094592D02*
X66781768Y-56078383D01*
X117122042Y-114465486D02*
X117330833Y-114406741D01*
X24694535Y-84489923D02*
X24581437Y-84675000D01*
X75598205Y-67044138D02*
X75780404Y-67161815D01*
X74177705Y-30334516D02*
X74281437Y-30525000D01*
X119702760Y-49389923D02*
X119580578Y-49210715D01*
X26860860Y-44137662D02*
X27066462Y-44206741D01*
X68038339Y-32358421D02*
X68236042Y-32269214D01*
X68975197Y-31817526D02*
X69144774Y-31682293D01*
X24947681Y-60737819D02*
X24816717Y-60910715D01*
X90765765Y-35700000D02*
X90765765Y-32700000D01*
X24477705Y-84865483D02*
X24383597Y-85060901D01*
X74083597Y-65239098D02*
X74177705Y-65434516D01*
X76161253Y-67369214D02*
X76358956Y-67458421D01*
X67422042Y-91065486D02*
X67630833Y-91006741D01*
X70115858Y-49575000D02*
X70002760Y-49389923D01*
X77615527Y-102878383D02*
X77831818Y-102894592D01*
X69462668Y-43087330D02*
X69610196Y-42928333D01*
X26268243Y-71329736D02*
X26080404Y-71438184D01*
X74177705Y-49765483D02*
X74083597Y-49960901D01*
X116910583Y-44313750D02*
X117122042Y-44265486D01*
X70313698Y-85060901D02*
X70219590Y-84865483D01*
X116910583Y-82586249D02*
X116696981Y-82548585D01*
X117936042Y-36130785D02*
X117738339Y-36041578D01*
X75089896Y-25161224D02*
X74934627Y-25312669D01*
X76560860Y-47662337D02*
X76358956Y-47741578D01*
X24947681Y-42762180D02*
X25087099Y-42928333D01*
X27066462Y-91006741D02*
X27275253Y-91065486D01*
X26080404Y-55461815D02*
X26268243Y-55570263D01*
X77186712Y-44313750D02*
X77400314Y-44351414D01*
X70219590Y-108265483D02*
X70115858Y-108075000D01*
X70430427Y-38550000D02*
X70472131Y-38664583D01*
X74516717Y-65989284D02*
X74647681Y-66162180D01*
X26461253Y-106330785D02*
X26268243Y-106429736D01*
X78048648Y-70800000D02*
X77831818Y-70805407D01*
X67630833Y-102706741D02*
X67836435Y-102637662D01*
X67630833Y-106093258D02*
X67422042Y-106034513D01*
X67210583Y-102813750D02*
X67422042Y-102765486D01*
X21000000Y-117600000D02*
X21000000Y-21000000D01*
X119449614Y-112962180D02*
X119580578Y-112789284D01*
X106331530Y-70800000D02*
X106331530Y-67800000D01*
X74394535Y-112610076D02*
X74516717Y-112789284D01*
X28131818Y-91194592D02*
X28348648Y-91200000D01*
X120130427Y-76650000D02*
X123397295Y-76650000D01*
X70313698Y-73360901D02*
X70219590Y-73165483D01*
X67836435Y-79237662D02*
X68038339Y-79158421D01*
X24694535Y-107889923D02*
X24581437Y-108075000D01*
X69307399Y-107061224D02*
X69144774Y-106917706D01*
X117738339Y-32358421D02*
X117936042Y-32269214D01*
X67630833Y-55906741D02*
X67836435Y-55837662D01*
X24581437Y-65625000D02*
X24694535Y-65810076D01*
X53631530Y-114600000D02*
X53631530Y-117600000D01*
X74647681Y-95837819D02*
X74516717Y-96010715D01*
X69880578Y-37510715D02*
X69749614Y-37337819D01*
X67210583Y-67713750D02*
X67422042Y-67665486D01*
X75780404Y-90561815D02*
X75968243Y-90670263D01*
X74177705Y-96565483D02*
X74083597Y-96760901D01*
X77186712Y-114513750D02*
X77400314Y-114551414D01*
X118675197Y-102017526D02*
X118844774Y-101882293D01*
X120013698Y-85060901D02*
X119919590Y-84865483D01*
X75252521Y-43382293D02*
X75422098Y-43517526D01*
X70002760Y-72789923D02*
X69880578Y-72610715D01*
X117330833Y-47593258D02*
X117122042Y-47534513D01*
X24947681Y-54462180D02*
X25087099Y-54628333D01*
X26268243Y-67270263D02*
X26461253Y-67369214D01*
X117738339Y-90858421D02*
X117936042Y-90769214D01*
X119702760Y-96189923D02*
X119580578Y-96010715D01*
X69610196Y-48871666D02*
X69462668Y-48712669D01*
X25722098Y-31817526D02*
X25898205Y-31944138D01*
X27066462Y-82693258D02*
X26860860Y-82762337D01*
X27486712Y-24086249D02*
X27275253Y-24134513D01*
X74083597Y-112039098D02*
X74177705Y-112234516D01*
X70472131Y-73764583D02*
X70397948Y-73560766D01*
X120172131Y-99935416D02*
X120130427Y-100050000D01*
X69610196Y-78028333D02*
X69749614Y-77862180D01*
X66996981Y-67751414D02*
X67210583Y-67713750D01*
X75780404Y-83138184D02*
X75598205Y-83255861D01*
X67836435Y-24262337D02*
X67630833Y-24193258D01*
X70430427Y-41550000D02*
X73966868Y-41550000D01*
X25234627Y-83812669D02*
X25087099Y-83971666D01*
X117536435Y-82762337D02*
X117330833Y-82693258D01*
X123397295Y-50250000D02*
X120130427Y-50250000D01*
X74281437Y-49575000D02*
X74177705Y-49765483D01*
X75780404Y-43761815D02*
X75968243Y-43870263D01*
X27486712Y-102813750D02*
X27700314Y-102851414D01*
X117738339Y-94541578D02*
X117536435Y-94462337D01*
X74394535Y-96189923D02*
X74281437Y-96375000D01*
X118129052Y-94729736D02*
X117936042Y-94630785D01*
X76975253Y-24134513D02*
X76766462Y-24193258D01*
X116048648Y-91200000D02*
X116265477Y-91194592D01*
X120013698Y-53539098D02*
X120097948Y-53339233D01*
X25552521Y-106917706D02*
X25389896Y-107061224D01*
X75780404Y-102261815D02*
X75968243Y-102370263D01*
X66996981Y-24048585D02*
X66781768Y-24021616D01*
X66565477Y-91194592D02*
X66781768Y-91178383D01*
X24816717Y-89389284D02*
X24947681Y-89562180D01*
X120130427Y-85350000D02*
X120172131Y-85464583D01*
X76766462Y-44206741D02*
X76975253Y-44265486D01*
X119919590Y-73165483D02*
X119815858Y-72975000D01*
X70397948Y-38460766D02*
X70313698Y-38260901D01*
X117122042Y-47534513D02*
X116910583Y-47486249D01*
X67422042Y-106034513D02*
X67210583Y-105986249D01*
X75422098Y-31817526D02*
X75598205Y-31944138D01*
X25087099Y-25471666D02*
X24947681Y-25637819D01*
X68038339Y-79158421D02*
X68236042Y-79069214D01*
X67422042Y-24134513D02*
X67210583Y-24086249D01*
X118844774Y-60117706D02*
X118675197Y-59982473D01*
X26860860Y-67537662D02*
X27066462Y-67606741D01*
X66348648Y-91200000D02*
X66565477Y-91194592D01*
X69462668Y-60412669D02*
X69307399Y-60261224D01*
X68236042Y-32269214D02*
X68429052Y-32170263D01*
X26658956Y-47741578D02*
X26461253Y-47830785D01*
X56631530Y-94200000D02*
X56631530Y-91200000D01*
X67836435Y-82762337D02*
X67630833Y-82693258D01*
X26268243Y-24529736D02*
X26080404Y-24638184D01*
X38065765Y-44400000D02*
X38065765Y-47400000D01*
X119580578Y-72610715D02*
X119449614Y-72437819D01*
X76975253Y-44265486D02*
X77186712Y-44313750D01*
X118316891Y-32061815D02*
X118499090Y-31944138D01*
X69880578Y-65989284D02*
X70002760Y-65810076D01*
X28131818Y-79494592D02*
X28348648Y-79500000D01*
X77400314Y-56051414D02*
X77615527Y-56078383D01*
X24947681Y-107537819D02*
X24816717Y-107710715D01*
X66781768Y-59121616D02*
X66565477Y-59105407D01*
X116696981Y-94248585D02*
X116481768Y-94221616D01*
X28348648Y-114600000D02*
X38065765Y-114600000D01*
X70430427Y-97050000D02*
X70472131Y-97164583D01*
X90765765Y-94200000D02*
X90765765Y-91200000D01*
X41065765Y-94200000D02*
X41065765Y-91200000D01*
X70115858Y-96375000D02*
X70002760Y-96189923D01*
X24581437Y-53925000D02*
X24694535Y-54110076D01*
X26658956Y-59441578D02*
X26461253Y-59530785D01*
X25898205Y-83255861D02*
X25722098Y-83382473D01*
X77615527Y-94221616D02*
X77400314Y-94248585D01*
X67422042Y-32565486D02*
X67630833Y-32506741D01*
X68616891Y-67161815D02*
X68799090Y-67044138D01*
X119310196Y-25471666D02*
X119162668Y-25312669D01*
X27275253Y-24134513D02*
X27066462Y-24193258D01*
X118499090Y-106655861D02*
X118316891Y-106538184D01*
X73966868Y-97050000D02*
X70430427Y-97050000D01*
X75422098Y-55217526D02*
X75598205Y-55344138D01*
X103331530Y-59100000D02*
X90765765Y-59100000D01*
X53631530Y-94200000D02*
X41065765Y-94200000D01*
X120097948Y-53339233D02*
X120172131Y-53135416D01*
X28131818Y-94205407D02*
X27915527Y-94221616D01*
X68429052Y-71329736D02*
X68236042Y-71230785D01*
X75422098Y-24882473D02*
X75252521Y-25017706D01*
X74177705Y-42034516D02*
X74281437Y-42225000D01*
X77831818Y-102894592D02*
X78048648Y-102900000D01*
X117330833Y-79306741D02*
X117536435Y-79237662D01*
X67836435Y-55837662D02*
X68038339Y-55758421D01*
X24694535Y-112610076D02*
X24816717Y-112789284D01*
X116048648Y-59100000D02*
X106331530Y-59100000D01*
X117330833Y-32506741D02*
X117536435Y-32437662D01*
X24299347Y-50160766D02*
X24266868Y-50250000D01*
X28348648Y-67800000D02*
X38065765Y-67800000D01*
X117122042Y-82634513D02*
X116910583Y-82586249D01*
X24299347Y-96960766D02*
X24266868Y-97050000D01*
X75252521Y-95217706D02*
X75089896Y-95361224D01*
X67630833Y-79306741D02*
X67836435Y-79237662D01*
X24477705Y-26365483D02*
X24383597Y-26560901D01*
X118499090Y-55344138D02*
X118675197Y-55217526D01*
X74281437Y-61275000D02*
X74177705Y-61465483D01*
X75252521Y-90182293D02*
X75422098Y-90317526D01*
X74281437Y-96375000D02*
X74177705Y-96565483D01*
X24299347Y-73560766D02*
X24266868Y-73650000D01*
X103331530Y-56100000D02*
X103331530Y-59100000D01*
X68429052Y-106429736D02*
X68236042Y-106330785D01*
X74083597Y-73360901D02*
X73999347Y-73560766D01*
X25389896Y-71961224D02*
X25234627Y-72112669D01*
X74281437Y-100725000D02*
X74394535Y-100910076D01*
X24694535Y-96189923D02*
X24581437Y-96375000D01*
X26658956Y-102558421D02*
X26860860Y-102637662D01*
X21000000Y-53250000D02*
X24266868Y-53250000D01*
X25087099Y-89728333D02*
X25234627Y-89887330D01*
X75968243Y-71329736D02*
X75780404Y-71438184D01*
X73966868Y-111750000D02*
X73925164Y-111635416D01*
X25389896Y-36861224D02*
X25234627Y-37012669D01*
X116048648Y-102900000D02*
X116265477Y-102894592D01*
X76358956Y-71141578D02*
X76161253Y-71230785D01*
X75598205Y-31944138D02*
X75780404Y-32061815D01*
X76358956Y-47741578D02*
X76161253Y-47830785D01*
X116048648Y-67800000D02*
X116265477Y-67794592D01*
X70313698Y-65239098D02*
X70397948Y-65039233D01*
X118675197Y-78617526D02*
X118844774Y-78482293D01*
X41065765Y-56100000D02*
X53631530Y-56100000D01*
X68799090Y-59855861D02*
X68616891Y-59738184D01*
X70313698Y-108460901D02*
X70219590Y-108265483D01*
X24383597Y-85060901D02*
X24299347Y-85260766D01*
X73925164Y-85464583D02*
X73966868Y-85350000D01*
X116910583Y-56013750D02*
X117122042Y-55965486D01*
X67210583Y-94286249D02*
X66996981Y-94248585D01*
X53631530Y-82500000D02*
X41065765Y-82500000D01*
X27700314Y-70848585D02*
X27486712Y-70886249D01*
X74787099Y-89728333D02*
X74934627Y-89887330D01*
X66348648Y-56100000D02*
X66565477Y-56094592D01*
X90765765Y-82500000D02*
X90765765Y-79500000D01*
X27700314Y-82548585D02*
X27486712Y-82586249D01*
X73966868Y-61950000D02*
X70430427Y-61950000D01*
X68038339Y-36041578D02*
X67836435Y-35962337D01*
X120013698Y-96760901D02*
X119919590Y-96565483D01*
X66565477Y-67794592D02*
X66781768Y-67778383D01*
X118844774Y-66782293D02*
X119007399Y-66638775D01*
X120172131Y-29735416D02*
X120130427Y-29850000D01*
X53631530Y-117600000D02*
X41065765Y-117600000D01*
X70397948Y-26760766D02*
X70313698Y-26560901D01*
X41065765Y-117600000D02*
X41065765Y-114600000D01*
X117330833Y-114406741D02*
X117536435Y-114337662D01*
X77400314Y-82548585D02*
X77186712Y-82586249D01*
X27486712Y-32613750D02*
X27700314Y-32651414D01*
X119815858Y-30525000D02*
X119919590Y-30334516D01*
X120130427Y-73650000D02*
X120172131Y-73764583D01*
X70115858Y-37875000D02*
X70002760Y-37689923D01*
X66348648Y-59100000D02*
X56631530Y-59100000D01*
X24581437Y-42225000D02*
X24694535Y-42410076D01*
X70397948Y-73560766D02*
X70313698Y-73360901D01*
X69462668Y-54787330D02*
X69610196Y-54628333D01*
X24816717Y-112789284D02*
X24947681Y-112962180D01*
X26268243Y-78970263D02*
X26461253Y-79069214D01*
X87765765Y-35700000D02*
X78048648Y-35700000D01*
X116265477Y-24005407D02*
X116048648Y-24000000D01*
X66996981Y-102851414D02*
X67210583Y-102813750D01*
X26658956Y-79158421D02*
X26860860Y-79237662D01*
X118844774Y-106917706D02*
X118675197Y-106782473D01*
X66565477Y-44394592D02*
X66781768Y-44378383D01*
X25389896Y-31538775D02*
X25552521Y-31682293D01*
X67630833Y-32506741D02*
X67836435Y-32437662D01*
X119580578Y-84310715D02*
X119449614Y-84137819D01*
X24477705Y-49765483D02*
X24383597Y-49960901D01*
X116696981Y-32651414D02*
X116910583Y-32613750D01*
X74083597Y-85060901D02*
X73999347Y-85260766D01*
X116910583Y-59186249D02*
X116696981Y-59148585D01*
X75089896Y-66638775D02*
X75252521Y-66782293D01*
X69610196Y-95671666D02*
X69462668Y-95512669D01*
X26268243Y-83029736D02*
X26080404Y-83138184D01*
X69880578Y-60910715D02*
X69749614Y-60737819D01*
X74394535Y-107889923D02*
X74281437Y-108075000D01*
X41065765Y-70800000D02*
X41065765Y-67800000D01*
X75422098Y-71682473D02*
X75252521Y-71817706D01*
X118675197Y-24882473D02*
X118499090Y-24755861D01*
X118675197Y-43517526D02*
X118844774Y-43382293D01*
X69749614Y-42762180D02*
X69880578Y-42589284D01*
X73966868Y-64950000D02*
X73925164Y-64835416D01*
X106331530Y-114600000D02*
X116048648Y-114600000D01*
X76560860Y-94462337D02*
X76358956Y-94541578D01*
X24299347Y-76739233D02*
X24383597Y-76939098D01*
X67422042Y-47534513D02*
X67210583Y-47486249D01*
X25234627Y-48712669D02*
X25087099Y-48871666D01*
X70472131Y-64835416D02*
X70430427Y-64950000D01*
X119580578Y-30889284D02*
X119702760Y-30710076D01*
X26658956Y-71141578D02*
X26461253Y-71230785D01*
X27066462Y-67606741D02*
X27275253Y-67665486D01*
X87765765Y-56100000D02*
X87765765Y-59100000D01*
X70219590Y-88834516D02*
X70313698Y-88639098D01*
X25898205Y-43644138D02*
X26080404Y-43761815D01*
X118499090Y-71555861D02*
X118316891Y-71438184D01*
X70115858Y-108075000D02*
X70002760Y-107889923D01*
X119310196Y-95671666D02*
X119162668Y-95512669D01*
X69880578Y-96010715D02*
X69749614Y-95837819D01*
X117738339Y-79158421D02*
X117936042Y-79069214D01*
X70115858Y-53925000D02*
X70219590Y-53734516D01*
X28131818Y-24005407D02*
X27915527Y-24021616D01*
X25552521Y-71817706D02*
X25389896Y-71961224D01*
X28131818Y-82505407D02*
X27915527Y-82521616D01*
X26268243Y-32170263D02*
X26461253Y-32269214D01*
X25898205Y-55344138D02*
X26080404Y-55461815D01*
X74083597Y-61660901D02*
X73999347Y-61860766D01*
X118129052Y-106429736D02*
X117936042Y-106330785D01*
X120172131Y-73764583D02*
X120097948Y-73560766D01*
X74083597Y-53539098D02*
X74177705Y-53734516D01*
X70472131Y-76535416D02*
X70430427Y-76650000D01*
X119007399Y-31538775D02*
X119162668Y-31387330D01*
X73999347Y-108660766D02*
X73925164Y-108864583D01*
X119162668Y-60412669D02*
X119007399Y-60261224D01*
X117330833Y-44206741D02*
X117536435Y-44137662D01*
X69610196Y-107371666D02*
X69462668Y-107212669D01*
X116048648Y-79500000D02*
X116265477Y-79494592D01*
X24816717Y-25810715D02*
X24694535Y-25989923D01*
X27275253Y-44265486D02*
X27486712Y-44313750D01*
X24581437Y-61275000D02*
X24477705Y-61465483D01*
X117536435Y-114337662D02*
X117738339Y-114258421D01*
X118499090Y-67044138D02*
X118675197Y-66917526D01*
X69880578Y-54289284D02*
X70002760Y-54110076D01*
X76560860Y-114337662D02*
X76766462Y-114406741D01*
X68236042Y-24430785D02*
X68038339Y-24341578D01*
X70002760Y-107889923D02*
X69880578Y-107710715D01*
X27915527Y-91178383D02*
X28131818Y-91194592D01*
X87765765Y-24000000D02*
X78048648Y-24000000D01*
X118675197Y-55217526D02*
X118844774Y-55082293D01*
X69749614Y-49037819D02*
X69610196Y-48871666D01*
X119815858Y-42225000D02*
X119919590Y-42034516D01*
X118675197Y-113717526D02*
X118844774Y-113582293D01*
X66348648Y-35700000D02*
X56631530Y-35700000D01*
X77400314Y-44351414D02*
X77615527Y-44378383D01*
X120172131Y-50364583D02*
X120097948Y-50160766D01*
X75780404Y-59738184D02*
X75598205Y-59855861D01*
X116696981Y-70848585D02*
X116481768Y-70821616D01*
X117536435Y-67537662D02*
X117738339Y-67458421D01*
X25898205Y-67044138D02*
X26080404Y-67161815D01*
X69610196Y-66328333D02*
X69749614Y-66162180D01*
X68236042Y-94630785D02*
X68038339Y-94541578D01*
X75422098Y-59982473D02*
X75252521Y-60117706D01*
X67210583Y-24086249D02*
X66996981Y-24048585D01*
X116910583Y-94286249D02*
X116696981Y-94248585D01*
X75968243Y-78970263D02*
X76161253Y-79069214D01*
X66348648Y-44400000D02*
X66565477Y-44394592D01*
X118844774Y-113582293D02*
X119007399Y-113438775D01*
X76975253Y-114465486D02*
X77186712Y-114513750D01*
X123397295Y-61950000D02*
X120130427Y-61950000D01*
X27066462Y-55906741D02*
X27275253Y-55965486D01*
X120013698Y-100339098D02*
X120097948Y-100139233D01*
X69307399Y-90038775D02*
X69462668Y-89887330D01*
X66348648Y-105900000D02*
X56631530Y-105900000D01*
X74934627Y-101587330D02*
X75089896Y-101738775D01*
X68799090Y-83255861D02*
X68616891Y-83138184D01*
X117330833Y-91006741D02*
X117536435Y-90937662D01*
X120013698Y-112039098D02*
X120097948Y-111839233D01*
X74647681Y-89562180D02*
X74787099Y-89728333D01*
X75780404Y-36338184D02*
X75598205Y-36455861D01*
X24477705Y-112234516D02*
X24581437Y-112425000D01*
X68975197Y-48282473D02*
X68799090Y-48155861D01*
X73925164Y-53135416D02*
X73999347Y-53339233D01*
X77831818Y-32694592D02*
X78048648Y-32700000D01*
X26860860Y-59362337D02*
X26658956Y-59441578D01*
X119162668Y-78187330D02*
X119310196Y-78028333D01*
X117738339Y-24341578D02*
X117536435Y-24262337D01*
X25552521Y-60117706D02*
X25389896Y-60261224D01*
X120130427Y-88350000D02*
X123397295Y-88350000D01*
X28131818Y-32694592D02*
X28348648Y-32700000D01*
X117122042Y-32565486D02*
X117330833Y-32506741D01*
X76766462Y-102706741D02*
X76975253Y-102765486D01*
X26860860Y-71062337D02*
X26658956Y-71141578D01*
X24694535Y-77510076D02*
X24816717Y-77689284D01*
X75598205Y-43644138D02*
X75780404Y-43761815D01*
X106331530Y-59100000D02*
X106331530Y-56100000D01*
X77615527Y-35721616D02*
X77400314Y-35748585D01*
X27915527Y-79478383D02*
X28131818Y-79494592D01*
X25087099Y-95671666D02*
X24947681Y-95837819D01*
X119702760Y-37689923D02*
X119580578Y-37510715D01*
X28348648Y-56100000D02*
X38065765Y-56100000D01*
X66565477Y-32694592D02*
X66781768Y-32678383D01*
X74787099Y-54628333D02*
X74934627Y-54787330D01*
X118844774Y-43382293D02*
X119007399Y-43238775D01*
X120013698Y-49960901D02*
X119919590Y-49765483D01*
X119815858Y-108075000D02*
X119702760Y-107889923D01*
X69307399Y-31538775D02*
X69462668Y-31387330D01*
X74281437Y-30525000D02*
X74394535Y-30710076D01*
X26461253Y-43969214D02*
X26658956Y-44058421D01*
X27066462Y-102706741D02*
X27275253Y-102765486D01*
X67630833Y-91006741D02*
X67836435Y-90937662D01*
X27915527Y-102878383D02*
X28131818Y-102894592D01*
X21000000Y-38550000D02*
X21000000Y-41550000D01*
X67836435Y-106162337D02*
X67630833Y-106093258D01*
X68616891Y-106538184D02*
X68429052Y-106429736D01*
X118675197Y-66917526D02*
X118844774Y-66782293D01*
X73966868Y-76650000D02*
X73925164Y-76535416D01*
X116265477Y-94205407D02*
X116048648Y-94200000D01*
X27486712Y-67713750D02*
X27700314Y-67751414D01*
X74516717Y-101089284D02*
X74647681Y-101262180D01*
X69144774Y-71817706D02*
X68975197Y-71682473D01*
X76766462Y-67606741D02*
X76975253Y-67665486D01*
X69144774Y-101882293D02*
X69307399Y-101738775D01*
X119007399Y-101738775D02*
X119162668Y-101587330D01*
X66565477Y-82505407D02*
X66348648Y-82500000D01*
X74647681Y-112962180D02*
X74787099Y-113128333D01*
X24299347Y-38460766D02*
X24266868Y-38550000D01*
X118499090Y-90444138D02*
X118675197Y-90317526D01*
X118844774Y-101882293D02*
X119007399Y-101738775D01*
X77831818Y-56094592D02*
X78048648Y-56100000D01*
X77400314Y-35748585D02*
X77186712Y-35786249D01*
X38065765Y-59100000D02*
X28348648Y-59100000D01*
X38065765Y-24000000D02*
X28348648Y-24000000D01*
X75089896Y-71961224D02*
X74934627Y-72112669D01*
X118316891Y-106538184D02*
X118129052Y-106429736D01*
X26268243Y-47929736D02*
X26080404Y-48038184D01*
X103331530Y-67800000D02*
X103331530Y-70800000D01*
X90765765Y-24000000D02*
X90765765Y-21000000D01*
X27700314Y-79451414D02*
X27915527Y-79478383D01*
X15000000Y-123600000D02*
X129397295Y-123600000D01*
X28348648Y-105900000D02*
X28131818Y-105905407D01*
X117936042Y-47830785D02*
X117738339Y-47741578D01*
X70219590Y-65434516D02*
X70313698Y-65239098D01*
X26268243Y-55570263D02*
X26461253Y-55669214D01*
X74516717Y-42589284D02*
X74647681Y-42762180D01*
X76161253Y-24430785D02*
X75968243Y-24529736D01*
X28348648Y-94200000D02*
X28131818Y-94205407D01*
X27486712Y-105986249D02*
X27275253Y-106034513D01*
X26461253Y-32269214D02*
X26658956Y-32358421D01*
X78048648Y-82500000D02*
X77831818Y-82505407D01*
X24477705Y-38065483D02*
X24383597Y-38260901D01*
X25552521Y-25017706D02*
X25389896Y-25161224D01*
X116910583Y-47486249D02*
X116696981Y-47448585D01*
X76766462Y-79306741D02*
X76975253Y-79365486D01*
X75089896Y-95361224D02*
X74934627Y-95512669D01*
X24383597Y-41839098D02*
X24477705Y-42034516D01*
X77831818Y-82505407D02*
X77615527Y-82521616D01*
X66781768Y-35721616D02*
X66565477Y-35705407D01*
X53631530Y-105900000D02*
X41065765Y-105900000D01*
X90765765Y-32700000D02*
X103331530Y-32700000D01*
X68429052Y-59629736D02*
X68236042Y-59530785D01*
X25234627Y-89887330D02*
X25389896Y-90038775D01*
X78048648Y-35700000D02*
X77831818Y-35705407D01*
X67422042Y-79365486D02*
X67630833Y-79306741D01*
X26860860Y-94462337D02*
X26658956Y-94541578D01*
X76766462Y-91006741D02*
X76975253Y-91065486D01*
X117536435Y-71062337D02*
X117330833Y-70993258D01*
X119815858Y-89025000D02*
X119919590Y-88834516D01*
X70397948Y-76739233D02*
X70472131Y-76535416D01*
X28131818Y-102894592D02*
X28348648Y-102900000D01*
X119580578Y-42589284D02*
X119702760Y-42410076D01*
X78048648Y-44400000D02*
X87765765Y-44400000D01*
X24299347Y-41639233D02*
X24383597Y-41839098D01*
X25389896Y-43238775D02*
X25552521Y-43382293D01*
X68799090Y-67044138D02*
X68975197Y-66917526D01*
X76975253Y-102765486D02*
X77186712Y-102813750D01*
X69462668Y-78187330D02*
X69610196Y-78028333D01*
X119449614Y-72437819D02*
X119310196Y-72271666D01*
X24581437Y-89025000D02*
X24694535Y-89210076D01*
X70472131Y-88235416D02*
X70430427Y-88350000D01*
X38065765Y-47400000D02*
X28348648Y-47400000D01*
X25087099Y-101428333D02*
X25234627Y-101587330D01*
X77186712Y-94286249D02*
X76975253Y-94334513D01*
X73999347Y-53339233D02*
X74083597Y-53539098D01*
X56631530Y-56100000D02*
X66348648Y-56100000D01*
X21000000Y-50250000D02*
X21000000Y-53250000D01*
X68038339Y-90858421D02*
X68236042Y-90769214D01*
X120013698Y-73360901D02*
X119919590Y-73165483D01*
X66996981Y-56051414D02*
X67210583Y-56013750D01*
X28131818Y-59105407D02*
X27915527Y-59121616D01*
X24299347Y-26760766D02*
X24266868Y-26850000D01*
X68799090Y-94955861D02*
X68616891Y-94838184D01*
X90765765Y-91200000D02*
X103331530Y-91200000D01*
X120130427Y-100050000D02*
X123397295Y-100050000D01*
X70313698Y-76939098D02*
X70397948Y-76739233D01*
X74281437Y-26175000D02*
X74177705Y-26365483D01*
X68429052Y-78970263D02*
X68616891Y-78861815D01*
X119702760Y-84489923D02*
X119580578Y-84310715D01*
X70430427Y-64950000D02*
X73966868Y-64950000D01*
X116910583Y-91113750D02*
X117122042Y-91065486D01*
X119310196Y-42928333D02*
X119449614Y-42762180D01*
X116265477Y-82505407D02*
X116048648Y-82500000D01*
X69462668Y-89887330D02*
X69610196Y-89728333D01*
X24947681Y-101262180D02*
X25087099Y-101428333D01*
X66348648Y-67800000D02*
X66565477Y-67794592D01*
X69144774Y-95217706D02*
X68975197Y-95082473D01*
X25898205Y-36455861D02*
X25722098Y-36582473D01*
X116265477Y-47405407D02*
X116048648Y-47400000D01*
X74394535Y-84489923D02*
X74281437Y-84675000D01*
X69749614Y-89562180D02*
X69880578Y-89389284D01*
X70115858Y-30525000D02*
X70219590Y-30334516D01*
X119162668Y-48712669D02*
X119007399Y-48561224D01*
X21000000Y-88350000D02*
X24266868Y-88350000D01*
X53631530Y-56100000D02*
X53631530Y-59100000D01*
X27700314Y-102851414D02*
X27915527Y-102878383D01*
X70115858Y-72975000D02*
X70002760Y-72789923D01*
X25552521Y-113582293D02*
X25722098Y-113717526D01*
X77400314Y-102851414D02*
X77615527Y-102878383D01*
X70313698Y-96760901D02*
X70219590Y-96565483D01*
X74934627Y-48712669D02*
X74787099Y-48871666D01*
X117330833Y-67606741D02*
X117536435Y-67537662D01*
X117122042Y-59234513D02*
X116910583Y-59186249D01*
X24947681Y-49037819D02*
X24816717Y-49210715D01*
X77615527Y-44378383D02*
X77831818Y-44394592D01*
X69880578Y-107710715D02*
X69749614Y-107537819D01*
X119702760Y-89210076D02*
X119815858Y-89025000D01*
X68236042Y-59530785D02*
X68038339Y-59441578D01*
X27066462Y-44206741D02*
X27275253Y-44265486D01*
X38065765Y-21000000D02*
X38065765Y-24000000D01*
X120130427Y-26850000D02*
X120172131Y-26964583D01*
X75089896Y-48561224D02*
X74934627Y-48712669D01*
X74281437Y-89025000D02*
X74394535Y-89210076D01*
X69462668Y-66487330D02*
X69610196Y-66328333D01*
X69307399Y-78338775D02*
X69462668Y-78187330D01*
X75252521Y-83517706D02*
X75089896Y-83661224D01*
X119162668Y-43087330D02*
X119310196Y-42928333D01*
X118844774Y-71817706D02*
X118675197Y-71682473D01*
X74281437Y-37875000D02*
X74177705Y-38065483D01*
X119449614Y-89562180D02*
X119580578Y-89389284D01*
X123397295Y-26850000D02*
X120130427Y-26850000D01*
X70219590Y-38065483D02*
X70115858Y-37875000D01*
X70430427Y-76650000D02*
X73966868Y-76650000D01*
X75089896Y-43238775D02*
X75252521Y-43382293D01*
X69749614Y-107537819D02*
X69610196Y-107371666D01*
X41065765Y-24000000D02*
X41065765Y-21000000D01*
X27486712Y-91113750D02*
X27700314Y-91151414D01*
X73925164Y-64835416D02*
X73999347Y-65039233D01*
X68975197Y-90317526D02*
X69144774Y-90182293D01*
X119162668Y-31387330D02*
X119310196Y-31228333D01*
X25087099Y-107371666D02*
X24947681Y-107537819D01*
X69144774Y-83517706D02*
X68975197Y-83382473D01*
X74281437Y-77325000D02*
X74394535Y-77510076D01*
X25552521Y-36717706D02*
X25389896Y-36861224D01*
X70472131Y-41435416D02*
X70430427Y-41550000D01*
X24694535Y-25989923D02*
X24581437Y-26175000D01*
X24694535Y-65810076D02*
X24816717Y-65989284D01*
X70397948Y-108660766D02*
X70313698Y-108460901D01*
X24816717Y-84310715D02*
X24694535Y-84489923D01*
X67422042Y-67665486D02*
X67630833Y-67606741D01*
X26080404Y-67161815D02*
X26268243Y-67270263D01*
X27275253Y-70934513D02*
X27066462Y-70993258D01*
X120097948Y-88439233D02*
X120172131Y-88235416D01*
X25389896Y-25161224D02*
X25234627Y-25312669D01*
X24581437Y-112425000D02*
X24694535Y-112610076D01*
X69610196Y-101428333D02*
X69749614Y-101262180D01*
X119919590Y-49765483D02*
X119815858Y-49575000D01*
X24266868Y-41550000D02*
X24299347Y-41639233D01*
X116481768Y-94221616D02*
X116265477Y-94205407D01*
X26268243Y-106429736D02*
X26080404Y-106538184D01*
X118316891Y-102261815D02*
X118499090Y-102144138D01*
X70219590Y-84865483D02*
X70115858Y-84675000D01*
X25552521Y-55082293D02*
X25722098Y-55217526D01*
X70430427Y-26850000D02*
X70472131Y-26964583D01*
X116481768Y-91178383D02*
X116696981Y-91151414D01*
X70313698Y-100339098D02*
X70397948Y-100139233D01*
X68236042Y-43969214D02*
X68429052Y-43870263D01*
X25722098Y-66917526D02*
X25898205Y-67044138D01*
X27700314Y-114551414D02*
X27915527Y-114578383D01*
X116696981Y-59148585D02*
X116481768Y-59121616D01*
X25087099Y-37171666D02*
X24947681Y-37337819D01*
X119449614Y-37337819D02*
X119310196Y-37171666D01*
X74177705Y-108265483D02*
X74083597Y-108460901D01*
X117122042Y-24134513D02*
X116910583Y-24086249D01*
X119919590Y-65434516D02*
X120013698Y-65239098D01*
X66996981Y-82548585D02*
X66781768Y-82521616D01*
X70115858Y-77325000D02*
X70219590Y-77134516D01*
X77186712Y-35786249D02*
X76975253Y-35834513D01*
X74083597Y-88639098D02*
X74177705Y-88834516D01*
X15000000Y-15000000D02*
X15000000Y-123600000D01*
X70313698Y-112039098D02*
X70397948Y-111839233D01*
X70115858Y-65625000D02*
X70219590Y-65434516D01*
X68616891Y-71438184D02*
X68429052Y-71329736D01*
X69307399Y-95361224D02*
X69144774Y-95217706D01*
X28348648Y-70800000D02*
X28131818Y-70805407D01*
X74934627Y-43087330D02*
X75089896Y-43238775D01*
X70115858Y-26175000D02*
X70002760Y-25989923D01*
X74516717Y-72610715D02*
X74394535Y-72789923D01*
X24694535Y-54110076D02*
X24816717Y-54289284D01*
X68038339Y-114258421D02*
X68236042Y-114169214D01*
X75780404Y-78861815D02*
X75968243Y-78970263D01*
X117122042Y-94334513D02*
X116910583Y-94286249D01*
X123397295Y-97050000D02*
X120130427Y-97050000D01*
X74516717Y-89389284D02*
X74647681Y-89562180D01*
X28131818Y-67794592D02*
X28348648Y-67800000D01*
X53631530Y-70800000D02*
X41065765Y-70800000D01*
X120097948Y-41639233D02*
X120172131Y-41435416D01*
X26461253Y-90769214D02*
X26658956Y-90858421D01*
X103331530Y-102900000D02*
X103331530Y-104400000D01*
X74787099Y-83971666D02*
X74647681Y-84137819D01*
X119919590Y-77134516D02*
X120013698Y-76939098D01*
X25898205Y-94955861D02*
X25722098Y-95082473D01*
X70397948Y-61860766D02*
X70313698Y-61660901D01*
X68975197Y-113717526D02*
X69144774Y-113582293D01*
X66565477Y-105905407D02*
X66348648Y-105900000D01*
X25722098Y-90317526D02*
X25898205Y-90444138D01*
X77186712Y-24086249D02*
X76975253Y-24134513D01*
X77186712Y-32613750D02*
X77400314Y-32651414D01*
X24477705Y-53734516D02*
X24581437Y-53925000D01*
X75598205Y-78744138D02*
X75780404Y-78861815D01*
X25234627Y-78187330D02*
X25389896Y-78338775D01*
X74394535Y-61089923D02*
X74281437Y-61275000D01*
X76358956Y-114258421D02*
X76560860Y-114337662D01*
X75252521Y-66782293D02*
X75422098Y-66917526D01*
X76975253Y-79365486D02*
X77186712Y-79413750D01*
X66565477Y-102894592D02*
X66781768Y-102878383D01*
X70472131Y-38664583D02*
X70397948Y-38460766D01*
X24816717Y-72610715D02*
X24694535Y-72789923D01*
X56631530Y-21000000D02*
X87765765Y-21000000D01*
X77186712Y-67713750D02*
X77400314Y-67751414D01*
X70430427Y-50250000D02*
X70472131Y-50364583D01*
X73999347Y-61860766D02*
X73925164Y-62064583D01*
X69749614Y-37337819D02*
X69610196Y-37171666D01*
X24947681Y-31062180D02*
X25087099Y-31228333D01*
X119815858Y-49575000D02*
X119702760Y-49389923D01*
X75598205Y-94955861D02*
X75422098Y-95082473D01*
X70115858Y-100725000D02*
X70219590Y-100534516D01*
X67422042Y-94334513D02*
X67210583Y-94286249D01*
X116910583Y-79413750D02*
X117122042Y-79365486D01*
X27275253Y-82634513D02*
X27066462Y-82693258D01*
X74394535Y-100910076D02*
X74516717Y-101089284D01*
X73966868Y-38550000D02*
X70430427Y-38550000D01*
X67630833Y-82693258D02*
X67422042Y-82634513D01*
X119919590Y-108265483D02*
X119815858Y-108075000D01*
X21000000Y-41550000D02*
X24266868Y-41550000D01*
X70472131Y-29735416D02*
X70430427Y-29850000D01*
X26658956Y-82841578D02*
X26461253Y-82930785D01*
X103331530Y-79500000D02*
X103331530Y-82500000D01*
X120172131Y-97164583D02*
X120097948Y-96960766D01*
X117738339Y-82841578D02*
X117536435Y-82762337D01*
X119702760Y-25989923D02*
X119580578Y-25810715D01*
X67630833Y-114406741D02*
X67836435Y-114337662D01*
X70397948Y-88439233D02*
X70472131Y-88235416D01*
X77400314Y-79451414D02*
X77615527Y-79478383D01*
X116048648Y-56100000D02*
X116265477Y-56094592D01*
X56631530Y-35700000D02*
X56631530Y-32700000D01*
X56631530Y-114600000D02*
X66348648Y-114600000D01*
X74934627Y-25312669D02*
X74787099Y-25471666D01*
X77186712Y-102813750D02*
X77400314Y-102851414D01*
X77831818Y-67794592D02*
X78048648Y-67800000D01*
X120172131Y-64835416D02*
X120130427Y-64950000D01*
X73999347Y-100139233D02*
X74083597Y-100339098D01*
X66565477Y-35705407D02*
X66348648Y-35700000D01*
X118129052Y-59629736D02*
X117936042Y-59530785D01*
X74177705Y-73165483D02*
X74083597Y-73360901D01*
X68975197Y-83382473D02*
X68799090Y-83255861D01*
X73925164Y-88235416D02*
X73999347Y-88439233D01*
X25389896Y-90038775D02*
X25552521Y-90182293D01*
X66781768Y-32678383D02*
X66996981Y-32651414D01*
X27066462Y-24193258D02*
X26860860Y-24262337D01*
X69144774Y-36717706D02*
X68975197Y-36582473D01*
X75089896Y-83661224D02*
X74934627Y-83812669D01*
X119310196Y-107371666D02*
X119162668Y-107212669D01*
X74394535Y-65810076D02*
X74516717Y-65989284D01*
X70002760Y-37689923D02*
X69880578Y-37510715D01*
X67422042Y-82634513D02*
X67210583Y-82586249D01*
X73966868Y-26850000D02*
X70430427Y-26850000D01*
X118316891Y-55461815D02*
X118499090Y-55344138D01*
X66348648Y-82500000D02*
X56631530Y-82500000D01*
X75422098Y-95082473D02*
X75252521Y-95217706D01*
X68616891Y-94838184D02*
X68429052Y-94729736D01*
X103331530Y-24000000D02*
X90765765Y-24000000D01*
X68799090Y-31944138D02*
X68975197Y-31817526D01*
X90765765Y-105900000D02*
X90765765Y-102900000D01*
X66781768Y-47421616D02*
X66565477Y-47405407D01*
X69144774Y-113582293D02*
X69307399Y-113438775D01*
X118499090Y-24755861D02*
X118316891Y-24638184D01*
X25552521Y-31682293D02*
X25722098Y-31817526D01*
X75780404Y-48038184D02*
X75598205Y-48155861D01*
X69880578Y-112789284D02*
X70002760Y-112610076D01*
X26461253Y-24430785D02*
X26268243Y-24529736D01*
X74516717Y-84310715D02*
X74394535Y-84489923D01*
X24581437Y-37875000D02*
X24477705Y-38065483D01*
X73999347Y-73560766D02*
X73925164Y-73764583D01*
X74177705Y-38065483D02*
X74083597Y-38260901D01*
X21000000Y-21000000D02*
X38065765Y-21000000D01*
X123397295Y-117600000D02*
X106331530Y-117600000D01*
X77831818Y-105905407D02*
X77615527Y-105921616D01*
X66781768Y-82521616D02*
X66565477Y-82505407D01*
X74787099Y-25471666D02*
X74647681Y-25637819D01*
X27915527Y-47421616D02*
X27700314Y-47448585D01*
X69462668Y-31387330D02*
X69610196Y-31228333D01*
X103331530Y-114600000D02*
X103331530Y-117600000D01*
X68799090Y-106655861D02*
X68616891Y-106538184D01*
X120172131Y-41435416D02*
X120130427Y-41550000D01*
X26658956Y-94541578D02*
X26461253Y-94630785D01*
X38065765Y-56100000D02*
X38065765Y-59100000D01*
X74934627Y-72112669D02*
X74787099Y-72271666D01*
X119702760Y-42410076D02*
X119815858Y-42225000D01*
X74394535Y-72789923D02*
X74281437Y-72975000D01*
X78048648Y-105900000D02*
X77831818Y-105905407D01*
X68799090Y-24755861D02*
X68616891Y-24638184D01*
X76161253Y-47830785D02*
X75968243Y-47929736D01*
X25087099Y-48871666D02*
X24947681Y-49037819D01*
X67210583Y-32613750D02*
X67422042Y-32565486D01*
X70313698Y-88639098D02*
X70397948Y-88439233D01*
X119919590Y-61465483D02*
X119815858Y-61275000D01*
X26080404Y-32061815D02*
X26268243Y-32170263D01*
X70313698Y-30139098D02*
X70397948Y-29939233D01*
X24694535Y-49389923D02*
X24581437Y-49575000D01*
X38065765Y-67800000D02*
X38065765Y-70800000D01*
X120013698Y-76939098D02*
X120097948Y-76739233D01*
X27700314Y-105948585D02*
X27486712Y-105986249D01*
X27915527Y-70821616D02*
X27700314Y-70848585D01*
X73966868Y-85350000D02*
X70430427Y-85350000D01*
X67630833Y-70993258D02*
X67422042Y-70934513D01*
X76975253Y-59234513D02*
X76766462Y-59293258D01*
X28131818Y-44394592D02*
X28348648Y-44400000D01*
X118675197Y-90317526D02*
X118844774Y-90182293D01*
X73999347Y-88439233D02*
X74083597Y-88639098D01*
X76560860Y-90937662D02*
X76766462Y-91006741D01*
X119815858Y-61275000D02*
X119702760Y-61089923D01*
X69749614Y-72437819D02*
X69610196Y-72271666D01*
X21000000Y-100050000D02*
X24266868Y-100050000D01*
X70115858Y-42225000D02*
X70219590Y-42034516D01*
X77400314Y-24048585D02*
X77186712Y-24086249D01*
X69610196Y-37171666D02*
X69462668Y-37012669D01*
X24383597Y-49960901D02*
X24299347Y-50160766D01*
X27275253Y-102765486D02*
X27486712Y-102813750D01*
X27275253Y-32565486D02*
X27486712Y-32613750D01*
X27275253Y-67665486D02*
X27486712Y-67713750D01*
X119815858Y-72975000D02*
X119702760Y-72789923D01*
X24299347Y-65039233D02*
X24383597Y-65239098D01*
X41065765Y-67800000D02*
X53631530Y-67800000D01*
X67630833Y-47593258D02*
X67422042Y-47534513D01*
X53631530Y-47400000D02*
X41065765Y-47400000D01*
X69610196Y-31228333D02*
X69749614Y-31062180D01*
X25234627Y-54787330D02*
X25389896Y-54938775D01*
X87765765Y-32700000D02*
X87765765Y-35700000D01*
X24266868Y-111750000D02*
X24299347Y-111839233D01*
X26461253Y-55669214D02*
X26658956Y-55758421D01*
X68236042Y-114169214D02*
X68429052Y-114070263D01*
X70472131Y-62064583D02*
X70397948Y-61860766D01*
X26461253Y-36130785D02*
X26268243Y-36229736D01*
X75422098Y-106782473D02*
X75252521Y-106917706D01*
X75968243Y-102370263D02*
X76161253Y-102469214D01*
X74516717Y-54289284D02*
X74647681Y-54462180D01*
X68429052Y-102370263D02*
X68616891Y-102261815D01*
X118129052Y-83029736D02*
X117936042Y-82930785D01*
X77400314Y-32651414D02*
X77615527Y-32678383D01*
X68429052Y-90670263D02*
X68616891Y-90561815D01*
X69749614Y-31062180D02*
X69880578Y-30889284D01*
X75598205Y-102144138D02*
X75780404Y-102261815D01*
X117936042Y-90769214D02*
X118129052Y-90670263D01*
X103331530Y-21000000D02*
X103331530Y-24000000D01*
X106331530Y-105900000D02*
X106331530Y-102900000D01*
X75422098Y-90317526D02*
X75598205Y-90444138D01*
X73999347Y-38460766D02*
X73925164Y-38664583D01*
X73999347Y-41639233D02*
X74083597Y-41839098D01*
X67210583Y-47486249D02*
X66996981Y-47448585D01*
X24383597Y-73360901D02*
X24299347Y-73560766D01*
X68236042Y-106330785D02*
X68038339Y-106241578D01*
X27275253Y-106034513D02*
X27066462Y-106093258D01*
X74516717Y-96010715D02*
X74394535Y-96189923D01*
X116696981Y-82548585D02*
X116481768Y-82521616D01*
X25087099Y-54628333D02*
X25234627Y-54787330D01*
X24947681Y-84137819D02*
X24816717Y-84310715D01*
X56631530Y-117600000D02*
X56631530Y-114600000D01*
X74516717Y-77689284D02*
X74647681Y-77862180D01*
X75252521Y-25017706D02*
X75089896Y-25161224D01*
X24266868Y-73650000D02*
X21000000Y-73650000D01*
X73999347Y-76739233D02*
X74083597Y-76939098D01*
X90765765Y-59100000D02*
X90765765Y-56100000D01*
X70430427Y-85350000D02*
X70472131Y-85464583D01*
X76358956Y-82841578D02*
X76161253Y-82930785D01*
X66996981Y-114551414D02*
X67210583Y-114513750D01*
X119007399Y-95361224D02*
X118844774Y-95217706D01*
X24383597Y-100339098D02*
X24477705Y-100534516D01*
X75780404Y-106538184D02*
X75598205Y-106655861D01*
X75598205Y-90444138D02*
X75780404Y-90561815D01*
X69144774Y-106917706D02*
X68975197Y-106782473D01*
X117738339Y-67458421D02*
X117936042Y-67369214D01*
X119007399Y-48561224D02*
X118844774Y-48417706D01*
X73925164Y-41435416D02*
X73999347Y-41639233D01*
X24266868Y-26850000D02*
X21000000Y-26850000D01*
X116910583Y-102813750D02*
X117122042Y-102765486D01*
X119449614Y-66162180D02*
X119580578Y-65989284D01*
X116265477Y-56094592D02*
X116481768Y-56078383D01*
X76975253Y-94334513D02*
X76766462Y-94393258D01*
X27700314Y-32651414D02*
X27915527Y-32678383D01*
X77400314Y-67751414D02*
X77615527Y-67778383D01*
X119702760Y-65810076D02*
X119815858Y-65625000D01*
X75780404Y-94838184D02*
X75598205Y-94955861D01*
X120130427Y-29850000D02*
X123397295Y-29850000D01*
X70313698Y-61660901D02*
X70219590Y-61465483D01*
X77615527Y-114578383D02*
X77831818Y-114594592D01*
X25898205Y-113844138D02*
X26080404Y-113961815D01*
X77400314Y-70848585D02*
X77186712Y-70886249D01*
X75422098Y-66917526D02*
X75598205Y-67044138D01*
X119919590Y-88834516D02*
X120013698Y-88639098D01*
X69144774Y-43382293D02*
X69307399Y-43238775D01*
X119702760Y-72789923D02*
X119580578Y-72610715D01*
X117936042Y-55669214D02*
X118129052Y-55570263D01*
X77831818Y-35705407D02*
X77615527Y-35721616D01*
X28348648Y-47400000D02*
X28131818Y-47405407D01*
X78048648Y-56100000D02*
X87765765Y-56100000D01*
X53631530Y-21000000D02*
X53631530Y-24000000D01*
X73925164Y-97164583D02*
X73966868Y-97050000D01*
X67630833Y-59293258D02*
X67422042Y-59234513D01*
X66565477Y-24005407D02*
X66348648Y-24000000D01*
X25234627Y-37012669D02*
X25087099Y-37171666D01*
X25389896Y-95361224D02*
X25234627Y-95512669D01*
X66348648Y-32700000D02*
X66565477Y-32694592D01*
X76358956Y-44058421D02*
X76560860Y-44137662D01*
X74787099Y-31228333D02*
X74934627Y-31387330D01*
X74177705Y-61465483D02*
X74083597Y-61660901D01*
X118316891Y-36338184D02*
X118129052Y-36229736D01*
X75252521Y-113582293D02*
X75422098Y-113717526D01*
X118316891Y-83138184D02*
X118129052Y-83029736D01*
X74934627Y-95512669D02*
X74787099Y-95671666D01*
X119580578Y-37510715D02*
X119449614Y-37337819D01*
X26860860Y-106162337D02*
X26658956Y-106241578D01*
X26860860Y-24262337D02*
X26658956Y-24341578D01*
X118499090Y-48155861D02*
X118316891Y-48038184D01*
X119815858Y-112425000D02*
X119919590Y-112234516D01*
X70472131Y-50364583D02*
X70397948Y-50160766D01*
X87765765Y-47400000D02*
X78048648Y-47400000D01*
X119815858Y-37875000D02*
X119702760Y-37689923D01*
X116048648Y-47400000D02*
X106331530Y-47400000D01*
X118129052Y-32170263D02*
X118316891Y-32061815D01*
X70313698Y-53539098D02*
X70397948Y-53339233D01*
X116048648Y-44400000D02*
X116265477Y-44394592D01*
X24816717Y-96010715D02*
X24694535Y-96189923D01*
X28348648Y-82500000D02*
X28131818Y-82505407D01*
X70397948Y-41639233D02*
X70472131Y-41435416D01*
X25234627Y-25312669D02*
X25087099Y-25471666D01*
X67630833Y-44206741D02*
X67836435Y-44137662D01*
X70219590Y-77134516D02*
X70313698Y-76939098D01*
X75780404Y-24638184D02*
X75598205Y-24755861D01*
X74083597Y-41839098D02*
X74177705Y-42034516D01*
X24816717Y-77689284D02*
X24947681Y-77862180D01*
X27700314Y-35748585D02*
X27486712Y-35786249D01*
X74787099Y-72271666D02*
X74647681Y-72437819D01*
X24383597Y-108460901D02*
X24299347Y-108660766D01*
X77831818Y-91194592D02*
X78048648Y-91200000D01*
X117738339Y-71141578D02*
X117536435Y-71062337D01*
X106331530Y-32700000D02*
X116048648Y-32700000D01*
X74787099Y-42928333D02*
X74934627Y-43087330D01*
X27275253Y-94334513D02*
X27066462Y-94393258D01*
X90765765Y-56100000D02*
X103331530Y-56100000D01*
X28348648Y-79500000D02*
X38065765Y-79500000D01*
X76975253Y-70934513D02*
X76766462Y-70993258D01*
X67836435Y-59362337D02*
X67630833Y-59293258D01*
X75598205Y-48155861D02*
X75422098Y-48282473D01*
X118129052Y-36229736D02*
X117936042Y-36130785D01*
X119919590Y-38065483D02*
X119815858Y-37875000D01*
X123397295Y-88350000D02*
X123397295Y-97050000D01*
X66781768Y-94221616D02*
X66565477Y-94205407D01*
X120097948Y-85260766D02*
X120013698Y-85060901D01*
X27486712Y-59186249D02*
X27275253Y-59234513D01*
X116696981Y-102851414D02*
X116910583Y-102813750D01*
X77615527Y-82521616D02*
X77400314Y-82548585D01*
X70002760Y-25989923D02*
X69880578Y-25810715D01*
X24383597Y-65239098D02*
X24477705Y-65434516D01*
X77400314Y-47448585D02*
X77186712Y-47486249D01*
X74787099Y-107371666D02*
X74647681Y-107537819D01*
X28131818Y-35705407D02*
X27915527Y-35721616D01*
X116696981Y-56051414D02*
X116910583Y-56013750D01*
X74647681Y-49037819D02*
X74516717Y-49210715D01*
X74177705Y-26365483D02*
X74083597Y-26560901D01*
X106331530Y-35700000D02*
X106331530Y-32700000D01*
X70002760Y-61089923D02*
X69880578Y-60910715D01*
X68429052Y-32170263D02*
X68616891Y-32061815D01*
X77615527Y-105921616D02*
X77400314Y-105948585D01*
X68975197Y-95082473D02*
X68799090Y-94955861D01*
X119702760Y-30710076D02*
X119815858Y-30525000D01*
X70219590Y-42034516D02*
X70313698Y-41839098D01*
X75968243Y-36229736D02*
X75780404Y-36338184D01*
X119580578Y-112789284D02*
X119702760Y-112610076D01*
X76161253Y-94630785D02*
X75968243Y-94729736D01*
X24266868Y-97050000D02*
X21000000Y-97050000D01*
X75780404Y-67161815D02*
X75968243Y-67270263D01*
X120097948Y-38460766D02*
X120013698Y-38260901D01*
X70430427Y-100050000D02*
X73966868Y-100050000D01*
X77186712Y-91113750D02*
X77400314Y-91151414D01*
X53631530Y-102900000D02*
X53631530Y-104400000D01*
X70002760Y-100910076D02*
X70115858Y-100725000D01*
X74516717Y-107710715D02*
X74394535Y-107889923D01*
X117536435Y-55837662D02*
X117738339Y-55758421D01*
X73999347Y-85260766D02*
X73925164Y-85464583D01*
X68799090Y-90444138D02*
X68975197Y-90317526D01*
X120172131Y-111635416D02*
X120130427Y-111750000D01*
X67210583Y-70886249D02*
X66996981Y-70848585D01*
X70313698Y-26560901D02*
X70219590Y-26365483D01*
X117738339Y-102558421D02*
X117936042Y-102469214D01*
X118675197Y-106782473D02*
X118499090Y-106655861D01*
X120130427Y-64950000D02*
X123397295Y-64950000D01*
X76358956Y-102558421D02*
X76560860Y-102637662D01*
X103331530Y-91200000D02*
X103331530Y-94200000D01*
X76161253Y-43969214D02*
X76358956Y-44058421D01*
X75598205Y-113844138D02*
X75780404Y-113961815D01*
X24383597Y-53539098D02*
X24477705Y-53734516D01*
X103331530Y-94200000D02*
X90765765Y-94200000D01*
X116696981Y-24048585D02*
X116481768Y-24021616D01*
X70397948Y-96960766D02*
X70313698Y-96760901D01*
X66996981Y-32651414D02*
X67210583Y-32613750D01*
X25389896Y-48561224D02*
X25234627Y-48712669D01*
X67836435Y-94462337D02*
X67630833Y-94393258D01*
X27915527Y-24021616D02*
X27700314Y-24048585D01*
X73999347Y-29939233D02*
X74083597Y-30139098D01*
X76766462Y-24193258D02*
X76560860Y-24262337D01*
X103331530Y-47400000D02*
X90765765Y-47400000D01*
X119007399Y-71961224D02*
X118844774Y-71817706D01*
X70219590Y-73165483D02*
X70115858Y-72975000D01*
X119449614Y-25637819D02*
X119310196Y-25471666D01*
X117122042Y-91065486D02*
X117330833Y-91006741D01*
X74934627Y-78187330D02*
X75089896Y-78338775D01*
X70472131Y-85464583D02*
X70397948Y-85260766D01*
X68429052Y-114070263D02*
X68616891Y-113961815D01*
X118499090Y-113844138D02*
X118675197Y-113717526D01*
X26080404Y-43761815D02*
X26268243Y-43870263D01*
X56631530Y-79500000D02*
X66348648Y-79500000D01*
X74934627Y-31387330D02*
X75089896Y-31538775D01*
X120013698Y-30139098D02*
X120097948Y-29939233D01*
X68975197Y-102017526D02*
X69144774Y-101882293D01*
X27915527Y-44378383D02*
X28131818Y-44394592D01*
X26461253Y-79069214D02*
X26658956Y-79158421D01*
X74083597Y-30139098D02*
X74177705Y-30334516D01*
X74934627Y-66487330D02*
X75089896Y-66638775D01*
X26080404Y-113961815D02*
X26268243Y-114070263D01*
X119162668Y-107212669D02*
X119007399Y-107061224D01*
X78048648Y-24000000D02*
X77831818Y-24005407D01*
X74516717Y-37510715D02*
X74394535Y-37689923D01*
X74394535Y-49389923D02*
X74281437Y-49575000D01*
X41065765Y-79500000D02*
X53631530Y-79500000D01*
X119919590Y-30334516D02*
X120013698Y-30139098D01*
X25722098Y-83382473D02*
X25552521Y-83517706D01*
X68038339Y-55758421D02*
X68236042Y-55669214D01*
X119815858Y-96375000D02*
X119702760Y-96189923D01*
X74394535Y-77510076D02*
X74516717Y-77689284D01*
X27066462Y-106093258D02*
X26860860Y-106162337D01*
X75422098Y-48282473D02*
X75252521Y-48417706D01*
X21000000Y-97050000D02*
X21000000Y-100050000D01*
X41065765Y-114600000D02*
X53631530Y-114600000D01*
X66996981Y-105948585D02*
X66781768Y-105921616D01*
X116481768Y-47421616D02*
X116265477Y-47405407D01*
X118675197Y-59982473D02*
X118499090Y-59855861D01*
X76161253Y-79069214D02*
X76358956Y-79158421D01*
X21000000Y-111750000D02*
X24266868Y-111750000D01*
X21000000Y-73650000D02*
X21000000Y-76650000D01*
X119919590Y-84865483D02*
X119815858Y-84675000D01*
X118129052Y-47929736D02*
X117936042Y-47830785D01*
X73966868Y-29850000D02*
X73925164Y-29735416D01*
X70472131Y-111635416D02*
X70430427Y-111750000D01*
X27275253Y-47534513D02*
X27066462Y-47593258D01*
X117122042Y-70934513D02*
X116910583Y-70886249D01*
X24477705Y-100534516D02*
X24581437Y-100725000D01*
X74516717Y-49210715D02*
X74394535Y-49389923D01*
X75252521Y-60117706D02*
X75089896Y-60261224D01*
X116265477Y-79494592D02*
X116481768Y-79478383D01*
X73925164Y-62064583D02*
X73966868Y-61950000D01*
X25234627Y-107212669D02*
X25087099Y-107371666D01*
X119162668Y-25312669D02*
X119007399Y-25161224D01*
X69144774Y-48417706D02*
X68975197Y-48282473D01*
X69144774Y-25017706D02*
X68975197Y-24882473D01*
X117536435Y-24262337D02*
X117330833Y-24193258D01*
X67836435Y-35962337D02*
X67630833Y-35893258D01*
X68799090Y-71555861D02*
X68616891Y-71438184D01*
X21000000Y-29850000D02*
X24266868Y-29850000D01*
X24477705Y-42034516D02*
X24581437Y-42225000D01*
X75089896Y-113438775D02*
X75252521Y-113582293D01*
X74787099Y-48871666D02*
X74647681Y-49037819D01*
X24694535Y-42410076D02*
X24816717Y-42589284D01*
X118316891Y-113961815D02*
X118499090Y-113844138D01*
X75252521Y-101882293D02*
X75422098Y-102017526D01*
X24383597Y-26560901D02*
X24299347Y-26760766D01*
X24266868Y-88350000D02*
X24299347Y-88439233D01*
X74934627Y-83812669D02*
X74787099Y-83971666D01*
X76560860Y-59362337D02*
X76358956Y-59441578D01*
X106331530Y-79500000D02*
X116048648Y-79500000D01*
X26461253Y-67369214D02*
X26658956Y-67458421D01*
X73999347Y-111839233D02*
X74083597Y-112039098D01*
X118675197Y-95082473D02*
X118499090Y-94955861D01*
X118316891Y-48038184D02*
X118129052Y-47929736D01*
X77400314Y-59148585D02*
X77186712Y-59186249D01*
X120172131Y-88235416D02*
X120130427Y-88350000D01*
X119007399Y-113438775D02*
X119162668Y-113287330D01*
X67836435Y-32437662D02*
X68038339Y-32358421D01*
X69610196Y-54628333D02*
X69749614Y-54462180D01*
X75089896Y-54938775D02*
X75252521Y-55082293D01*
X25722098Y-113717526D02*
X25898205Y-113844138D01*
X74516717Y-60910715D02*
X74394535Y-61089923D01*
X119162668Y-54787330D02*
X119310196Y-54628333D01*
X75089896Y-60261224D02*
X74934627Y-60412669D01*
X68799090Y-113844138D02*
X68975197Y-113717526D01*
X27915527Y-67778383D02*
X28131818Y-67794592D01*
X66996981Y-47448585D02*
X66781768Y-47421616D01*
X77831818Y-44394592D02*
X78048648Y-44400000D01*
X66996981Y-70848585D02*
X66781768Y-70821616D01*
X120013698Y-65239098D02*
X120097948Y-65039233D01*
X117936042Y-79069214D02*
X118129052Y-78970263D01*
X117330833Y-102706741D02*
X117536435Y-102637662D01*
X67210583Y-91113750D02*
X67422042Y-91065486D01*
X25552521Y-48417706D02*
X25389896Y-48561224D01*
X123397295Y-41550000D02*
X123397295Y-50250000D01*
X120130427Y-108750000D02*
X120172131Y-108864583D01*
X120097948Y-50160766D02*
X120013698Y-49960901D01*
X117122042Y-102765486D02*
X117330833Y-102706741D01*
X119449614Y-60737819D02*
X119310196Y-60571666D01*
X75598205Y-83255861D02*
X75422098Y-83382473D01*
X69462668Y-48712669D02*
X69307399Y-48561224D01*
X74083597Y-108460901D02*
X73999347Y-108660766D01*
X76358956Y-55758421D02*
X76560860Y-55837662D01*
X25552521Y-95217706D02*
X25389896Y-95361224D01*
X78048648Y-91200000D02*
X87765765Y-91200000D01*
X90765765Y-114600000D02*
X103331530Y-114600000D01*
X120130427Y-38550000D02*
X120172131Y-38664583D01*
X116265477Y-91194592D02*
X116481768Y-91178383D01*
X106331530Y-47400000D02*
X106331530Y-44400000D01*
X53631530Y-79500000D02*
X53631530Y-82500000D01*
X77831818Y-114594592D02*
X78048648Y-114600000D01*
X25389896Y-66638775D02*
X25552521Y-66782293D01*
X120013698Y-38260901D02*
X119919590Y-38065483D01*
X116481768Y-105921616D02*
X116265477Y-105905407D01*
X120130427Y-61950000D02*
X120172131Y-62064583D01*
X68975197Y-71682473D02*
X68799090Y-71555861D01*
X25087099Y-66328333D02*
X25234627Y-66487330D01*
X77615527Y-47421616D02*
X77400314Y-47448585D01*
X117738339Y-36041578D02*
X117536435Y-35962337D01*
X117738339Y-59441578D02*
X117536435Y-59362337D01*
X68616891Y-36338184D02*
X68429052Y-36229736D01*
X69610196Y-83971666D02*
X69462668Y-83812669D01*
X53631530Y-91200000D02*
X53631530Y-94200000D01*
X24947681Y-25637819D02*
X24816717Y-25810715D01*
X27700314Y-24048585D02*
X27486712Y-24086249D01*
X41065765Y-44400000D02*
X53631530Y-44400000D01*
X69749614Y-66162180D02*
X69880578Y-65989284D01*
X68236042Y-90769214D02*
X68429052Y-90670263D01*
X117936042Y-43969214D02*
X118129052Y-43870263D01*
X117330833Y-35893258D02*
X117122042Y-35834513D01*
X66781768Y-70821616D02*
X66565477Y-70805407D01*
X117536435Y-106162337D02*
X117330833Y-106093258D01*
X119007399Y-107061224D02*
X118844774Y-106917706D01*
X25389896Y-78338775D02*
X25552521Y-78482293D01*
X27275253Y-55965486D02*
X27486712Y-56013750D01*
X76766462Y-55906741D02*
X76975253Y-55965486D01*
X76161253Y-36130785D02*
X75968243Y-36229736D01*
X26461253Y-59530785D02*
X26268243Y-59629736D01*
X24581437Y-26175000D02*
X24477705Y-26365483D01*
X74787099Y-113128333D02*
X74934627Y-113287330D01*
X76560860Y-71062337D02*
X76358956Y-71141578D01*
X74787099Y-37171666D02*
X74647681Y-37337819D01*
X119310196Y-37171666D02*
X119162668Y-37012669D01*
X117936042Y-67369214D02*
X118129052Y-67270263D01*
X76358956Y-67458421D02*
X76560860Y-67537662D01*
X26268243Y-36229736D02*
X26080404Y-36338184D01*
X75252521Y-71817706D02*
X75089896Y-71961224D01*
X25722098Y-48282473D02*
X25552521Y-48417706D01*
X25389896Y-101738775D02*
X25552521Y-101882293D01*
X116048648Y-82500000D02*
X106331530Y-82500000D01*
X68799090Y-55344138D02*
X68975197Y-55217526D01*
X24816717Y-54289284D02*
X24947681Y-54462180D01*
X77186712Y-70886249D02*
X76975253Y-70934513D01*
X69144774Y-66782293D02*
X69307399Y-66638775D01*
X75089896Y-36861224D02*
X74934627Y-37012669D01*
X56631530Y-32700000D02*
X66348648Y-32700000D01*
X116048648Y-32700000D02*
X116265477Y-32694592D01*
X116265477Y-67794592D02*
X116481768Y-67778383D01*
X25722098Y-78617526D02*
X25898205Y-78744138D01*
X24947681Y-77862180D02*
X25087099Y-78028333D01*
X116696981Y-79451414D02*
X116910583Y-79413750D01*
X70430427Y-53250000D02*
X73966868Y-53250000D01*
X119702760Y-107889923D02*
X119580578Y-107710715D01*
X119310196Y-83971666D02*
X119162668Y-83812669D01*
X76766462Y-106093258D02*
X76560860Y-106162337D01*
X75598205Y-36455861D02*
X75422098Y-36582473D01*
X67836435Y-114337662D02*
X68038339Y-114258421D01*
X68799090Y-43644138D02*
X68975197Y-43517526D01*
X120130427Y-41550000D02*
X123397295Y-41550000D01*
X69610196Y-42928333D02*
X69749614Y-42762180D01*
X38065765Y-91200000D02*
X38065765Y-94200000D01*
X24477705Y-88834516D02*
X24581437Y-89025000D01*
X70430427Y-108750000D02*
X70472131Y-108864583D01*
X78048648Y-94200000D02*
X77831818Y-94205407D01*
X26461253Y-71230785D02*
X26268243Y-71329736D01*
X117536435Y-102637662D02*
X117738339Y-102558421D01*
X74647681Y-54462180D02*
X74787099Y-54628333D01*
X69462668Y-83812669D02*
X69307399Y-83661224D01*
X76358956Y-94541578D02*
X76161253Y-94630785D01*
X24581437Y-100725000D02*
X24694535Y-100910076D01*
X118675197Y-48282473D02*
X118499090Y-48155861D01*
X21000000Y-108750000D02*
X21000000Y-111750000D01*
X117936042Y-114169214D02*
X118129052Y-114070263D01*
X25722098Y-24882473D02*
X25552521Y-25017706D01*
X67836435Y-47662337D02*
X67630833Y-47593258D01*
X117330833Y-70993258D02*
X117122042Y-70934513D01*
X75252521Y-106917706D02*
X75089896Y-107061224D01*
X24694535Y-30710076D02*
X24816717Y-30889284D01*
X73966868Y-41550000D02*
X73925164Y-41435416D01*
X67836435Y-71062337D02*
X67630833Y-70993258D01*
X116696981Y-47448585D02*
X116481768Y-47421616D01*
X77831818Y-79494592D02*
X78048648Y-79500000D01*
X74647681Y-101262180D02*
X74787099Y-101428333D01*
X66348648Y-114600000D02*
X66565477Y-114594592D01*
X116910583Y-67713750D02*
X117122042Y-67665486D01*
X25898205Y-48155861D02*
X25722098Y-48282473D01*
X118844774Y-48417706D02*
X118675197Y-48282473D01*
X25552521Y-101882293D02*
X25722098Y-102017526D01*
X118129052Y-102370263D02*
X118316891Y-102261815D01*
X27066462Y-70993258D02*
X26860860Y-71062337D01*
X118675197Y-83382473D02*
X118499090Y-83255861D01*
X119580578Y-49210715D02*
X119449614Y-49037819D01*
X78048648Y-114600000D02*
X87765765Y-114600000D01*
X106331530Y-21000000D02*
X123397295Y-21000000D01*
X25389896Y-60261224D02*
X25234627Y-60412669D01*
X76161253Y-59530785D02*
X75968243Y-59629736D01*
X77615527Y-24021616D02*
X77400314Y-24048585D01*
X118129052Y-55570263D02*
X118316891Y-55461815D01*
X119919590Y-42034516D02*
X120013698Y-41839098D01*
X77186712Y-79413750D02*
X77400314Y-79451414D01*
X76560860Y-79237662D02*
X76766462Y-79306741D01*
X119310196Y-66328333D02*
X119449614Y-66162180D01*
X106331530Y-91200000D02*
X116048648Y-91200000D01*
X68975197Y-24882473D02*
X68799090Y-24755861D01*
X74787099Y-101428333D02*
X74934627Y-101587330D01*
X69880578Y-77689284D02*
X70002760Y-77510076D01*
X69144774Y-90182293D02*
X69307399Y-90038775D01*
X77400314Y-94248585D02*
X77186712Y-94286249D01*
X118499090Y-36455861D02*
X118316891Y-36338184D01*
X119449614Y-95837819D02*
X119310196Y-95671666D01*
X117122042Y-106034513D02*
X116910583Y-105986249D01*
X25898205Y-59855861D02*
X25722098Y-59982473D01*
X68616891Y-102261815D02*
X68799090Y-102144138D01*
X69880578Y-42589284D02*
X70002760Y-42410076D01*
X74934627Y-54787330D02*
X75089896Y-54938775D01*
X75422098Y-113717526D02*
X75598205Y-113844138D01*
X25898205Y-71555861D02*
X25722098Y-71682473D01*
X118844774Y-25017706D02*
X118675197Y-24882473D01*
X25389896Y-113438775D02*
X25552521Y-113582293D01*
X70397948Y-29939233D02*
X70472131Y-29735416D01*
X76975253Y-55965486D02*
X77186712Y-56013750D01*
X26658956Y-114258421D02*
X26860860Y-114337662D01*
X117330833Y-55906741D02*
X117536435Y-55837662D01*
X118499090Y-94955861D02*
X118316891Y-94838184D01*
X74083597Y-38260901D02*
X73999347Y-38460766D01*
X119007399Y-90038775D02*
X119162668Y-89887330D01*
X25389896Y-107061224D02*
X25234627Y-107212669D01*
X120097948Y-108660766D02*
X120013698Y-108460901D01*
X74083597Y-100339098D02*
X74177705Y-100534516D01*
X28131818Y-114594592D02*
X28348648Y-114600000D01*
X70472131Y-97164583D02*
X70397948Y-96960766D01*
X68616891Y-113961815D02*
X68799090Y-113844138D01*
X123397295Y-100050000D02*
X123397295Y-108750000D01*
X70002760Y-65810076D02*
X70115858Y-65625000D01*
X24266868Y-64950000D02*
X24299347Y-65039233D01*
X116910583Y-24086249D02*
X116696981Y-24048585D01*
X120097948Y-96960766D02*
X120013698Y-96760901D01*
X77186712Y-82586249D02*
X76975253Y-82634513D01*
X70002760Y-54110076D02*
X70115858Y-53925000D01*
X73966868Y-100050000D02*
X73925164Y-99935416D01*
X67422042Y-35834513D02*
X67210583Y-35786249D01*
X26860860Y-102637662D02*
X27066462Y-102706741D01*
X75968243Y-106429736D02*
X75780404Y-106538184D01*
X38065765Y-105900000D02*
X28348648Y-105900000D01*
X123397295Y-53250000D02*
X123397295Y-61950000D01*
X76766462Y-59293258D02*
X76560860Y-59362337D01*
X117122042Y-79365486D02*
X117330833Y-79306741D01*
X69144774Y-31682293D02*
X69307399Y-31538775D01*
X70397948Y-111839233D02*
X70472131Y-111635416D01*
X24947681Y-89562180D02*
X25087099Y-89728333D01*
X24299347Y-111839233D02*
X24383597Y-112039098D01*
X67210583Y-56013750D02*
X67422042Y-55965486D01*
X26080404Y-83138184D02*
X25898205Y-83255861D01*
X24477705Y-30334516D02*
X24581437Y-30525000D01*
X119919590Y-26365483D02*
X119815858Y-26175000D01*
X76358956Y-90858421D02*
X76560860Y-90937662D01*
X119162668Y-72112669D02*
X119007399Y-71961224D01*
X75422098Y-36582473D02*
X75252521Y-36717706D01*
X119310196Y-78028333D02*
X119449614Y-77862180D01*
X76560860Y-35962337D02*
X76358956Y-36041578D01*
X119162668Y-101587330D02*
X119310196Y-101428333D01*
X24694535Y-37689923D02*
X24581437Y-37875000D01*
X119007399Y-43238775D02*
X119162668Y-43087330D01*
X77615527Y-67778383D02*
X77831818Y-67794592D01*
X118129052Y-78970263D02*
X118316891Y-78861815D01*
X28131818Y-47405407D02*
X27915527Y-47421616D01*
X68616891Y-78861815D02*
X68799090Y-78744138D01*
X90765765Y-21000000D02*
X103331530Y-21000000D01*
X68616891Y-32061815D02*
X68799090Y-31944138D01*
X78048648Y-67800000D02*
X87765765Y-67800000D01*
X87765765Y-67800000D02*
X87765765Y-70800000D01*
X68616891Y-90561815D02*
X68799090Y-90444138D01*
X67422042Y-44265486D02*
X67630833Y-44206741D01*
X24816717Y-42589284D02*
X24947681Y-42762180D01*
X116265477Y-59105407D02*
X116048648Y-59100000D01*
X120097948Y-73560766D02*
X120013698Y-73360901D01*
X70002760Y-96189923D02*
X69880578Y-96010715D01*
X24816717Y-101089284D02*
X24947681Y-101262180D01*
X74647681Y-25637819D02*
X74516717Y-25810715D01*
X118675197Y-36582473D02*
X118499090Y-36455861D01*
X69307399Y-60261224D02*
X69144774Y-60117706D01*
X74934627Y-37012669D02*
X74787099Y-37171666D01*
X24266868Y-29850000D02*
X24299347Y-29939233D01*
X117936042Y-32269214D02*
X118129052Y-32170263D01*
X28131818Y-70805407D02*
X27915527Y-70821616D01*
X27066462Y-32506741D02*
X27275253Y-32565486D01*
X24383597Y-96760901D02*
X24299347Y-96960766D01*
X27700314Y-67751414D02*
X27915527Y-67778383D01*
X119310196Y-60571666D02*
X119162668Y-60412669D01*
X77186712Y-47486249D02*
X76975253Y-47534513D01*
X74177705Y-112234516D02*
X74281437Y-112425000D01*
X119007399Y-66638775D02*
X119162668Y-66487330D01*
X68236042Y-47830785D02*
X68038339Y-47741578D01*
X26860860Y-55837662D02*
X27066462Y-55906741D01*
X117936042Y-59530785D02*
X117738339Y-59441578D01*
X74647681Y-42762180D02*
X74787099Y-42928333D01*
X90765765Y-67800000D02*
X103331530Y-67800000D01*
X26080404Y-36338184D02*
X25898205Y-36455861D01*
X116265477Y-44394592D02*
X116481768Y-44378383D01*
X24299347Y-108660766D02*
X24266868Y-108750000D01*
X76560860Y-55837662D02*
X76766462Y-55906741D01*
X119310196Y-31228333D02*
X119449614Y-31062180D01*
X119449614Y-31062180D02*
X119580578Y-30889284D01*
X25552521Y-83517706D02*
X25389896Y-83661224D01*
X27915527Y-56078383D02*
X28131818Y-56094592D01*
X68799090Y-102144138D02*
X68975197Y-102017526D01*
X68236042Y-55669214D02*
X68429052Y-55570263D01*
X66996981Y-79451414D02*
X67210583Y-79413750D01*
X75252521Y-48417706D02*
X75089896Y-48561224D01*
X117330833Y-82693258D02*
X117122042Y-82634513D01*
X68429052Y-67270263D02*
X68616891Y-67161815D01*
X74647681Y-31062180D02*
X74787099Y-31228333D01*
X27486712Y-70886249D02*
X27275253Y-70934513D01*
X119580578Y-89389284D02*
X119702760Y-89210076D01*
X76161253Y-71230785D02*
X75968243Y-71329736D01*
X129397295Y-123600000D02*
X129397295Y-15000000D01*
X77186712Y-59186249D02*
X76975253Y-59234513D01*
X66996981Y-44351414D02*
X67210583Y-44313750D01*
X75598205Y-59855861D02*
X75422098Y-59982473D01*
X67836435Y-44137662D02*
X68038339Y-44058421D01*
X120172131Y-85464583D02*
X120097948Y-85260766D01*
X76766462Y-32506741D02*
X76975253Y-32565486D01*
X116481768Y-67778383D02*
X116696981Y-67751414D01*
X70002760Y-112610076D02*
X70115858Y-112425000D01*
X68236042Y-67369214D02*
X68429052Y-67270263D01*
X25234627Y-43087330D02*
X25389896Y-43238775D01*
X77615527Y-32678383D02*
X77831818Y-32694592D01*
X119580578Y-25810715D02*
X119449614Y-25637819D01*
X70430427Y-73650000D02*
X70472131Y-73764583D01*
X74083597Y-26560901D02*
X73999347Y-26760766D01*
X78048648Y-79500000D02*
X87765765Y-79500000D01*
X25722098Y-59982473D02*
X25552521Y-60117706D01*
X27486712Y-94286249D02*
X27275253Y-94334513D01*
X68429052Y-94729736D02*
X68236042Y-94630785D01*
X27275253Y-114465486D02*
X27486712Y-114513750D01*
X119449614Y-54462180D02*
X119580578Y-54289284D01*
X74787099Y-78028333D02*
X74934627Y-78187330D01*
X27700314Y-94248585D02*
X27486712Y-94286249D01*
X106331530Y-24000000D02*
X106331530Y-21000000D01*
X87765765Y-70800000D02*
X78048648Y-70800000D01*
X118844774Y-36717706D02*
X118675197Y-36582473D01*
X119919590Y-112234516D02*
X120013698Y-112039098D01*
X68429052Y-83029736D02*
X68236042Y-82930785D01*
X27066462Y-94393258D02*
X26860860Y-94462337D01*
X73925164Y-50364583D02*
X73966868Y-50250000D01*
X106331530Y-56100000D02*
X116048648Y-56100000D01*
X76560860Y-82762337D02*
X76358956Y-82841578D01*
X120013698Y-61660901D02*
X119919590Y-61465483D01*
X69749614Y-95837819D02*
X69610196Y-95671666D01*
X74516717Y-112789284D02*
X74647681Y-112962180D01*
X27486712Y-35786249D02*
X27275253Y-35834513D01*
X41065765Y-59100000D02*
X41065765Y-56100000D01*
X26461253Y-102469214D02*
X26658956Y-102558421D01*
X41065765Y-21000000D02*
X53631530Y-21000000D01*
X87765765Y-59100000D02*
X78048648Y-59100000D01*
X69307399Y-54938775D02*
X69462668Y-54787330D01*
X28348648Y-32700000D02*
X38065765Y-32700000D01*
X67210583Y-82586249D02*
X66996981Y-82548585D01*
X73966868Y-108750000D02*
X70430427Y-108750000D01*
X25722098Y-106782473D02*
X25552521Y-106917706D01*
X25552521Y-43382293D02*
X25722098Y-43517526D01*
X90765765Y-44400000D02*
X103331530Y-44400000D01*
X67422042Y-55965486D02*
X67630833Y-55906741D01*
X75968243Y-55570263D02*
X76161253Y-55669214D01*
X24581437Y-96375000D02*
X24477705Y-96565483D01*
X76975253Y-35834513D02*
X76766462Y-35893258D01*
X69462668Y-95512669D02*
X69307399Y-95361224D01*
X119919590Y-53734516D02*
X120013698Y-53539098D01*
X120013698Y-26560901D02*
X119919590Y-26365483D01*
X77400314Y-105948585D02*
X77186712Y-105986249D01*
X24581437Y-108075000D02*
X24477705Y-108265483D01*
X103331530Y-44400000D02*
X103331530Y-47400000D01*
X74787099Y-95671666D02*
X74647681Y-95837819D01*
X68799090Y-48155861D02*
X68616891Y-48038184D01*
X24694535Y-89210076D02*
X24816717Y-89389284D01*
X117738339Y-47741578D02*
X117536435Y-47662337D01*
X77831818Y-94205407D02*
X77615527Y-94221616D01*
X38065765Y-79500000D02*
X38065765Y-82500000D01*
X120130427Y-50250000D02*
X120172131Y-50364583D01*
X66565477Y-59105407D02*
X66348648Y-59100000D01*
X117936042Y-71230785D02*
X117738339Y-71141578D01*
X118316891Y-71438184D02*
X118129052Y-71329736D01*
X25722098Y-55217526D02*
X25898205Y-55344138D01*
X70002760Y-49389923D02*
X69880578Y-49210715D01*
X26268243Y-90670263D02*
X26461253Y-90769214D01*
X66781768Y-24021616D02*
X66565477Y-24005407D01*
X27700314Y-44351414D02*
X27915527Y-44378383D01*
X118129052Y-71329736D02*
X117936042Y-71230785D01*
X69307399Y-48561224D02*
X69144774Y-48417706D01*
X28348648Y-44400000D02*
X38065765Y-44400000D01*
X75089896Y-31538775D02*
X75252521Y-31682293D01*
X119007399Y-78338775D02*
X119162668Y-78187330D01*
X53631530Y-104400000D02*
X53631530Y-105900000D01*
X117936042Y-102469214D02*
X118129052Y-102370263D01*
X116048648Y-105900000D02*
X106331530Y-105900000D01*
X69462668Y-72112669D02*
X69307399Y-71961224D01*
X26080404Y-90561815D02*
X26268243Y-90670263D01*
X69462668Y-101587330D02*
X69610196Y-101428333D01*
X117536435Y-79237662D02*
X117738339Y-79158421D01*
X68616891Y-59738184D02*
X68429052Y-59629736D01*
X74934627Y-89887330D02*
X75089896Y-90038775D01*
X66348648Y-47400000D02*
X56631530Y-47400000D01*
X118499090Y-31944138D02*
X118675197Y-31817526D01*
X69749614Y-25637819D02*
X69610196Y-25471666D01*
X67210583Y-79413750D02*
X67422042Y-79365486D01*
X75968243Y-94729736D02*
X75780404Y-94838184D01*
X25722098Y-102017526D02*
X25898205Y-102144138D01*
X118316891Y-67161815D02*
X118499090Y-67044138D01*
X25234627Y-31387330D02*
X25389896Y-31538775D01*
X117122042Y-55965486D02*
X117330833Y-55906741D01*
X120013698Y-88639098D02*
X120097948Y-88439233D01*
X24383597Y-38260901D02*
X24299347Y-38460766D01*
X74177705Y-53734516D02*
X74281437Y-53925000D01*
X76975253Y-47534513D02*
X76766462Y-47593258D01*
X116910583Y-35786249D02*
X116696981Y-35748585D01*
X27275253Y-35834513D02*
X27066462Y-35893258D01*
X24266868Y-61950000D02*
X21000000Y-61950000D01*
X27915527Y-35721616D02*
X27700314Y-35748585D01*
X56631530Y-24000000D02*
X56631530Y-21000000D01*
X73999347Y-50160766D02*
X73925164Y-50364583D01*
X26658956Y-106241578D02*
X26461253Y-106330785D01*
X69749614Y-101262180D02*
X69880578Y-101089284D01*
X103331530Y-105900000D02*
X90765765Y-105900000D01*
X75422098Y-83382473D02*
X75252521Y-83517706D01*
X38065765Y-35700000D02*
X28348648Y-35700000D01*
X117536435Y-90937662D02*
X117738339Y-90858421D01*
X77615527Y-91178383D02*
X77831818Y-91194592D01*
X24266868Y-85350000D02*
X21000000Y-85350000D01*
X26860860Y-82762337D02*
X26658956Y-82841578D01*
X118316891Y-59738184D02*
X118129052Y-59629736D01*
X41065765Y-35700000D02*
X41065765Y-32700000D01*
X75252521Y-36717706D02*
X75089896Y-36861224D01*
X66781768Y-44378383D02*
X66996981Y-44351414D01*
X68975197Y-78617526D02*
X69144774Y-78482293D01*
X24581437Y-84675000D02*
X24477705Y-84865483D01*
X75780404Y-71438184D02*
X75598205Y-71555861D01*
X74394535Y-30710076D02*
X74516717Y-30889284D01*
X116048648Y-94200000D02*
X106331530Y-94200000D01*
X119815858Y-53925000D02*
X119919590Y-53734516D01*
X119007399Y-60261224D02*
X118844774Y-60117706D01*
X70002760Y-89210076D02*
X70115858Y-89025000D01*
X90765765Y-102900000D02*
X103331530Y-102900000D01*
X27915527Y-59121616D02*
X27700314Y-59148585D01*
X117536435Y-47662337D02*
X117330833Y-47593258D01*
X77615527Y-70821616D02*
X77400314Y-70848585D01*
X116481768Y-35721616D02*
X116265477Y-35705407D01*
X28348648Y-24000000D02*
X28131818Y-24005407D01*
X24947681Y-95837819D02*
X24816717Y-96010715D01*
X26860860Y-35962337D02*
X26658956Y-36041578D01*
X66565477Y-79494592D02*
X66781768Y-79478383D01*
X69749614Y-112962180D02*
X69880578Y-112789284D01*
X75089896Y-107061224D02*
X74934627Y-107212669D01*
X70219590Y-100534516D02*
X70313698Y-100339098D01*
X26461253Y-82930785D02*
X26268243Y-83029736D01*
X118675197Y-71682473D02*
X118499090Y-71555861D01*
X66348648Y-94200000D02*
X56631530Y-94200000D01*
X117536435Y-35962337D02*
X117330833Y-35893258D01*
X73966868Y-53250000D02*
X73925164Y-53135416D01*
X116481768Y-56078383D02*
X116696981Y-56051414D01*
X118844774Y-31682293D02*
X119007399Y-31538775D01*
X120097948Y-65039233D02*
X120172131Y-64835416D01*
X25087099Y-42928333D02*
X25234627Y-43087330D01*
X76975253Y-91065486D02*
X77186712Y-91113750D01*
X27066462Y-79306741D02*
X27275253Y-79365486D01*
X119702760Y-112610076D02*
X119815858Y-112425000D01*
X120172131Y-38664583D02*
X120097948Y-38460766D01*
X26080404Y-102261815D02*
X26268243Y-102370263D01*
X70002760Y-77510076D02*
X70115858Y-77325000D01*
X69307399Y-71961224D02*
X69144774Y-71817706D01*
X66781768Y-102878383D02*
X66996981Y-102851414D01*
X69880578Y-101089284D02*
X70002760Y-100910076D01*
X123397295Y-85350000D02*
X120130427Y-85350000D01*
X106331530Y-82500000D02*
X106331530Y-79500000D01*
X119919590Y-96565483D02*
X119815858Y-96375000D01*
X119162668Y-37012669D02*
X119007399Y-36861224D01*
X117936042Y-82930785D02*
X117738339Y-82841578D01*
X67422042Y-114465486D02*
X67630833Y-114406741D01*
X41065765Y-47400000D02*
X41065765Y-44400000D01*
X66565477Y-47405407D02*
X66348648Y-47400000D01*
X68038339Y-67458421D02*
X68236042Y-67369214D01*
X119449614Y-84137819D02*
X119310196Y-83971666D01*
X74787099Y-66328333D02*
X74934627Y-66487330D01*
X119580578Y-107710715D02*
X119449614Y-107537819D01*
X106331530Y-67800000D02*
X116048648Y-67800000D01*
X70002760Y-84489923D02*
X69880578Y-84310715D01*
X24477705Y-73165483D02*
X24383597Y-73360901D01*
X24266868Y-53250000D02*
X24299347Y-53339233D01*
X69749614Y-60737819D02*
X69610196Y-60571666D01*
X26658956Y-55758421D02*
X26860860Y-55837662D01*
X69307399Y-66638775D02*
X69462668Y-66487330D01*
X25389896Y-83661224D02*
X25234627Y-83812669D01*
X73999347Y-26760766D02*
X73925164Y-26964583D01*
X53631530Y-24000000D02*
X41065765Y-24000000D01*
X24266868Y-108750000D02*
X21000000Y-108750000D01*
X69307399Y-83661224D02*
X69144774Y-83517706D01*
X24266868Y-100050000D02*
X24299347Y-100139233D01*
X117738339Y-44058421D02*
X117936042Y-43969214D01*
X24816717Y-60910715D02*
X24694535Y-61089923D01*
X119580578Y-54289284D02*
X119702760Y-54110076D01*
X69749614Y-77862180D02*
X69880578Y-77689284D01*
X117738339Y-106241578D02*
X117536435Y-106162337D01*
X87765765Y-21000000D02*
X87765765Y-24000000D01*
X67210583Y-59186249D02*
X66996981Y-59148585D01*
X67210583Y-44313750D02*
X67422042Y-44265486D01*
X69462668Y-107212669D02*
X69307399Y-107061224D01*
X70313698Y-49960901D02*
X70219590Y-49765483D01*
X70219590Y-96565483D02*
X70115858Y-96375000D01*
X116481768Y-24021616D02*
X116265477Y-24005407D01*
X118129052Y-24529736D02*
X117936042Y-24430785D01*
X76975253Y-32565486D02*
X77186712Y-32613750D01*
X66996981Y-35748585D02*
X66781768Y-35721616D01*
X103331530Y-117600000D02*
X90765765Y-117600000D01*
X70219590Y-112234516D02*
X70313698Y-112039098D01*
X116696981Y-91151414D02*
X116910583Y-91113750D01*
X26860860Y-79237662D02*
X27066462Y-79306741D01*
X76358956Y-59441578D02*
X76161253Y-59530785D01*
X77186712Y-105986249D02*
X76975253Y-106034513D01*
X119162668Y-113287330D02*
X119310196Y-113128333D01*
X76161253Y-114169214D02*
X76358956Y-114258421D01*
X75968243Y-114070263D02*
X76161253Y-114169214D01*
X38065765Y-117600000D02*
X21000000Y-117600000D01*
X69462668Y-25312669D02*
X69307399Y-25161224D01*
X74394535Y-89210076D02*
X74516717Y-89389284D01*
X24694535Y-61089923D02*
X24581437Y-61275000D01*
X116048648Y-70800000D02*
X106331530Y-70800000D01*
X118499090Y-43644138D02*
X118675197Y-43517526D01*
X27915527Y-114578383D02*
X28131818Y-114594592D01*
X76560860Y-102637662D02*
X76766462Y-102706741D01*
X53631530Y-32700000D02*
X53631530Y-35700000D01*
X25898205Y-31944138D02*
X26080404Y-32061815D01*
X87765765Y-117600000D02*
X56631530Y-117600000D01*
X90765765Y-79500000D02*
X103331530Y-79500000D01*
X26658956Y-24341578D02*
X26461253Y-24430785D01*
X26658956Y-36041578D02*
X26461253Y-36130785D01*
X73925164Y-111635416D02*
X73999347Y-111839233D01*
X66565477Y-114594592D02*
X66781768Y-114578383D01*
X73925164Y-108864583D02*
X73966868Y-108750000D01*
X76766462Y-35893258D02*
X76560860Y-35962337D01*
X24947681Y-37337819D02*
X24816717Y-37510715D01*
X66996981Y-91151414D02*
X67210583Y-91113750D01*
X118316891Y-78861815D02*
X118499090Y-78744138D01*
X27486712Y-56013750D02*
X27700314Y-56051414D01*
X106331530Y-102900000D02*
X116048648Y-102900000D01*
X67630833Y-94393258D02*
X67422042Y-94334513D01*
X74394535Y-25989923D02*
X74281437Y-26175000D01*
X24383597Y-88639098D02*
X24477705Y-88834516D01*
X76358956Y-32358421D02*
X76560860Y-32437662D01*
X24299347Y-100139233D02*
X24383597Y-100339098D01*
X120172131Y-53135416D02*
X120130427Y-53250000D01*
X116696981Y-114551414D02*
X116910583Y-114513750D01*
X75089896Y-78338775D02*
X75252521Y-78482293D01*
X70472131Y-26964583D02*
X70397948Y-26760766D01*
X77615527Y-59121616D02*
X77400314Y-59148585D01*
X26658956Y-67458421D02*
X26860860Y-67537662D01*
X73966868Y-88350000D02*
X73925164Y-88235416D01*
X123397295Y-73650000D02*
X120130427Y-73650000D01*
X68038339Y-82841578D02*
X67836435Y-82762337D01*
X74281437Y-108075000D02*
X74177705Y-108265483D01*
X103331530Y-70800000D02*
X90765765Y-70800000D01*
X53631530Y-35700000D02*
X41065765Y-35700000D01*
X76766462Y-114406741D02*
X76975253Y-114465486D01*
X25234627Y-95512669D02*
X25087099Y-95671666D01*
X119162668Y-95512669D02*
X119007399Y-95361224D01*
X73925164Y-99935416D02*
X73999347Y-100139233D01*
X118844774Y-78482293D02*
X119007399Y-78338775D01*
X73925164Y-76535416D02*
X73999347Y-76739233D01*
X74281437Y-42225000D02*
X74394535Y-42410076D01*
X25552521Y-66782293D02*
X25722098Y-66917526D01*
X24383597Y-76939098D02*
X24477705Y-77134516D01*
X116910583Y-32613750D02*
X117122042Y-32565486D01*
X74516717Y-30889284D02*
X74647681Y-31062180D01*
X119007399Y-83661224D02*
X118844774Y-83517706D01*
X74516717Y-25810715D02*
X74394535Y-25989923D01*
X117330833Y-106093258D02*
X117122042Y-106034513D01*
X90765765Y-117600000D02*
X90765765Y-114600000D01*
X75780404Y-113961815D02*
X75968243Y-114070263D01*
X75422098Y-78617526D02*
X75598205Y-78744138D01*
X66565477Y-70805407D02*
X66348648Y-70800000D01*
X70115858Y-89025000D02*
X70219590Y-88834516D01*
X118129052Y-90670263D02*
X118316891Y-90561815D01*
X75598205Y-55344138D02*
X75780404Y-55461815D01*
X69880578Y-25810715D02*
X69749614Y-25637819D01*
X118316891Y-94838184D02*
X118129052Y-94729736D01*
X119815858Y-65625000D02*
X119919590Y-65434516D01*
X120097948Y-61860766D02*
X120013698Y-61660901D01*
X119580578Y-101089284D02*
X119702760Y-100910076D01*
X76766462Y-82693258D02*
X76560860Y-82762337D01*
X75968243Y-47929736D02*
X75780404Y-48038184D01*
X69610196Y-72271666D02*
X69462668Y-72112669D01*
X78048648Y-59100000D02*
X77831818Y-59105407D01*
X27915527Y-32678383D02*
X28131818Y-32694592D01*
X26658956Y-90858421D02*
X26860860Y-90937662D01*
X27066462Y-35893258D02*
X26860860Y-35962337D01*
X56631530Y-44400000D02*
X66348648Y-44400000D01*
X116481768Y-44378383D02*
X116696981Y-44351414D01*
X123397295Y-38550000D02*
X120130427Y-38550000D01*
X74177705Y-100534516D02*
X74281437Y-100725000D01*
X24299347Y-88439233D02*
X24383597Y-88639098D01*
X66565477Y-94205407D02*
X66348648Y-94200000D01*
X24694535Y-100910076D02*
X24816717Y-101089284D01*
X68429052Y-55570263D02*
X68616891Y-55461815D01*
X118316891Y-24638184D02*
X118129052Y-24529736D01*
X119815858Y-26175000D02*
X119702760Y-25989923D01*
X53631530Y-44400000D02*
X53631530Y-47400000D01*
X76161253Y-102469214D02*
X76358956Y-102558421D01*
X24816717Y-107710715D02*
X24694535Y-107889923D01*
X70397948Y-50160766D02*
X70313698Y-49960901D01*
X25898205Y-78744138D02*
X26080404Y-78861815D01*
X24581437Y-49575000D02*
X24477705Y-49765483D01*
X26268243Y-59629736D02*
X26080404Y-59738184D01*
X68038339Y-59441578D02*
X67836435Y-59362337D01*
X73925164Y-73764583D02*
X73966868Y-73650000D01*
X68429052Y-43870263D02*
X68616891Y-43761815D01*
X67836435Y-102637662D02*
X68038339Y-102558421D01*
X25898205Y-106655861D02*
X25722098Y-106782473D01*
X67210583Y-35786249D02*
X66996981Y-35748585D01*
X118675197Y-31817526D02*
X118844774Y-31682293D01*
X75422098Y-43517526D02*
X75598205Y-43644138D01*
X69610196Y-25471666D02*
X69462668Y-25312669D01*
X38065765Y-102900000D02*
X38065765Y-105900000D01*
X25898205Y-24755861D02*
X25722098Y-24882473D01*
X117330833Y-24193258D02*
X117122042Y-24134513D01*
X119702760Y-100910076D02*
X119815858Y-100725000D01*
X78048648Y-102900000D02*
X87765765Y-102900000D01*
X76975253Y-106034513D02*
X76766462Y-106093258D01*
X56631530Y-67800000D02*
X66348648Y-67800000D01*
X74281437Y-53925000D02*
X74394535Y-54110076D01*
X28348648Y-59100000D02*
X28131818Y-59105407D01*
X74647681Y-60737819D02*
X74516717Y-60910715D01*
X76161253Y-55669214D02*
X76358956Y-55758421D01*
X68975197Y-43517526D02*
X69144774Y-43382293D01*
X68236042Y-82930785D02*
X68038339Y-82841578D01*
X69307399Y-43238775D02*
X69462668Y-43087330D01*
X118129052Y-114070263D02*
X118316891Y-113961815D01*
X27700314Y-56051414D02*
X27915527Y-56078383D01*
X74787099Y-60571666D02*
X74647681Y-60737819D01*
X117330833Y-59293258D02*
X117122042Y-59234513D01*
X74647681Y-37337819D02*
X74516717Y-37510715D01*
X69307399Y-25161224D02*
X69144774Y-25017706D01*
X68429052Y-36229736D02*
X68236042Y-36130785D01*
X129397295Y-15000000D02*
X15000000Y-15000000D01*
X73966868Y-73650000D02*
X70430427Y-73650000D01*
X118844774Y-55082293D02*
X119007399Y-54938775D01*
X74394535Y-54110076D02*
X74516717Y-54289284D01*
X119580578Y-96010715D02*
X119449614Y-95837819D01*
X25552521Y-90182293D02*
X25722098Y-90317526D01*
X119702760Y-77510076D02*
X119815858Y-77325000D01*
X76358956Y-106241578D02*
X76161253Y-106330785D01*
X67422042Y-102765486D02*
X67630833Y-102706741D01*
X69880578Y-84310715D02*
X69749614Y-84137819D01*
X68429052Y-47929736D02*
X68236042Y-47830785D01*
X27066462Y-59293258D02*
X26860860Y-59362337D01*
X119815858Y-100725000D02*
X119919590Y-100534516D01*
X25087099Y-72271666D02*
X24947681Y-72437819D01*
X119702760Y-61089923D02*
X119580578Y-60910715D01*
X21000000Y-26850000D02*
X21000000Y-29850000D01*
X119919590Y-100534516D02*
X120013698Y-100339098D01*
X68038339Y-24341578D02*
X67836435Y-24262337D01*
X25087099Y-78028333D02*
X25234627Y-78187330D01*
X27915527Y-82521616D02*
X27700314Y-82548585D01*
X119580578Y-60910715D02*
X119449614Y-60737819D01*
X68975197Y-106782473D02*
X68799090Y-106655861D01*
X27486712Y-79413750D02*
X27700314Y-79451414D01*
X68616891Y-48038184D02*
X68429052Y-47929736D01*
X119815858Y-84675000D02*
X119702760Y-84489923D01*
X117536435Y-59362337D02*
X117330833Y-59293258D01*
X25234627Y-113287330D02*
X25389896Y-113438775D01*
X26461253Y-114169214D02*
X26658956Y-114258421D01*
X26080404Y-24638184D02*
X25898205Y-24755861D01*
X118316891Y-43761815D02*
X118499090Y-43644138D01*
X74647681Y-107537819D02*
X74516717Y-107710715D01*
X27915527Y-105921616D02*
X27700314Y-105948585D01*
X87765765Y-102900000D02*
X87765765Y-105900000D01*
X53631530Y-59100000D02*
X41065765Y-59100000D01*
X27700314Y-47448585D02*
X27486712Y-47486249D01*
X26080404Y-106538184D02*
X25898205Y-106655861D01*
X70115858Y-112425000D02*
X70219590Y-112234516D01*
X116910583Y-70886249D02*
X116696981Y-70848585D01*
X26268243Y-94729736D02*
X26080404Y-94838184D01*
X75598205Y-24755861D02*
X75422098Y-24882473D01*
X77186712Y-56013750D02*
X77400314Y-56051414D01*
X87765765Y-44400000D02*
X87765765Y-47400000D01*
X73999347Y-96960766D02*
X73925164Y-97164583D01*
X106331530Y-44400000D02*
X116048648Y-44400000D01*
X68236042Y-79069214D02*
X68429052Y-78970263D01*
X119310196Y-72271666D02*
X119162668Y-72112669D01*
X70472131Y-53135416D02*
X70430427Y-53250000D01*
X103331530Y-104400000D02*
X103331530Y-105900000D01*
X24266868Y-38550000D02*
X21000000Y-38550000D01*
X70219590Y-26365483D02*
X70115858Y-26175000D01*
X69610196Y-89728333D02*
X69749614Y-89562180D01*
X25234627Y-60412669D02*
X25087099Y-60571666D01*
X69880578Y-49210715D02*
X69749614Y-49037819D01*
X116481768Y-70821616D02*
X116265477Y-70805407D01*
X24581437Y-77325000D02*
X24694535Y-77510076D01*
M02*
