%TF.GenerationSoftware,KiCad,Pcbnew,(6.0.5)*%
%TF.CreationDate,2022-06-15T20:47:15+08:00*%
%TF.ProjectId,panel,70616e65-6c2e-46b6-9963-61645f706362,rev?*%
%TF.SameCoordinates,Original*%
%TF.FileFunction,Paste,Bot*%
%TF.FilePolarity,Positive*%
%FSLAX46Y46*%
G04 Gerber Fmt 4.6, Leading zero omitted, Abs format (unit mm)*
G04 Created by KiCad (PCBNEW (6.0.5)) date 2022-06-15 20:47:15*
%MOMM*%
%LPD*%
G01*
G04 APERTURE LIST*
G04 Aperture macros list*
%AMRoundRect*
0 Rectangle with rounded corners*
0 $1 Rounding radius*
0 $2 $3 $4 $5 $6 $7 $8 $9 X,Y pos of 4 corners*
0 Add a 4 corners polygon primitive as box body*
4,1,4,$2,$3,$4,$5,$6,$7,$8,$9,$2,$3,0*
0 Add four circle primitives for the rounded corners*
1,1,$1+$1,$2,$3*
1,1,$1+$1,$4,$5*
1,1,$1+$1,$6,$7*
1,1,$1+$1,$8,$9*
0 Add four rect primitives between the rounded corners*
20,1,$1+$1,$2,$3,$4,$5,0*
20,1,$1+$1,$4,$5,$6,$7,0*
20,1,$1+$1,$6,$7,$8,$9,0*
20,1,$1+$1,$8,$9,$2,$3,0*%
G04 Aperture macros list end*
%ADD10R,0.575000X1.450000*%
%ADD11R,0.300000X1.450000*%
%ADD12RoundRect,0.249999X-0.450001X0.262501X-0.450001X-0.262501X0.450001X-0.262501X0.450001X0.262501X0*%
%ADD13RoundRect,0.200000X0.275000X-0.200000X0.275000X0.200000X-0.275000X0.200000X-0.275000X-0.200000X0*%
%ADD14R,0.600000X1.550000*%
%ADD15R,1.200000X1.800000*%
%ADD16RoundRect,0.225000X-0.250000X0.225000X-0.250000X-0.225000X0.250000X-0.225000X0.250000X0.225000X0*%
G04 APERTURE END LIST*
D10*
%TO.C,J1*%
X48573648Y-49705000D03*
X47798648Y-49705000D03*
D11*
X47098648Y-49705000D03*
X46598648Y-49705000D03*
X46098648Y-49705000D03*
X45598648Y-49705000D03*
X45098648Y-49705000D03*
X44598648Y-49705000D03*
X44098648Y-49705000D03*
X43598648Y-49705000D03*
D10*
X42898648Y-49705000D03*
X42123648Y-49705000D03*
%TD*%
D12*
%TO.C,R3*%
X34948648Y-63387500D03*
X34948648Y-65212500D03*
%TD*%
D13*
%TO.C,R1*%
X36948648Y-64925000D03*
X36948648Y-63275000D03*
%TD*%
D14*
%TO.C,J2*%
X107148648Y-54175000D03*
X108148648Y-54175000D03*
X109148648Y-54175000D03*
X110148648Y-54175000D03*
D15*
X105848648Y-50300000D03*
X111448648Y-50300000D03*
%TD*%
D14*
%TO.C,J2*%
X107148648Y-112675000D03*
X108148648Y-112675000D03*
X109148648Y-112675000D03*
X110148648Y-112675000D03*
D15*
X111448648Y-108800000D03*
X105848648Y-108800000D03*
%TD*%
D12*
%TO.C,R3*%
X84648648Y-86787500D03*
X84648648Y-88612500D03*
%TD*%
D16*
%TO.C,C1*%
X32948648Y-51825000D03*
X32948648Y-53375000D03*
%TD*%
D10*
%TO.C,J1*%
X98273648Y-84805000D03*
X97498648Y-84805000D03*
D11*
X96798648Y-84805000D03*
X96298648Y-84805000D03*
X95798648Y-84805000D03*
X95298648Y-84805000D03*
X94798648Y-84805000D03*
X94298648Y-84805000D03*
X93798648Y-84805000D03*
X93298648Y-84805000D03*
D10*
X92598648Y-84805000D03*
X91823648Y-84805000D03*
%TD*%
%TO.C,J1*%
X98273648Y-96505000D03*
X97498648Y-96505000D03*
D11*
X96798648Y-96505000D03*
X96298648Y-96505000D03*
X95798648Y-96505000D03*
X95298648Y-96505000D03*
X94798648Y-96505000D03*
X94298648Y-96505000D03*
X93798648Y-96505000D03*
X93298648Y-96505000D03*
D10*
X92598648Y-96505000D03*
X91823648Y-96505000D03*
%TD*%
D13*
%TO.C,R1*%
X86648648Y-53225000D03*
X86648648Y-51575000D03*
%TD*%
D16*
%TO.C,C1*%
X32948648Y-63525000D03*
X32948648Y-65075000D03*
%TD*%
D10*
%TO.C,J1*%
X48573648Y-26305000D03*
X47798648Y-26305000D03*
D11*
X47098648Y-26305000D03*
X46598648Y-26305000D03*
X46098648Y-26305000D03*
X45598648Y-26305000D03*
X45098648Y-26305000D03*
X44598648Y-26305000D03*
X44098648Y-26305000D03*
X43598648Y-26305000D03*
D10*
X42898648Y-26305000D03*
X42123648Y-26305000D03*
%TD*%
D13*
%TO.C,R2*%
X88448648Y-53225000D03*
X88448648Y-51575000D03*
%TD*%
D14*
%TO.C,J2*%
X57448648Y-65875000D03*
X58448648Y-65875000D03*
X59448648Y-65875000D03*
X60448648Y-65875000D03*
D15*
X56148648Y-62000000D03*
X61748648Y-62000000D03*
%TD*%
D13*
%TO.C,R1*%
X36948648Y-29825000D03*
X36948648Y-28175000D03*
%TD*%
D10*
%TO.C,J1*%
X48573648Y-84805000D03*
X47798648Y-84805000D03*
D11*
X47098648Y-84805000D03*
X46598648Y-84805000D03*
X46098648Y-84805000D03*
X45598648Y-84805000D03*
X45098648Y-84805000D03*
X44598648Y-84805000D03*
X44098648Y-84805000D03*
X43598648Y-84805000D03*
D10*
X42898648Y-84805000D03*
X42123648Y-84805000D03*
%TD*%
D13*
%TO.C,R2*%
X38748648Y-76625000D03*
X38748648Y-74975000D03*
%TD*%
D10*
%TO.C,J1*%
X98273648Y-61405000D03*
X97498648Y-61405000D03*
D11*
X96798648Y-61405000D03*
X96298648Y-61405000D03*
X95798648Y-61405000D03*
X95298648Y-61405000D03*
X94798648Y-61405000D03*
X94298648Y-61405000D03*
X93798648Y-61405000D03*
X93298648Y-61405000D03*
D10*
X92598648Y-61405000D03*
X91823648Y-61405000D03*
%TD*%
D16*
%TO.C,C1*%
X82648648Y-40125000D03*
X82648648Y-41675000D03*
%TD*%
D10*
%TO.C,J1*%
X98273648Y-108205000D03*
X97498648Y-108205000D03*
D11*
X96798648Y-108205000D03*
X96298648Y-108205000D03*
X95798648Y-108205000D03*
X95298648Y-108205000D03*
X94798648Y-108205000D03*
X94298648Y-108205000D03*
X93798648Y-108205000D03*
X93298648Y-108205000D03*
D10*
X92598648Y-108205000D03*
X91823648Y-108205000D03*
%TD*%
D14*
%TO.C,J2*%
X57448648Y-112675000D03*
X58448648Y-112675000D03*
X59448648Y-112675000D03*
X60448648Y-112675000D03*
D15*
X56148648Y-108800000D03*
X61748648Y-108800000D03*
%TD*%
D13*
%TO.C,R2*%
X88448648Y-29825000D03*
X88448648Y-28175000D03*
%TD*%
D12*
%TO.C,R3*%
X34948648Y-98487500D03*
X34948648Y-100312500D03*
%TD*%
D13*
%TO.C,R2*%
X88448648Y-111725000D03*
X88448648Y-110075000D03*
%TD*%
D12*
%TO.C,R3*%
X84648648Y-39987500D03*
X84648648Y-41812500D03*
%TD*%
D14*
%TO.C,J2*%
X107148648Y-30775000D03*
X108148648Y-30775000D03*
X109148648Y-30775000D03*
X110148648Y-30775000D03*
D15*
X111448648Y-26900000D03*
X105848648Y-26900000D03*
%TD*%
D13*
%TO.C,R1*%
X86648648Y-111725000D03*
X86648648Y-110075000D03*
%TD*%
D10*
%TO.C,J1*%
X48573648Y-73105000D03*
X47798648Y-73105000D03*
D11*
X47098648Y-73105000D03*
X46598648Y-73105000D03*
X46098648Y-73105000D03*
X45598648Y-73105000D03*
X45098648Y-73105000D03*
X44598648Y-73105000D03*
X44098648Y-73105000D03*
X43598648Y-73105000D03*
D10*
X42898648Y-73105000D03*
X42123648Y-73105000D03*
%TD*%
D13*
%TO.C,R2*%
X88448648Y-88325000D03*
X88448648Y-86675000D03*
%TD*%
D16*
%TO.C,C1*%
X32948648Y-75225000D03*
X32948648Y-76775000D03*
%TD*%
%TO.C,C1*%
X32948648Y-40125000D03*
X32948648Y-41675000D03*
%TD*%
D13*
%TO.C,R1*%
X36948648Y-88325000D03*
X36948648Y-86675000D03*
%TD*%
D10*
%TO.C,J1*%
X48573648Y-38005000D03*
X47798648Y-38005000D03*
D11*
X47098648Y-38005000D03*
X46598648Y-38005000D03*
X46098648Y-38005000D03*
X45598648Y-38005000D03*
X45098648Y-38005000D03*
X44598648Y-38005000D03*
X44098648Y-38005000D03*
X43598648Y-38005000D03*
D10*
X42898648Y-38005000D03*
X42123648Y-38005000D03*
%TD*%
D13*
%TO.C,R2*%
X38748648Y-100025000D03*
X38748648Y-98375000D03*
%TD*%
D12*
%TO.C,R3*%
X34948648Y-75087500D03*
X34948648Y-76912500D03*
%TD*%
D16*
%TO.C,C1*%
X82648648Y-75225000D03*
X82648648Y-76775000D03*
%TD*%
D12*
%TO.C,R3*%
X84648648Y-28287500D03*
X84648648Y-30112500D03*
%TD*%
%TO.C,R3*%
X34948648Y-51687500D03*
X34948648Y-53512500D03*
%TD*%
%TO.C,R3*%
X34948648Y-28287500D03*
X34948648Y-30112500D03*
%TD*%
D16*
%TO.C,C1*%
X32948648Y-86925000D03*
X32948648Y-88475000D03*
%TD*%
D14*
%TO.C,J2*%
X107148648Y-89275000D03*
X108148648Y-89275000D03*
X109148648Y-89275000D03*
X110148648Y-89275000D03*
D15*
X105848648Y-85400000D03*
X111448648Y-85400000D03*
%TD*%
D13*
%TO.C,R1*%
X86648648Y-64925000D03*
X86648648Y-63275000D03*
%TD*%
D10*
%TO.C,J1*%
X98273648Y-26305000D03*
X97498648Y-26305000D03*
D11*
X96798648Y-26305000D03*
X96298648Y-26305000D03*
X95798648Y-26305000D03*
X95298648Y-26305000D03*
X94798648Y-26305000D03*
X94298648Y-26305000D03*
X93798648Y-26305000D03*
X93298648Y-26305000D03*
D10*
X92598648Y-26305000D03*
X91823648Y-26305000D03*
%TD*%
%TO.C,J1*%
X48573648Y-61405000D03*
X47798648Y-61405000D03*
D11*
X47098648Y-61405000D03*
X46598648Y-61405000D03*
X46098648Y-61405000D03*
X45598648Y-61405000D03*
X45098648Y-61405000D03*
X44598648Y-61405000D03*
X44098648Y-61405000D03*
X43598648Y-61405000D03*
D10*
X42898648Y-61405000D03*
X42123648Y-61405000D03*
%TD*%
D13*
%TO.C,R1*%
X86648648Y-88325000D03*
X86648648Y-86675000D03*
%TD*%
%TO.C,R2*%
X38748648Y-111725000D03*
X38748648Y-110075000D03*
%TD*%
D16*
%TO.C,C1*%
X82648648Y-110325000D03*
X82648648Y-111875000D03*
%TD*%
D13*
%TO.C,R2*%
X88448648Y-76625000D03*
X88448648Y-74975000D03*
%TD*%
%TO.C,R1*%
X86648648Y-41525000D03*
X86648648Y-39875000D03*
%TD*%
%TO.C,R2*%
X38748648Y-41525000D03*
X38748648Y-39875000D03*
%TD*%
D14*
%TO.C,J2*%
X107148648Y-65875000D03*
X108148648Y-65875000D03*
X109148648Y-65875000D03*
X110148648Y-65875000D03*
D15*
X111448648Y-62000000D03*
X105848648Y-62000000D03*
%TD*%
D16*
%TO.C,C1*%
X82648648Y-98625000D03*
X82648648Y-100175000D03*
%TD*%
D13*
%TO.C,R2*%
X88448648Y-41525000D03*
X88448648Y-39875000D03*
%TD*%
%TO.C,R2*%
X38748648Y-29825000D03*
X38748648Y-28175000D03*
%TD*%
%TO.C,R1*%
X36948648Y-76625000D03*
X36948648Y-74975000D03*
%TD*%
D12*
%TO.C,R3*%
X84648648Y-63387500D03*
X84648648Y-65212500D03*
%TD*%
D10*
%TO.C,J1*%
X48573648Y-96505000D03*
X47798648Y-96505000D03*
D11*
X47098648Y-96505000D03*
X46598648Y-96505000D03*
X46098648Y-96505000D03*
X45598648Y-96505000D03*
X45098648Y-96505000D03*
X44598648Y-96505000D03*
X44098648Y-96505000D03*
X43598648Y-96505000D03*
D10*
X42898648Y-96505000D03*
X42123648Y-96505000D03*
%TD*%
D14*
%TO.C,J2*%
X107148648Y-42475000D03*
X108148648Y-42475000D03*
X109148648Y-42475000D03*
X110148648Y-42475000D03*
D15*
X105848648Y-38600000D03*
X111448648Y-38600000D03*
%TD*%
D12*
%TO.C,R3*%
X84648648Y-98487500D03*
X84648648Y-100312500D03*
%TD*%
D13*
%TO.C,R1*%
X86648648Y-29825000D03*
X86648648Y-28175000D03*
%TD*%
D12*
%TO.C,R3*%
X34948648Y-39987500D03*
X34948648Y-41812500D03*
%TD*%
D14*
%TO.C,J2*%
X107148648Y-77575000D03*
X108148648Y-77575000D03*
X109148648Y-77575000D03*
X110148648Y-77575000D03*
D15*
X111448648Y-73700000D03*
X105848648Y-73700000D03*
%TD*%
D14*
%TO.C,J2*%
X57448648Y-89275000D03*
X58448648Y-89275000D03*
X59448648Y-89275000D03*
X60448648Y-89275000D03*
D15*
X56148648Y-85400000D03*
X61748648Y-85400000D03*
%TD*%
D12*
%TO.C,R3*%
X84648648Y-75087500D03*
X84648648Y-76912500D03*
%TD*%
D14*
%TO.C,J2*%
X57448648Y-77575000D03*
X58448648Y-77575000D03*
X59448648Y-77575000D03*
X60448648Y-77575000D03*
D15*
X56148648Y-73700000D03*
X61748648Y-73700000D03*
%TD*%
D14*
%TO.C,J2*%
X57448648Y-30775000D03*
X58448648Y-30775000D03*
X59448648Y-30775000D03*
X60448648Y-30775000D03*
D15*
X56148648Y-26900000D03*
X61748648Y-26900000D03*
%TD*%
D16*
%TO.C,C1*%
X82648648Y-63525000D03*
X82648648Y-65075000D03*
%TD*%
%TO.C,C1*%
X32948648Y-98625000D03*
X32948648Y-100175000D03*
%TD*%
D13*
%TO.C,R2*%
X38748648Y-88325000D03*
X38748648Y-86675000D03*
%TD*%
D14*
%TO.C,J2*%
X57448648Y-54175000D03*
X58448648Y-54175000D03*
X59448648Y-54175000D03*
X60448648Y-54175000D03*
D15*
X56148648Y-50300000D03*
X61748648Y-50300000D03*
%TD*%
D12*
%TO.C,R3*%
X84648648Y-51687500D03*
X84648648Y-53512500D03*
%TD*%
D10*
%TO.C,J1*%
X98273648Y-49705000D03*
X97498648Y-49705000D03*
D11*
X96798648Y-49705000D03*
X96298648Y-49705000D03*
X95798648Y-49705000D03*
X95298648Y-49705000D03*
X94798648Y-49705000D03*
X94298648Y-49705000D03*
X93798648Y-49705000D03*
X93298648Y-49705000D03*
D10*
X92598648Y-49705000D03*
X91823648Y-49705000D03*
%TD*%
D16*
%TO.C,C1*%
X32948648Y-110325000D03*
X32948648Y-111875000D03*
%TD*%
D12*
%TO.C,R3*%
X84648648Y-110187500D03*
X84648648Y-112012500D03*
%TD*%
D16*
%TO.C,C1*%
X82648648Y-28425000D03*
X82648648Y-29975000D03*
%TD*%
D14*
%TO.C,J2*%
X57448648Y-100975000D03*
X58448648Y-100975000D03*
X59448648Y-100975000D03*
X60448648Y-100975000D03*
D15*
X56148648Y-97100000D03*
X61748648Y-97100000D03*
%TD*%
D13*
%TO.C,R1*%
X36948648Y-111725000D03*
X36948648Y-110075000D03*
%TD*%
D14*
%TO.C,J2*%
X57448648Y-42475000D03*
X58448648Y-42475000D03*
X59448648Y-42475000D03*
X60448648Y-42475000D03*
D15*
X61748648Y-38600000D03*
X56148648Y-38600000D03*
%TD*%
D13*
%TO.C,R1*%
X36948648Y-53225000D03*
X36948648Y-51575000D03*
%TD*%
%TO.C,R1*%
X36948648Y-100025000D03*
X36948648Y-98375000D03*
%TD*%
D16*
%TO.C,C1*%
X82648648Y-51825000D03*
X82648648Y-53375000D03*
%TD*%
D12*
%TO.C,R3*%
X34948648Y-86787500D03*
X34948648Y-88612500D03*
%TD*%
D13*
%TO.C,R1*%
X36948648Y-41525000D03*
X36948648Y-39875000D03*
%TD*%
D10*
%TO.C,J1*%
X98273648Y-38005000D03*
X97498648Y-38005000D03*
D11*
X96798648Y-38005000D03*
X96298648Y-38005000D03*
X95798648Y-38005000D03*
X95298648Y-38005000D03*
X94798648Y-38005000D03*
X94298648Y-38005000D03*
X93798648Y-38005000D03*
X93298648Y-38005000D03*
D10*
X92598648Y-38005000D03*
X91823648Y-38005000D03*
%TD*%
%TO.C,J1*%
X48573648Y-108205000D03*
X47798648Y-108205000D03*
D11*
X47098648Y-108205000D03*
X46598648Y-108205000D03*
X46098648Y-108205000D03*
X45598648Y-108205000D03*
X45098648Y-108205000D03*
X44598648Y-108205000D03*
X44098648Y-108205000D03*
X43598648Y-108205000D03*
D10*
X42898648Y-108205000D03*
X42123648Y-108205000D03*
%TD*%
D13*
%TO.C,R2*%
X38748648Y-53225000D03*
X38748648Y-51575000D03*
%TD*%
D16*
%TO.C,C1*%
X32948648Y-28425000D03*
X32948648Y-29975000D03*
%TD*%
D12*
%TO.C,R3*%
X34948648Y-110187500D03*
X34948648Y-112012500D03*
%TD*%
D13*
%TO.C,R2*%
X88448648Y-100025000D03*
X88448648Y-98375000D03*
%TD*%
%TO.C,R1*%
X86648648Y-100025000D03*
X86648648Y-98375000D03*
%TD*%
D10*
%TO.C,J1*%
X98273648Y-73105000D03*
X97498648Y-73105000D03*
D11*
X96798648Y-73105000D03*
X96298648Y-73105000D03*
X95798648Y-73105000D03*
X95298648Y-73105000D03*
X94798648Y-73105000D03*
X94298648Y-73105000D03*
X93798648Y-73105000D03*
X93298648Y-73105000D03*
D10*
X92598648Y-73105000D03*
X91823648Y-73105000D03*
%TD*%
D13*
%TO.C,R1*%
X86648648Y-76625000D03*
X86648648Y-74975000D03*
%TD*%
D14*
%TO.C,J2*%
X107148648Y-100975000D03*
X108148648Y-100975000D03*
X109148648Y-100975000D03*
X110148648Y-100975000D03*
D15*
X105848648Y-97100000D03*
X111448648Y-97100000D03*
%TD*%
D13*
%TO.C,R2*%
X88448648Y-64925000D03*
X88448648Y-63275000D03*
%TD*%
D16*
%TO.C,C1*%
X82648648Y-86925000D03*
X82648648Y-88475000D03*
%TD*%
D13*
%TO.C,R2*%
X38748648Y-64925000D03*
X38748648Y-63275000D03*
%TD*%
M02*
