M48
; DRILL file {KiCad (6.0.5)} date Sat Jun  4 14:03:14 2022
; FORMAT={-:-/ absolute / inch / decimal}
; #@! TF.CreationDate,2022-06-04T14:03:14+08:00
; #@! TF.GenerationSoftware,Kicad,Pcbnew,(6.0.5)
; #@! TF.FileFunction,NonPlated,1,2,NPTH
FMAT,2
INCH
; #@! TA.AperFunction,NonPlated,NPTH,ComponentDrill
T1C0.0197
; #@! TA.AperFunction,NonPlated,NPTH,ComponentDrill
T2C0.0256
%
G90
G05
T1
X0.5906Y-0.9449
X0.5906Y-4.5118
X0.6243Y-0.9449
X0.6243Y-4.5118
X0.658Y-0.9449
X0.658Y-4.5118
X0.6918Y-0.9449
X0.6918Y-4.5118
X0.7255Y-0.9449
X0.7255Y-4.5118
X0.7593Y-0.9449
X0.7593Y-4.5118
X0.793Y-0.9449
X0.793Y-4.5118
X0.8268Y-0.9449
X0.8268Y-4.5118
X0.9449Y-0.5906
X0.9449Y-0.6243
X0.9449Y-0.658
X0.9449Y-0.6918
X0.9449Y-0.7255
X0.9449Y-0.7593
X0.9449Y-0.793
X0.9449Y-0.8268
X0.9449Y-4.6299
X0.9449Y-4.6637
X0.9449Y-4.6974
X0.9449Y-4.7312
X0.9449Y-4.7649
X0.9449Y-4.7987
X0.9449Y-4.8324
X0.9449Y-4.8661
X0.946Y-1.0961
X0.946Y-1.1362
X0.946Y-1.5567
X0.946Y-1.5968
X0.946Y-2.0173
X0.946Y-2.0575
X0.946Y-2.478
X0.946Y-2.5181
X0.946Y-2.9386
X0.946Y-2.9787
X0.946Y-3.3992
X0.946Y-3.4393
X0.946Y-3.8599
X0.946Y-3.9
X0.946Y-4.3205
X0.946Y-4.3606
X0.9554Y-1.0571
X0.9554Y-1.1752
X0.9554Y-1.5177
X0.9554Y-1.6358
X0.9554Y-1.9783
X0.9554Y-2.0965
X0.9554Y-2.439
X0.9554Y-2.5571
X0.9554Y-2.8996
X0.9554Y-3.0177
X0.9554Y-3.3602
X0.9554Y-3.4783
X0.9554Y-3.8209
X0.9554Y-3.939
X0.9554Y-4.2815
X0.9554Y-4.3996
X1.4987Y-0.9449
X1.4987Y-1.2874
X1.4987Y-1.4055
X1.4987Y-1.748
X1.4987Y-1.8661
X1.4987Y-2.2087
X1.4987Y-2.3268
X1.4987Y-2.6693
X1.4987Y-2.7874
X1.4987Y-3.1299
X1.4987Y-3.248
X1.4987Y-3.5906
X1.4987Y-3.7087
X1.4987Y-4.0512
X1.4987Y-4.1693
X1.4987Y-4.5118
X1.538Y-0.9449
X1.538Y-1.2874
X1.538Y-1.4055
X1.538Y-1.748
X1.538Y-1.8661
X1.538Y-2.2087
X1.538Y-2.3268
X1.538Y-2.6693
X1.538Y-2.7874
X1.538Y-3.1299
X1.538Y-3.248
X1.538Y-3.5906
X1.538Y-3.7087
X1.538Y-4.0512
X1.538Y-4.1693
X1.538Y-4.5118
X1.5774Y-0.9449
X1.5774Y-1.2874
X1.5774Y-1.4055
X1.5774Y-1.748
X1.5774Y-1.8661
X1.5774Y-2.2087
X1.5774Y-2.3268
X1.5774Y-2.6693
X1.5774Y-2.7874
X1.5774Y-3.1299
X1.5774Y-3.248
X1.5774Y-3.5906
X1.5774Y-3.7087
X1.5774Y-4.0512
X1.5774Y-4.1693
X1.5774Y-4.5118
X1.6168Y-0.9449
X1.6168Y-1.2874
X1.6168Y-1.4055
X1.6168Y-1.748
X1.6168Y-1.8661
X1.6168Y-2.2087
X1.6168Y-2.3268
X1.6168Y-2.6693
X1.6168Y-2.7874
X1.6168Y-3.1299
X1.6168Y-3.248
X1.6168Y-3.5906
X1.6168Y-3.7087
X1.6168Y-4.0512
X1.6168Y-4.1693
X1.6168Y-4.5118
X2.1115Y-0.9449
X2.1115Y-1.2874
X2.1115Y-1.4055
X2.1115Y-1.748
X2.1115Y-1.8661
X2.1115Y-2.2087
X2.1115Y-2.3268
X2.1115Y-2.6693
X2.1115Y-2.7874
X2.1115Y-3.1299
X2.1115Y-3.248
X2.1115Y-3.5906
X2.1115Y-3.7087
X2.1115Y-4.0512
X2.1115Y-4.1693
X2.1115Y-4.5118
X2.1508Y-0.9449
X2.1508Y-1.2874
X2.1508Y-1.4055
X2.1508Y-1.748
X2.1508Y-1.8661
X2.1508Y-2.2087
X2.1508Y-2.3268
X2.1508Y-2.6693
X2.1508Y-2.7874
X2.1508Y-3.1299
X2.1508Y-3.248
X2.1508Y-3.5906
X2.1508Y-3.7087
X2.1508Y-4.0512
X2.1508Y-4.1693
X2.1508Y-4.5118
X2.1902Y-0.9449
X2.1902Y-1.2874
X2.1902Y-1.4055
X2.1902Y-1.748
X2.1902Y-1.8661
X2.1902Y-2.2087
X2.1902Y-2.3268
X2.1902Y-2.6693
X2.1902Y-2.7874
X2.1902Y-3.1299
X2.1902Y-3.248
X2.1902Y-3.5906
X2.1902Y-3.7087
X2.1902Y-4.0512
X2.1902Y-4.1693
X2.1902Y-4.5118
X2.2296Y-0.9449
X2.2296Y-1.2874
X2.2296Y-1.4055
X2.2296Y-1.748
X2.2296Y-1.8661
X2.2296Y-2.2087
X2.2296Y-2.3268
X2.2296Y-2.6693
X2.2296Y-2.7874
X2.2296Y-3.1299
X2.2296Y-3.248
X2.2296Y-3.5906
X2.2296Y-3.7087
X2.2296Y-4.0512
X2.2296Y-4.1693
X2.2296Y-4.5118
X2.7729Y-1.0571
X2.7729Y-1.1752
X2.7729Y-1.5177
X2.7729Y-1.6358
X2.7729Y-1.9783
X2.7729Y-2.0965
X2.7729Y-2.439
X2.7729Y-2.5571
X2.7729Y-2.8996
X2.7729Y-3.0177
X2.7729Y-3.3602
X2.7729Y-3.4783
X2.7729Y-3.8209
X2.7729Y-3.939
X2.7729Y-4.2815
X2.7729Y-4.3996
X2.7822Y-1.0961
X2.7822Y-1.1362
X2.7822Y-1.5567
X2.7822Y-1.5968
X2.7822Y-2.0173
X2.7822Y-2.0575
X2.7822Y-2.478
X2.7822Y-2.5181
X2.7822Y-2.9386
X2.7822Y-2.9787
X2.7822Y-3.3992
X2.7822Y-3.4393
X2.7822Y-3.8599
X2.7822Y-3.9
X2.7822Y-4.3205
X2.7822Y-4.3606
X2.9027Y-1.0961
X2.9027Y-1.1362
X2.9027Y-1.5567
X2.9027Y-1.5968
X2.9027Y-2.0173
X2.9027Y-2.0575
X2.9027Y-2.478
X2.9027Y-2.5181
X2.9027Y-2.9386
X2.9027Y-2.9787
X2.9027Y-3.3992
X2.9027Y-3.4393
X2.9027Y-3.8599
X2.9027Y-3.9
X2.9027Y-4.3205
X2.9027Y-4.3606
X2.9121Y-1.0571
X2.9121Y-1.1752
X2.9121Y-1.5177
X2.9121Y-1.6358
X2.9121Y-1.9783
X2.9121Y-2.0965
X2.9121Y-2.439
X2.9121Y-2.5571
X2.9121Y-2.8996
X2.9121Y-3.0177
X2.9121Y-3.3602
X2.9121Y-3.4783
X2.9121Y-3.8209
X2.9121Y-3.939
X2.9121Y-4.2815
X2.9121Y-4.3996
X3.4553Y-0.9449
X3.4553Y-1.2874
X3.4553Y-1.4055
X3.4553Y-1.748
X3.4553Y-1.8661
X3.4553Y-2.2087
X3.4553Y-2.3268
X3.4553Y-2.6693
X3.4553Y-2.7874
X3.4553Y-3.1299
X3.4553Y-3.248
X3.4553Y-3.5906
X3.4553Y-3.7087
X3.4553Y-4.0512
X3.4553Y-4.1693
X3.4553Y-4.5118
X3.4947Y-0.9449
X3.4947Y-1.2874
X3.4947Y-1.4055
X3.4947Y-1.748
X3.4947Y-1.8661
X3.4947Y-2.2087
X3.4947Y-2.3268
X3.4947Y-2.6693
X3.4947Y-2.7874
X3.4947Y-3.1299
X3.4947Y-3.248
X3.4947Y-3.5906
X3.4947Y-3.7087
X3.4947Y-4.0512
X3.4947Y-4.1693
X3.4947Y-4.5118
X3.5341Y-0.9449
X3.5341Y-1.2874
X3.5341Y-1.4055
X3.5341Y-1.748
X3.5341Y-1.8661
X3.5341Y-2.2087
X3.5341Y-2.3268
X3.5341Y-2.6693
X3.5341Y-2.7874
X3.5341Y-3.1299
X3.5341Y-3.248
X3.5341Y-3.5906
X3.5341Y-3.7087
X3.5341Y-4.0512
X3.5341Y-4.1693
X3.5341Y-4.5118
X3.5735Y-0.9449
X3.5735Y-1.2874
X3.5735Y-1.4055
X3.5735Y-1.748
X3.5735Y-1.8661
X3.5735Y-2.2087
X3.5735Y-2.3268
X3.5735Y-2.6693
X3.5735Y-2.7874
X3.5735Y-3.1299
X3.5735Y-3.248
X3.5735Y-3.5906
X3.5735Y-3.7087
X3.5735Y-4.0512
X3.5735Y-4.1693
X3.5735Y-4.5118
X4.0682Y-0.9449
X4.0682Y-1.2874
X4.0682Y-1.4055
X4.0682Y-1.748
X4.0682Y-1.8661
X4.0682Y-2.2087
X4.0682Y-2.3268
X4.0682Y-2.6693
X4.0682Y-2.7874
X4.0682Y-3.1299
X4.0682Y-3.248
X4.0682Y-3.5906
X4.0682Y-3.7087
X4.0682Y-4.0512
X4.0682Y-4.1693
X4.0682Y-4.5118
X4.1075Y-0.9449
X4.1075Y-1.2874
X4.1075Y-1.4055
X4.1075Y-1.748
X4.1075Y-1.8661
X4.1075Y-2.2087
X4.1075Y-2.3268
X4.1075Y-2.6693
X4.1075Y-2.7874
X4.1075Y-3.1299
X4.1075Y-3.248
X4.1075Y-3.5906
X4.1075Y-3.7087
X4.1075Y-4.0512
X4.1075Y-4.1693
X4.1075Y-4.5118
X4.1469Y-0.9449
X4.1469Y-1.2874
X4.1469Y-1.4055
X4.1469Y-1.748
X4.1469Y-1.8661
X4.1469Y-2.2087
X4.1469Y-2.3268
X4.1469Y-2.6693
X4.1469Y-2.7874
X4.1469Y-3.1299
X4.1469Y-3.248
X4.1469Y-3.5906
X4.1469Y-3.7087
X4.1469Y-4.0512
X4.1469Y-4.1693
X4.1469Y-4.5118
X4.1863Y-0.9449
X4.1863Y-1.2874
X4.1863Y-1.4055
X4.1863Y-1.748
X4.1863Y-1.8661
X4.1863Y-2.2087
X4.1863Y-2.3268
X4.1863Y-2.6693
X4.1863Y-2.7874
X4.1863Y-3.1299
X4.1863Y-3.248
X4.1863Y-3.5906
X4.1863Y-3.7087
X4.1863Y-4.0512
X4.1863Y-4.1693
X4.1863Y-4.5118
X4.7295Y-1.0571
X4.7295Y-1.1752
X4.7295Y-1.5177
X4.7295Y-1.6358
X4.7295Y-1.9783
X4.7295Y-2.0965
X4.7295Y-2.439
X4.7295Y-2.5571
X4.7295Y-2.8996
X4.7295Y-3.0177
X4.7295Y-3.3602
X4.7295Y-3.4783
X4.7295Y-3.8209
X4.7295Y-3.939
X4.7295Y-4.2815
X4.7295Y-4.3996
X4.7389Y-1.0961
X4.7389Y-1.1362
X4.7389Y-1.5567
X4.7389Y-1.5968
X4.7389Y-2.0173
X4.7389Y-2.0575
X4.7389Y-2.478
X4.7389Y-2.5181
X4.7389Y-2.9386
X4.7389Y-2.9787
X4.7389Y-3.3992
X4.7389Y-3.4393
X4.7389Y-3.8599
X4.7389Y-3.9
X4.7389Y-4.3205
X4.7389Y-4.3606
X4.7401Y-0.5906
X4.7401Y-0.6243
X4.7401Y-0.658
X4.7401Y-0.6918
X4.7401Y-0.7255
X4.7401Y-0.7593
X4.7401Y-0.793
X4.7401Y-0.8268
X4.7401Y-4.6299
X4.7401Y-4.6637
X4.7401Y-4.6974
X4.7401Y-4.7312
X4.7401Y-4.7649
X4.7401Y-4.7987
X4.7401Y-4.8324
X4.7401Y-4.8661
X4.8582Y-0.9449
X4.8582Y-4.5118
X4.8919Y-0.9449
X4.8919Y-4.5118
X4.9257Y-0.9449
X4.9257Y-4.5118
X4.9594Y-0.9449
X4.9594Y-4.5118
X4.9931Y-0.9449
X4.9931Y-4.5118
X5.0269Y-0.9449
X5.0269Y-4.5118
X5.0606Y-0.9449
X5.0606Y-4.5118
X5.0944Y-0.9449
X5.0944Y-4.5118
T2
X1.6716Y-1.0925
X1.6716Y-1.5531
X1.6716Y-2.0138
X1.6716Y-2.4744
X1.6716Y-2.935
X1.6716Y-3.3957
X1.6716Y-3.8563
X1.6716Y-4.3169
X1.8992Y-1.0925
X1.8992Y-1.5531
X1.8992Y-2.0138
X1.8992Y-2.4744
X1.8992Y-2.935
X1.8992Y-3.3957
X1.8992Y-3.8563
X1.8992Y-4.3169
X3.6283Y-1.0925
X3.6283Y-1.5531
X3.6283Y-2.0138
X3.6283Y-2.4744
X3.6283Y-2.935
X3.6283Y-3.3957
X3.6283Y-3.8563
X3.6283Y-4.3169
X3.8559Y-1.0925
X3.8559Y-1.5531
X3.8559Y-2.0138
X3.8559Y-2.4744
X3.8559Y-2.935
X3.8559Y-3.3957
X3.8559Y-3.8563
X3.8559Y-4.3169
T0
M30
