%TF.GenerationSoftware,KiCad,Pcbnew,(6.0.5)*%
%TF.CreationDate,2022-06-04T14:03:13+08:00*%
%TF.ProjectId,panel,70616e65-6c2e-46b6-9963-61645f706362,rev?*%
%TF.SameCoordinates,Original*%
%TF.FileFunction,Copper,L2,Bot*%
%TF.FilePolarity,Positive*%
%FSLAX46Y46*%
G04 Gerber Fmt 4.6, Leading zero omitted, Abs format (unit mm)*
G04 Created by KiCad (PCBNEW (6.0.5)) date 2022-06-04 14:03:13*
%MOMM*%
%LPD*%
G01*
G04 APERTURE LIST*
G04 Aperture macros list*
%AMRoundRect*
0 Rectangle with rounded corners*
0 $1 Rounding radius*
0 $2 $3 $4 $5 $6 $7 $8 $9 X,Y pos of 4 corners*
0 Add a 4 corners polygon primitive as box body*
4,1,4,$2,$3,$4,$5,$6,$7,$8,$9,$2,$3,0*
0 Add four circle primitives for the rounded corners*
1,1,$1+$1,$2,$3*
1,1,$1+$1,$4,$5*
1,1,$1+$1,$6,$7*
1,1,$1+$1,$8,$9*
0 Add four rect primitives between the rounded corners*
20,1,$1+$1,$2,$3,$4,$5,0*
20,1,$1+$1,$4,$5,$6,$7,0*
20,1,$1+$1,$6,$7,$8,$9,0*
20,1,$1+$1,$8,$9,$2,$3,0*%
G04 Aperture macros list end*
%ADD10C,0.250000*%
%TA.AperFunction,NonConductor*%
%ADD11C,0.250000*%
%TD*%
%TA.AperFunction,EtchedComponent*%
%ADD12C,0.100000*%
%TD*%
%TA.AperFunction,SMDPad,CuDef*%
%ADD13R,0.575000X1.450000*%
%TD*%
%TA.AperFunction,SMDPad,CuDef*%
%ADD14R,0.300000X1.450000*%
%TD*%
%TA.AperFunction,ComponentPad*%
%ADD15O,1.200000X2.300000*%
%TD*%
%TA.AperFunction,ComponentPad*%
%ADD16O,1.200000X1.800000*%
%TD*%
%TA.AperFunction,SMDPad,CuDef*%
%ADD17RoundRect,0.225000X-0.250000X0.225000X-0.250000X-0.225000X0.250000X-0.225000X0.250000X0.225000X0*%
%TD*%
%TA.AperFunction,SMDPad,CuDef*%
%ADD18RoundRect,0.200000X0.275000X-0.200000X0.275000X0.200000X-0.275000X0.200000X-0.275000X-0.200000X0*%
%TD*%
%TA.AperFunction,SMDPad,CuDef*%
%ADD19RoundRect,0.249999X-0.450001X0.262501X-0.450001X-0.262501X0.450001X-0.262501X0.450001X0.262501X0*%
%TD*%
%TA.AperFunction,SMDPad,CuDef*%
%ADD20R,0.600000X1.550000*%
%TD*%
%TA.AperFunction,SMDPad,CuDef*%
%ADD21R,1.200000X1.800000*%
%TD*%
%TA.AperFunction,ComponentPad*%
%ADD22C,0.800000*%
%TD*%
%TA.AperFunction,ComponentPad*%
%ADD23C,6.400000*%
%TD*%
%TA.AperFunction,ViaPad*%
%ADD24C,0.800000*%
%TD*%
%TA.AperFunction,Conductor*%
%ADD25C,0.350000*%
%TD*%
%TA.AperFunction,Conductor*%
%ADD26C,0.800000*%
%TD*%
%TA.AperFunction,Conductor*%
%ADD27C,0.250000*%
%TD*%
%TA.AperFunction,Conductor*%
%ADD28C,0.500000*%
%TD*%
G04 APERTURE END LIST*
D10*
%TO.C,G1*%
D11*
X53511648Y-75540380D02*
X53844981Y-75064190D01*
X54083076Y-75540380D02*
X54083076Y-74540380D01*
X53702124Y-74540380D01*
X53606886Y-74588000D01*
X53559267Y-74635619D01*
X53511648Y-74730857D01*
X53511648Y-74873714D01*
X53559267Y-74968952D01*
X53606886Y-75016571D01*
X53702124Y-75064190D01*
X54083076Y-75064190D01*
X53083076Y-75540380D02*
X53083076Y-74540380D01*
X52749743Y-75254666D01*
X52416409Y-74540380D01*
X52416409Y-75540380D01*
X51940219Y-75540380D02*
X51940219Y-74540380D01*
D10*
D11*
X103211648Y-28740380D02*
X103544981Y-28264190D01*
X103783076Y-28740380D02*
X103783076Y-27740380D01*
X103402124Y-27740380D01*
X103306886Y-27788000D01*
X103259267Y-27835619D01*
X103211648Y-27930857D01*
X103211648Y-28073714D01*
X103259267Y-28168952D01*
X103306886Y-28216571D01*
X103402124Y-28264190D01*
X103783076Y-28264190D01*
X102783076Y-28740380D02*
X102783076Y-27740380D01*
X102449743Y-28454666D01*
X102116409Y-27740380D01*
X102116409Y-28740380D01*
X101640219Y-28740380D02*
X101640219Y-27740380D01*
D10*
D11*
X103211648Y-75540380D02*
X103544981Y-75064190D01*
X103783076Y-75540380D02*
X103783076Y-74540380D01*
X103402124Y-74540380D01*
X103306886Y-74588000D01*
X103259267Y-74635619D01*
X103211648Y-74730857D01*
X103211648Y-74873714D01*
X103259267Y-74968952D01*
X103306886Y-75016571D01*
X103402124Y-75064190D01*
X103783076Y-75064190D01*
X102783076Y-75540380D02*
X102783076Y-74540380D01*
X102449743Y-75254666D01*
X102116409Y-74540380D01*
X102116409Y-75540380D01*
X101640219Y-75540380D02*
X101640219Y-74540380D01*
D10*
D11*
X103211648Y-40440380D02*
X103544981Y-39964190D01*
X103783076Y-40440380D02*
X103783076Y-39440380D01*
X103402124Y-39440380D01*
X103306886Y-39488000D01*
X103259267Y-39535619D01*
X103211648Y-39630857D01*
X103211648Y-39773714D01*
X103259267Y-39868952D01*
X103306886Y-39916571D01*
X103402124Y-39964190D01*
X103783076Y-39964190D01*
X102783076Y-40440380D02*
X102783076Y-39440380D01*
X102449743Y-40154666D01*
X102116409Y-39440380D01*
X102116409Y-40440380D01*
X101640219Y-40440380D02*
X101640219Y-39440380D01*
D10*
D11*
X103211648Y-63840380D02*
X103544981Y-63364190D01*
X103783076Y-63840380D02*
X103783076Y-62840380D01*
X103402124Y-62840380D01*
X103306886Y-62888000D01*
X103259267Y-62935619D01*
X103211648Y-63030857D01*
X103211648Y-63173714D01*
X103259267Y-63268952D01*
X103306886Y-63316571D01*
X103402124Y-63364190D01*
X103783076Y-63364190D01*
X102783076Y-63840380D02*
X102783076Y-62840380D01*
X102449743Y-63554666D01*
X102116409Y-62840380D01*
X102116409Y-63840380D01*
X101640219Y-63840380D02*
X101640219Y-62840380D01*
D10*
D11*
X53511648Y-28740380D02*
X53844981Y-28264190D01*
X54083076Y-28740380D02*
X54083076Y-27740380D01*
X53702124Y-27740380D01*
X53606886Y-27788000D01*
X53559267Y-27835619D01*
X53511648Y-27930857D01*
X53511648Y-28073714D01*
X53559267Y-28168952D01*
X53606886Y-28216571D01*
X53702124Y-28264190D01*
X54083076Y-28264190D01*
X53083076Y-28740380D02*
X53083076Y-27740380D01*
X52749743Y-28454666D01*
X52416409Y-27740380D01*
X52416409Y-28740380D01*
X51940219Y-28740380D02*
X51940219Y-27740380D01*
D10*
D11*
X53511648Y-110640380D02*
X53844981Y-110164190D01*
X54083076Y-110640380D02*
X54083076Y-109640380D01*
X53702124Y-109640380D01*
X53606886Y-109688000D01*
X53559267Y-109735619D01*
X53511648Y-109830857D01*
X53511648Y-109973714D01*
X53559267Y-110068952D01*
X53606886Y-110116571D01*
X53702124Y-110164190D01*
X54083076Y-110164190D01*
X53083076Y-110640380D02*
X53083076Y-109640380D01*
X52749743Y-110354666D01*
X52416409Y-109640380D01*
X52416409Y-110640380D01*
X51940219Y-110640380D02*
X51940219Y-109640380D01*
D10*
D11*
X53511648Y-63840380D02*
X53844981Y-63364190D01*
X54083076Y-63840380D02*
X54083076Y-62840380D01*
X53702124Y-62840380D01*
X53606886Y-62888000D01*
X53559267Y-62935619D01*
X53511648Y-63030857D01*
X53511648Y-63173714D01*
X53559267Y-63268952D01*
X53606886Y-63316571D01*
X53702124Y-63364190D01*
X54083076Y-63364190D01*
X53083076Y-63840380D02*
X53083076Y-62840380D01*
X52749743Y-63554666D01*
X52416409Y-62840380D01*
X52416409Y-63840380D01*
X51940219Y-63840380D02*
X51940219Y-62840380D01*
D10*
D11*
X53511648Y-98940380D02*
X53844981Y-98464190D01*
X54083076Y-98940380D02*
X54083076Y-97940380D01*
X53702124Y-97940380D01*
X53606886Y-97988000D01*
X53559267Y-98035619D01*
X53511648Y-98130857D01*
X53511648Y-98273714D01*
X53559267Y-98368952D01*
X53606886Y-98416571D01*
X53702124Y-98464190D01*
X54083076Y-98464190D01*
X53083076Y-98940380D02*
X53083076Y-97940380D01*
X52749743Y-98654666D01*
X52416409Y-97940380D01*
X52416409Y-98940380D01*
X51940219Y-98940380D02*
X51940219Y-97940380D01*
D10*
D11*
X53511648Y-87240380D02*
X53844981Y-86764190D01*
X54083076Y-87240380D02*
X54083076Y-86240380D01*
X53702124Y-86240380D01*
X53606886Y-86288000D01*
X53559267Y-86335619D01*
X53511648Y-86430857D01*
X53511648Y-86573714D01*
X53559267Y-86668952D01*
X53606886Y-86716571D01*
X53702124Y-86764190D01*
X54083076Y-86764190D01*
X53083076Y-87240380D02*
X53083076Y-86240380D01*
X52749743Y-86954666D01*
X52416409Y-86240380D01*
X52416409Y-87240380D01*
X51940219Y-87240380D02*
X51940219Y-86240380D01*
D10*
D11*
X103211648Y-52140380D02*
X103544981Y-51664190D01*
X103783076Y-52140380D02*
X103783076Y-51140380D01*
X103402124Y-51140380D01*
X103306886Y-51188000D01*
X103259267Y-51235619D01*
X103211648Y-51330857D01*
X103211648Y-51473714D01*
X103259267Y-51568952D01*
X103306886Y-51616571D01*
X103402124Y-51664190D01*
X103783076Y-51664190D01*
X102783076Y-52140380D02*
X102783076Y-51140380D01*
X102449743Y-51854666D01*
X102116409Y-51140380D01*
X102116409Y-52140380D01*
X101640219Y-52140380D02*
X101640219Y-51140380D01*
D10*
D11*
X103211648Y-98940380D02*
X103544981Y-98464190D01*
X103783076Y-98940380D02*
X103783076Y-97940380D01*
X103402124Y-97940380D01*
X103306886Y-97988000D01*
X103259267Y-98035619D01*
X103211648Y-98130857D01*
X103211648Y-98273714D01*
X103259267Y-98368952D01*
X103306886Y-98416571D01*
X103402124Y-98464190D01*
X103783076Y-98464190D01*
X102783076Y-98940380D02*
X102783076Y-97940380D01*
X102449743Y-98654666D01*
X102116409Y-97940380D01*
X102116409Y-98940380D01*
X101640219Y-98940380D02*
X101640219Y-97940380D01*
D10*
D11*
X103211648Y-87240380D02*
X103544981Y-86764190D01*
X103783076Y-87240380D02*
X103783076Y-86240380D01*
X103402124Y-86240380D01*
X103306886Y-86288000D01*
X103259267Y-86335619D01*
X103211648Y-86430857D01*
X103211648Y-86573714D01*
X103259267Y-86668952D01*
X103306886Y-86716571D01*
X103402124Y-86764190D01*
X103783076Y-86764190D01*
X102783076Y-87240380D02*
X102783076Y-86240380D01*
X102449743Y-86954666D01*
X102116409Y-86240380D01*
X102116409Y-87240380D01*
X101640219Y-87240380D02*
X101640219Y-86240380D01*
D10*
D11*
X53511648Y-40440380D02*
X53844981Y-39964190D01*
X54083076Y-40440380D02*
X54083076Y-39440380D01*
X53702124Y-39440380D01*
X53606886Y-39488000D01*
X53559267Y-39535619D01*
X53511648Y-39630857D01*
X53511648Y-39773714D01*
X53559267Y-39868952D01*
X53606886Y-39916571D01*
X53702124Y-39964190D01*
X54083076Y-39964190D01*
X53083076Y-40440380D02*
X53083076Y-39440380D01*
X52749743Y-40154666D01*
X52416409Y-39440380D01*
X52416409Y-40440380D01*
X51940219Y-40440380D02*
X51940219Y-39440380D01*
D10*
D11*
X103211648Y-110640380D02*
X103544981Y-110164190D01*
X103783076Y-110640380D02*
X103783076Y-109640380D01*
X103402124Y-109640380D01*
X103306886Y-109688000D01*
X103259267Y-109735619D01*
X103211648Y-109830857D01*
X103211648Y-109973714D01*
X103259267Y-110068952D01*
X103306886Y-110116571D01*
X103402124Y-110164190D01*
X103783076Y-110164190D01*
X102783076Y-110640380D02*
X102783076Y-109640380D01*
X102449743Y-110354666D01*
X102116409Y-109640380D01*
X102116409Y-110640380D01*
X101640219Y-110640380D02*
X101640219Y-109640380D01*
D10*
D11*
X53511648Y-52140380D02*
X53844981Y-51664190D01*
X54083076Y-52140380D02*
X54083076Y-51140380D01*
X53702124Y-51140380D01*
X53606886Y-51188000D01*
X53559267Y-51235619D01*
X53511648Y-51330857D01*
X53511648Y-51473714D01*
X53559267Y-51568952D01*
X53606886Y-51616571D01*
X53702124Y-51664190D01*
X54083076Y-51664190D01*
X53083076Y-52140380D02*
X53083076Y-51140380D01*
X52749743Y-51854666D01*
X52416409Y-51140380D01*
X52416409Y-52140380D01*
X51940219Y-52140380D02*
X51940219Y-51140380D01*
G36*
X54599152Y-76080190D02*
G01*
X51424144Y-76080190D01*
X51424144Y-75881750D01*
X54599152Y-75881750D01*
X54599152Y-76080190D01*
G37*
D12*
X54599152Y-76080190D02*
X51424144Y-76080190D01*
X51424144Y-75881750D01*
X54599152Y-75881750D01*
X54599152Y-76080190D01*
G36*
X54599152Y-74294250D02*
G01*
X51424144Y-74294250D01*
X51424144Y-74095810D01*
X54599152Y-74095810D01*
X54599152Y-74294250D01*
G37*
X54599152Y-74294250D02*
X51424144Y-74294250D01*
X51424144Y-74095810D01*
X54599152Y-74095810D01*
X54599152Y-74294250D01*
G36*
X51622582Y-76080190D02*
G01*
X51424144Y-76080190D01*
X51424144Y-74095810D01*
X51622582Y-74095810D01*
X51622582Y-76080190D01*
G37*
X51622582Y-76080190D02*
X51424144Y-76080190D01*
X51424144Y-74095810D01*
X51622582Y-74095810D01*
X51622582Y-76080190D01*
G36*
X54599152Y-76080190D02*
G01*
X54400714Y-76080190D01*
X54400714Y-74095810D01*
X54599152Y-74095810D01*
X54599152Y-76080190D01*
G37*
X54599152Y-76080190D02*
X54400714Y-76080190D01*
X54400714Y-74095810D01*
X54599152Y-74095810D01*
X54599152Y-76080190D01*
G36*
X101322582Y-29280190D02*
G01*
X101124144Y-29280190D01*
X101124144Y-27295810D01*
X101322582Y-27295810D01*
X101322582Y-29280190D01*
G37*
X101322582Y-29280190D02*
X101124144Y-29280190D01*
X101124144Y-27295810D01*
X101322582Y-27295810D01*
X101322582Y-29280190D01*
G36*
X104299152Y-27494250D02*
G01*
X101124144Y-27494250D01*
X101124144Y-27295810D01*
X104299152Y-27295810D01*
X104299152Y-27494250D01*
G37*
X104299152Y-27494250D02*
X101124144Y-27494250D01*
X101124144Y-27295810D01*
X104299152Y-27295810D01*
X104299152Y-27494250D01*
G36*
X104299152Y-29280190D02*
G01*
X101124144Y-29280190D01*
X101124144Y-29081750D01*
X104299152Y-29081750D01*
X104299152Y-29280190D01*
G37*
X104299152Y-29280190D02*
X101124144Y-29280190D01*
X101124144Y-29081750D01*
X104299152Y-29081750D01*
X104299152Y-29280190D01*
G36*
X104299152Y-29280190D02*
G01*
X104100714Y-29280190D01*
X104100714Y-27295810D01*
X104299152Y-27295810D01*
X104299152Y-29280190D01*
G37*
X104299152Y-29280190D02*
X104100714Y-29280190D01*
X104100714Y-27295810D01*
X104299152Y-27295810D01*
X104299152Y-29280190D01*
G36*
X101322582Y-76080190D02*
G01*
X101124144Y-76080190D01*
X101124144Y-74095810D01*
X101322582Y-74095810D01*
X101322582Y-76080190D01*
G37*
X101322582Y-76080190D02*
X101124144Y-76080190D01*
X101124144Y-74095810D01*
X101322582Y-74095810D01*
X101322582Y-76080190D01*
G36*
X104299152Y-76080190D02*
G01*
X104100714Y-76080190D01*
X104100714Y-74095810D01*
X104299152Y-74095810D01*
X104299152Y-76080190D01*
G37*
X104299152Y-76080190D02*
X104100714Y-76080190D01*
X104100714Y-74095810D01*
X104299152Y-74095810D01*
X104299152Y-76080190D01*
G36*
X104299152Y-76080190D02*
G01*
X101124144Y-76080190D01*
X101124144Y-75881750D01*
X104299152Y-75881750D01*
X104299152Y-76080190D01*
G37*
X104299152Y-76080190D02*
X101124144Y-76080190D01*
X101124144Y-75881750D01*
X104299152Y-75881750D01*
X104299152Y-76080190D01*
G36*
X104299152Y-74294250D02*
G01*
X101124144Y-74294250D01*
X101124144Y-74095810D01*
X104299152Y-74095810D01*
X104299152Y-74294250D01*
G37*
X104299152Y-74294250D02*
X101124144Y-74294250D01*
X101124144Y-74095810D01*
X104299152Y-74095810D01*
X104299152Y-74294250D01*
G36*
X104299152Y-40980190D02*
G01*
X104100714Y-40980190D01*
X104100714Y-38995810D01*
X104299152Y-38995810D01*
X104299152Y-40980190D01*
G37*
X104299152Y-40980190D02*
X104100714Y-40980190D01*
X104100714Y-38995810D01*
X104299152Y-38995810D01*
X104299152Y-40980190D01*
G36*
X104299152Y-40980190D02*
G01*
X101124144Y-40980190D01*
X101124144Y-40781750D01*
X104299152Y-40781750D01*
X104299152Y-40980190D01*
G37*
X104299152Y-40980190D02*
X101124144Y-40980190D01*
X101124144Y-40781750D01*
X104299152Y-40781750D01*
X104299152Y-40980190D01*
G36*
X104299152Y-39194250D02*
G01*
X101124144Y-39194250D01*
X101124144Y-38995810D01*
X104299152Y-38995810D01*
X104299152Y-39194250D01*
G37*
X104299152Y-39194250D02*
X101124144Y-39194250D01*
X101124144Y-38995810D01*
X104299152Y-38995810D01*
X104299152Y-39194250D01*
G36*
X101322582Y-40980190D02*
G01*
X101124144Y-40980190D01*
X101124144Y-38995810D01*
X101322582Y-38995810D01*
X101322582Y-40980190D01*
G37*
X101322582Y-40980190D02*
X101124144Y-40980190D01*
X101124144Y-38995810D01*
X101322582Y-38995810D01*
X101322582Y-40980190D01*
G36*
X104299152Y-64380190D02*
G01*
X104100714Y-64380190D01*
X104100714Y-62395810D01*
X104299152Y-62395810D01*
X104299152Y-64380190D01*
G37*
X104299152Y-64380190D02*
X104100714Y-64380190D01*
X104100714Y-62395810D01*
X104299152Y-62395810D01*
X104299152Y-64380190D01*
G36*
X104299152Y-62594250D02*
G01*
X101124144Y-62594250D01*
X101124144Y-62395810D01*
X104299152Y-62395810D01*
X104299152Y-62594250D01*
G37*
X104299152Y-62594250D02*
X101124144Y-62594250D01*
X101124144Y-62395810D01*
X104299152Y-62395810D01*
X104299152Y-62594250D01*
G36*
X104299152Y-64380190D02*
G01*
X101124144Y-64380190D01*
X101124144Y-64181750D01*
X104299152Y-64181750D01*
X104299152Y-64380190D01*
G37*
X104299152Y-64380190D02*
X101124144Y-64380190D01*
X101124144Y-64181750D01*
X104299152Y-64181750D01*
X104299152Y-64380190D01*
G36*
X101322582Y-64380190D02*
G01*
X101124144Y-64380190D01*
X101124144Y-62395810D01*
X101322582Y-62395810D01*
X101322582Y-64380190D01*
G37*
X101322582Y-64380190D02*
X101124144Y-64380190D01*
X101124144Y-62395810D01*
X101322582Y-62395810D01*
X101322582Y-64380190D01*
G36*
X51622582Y-29280190D02*
G01*
X51424144Y-29280190D01*
X51424144Y-27295810D01*
X51622582Y-27295810D01*
X51622582Y-29280190D01*
G37*
X51622582Y-29280190D02*
X51424144Y-29280190D01*
X51424144Y-27295810D01*
X51622582Y-27295810D01*
X51622582Y-29280190D01*
G36*
X54599152Y-29280190D02*
G01*
X51424144Y-29280190D01*
X51424144Y-29081750D01*
X54599152Y-29081750D01*
X54599152Y-29280190D01*
G37*
X54599152Y-29280190D02*
X51424144Y-29280190D01*
X51424144Y-29081750D01*
X54599152Y-29081750D01*
X54599152Y-29280190D01*
G36*
X54599152Y-27494250D02*
G01*
X51424144Y-27494250D01*
X51424144Y-27295810D01*
X54599152Y-27295810D01*
X54599152Y-27494250D01*
G37*
X54599152Y-27494250D02*
X51424144Y-27494250D01*
X51424144Y-27295810D01*
X54599152Y-27295810D01*
X54599152Y-27494250D01*
G36*
X54599152Y-29280190D02*
G01*
X54400714Y-29280190D01*
X54400714Y-27295810D01*
X54599152Y-27295810D01*
X54599152Y-29280190D01*
G37*
X54599152Y-29280190D02*
X54400714Y-29280190D01*
X54400714Y-27295810D01*
X54599152Y-27295810D01*
X54599152Y-29280190D01*
G36*
X54599152Y-109394250D02*
G01*
X51424144Y-109394250D01*
X51424144Y-109195810D01*
X54599152Y-109195810D01*
X54599152Y-109394250D01*
G37*
X54599152Y-109394250D02*
X51424144Y-109394250D01*
X51424144Y-109195810D01*
X54599152Y-109195810D01*
X54599152Y-109394250D01*
G36*
X54599152Y-111180190D02*
G01*
X54400714Y-111180190D01*
X54400714Y-109195810D01*
X54599152Y-109195810D01*
X54599152Y-111180190D01*
G37*
X54599152Y-111180190D02*
X54400714Y-111180190D01*
X54400714Y-109195810D01*
X54599152Y-109195810D01*
X54599152Y-111180190D01*
G36*
X51622582Y-111180190D02*
G01*
X51424144Y-111180190D01*
X51424144Y-109195810D01*
X51622582Y-109195810D01*
X51622582Y-111180190D01*
G37*
X51622582Y-111180190D02*
X51424144Y-111180190D01*
X51424144Y-109195810D01*
X51622582Y-109195810D01*
X51622582Y-111180190D01*
G36*
X54599152Y-111180190D02*
G01*
X51424144Y-111180190D01*
X51424144Y-110981750D01*
X54599152Y-110981750D01*
X54599152Y-111180190D01*
G37*
X54599152Y-111180190D02*
X51424144Y-111180190D01*
X51424144Y-110981750D01*
X54599152Y-110981750D01*
X54599152Y-111180190D01*
G36*
X51622582Y-64380190D02*
G01*
X51424144Y-64380190D01*
X51424144Y-62395810D01*
X51622582Y-62395810D01*
X51622582Y-64380190D01*
G37*
X51622582Y-64380190D02*
X51424144Y-64380190D01*
X51424144Y-62395810D01*
X51622582Y-62395810D01*
X51622582Y-64380190D01*
G36*
X54599152Y-64380190D02*
G01*
X54400714Y-64380190D01*
X54400714Y-62395810D01*
X54599152Y-62395810D01*
X54599152Y-64380190D01*
G37*
X54599152Y-64380190D02*
X54400714Y-64380190D01*
X54400714Y-62395810D01*
X54599152Y-62395810D01*
X54599152Y-64380190D01*
G36*
X54599152Y-62594250D02*
G01*
X51424144Y-62594250D01*
X51424144Y-62395810D01*
X54599152Y-62395810D01*
X54599152Y-62594250D01*
G37*
X54599152Y-62594250D02*
X51424144Y-62594250D01*
X51424144Y-62395810D01*
X54599152Y-62395810D01*
X54599152Y-62594250D01*
G36*
X54599152Y-64380190D02*
G01*
X51424144Y-64380190D01*
X51424144Y-64181750D01*
X54599152Y-64181750D01*
X54599152Y-64380190D01*
G37*
X54599152Y-64380190D02*
X51424144Y-64380190D01*
X51424144Y-64181750D01*
X54599152Y-64181750D01*
X54599152Y-64380190D01*
G36*
X54599152Y-97694250D02*
G01*
X51424144Y-97694250D01*
X51424144Y-97495810D01*
X54599152Y-97495810D01*
X54599152Y-97694250D01*
G37*
X54599152Y-97694250D02*
X51424144Y-97694250D01*
X51424144Y-97495810D01*
X54599152Y-97495810D01*
X54599152Y-97694250D01*
G36*
X54599152Y-99480190D02*
G01*
X51424144Y-99480190D01*
X51424144Y-99281750D01*
X54599152Y-99281750D01*
X54599152Y-99480190D01*
G37*
X54599152Y-99480190D02*
X51424144Y-99480190D01*
X51424144Y-99281750D01*
X54599152Y-99281750D01*
X54599152Y-99480190D01*
G36*
X51622582Y-99480190D02*
G01*
X51424144Y-99480190D01*
X51424144Y-97495810D01*
X51622582Y-97495810D01*
X51622582Y-99480190D01*
G37*
X51622582Y-99480190D02*
X51424144Y-99480190D01*
X51424144Y-97495810D01*
X51622582Y-97495810D01*
X51622582Y-99480190D01*
G36*
X54599152Y-99480190D02*
G01*
X54400714Y-99480190D01*
X54400714Y-97495810D01*
X54599152Y-97495810D01*
X54599152Y-99480190D01*
G37*
X54599152Y-99480190D02*
X54400714Y-99480190D01*
X54400714Y-97495810D01*
X54599152Y-97495810D01*
X54599152Y-99480190D01*
G36*
X54599152Y-87780190D02*
G01*
X54400714Y-87780190D01*
X54400714Y-85795810D01*
X54599152Y-85795810D01*
X54599152Y-87780190D01*
G37*
X54599152Y-87780190D02*
X54400714Y-87780190D01*
X54400714Y-85795810D01*
X54599152Y-85795810D01*
X54599152Y-87780190D01*
G36*
X51622582Y-87780190D02*
G01*
X51424144Y-87780190D01*
X51424144Y-85795810D01*
X51622582Y-85795810D01*
X51622582Y-87780190D01*
G37*
X51622582Y-87780190D02*
X51424144Y-87780190D01*
X51424144Y-85795810D01*
X51622582Y-85795810D01*
X51622582Y-87780190D01*
G36*
X54599152Y-87780190D02*
G01*
X51424144Y-87780190D01*
X51424144Y-87581750D01*
X54599152Y-87581750D01*
X54599152Y-87780190D01*
G37*
X54599152Y-87780190D02*
X51424144Y-87780190D01*
X51424144Y-87581750D01*
X54599152Y-87581750D01*
X54599152Y-87780190D01*
G36*
X54599152Y-85994250D02*
G01*
X51424144Y-85994250D01*
X51424144Y-85795810D01*
X54599152Y-85795810D01*
X54599152Y-85994250D01*
G37*
X54599152Y-85994250D02*
X51424144Y-85994250D01*
X51424144Y-85795810D01*
X54599152Y-85795810D01*
X54599152Y-85994250D01*
G36*
X101322582Y-52680190D02*
G01*
X101124144Y-52680190D01*
X101124144Y-50695810D01*
X101322582Y-50695810D01*
X101322582Y-52680190D01*
G37*
X101322582Y-52680190D02*
X101124144Y-52680190D01*
X101124144Y-50695810D01*
X101322582Y-50695810D01*
X101322582Y-52680190D01*
G36*
X104299152Y-50894250D02*
G01*
X101124144Y-50894250D01*
X101124144Y-50695810D01*
X104299152Y-50695810D01*
X104299152Y-50894250D01*
G37*
X104299152Y-50894250D02*
X101124144Y-50894250D01*
X101124144Y-50695810D01*
X104299152Y-50695810D01*
X104299152Y-50894250D01*
G36*
X104299152Y-52680190D02*
G01*
X104100714Y-52680190D01*
X104100714Y-50695810D01*
X104299152Y-50695810D01*
X104299152Y-52680190D01*
G37*
X104299152Y-52680190D02*
X104100714Y-52680190D01*
X104100714Y-50695810D01*
X104299152Y-50695810D01*
X104299152Y-52680190D01*
G36*
X104299152Y-52680190D02*
G01*
X101124144Y-52680190D01*
X101124144Y-52481750D01*
X104299152Y-52481750D01*
X104299152Y-52680190D01*
G37*
X104299152Y-52680190D02*
X101124144Y-52680190D01*
X101124144Y-52481750D01*
X104299152Y-52481750D01*
X104299152Y-52680190D01*
G36*
X104299152Y-97694250D02*
G01*
X101124144Y-97694250D01*
X101124144Y-97495810D01*
X104299152Y-97495810D01*
X104299152Y-97694250D01*
G37*
X104299152Y-97694250D02*
X101124144Y-97694250D01*
X101124144Y-97495810D01*
X104299152Y-97495810D01*
X104299152Y-97694250D01*
G36*
X101322582Y-99480190D02*
G01*
X101124144Y-99480190D01*
X101124144Y-97495810D01*
X101322582Y-97495810D01*
X101322582Y-99480190D01*
G37*
X101322582Y-99480190D02*
X101124144Y-99480190D01*
X101124144Y-97495810D01*
X101322582Y-97495810D01*
X101322582Y-99480190D01*
G36*
X104299152Y-99480190D02*
G01*
X104100714Y-99480190D01*
X104100714Y-97495810D01*
X104299152Y-97495810D01*
X104299152Y-99480190D01*
G37*
X104299152Y-99480190D02*
X104100714Y-99480190D01*
X104100714Y-97495810D01*
X104299152Y-97495810D01*
X104299152Y-99480190D01*
G36*
X104299152Y-99480190D02*
G01*
X101124144Y-99480190D01*
X101124144Y-99281750D01*
X104299152Y-99281750D01*
X104299152Y-99480190D01*
G37*
X104299152Y-99480190D02*
X101124144Y-99480190D01*
X101124144Y-99281750D01*
X104299152Y-99281750D01*
X104299152Y-99480190D01*
G36*
X104299152Y-87780190D02*
G01*
X101124144Y-87780190D01*
X101124144Y-87581750D01*
X104299152Y-87581750D01*
X104299152Y-87780190D01*
G37*
X104299152Y-87780190D02*
X101124144Y-87780190D01*
X101124144Y-87581750D01*
X104299152Y-87581750D01*
X104299152Y-87780190D01*
G36*
X104299152Y-85994250D02*
G01*
X101124144Y-85994250D01*
X101124144Y-85795810D01*
X104299152Y-85795810D01*
X104299152Y-85994250D01*
G37*
X104299152Y-85994250D02*
X101124144Y-85994250D01*
X101124144Y-85795810D01*
X104299152Y-85795810D01*
X104299152Y-85994250D01*
G36*
X104299152Y-87780190D02*
G01*
X104100714Y-87780190D01*
X104100714Y-85795810D01*
X104299152Y-85795810D01*
X104299152Y-87780190D01*
G37*
X104299152Y-87780190D02*
X104100714Y-87780190D01*
X104100714Y-85795810D01*
X104299152Y-85795810D01*
X104299152Y-87780190D01*
G36*
X101322582Y-87780190D02*
G01*
X101124144Y-87780190D01*
X101124144Y-85795810D01*
X101322582Y-85795810D01*
X101322582Y-87780190D01*
G37*
X101322582Y-87780190D02*
X101124144Y-87780190D01*
X101124144Y-85795810D01*
X101322582Y-85795810D01*
X101322582Y-87780190D01*
G36*
X54599152Y-39194250D02*
G01*
X51424144Y-39194250D01*
X51424144Y-38995810D01*
X54599152Y-38995810D01*
X54599152Y-39194250D01*
G37*
X54599152Y-39194250D02*
X51424144Y-39194250D01*
X51424144Y-38995810D01*
X54599152Y-38995810D01*
X54599152Y-39194250D01*
G36*
X54599152Y-40980190D02*
G01*
X54400714Y-40980190D01*
X54400714Y-38995810D01*
X54599152Y-38995810D01*
X54599152Y-40980190D01*
G37*
X54599152Y-40980190D02*
X54400714Y-40980190D01*
X54400714Y-38995810D01*
X54599152Y-38995810D01*
X54599152Y-40980190D01*
G36*
X54599152Y-40980190D02*
G01*
X51424144Y-40980190D01*
X51424144Y-40781750D01*
X54599152Y-40781750D01*
X54599152Y-40980190D01*
G37*
X54599152Y-40980190D02*
X51424144Y-40980190D01*
X51424144Y-40781750D01*
X54599152Y-40781750D01*
X54599152Y-40980190D01*
G36*
X51622582Y-40980190D02*
G01*
X51424144Y-40980190D01*
X51424144Y-38995810D01*
X51622582Y-38995810D01*
X51622582Y-40980190D01*
G37*
X51622582Y-40980190D02*
X51424144Y-40980190D01*
X51424144Y-38995810D01*
X51622582Y-38995810D01*
X51622582Y-40980190D01*
G36*
X104299152Y-111180190D02*
G01*
X101124144Y-111180190D01*
X101124144Y-110981750D01*
X104299152Y-110981750D01*
X104299152Y-111180190D01*
G37*
X104299152Y-111180190D02*
X101124144Y-111180190D01*
X101124144Y-110981750D01*
X104299152Y-110981750D01*
X104299152Y-111180190D01*
G36*
X101322582Y-111180190D02*
G01*
X101124144Y-111180190D01*
X101124144Y-109195810D01*
X101322582Y-109195810D01*
X101322582Y-111180190D01*
G37*
X101322582Y-111180190D02*
X101124144Y-111180190D01*
X101124144Y-109195810D01*
X101322582Y-109195810D01*
X101322582Y-111180190D01*
G36*
X104299152Y-109394250D02*
G01*
X101124144Y-109394250D01*
X101124144Y-109195810D01*
X104299152Y-109195810D01*
X104299152Y-109394250D01*
G37*
X104299152Y-109394250D02*
X101124144Y-109394250D01*
X101124144Y-109195810D01*
X104299152Y-109195810D01*
X104299152Y-109394250D01*
G36*
X104299152Y-111180190D02*
G01*
X104100714Y-111180190D01*
X104100714Y-109195810D01*
X104299152Y-109195810D01*
X104299152Y-111180190D01*
G37*
X104299152Y-111180190D02*
X104100714Y-111180190D01*
X104100714Y-109195810D01*
X104299152Y-109195810D01*
X104299152Y-111180190D01*
G36*
X54599152Y-52680190D02*
G01*
X51424144Y-52680190D01*
X51424144Y-52481750D01*
X54599152Y-52481750D01*
X54599152Y-52680190D01*
G37*
X54599152Y-52680190D02*
X51424144Y-52680190D01*
X51424144Y-52481750D01*
X54599152Y-52481750D01*
X54599152Y-52680190D01*
G36*
X54599152Y-52680190D02*
G01*
X54400714Y-52680190D01*
X54400714Y-50695810D01*
X54599152Y-50695810D01*
X54599152Y-52680190D01*
G37*
X54599152Y-52680190D02*
X54400714Y-52680190D01*
X54400714Y-50695810D01*
X54599152Y-50695810D01*
X54599152Y-52680190D01*
G36*
X51622582Y-52680190D02*
G01*
X51424144Y-52680190D01*
X51424144Y-50695810D01*
X51622582Y-50695810D01*
X51622582Y-52680190D01*
G37*
X51622582Y-52680190D02*
X51424144Y-52680190D01*
X51424144Y-50695810D01*
X51622582Y-50695810D01*
X51622582Y-52680190D01*
G36*
X54599152Y-50894250D02*
G01*
X51424144Y-50894250D01*
X51424144Y-50695810D01*
X54599152Y-50695810D01*
X54599152Y-50894250D01*
G37*
X54599152Y-50894250D02*
X51424144Y-50894250D01*
X51424144Y-50695810D01*
X54599152Y-50695810D01*
X54599152Y-50894250D01*
%TD*%
D13*
%TO.P,J1,1*%
%TO.N,N/C*%
X98273648Y-108205000D03*
%TO.P,J1,2*%
X97498648Y-108205000D03*
D14*
%TO.P,J1,3*%
X96798648Y-108205000D03*
%TO.P,J1,4*%
X96298648Y-108205000D03*
%TO.P,J1,5*%
X95798648Y-108205000D03*
%TO.P,J1,6*%
X95298648Y-108205000D03*
%TO.P,J1,7*%
X94798648Y-108205000D03*
%TO.P,J1,8*%
X94298648Y-108205000D03*
%TO.P,J1,9*%
X93798648Y-108205000D03*
%TO.P,J1,10*%
X93298648Y-108205000D03*
D13*
%TO.P,J1,11*%
X92598648Y-108205000D03*
%TO.P,J1,12*%
X91823648Y-108205000D03*
D15*
%TO.P,J1,13*%
X99368648Y-109120000D03*
X90728648Y-109120000D03*
D16*
X90728648Y-113300000D03*
X99368648Y-113300000D03*
%TD*%
D13*
%TO.P,J1,1*%
%TO.N,N/C*%
X48573648Y-108205000D03*
%TO.P,J1,2*%
X47798648Y-108205000D03*
D14*
%TO.P,J1,3*%
X47098648Y-108205000D03*
%TO.P,J1,4*%
X46598648Y-108205000D03*
%TO.P,J1,5*%
X46098648Y-108205000D03*
%TO.P,J1,6*%
X45598648Y-108205000D03*
%TO.P,J1,7*%
X45098648Y-108205000D03*
%TO.P,J1,8*%
X44598648Y-108205000D03*
%TO.P,J1,9*%
X44098648Y-108205000D03*
%TO.P,J1,10*%
X43598648Y-108205000D03*
D13*
%TO.P,J1,11*%
X42898648Y-108205000D03*
%TO.P,J1,12*%
X42123648Y-108205000D03*
D15*
%TO.P,J1,13*%
X49668648Y-109120000D03*
X41028648Y-109120000D03*
D16*
X41028648Y-113300000D03*
X49668648Y-113300000D03*
%TD*%
D13*
%TO.P,J1,1*%
%TO.N,N/C*%
X98273648Y-96505000D03*
%TO.P,J1,2*%
X97498648Y-96505000D03*
D14*
%TO.P,J1,3*%
X96798648Y-96505000D03*
%TO.P,J1,4*%
X96298648Y-96505000D03*
%TO.P,J1,5*%
X95798648Y-96505000D03*
%TO.P,J1,6*%
X95298648Y-96505000D03*
%TO.P,J1,7*%
X94798648Y-96505000D03*
%TO.P,J1,8*%
X94298648Y-96505000D03*
%TO.P,J1,9*%
X93798648Y-96505000D03*
%TO.P,J1,10*%
X93298648Y-96505000D03*
D13*
%TO.P,J1,11*%
X92598648Y-96505000D03*
%TO.P,J1,12*%
X91823648Y-96505000D03*
D15*
%TO.P,J1,13*%
X99368648Y-97420000D03*
X90728648Y-97420000D03*
D16*
X90728648Y-101600000D03*
X99368648Y-101600000D03*
%TD*%
D13*
%TO.P,J1,1*%
%TO.N,N/C*%
X48573648Y-96505000D03*
%TO.P,J1,2*%
X47798648Y-96505000D03*
D14*
%TO.P,J1,3*%
X47098648Y-96505000D03*
%TO.P,J1,4*%
X46598648Y-96505000D03*
%TO.P,J1,5*%
X46098648Y-96505000D03*
%TO.P,J1,6*%
X45598648Y-96505000D03*
%TO.P,J1,7*%
X45098648Y-96505000D03*
%TO.P,J1,8*%
X44598648Y-96505000D03*
%TO.P,J1,9*%
X44098648Y-96505000D03*
%TO.P,J1,10*%
X43598648Y-96505000D03*
D13*
%TO.P,J1,11*%
X42898648Y-96505000D03*
%TO.P,J1,12*%
X42123648Y-96505000D03*
D15*
%TO.P,J1,13*%
X49668648Y-97420000D03*
X41028648Y-97420000D03*
D16*
X41028648Y-101600000D03*
X49668648Y-101600000D03*
%TD*%
D13*
%TO.P,J1,1*%
%TO.N,N/C*%
X98273648Y-84805000D03*
%TO.P,J1,2*%
X97498648Y-84805000D03*
D14*
%TO.P,J1,3*%
X96798648Y-84805000D03*
%TO.P,J1,4*%
X96298648Y-84805000D03*
%TO.P,J1,5*%
X95798648Y-84805000D03*
%TO.P,J1,6*%
X95298648Y-84805000D03*
%TO.P,J1,7*%
X94798648Y-84805000D03*
%TO.P,J1,8*%
X94298648Y-84805000D03*
%TO.P,J1,9*%
X93798648Y-84805000D03*
%TO.P,J1,10*%
X93298648Y-84805000D03*
D13*
%TO.P,J1,11*%
X92598648Y-84805000D03*
%TO.P,J1,12*%
X91823648Y-84805000D03*
D15*
%TO.P,J1,13*%
X99368648Y-85720000D03*
X90728648Y-85720000D03*
D16*
X90728648Y-89900000D03*
X99368648Y-89900000D03*
%TD*%
D13*
%TO.P,J1,1*%
%TO.N,N/C*%
X48573648Y-84805000D03*
%TO.P,J1,2*%
X47798648Y-84805000D03*
D14*
%TO.P,J1,3*%
X47098648Y-84805000D03*
%TO.P,J1,4*%
X46598648Y-84805000D03*
%TO.P,J1,5*%
X46098648Y-84805000D03*
%TO.P,J1,6*%
X45598648Y-84805000D03*
%TO.P,J1,7*%
X45098648Y-84805000D03*
%TO.P,J1,8*%
X44598648Y-84805000D03*
%TO.P,J1,9*%
X44098648Y-84805000D03*
%TO.P,J1,10*%
X43598648Y-84805000D03*
D13*
%TO.P,J1,11*%
X42898648Y-84805000D03*
%TO.P,J1,12*%
X42123648Y-84805000D03*
D15*
%TO.P,J1,13*%
X49668648Y-85720000D03*
X41028648Y-85720000D03*
D16*
X41028648Y-89900000D03*
X49668648Y-89900000D03*
%TD*%
D13*
%TO.P,J1,1*%
%TO.N,N/C*%
X98273648Y-73105000D03*
%TO.P,J1,2*%
X97498648Y-73105000D03*
D14*
%TO.P,J1,3*%
X96798648Y-73105000D03*
%TO.P,J1,4*%
X96298648Y-73105000D03*
%TO.P,J1,5*%
X95798648Y-73105000D03*
%TO.P,J1,6*%
X95298648Y-73105000D03*
%TO.P,J1,7*%
X94798648Y-73105000D03*
%TO.P,J1,8*%
X94298648Y-73105000D03*
%TO.P,J1,9*%
X93798648Y-73105000D03*
%TO.P,J1,10*%
X93298648Y-73105000D03*
D13*
%TO.P,J1,11*%
X92598648Y-73105000D03*
%TO.P,J1,12*%
X91823648Y-73105000D03*
D15*
%TO.P,J1,13*%
X99368648Y-74020000D03*
X90728648Y-74020000D03*
D16*
X90728648Y-78200000D03*
X99368648Y-78200000D03*
%TD*%
D13*
%TO.P,J1,1*%
%TO.N,N/C*%
X48573648Y-73105000D03*
%TO.P,J1,2*%
X47798648Y-73105000D03*
D14*
%TO.P,J1,3*%
X47098648Y-73105000D03*
%TO.P,J1,4*%
X46598648Y-73105000D03*
%TO.P,J1,5*%
X46098648Y-73105000D03*
%TO.P,J1,6*%
X45598648Y-73105000D03*
%TO.P,J1,7*%
X45098648Y-73105000D03*
%TO.P,J1,8*%
X44598648Y-73105000D03*
%TO.P,J1,9*%
X44098648Y-73105000D03*
%TO.P,J1,10*%
X43598648Y-73105000D03*
D13*
%TO.P,J1,11*%
X42898648Y-73105000D03*
%TO.P,J1,12*%
X42123648Y-73105000D03*
D15*
%TO.P,J1,13*%
X49668648Y-74020000D03*
X41028648Y-74020000D03*
D16*
X41028648Y-78200000D03*
X49668648Y-78200000D03*
%TD*%
D13*
%TO.P,J1,1*%
%TO.N,N/C*%
X98273648Y-61405000D03*
%TO.P,J1,2*%
X97498648Y-61405000D03*
D14*
%TO.P,J1,3*%
X96798648Y-61405000D03*
%TO.P,J1,4*%
X96298648Y-61405000D03*
%TO.P,J1,5*%
X95798648Y-61405000D03*
%TO.P,J1,6*%
X95298648Y-61405000D03*
%TO.P,J1,7*%
X94798648Y-61405000D03*
%TO.P,J1,8*%
X94298648Y-61405000D03*
%TO.P,J1,9*%
X93798648Y-61405000D03*
%TO.P,J1,10*%
X93298648Y-61405000D03*
D13*
%TO.P,J1,11*%
X92598648Y-61405000D03*
%TO.P,J1,12*%
X91823648Y-61405000D03*
D15*
%TO.P,J1,13*%
X99368648Y-62320000D03*
X90728648Y-62320000D03*
D16*
X90728648Y-66500000D03*
X99368648Y-66500000D03*
%TD*%
D13*
%TO.P,J1,1*%
%TO.N,N/C*%
X48573648Y-61405000D03*
%TO.P,J1,2*%
X47798648Y-61405000D03*
D14*
%TO.P,J1,3*%
X47098648Y-61405000D03*
%TO.P,J1,4*%
X46598648Y-61405000D03*
%TO.P,J1,5*%
X46098648Y-61405000D03*
%TO.P,J1,6*%
X45598648Y-61405000D03*
%TO.P,J1,7*%
X45098648Y-61405000D03*
%TO.P,J1,8*%
X44598648Y-61405000D03*
%TO.P,J1,9*%
X44098648Y-61405000D03*
%TO.P,J1,10*%
X43598648Y-61405000D03*
D13*
%TO.P,J1,11*%
X42898648Y-61405000D03*
%TO.P,J1,12*%
X42123648Y-61405000D03*
D15*
%TO.P,J1,13*%
X49668648Y-62320000D03*
X41028648Y-62320000D03*
D16*
X41028648Y-66500000D03*
X49668648Y-66500000D03*
%TD*%
D13*
%TO.P,J1,1*%
%TO.N,N/C*%
X98273648Y-49705000D03*
%TO.P,J1,2*%
X97498648Y-49705000D03*
D14*
%TO.P,J1,3*%
X96798648Y-49705000D03*
%TO.P,J1,4*%
X96298648Y-49705000D03*
%TO.P,J1,5*%
X95798648Y-49705000D03*
%TO.P,J1,6*%
X95298648Y-49705000D03*
%TO.P,J1,7*%
X94798648Y-49705000D03*
%TO.P,J1,8*%
X94298648Y-49705000D03*
%TO.P,J1,9*%
X93798648Y-49705000D03*
%TO.P,J1,10*%
X93298648Y-49705000D03*
D13*
%TO.P,J1,11*%
X92598648Y-49705000D03*
%TO.P,J1,12*%
X91823648Y-49705000D03*
D15*
%TO.P,J1,13*%
X99368648Y-50620000D03*
X90728648Y-50620000D03*
D16*
X90728648Y-54800000D03*
X99368648Y-54800000D03*
%TD*%
D13*
%TO.P,J1,1*%
%TO.N,N/C*%
X48573648Y-49705000D03*
%TO.P,J1,2*%
X47798648Y-49705000D03*
D14*
%TO.P,J1,3*%
X47098648Y-49705000D03*
%TO.P,J1,4*%
X46598648Y-49705000D03*
%TO.P,J1,5*%
X46098648Y-49705000D03*
%TO.P,J1,6*%
X45598648Y-49705000D03*
%TO.P,J1,7*%
X45098648Y-49705000D03*
%TO.P,J1,8*%
X44598648Y-49705000D03*
%TO.P,J1,9*%
X44098648Y-49705000D03*
%TO.P,J1,10*%
X43598648Y-49705000D03*
D13*
%TO.P,J1,11*%
X42898648Y-49705000D03*
%TO.P,J1,12*%
X42123648Y-49705000D03*
D15*
%TO.P,J1,13*%
X49668648Y-50620000D03*
X41028648Y-50620000D03*
D16*
X41028648Y-54800000D03*
X49668648Y-54800000D03*
%TD*%
D13*
%TO.P,J1,1*%
%TO.N,N/C*%
X98273648Y-38005000D03*
%TO.P,J1,2*%
X97498648Y-38005000D03*
D14*
%TO.P,J1,3*%
X96798648Y-38005000D03*
%TO.P,J1,4*%
X96298648Y-38005000D03*
%TO.P,J1,5*%
X95798648Y-38005000D03*
%TO.P,J1,6*%
X95298648Y-38005000D03*
%TO.P,J1,7*%
X94798648Y-38005000D03*
%TO.P,J1,8*%
X94298648Y-38005000D03*
%TO.P,J1,9*%
X93798648Y-38005000D03*
%TO.P,J1,10*%
X93298648Y-38005000D03*
D13*
%TO.P,J1,11*%
X92598648Y-38005000D03*
%TO.P,J1,12*%
X91823648Y-38005000D03*
D15*
%TO.P,J1,13*%
X99368648Y-38920000D03*
X90728648Y-38920000D03*
D16*
X90728648Y-43100000D03*
X99368648Y-43100000D03*
%TD*%
D13*
%TO.P,J1,1*%
%TO.N,N/C*%
X48573648Y-38005000D03*
%TO.P,J1,2*%
X47798648Y-38005000D03*
D14*
%TO.P,J1,3*%
X47098648Y-38005000D03*
%TO.P,J1,4*%
X46598648Y-38005000D03*
%TO.P,J1,5*%
X46098648Y-38005000D03*
%TO.P,J1,6*%
X45598648Y-38005000D03*
%TO.P,J1,7*%
X45098648Y-38005000D03*
%TO.P,J1,8*%
X44598648Y-38005000D03*
%TO.P,J1,9*%
X44098648Y-38005000D03*
%TO.P,J1,10*%
X43598648Y-38005000D03*
D13*
%TO.P,J1,11*%
X42898648Y-38005000D03*
%TO.P,J1,12*%
X42123648Y-38005000D03*
D15*
%TO.P,J1,13*%
X49668648Y-38920000D03*
X41028648Y-38920000D03*
D16*
X41028648Y-43100000D03*
X49668648Y-43100000D03*
%TD*%
D13*
%TO.P,J1,1*%
%TO.N,N/C*%
X98273648Y-26305000D03*
%TO.P,J1,2*%
X97498648Y-26305000D03*
D14*
%TO.P,J1,3*%
X96798648Y-26305000D03*
%TO.P,J1,4*%
X96298648Y-26305000D03*
%TO.P,J1,5*%
X95798648Y-26305000D03*
%TO.P,J1,6*%
X95298648Y-26305000D03*
%TO.P,J1,7*%
X94798648Y-26305000D03*
%TO.P,J1,8*%
X94298648Y-26305000D03*
%TO.P,J1,9*%
X93798648Y-26305000D03*
%TO.P,J1,10*%
X93298648Y-26305000D03*
D13*
%TO.P,J1,11*%
X92598648Y-26305000D03*
%TO.P,J1,12*%
X91823648Y-26305000D03*
D15*
%TO.P,J1,13*%
X99368648Y-27220000D03*
X90728648Y-27220000D03*
D16*
X90728648Y-31400000D03*
X99368648Y-31400000D03*
%TD*%
%TO.P,J1,13*%
%TO.N,N/C*%
X49668648Y-31400000D03*
X41028648Y-31400000D03*
D15*
X41028648Y-27220000D03*
X49668648Y-27220000D03*
D13*
%TO.P,J1,12*%
X42123648Y-26305000D03*
%TO.P,J1,11*%
X42898648Y-26305000D03*
D14*
%TO.P,J1,10*%
X43598648Y-26305000D03*
%TO.P,J1,9*%
X44098648Y-26305000D03*
%TO.P,J1,8*%
X44598648Y-26305000D03*
%TO.P,J1,7*%
X45098648Y-26305000D03*
%TO.P,J1,6*%
X45598648Y-26305000D03*
%TO.P,J1,5*%
X46098648Y-26305000D03*
%TO.P,J1,4*%
X46598648Y-26305000D03*
%TO.P,J1,3*%
X47098648Y-26305000D03*
D13*
%TO.P,J1,2*%
X47798648Y-26305000D03*
%TO.P,J1,1*%
X48573648Y-26305000D03*
%TD*%
D17*
%TO.P,C1,1*%
%TO.N,Board_7-GND*%
X82648648Y-63525000D03*
%TO.P,C1,2*%
%TO.N,Board_7-SHIELD*%
X82648648Y-65075000D03*
%TD*%
D18*
%TO.P,R1,1*%
%TO.N,Board_9-Net-(J1-Pad10)*%
X86648648Y-76625000D03*
%TO.P,R1,2*%
%TO.N,Board_9-GND*%
X86648648Y-74975000D03*
%TD*%
D17*
%TO.P,C1,1*%
%TO.N,Board_14-GND*%
X32948648Y-110325000D03*
%TO.P,C1,2*%
%TO.N,Board_14-SHIELD*%
X32948648Y-111875000D03*
%TD*%
%TO.P,C1,1*%
%TO.N,Board_12-GND*%
X32948648Y-98625000D03*
%TO.P,C1,2*%
%TO.N,Board_12-SHIELD*%
X32948648Y-100175000D03*
%TD*%
D18*
%TO.P,R2,1*%
%TO.N,Board_8-Net-(J1-Pad4)*%
X38748648Y-76625000D03*
%TO.P,R2,2*%
%TO.N,Board_8-GND*%
X38748648Y-74975000D03*
%TD*%
D17*
%TO.P,C1,1*%
%TO.N,Board_13-GND*%
X82648648Y-98625000D03*
%TO.P,C1,2*%
%TO.N,Board_13-SHIELD*%
X82648648Y-100175000D03*
%TD*%
D19*
%TO.P,R3,1*%
%TO.N,Board_4-GND*%
X34948648Y-51687500D03*
%TO.P,R3,2*%
%TO.N,Board_4-SHIELD*%
X34948648Y-53512500D03*
%TD*%
%TO.P,R3,1*%
%TO.N,Board_8-GND*%
X34948648Y-75087500D03*
%TO.P,R3,2*%
%TO.N,Board_8-SHIELD*%
X34948648Y-76912500D03*
%TD*%
%TO.P,R3,1*%
%TO.N,Board_6-GND*%
X34948648Y-63387500D03*
%TO.P,R3,2*%
%TO.N,Board_6-SHIELD*%
X34948648Y-65212500D03*
%TD*%
D20*
%TO.P,J2,1*%
%TO.N,Board_15-VCC*%
X107148648Y-112675000D03*
%TO.P,J2,2*%
%TO.N,Board_15-D-*%
X108148648Y-112675000D03*
%TO.P,J2,3*%
%TO.N,Board_15-D+*%
X109148648Y-112675000D03*
%TO.P,J2,4*%
%TO.N,Board_15-GND*%
X110148648Y-112675000D03*
D21*
%TO.P,J2,MP*%
X105848648Y-108800000D03*
X111448648Y-108800000D03*
%TD*%
D18*
%TO.P,R2,1*%
%TO.N,Board_13-Net-(J1-Pad4)*%
X88448648Y-100025000D03*
%TO.P,R2,2*%
%TO.N,Board_13-GND*%
X88448648Y-98375000D03*
%TD*%
D19*
%TO.P,R3,1*%
%TO.N,Board_12-GND*%
X34948648Y-98487500D03*
%TO.P,R3,2*%
%TO.N,Board_12-SHIELD*%
X34948648Y-100312500D03*
%TD*%
D18*
%TO.P,R2,1*%
%TO.N,Board_6-Net-(J1-Pad4)*%
X38748648Y-64925000D03*
%TO.P,R2,2*%
%TO.N,Board_6-GND*%
X38748648Y-63275000D03*
%TD*%
%TO.P,R2,1*%
%TO.N,Board_5-Net-(J1-Pad4)*%
X88448648Y-53225000D03*
%TO.P,R2,2*%
%TO.N,Board_5-GND*%
X88448648Y-51575000D03*
%TD*%
D19*
%TO.P,R3,1*%
%TO.N,Board_13-GND*%
X84648648Y-98487500D03*
%TO.P,R3,2*%
%TO.N,Board_13-SHIELD*%
X84648648Y-100312500D03*
%TD*%
D18*
%TO.P,R2,1*%
%TO.N,Board_12-Net-(J1-Pad4)*%
X38748648Y-100025000D03*
%TO.P,R2,2*%
%TO.N,Board_12-GND*%
X38748648Y-98375000D03*
%TD*%
D17*
%TO.P,C1,1*%
%TO.N,Board_4-GND*%
X32948648Y-51825000D03*
%TO.P,C1,2*%
%TO.N,Board_4-SHIELD*%
X32948648Y-53375000D03*
%TD*%
%TO.P,C1,1*%
%TO.N,Board_3-GND*%
X82648648Y-40125000D03*
%TO.P,C1,2*%
%TO.N,Board_3-SHIELD*%
X82648648Y-41675000D03*
%TD*%
D19*
%TO.P,R3,1*%
%TO.N,Board_5-GND*%
X84648648Y-51687500D03*
%TO.P,R3,2*%
%TO.N,Board_5-SHIELD*%
X84648648Y-53512500D03*
%TD*%
D20*
%TO.P,J2,1*%
%TO.N,Board_4-VCC*%
X57448648Y-54175000D03*
%TO.P,J2,2*%
%TO.N,Board_4-D-*%
X58448648Y-54175000D03*
%TO.P,J2,3*%
%TO.N,Board_4-D+*%
X59448648Y-54175000D03*
%TO.P,J2,4*%
%TO.N,Board_4-GND*%
X60448648Y-54175000D03*
D21*
%TO.P,J2,MP*%
X56148648Y-50300000D03*
X61748648Y-50300000D03*
%TD*%
D17*
%TO.P,C1,1*%
%TO.N,Board_5-GND*%
X82648648Y-51825000D03*
%TO.P,C1,2*%
%TO.N,Board_5-SHIELD*%
X82648648Y-53375000D03*
%TD*%
D20*
%TO.P,J2,1*%
%TO.N,Board_11-VCC*%
X107148648Y-89275000D03*
%TO.P,J2,2*%
%TO.N,Board_11-D-*%
X108148648Y-89275000D03*
%TO.P,J2,3*%
%TO.N,Board_11-D+*%
X109148648Y-89275000D03*
%TO.P,J2,4*%
%TO.N,Board_11-GND*%
X110148648Y-89275000D03*
D21*
%TO.P,J2,MP*%
X105848648Y-85400000D03*
X111448648Y-85400000D03*
%TD*%
D20*
%TO.P,J2,1*%
%TO.N,Board_10-VCC*%
X57448648Y-89275000D03*
%TO.P,J2,2*%
%TO.N,Board_10-D-*%
X58448648Y-89275000D03*
%TO.P,J2,3*%
%TO.N,Board_10-D+*%
X59448648Y-89275000D03*
%TO.P,J2,4*%
%TO.N,Board_10-GND*%
X60448648Y-89275000D03*
D21*
%TO.P,J2,MP*%
X56148648Y-85400000D03*
X61748648Y-85400000D03*
%TD*%
D19*
%TO.P,R3,1*%
%TO.N,Board_11-GND*%
X84648648Y-86787500D03*
%TO.P,R3,2*%
%TO.N,Board_11-SHIELD*%
X84648648Y-88612500D03*
%TD*%
D18*
%TO.P,R2,1*%
%TO.N,Board_10-Net-(J1-Pad4)*%
X38748648Y-88325000D03*
%TO.P,R2,2*%
%TO.N,Board_10-GND*%
X38748648Y-86675000D03*
%TD*%
D19*
%TO.P,R3,1*%
%TO.N,Board_1-GND*%
X84648648Y-28287500D03*
%TO.P,R3,2*%
%TO.N,Board_1-SHIELD*%
X84648648Y-30112500D03*
%TD*%
D18*
%TO.P,R1,1*%
%TO.N,Board_13-Net-(J1-Pad10)*%
X86648648Y-100025000D03*
%TO.P,R1,2*%
%TO.N,Board_13-GND*%
X86648648Y-98375000D03*
%TD*%
%TO.P,R2,1*%
%TO.N,Board_9-Net-(J1-Pad4)*%
X88448648Y-76625000D03*
%TO.P,R2,2*%
%TO.N,Board_9-GND*%
X88448648Y-74975000D03*
%TD*%
D20*
%TO.P,J2,1*%
%TO.N,Board_2-VCC*%
X57448648Y-42475000D03*
%TO.P,J2,2*%
%TO.N,Board_2-D-*%
X58448648Y-42475000D03*
%TO.P,J2,3*%
%TO.N,Board_2-D+*%
X59448648Y-42475000D03*
%TO.P,J2,4*%
%TO.N,Board_2-GND*%
X60448648Y-42475000D03*
D21*
%TO.P,J2,MP*%
X61748648Y-38600000D03*
X56148648Y-38600000D03*
%TD*%
D18*
%TO.P,R1,1*%
%TO.N,Board_3-Net-(J1-Pad10)*%
X86648648Y-41525000D03*
%TO.P,R1,2*%
%TO.N,Board_3-GND*%
X86648648Y-39875000D03*
%TD*%
%TO.P,R2,1*%
%TO.N,Board_3-Net-(J1-Pad4)*%
X88448648Y-41525000D03*
%TO.P,R2,2*%
%TO.N,Board_3-GND*%
X88448648Y-39875000D03*
%TD*%
D20*
%TO.P,J2,1*%
%TO.N,Board_12-VCC*%
X57448648Y-100975000D03*
%TO.P,J2,2*%
%TO.N,Board_12-D-*%
X58448648Y-100975000D03*
%TO.P,J2,3*%
%TO.N,Board_12-D+*%
X59448648Y-100975000D03*
%TO.P,J2,4*%
%TO.N,Board_12-GND*%
X60448648Y-100975000D03*
D21*
%TO.P,J2,MP*%
X56148648Y-97100000D03*
X61748648Y-97100000D03*
%TD*%
D19*
%TO.P,R3,1*%
%TO.N,Board_9-GND*%
X84648648Y-75087500D03*
%TO.P,R3,2*%
%TO.N,Board_9-SHIELD*%
X84648648Y-76912500D03*
%TD*%
D18*
%TO.P,R1,1*%
%TO.N,Board_5-Net-(J1-Pad10)*%
X86648648Y-53225000D03*
%TO.P,R1,2*%
%TO.N,Board_5-GND*%
X86648648Y-51575000D03*
%TD*%
D20*
%TO.P,J2,1*%
%TO.N,Board_3-VCC*%
X107148648Y-42475000D03*
%TO.P,J2,2*%
%TO.N,Board_3-D-*%
X108148648Y-42475000D03*
%TO.P,J2,3*%
%TO.N,Board_3-D+*%
X109148648Y-42475000D03*
%TO.P,J2,4*%
%TO.N,Board_3-GND*%
X110148648Y-42475000D03*
D21*
%TO.P,J2,MP*%
X111448648Y-38600000D03*
X105848648Y-38600000D03*
%TD*%
D18*
%TO.P,R2,1*%
%TO.N,Board_0-Net-(J1-Pad4)*%
X38748648Y-29825000D03*
%TO.P,R2,2*%
%TO.N,Board_0-GND*%
X38748648Y-28175000D03*
%TD*%
%TO.P,R2,1*%
%TO.N,Board_15-Net-(J1-Pad4)*%
X88448648Y-111725000D03*
%TO.P,R2,2*%
%TO.N,Board_15-GND*%
X88448648Y-110075000D03*
%TD*%
D20*
%TO.P,J2,1*%
%TO.N,Board_8-VCC*%
X57448648Y-77575000D03*
%TO.P,J2,2*%
%TO.N,Board_8-D-*%
X58448648Y-77575000D03*
%TO.P,J2,3*%
%TO.N,Board_8-D+*%
X59448648Y-77575000D03*
%TO.P,J2,4*%
%TO.N,Board_8-GND*%
X60448648Y-77575000D03*
D21*
%TO.P,J2,MP*%
X56148648Y-73700000D03*
X61748648Y-73700000D03*
%TD*%
D18*
%TO.P,R1,1*%
%TO.N,Board_15-Net-(J1-Pad10)*%
X86648648Y-111725000D03*
%TO.P,R1,2*%
%TO.N,Board_15-GND*%
X86648648Y-110075000D03*
%TD*%
%TO.P,R1,1*%
%TO.N,Board_10-Net-(J1-Pad10)*%
X36948648Y-88325000D03*
%TO.P,R1,2*%
%TO.N,Board_10-GND*%
X36948648Y-86675000D03*
%TD*%
%TO.P,R1,1*%
%TO.N,Board_7-Net-(J1-Pad10)*%
X86648648Y-64925000D03*
%TO.P,R1,2*%
%TO.N,Board_7-GND*%
X86648648Y-63275000D03*
%TD*%
%TO.P,R1,1*%
%TO.N,Board_4-Net-(J1-Pad10)*%
X36948648Y-53225000D03*
%TO.P,R1,2*%
%TO.N,Board_4-GND*%
X36948648Y-51575000D03*
%TD*%
%TO.P,R1,1*%
%TO.N,Board_12-Net-(J1-Pad10)*%
X36948648Y-100025000D03*
%TO.P,R1,2*%
%TO.N,Board_12-GND*%
X36948648Y-98375000D03*
%TD*%
D19*
%TO.P,R3,1*%
%TO.N,Board_10-GND*%
X34948648Y-86787500D03*
%TO.P,R3,2*%
%TO.N,Board_10-SHIELD*%
X34948648Y-88612500D03*
%TD*%
D18*
%TO.P,R1,1*%
%TO.N,Board_8-Net-(J1-Pad10)*%
X36948648Y-76625000D03*
%TO.P,R1,2*%
%TO.N,Board_8-GND*%
X36948648Y-74975000D03*
%TD*%
D20*
%TO.P,J2,1*%
%TO.N,Board_1-VCC*%
X107148648Y-30775000D03*
%TO.P,J2,2*%
%TO.N,Board_1-D-*%
X108148648Y-30775000D03*
%TO.P,J2,3*%
%TO.N,Board_1-D+*%
X109148648Y-30775000D03*
%TO.P,J2,4*%
%TO.N,Board_1-GND*%
X110148648Y-30775000D03*
D21*
%TO.P,J2,MP*%
X105848648Y-26900000D03*
X111448648Y-26900000D03*
%TD*%
D19*
%TO.P,R3,1*%
%TO.N,Board_15-GND*%
X84648648Y-110187500D03*
%TO.P,R3,2*%
%TO.N,Board_15-SHIELD*%
X84648648Y-112012500D03*
%TD*%
%TO.P,R3,1*%
%TO.N,Board_0-GND*%
X34948648Y-28287500D03*
%TO.P,R3,2*%
%TO.N,Board_0-SHIELD*%
X34948648Y-30112500D03*
%TD*%
%TO.P,R3,1*%
%TO.N,Board_3-GND*%
X84648648Y-39987500D03*
%TO.P,R3,2*%
%TO.N,Board_3-SHIELD*%
X84648648Y-41812500D03*
%TD*%
%TO.P,R3,1*%
%TO.N,Board_2-GND*%
X34948648Y-39987500D03*
%TO.P,R3,2*%
%TO.N,Board_2-SHIELD*%
X34948648Y-41812500D03*
%TD*%
D17*
%TO.P,C1,1*%
%TO.N,Board_6-GND*%
X32948648Y-63525000D03*
%TO.P,C1,2*%
%TO.N,Board_6-SHIELD*%
X32948648Y-65075000D03*
%TD*%
D20*
%TO.P,J2,1*%
%TO.N,Board_0-VCC*%
X57448648Y-30775000D03*
%TO.P,J2,2*%
%TO.N,Board_0-D-*%
X58448648Y-30775000D03*
%TO.P,J2,3*%
%TO.N,Board_0-D+*%
X59448648Y-30775000D03*
%TO.P,J2,4*%
%TO.N,Board_0-GND*%
X60448648Y-30775000D03*
D21*
%TO.P,J2,MP*%
X56148648Y-26900000D03*
X61748648Y-26900000D03*
%TD*%
D17*
%TO.P,C1,1*%
%TO.N,Board_10-GND*%
X32948648Y-86925000D03*
%TO.P,C1,2*%
%TO.N,Board_10-SHIELD*%
X32948648Y-88475000D03*
%TD*%
D19*
%TO.P,R3,1*%
%TO.N,Board_7-GND*%
X84648648Y-63387500D03*
%TO.P,R3,2*%
%TO.N,Board_7-SHIELD*%
X84648648Y-65212500D03*
%TD*%
D18*
%TO.P,R2,1*%
%TO.N,Board_2-Net-(J1-Pad4)*%
X38748648Y-41525000D03*
%TO.P,R2,2*%
%TO.N,Board_2-GND*%
X38748648Y-39875000D03*
%TD*%
D17*
%TO.P,C1,1*%
%TO.N,Board_0-GND*%
X32948648Y-28425000D03*
%TO.P,C1,2*%
%TO.N,Board_0-SHIELD*%
X32948648Y-29975000D03*
%TD*%
D19*
%TO.P,R3,1*%
%TO.N,Board_14-GND*%
X34948648Y-110187500D03*
%TO.P,R3,2*%
%TO.N,Board_14-SHIELD*%
X34948648Y-112012500D03*
%TD*%
D18*
%TO.P,R1,1*%
%TO.N,Board_11-Net-(J1-Pad10)*%
X86648648Y-88325000D03*
%TO.P,R1,2*%
%TO.N,Board_11-GND*%
X86648648Y-86675000D03*
%TD*%
%TO.P,R1,1*%
%TO.N,Board_2-Net-(J1-Pad10)*%
X36948648Y-41525000D03*
%TO.P,R1,2*%
%TO.N,Board_2-GND*%
X36948648Y-39875000D03*
%TD*%
%TO.P,R2,1*%
%TO.N,Board_4-Net-(J1-Pad4)*%
X38748648Y-53225000D03*
%TO.P,R2,2*%
%TO.N,Board_4-GND*%
X38748648Y-51575000D03*
%TD*%
D20*
%TO.P,J2,1*%
%TO.N,Board_9-VCC*%
X107148648Y-77575000D03*
%TO.P,J2,2*%
%TO.N,Board_9-D-*%
X108148648Y-77575000D03*
%TO.P,J2,3*%
%TO.N,Board_9-D+*%
X109148648Y-77575000D03*
%TO.P,J2,4*%
%TO.N,Board_9-GND*%
X110148648Y-77575000D03*
D21*
%TO.P,J2,MP*%
X111448648Y-73700000D03*
X105848648Y-73700000D03*
%TD*%
D18*
%TO.P,R1,1*%
%TO.N,Board_6-Net-(J1-Pad10)*%
X36948648Y-64925000D03*
%TO.P,R1,2*%
%TO.N,Board_6-GND*%
X36948648Y-63275000D03*
%TD*%
D17*
%TO.P,C1,1*%
%TO.N,Board_11-GND*%
X82648648Y-86925000D03*
%TO.P,C1,2*%
%TO.N,Board_11-SHIELD*%
X82648648Y-88475000D03*
%TD*%
D18*
%TO.P,R1,1*%
%TO.N,Board_1-Net-(J1-Pad10)*%
X86648648Y-29825000D03*
%TO.P,R1,2*%
%TO.N,Board_1-GND*%
X86648648Y-28175000D03*
%TD*%
%TO.P,R1,1*%
%TO.N,Board_0-Net-(J1-Pad10)*%
X36948648Y-29825000D03*
%TO.P,R1,2*%
%TO.N,Board_0-GND*%
X36948648Y-28175000D03*
%TD*%
%TO.P,R2,1*%
%TO.N,Board_11-Net-(J1-Pad4)*%
X88448648Y-88325000D03*
%TO.P,R2,2*%
%TO.N,Board_11-GND*%
X88448648Y-86675000D03*
%TD*%
D17*
%TO.P,C1,1*%
%TO.N,Board_15-GND*%
X82648648Y-110325000D03*
%TO.P,C1,2*%
%TO.N,Board_15-SHIELD*%
X82648648Y-111875000D03*
%TD*%
D20*
%TO.P,J2,1*%
%TO.N,Board_13-VCC*%
X107148648Y-100975000D03*
%TO.P,J2,2*%
%TO.N,Board_13-D-*%
X108148648Y-100975000D03*
%TO.P,J2,3*%
%TO.N,Board_13-D+*%
X109148648Y-100975000D03*
%TO.P,J2,4*%
%TO.N,Board_13-GND*%
X110148648Y-100975000D03*
D21*
%TO.P,J2,MP*%
X111448648Y-97100000D03*
X105848648Y-97100000D03*
%TD*%
D18*
%TO.P,R2,1*%
%TO.N,Board_14-Net-(J1-Pad4)*%
X38748648Y-111725000D03*
%TO.P,R2,2*%
%TO.N,Board_14-GND*%
X38748648Y-110075000D03*
%TD*%
%TO.P,R1,1*%
%TO.N,Board_14-Net-(J1-Pad10)*%
X36948648Y-111725000D03*
%TO.P,R1,2*%
%TO.N,Board_14-GND*%
X36948648Y-110075000D03*
%TD*%
D20*
%TO.P,J2,1*%
%TO.N,Board_7-VCC*%
X107148648Y-65875000D03*
%TO.P,J2,2*%
%TO.N,Board_7-D-*%
X108148648Y-65875000D03*
%TO.P,J2,3*%
%TO.N,Board_7-D+*%
X109148648Y-65875000D03*
%TO.P,J2,4*%
%TO.N,Board_7-GND*%
X110148648Y-65875000D03*
D21*
%TO.P,J2,MP*%
X105848648Y-62000000D03*
X111448648Y-62000000D03*
%TD*%
D17*
%TO.P,C1,1*%
%TO.N,Board_9-GND*%
X82648648Y-75225000D03*
%TO.P,C1,2*%
%TO.N,Board_9-SHIELD*%
X82648648Y-76775000D03*
%TD*%
D18*
%TO.P,R2,1*%
%TO.N,Board_7-Net-(J1-Pad4)*%
X88448648Y-64925000D03*
%TO.P,R2,2*%
%TO.N,Board_7-GND*%
X88448648Y-63275000D03*
%TD*%
D20*
%TO.P,J2,1*%
%TO.N,Board_5-VCC*%
X107148648Y-54175000D03*
%TO.P,J2,2*%
%TO.N,Board_5-D-*%
X108148648Y-54175000D03*
%TO.P,J2,3*%
%TO.N,Board_5-D+*%
X109148648Y-54175000D03*
%TO.P,J2,4*%
%TO.N,Board_5-GND*%
X110148648Y-54175000D03*
D21*
%TO.P,J2,MP*%
X105848648Y-50300000D03*
X111448648Y-50300000D03*
%TD*%
D20*
%TO.P,J2,1*%
%TO.N,Board_6-VCC*%
X57448648Y-65875000D03*
%TO.P,J2,2*%
%TO.N,Board_6-D-*%
X58448648Y-65875000D03*
%TO.P,J2,3*%
%TO.N,Board_6-D+*%
X59448648Y-65875000D03*
%TO.P,J2,4*%
%TO.N,Board_6-GND*%
X60448648Y-65875000D03*
D21*
%TO.P,J2,MP*%
X56148648Y-62000000D03*
X61748648Y-62000000D03*
%TD*%
D17*
%TO.P,C1,1*%
%TO.N,Board_1-GND*%
X82648648Y-28425000D03*
%TO.P,C1,2*%
%TO.N,Board_1-SHIELD*%
X82648648Y-29975000D03*
%TD*%
D20*
%TO.P,J2,1*%
%TO.N,Board_14-VCC*%
X57448648Y-112675000D03*
%TO.P,J2,2*%
%TO.N,Board_14-D-*%
X58448648Y-112675000D03*
%TO.P,J2,3*%
%TO.N,Board_14-D+*%
X59448648Y-112675000D03*
%TO.P,J2,4*%
%TO.N,Board_14-GND*%
X60448648Y-112675000D03*
D21*
%TO.P,J2,MP*%
X61748648Y-108800000D03*
X56148648Y-108800000D03*
%TD*%
D17*
%TO.P,C1,1*%
%TO.N,Board_8-GND*%
X32948648Y-75225000D03*
%TO.P,C1,2*%
%TO.N,Board_8-SHIELD*%
X32948648Y-76775000D03*
%TD*%
%TO.P,C1,1*%
%TO.N,Board_2-GND*%
X32948648Y-40125000D03*
%TO.P,C1,2*%
%TO.N,Board_2-SHIELD*%
X32948648Y-41675000D03*
%TD*%
D18*
%TO.P,R2,1*%
%TO.N,Board_1-Net-(J1-Pad4)*%
X88448648Y-29825000D03*
%TO.P,R2,2*%
%TO.N,Board_1-GND*%
X88448648Y-28175000D03*
%TD*%
D22*
%TO.P,MH2,1*%
%TO.N,Board_15-SHIELD*%
X75648648Y-110250000D03*
X79745704Y-111947056D03*
X80448648Y-110250000D03*
D23*
X78048648Y-110250000D03*
D22*
X78048648Y-112650000D03*
X78048648Y-107850000D03*
X76351592Y-108552944D03*
X76351592Y-111947056D03*
X79745704Y-108552944D03*
%TD*%
D23*
%TO.P,MH1,1*%
%TO.N,Board_7-SHIELD*%
X116048648Y-63450000D03*
D22*
X116048648Y-65850000D03*
X118448648Y-63450000D03*
X114351592Y-65147056D03*
X114351592Y-61752944D03*
X117745704Y-65147056D03*
X113648648Y-63450000D03*
X116048648Y-61050000D03*
X117745704Y-61752944D03*
%TD*%
%TO.P,MH2,1*%
%TO.N,Board_8-SHIELD*%
X30045704Y-73452944D03*
X30045704Y-76847056D03*
X26651592Y-76847056D03*
X28348648Y-77550000D03*
X30748648Y-75150000D03*
X28348648Y-72750000D03*
X26651592Y-73452944D03*
X25948648Y-75150000D03*
D23*
X28348648Y-75150000D03*
%TD*%
D22*
%TO.P,MH2,1*%
%TO.N,Board_5-SHIELD*%
X78048648Y-49350000D03*
X79745704Y-53447056D03*
X75648648Y-51750000D03*
X76351592Y-50052944D03*
X80448648Y-51750000D03*
X79745704Y-50052944D03*
X76351592Y-53447056D03*
D23*
X78048648Y-51750000D03*
D22*
X78048648Y-54150000D03*
%TD*%
%TO.P,MH1,1*%
%TO.N,Board_6-SHIELD*%
X66348648Y-61050000D03*
D23*
X66348648Y-63450000D03*
D22*
X64651592Y-65147056D03*
X68045704Y-61752944D03*
X66348648Y-65850000D03*
X68748648Y-63450000D03*
X68045704Y-65147056D03*
X63948648Y-63450000D03*
X64651592Y-61752944D03*
%TD*%
%TO.P,MH2,1*%
%TO.N,Board_0-SHIELD*%
X30748648Y-28350000D03*
X30045704Y-26652944D03*
X25948648Y-28350000D03*
X26651592Y-30047056D03*
X26651592Y-26652944D03*
X30045704Y-30047056D03*
X28348648Y-25950000D03*
D23*
X28348648Y-28350000D03*
D22*
X28348648Y-30750000D03*
%TD*%
%TO.P,MH1,1*%
%TO.N,Board_1-SHIELD*%
X118448648Y-28350000D03*
X116048648Y-25950000D03*
X114351592Y-26652944D03*
X116048648Y-30750000D03*
X113648648Y-28350000D03*
X117745704Y-30047056D03*
X114351592Y-30047056D03*
D23*
X116048648Y-28350000D03*
D22*
X117745704Y-26652944D03*
%TD*%
%TO.P,MH1,1*%
%TO.N,Board_10-SHIELD*%
X68045704Y-85152944D03*
X68045704Y-88547056D03*
D23*
X66348648Y-86850000D03*
D22*
X63948648Y-86850000D03*
X66348648Y-84450000D03*
X66348648Y-89250000D03*
X64651592Y-85152944D03*
X68748648Y-86850000D03*
X64651592Y-88547056D03*
%TD*%
%TO.P,MH2,1*%
%TO.N,Board_13-SHIELD*%
X76351592Y-96852944D03*
X75648648Y-98550000D03*
X78048648Y-96150000D03*
X79745704Y-100247056D03*
D23*
X78048648Y-98550000D03*
D22*
X79745704Y-96852944D03*
X76351592Y-100247056D03*
X78048648Y-100950000D03*
X80448648Y-98550000D03*
%TD*%
%TO.P,MH2,1*%
%TO.N,Board_10-SHIELD*%
X26651592Y-85152944D03*
X30045704Y-85152944D03*
X26651592Y-88547056D03*
X30748648Y-86850000D03*
X30045704Y-88547056D03*
X25948648Y-86850000D03*
D23*
X28348648Y-86850000D03*
D22*
X28348648Y-89250000D03*
X28348648Y-84450000D03*
%TD*%
%TO.P,MH2,1*%
%TO.N,Board_11-SHIELD*%
X76351592Y-85152944D03*
X80448648Y-86850000D03*
X78048648Y-84450000D03*
X79745704Y-88547056D03*
X75648648Y-86850000D03*
D23*
X78048648Y-86850000D03*
D22*
X78048648Y-89250000D03*
X76351592Y-88547056D03*
X79745704Y-85152944D03*
%TD*%
%TO.P,MH1,1*%
%TO.N,Board_9-SHIELD*%
X113648648Y-75150000D03*
X116048648Y-77550000D03*
X116048648Y-72750000D03*
X114351592Y-73452944D03*
X117745704Y-76847056D03*
D23*
X116048648Y-75150000D03*
D22*
X114351592Y-76847056D03*
X117745704Y-73452944D03*
X118448648Y-75150000D03*
%TD*%
%TO.P,MH2,1*%
%TO.N,Board_6-SHIELD*%
X26651592Y-65147056D03*
X25948648Y-63450000D03*
X30748648Y-63450000D03*
D23*
X28348648Y-63450000D03*
D22*
X28348648Y-61050000D03*
X26651592Y-61752944D03*
X30045704Y-65147056D03*
X28348648Y-65850000D03*
X30045704Y-61752944D03*
%TD*%
D23*
%TO.P,MH1,1*%
%TO.N,Board_15-SHIELD*%
X116048648Y-110250000D03*
D22*
X117745704Y-111947056D03*
X113648648Y-110250000D03*
X116048648Y-112650000D03*
X114351592Y-111947056D03*
X116048648Y-107850000D03*
X117745704Y-108552944D03*
X114351592Y-108552944D03*
X118448648Y-110250000D03*
%TD*%
%TO.P,MH1,1*%
%TO.N,Board_11-SHIELD*%
X116048648Y-89250000D03*
X118448648Y-86850000D03*
X114351592Y-85152944D03*
X116048648Y-84450000D03*
X113648648Y-86850000D03*
X117745704Y-85152944D03*
D23*
X116048648Y-86850000D03*
D22*
X114351592Y-88547056D03*
X117745704Y-88547056D03*
%TD*%
%TO.P,MH2,1*%
%TO.N,Board_12-SHIELD*%
X28348648Y-100950000D03*
X26651592Y-100247056D03*
D23*
X28348648Y-98550000D03*
D22*
X25948648Y-98550000D03*
X26651592Y-96852944D03*
X30045704Y-100247056D03*
X28348648Y-96150000D03*
X30045704Y-96852944D03*
X30748648Y-98550000D03*
%TD*%
D23*
%TO.P,MH2,1*%
%TO.N,Board_9-SHIELD*%
X78048648Y-75150000D03*
D22*
X75648648Y-75150000D03*
X79745704Y-73452944D03*
X76351592Y-76847056D03*
X76351592Y-73452944D03*
X78048648Y-72750000D03*
X79745704Y-76847056D03*
X78048648Y-77550000D03*
X80448648Y-75150000D03*
%TD*%
%TO.P,MH1,1*%
%TO.N,Board_2-SHIELD*%
X66348648Y-42450000D03*
X68045704Y-41747056D03*
X64651592Y-38352944D03*
D23*
X66348648Y-40050000D03*
D22*
X63948648Y-40050000D03*
X68045704Y-38352944D03*
X64651592Y-41747056D03*
X66348648Y-37650000D03*
X68748648Y-40050000D03*
%TD*%
%TO.P,MH1,1*%
%TO.N,Board_3-SHIELD*%
X116048648Y-42450000D03*
X113648648Y-40050000D03*
X117745704Y-38352944D03*
D23*
X116048648Y-40050000D03*
D22*
X118448648Y-40050000D03*
X116048648Y-37650000D03*
X114351592Y-41747056D03*
X114351592Y-38352944D03*
X117745704Y-41747056D03*
%TD*%
%TO.P,MH2,1*%
%TO.N,Board_1-SHIELD*%
X76351592Y-26652944D03*
X79745704Y-26652944D03*
D23*
X78048648Y-28350000D03*
D22*
X76351592Y-30047056D03*
X80448648Y-28350000D03*
X78048648Y-25950000D03*
X79745704Y-30047056D03*
X78048648Y-30750000D03*
X75648648Y-28350000D03*
%TD*%
%TO.P,MH1,1*%
%TO.N,Board_12-SHIELD*%
X66348648Y-100950000D03*
X63948648Y-98550000D03*
X64651592Y-96852944D03*
X64651592Y-100247056D03*
X66348648Y-96150000D03*
X68748648Y-98550000D03*
D23*
X66348648Y-98550000D03*
D22*
X68045704Y-100247056D03*
X68045704Y-96852944D03*
%TD*%
%TO.P,MH1,1*%
%TO.N,Board_14-SHIELD*%
X64651592Y-111947056D03*
X68045704Y-108552944D03*
X68748648Y-110250000D03*
X66348648Y-112650000D03*
D23*
X66348648Y-110250000D03*
D22*
X63948648Y-110250000D03*
X66348648Y-107850000D03*
X68045704Y-111947056D03*
X64651592Y-108552944D03*
%TD*%
%TO.P,MH2,1*%
%TO.N,Board_4-SHIELD*%
X30045704Y-50052944D03*
X26651592Y-53447056D03*
X25948648Y-51750000D03*
X28348648Y-49350000D03*
X30045704Y-53447056D03*
X28348648Y-54150000D03*
X30748648Y-51750000D03*
X26651592Y-50052944D03*
D23*
X28348648Y-51750000D03*
%TD*%
D22*
%TO.P,MH2,1*%
%TO.N,Board_14-SHIELD*%
X26651592Y-111947056D03*
X30748648Y-110250000D03*
X30045704Y-108552944D03*
X30045704Y-111947056D03*
D23*
X28348648Y-110250000D03*
D22*
X26651592Y-108552944D03*
X25948648Y-110250000D03*
X28348648Y-112650000D03*
X28348648Y-107850000D03*
%TD*%
%TO.P,MH2,1*%
%TO.N,Board_2-SHIELD*%
X26651592Y-38352944D03*
X28348648Y-37650000D03*
X30045704Y-41747056D03*
D23*
X28348648Y-40050000D03*
D22*
X28348648Y-42450000D03*
X26651592Y-41747056D03*
X30045704Y-38352944D03*
X25948648Y-40050000D03*
X30748648Y-40050000D03*
%TD*%
%TO.P,MH1,1*%
%TO.N,Board_5-SHIELD*%
X117745704Y-53447056D03*
X118448648Y-51750000D03*
X114351592Y-50052944D03*
X113648648Y-51750000D03*
X116048648Y-54150000D03*
X117745704Y-50052944D03*
X114351592Y-53447056D03*
D23*
X116048648Y-51750000D03*
D22*
X116048648Y-49350000D03*
%TD*%
%TO.P,MH1,1*%
%TO.N,Board_4-SHIELD*%
X68045704Y-50052944D03*
X63948648Y-51750000D03*
X68045704Y-53447056D03*
X66348648Y-54150000D03*
X66348648Y-49350000D03*
D23*
X66348648Y-51750000D03*
D22*
X68748648Y-51750000D03*
X64651592Y-53447056D03*
X64651592Y-50052944D03*
%TD*%
%TO.P,MH1,1*%
%TO.N,Board_0-SHIELD*%
X68748648Y-28350000D03*
D23*
X66348648Y-28350000D03*
D22*
X66348648Y-25950000D03*
X66348648Y-30750000D03*
X68045704Y-26652944D03*
X64651592Y-26652944D03*
X68045704Y-30047056D03*
X63948648Y-28350000D03*
X64651592Y-30047056D03*
%TD*%
%TO.P,MH2,1*%
%TO.N,Board_7-SHIELD*%
X78048648Y-65850000D03*
X76351592Y-65147056D03*
X80448648Y-63450000D03*
X78048648Y-61050000D03*
X76351592Y-61752944D03*
X79745704Y-61752944D03*
D23*
X78048648Y-63450000D03*
D22*
X75648648Y-63450000D03*
X79745704Y-65147056D03*
%TD*%
%TO.P,MH1,1*%
%TO.N,Board_13-SHIELD*%
X117745704Y-100247056D03*
X113648648Y-98550000D03*
X118448648Y-98550000D03*
X114351592Y-100247056D03*
X117745704Y-96852944D03*
X116048648Y-100950000D03*
D23*
X116048648Y-98550000D03*
D22*
X114351592Y-96852944D03*
X116048648Y-96150000D03*
%TD*%
%TO.P,MH2,1*%
%TO.N,Board_3-SHIELD*%
X78048648Y-42450000D03*
X80448648Y-40050000D03*
X79745704Y-41747056D03*
X76351592Y-38352944D03*
X79745704Y-38352944D03*
X78048648Y-37650000D03*
X75648648Y-40050000D03*
X76351592Y-41747056D03*
D23*
X78048648Y-40050000D03*
%TD*%
D22*
%TO.P,MH1,1*%
%TO.N,Board_8-SHIELD*%
X64651592Y-76847056D03*
X64651592Y-73452944D03*
X68045704Y-76847056D03*
D23*
X66348648Y-75150000D03*
D22*
X68045704Y-73452944D03*
X66348648Y-72750000D03*
X66348648Y-77550000D03*
X63948648Y-75150000D03*
X68748648Y-75150000D03*
%TD*%
D24*
%TO.N,Board_15-Net-(J1-Pad4)*%
X96448648Y-109825000D03*
X93248648Y-112100000D03*
%TO.N,Board_15-Net-(J1-Pad10)*%
X92048648Y-111000000D03*
X93848648Y-109700000D03*
%TO.N,Board_15-GND*%
X83498648Y-107300000D03*
X111056648Y-112664500D03*
X105548648Y-111100000D03*
X109548648Y-107100000D03*
X100648648Y-107775010D03*
X109948648Y-110700000D03*
X93248648Y-106700000D03*
X89248648Y-107300000D03*
%TO.N,Board_14-Net-(J1-Pad4)*%
X46748648Y-109825000D03*
X43548648Y-112100000D03*
%TO.N,Board_14-Net-(J1-Pad10)*%
X42348648Y-111000000D03*
X44148648Y-109700000D03*
%TO.N,Board_14-GND*%
X33798648Y-107300000D03*
X61356648Y-112664500D03*
X55848648Y-111100000D03*
X59848648Y-107100000D03*
X50948648Y-107775010D03*
X60248648Y-110700000D03*
X43548648Y-106700000D03*
X39548648Y-107300000D03*
%TO.N,Board_13-Net-(J1-Pad4)*%
X96448648Y-98125000D03*
X93248648Y-100400000D03*
%TO.N,Board_13-Net-(J1-Pad10)*%
X92048648Y-99300000D03*
X93848648Y-98000000D03*
%TO.N,Board_13-GND*%
X111056648Y-100964500D03*
X83498648Y-95600000D03*
X105548648Y-99400000D03*
X109548648Y-95400000D03*
X100648648Y-96075010D03*
X109948648Y-99000000D03*
X93248648Y-95000000D03*
X89248648Y-95600000D03*
%TO.N,Board_12-Net-(J1-Pad4)*%
X46748648Y-98125000D03*
X43548648Y-100400000D03*
%TO.N,Board_12-Net-(J1-Pad10)*%
X42348648Y-99300000D03*
X44148648Y-98000000D03*
%TO.N,Board_12-GND*%
X33798648Y-95600000D03*
X61356648Y-100964500D03*
X55848648Y-99400000D03*
X59848648Y-95400000D03*
X50948648Y-96075010D03*
X60248648Y-99000000D03*
X43548648Y-95000000D03*
X39548648Y-95600000D03*
%TO.N,Board_11-Net-(J1-Pad4)*%
X96448648Y-86425000D03*
X93248648Y-88700000D03*
%TO.N,Board_11-Net-(J1-Pad10)*%
X92048648Y-87600000D03*
X93848648Y-86300000D03*
%TO.N,Board_11-GND*%
X111056648Y-89264500D03*
X83498648Y-83900000D03*
X105548648Y-87700000D03*
X109548648Y-83700000D03*
X100648648Y-84375010D03*
X109948648Y-87300000D03*
X93248648Y-83300000D03*
X89248648Y-83900000D03*
%TO.N,Board_10-Net-(J1-Pad4)*%
X46748648Y-86425000D03*
X43548648Y-88700000D03*
%TO.N,Board_10-Net-(J1-Pad10)*%
X42348648Y-87600000D03*
X44148648Y-86300000D03*
%TO.N,Board_10-GND*%
X33798648Y-83900000D03*
X61356648Y-89264500D03*
X55848648Y-87700000D03*
X59848648Y-83700000D03*
X50948648Y-84375010D03*
X60248648Y-87300000D03*
X43548648Y-83300000D03*
X39548648Y-83900000D03*
%TO.N,Board_9-Net-(J1-Pad4)*%
X96448648Y-74725000D03*
X93248648Y-77000000D03*
%TO.N,Board_9-Net-(J1-Pad10)*%
X92048648Y-75900000D03*
X93848648Y-74600000D03*
%TO.N,Board_9-GND*%
X83498648Y-72200000D03*
X111056648Y-77564500D03*
X105548648Y-76000000D03*
X109548648Y-72000000D03*
X100648648Y-72675010D03*
X109948648Y-75600000D03*
X93248648Y-71600000D03*
X89248648Y-72200000D03*
%TO.N,Board_8-Net-(J1-Pad4)*%
X46748648Y-74725000D03*
X43548648Y-77000000D03*
%TO.N,Board_8-Net-(J1-Pad10)*%
X42348648Y-75900000D03*
X44148648Y-74600000D03*
%TO.N,Board_8-GND*%
X33798648Y-72200000D03*
X61356648Y-77564500D03*
X55848648Y-76000000D03*
X59848648Y-72000000D03*
X50948648Y-72675010D03*
X60248648Y-75600000D03*
X43548648Y-71600000D03*
X39548648Y-72200000D03*
%TO.N,Board_7-Net-(J1-Pad4)*%
X96448648Y-63025000D03*
X93248648Y-65300000D03*
%TO.N,Board_7-Net-(J1-Pad10)*%
X92048648Y-64200000D03*
X93848648Y-62900000D03*
%TO.N,Board_7-GND*%
X83498648Y-60500000D03*
X111056648Y-65864500D03*
X105548648Y-64300000D03*
X109548648Y-60300000D03*
X100648648Y-60975010D03*
X109948648Y-63900000D03*
X93248648Y-59900000D03*
X89248648Y-60500000D03*
%TO.N,Board_6-Net-(J1-Pad4)*%
X46748648Y-63025000D03*
X43548648Y-65300000D03*
%TO.N,Board_6-Net-(J1-Pad10)*%
X42348648Y-64200000D03*
X44148648Y-62900000D03*
%TO.N,Board_6-GND*%
X33798648Y-60500000D03*
X61356648Y-65864500D03*
X55848648Y-64300000D03*
X59848648Y-60300000D03*
X50948648Y-60975010D03*
X60248648Y-63900000D03*
X43548648Y-59900000D03*
X39548648Y-60500000D03*
%TO.N,Board_5-Net-(J1-Pad4)*%
X96448648Y-51325000D03*
X93248648Y-53600000D03*
%TO.N,Board_5-Net-(J1-Pad10)*%
X92048648Y-52500000D03*
X93848648Y-51200000D03*
%TO.N,Board_5-GND*%
X83498648Y-48800000D03*
X111056648Y-54164500D03*
X105548648Y-52600000D03*
X109548648Y-48600000D03*
X100648648Y-49275010D03*
X109948648Y-52200000D03*
X93248648Y-48200000D03*
X89248648Y-48800000D03*
%TO.N,Board_4-Net-(J1-Pad4)*%
X46748648Y-51325000D03*
X43548648Y-53600000D03*
%TO.N,Board_4-Net-(J1-Pad10)*%
X42348648Y-52500000D03*
X44148648Y-51200000D03*
%TO.N,Board_4-GND*%
X61356648Y-54164500D03*
X33798648Y-48800000D03*
X55848648Y-52600000D03*
X59848648Y-48600000D03*
X50948648Y-49275010D03*
X60248648Y-52200000D03*
X43548648Y-48200000D03*
X39548648Y-48800000D03*
%TO.N,Board_3-Net-(J1-Pad4)*%
X96448648Y-39625000D03*
X93248648Y-41900000D03*
%TO.N,Board_3-Net-(J1-Pad10)*%
X92048648Y-40800000D03*
X93848648Y-39500000D03*
%TO.N,Board_3-GND*%
X83498648Y-37100000D03*
X111056648Y-42464500D03*
X105548648Y-40900000D03*
X109548648Y-36900000D03*
X100648648Y-37575010D03*
X109948648Y-40500000D03*
X93248648Y-36500000D03*
X89248648Y-37100000D03*
%TO.N,Board_2-Net-(J1-Pad4)*%
X46748648Y-39625000D03*
X43548648Y-41900000D03*
%TO.N,Board_2-Net-(J1-Pad10)*%
X42348648Y-40800000D03*
X44148648Y-39500000D03*
%TO.N,Board_2-GND*%
X33798648Y-37100000D03*
X61356648Y-42464500D03*
X55848648Y-40900000D03*
X59848648Y-36900000D03*
X50948648Y-37575010D03*
X60248648Y-40500000D03*
X43548648Y-36500000D03*
X39548648Y-37100000D03*
%TO.N,Board_1-Net-(J1-Pad4)*%
X96448648Y-27925000D03*
X93248648Y-30200000D03*
%TO.N,Board_1-Net-(J1-Pad10)*%
X92048648Y-29100000D03*
X93848648Y-27800000D03*
%TO.N,Board_1-GND*%
X111056648Y-30764500D03*
X83498648Y-25400000D03*
X105548648Y-29200000D03*
X109548648Y-25200000D03*
X100648648Y-25875010D03*
X109948648Y-28800000D03*
X93248648Y-24800000D03*
X89248648Y-25400000D03*
%TO.N,Board_0-Net-(J1-Pad4)*%
X46748648Y-27925000D03*
X43548648Y-30200000D03*
%TO.N,Board_0-Net-(J1-Pad10)*%
X42348648Y-29100000D03*
X44148648Y-27800000D03*
%TO.N,Board_0-GND*%
X33798648Y-25400000D03*
X61356648Y-30764500D03*
X55848648Y-29200000D03*
X59848648Y-25200000D03*
X50948648Y-25875010D03*
X60248648Y-28800000D03*
X43548648Y-24800000D03*
X39548648Y-25400000D03*
%TD*%
D25*
%TO.N,Board_15-VCC*%
X107148648Y-112675000D02*
X105706648Y-112675000D01*
X105706648Y-112675000D02*
X104894776Y-112675000D01*
X100994776Y-112675000D02*
X105706648Y-112675000D01*
X97498648Y-109053998D02*
X97238647Y-109313999D01*
X92858649Y-109313999D02*
X92598648Y-109053998D01*
X96548648Y-110600000D02*
X93548648Y-110600000D01*
X97238647Y-110510001D02*
X97148648Y-110600000D01*
X92858649Y-109910001D02*
X92858649Y-109313999D01*
X92598648Y-109053998D02*
X92598648Y-108205000D01*
X97498648Y-108205000D02*
X97498648Y-109053998D01*
X97148648Y-110600000D02*
X96548648Y-110600000D01*
X93548648Y-110600000D02*
X92858649Y-109910001D01*
X97238647Y-109313999D02*
X97238647Y-110510001D01*
X100994776Y-112675000D02*
X98919776Y-110600000D01*
X98919776Y-110600000D02*
X97148648Y-110600000D01*
D26*
%TO.N,Board_15-SHIELD*%
X83648648Y-111875000D02*
X79673648Y-111875000D01*
X82786148Y-112012500D02*
X82648648Y-111875000D01*
X84648648Y-112012500D02*
X82786148Y-112012500D01*
D27*
%TO.N,Board_15-Net-(J1-Pad4)*%
X91111799Y-112074990D02*
X90345497Y-112074990D01*
X96448648Y-109825000D02*
X96448648Y-109900000D01*
X88823648Y-112100000D02*
X88448648Y-111725000D01*
X90320487Y-112100000D02*
X88823648Y-112100000D01*
X93248648Y-112100000D02*
X91136809Y-112100000D01*
X96298648Y-109675000D02*
X96448648Y-109825000D01*
X96298648Y-108205000D02*
X96298648Y-109675000D01*
%TO.N,Board_15-Net-(J1-Pad10)*%
X87373648Y-111000000D02*
X86648648Y-111725000D01*
X92048648Y-111000000D02*
X87373648Y-111000000D01*
X93448649Y-109300001D02*
X93848648Y-109700000D01*
X93448649Y-109196879D02*
X93448649Y-109300001D01*
X93298648Y-109046878D02*
X93448649Y-109196879D01*
X93298648Y-108205000D02*
X93298648Y-109046878D01*
D28*
%TO.N,Board_15-GND*%
X111448648Y-108800000D02*
X110348648Y-108800000D01*
X109948648Y-110700000D02*
X109948648Y-109200000D01*
X109948648Y-109200000D02*
X110348648Y-108800000D01*
D25*
X92253648Y-106700000D02*
X93248648Y-106700000D01*
X91823648Y-107130000D02*
X92253648Y-106700000D01*
X98273648Y-108205000D02*
X98883658Y-107594990D01*
X98883658Y-107594990D02*
X100468628Y-107594990D01*
X91823648Y-108205000D02*
X91823648Y-107130000D01*
X100468628Y-107594990D02*
X100648648Y-107775010D01*
D27*
%TO.N,Board_15-D-*%
X108398648Y-108303554D02*
X107145094Y-107050000D01*
X107145094Y-107050000D02*
X96035058Y-107050000D01*
X108148648Y-111650000D02*
X108398648Y-111400000D01*
X96035058Y-107050000D02*
X95798648Y-107286410D01*
X108148648Y-112675000D02*
X108148648Y-111650000D01*
X108398648Y-111400000D02*
X108398648Y-108303554D01*
X95798648Y-107286410D02*
X95798648Y-108205000D01*
X94798648Y-109165002D02*
X94798648Y-108205000D01*
X94888647Y-109255001D02*
X94798648Y-109165002D01*
X95798648Y-109165002D02*
X95708649Y-109255001D01*
X95798648Y-108205000D02*
X95798648Y-109165002D01*
X95708649Y-109255001D02*
X94888647Y-109255001D01*
%TO.N,Board_15-D+*%
X95848648Y-106600000D02*
X107402202Y-106600000D01*
X95298648Y-107150000D02*
X95848648Y-106600000D01*
X95298648Y-108205000D02*
X95298648Y-107150000D01*
X108898648Y-108096446D02*
X108898648Y-111262499D01*
X107402202Y-106600000D02*
X108898648Y-108096446D01*
X109148648Y-111512499D02*
X109148648Y-112675000D01*
X108898648Y-111262499D02*
X109148648Y-111512499D01*
X94388647Y-107154999D02*
X94298648Y-107244998D01*
X95208649Y-107154999D02*
X94388647Y-107154999D01*
X94298648Y-107244998D02*
X94298648Y-108205000D01*
X95298648Y-107244998D02*
X95208649Y-107154999D01*
X95298648Y-108205000D02*
X95298648Y-107244998D01*
D25*
%TO.N,Board_14-VCC*%
X51294776Y-112675000D02*
X56006648Y-112675000D01*
X57448648Y-112675000D02*
X56006648Y-112675000D01*
X56006648Y-112675000D02*
X55194776Y-112675000D01*
X47798648Y-109053998D02*
X47538647Y-109313999D01*
X43158649Y-109313999D02*
X42898648Y-109053998D01*
X46848648Y-110600000D02*
X43848648Y-110600000D01*
X47538647Y-110510001D02*
X47448648Y-110600000D01*
X43158649Y-109910001D02*
X43158649Y-109313999D01*
X42898648Y-109053998D02*
X42898648Y-108205000D01*
X47798648Y-108205000D02*
X47798648Y-109053998D01*
X47448648Y-110600000D02*
X46848648Y-110600000D01*
X43848648Y-110600000D02*
X43158649Y-109910001D01*
X47538647Y-109313999D02*
X47538647Y-110510001D01*
X51294776Y-112675000D02*
X49219776Y-110600000D01*
X49219776Y-110600000D02*
X47448648Y-110600000D01*
D26*
%TO.N,Board_14-SHIELD*%
X33948648Y-111875000D02*
X29973648Y-111875000D01*
X33086148Y-112012500D02*
X32948648Y-111875000D01*
X34948648Y-112012500D02*
X33086148Y-112012500D01*
D27*
%TO.N,Board_14-Net-(J1-Pad4)*%
X41411799Y-112074990D02*
X40645497Y-112074990D01*
X46748648Y-109825000D02*
X46748648Y-109900000D01*
X39123648Y-112100000D02*
X38748648Y-111725000D01*
X40620487Y-112100000D02*
X39123648Y-112100000D01*
X43548648Y-112100000D02*
X41436809Y-112100000D01*
X46598648Y-109675000D02*
X46748648Y-109825000D01*
X46598648Y-108205000D02*
X46598648Y-109675000D01*
%TO.N,Board_14-Net-(J1-Pad10)*%
X37673648Y-111000000D02*
X36948648Y-111725000D01*
X42348648Y-111000000D02*
X37673648Y-111000000D01*
X43748649Y-109300001D02*
X44148648Y-109700000D01*
X43748649Y-109196879D02*
X43748649Y-109300001D01*
X43598648Y-109046878D02*
X43748649Y-109196879D01*
X43598648Y-108205000D02*
X43598648Y-109046878D01*
D28*
%TO.N,Board_14-GND*%
X61748648Y-108800000D02*
X60648648Y-108800000D01*
X60248648Y-110700000D02*
X60248648Y-109200000D01*
X60248648Y-109200000D02*
X60648648Y-108800000D01*
D25*
X42553648Y-106700000D02*
X43548648Y-106700000D01*
X42123648Y-107130000D02*
X42553648Y-106700000D01*
X48573648Y-108205000D02*
X49183658Y-107594990D01*
X49183658Y-107594990D02*
X50768628Y-107594990D01*
X42123648Y-108205000D02*
X42123648Y-107130000D01*
X50768628Y-107594990D02*
X50948648Y-107775010D01*
D27*
%TO.N,Board_14-D-*%
X57445094Y-107050000D02*
X46335058Y-107050000D01*
X58698648Y-111400000D02*
X58698648Y-108303554D01*
X58448648Y-111650000D02*
X58698648Y-111400000D01*
X58698648Y-108303554D02*
X57445094Y-107050000D01*
X58448648Y-112675000D02*
X58448648Y-111650000D01*
X46335058Y-107050000D02*
X46098648Y-107286410D01*
X46098648Y-107286410D02*
X46098648Y-108205000D01*
X45098648Y-109165002D02*
X45098648Y-108205000D01*
X45188647Y-109255001D02*
X45098648Y-109165002D01*
X46098648Y-109165002D02*
X46008649Y-109255001D01*
X46098648Y-108205000D02*
X46098648Y-109165002D01*
X46008649Y-109255001D02*
X45188647Y-109255001D01*
%TO.N,Board_14-D+*%
X46148648Y-106600000D02*
X57702202Y-106600000D01*
X59198648Y-108096446D02*
X59198648Y-111262499D01*
X59198648Y-111262499D02*
X59448648Y-111512499D01*
X45598648Y-108205000D02*
X45598648Y-107150000D01*
X45598648Y-107150000D02*
X46148648Y-106600000D01*
X59448648Y-111512499D02*
X59448648Y-112675000D01*
X57702202Y-106600000D02*
X59198648Y-108096446D01*
X44688647Y-107154999D02*
X44598648Y-107244998D01*
X45508649Y-107154999D02*
X44688647Y-107154999D01*
X44598648Y-107244998D02*
X44598648Y-108205000D01*
X45598648Y-107244998D02*
X45508649Y-107154999D01*
X45598648Y-108205000D02*
X45598648Y-107244998D01*
D25*
%TO.N,Board_13-VCC*%
X107148648Y-100975000D02*
X105706648Y-100975000D01*
X105706648Y-100975000D02*
X104894776Y-100975000D01*
X100994776Y-100975000D02*
X105706648Y-100975000D01*
X97498648Y-97353998D02*
X97238647Y-97613999D01*
X92858649Y-97613999D02*
X92598648Y-97353998D01*
X96548648Y-98900000D02*
X93548648Y-98900000D01*
X97238647Y-98810001D02*
X97148648Y-98900000D01*
X92858649Y-98210001D02*
X92858649Y-97613999D01*
X92598648Y-97353998D02*
X92598648Y-96505000D01*
X97498648Y-96505000D02*
X97498648Y-97353998D01*
X97148648Y-98900000D02*
X96548648Y-98900000D01*
X93548648Y-98900000D02*
X92858649Y-98210001D01*
X97238647Y-97613999D02*
X97238647Y-98810001D01*
X100994776Y-100975000D02*
X98919776Y-98900000D01*
X98919776Y-98900000D02*
X97148648Y-98900000D01*
D26*
%TO.N,Board_13-SHIELD*%
X83648648Y-100175000D02*
X79673648Y-100175000D01*
X82786148Y-100312500D02*
X82648648Y-100175000D01*
X84648648Y-100312500D02*
X82786148Y-100312500D01*
D27*
%TO.N,Board_13-Net-(J1-Pad4)*%
X91111799Y-100374990D02*
X90345497Y-100374990D01*
X96448648Y-98125000D02*
X96448648Y-98200000D01*
X88823648Y-100400000D02*
X88448648Y-100025000D01*
X90320487Y-100400000D02*
X88823648Y-100400000D01*
X93248648Y-100400000D02*
X91136809Y-100400000D01*
X96298648Y-97975000D02*
X96448648Y-98125000D01*
X96298648Y-96505000D02*
X96298648Y-97975000D01*
%TO.N,Board_13-Net-(J1-Pad10)*%
X87373648Y-99300000D02*
X86648648Y-100025000D01*
X92048648Y-99300000D02*
X87373648Y-99300000D01*
X93448649Y-97600001D02*
X93848648Y-98000000D01*
X93448649Y-97496879D02*
X93448649Y-97600001D01*
X93298648Y-97346878D02*
X93448649Y-97496879D01*
X93298648Y-96505000D02*
X93298648Y-97346878D01*
D28*
%TO.N,Board_13-GND*%
X109948648Y-97500000D02*
X110348648Y-97100000D01*
X109948648Y-99000000D02*
X109948648Y-97500000D01*
X111448648Y-97100000D02*
X110348648Y-97100000D01*
D25*
X92253648Y-95000000D02*
X93248648Y-95000000D01*
X91823648Y-95430000D02*
X92253648Y-95000000D01*
X98273648Y-96505000D02*
X98883658Y-95894990D01*
X98883658Y-95894990D02*
X100468628Y-95894990D01*
X91823648Y-96505000D02*
X91823648Y-95430000D01*
X100468628Y-95894990D02*
X100648648Y-96075010D01*
D27*
%TO.N,Board_13-D-*%
X108398648Y-99700000D02*
X108398648Y-96603554D01*
X107145094Y-95350000D02*
X96035058Y-95350000D01*
X95798648Y-95586410D02*
X95798648Y-96505000D01*
X96035058Y-95350000D02*
X95798648Y-95586410D01*
X108148648Y-99950000D02*
X108398648Y-99700000D01*
X108398648Y-96603554D02*
X107145094Y-95350000D01*
X108148648Y-100975000D02*
X108148648Y-99950000D01*
X94798648Y-97465002D02*
X94798648Y-96505000D01*
X94888647Y-97555001D02*
X94798648Y-97465002D01*
X95798648Y-97465002D02*
X95708649Y-97555001D01*
X95798648Y-96505000D02*
X95798648Y-97465002D01*
X95708649Y-97555001D02*
X94888647Y-97555001D01*
%TO.N,Board_13-D+*%
X95298648Y-95450000D02*
X95848648Y-94900000D01*
X108898648Y-96396446D02*
X108898648Y-99562499D01*
X108898648Y-99562499D02*
X109148648Y-99812499D01*
X109148648Y-99812499D02*
X109148648Y-100975000D01*
X95298648Y-96505000D02*
X95298648Y-95450000D01*
X107402202Y-94900000D02*
X108898648Y-96396446D01*
X95848648Y-94900000D02*
X107402202Y-94900000D01*
X94388647Y-95454999D02*
X94298648Y-95544998D01*
X95208649Y-95454999D02*
X94388647Y-95454999D01*
X94298648Y-95544998D02*
X94298648Y-96505000D01*
X95298648Y-95544998D02*
X95208649Y-95454999D01*
X95298648Y-96505000D02*
X95298648Y-95544998D01*
D25*
%TO.N,Board_12-VCC*%
X57448648Y-100975000D02*
X56006648Y-100975000D01*
X51294776Y-100975000D02*
X56006648Y-100975000D01*
X56006648Y-100975000D02*
X55194776Y-100975000D01*
X47798648Y-97353998D02*
X47538647Y-97613999D01*
X43158649Y-97613999D02*
X42898648Y-97353998D01*
X46848648Y-98900000D02*
X43848648Y-98900000D01*
X47538647Y-98810001D02*
X47448648Y-98900000D01*
X43158649Y-98210001D02*
X43158649Y-97613999D01*
X42898648Y-97353998D02*
X42898648Y-96505000D01*
X47798648Y-96505000D02*
X47798648Y-97353998D01*
X47448648Y-98900000D02*
X46848648Y-98900000D01*
X43848648Y-98900000D02*
X43158649Y-98210001D01*
X47538647Y-97613999D02*
X47538647Y-98810001D01*
X51294776Y-100975000D02*
X49219776Y-98900000D01*
X49219776Y-98900000D02*
X47448648Y-98900000D01*
D26*
%TO.N,Board_12-SHIELD*%
X33948648Y-100175000D02*
X29973648Y-100175000D01*
X33086148Y-100312500D02*
X32948648Y-100175000D01*
X34948648Y-100312500D02*
X33086148Y-100312500D01*
D27*
%TO.N,Board_12-Net-(J1-Pad4)*%
X41411799Y-100374990D02*
X40645497Y-100374990D01*
X46748648Y-98125000D02*
X46748648Y-98200000D01*
X39123648Y-100400000D02*
X38748648Y-100025000D01*
X40620487Y-100400000D02*
X39123648Y-100400000D01*
X43548648Y-100400000D02*
X41436809Y-100400000D01*
X46598648Y-97975000D02*
X46748648Y-98125000D01*
X46598648Y-96505000D02*
X46598648Y-97975000D01*
%TO.N,Board_12-Net-(J1-Pad10)*%
X37673648Y-99300000D02*
X36948648Y-100025000D01*
X42348648Y-99300000D02*
X37673648Y-99300000D01*
X43748649Y-97600001D02*
X44148648Y-98000000D01*
X43748649Y-97496879D02*
X43748649Y-97600001D01*
X43598648Y-97346878D02*
X43748649Y-97496879D01*
X43598648Y-96505000D02*
X43598648Y-97346878D01*
D28*
%TO.N,Board_12-GND*%
X60248648Y-97500000D02*
X60648648Y-97100000D01*
X60248648Y-99000000D02*
X60248648Y-97500000D01*
X61748648Y-97100000D02*
X60648648Y-97100000D01*
D25*
X42553648Y-95000000D02*
X43548648Y-95000000D01*
X42123648Y-95430000D02*
X42553648Y-95000000D01*
X48573648Y-96505000D02*
X49183658Y-95894990D01*
X49183658Y-95894990D02*
X50768628Y-95894990D01*
X42123648Y-96505000D02*
X42123648Y-95430000D01*
X50768628Y-95894990D02*
X50948648Y-96075010D01*
D27*
%TO.N,Board_12-D-*%
X58448648Y-99950000D02*
X58698648Y-99700000D01*
X46098648Y-95586410D02*
X46098648Y-96505000D01*
X58698648Y-99700000D02*
X58698648Y-96603554D01*
X58448648Y-100975000D02*
X58448648Y-99950000D01*
X58698648Y-96603554D02*
X57445094Y-95350000D01*
X57445094Y-95350000D02*
X46335058Y-95350000D01*
X46335058Y-95350000D02*
X46098648Y-95586410D01*
X45098648Y-97465002D02*
X45098648Y-96505000D01*
X45188647Y-97555001D02*
X45098648Y-97465002D01*
X46098648Y-97465002D02*
X46008649Y-97555001D01*
X46098648Y-96505000D02*
X46098648Y-97465002D01*
X46008649Y-97555001D02*
X45188647Y-97555001D01*
%TO.N,Board_12-D+*%
X45598648Y-95450000D02*
X46148648Y-94900000D01*
X59198648Y-96396446D02*
X59198648Y-99562499D01*
X45598648Y-96505000D02*
X45598648Y-95450000D01*
X59448648Y-99812499D02*
X59448648Y-100975000D01*
X59198648Y-99562499D02*
X59448648Y-99812499D01*
X57702202Y-94900000D02*
X59198648Y-96396446D01*
X46148648Y-94900000D02*
X57702202Y-94900000D01*
X44688647Y-95454999D02*
X44598648Y-95544998D01*
X45508649Y-95454999D02*
X44688647Y-95454999D01*
X44598648Y-95544998D02*
X44598648Y-96505000D01*
X45598648Y-95544998D02*
X45508649Y-95454999D01*
X45598648Y-96505000D02*
X45598648Y-95544998D01*
D25*
%TO.N,Board_11-VCC*%
X107148648Y-89275000D02*
X105706648Y-89275000D01*
X100994776Y-89275000D02*
X105706648Y-89275000D01*
X105706648Y-89275000D02*
X104894776Y-89275000D01*
X97498648Y-85653998D02*
X97238647Y-85913999D01*
X92858649Y-85913999D02*
X92598648Y-85653998D01*
X96548648Y-87200000D02*
X93548648Y-87200000D01*
X97238647Y-87110001D02*
X97148648Y-87200000D01*
X92858649Y-86510001D02*
X92858649Y-85913999D01*
X92598648Y-85653998D02*
X92598648Y-84805000D01*
X97498648Y-84805000D02*
X97498648Y-85653998D01*
X97148648Y-87200000D02*
X96548648Y-87200000D01*
X93548648Y-87200000D02*
X92858649Y-86510001D01*
X97238647Y-85913999D02*
X97238647Y-87110001D01*
X100994776Y-89275000D02*
X98919776Y-87200000D01*
X98919776Y-87200000D02*
X97148648Y-87200000D01*
D26*
%TO.N,Board_11-SHIELD*%
X83648648Y-88475000D02*
X79673648Y-88475000D01*
X82786148Y-88612500D02*
X82648648Y-88475000D01*
X84648648Y-88612500D02*
X82786148Y-88612500D01*
D27*
%TO.N,Board_11-Net-(J1-Pad4)*%
X91111799Y-88674990D02*
X90345497Y-88674990D01*
X96448648Y-86425000D02*
X96448648Y-86500000D01*
X88823648Y-88700000D02*
X88448648Y-88325000D01*
X90320487Y-88700000D02*
X88823648Y-88700000D01*
X93248648Y-88700000D02*
X91136809Y-88700000D01*
X96298648Y-86275000D02*
X96448648Y-86425000D01*
X96298648Y-84805000D02*
X96298648Y-86275000D01*
%TO.N,Board_11-Net-(J1-Pad10)*%
X87373648Y-87600000D02*
X86648648Y-88325000D01*
X92048648Y-87600000D02*
X87373648Y-87600000D01*
X93448649Y-85900001D02*
X93848648Y-86300000D01*
X93448649Y-85796879D02*
X93448649Y-85900001D01*
X93298648Y-85646878D02*
X93448649Y-85796879D01*
X93298648Y-84805000D02*
X93298648Y-85646878D01*
D28*
%TO.N,Board_11-GND*%
X109948648Y-87300000D02*
X109948648Y-85800000D01*
X111448648Y-85400000D02*
X110348648Y-85400000D01*
X109948648Y-85800000D02*
X110348648Y-85400000D01*
D25*
X92253648Y-83300000D02*
X93248648Y-83300000D01*
X91823648Y-83730000D02*
X92253648Y-83300000D01*
X98273648Y-84805000D02*
X98883658Y-84194990D01*
X98883658Y-84194990D02*
X100468628Y-84194990D01*
X91823648Y-84805000D02*
X91823648Y-83730000D01*
X100468628Y-84194990D02*
X100648648Y-84375010D01*
D27*
%TO.N,Board_11-D-*%
X96035058Y-83650000D02*
X95798648Y-83886410D01*
X108148648Y-89275000D02*
X108148648Y-88250000D01*
X107145094Y-83650000D02*
X96035058Y-83650000D01*
X108148648Y-88250000D02*
X108398648Y-88000000D01*
X95798648Y-83886410D02*
X95798648Y-84805000D01*
X108398648Y-88000000D02*
X108398648Y-84903554D01*
X108398648Y-84903554D02*
X107145094Y-83650000D01*
X94798648Y-85765002D02*
X94798648Y-84805000D01*
X94888647Y-85855001D02*
X94798648Y-85765002D01*
X95798648Y-85765002D02*
X95708649Y-85855001D01*
X95798648Y-84805000D02*
X95798648Y-85765002D01*
X95708649Y-85855001D02*
X94888647Y-85855001D01*
%TO.N,Board_11-D+*%
X95298648Y-84805000D02*
X95298648Y-83750000D01*
X95848648Y-83200000D02*
X107402202Y-83200000D01*
X108898648Y-84696446D02*
X108898648Y-87862499D01*
X95298648Y-83750000D02*
X95848648Y-83200000D01*
X107402202Y-83200000D02*
X108898648Y-84696446D01*
X109148648Y-88112499D02*
X109148648Y-89275000D01*
X108898648Y-87862499D02*
X109148648Y-88112499D01*
X94388647Y-83754999D02*
X94298648Y-83844998D01*
X95208649Y-83754999D02*
X94388647Y-83754999D01*
X94298648Y-83844998D02*
X94298648Y-84805000D01*
X95298648Y-83844998D02*
X95208649Y-83754999D01*
X95298648Y-84805000D02*
X95298648Y-83844998D01*
D25*
%TO.N,Board_10-VCC*%
X56006648Y-89275000D02*
X55194776Y-89275000D01*
X51294776Y-89275000D02*
X56006648Y-89275000D01*
X57448648Y-89275000D02*
X56006648Y-89275000D01*
X47798648Y-85653998D02*
X47538647Y-85913999D01*
X43158649Y-85913999D02*
X42898648Y-85653998D01*
X46848648Y-87200000D02*
X43848648Y-87200000D01*
X47538647Y-87110001D02*
X47448648Y-87200000D01*
X43158649Y-86510001D02*
X43158649Y-85913999D01*
X42898648Y-85653998D02*
X42898648Y-84805000D01*
X47798648Y-84805000D02*
X47798648Y-85653998D01*
X47448648Y-87200000D02*
X46848648Y-87200000D01*
X43848648Y-87200000D02*
X43158649Y-86510001D01*
X47538647Y-85913999D02*
X47538647Y-87110001D01*
X51294776Y-89275000D02*
X49219776Y-87200000D01*
X49219776Y-87200000D02*
X47448648Y-87200000D01*
D26*
%TO.N,Board_10-SHIELD*%
X33948648Y-88475000D02*
X29973648Y-88475000D01*
X33086148Y-88612500D02*
X32948648Y-88475000D01*
X34948648Y-88612500D02*
X33086148Y-88612500D01*
D27*
%TO.N,Board_10-Net-(J1-Pad4)*%
X41411799Y-88674990D02*
X40645497Y-88674990D01*
X46748648Y-86425000D02*
X46748648Y-86500000D01*
X39123648Y-88700000D02*
X38748648Y-88325000D01*
X40620487Y-88700000D02*
X39123648Y-88700000D01*
X43548648Y-88700000D02*
X41436809Y-88700000D01*
X46598648Y-86275000D02*
X46748648Y-86425000D01*
X46598648Y-84805000D02*
X46598648Y-86275000D01*
%TO.N,Board_10-Net-(J1-Pad10)*%
X37673648Y-87600000D02*
X36948648Y-88325000D01*
X42348648Y-87600000D02*
X37673648Y-87600000D01*
X43748649Y-85900001D02*
X44148648Y-86300000D01*
X43748649Y-85796879D02*
X43748649Y-85900001D01*
X43598648Y-85646878D02*
X43748649Y-85796879D01*
X43598648Y-84805000D02*
X43598648Y-85646878D01*
D28*
%TO.N,Board_10-GND*%
X60248648Y-85800000D02*
X60648648Y-85400000D01*
X60248648Y-87300000D02*
X60248648Y-85800000D01*
X61748648Y-85400000D02*
X60648648Y-85400000D01*
D25*
X42553648Y-83300000D02*
X43548648Y-83300000D01*
X42123648Y-83730000D02*
X42553648Y-83300000D01*
X48573648Y-84805000D02*
X49183658Y-84194990D01*
X49183658Y-84194990D02*
X50768628Y-84194990D01*
X42123648Y-84805000D02*
X42123648Y-83730000D01*
X50768628Y-84194990D02*
X50948648Y-84375010D01*
D27*
%TO.N,Board_10-D-*%
X58698648Y-84903554D02*
X57445094Y-83650000D01*
X58448648Y-89275000D02*
X58448648Y-88250000D01*
X46335058Y-83650000D02*
X46098648Y-83886410D01*
X46098648Y-83886410D02*
X46098648Y-84805000D01*
X58698648Y-88000000D02*
X58698648Y-84903554D01*
X57445094Y-83650000D02*
X46335058Y-83650000D01*
X58448648Y-88250000D02*
X58698648Y-88000000D01*
X45098648Y-85765002D02*
X45098648Y-84805000D01*
X45188647Y-85855001D02*
X45098648Y-85765002D01*
X46098648Y-85765002D02*
X46008649Y-85855001D01*
X46098648Y-84805000D02*
X46098648Y-85765002D01*
X46008649Y-85855001D02*
X45188647Y-85855001D01*
%TO.N,Board_10-D+*%
X59448648Y-88112499D02*
X59448648Y-89275000D01*
X59198648Y-84696446D02*
X59198648Y-87862499D01*
X59198648Y-87862499D02*
X59448648Y-88112499D01*
X45598648Y-84805000D02*
X45598648Y-83750000D01*
X45598648Y-83750000D02*
X46148648Y-83200000D01*
X57702202Y-83200000D02*
X59198648Y-84696446D01*
X46148648Y-83200000D02*
X57702202Y-83200000D01*
X44688647Y-83754999D02*
X44598648Y-83844998D01*
X45508649Y-83754999D02*
X44688647Y-83754999D01*
X44598648Y-83844998D02*
X44598648Y-84805000D01*
X45598648Y-83844998D02*
X45508649Y-83754999D01*
X45598648Y-84805000D02*
X45598648Y-83844998D01*
D25*
%TO.N,Board_9-VCC*%
X107148648Y-77575000D02*
X105706648Y-77575000D01*
X100994776Y-77575000D02*
X105706648Y-77575000D01*
X105706648Y-77575000D02*
X104894776Y-77575000D01*
X97498648Y-73953998D02*
X97238647Y-74213999D01*
X92858649Y-74213999D02*
X92598648Y-73953998D01*
X96548648Y-75500000D02*
X93548648Y-75500000D01*
X97238647Y-75410001D02*
X97148648Y-75500000D01*
X92858649Y-74810001D02*
X92858649Y-74213999D01*
X92598648Y-73953998D02*
X92598648Y-73105000D01*
X97498648Y-73105000D02*
X97498648Y-73953998D01*
X97148648Y-75500000D02*
X96548648Y-75500000D01*
X93548648Y-75500000D02*
X92858649Y-74810001D01*
X97238647Y-74213999D02*
X97238647Y-75410001D01*
X100994776Y-77575000D02*
X98919776Y-75500000D01*
X98919776Y-75500000D02*
X97148648Y-75500000D01*
D26*
%TO.N,Board_9-SHIELD*%
X83648648Y-76775000D02*
X79673648Y-76775000D01*
X82786148Y-76912500D02*
X82648648Y-76775000D01*
X84648648Y-76912500D02*
X82786148Y-76912500D01*
D27*
%TO.N,Board_9-Net-(J1-Pad4)*%
X91111799Y-76974990D02*
X90345497Y-76974990D01*
X96448648Y-74725000D02*
X96448648Y-74800000D01*
X88823648Y-77000000D02*
X88448648Y-76625000D01*
X90320487Y-77000000D02*
X88823648Y-77000000D01*
X93248648Y-77000000D02*
X91136809Y-77000000D01*
X96298648Y-74575000D02*
X96448648Y-74725000D01*
X96298648Y-73105000D02*
X96298648Y-74575000D01*
%TO.N,Board_9-Net-(J1-Pad10)*%
X87373648Y-75900000D02*
X86648648Y-76625000D01*
X92048648Y-75900000D02*
X87373648Y-75900000D01*
X93448649Y-74200001D02*
X93848648Y-74600000D01*
X93448649Y-74096879D02*
X93448649Y-74200001D01*
X93298648Y-73946878D02*
X93448649Y-74096879D01*
X93298648Y-73105000D02*
X93298648Y-73946878D01*
D28*
%TO.N,Board_9-GND*%
X109948648Y-75600000D02*
X109948648Y-74100000D01*
X109948648Y-74100000D02*
X110348648Y-73700000D01*
X111448648Y-73700000D02*
X110348648Y-73700000D01*
D25*
X92253648Y-71600000D02*
X93248648Y-71600000D01*
X91823648Y-72030000D02*
X92253648Y-71600000D01*
X98273648Y-73105000D02*
X98883658Y-72494990D01*
X98883658Y-72494990D02*
X100468628Y-72494990D01*
X91823648Y-73105000D02*
X91823648Y-72030000D01*
X100468628Y-72494990D02*
X100648648Y-72675010D01*
D27*
%TO.N,Board_9-D-*%
X96035058Y-71950000D02*
X95798648Y-72186410D01*
X108148648Y-76550000D02*
X108398648Y-76300000D01*
X108398648Y-73203554D02*
X107145094Y-71950000D01*
X107145094Y-71950000D02*
X96035058Y-71950000D01*
X95798648Y-72186410D02*
X95798648Y-73105000D01*
X108148648Y-77575000D02*
X108148648Y-76550000D01*
X108398648Y-76300000D02*
X108398648Y-73203554D01*
X94798648Y-74065002D02*
X94798648Y-73105000D01*
X94888647Y-74155001D02*
X94798648Y-74065002D01*
X95798648Y-74065002D02*
X95708649Y-74155001D01*
X95798648Y-73105000D02*
X95798648Y-74065002D01*
X95708649Y-74155001D02*
X94888647Y-74155001D01*
%TO.N,Board_9-D+*%
X95298648Y-73105000D02*
X95298648Y-72050000D01*
X108898648Y-72996446D02*
X108898648Y-76162499D01*
X107402202Y-71500000D02*
X108898648Y-72996446D01*
X109148648Y-76412499D02*
X109148648Y-77575000D01*
X108898648Y-76162499D02*
X109148648Y-76412499D01*
X95848648Y-71500000D02*
X107402202Y-71500000D01*
X95298648Y-72050000D02*
X95848648Y-71500000D01*
X94388647Y-72054999D02*
X94298648Y-72144998D01*
X95208649Y-72054999D02*
X94388647Y-72054999D01*
X94298648Y-72144998D02*
X94298648Y-73105000D01*
X95298648Y-72144998D02*
X95208649Y-72054999D01*
X95298648Y-73105000D02*
X95298648Y-72144998D01*
D25*
%TO.N,Board_8-VCC*%
X51294776Y-77575000D02*
X56006648Y-77575000D01*
X56006648Y-77575000D02*
X55194776Y-77575000D01*
X57448648Y-77575000D02*
X56006648Y-77575000D01*
X47798648Y-73953998D02*
X47538647Y-74213999D01*
X43158649Y-74213999D02*
X42898648Y-73953998D01*
X46848648Y-75500000D02*
X43848648Y-75500000D01*
X47538647Y-75410001D02*
X47448648Y-75500000D01*
X43158649Y-74810001D02*
X43158649Y-74213999D01*
X42898648Y-73953998D02*
X42898648Y-73105000D01*
X47798648Y-73105000D02*
X47798648Y-73953998D01*
X47448648Y-75500000D02*
X46848648Y-75500000D01*
X43848648Y-75500000D02*
X43158649Y-74810001D01*
X47538647Y-74213999D02*
X47538647Y-75410001D01*
X51294776Y-77575000D02*
X49219776Y-75500000D01*
X49219776Y-75500000D02*
X47448648Y-75500000D01*
D26*
%TO.N,Board_8-SHIELD*%
X33948648Y-76775000D02*
X29973648Y-76775000D01*
X33086148Y-76912500D02*
X32948648Y-76775000D01*
X34948648Y-76912500D02*
X33086148Y-76912500D01*
D27*
%TO.N,Board_8-Net-(J1-Pad4)*%
X41411799Y-76974990D02*
X40645497Y-76974990D01*
X46748648Y-74725000D02*
X46748648Y-74800000D01*
X39123648Y-77000000D02*
X38748648Y-76625000D01*
X40620487Y-77000000D02*
X39123648Y-77000000D01*
X43548648Y-77000000D02*
X41436809Y-77000000D01*
X46598648Y-74575000D02*
X46748648Y-74725000D01*
X46598648Y-73105000D02*
X46598648Y-74575000D01*
%TO.N,Board_8-Net-(J1-Pad10)*%
X37673648Y-75900000D02*
X36948648Y-76625000D01*
X42348648Y-75900000D02*
X37673648Y-75900000D01*
X43748649Y-74200001D02*
X44148648Y-74600000D01*
X43748649Y-74096879D02*
X43748649Y-74200001D01*
X43598648Y-73946878D02*
X43748649Y-74096879D01*
X43598648Y-73105000D02*
X43598648Y-73946878D01*
D28*
%TO.N,Board_8-GND*%
X60248648Y-74100000D02*
X60648648Y-73700000D01*
X60248648Y-75600000D02*
X60248648Y-74100000D01*
X61748648Y-73700000D02*
X60648648Y-73700000D01*
D25*
X42553648Y-71600000D02*
X43548648Y-71600000D01*
X42123648Y-72030000D02*
X42553648Y-71600000D01*
X48573648Y-73105000D02*
X49183658Y-72494990D01*
X49183658Y-72494990D02*
X50768628Y-72494990D01*
X42123648Y-73105000D02*
X42123648Y-72030000D01*
X50768628Y-72494990D02*
X50948648Y-72675010D01*
D27*
%TO.N,Board_8-D-*%
X58698648Y-76300000D02*
X58698648Y-73203554D01*
X58698648Y-73203554D02*
X57445094Y-71950000D01*
X58448648Y-77575000D02*
X58448648Y-76550000D01*
X46335058Y-71950000D02*
X46098648Y-72186410D01*
X58448648Y-76550000D02*
X58698648Y-76300000D01*
X57445094Y-71950000D02*
X46335058Y-71950000D01*
X46098648Y-72186410D02*
X46098648Y-73105000D01*
X45098648Y-74065002D02*
X45098648Y-73105000D01*
X45188647Y-74155001D02*
X45098648Y-74065002D01*
X46098648Y-74065002D02*
X46008649Y-74155001D01*
X46098648Y-73105000D02*
X46098648Y-74065002D01*
X46008649Y-74155001D02*
X45188647Y-74155001D01*
%TO.N,Board_8-D+*%
X45598648Y-73105000D02*
X45598648Y-72050000D01*
X57702202Y-71500000D02*
X59198648Y-72996446D01*
X59198648Y-72996446D02*
X59198648Y-76162499D01*
X59198648Y-76162499D02*
X59448648Y-76412499D01*
X45598648Y-72050000D02*
X46148648Y-71500000D01*
X59448648Y-76412499D02*
X59448648Y-77575000D01*
X46148648Y-71500000D02*
X57702202Y-71500000D01*
X44688647Y-72054999D02*
X44598648Y-72144998D01*
X45508649Y-72054999D02*
X44688647Y-72054999D01*
X44598648Y-72144998D02*
X44598648Y-73105000D01*
X45598648Y-72144998D02*
X45508649Y-72054999D01*
X45598648Y-73105000D02*
X45598648Y-72144998D01*
D25*
%TO.N,Board_7-VCC*%
X107148648Y-65875000D02*
X105706648Y-65875000D01*
X105706648Y-65875000D02*
X104894776Y-65875000D01*
X100994776Y-65875000D02*
X105706648Y-65875000D01*
X97498648Y-62253998D02*
X97238647Y-62513999D01*
X92858649Y-62513999D02*
X92598648Y-62253998D01*
X96548648Y-63800000D02*
X93548648Y-63800000D01*
X97238647Y-63710001D02*
X97148648Y-63800000D01*
X92858649Y-63110001D02*
X92858649Y-62513999D01*
X92598648Y-62253998D02*
X92598648Y-61405000D01*
X97498648Y-61405000D02*
X97498648Y-62253998D01*
X97148648Y-63800000D02*
X96548648Y-63800000D01*
X93548648Y-63800000D02*
X92858649Y-63110001D01*
X97238647Y-62513999D02*
X97238647Y-63710001D01*
X100994776Y-65875000D02*
X98919776Y-63800000D01*
X98919776Y-63800000D02*
X97148648Y-63800000D01*
D26*
%TO.N,Board_7-SHIELD*%
X83648648Y-65075000D02*
X79673648Y-65075000D01*
X82786148Y-65212500D02*
X82648648Y-65075000D01*
X84648648Y-65212500D02*
X82786148Y-65212500D01*
D27*
%TO.N,Board_7-Net-(J1-Pad4)*%
X91111799Y-65274990D02*
X90345497Y-65274990D01*
X96448648Y-63025000D02*
X96448648Y-63100000D01*
X88823648Y-65300000D02*
X88448648Y-64925000D01*
X90320487Y-65300000D02*
X88823648Y-65300000D01*
X93248648Y-65300000D02*
X91136809Y-65300000D01*
X96298648Y-62875000D02*
X96448648Y-63025000D01*
X96298648Y-61405000D02*
X96298648Y-62875000D01*
%TO.N,Board_7-Net-(J1-Pad10)*%
X87373648Y-64200000D02*
X86648648Y-64925000D01*
X92048648Y-64200000D02*
X87373648Y-64200000D01*
X93448649Y-62500001D02*
X93848648Y-62900000D01*
X93448649Y-62396879D02*
X93448649Y-62500001D01*
X93298648Y-62246878D02*
X93448649Y-62396879D01*
X93298648Y-61405000D02*
X93298648Y-62246878D01*
D28*
%TO.N,Board_7-GND*%
X109948648Y-63900000D02*
X109948648Y-62400000D01*
X109948648Y-62400000D02*
X110348648Y-62000000D01*
X111448648Y-62000000D02*
X110348648Y-62000000D01*
D25*
X92253648Y-59900000D02*
X93248648Y-59900000D01*
X91823648Y-60330000D02*
X92253648Y-59900000D01*
X98273648Y-61405000D02*
X98883658Y-60794990D01*
X98883658Y-60794990D02*
X100468628Y-60794990D01*
X91823648Y-61405000D02*
X91823648Y-60330000D01*
X100468628Y-60794990D02*
X100648648Y-60975010D01*
D27*
%TO.N,Board_7-D-*%
X108398648Y-61503554D02*
X107145094Y-60250000D01*
X107145094Y-60250000D02*
X96035058Y-60250000D01*
X108148648Y-64850000D02*
X108398648Y-64600000D01*
X95798648Y-60486410D02*
X95798648Y-61405000D01*
X108148648Y-65875000D02*
X108148648Y-64850000D01*
X96035058Y-60250000D02*
X95798648Y-60486410D01*
X108398648Y-64600000D02*
X108398648Y-61503554D01*
X94798648Y-62365002D02*
X94798648Y-61405000D01*
X94888647Y-62455001D02*
X94798648Y-62365002D01*
X95798648Y-62365002D02*
X95708649Y-62455001D01*
X95798648Y-61405000D02*
X95798648Y-62365002D01*
X95708649Y-62455001D02*
X94888647Y-62455001D01*
%TO.N,Board_7-D+*%
X108898648Y-64462499D02*
X109148648Y-64712499D01*
X95298648Y-60350000D02*
X95848648Y-59800000D01*
X95848648Y-59800000D02*
X107402202Y-59800000D01*
X108898648Y-61296446D02*
X108898648Y-64462499D01*
X107402202Y-59800000D02*
X108898648Y-61296446D01*
X95298648Y-61405000D02*
X95298648Y-60350000D01*
X109148648Y-64712499D02*
X109148648Y-65875000D01*
X94388647Y-60354999D02*
X94298648Y-60444998D01*
X95208649Y-60354999D02*
X94388647Y-60354999D01*
X94298648Y-60444998D02*
X94298648Y-61405000D01*
X95298648Y-60444998D02*
X95208649Y-60354999D01*
X95298648Y-61405000D02*
X95298648Y-60444998D01*
D25*
%TO.N,Board_6-VCC*%
X51294776Y-65875000D02*
X56006648Y-65875000D01*
X57448648Y-65875000D02*
X56006648Y-65875000D01*
X56006648Y-65875000D02*
X55194776Y-65875000D01*
X47798648Y-62253998D02*
X47538647Y-62513999D01*
X43158649Y-62513999D02*
X42898648Y-62253998D01*
X46848648Y-63800000D02*
X43848648Y-63800000D01*
X47538647Y-63710001D02*
X47448648Y-63800000D01*
X43158649Y-63110001D02*
X43158649Y-62513999D01*
X42898648Y-62253998D02*
X42898648Y-61405000D01*
X47798648Y-61405000D02*
X47798648Y-62253998D01*
X47448648Y-63800000D02*
X46848648Y-63800000D01*
X43848648Y-63800000D02*
X43158649Y-63110001D01*
X47538647Y-62513999D02*
X47538647Y-63710001D01*
X51294776Y-65875000D02*
X49219776Y-63800000D01*
X49219776Y-63800000D02*
X47448648Y-63800000D01*
D26*
%TO.N,Board_6-SHIELD*%
X33948648Y-65075000D02*
X29973648Y-65075000D01*
X33086148Y-65212500D02*
X32948648Y-65075000D01*
X34948648Y-65212500D02*
X33086148Y-65212500D01*
D27*
%TO.N,Board_6-Net-(J1-Pad4)*%
X41411799Y-65274990D02*
X40645497Y-65274990D01*
X46748648Y-63025000D02*
X46748648Y-63100000D01*
X39123648Y-65300000D02*
X38748648Y-64925000D01*
X40620487Y-65300000D02*
X39123648Y-65300000D01*
X43548648Y-65300000D02*
X41436809Y-65300000D01*
X46598648Y-62875000D02*
X46748648Y-63025000D01*
X46598648Y-61405000D02*
X46598648Y-62875000D01*
%TO.N,Board_6-Net-(J1-Pad10)*%
X37673648Y-64200000D02*
X36948648Y-64925000D01*
X42348648Y-64200000D02*
X37673648Y-64200000D01*
X43748649Y-62500001D02*
X44148648Y-62900000D01*
X43748649Y-62396879D02*
X43748649Y-62500001D01*
X43598648Y-62246878D02*
X43748649Y-62396879D01*
X43598648Y-61405000D02*
X43598648Y-62246878D01*
D28*
%TO.N,Board_6-GND*%
X61748648Y-62000000D02*
X60648648Y-62000000D01*
X60248648Y-63900000D02*
X60248648Y-62400000D01*
X60248648Y-62400000D02*
X60648648Y-62000000D01*
D25*
X42553648Y-59900000D02*
X43548648Y-59900000D01*
X42123648Y-60330000D02*
X42553648Y-59900000D01*
X48573648Y-61405000D02*
X49183658Y-60794990D01*
X49183658Y-60794990D02*
X50768628Y-60794990D01*
X42123648Y-61405000D02*
X42123648Y-60330000D01*
X50768628Y-60794990D02*
X50948648Y-60975010D01*
D27*
%TO.N,Board_6-D-*%
X58698648Y-64600000D02*
X58698648Y-61503554D01*
X46335058Y-60250000D02*
X46098648Y-60486410D01*
X58448648Y-64850000D02*
X58698648Y-64600000D01*
X46098648Y-60486410D02*
X46098648Y-61405000D01*
X57445094Y-60250000D02*
X46335058Y-60250000D01*
X58698648Y-61503554D02*
X57445094Y-60250000D01*
X58448648Y-65875000D02*
X58448648Y-64850000D01*
X45098648Y-62365002D02*
X45098648Y-61405000D01*
X45188647Y-62455001D02*
X45098648Y-62365002D01*
X46098648Y-62365002D02*
X46008649Y-62455001D01*
X46098648Y-61405000D02*
X46098648Y-62365002D01*
X46008649Y-62455001D02*
X45188647Y-62455001D01*
%TO.N,Board_6-D+*%
X45598648Y-61405000D02*
X45598648Y-60350000D01*
X59448648Y-64712499D02*
X59448648Y-65875000D01*
X59198648Y-61296446D02*
X59198648Y-64462499D01*
X46148648Y-59800000D02*
X57702202Y-59800000D01*
X45598648Y-60350000D02*
X46148648Y-59800000D01*
X59198648Y-64462499D02*
X59448648Y-64712499D01*
X57702202Y-59800000D02*
X59198648Y-61296446D01*
X44688647Y-60354999D02*
X44598648Y-60444998D01*
X45508649Y-60354999D02*
X44688647Y-60354999D01*
X44598648Y-60444998D02*
X44598648Y-61405000D01*
X45598648Y-60444998D02*
X45508649Y-60354999D01*
X45598648Y-61405000D02*
X45598648Y-60444998D01*
D25*
%TO.N,Board_5-VCC*%
X107148648Y-54175000D02*
X105706648Y-54175000D01*
X100994776Y-54175000D02*
X105706648Y-54175000D01*
X105706648Y-54175000D02*
X104894776Y-54175000D01*
X97498648Y-50553998D02*
X97238647Y-50813999D01*
X92858649Y-50813999D02*
X92598648Y-50553998D01*
X96548648Y-52100000D02*
X93548648Y-52100000D01*
X97238647Y-52010001D02*
X97148648Y-52100000D01*
X92858649Y-51410001D02*
X92858649Y-50813999D01*
X92598648Y-50553998D02*
X92598648Y-49705000D01*
X97498648Y-49705000D02*
X97498648Y-50553998D01*
X97148648Y-52100000D02*
X96548648Y-52100000D01*
X93548648Y-52100000D02*
X92858649Y-51410001D01*
X97238647Y-50813999D02*
X97238647Y-52010001D01*
X100994776Y-54175000D02*
X98919776Y-52100000D01*
X98919776Y-52100000D02*
X97148648Y-52100000D01*
D26*
%TO.N,Board_5-SHIELD*%
X83648648Y-53375000D02*
X79673648Y-53375000D01*
X82786148Y-53512500D02*
X82648648Y-53375000D01*
X84648648Y-53512500D02*
X82786148Y-53512500D01*
D27*
%TO.N,Board_5-Net-(J1-Pad4)*%
X91111799Y-53574990D02*
X90345497Y-53574990D01*
X96448648Y-51325000D02*
X96448648Y-51400000D01*
X88823648Y-53600000D02*
X88448648Y-53225000D01*
X90320487Y-53600000D02*
X88823648Y-53600000D01*
X93248648Y-53600000D02*
X91136809Y-53600000D01*
X96298648Y-51175000D02*
X96448648Y-51325000D01*
X96298648Y-49705000D02*
X96298648Y-51175000D01*
%TO.N,Board_5-Net-(J1-Pad10)*%
X87373648Y-52500000D02*
X86648648Y-53225000D01*
X92048648Y-52500000D02*
X87373648Y-52500000D01*
X93448649Y-50800001D02*
X93848648Y-51200000D01*
X93448649Y-50696879D02*
X93448649Y-50800001D01*
X93298648Y-50546878D02*
X93448649Y-50696879D01*
X93298648Y-49705000D02*
X93298648Y-50546878D01*
D28*
%TO.N,Board_5-GND*%
X111448648Y-50300000D02*
X110348648Y-50300000D01*
X109948648Y-52200000D02*
X109948648Y-50700000D01*
X109948648Y-50700000D02*
X110348648Y-50300000D01*
D25*
X92253648Y-48200000D02*
X93248648Y-48200000D01*
X91823648Y-48630000D02*
X92253648Y-48200000D01*
X98273648Y-49705000D02*
X98883658Y-49094990D01*
X98883658Y-49094990D02*
X100468628Y-49094990D01*
X91823648Y-49705000D02*
X91823648Y-48630000D01*
X100468628Y-49094990D02*
X100648648Y-49275010D01*
D27*
%TO.N,Board_5-D-*%
X108148648Y-54175000D02*
X108148648Y-53150000D01*
X107145094Y-48550000D02*
X96035058Y-48550000D01*
X95798648Y-48786410D02*
X95798648Y-49705000D01*
X96035058Y-48550000D02*
X95798648Y-48786410D01*
X108398648Y-52900000D02*
X108398648Y-49803554D01*
X108398648Y-49803554D02*
X107145094Y-48550000D01*
X108148648Y-53150000D02*
X108398648Y-52900000D01*
X94798648Y-50665002D02*
X94798648Y-49705000D01*
X94888647Y-50755001D02*
X94798648Y-50665002D01*
X95798648Y-50665002D02*
X95708649Y-50755001D01*
X95798648Y-49705000D02*
X95798648Y-50665002D01*
X95708649Y-50755001D02*
X94888647Y-50755001D01*
%TO.N,Board_5-D+*%
X95298648Y-49705000D02*
X95298648Y-48650000D01*
X108898648Y-49596446D02*
X108898648Y-52762499D01*
X109148648Y-53012499D02*
X109148648Y-54175000D01*
X95298648Y-48650000D02*
X95848648Y-48100000D01*
X107402202Y-48100000D02*
X108898648Y-49596446D01*
X108898648Y-52762499D02*
X109148648Y-53012499D01*
X95848648Y-48100000D02*
X107402202Y-48100000D01*
X94388647Y-48654999D02*
X94298648Y-48744998D01*
X95208649Y-48654999D02*
X94388647Y-48654999D01*
X94298648Y-48744998D02*
X94298648Y-49705000D01*
X95298648Y-48744998D02*
X95208649Y-48654999D01*
X95298648Y-49705000D02*
X95298648Y-48744998D01*
D25*
%TO.N,Board_4-VCC*%
X56006648Y-54175000D02*
X55194776Y-54175000D01*
X57448648Y-54175000D02*
X56006648Y-54175000D01*
X51294776Y-54175000D02*
X56006648Y-54175000D01*
X47798648Y-50553998D02*
X47538647Y-50813999D01*
X43158649Y-50813999D02*
X42898648Y-50553998D01*
X46848648Y-52100000D02*
X43848648Y-52100000D01*
X47538647Y-52010001D02*
X47448648Y-52100000D01*
X43158649Y-51410001D02*
X43158649Y-50813999D01*
X42898648Y-50553998D02*
X42898648Y-49705000D01*
X47798648Y-49705000D02*
X47798648Y-50553998D01*
X47448648Y-52100000D02*
X46848648Y-52100000D01*
X43848648Y-52100000D02*
X43158649Y-51410001D01*
X47538647Y-50813999D02*
X47538647Y-52010001D01*
X51294776Y-54175000D02*
X49219776Y-52100000D01*
X49219776Y-52100000D02*
X47448648Y-52100000D01*
D26*
%TO.N,Board_4-SHIELD*%
X33948648Y-53375000D02*
X29973648Y-53375000D01*
X33086148Y-53512500D02*
X32948648Y-53375000D01*
X34948648Y-53512500D02*
X33086148Y-53512500D01*
D27*
%TO.N,Board_4-Net-(J1-Pad4)*%
X41411799Y-53574990D02*
X40645497Y-53574990D01*
X46748648Y-51325000D02*
X46748648Y-51400000D01*
X39123648Y-53600000D02*
X38748648Y-53225000D01*
X40620487Y-53600000D02*
X39123648Y-53600000D01*
X43548648Y-53600000D02*
X41436809Y-53600000D01*
X46598648Y-51175000D02*
X46748648Y-51325000D01*
X46598648Y-49705000D02*
X46598648Y-51175000D01*
%TO.N,Board_4-Net-(J1-Pad10)*%
X37673648Y-52500000D02*
X36948648Y-53225000D01*
X42348648Y-52500000D02*
X37673648Y-52500000D01*
X43748649Y-50800001D02*
X44148648Y-51200000D01*
X43748649Y-50696879D02*
X43748649Y-50800001D01*
X43598648Y-50546878D02*
X43748649Y-50696879D01*
X43598648Y-49705000D02*
X43598648Y-50546878D01*
D28*
%TO.N,Board_4-GND*%
X60248648Y-50700000D02*
X60648648Y-50300000D01*
X60248648Y-52200000D02*
X60248648Y-50700000D01*
X61748648Y-50300000D02*
X60648648Y-50300000D01*
D25*
X42553648Y-48200000D02*
X43548648Y-48200000D01*
X42123648Y-48630000D02*
X42553648Y-48200000D01*
X48573648Y-49705000D02*
X49183658Y-49094990D01*
X49183658Y-49094990D02*
X50768628Y-49094990D01*
X42123648Y-49705000D02*
X42123648Y-48630000D01*
X50768628Y-49094990D02*
X50948648Y-49275010D01*
D27*
%TO.N,Board_4-D-*%
X58448648Y-53150000D02*
X58698648Y-52900000D01*
X58698648Y-52900000D02*
X58698648Y-49803554D01*
X46098648Y-48786410D02*
X46098648Y-49705000D01*
X46335058Y-48550000D02*
X46098648Y-48786410D01*
X58448648Y-54175000D02*
X58448648Y-53150000D01*
X58698648Y-49803554D02*
X57445094Y-48550000D01*
X57445094Y-48550000D02*
X46335058Y-48550000D01*
X45098648Y-50665002D02*
X45098648Y-49705000D01*
X45188647Y-50755001D02*
X45098648Y-50665002D01*
X46098648Y-50665002D02*
X46008649Y-50755001D01*
X46098648Y-49705000D02*
X46098648Y-50665002D01*
X46008649Y-50755001D02*
X45188647Y-50755001D01*
%TO.N,Board_4-D+*%
X59198648Y-52762499D02*
X59448648Y-53012499D01*
X45598648Y-48650000D02*
X46148648Y-48100000D01*
X59198648Y-49596446D02*
X59198648Y-52762499D01*
X46148648Y-48100000D02*
X57702202Y-48100000D01*
X57702202Y-48100000D02*
X59198648Y-49596446D01*
X45598648Y-49705000D02*
X45598648Y-48650000D01*
X59448648Y-53012499D02*
X59448648Y-54175000D01*
X44688647Y-48654999D02*
X44598648Y-48744998D01*
X45508649Y-48654999D02*
X44688647Y-48654999D01*
X44598648Y-48744998D02*
X44598648Y-49705000D01*
X45598648Y-48744998D02*
X45508649Y-48654999D01*
X45598648Y-49705000D02*
X45598648Y-48744998D01*
D25*
%TO.N,Board_3-VCC*%
X100994776Y-42475000D02*
X105706648Y-42475000D01*
X105706648Y-42475000D02*
X104894776Y-42475000D01*
X107148648Y-42475000D02*
X105706648Y-42475000D01*
X97498648Y-38853998D02*
X97238647Y-39113999D01*
X92858649Y-39113999D02*
X92598648Y-38853998D01*
X96548648Y-40400000D02*
X93548648Y-40400000D01*
X97238647Y-40310001D02*
X97148648Y-40400000D01*
X92858649Y-39710001D02*
X92858649Y-39113999D01*
X92598648Y-38853998D02*
X92598648Y-38005000D01*
X97498648Y-38005000D02*
X97498648Y-38853998D01*
X97148648Y-40400000D02*
X96548648Y-40400000D01*
X93548648Y-40400000D02*
X92858649Y-39710001D01*
X97238647Y-39113999D02*
X97238647Y-40310001D01*
X100994776Y-42475000D02*
X98919776Y-40400000D01*
X98919776Y-40400000D02*
X97148648Y-40400000D01*
D26*
%TO.N,Board_3-SHIELD*%
X83648648Y-41675000D02*
X79673648Y-41675000D01*
X82786148Y-41812500D02*
X82648648Y-41675000D01*
X84648648Y-41812500D02*
X82786148Y-41812500D01*
D27*
%TO.N,Board_3-Net-(J1-Pad4)*%
X91111799Y-41874990D02*
X90345497Y-41874990D01*
X96448648Y-39625000D02*
X96448648Y-39700000D01*
X88823648Y-41900000D02*
X88448648Y-41525000D01*
X90320487Y-41900000D02*
X88823648Y-41900000D01*
X93248648Y-41900000D02*
X91136809Y-41900000D01*
X96298648Y-39475000D02*
X96448648Y-39625000D01*
X96298648Y-38005000D02*
X96298648Y-39475000D01*
%TO.N,Board_3-Net-(J1-Pad10)*%
X87373648Y-40800000D02*
X86648648Y-41525000D01*
X92048648Y-40800000D02*
X87373648Y-40800000D01*
X93448649Y-39100001D02*
X93848648Y-39500000D01*
X93448649Y-38996879D02*
X93448649Y-39100001D01*
X93298648Y-38846878D02*
X93448649Y-38996879D01*
X93298648Y-38005000D02*
X93298648Y-38846878D01*
D28*
%TO.N,Board_3-GND*%
X109948648Y-40500000D02*
X109948648Y-39000000D01*
X111448648Y-38600000D02*
X110348648Y-38600000D01*
X109948648Y-39000000D02*
X110348648Y-38600000D01*
D25*
X92253648Y-36500000D02*
X93248648Y-36500000D01*
X91823648Y-36930000D02*
X92253648Y-36500000D01*
X98273648Y-38005000D02*
X98883658Y-37394990D01*
X98883658Y-37394990D02*
X100468628Y-37394990D01*
X91823648Y-38005000D02*
X91823648Y-36930000D01*
X100468628Y-37394990D02*
X100648648Y-37575010D01*
D27*
%TO.N,Board_3-D-*%
X96035058Y-36850000D02*
X95798648Y-37086410D01*
X108398648Y-41200000D02*
X108398648Y-38103554D01*
X107145094Y-36850000D02*
X96035058Y-36850000D01*
X108398648Y-38103554D02*
X107145094Y-36850000D01*
X108148648Y-41450000D02*
X108398648Y-41200000D01*
X108148648Y-42475000D02*
X108148648Y-41450000D01*
X95798648Y-37086410D02*
X95798648Y-38005000D01*
X94798648Y-38965002D02*
X94798648Y-38005000D01*
X94888647Y-39055001D02*
X94798648Y-38965002D01*
X95798648Y-38965002D02*
X95708649Y-39055001D01*
X95798648Y-38005000D02*
X95798648Y-38965002D01*
X95708649Y-39055001D02*
X94888647Y-39055001D01*
%TO.N,Board_3-D+*%
X95848648Y-36400000D02*
X107402202Y-36400000D01*
X108898648Y-41062499D02*
X109148648Y-41312499D01*
X107402202Y-36400000D02*
X108898648Y-37896446D01*
X95298648Y-36950000D02*
X95848648Y-36400000D01*
X95298648Y-38005000D02*
X95298648Y-36950000D01*
X109148648Y-41312499D02*
X109148648Y-42475000D01*
X108898648Y-37896446D02*
X108898648Y-41062499D01*
X94388647Y-36954999D02*
X94298648Y-37044998D01*
X95208649Y-36954999D02*
X94388647Y-36954999D01*
X94298648Y-37044998D02*
X94298648Y-38005000D01*
X95298648Y-37044998D02*
X95208649Y-36954999D01*
X95298648Y-38005000D02*
X95298648Y-37044998D01*
D25*
%TO.N,Board_2-VCC*%
X57448648Y-42475000D02*
X56006648Y-42475000D01*
X51294776Y-42475000D02*
X56006648Y-42475000D01*
X56006648Y-42475000D02*
X55194776Y-42475000D01*
X47798648Y-38853998D02*
X47538647Y-39113999D01*
X43158649Y-39113999D02*
X42898648Y-38853998D01*
X46848648Y-40400000D02*
X43848648Y-40400000D01*
X47538647Y-40310001D02*
X47448648Y-40400000D01*
X43158649Y-39710001D02*
X43158649Y-39113999D01*
X42898648Y-38853998D02*
X42898648Y-38005000D01*
X47798648Y-38005000D02*
X47798648Y-38853998D01*
X47448648Y-40400000D02*
X46848648Y-40400000D01*
X43848648Y-40400000D02*
X43158649Y-39710001D01*
X47538647Y-39113999D02*
X47538647Y-40310001D01*
X51294776Y-42475000D02*
X49219776Y-40400000D01*
X49219776Y-40400000D02*
X47448648Y-40400000D01*
D26*
%TO.N,Board_2-SHIELD*%
X33948648Y-41675000D02*
X29973648Y-41675000D01*
X33086148Y-41812500D02*
X32948648Y-41675000D01*
X34948648Y-41812500D02*
X33086148Y-41812500D01*
D27*
%TO.N,Board_2-Net-(J1-Pad4)*%
X41411799Y-41874990D02*
X40645497Y-41874990D01*
X46748648Y-39625000D02*
X46748648Y-39700000D01*
X39123648Y-41900000D02*
X38748648Y-41525000D01*
X40620487Y-41900000D02*
X39123648Y-41900000D01*
X43548648Y-41900000D02*
X41436809Y-41900000D01*
X46598648Y-39475000D02*
X46748648Y-39625000D01*
X46598648Y-38005000D02*
X46598648Y-39475000D01*
%TO.N,Board_2-Net-(J1-Pad10)*%
X37673648Y-40800000D02*
X36948648Y-41525000D01*
X42348648Y-40800000D02*
X37673648Y-40800000D01*
X43748649Y-39100001D02*
X44148648Y-39500000D01*
X43748649Y-38996879D02*
X43748649Y-39100001D01*
X43598648Y-38846878D02*
X43748649Y-38996879D01*
X43598648Y-38005000D02*
X43598648Y-38846878D01*
D28*
%TO.N,Board_2-GND*%
X60248648Y-39000000D02*
X60648648Y-38600000D01*
X60248648Y-40500000D02*
X60248648Y-39000000D01*
X61748648Y-38600000D02*
X60648648Y-38600000D01*
D25*
X42553648Y-36500000D02*
X43548648Y-36500000D01*
X42123648Y-36930000D02*
X42553648Y-36500000D01*
X48573648Y-38005000D02*
X49183658Y-37394990D01*
X49183658Y-37394990D02*
X50768628Y-37394990D01*
X42123648Y-38005000D02*
X42123648Y-36930000D01*
X50768628Y-37394990D02*
X50948648Y-37575010D01*
D27*
%TO.N,Board_2-D-*%
X58448648Y-42475000D02*
X58448648Y-41450000D01*
X58698648Y-38103554D02*
X57445094Y-36850000D01*
X58448648Y-41450000D02*
X58698648Y-41200000D01*
X57445094Y-36850000D02*
X46335058Y-36850000D01*
X46098648Y-37086410D02*
X46098648Y-38005000D01*
X58698648Y-41200000D02*
X58698648Y-38103554D01*
X46335058Y-36850000D02*
X46098648Y-37086410D01*
X45098648Y-38965002D02*
X45098648Y-38005000D01*
X45188647Y-39055001D02*
X45098648Y-38965002D01*
X46098648Y-38965002D02*
X46008649Y-39055001D01*
X46098648Y-38005000D02*
X46098648Y-38965002D01*
X46008649Y-39055001D02*
X45188647Y-39055001D01*
%TO.N,Board_2-D+*%
X45598648Y-38005000D02*
X45598648Y-36950000D01*
X57702202Y-36400000D02*
X59198648Y-37896446D01*
X59198648Y-41062499D02*
X59448648Y-41312499D01*
X59198648Y-37896446D02*
X59198648Y-41062499D01*
X46148648Y-36400000D02*
X57702202Y-36400000D01*
X45598648Y-36950000D02*
X46148648Y-36400000D01*
X59448648Y-41312499D02*
X59448648Y-42475000D01*
X44688647Y-36954999D02*
X44598648Y-37044998D01*
X45508649Y-36954999D02*
X44688647Y-36954999D01*
X44598648Y-37044998D02*
X44598648Y-38005000D01*
X45598648Y-37044998D02*
X45508649Y-36954999D01*
X45598648Y-38005000D02*
X45598648Y-37044998D01*
D25*
%TO.N,Board_1-VCC*%
X107148648Y-30775000D02*
X105706648Y-30775000D01*
X100994776Y-30775000D02*
X105706648Y-30775000D01*
X105706648Y-30775000D02*
X104894776Y-30775000D01*
X97498648Y-27153998D02*
X97238647Y-27413999D01*
X92858649Y-27413999D02*
X92598648Y-27153998D01*
X96548648Y-28700000D02*
X93548648Y-28700000D01*
X97238647Y-28610001D02*
X97148648Y-28700000D01*
X92858649Y-28010001D02*
X92858649Y-27413999D01*
X92598648Y-27153998D02*
X92598648Y-26305000D01*
X97498648Y-26305000D02*
X97498648Y-27153998D01*
X97148648Y-28700000D02*
X96548648Y-28700000D01*
X93548648Y-28700000D02*
X92858649Y-28010001D01*
X97238647Y-27413999D02*
X97238647Y-28610001D01*
X100994776Y-30775000D02*
X98919776Y-28700000D01*
X98919776Y-28700000D02*
X97148648Y-28700000D01*
D26*
%TO.N,Board_1-SHIELD*%
X83648648Y-29975000D02*
X79673648Y-29975000D01*
X82786148Y-30112500D02*
X82648648Y-29975000D01*
X84648648Y-30112500D02*
X82786148Y-30112500D01*
D27*
%TO.N,Board_1-Net-(J1-Pad4)*%
X91111799Y-30174990D02*
X90345497Y-30174990D01*
X96448648Y-27925000D02*
X96448648Y-28000000D01*
X88823648Y-30200000D02*
X88448648Y-29825000D01*
X90320487Y-30200000D02*
X88823648Y-30200000D01*
X93248648Y-30200000D02*
X91136809Y-30200000D01*
X96298648Y-27775000D02*
X96448648Y-27925000D01*
X96298648Y-26305000D02*
X96298648Y-27775000D01*
%TO.N,Board_1-Net-(J1-Pad10)*%
X87373648Y-29100000D02*
X86648648Y-29825000D01*
X92048648Y-29100000D02*
X87373648Y-29100000D01*
X93448649Y-27400001D02*
X93848648Y-27800000D01*
X93448649Y-27296879D02*
X93448649Y-27400001D01*
X93298648Y-27146878D02*
X93448649Y-27296879D01*
X93298648Y-26305000D02*
X93298648Y-27146878D01*
D28*
%TO.N,Board_1-GND*%
X109948648Y-27300000D02*
X110348648Y-26900000D01*
X111448648Y-26900000D02*
X110348648Y-26900000D01*
X109948648Y-28800000D02*
X109948648Y-27300000D01*
D25*
X92253648Y-24800000D02*
X93248648Y-24800000D01*
X91823648Y-25230000D02*
X92253648Y-24800000D01*
X98273648Y-26305000D02*
X98883658Y-25694990D01*
X98883658Y-25694990D02*
X100468628Y-25694990D01*
X91823648Y-26305000D02*
X91823648Y-25230000D01*
X100468628Y-25694990D02*
X100648648Y-25875010D01*
D27*
%TO.N,Board_1-D-*%
X108398648Y-29500000D02*
X108398648Y-26403554D01*
X107145094Y-25150000D02*
X96035058Y-25150000D01*
X108148648Y-30775000D02*
X108148648Y-29750000D01*
X95798648Y-25386410D02*
X95798648Y-26305000D01*
X96035058Y-25150000D02*
X95798648Y-25386410D01*
X108398648Y-26403554D02*
X107145094Y-25150000D01*
X108148648Y-29750000D02*
X108398648Y-29500000D01*
X94798648Y-27265002D02*
X94798648Y-26305000D01*
X94888647Y-27355001D02*
X94798648Y-27265002D01*
X95798648Y-27265002D02*
X95708649Y-27355001D01*
X95798648Y-26305000D02*
X95798648Y-27265002D01*
X95708649Y-27355001D02*
X94888647Y-27355001D01*
%TO.N,Board_1-D+*%
X95298648Y-25250000D02*
X95848648Y-24700000D01*
X95298648Y-26305000D02*
X95298648Y-25250000D01*
X107402202Y-24700000D02*
X108898648Y-26196446D01*
X95848648Y-24700000D02*
X107402202Y-24700000D01*
X108898648Y-26196446D02*
X108898648Y-29362499D01*
X108898648Y-29362499D02*
X109148648Y-29612499D01*
X109148648Y-29612499D02*
X109148648Y-30775000D01*
X94388647Y-25254999D02*
X94298648Y-25344998D01*
X95208649Y-25254999D02*
X94388647Y-25254999D01*
X94298648Y-25344998D02*
X94298648Y-26305000D01*
X95298648Y-25344998D02*
X95208649Y-25254999D01*
X95298648Y-26305000D02*
X95298648Y-25344998D01*
D25*
%TO.N,Board_0-VCC*%
X57448648Y-30775000D02*
X56006648Y-30775000D01*
X51294776Y-30775000D02*
X56006648Y-30775000D01*
X56006648Y-30775000D02*
X55194776Y-30775000D01*
X47798648Y-27153998D02*
X47538647Y-27413999D01*
X43158649Y-27413999D02*
X42898648Y-27153998D01*
X46848648Y-28700000D02*
X43848648Y-28700000D01*
X47538647Y-28610001D02*
X47448648Y-28700000D01*
X43158649Y-28010001D02*
X43158649Y-27413999D01*
X42898648Y-27153998D02*
X42898648Y-26305000D01*
X47798648Y-26305000D02*
X47798648Y-27153998D01*
X47448648Y-28700000D02*
X46848648Y-28700000D01*
X43848648Y-28700000D02*
X43158649Y-28010001D01*
X47538647Y-27413999D02*
X47538647Y-28610001D01*
X51294776Y-30775000D02*
X49219776Y-28700000D01*
X49219776Y-28700000D02*
X47448648Y-28700000D01*
D26*
%TO.N,Board_0-SHIELD*%
X33948648Y-29975000D02*
X29973648Y-29975000D01*
X33086148Y-30112500D02*
X32948648Y-29975000D01*
X34948648Y-30112500D02*
X33086148Y-30112500D01*
D27*
%TO.N,Board_0-Net-(J1-Pad4)*%
X41411799Y-30174990D02*
X40645497Y-30174990D01*
X46748648Y-27925000D02*
X46748648Y-28000000D01*
X39123648Y-30200000D02*
X38748648Y-29825000D01*
X40620487Y-30200000D02*
X39123648Y-30200000D01*
X43548648Y-30200000D02*
X41436809Y-30200000D01*
X46598648Y-27775000D02*
X46748648Y-27925000D01*
X46598648Y-26305000D02*
X46598648Y-27775000D01*
%TO.N,Board_0-Net-(J1-Pad10)*%
X37673648Y-29100000D02*
X36948648Y-29825000D01*
X42348648Y-29100000D02*
X37673648Y-29100000D01*
X43748649Y-27400001D02*
X44148648Y-27800000D01*
X43748649Y-27296879D02*
X43748649Y-27400001D01*
X43598648Y-27146878D02*
X43748649Y-27296879D01*
X43598648Y-26305000D02*
X43598648Y-27146878D01*
D28*
%TO.N,Board_0-GND*%
X60248648Y-27300000D02*
X60648648Y-26900000D01*
X60248648Y-28800000D02*
X60248648Y-27300000D01*
X61748648Y-26900000D02*
X60648648Y-26900000D01*
D25*
X42553648Y-24800000D02*
X43548648Y-24800000D01*
X42123648Y-25230000D02*
X42553648Y-24800000D01*
X48573648Y-26305000D02*
X49183658Y-25694990D01*
X49183658Y-25694990D02*
X50768628Y-25694990D01*
X42123648Y-26305000D02*
X42123648Y-25230000D01*
X50768628Y-25694990D02*
X50948648Y-25875010D01*
D27*
%TO.N,Board_0-D-*%
X58448648Y-30775000D02*
X58448648Y-29750000D01*
X58698648Y-26403554D02*
X57445094Y-25150000D01*
X58698648Y-29500000D02*
X58698648Y-26403554D01*
X46335058Y-25150000D02*
X46098648Y-25386410D01*
X46098648Y-25386410D02*
X46098648Y-26305000D01*
X58448648Y-29750000D02*
X58698648Y-29500000D01*
X57445094Y-25150000D02*
X46335058Y-25150000D01*
X45098648Y-27265002D02*
X45098648Y-26305000D01*
X45188647Y-27355001D02*
X45098648Y-27265002D01*
X46098648Y-27265002D02*
X46008649Y-27355001D01*
X46098648Y-26305000D02*
X46098648Y-27265002D01*
X46008649Y-27355001D02*
X45188647Y-27355001D01*
%TO.N,Board_0-D+*%
X45598648Y-26305000D02*
X45598648Y-25250000D01*
X46148648Y-24700000D02*
X57702202Y-24700000D01*
X45598648Y-25250000D02*
X46148648Y-24700000D01*
X57702202Y-24700000D02*
X59198648Y-26196446D01*
X59198648Y-29362499D02*
X59448648Y-29612499D01*
X59198648Y-26196446D02*
X59198648Y-29362499D01*
X59448648Y-29612499D02*
X59448648Y-30775000D01*
X44688647Y-25254999D02*
X44598648Y-25344998D01*
X45508649Y-25254999D02*
X44688647Y-25254999D01*
X44598648Y-25344998D02*
X44598648Y-26305000D01*
X45598648Y-25344998D02*
X45508649Y-25254999D01*
X45598648Y-26305000D02*
X45598648Y-25344998D01*
%TD*%
M02*
