%TF.GenerationSoftware,KiCad,Pcbnew,(6.0.5)*%
%TF.CreationDate,2022-06-04T14:03:13+08:00*%
%TF.ProjectId,panel,70616e65-6c2e-46b6-9963-61645f706362,rev?*%
%TF.SameCoordinates,Original*%
%TF.FileFunction,Legend,Top*%
%TF.FilePolarity,Positive*%
%FSLAX46Y46*%
G04 Gerber Fmt 4.6, Leading zero omitted, Abs format (unit mm)*
G04 Created by KiCad (PCBNEW (6.0.5)) date 2022-06-04 14:03:13*
%MOMM*%
%LPD*%
G01*
G04 APERTURE LIST*
%ADD10C,0.150000*%
%ADD11C,0.650000*%
%ADD12O,1.200000X2.300000*%
%ADD13O,1.200000X1.800000*%
%ADD14C,0.500000*%
%ADD15C,0.800000*%
%ADD16C,6.400000*%
G04 APERTURE END LIST*
D10*
X103542130Y-100247619D02*
X103643320Y-99438095D01*
X103607606Y-99342857D01*
X103565939Y-99295238D01*
X103476653Y-99247619D01*
X103286177Y-99247619D01*
X103184987Y-99295238D01*
X103131415Y-99342857D01*
X103071892Y-99438095D01*
X102970701Y-100247619D01*
X102536177Y-99914285D02*
X102619511Y-99247619D01*
X102548082Y-99819047D02*
X102494511Y-99866666D01*
X102393320Y-99914285D01*
X102250463Y-99914285D01*
X102161177Y-99866666D01*
X102125463Y-99771428D01*
X102190939Y-99247619D01*
X101714749Y-99247619D02*
X101631415Y-99914285D01*
X101589749Y-100247619D02*
X101643320Y-100200000D01*
X101601653Y-100152380D01*
X101548082Y-100200000D01*
X101589749Y-100247619D01*
X101601653Y-100152380D01*
X101298082Y-99914285D02*
X100917130Y-99914285D01*
X101238558Y-99247619D02*
X101131415Y-100104761D01*
X101071892Y-100200000D01*
X100970701Y-100247619D01*
X100875463Y-100247619D01*
X100667130Y-99247619D02*
X100583796Y-99914285D01*
X100607606Y-99723809D02*
X100548082Y-99819047D01*
X100494511Y-99866666D01*
X100393320Y-99914285D01*
X100298082Y-99914285D01*
X100048082Y-99247619D02*
X99964749Y-99914285D01*
X99923082Y-100247619D02*
X99976653Y-100200000D01*
X99934987Y-100152380D01*
X99881415Y-100200000D01*
X99923082Y-100247619D01*
X99934987Y-100152380D01*
X99184987Y-99295238D02*
X99286177Y-99247619D01*
X99476653Y-99247619D01*
X99565939Y-99295238D01*
X99601653Y-99390476D01*
X99554034Y-99771428D01*
X99494511Y-99866666D01*
X99393320Y-99914285D01*
X99202844Y-99914285D01*
X99113558Y-99866666D01*
X99077844Y-99771428D01*
X99089749Y-99676190D01*
X99577844Y-99580952D01*
X98286177Y-99247619D02*
X98161177Y-100247619D01*
X98280225Y-99295238D02*
X98381415Y-99247619D01*
X98571892Y-99247619D01*
X98661177Y-99295238D01*
X98702844Y-99342857D01*
X98738558Y-99438095D01*
X98702844Y-99723809D01*
X98643320Y-99819047D01*
X98589749Y-99866666D01*
X98488558Y-99914285D01*
X98298082Y-99914285D01*
X98208796Y-99866666D01*
X97048082Y-99247619D02*
X96923082Y-100247619D01*
X96684987Y-100247619D01*
X96548082Y-100200000D01*
X96464749Y-100104761D01*
X96429034Y-100009523D01*
X96405225Y-99819047D01*
X96423082Y-99676190D01*
X96494511Y-99485714D01*
X96554034Y-99390476D01*
X96661177Y-99295238D01*
X96809987Y-99247619D01*
X97048082Y-99247619D01*
X95619511Y-99247619D02*
X95554034Y-99771428D01*
X95589749Y-99866666D01*
X95679034Y-99914285D01*
X95869511Y-99914285D01*
X95970701Y-99866666D01*
X95613558Y-99295238D02*
X95714749Y-99247619D01*
X95952844Y-99247619D01*
X96042130Y-99295238D01*
X96077844Y-99390476D01*
X96065939Y-99485714D01*
X96006415Y-99580952D01*
X95905225Y-99628571D01*
X95667130Y-99628571D01*
X95565939Y-99676190D01*
X94631415Y-99914285D02*
X94714749Y-99247619D01*
X95059987Y-99914285D02*
X95125463Y-99390476D01*
X95089749Y-99295238D01*
X95000463Y-99247619D01*
X94857606Y-99247619D01*
X94756415Y-99295238D01*
X94702844Y-99342857D01*
X93726653Y-99914285D02*
X93827844Y-99104761D01*
X93887368Y-99009523D01*
X93940939Y-98961904D01*
X94042130Y-98914285D01*
X94184987Y-98914285D01*
X94274273Y-98961904D01*
X93804034Y-99295238D02*
X93905225Y-99247619D01*
X94095701Y-99247619D01*
X94184987Y-99295238D01*
X94226653Y-99342857D01*
X94262368Y-99438095D01*
X94226653Y-99723809D01*
X94167130Y-99819047D01*
X94113558Y-99866666D01*
X94012368Y-99914285D01*
X93821892Y-99914285D01*
X93732606Y-99866666D01*
X93333796Y-99247619D02*
X93208796Y-100247619D01*
X92905225Y-99247619D02*
X92839749Y-99771428D01*
X92875463Y-99866666D01*
X92964749Y-99914285D01*
X93107606Y-99914285D01*
X93208796Y-99866666D01*
X93262368Y-99819047D01*
X92488558Y-99914285D02*
X92107606Y-99914285D01*
X92304034Y-100247619D02*
X92411177Y-99390476D01*
X92375463Y-99295238D01*
X92286177Y-99247619D01*
X92190939Y-99247619D01*
X91470701Y-99295238D02*
X91571892Y-99247619D01*
X91762368Y-99247619D01*
X91851653Y-99295238D01*
X91887368Y-99390476D01*
X91839749Y-99771428D01*
X91780225Y-99866666D01*
X91679034Y-99914285D01*
X91488558Y-99914285D01*
X91399273Y-99866666D01*
X91363558Y-99771428D01*
X91375463Y-99676190D01*
X91863558Y-99580952D01*
X91000463Y-99247619D02*
X90917130Y-99914285D01*
X90940939Y-99723809D02*
X90881415Y-99819047D01*
X90827844Y-99866666D01*
X90726653Y-99914285D01*
X90631415Y-99914285D01*
X90381415Y-99247619D02*
X90256415Y-100247619D01*
X90304034Y-99866666D02*
X90202844Y-99914285D01*
X90012368Y-99914285D01*
X89923082Y-99866666D01*
X89881415Y-99819047D01*
X89845701Y-99723809D01*
X89881415Y-99438095D01*
X89940939Y-99342857D01*
X89994511Y-99295238D01*
X90095701Y-99247619D01*
X90286177Y-99247619D01*
X90375463Y-99295238D01*
X89333796Y-99247619D02*
X89423082Y-99295238D01*
X89464749Y-99342857D01*
X89500463Y-99438095D01*
X89464749Y-99723809D01*
X89405225Y-99819047D01*
X89351653Y-99866666D01*
X89250463Y-99914285D01*
X89107606Y-99914285D01*
X89018320Y-99866666D01*
X88976653Y-99819047D01*
X88940939Y-99723809D01*
X88976653Y-99438095D01*
X89036177Y-99342857D01*
X89089749Y-99295238D01*
X89190939Y-99247619D01*
X89333796Y-99247619D01*
X88143320Y-99247619D02*
X88077844Y-99771428D01*
X88113558Y-99866666D01*
X88202844Y-99914285D01*
X88393320Y-99914285D01*
X88494511Y-99866666D01*
X88137368Y-99295238D02*
X88238558Y-99247619D01*
X88476653Y-99247619D01*
X88565939Y-99295238D01*
X88601653Y-99390476D01*
X88589749Y-99485714D01*
X88530225Y-99580952D01*
X88429034Y-99628571D01*
X88190939Y-99628571D01*
X88089749Y-99676190D01*
X87667130Y-99247619D02*
X87583796Y-99914285D01*
X87607606Y-99723809D02*
X87548082Y-99819047D01*
X87494511Y-99866666D01*
X87393320Y-99914285D01*
X87298082Y-99914285D01*
X86619511Y-99247619D02*
X86494511Y-100247619D01*
X86613558Y-99295238D02*
X86714749Y-99247619D01*
X86905225Y-99247619D01*
X86994511Y-99295238D01*
X87036177Y-99342857D01*
X87071892Y-99438095D01*
X87036177Y-99723809D01*
X86976653Y-99819047D01*
X86923082Y-99866666D01*
X86821892Y-99914285D01*
X86631415Y-99914285D01*
X86542130Y-99866666D01*
X53842130Y-100247619D02*
X53943320Y-99438095D01*
X53907606Y-99342857D01*
X53865939Y-99295238D01*
X53776653Y-99247619D01*
X53586177Y-99247619D01*
X53484987Y-99295238D01*
X53431415Y-99342857D01*
X53371892Y-99438095D01*
X53270701Y-100247619D01*
X52836177Y-99914285D02*
X52919511Y-99247619D01*
X52848082Y-99819047D02*
X52794511Y-99866666D01*
X52693320Y-99914285D01*
X52550463Y-99914285D01*
X52461177Y-99866666D01*
X52425463Y-99771428D01*
X52490939Y-99247619D01*
X52014749Y-99247619D02*
X51931415Y-99914285D01*
X51889749Y-100247619D02*
X51943320Y-100200000D01*
X51901653Y-100152380D01*
X51848082Y-100200000D01*
X51889749Y-100247619D01*
X51901653Y-100152380D01*
X51598082Y-99914285D02*
X51217130Y-99914285D01*
X51538558Y-99247619D02*
X51431415Y-100104761D01*
X51371892Y-100200000D01*
X51270701Y-100247619D01*
X51175463Y-100247619D01*
X50967130Y-99247619D02*
X50883796Y-99914285D01*
X50907606Y-99723809D02*
X50848082Y-99819047D01*
X50794511Y-99866666D01*
X50693320Y-99914285D01*
X50598082Y-99914285D01*
X50348082Y-99247619D02*
X50264749Y-99914285D01*
X50223082Y-100247619D02*
X50276653Y-100200000D01*
X50234987Y-100152380D01*
X50181415Y-100200000D01*
X50223082Y-100247619D01*
X50234987Y-100152380D01*
X49484987Y-99295238D02*
X49586177Y-99247619D01*
X49776653Y-99247619D01*
X49865939Y-99295238D01*
X49901653Y-99390476D01*
X49854034Y-99771428D01*
X49794511Y-99866666D01*
X49693320Y-99914285D01*
X49502844Y-99914285D01*
X49413558Y-99866666D01*
X49377844Y-99771428D01*
X49389749Y-99676190D01*
X49877844Y-99580952D01*
X48586177Y-99247619D02*
X48461177Y-100247619D01*
X48580225Y-99295238D02*
X48681415Y-99247619D01*
X48871892Y-99247619D01*
X48961177Y-99295238D01*
X49002844Y-99342857D01*
X49038558Y-99438095D01*
X49002844Y-99723809D01*
X48943320Y-99819047D01*
X48889749Y-99866666D01*
X48788558Y-99914285D01*
X48598082Y-99914285D01*
X48508796Y-99866666D01*
X47348082Y-99247619D02*
X47223082Y-100247619D01*
X46984987Y-100247619D01*
X46848082Y-100200000D01*
X46764749Y-100104761D01*
X46729034Y-100009523D01*
X46705225Y-99819047D01*
X46723082Y-99676190D01*
X46794511Y-99485714D01*
X46854034Y-99390476D01*
X46961177Y-99295238D01*
X47109987Y-99247619D01*
X47348082Y-99247619D01*
X45919511Y-99247619D02*
X45854034Y-99771428D01*
X45889749Y-99866666D01*
X45979034Y-99914285D01*
X46169511Y-99914285D01*
X46270701Y-99866666D01*
X45913558Y-99295238D02*
X46014749Y-99247619D01*
X46252844Y-99247619D01*
X46342130Y-99295238D01*
X46377844Y-99390476D01*
X46365939Y-99485714D01*
X46306415Y-99580952D01*
X46205225Y-99628571D01*
X45967130Y-99628571D01*
X45865939Y-99676190D01*
X44931415Y-99914285D02*
X45014749Y-99247619D01*
X45359987Y-99914285D02*
X45425463Y-99390476D01*
X45389749Y-99295238D01*
X45300463Y-99247619D01*
X45157606Y-99247619D01*
X45056415Y-99295238D01*
X45002844Y-99342857D01*
X44026653Y-99914285D02*
X44127844Y-99104761D01*
X44187368Y-99009523D01*
X44240939Y-98961904D01*
X44342130Y-98914285D01*
X44484987Y-98914285D01*
X44574273Y-98961904D01*
X44104034Y-99295238D02*
X44205225Y-99247619D01*
X44395701Y-99247619D01*
X44484987Y-99295238D01*
X44526653Y-99342857D01*
X44562368Y-99438095D01*
X44526653Y-99723809D01*
X44467130Y-99819047D01*
X44413558Y-99866666D01*
X44312368Y-99914285D01*
X44121892Y-99914285D01*
X44032606Y-99866666D01*
X43633796Y-99247619D02*
X43508796Y-100247619D01*
X43205225Y-99247619D02*
X43139749Y-99771428D01*
X43175463Y-99866666D01*
X43264749Y-99914285D01*
X43407606Y-99914285D01*
X43508796Y-99866666D01*
X43562368Y-99819047D01*
X42788558Y-99914285D02*
X42407606Y-99914285D01*
X42604034Y-100247619D02*
X42711177Y-99390476D01*
X42675463Y-99295238D01*
X42586177Y-99247619D01*
X42490939Y-99247619D01*
X41770701Y-99295238D02*
X41871892Y-99247619D01*
X42062368Y-99247619D01*
X42151653Y-99295238D01*
X42187368Y-99390476D01*
X42139749Y-99771428D01*
X42080225Y-99866666D01*
X41979034Y-99914285D01*
X41788558Y-99914285D01*
X41699273Y-99866666D01*
X41663558Y-99771428D01*
X41675463Y-99676190D01*
X42163558Y-99580952D01*
X41300463Y-99247619D02*
X41217130Y-99914285D01*
X41240939Y-99723809D02*
X41181415Y-99819047D01*
X41127844Y-99866666D01*
X41026653Y-99914285D01*
X40931415Y-99914285D01*
X40681415Y-99247619D02*
X40556415Y-100247619D01*
X40604034Y-99866666D02*
X40502844Y-99914285D01*
X40312368Y-99914285D01*
X40223082Y-99866666D01*
X40181415Y-99819047D01*
X40145701Y-99723809D01*
X40181415Y-99438095D01*
X40240939Y-99342857D01*
X40294511Y-99295238D01*
X40395701Y-99247619D01*
X40586177Y-99247619D01*
X40675463Y-99295238D01*
X39633796Y-99247619D02*
X39723082Y-99295238D01*
X39764749Y-99342857D01*
X39800463Y-99438095D01*
X39764749Y-99723809D01*
X39705225Y-99819047D01*
X39651653Y-99866666D01*
X39550463Y-99914285D01*
X39407606Y-99914285D01*
X39318320Y-99866666D01*
X39276653Y-99819047D01*
X39240939Y-99723809D01*
X39276653Y-99438095D01*
X39336177Y-99342857D01*
X39389749Y-99295238D01*
X39490939Y-99247619D01*
X39633796Y-99247619D01*
X38443320Y-99247619D02*
X38377844Y-99771428D01*
X38413558Y-99866666D01*
X38502844Y-99914285D01*
X38693320Y-99914285D01*
X38794511Y-99866666D01*
X38437368Y-99295238D02*
X38538558Y-99247619D01*
X38776653Y-99247619D01*
X38865939Y-99295238D01*
X38901653Y-99390476D01*
X38889749Y-99485714D01*
X38830225Y-99580952D01*
X38729034Y-99628571D01*
X38490939Y-99628571D01*
X38389749Y-99676190D01*
X37967130Y-99247619D02*
X37883796Y-99914285D01*
X37907606Y-99723809D02*
X37848082Y-99819047D01*
X37794511Y-99866666D01*
X37693320Y-99914285D01*
X37598082Y-99914285D01*
X36919511Y-99247619D02*
X36794511Y-100247619D01*
X36913558Y-99295238D02*
X37014749Y-99247619D01*
X37205225Y-99247619D01*
X37294511Y-99295238D01*
X37336177Y-99342857D01*
X37371892Y-99438095D01*
X37336177Y-99723809D01*
X37276653Y-99819047D01*
X37223082Y-99866666D01*
X37121892Y-99914285D01*
X36931415Y-99914285D01*
X36842130Y-99866666D01*
X103542130Y-88547619D02*
X103643320Y-87738095D01*
X103607606Y-87642857D01*
X103565939Y-87595238D01*
X103476653Y-87547619D01*
X103286177Y-87547619D01*
X103184987Y-87595238D01*
X103131415Y-87642857D01*
X103071892Y-87738095D01*
X102970701Y-88547619D01*
X102536177Y-88214285D02*
X102619511Y-87547619D01*
X102548082Y-88119047D02*
X102494511Y-88166666D01*
X102393320Y-88214285D01*
X102250463Y-88214285D01*
X102161177Y-88166666D01*
X102125463Y-88071428D01*
X102190939Y-87547619D01*
X101714749Y-87547619D02*
X101631415Y-88214285D01*
X101589749Y-88547619D02*
X101643320Y-88500000D01*
X101601653Y-88452380D01*
X101548082Y-88500000D01*
X101589749Y-88547619D01*
X101601653Y-88452380D01*
X101298082Y-88214285D02*
X100917130Y-88214285D01*
X101238558Y-87547619D02*
X101131415Y-88404761D01*
X101071892Y-88500000D01*
X100970701Y-88547619D01*
X100875463Y-88547619D01*
X100667130Y-87547619D02*
X100583796Y-88214285D01*
X100607606Y-88023809D02*
X100548082Y-88119047D01*
X100494511Y-88166666D01*
X100393320Y-88214285D01*
X100298082Y-88214285D01*
X100048082Y-87547619D02*
X99964749Y-88214285D01*
X99923082Y-88547619D02*
X99976653Y-88500000D01*
X99934987Y-88452380D01*
X99881415Y-88500000D01*
X99923082Y-88547619D01*
X99934987Y-88452380D01*
X99184987Y-87595238D02*
X99286177Y-87547619D01*
X99476653Y-87547619D01*
X99565939Y-87595238D01*
X99601653Y-87690476D01*
X99554034Y-88071428D01*
X99494511Y-88166666D01*
X99393320Y-88214285D01*
X99202844Y-88214285D01*
X99113558Y-88166666D01*
X99077844Y-88071428D01*
X99089749Y-87976190D01*
X99577844Y-87880952D01*
X98286177Y-87547619D02*
X98161177Y-88547619D01*
X98280225Y-87595238D02*
X98381415Y-87547619D01*
X98571892Y-87547619D01*
X98661177Y-87595238D01*
X98702844Y-87642857D01*
X98738558Y-87738095D01*
X98702844Y-88023809D01*
X98643320Y-88119047D01*
X98589749Y-88166666D01*
X98488558Y-88214285D01*
X98298082Y-88214285D01*
X98208796Y-88166666D01*
X97048082Y-87547619D02*
X96923082Y-88547619D01*
X96684987Y-88547619D01*
X96548082Y-88500000D01*
X96464749Y-88404761D01*
X96429034Y-88309523D01*
X96405225Y-88119047D01*
X96423082Y-87976190D01*
X96494511Y-87785714D01*
X96554034Y-87690476D01*
X96661177Y-87595238D01*
X96809987Y-87547619D01*
X97048082Y-87547619D01*
X95619511Y-87547619D02*
X95554034Y-88071428D01*
X95589749Y-88166666D01*
X95679034Y-88214285D01*
X95869511Y-88214285D01*
X95970701Y-88166666D01*
X95613558Y-87595238D02*
X95714749Y-87547619D01*
X95952844Y-87547619D01*
X96042130Y-87595238D01*
X96077844Y-87690476D01*
X96065939Y-87785714D01*
X96006415Y-87880952D01*
X95905225Y-87928571D01*
X95667130Y-87928571D01*
X95565939Y-87976190D01*
X94631415Y-88214285D02*
X94714749Y-87547619D01*
X95059987Y-88214285D02*
X95125463Y-87690476D01*
X95089749Y-87595238D01*
X95000463Y-87547619D01*
X94857606Y-87547619D01*
X94756415Y-87595238D01*
X94702844Y-87642857D01*
X93726653Y-88214285D02*
X93827844Y-87404761D01*
X93887368Y-87309523D01*
X93940939Y-87261904D01*
X94042130Y-87214285D01*
X94184987Y-87214285D01*
X94274273Y-87261904D01*
X93804034Y-87595238D02*
X93905225Y-87547619D01*
X94095701Y-87547619D01*
X94184987Y-87595238D01*
X94226653Y-87642857D01*
X94262368Y-87738095D01*
X94226653Y-88023809D01*
X94167130Y-88119047D01*
X94113558Y-88166666D01*
X94012368Y-88214285D01*
X93821892Y-88214285D01*
X93732606Y-88166666D01*
X93333796Y-87547619D02*
X93208796Y-88547619D01*
X92905225Y-87547619D02*
X92839749Y-88071428D01*
X92875463Y-88166666D01*
X92964749Y-88214285D01*
X93107606Y-88214285D01*
X93208796Y-88166666D01*
X93262368Y-88119047D01*
X92488558Y-88214285D02*
X92107606Y-88214285D01*
X92304034Y-88547619D02*
X92411177Y-87690476D01*
X92375463Y-87595238D01*
X92286177Y-87547619D01*
X92190939Y-87547619D01*
X91470701Y-87595238D02*
X91571892Y-87547619D01*
X91762368Y-87547619D01*
X91851653Y-87595238D01*
X91887368Y-87690476D01*
X91839749Y-88071428D01*
X91780225Y-88166666D01*
X91679034Y-88214285D01*
X91488558Y-88214285D01*
X91399273Y-88166666D01*
X91363558Y-88071428D01*
X91375463Y-87976190D01*
X91863558Y-87880952D01*
X91000463Y-87547619D02*
X90917130Y-88214285D01*
X90940939Y-88023809D02*
X90881415Y-88119047D01*
X90827844Y-88166666D01*
X90726653Y-88214285D01*
X90631415Y-88214285D01*
X90381415Y-87547619D02*
X90256415Y-88547619D01*
X90304034Y-88166666D02*
X90202844Y-88214285D01*
X90012368Y-88214285D01*
X89923082Y-88166666D01*
X89881415Y-88119047D01*
X89845701Y-88023809D01*
X89881415Y-87738095D01*
X89940939Y-87642857D01*
X89994511Y-87595238D01*
X90095701Y-87547619D01*
X90286177Y-87547619D01*
X90375463Y-87595238D01*
X89333796Y-87547619D02*
X89423082Y-87595238D01*
X89464749Y-87642857D01*
X89500463Y-87738095D01*
X89464749Y-88023809D01*
X89405225Y-88119047D01*
X89351653Y-88166666D01*
X89250463Y-88214285D01*
X89107606Y-88214285D01*
X89018320Y-88166666D01*
X88976653Y-88119047D01*
X88940939Y-88023809D01*
X88976653Y-87738095D01*
X89036177Y-87642857D01*
X89089749Y-87595238D01*
X89190939Y-87547619D01*
X89333796Y-87547619D01*
X88143320Y-87547619D02*
X88077844Y-88071428D01*
X88113558Y-88166666D01*
X88202844Y-88214285D01*
X88393320Y-88214285D01*
X88494511Y-88166666D01*
X88137368Y-87595238D02*
X88238558Y-87547619D01*
X88476653Y-87547619D01*
X88565939Y-87595238D01*
X88601653Y-87690476D01*
X88589749Y-87785714D01*
X88530225Y-87880952D01*
X88429034Y-87928571D01*
X88190939Y-87928571D01*
X88089749Y-87976190D01*
X87667130Y-87547619D02*
X87583796Y-88214285D01*
X87607606Y-88023809D02*
X87548082Y-88119047D01*
X87494511Y-88166666D01*
X87393320Y-88214285D01*
X87298082Y-88214285D01*
X86619511Y-87547619D02*
X86494511Y-88547619D01*
X86613558Y-87595238D02*
X86714749Y-87547619D01*
X86905225Y-87547619D01*
X86994511Y-87595238D01*
X87036177Y-87642857D01*
X87071892Y-87738095D01*
X87036177Y-88023809D01*
X86976653Y-88119047D01*
X86923082Y-88166666D01*
X86821892Y-88214285D01*
X86631415Y-88214285D01*
X86542130Y-88166666D01*
X53842130Y-88547619D02*
X53943320Y-87738095D01*
X53907606Y-87642857D01*
X53865939Y-87595238D01*
X53776653Y-87547619D01*
X53586177Y-87547619D01*
X53484987Y-87595238D01*
X53431415Y-87642857D01*
X53371892Y-87738095D01*
X53270701Y-88547619D01*
X52836177Y-88214285D02*
X52919511Y-87547619D01*
X52848082Y-88119047D02*
X52794511Y-88166666D01*
X52693320Y-88214285D01*
X52550463Y-88214285D01*
X52461177Y-88166666D01*
X52425463Y-88071428D01*
X52490939Y-87547619D01*
X52014749Y-87547619D02*
X51931415Y-88214285D01*
X51889749Y-88547619D02*
X51943320Y-88500000D01*
X51901653Y-88452380D01*
X51848082Y-88500000D01*
X51889749Y-88547619D01*
X51901653Y-88452380D01*
X51598082Y-88214285D02*
X51217130Y-88214285D01*
X51538558Y-87547619D02*
X51431415Y-88404761D01*
X51371892Y-88500000D01*
X51270701Y-88547619D01*
X51175463Y-88547619D01*
X50967130Y-87547619D02*
X50883796Y-88214285D01*
X50907606Y-88023809D02*
X50848082Y-88119047D01*
X50794511Y-88166666D01*
X50693320Y-88214285D01*
X50598082Y-88214285D01*
X50348082Y-87547619D02*
X50264749Y-88214285D01*
X50223082Y-88547619D02*
X50276653Y-88500000D01*
X50234987Y-88452380D01*
X50181415Y-88500000D01*
X50223082Y-88547619D01*
X50234987Y-88452380D01*
X49484987Y-87595238D02*
X49586177Y-87547619D01*
X49776653Y-87547619D01*
X49865939Y-87595238D01*
X49901653Y-87690476D01*
X49854034Y-88071428D01*
X49794511Y-88166666D01*
X49693320Y-88214285D01*
X49502844Y-88214285D01*
X49413558Y-88166666D01*
X49377844Y-88071428D01*
X49389749Y-87976190D01*
X49877844Y-87880952D01*
X48586177Y-87547619D02*
X48461177Y-88547619D01*
X48580225Y-87595238D02*
X48681415Y-87547619D01*
X48871892Y-87547619D01*
X48961177Y-87595238D01*
X49002844Y-87642857D01*
X49038558Y-87738095D01*
X49002844Y-88023809D01*
X48943320Y-88119047D01*
X48889749Y-88166666D01*
X48788558Y-88214285D01*
X48598082Y-88214285D01*
X48508796Y-88166666D01*
X47348082Y-87547619D02*
X47223082Y-88547619D01*
X46984987Y-88547619D01*
X46848082Y-88500000D01*
X46764749Y-88404761D01*
X46729034Y-88309523D01*
X46705225Y-88119047D01*
X46723082Y-87976190D01*
X46794511Y-87785714D01*
X46854034Y-87690476D01*
X46961177Y-87595238D01*
X47109987Y-87547619D01*
X47348082Y-87547619D01*
X45919511Y-87547619D02*
X45854034Y-88071428D01*
X45889749Y-88166666D01*
X45979034Y-88214285D01*
X46169511Y-88214285D01*
X46270701Y-88166666D01*
X45913558Y-87595238D02*
X46014749Y-87547619D01*
X46252844Y-87547619D01*
X46342130Y-87595238D01*
X46377844Y-87690476D01*
X46365939Y-87785714D01*
X46306415Y-87880952D01*
X46205225Y-87928571D01*
X45967130Y-87928571D01*
X45865939Y-87976190D01*
X44931415Y-88214285D02*
X45014749Y-87547619D01*
X45359987Y-88214285D02*
X45425463Y-87690476D01*
X45389749Y-87595238D01*
X45300463Y-87547619D01*
X45157606Y-87547619D01*
X45056415Y-87595238D01*
X45002844Y-87642857D01*
X44026653Y-88214285D02*
X44127844Y-87404761D01*
X44187368Y-87309523D01*
X44240939Y-87261904D01*
X44342130Y-87214285D01*
X44484987Y-87214285D01*
X44574273Y-87261904D01*
X44104034Y-87595238D02*
X44205225Y-87547619D01*
X44395701Y-87547619D01*
X44484987Y-87595238D01*
X44526653Y-87642857D01*
X44562368Y-87738095D01*
X44526653Y-88023809D01*
X44467130Y-88119047D01*
X44413558Y-88166666D01*
X44312368Y-88214285D01*
X44121892Y-88214285D01*
X44032606Y-88166666D01*
X43633796Y-87547619D02*
X43508796Y-88547619D01*
X43205225Y-87547619D02*
X43139749Y-88071428D01*
X43175463Y-88166666D01*
X43264749Y-88214285D01*
X43407606Y-88214285D01*
X43508796Y-88166666D01*
X43562368Y-88119047D01*
X42788558Y-88214285D02*
X42407606Y-88214285D01*
X42604034Y-88547619D02*
X42711177Y-87690476D01*
X42675463Y-87595238D01*
X42586177Y-87547619D01*
X42490939Y-87547619D01*
X41770701Y-87595238D02*
X41871892Y-87547619D01*
X42062368Y-87547619D01*
X42151653Y-87595238D01*
X42187368Y-87690476D01*
X42139749Y-88071428D01*
X42080225Y-88166666D01*
X41979034Y-88214285D01*
X41788558Y-88214285D01*
X41699273Y-88166666D01*
X41663558Y-88071428D01*
X41675463Y-87976190D01*
X42163558Y-87880952D01*
X41300463Y-87547619D02*
X41217130Y-88214285D01*
X41240939Y-88023809D02*
X41181415Y-88119047D01*
X41127844Y-88166666D01*
X41026653Y-88214285D01*
X40931415Y-88214285D01*
X40681415Y-87547619D02*
X40556415Y-88547619D01*
X40604034Y-88166666D02*
X40502844Y-88214285D01*
X40312368Y-88214285D01*
X40223082Y-88166666D01*
X40181415Y-88119047D01*
X40145701Y-88023809D01*
X40181415Y-87738095D01*
X40240939Y-87642857D01*
X40294511Y-87595238D01*
X40395701Y-87547619D01*
X40586177Y-87547619D01*
X40675463Y-87595238D01*
X39633796Y-87547619D02*
X39723082Y-87595238D01*
X39764749Y-87642857D01*
X39800463Y-87738095D01*
X39764749Y-88023809D01*
X39705225Y-88119047D01*
X39651653Y-88166666D01*
X39550463Y-88214285D01*
X39407606Y-88214285D01*
X39318320Y-88166666D01*
X39276653Y-88119047D01*
X39240939Y-88023809D01*
X39276653Y-87738095D01*
X39336177Y-87642857D01*
X39389749Y-87595238D01*
X39490939Y-87547619D01*
X39633796Y-87547619D01*
X38443320Y-87547619D02*
X38377844Y-88071428D01*
X38413558Y-88166666D01*
X38502844Y-88214285D01*
X38693320Y-88214285D01*
X38794511Y-88166666D01*
X38437368Y-87595238D02*
X38538558Y-87547619D01*
X38776653Y-87547619D01*
X38865939Y-87595238D01*
X38901653Y-87690476D01*
X38889749Y-87785714D01*
X38830225Y-87880952D01*
X38729034Y-87928571D01*
X38490939Y-87928571D01*
X38389749Y-87976190D01*
X37967130Y-87547619D02*
X37883796Y-88214285D01*
X37907606Y-88023809D02*
X37848082Y-88119047D01*
X37794511Y-88166666D01*
X37693320Y-88214285D01*
X37598082Y-88214285D01*
X36919511Y-87547619D02*
X36794511Y-88547619D01*
X36913558Y-87595238D02*
X37014749Y-87547619D01*
X37205225Y-87547619D01*
X37294511Y-87595238D01*
X37336177Y-87642857D01*
X37371892Y-87738095D01*
X37336177Y-88023809D01*
X37276653Y-88119047D01*
X37223082Y-88166666D01*
X37121892Y-88214285D01*
X36931415Y-88214285D01*
X36842130Y-88166666D01*
X103542130Y-111947619D02*
X103643320Y-111138095D01*
X103607606Y-111042857D01*
X103565939Y-110995238D01*
X103476653Y-110947619D01*
X103286177Y-110947619D01*
X103184987Y-110995238D01*
X103131415Y-111042857D01*
X103071892Y-111138095D01*
X102970701Y-111947619D01*
X102536177Y-111614285D02*
X102619511Y-110947619D01*
X102548082Y-111519047D02*
X102494511Y-111566666D01*
X102393320Y-111614285D01*
X102250463Y-111614285D01*
X102161177Y-111566666D01*
X102125463Y-111471428D01*
X102190939Y-110947619D01*
X101714749Y-110947619D02*
X101631415Y-111614285D01*
X101589749Y-111947619D02*
X101643320Y-111900000D01*
X101601653Y-111852380D01*
X101548082Y-111900000D01*
X101589749Y-111947619D01*
X101601653Y-111852380D01*
X101298082Y-111614285D02*
X100917130Y-111614285D01*
X101238558Y-110947619D02*
X101131415Y-111804761D01*
X101071892Y-111900000D01*
X100970701Y-111947619D01*
X100875463Y-111947619D01*
X100667130Y-110947619D02*
X100583796Y-111614285D01*
X100607606Y-111423809D02*
X100548082Y-111519047D01*
X100494511Y-111566666D01*
X100393320Y-111614285D01*
X100298082Y-111614285D01*
X100048082Y-110947619D02*
X99964749Y-111614285D01*
X99923082Y-111947619D02*
X99976653Y-111900000D01*
X99934987Y-111852380D01*
X99881415Y-111900000D01*
X99923082Y-111947619D01*
X99934987Y-111852380D01*
X99184987Y-110995238D02*
X99286177Y-110947619D01*
X99476653Y-110947619D01*
X99565939Y-110995238D01*
X99601653Y-111090476D01*
X99554034Y-111471428D01*
X99494511Y-111566666D01*
X99393320Y-111614285D01*
X99202844Y-111614285D01*
X99113558Y-111566666D01*
X99077844Y-111471428D01*
X99089749Y-111376190D01*
X99577844Y-111280952D01*
X98286177Y-110947619D02*
X98161177Y-111947619D01*
X98280225Y-110995238D02*
X98381415Y-110947619D01*
X98571892Y-110947619D01*
X98661177Y-110995238D01*
X98702844Y-111042857D01*
X98738558Y-111138095D01*
X98702844Y-111423809D01*
X98643320Y-111519047D01*
X98589749Y-111566666D01*
X98488558Y-111614285D01*
X98298082Y-111614285D01*
X98208796Y-111566666D01*
X97048082Y-110947619D02*
X96923082Y-111947619D01*
X96684987Y-111947619D01*
X96548082Y-111900000D01*
X96464749Y-111804761D01*
X96429034Y-111709523D01*
X96405225Y-111519047D01*
X96423082Y-111376190D01*
X96494511Y-111185714D01*
X96554034Y-111090476D01*
X96661177Y-110995238D01*
X96809987Y-110947619D01*
X97048082Y-110947619D01*
X95619511Y-110947619D02*
X95554034Y-111471428D01*
X95589749Y-111566666D01*
X95679034Y-111614285D01*
X95869511Y-111614285D01*
X95970701Y-111566666D01*
X95613558Y-110995238D02*
X95714749Y-110947619D01*
X95952844Y-110947619D01*
X96042130Y-110995238D01*
X96077844Y-111090476D01*
X96065939Y-111185714D01*
X96006415Y-111280952D01*
X95905225Y-111328571D01*
X95667130Y-111328571D01*
X95565939Y-111376190D01*
X94631415Y-111614285D02*
X94714749Y-110947619D01*
X95059987Y-111614285D02*
X95125463Y-111090476D01*
X95089749Y-110995238D01*
X95000463Y-110947619D01*
X94857606Y-110947619D01*
X94756415Y-110995238D01*
X94702844Y-111042857D01*
X93726653Y-111614285D02*
X93827844Y-110804761D01*
X93887368Y-110709523D01*
X93940939Y-110661904D01*
X94042130Y-110614285D01*
X94184987Y-110614285D01*
X94274273Y-110661904D01*
X93804034Y-110995238D02*
X93905225Y-110947619D01*
X94095701Y-110947619D01*
X94184987Y-110995238D01*
X94226653Y-111042857D01*
X94262368Y-111138095D01*
X94226653Y-111423809D01*
X94167130Y-111519047D01*
X94113558Y-111566666D01*
X94012368Y-111614285D01*
X93821892Y-111614285D01*
X93732606Y-111566666D01*
X93333796Y-110947619D02*
X93208796Y-111947619D01*
X92905225Y-110947619D02*
X92839749Y-111471428D01*
X92875463Y-111566666D01*
X92964749Y-111614285D01*
X93107606Y-111614285D01*
X93208796Y-111566666D01*
X93262368Y-111519047D01*
X92488558Y-111614285D02*
X92107606Y-111614285D01*
X92304034Y-111947619D02*
X92411177Y-111090476D01*
X92375463Y-110995238D01*
X92286177Y-110947619D01*
X92190939Y-110947619D01*
X91470701Y-110995238D02*
X91571892Y-110947619D01*
X91762368Y-110947619D01*
X91851653Y-110995238D01*
X91887368Y-111090476D01*
X91839749Y-111471428D01*
X91780225Y-111566666D01*
X91679034Y-111614285D01*
X91488558Y-111614285D01*
X91399273Y-111566666D01*
X91363558Y-111471428D01*
X91375463Y-111376190D01*
X91863558Y-111280952D01*
X91000463Y-110947619D02*
X90917130Y-111614285D01*
X90940939Y-111423809D02*
X90881415Y-111519047D01*
X90827844Y-111566666D01*
X90726653Y-111614285D01*
X90631415Y-111614285D01*
X90381415Y-110947619D02*
X90256415Y-111947619D01*
X90304034Y-111566666D02*
X90202844Y-111614285D01*
X90012368Y-111614285D01*
X89923082Y-111566666D01*
X89881415Y-111519047D01*
X89845701Y-111423809D01*
X89881415Y-111138095D01*
X89940939Y-111042857D01*
X89994511Y-110995238D01*
X90095701Y-110947619D01*
X90286177Y-110947619D01*
X90375463Y-110995238D01*
X89333796Y-110947619D02*
X89423082Y-110995238D01*
X89464749Y-111042857D01*
X89500463Y-111138095D01*
X89464749Y-111423809D01*
X89405225Y-111519047D01*
X89351653Y-111566666D01*
X89250463Y-111614285D01*
X89107606Y-111614285D01*
X89018320Y-111566666D01*
X88976653Y-111519047D01*
X88940939Y-111423809D01*
X88976653Y-111138095D01*
X89036177Y-111042857D01*
X89089749Y-110995238D01*
X89190939Y-110947619D01*
X89333796Y-110947619D01*
X88143320Y-110947619D02*
X88077844Y-111471428D01*
X88113558Y-111566666D01*
X88202844Y-111614285D01*
X88393320Y-111614285D01*
X88494511Y-111566666D01*
X88137368Y-110995238D02*
X88238558Y-110947619D01*
X88476653Y-110947619D01*
X88565939Y-110995238D01*
X88601653Y-111090476D01*
X88589749Y-111185714D01*
X88530225Y-111280952D01*
X88429034Y-111328571D01*
X88190939Y-111328571D01*
X88089749Y-111376190D01*
X87667130Y-110947619D02*
X87583796Y-111614285D01*
X87607606Y-111423809D02*
X87548082Y-111519047D01*
X87494511Y-111566666D01*
X87393320Y-111614285D01*
X87298082Y-111614285D01*
X86619511Y-110947619D02*
X86494511Y-111947619D01*
X86613558Y-110995238D02*
X86714749Y-110947619D01*
X86905225Y-110947619D01*
X86994511Y-110995238D01*
X87036177Y-111042857D01*
X87071892Y-111138095D01*
X87036177Y-111423809D01*
X86976653Y-111519047D01*
X86923082Y-111566666D01*
X86821892Y-111614285D01*
X86631415Y-111614285D01*
X86542130Y-111566666D01*
X53842130Y-111947619D02*
X53943320Y-111138095D01*
X53907606Y-111042857D01*
X53865939Y-110995238D01*
X53776653Y-110947619D01*
X53586177Y-110947619D01*
X53484987Y-110995238D01*
X53431415Y-111042857D01*
X53371892Y-111138095D01*
X53270701Y-111947619D01*
X52836177Y-111614285D02*
X52919511Y-110947619D01*
X52848082Y-111519047D02*
X52794511Y-111566666D01*
X52693320Y-111614285D01*
X52550463Y-111614285D01*
X52461177Y-111566666D01*
X52425463Y-111471428D01*
X52490939Y-110947619D01*
X52014749Y-110947619D02*
X51931415Y-111614285D01*
X51889749Y-111947619D02*
X51943320Y-111900000D01*
X51901653Y-111852380D01*
X51848082Y-111900000D01*
X51889749Y-111947619D01*
X51901653Y-111852380D01*
X51598082Y-111614285D02*
X51217130Y-111614285D01*
X51538558Y-110947619D02*
X51431415Y-111804761D01*
X51371892Y-111900000D01*
X51270701Y-111947619D01*
X51175463Y-111947619D01*
X50967130Y-110947619D02*
X50883796Y-111614285D01*
X50907606Y-111423809D02*
X50848082Y-111519047D01*
X50794511Y-111566666D01*
X50693320Y-111614285D01*
X50598082Y-111614285D01*
X50348082Y-110947619D02*
X50264749Y-111614285D01*
X50223082Y-111947619D02*
X50276653Y-111900000D01*
X50234987Y-111852380D01*
X50181415Y-111900000D01*
X50223082Y-111947619D01*
X50234987Y-111852380D01*
X49484987Y-110995238D02*
X49586177Y-110947619D01*
X49776653Y-110947619D01*
X49865939Y-110995238D01*
X49901653Y-111090476D01*
X49854034Y-111471428D01*
X49794511Y-111566666D01*
X49693320Y-111614285D01*
X49502844Y-111614285D01*
X49413558Y-111566666D01*
X49377844Y-111471428D01*
X49389749Y-111376190D01*
X49877844Y-111280952D01*
X48586177Y-110947619D02*
X48461177Y-111947619D01*
X48580225Y-110995238D02*
X48681415Y-110947619D01*
X48871892Y-110947619D01*
X48961177Y-110995238D01*
X49002844Y-111042857D01*
X49038558Y-111138095D01*
X49002844Y-111423809D01*
X48943320Y-111519047D01*
X48889749Y-111566666D01*
X48788558Y-111614285D01*
X48598082Y-111614285D01*
X48508796Y-111566666D01*
X47348082Y-110947619D02*
X47223082Y-111947619D01*
X46984987Y-111947619D01*
X46848082Y-111900000D01*
X46764749Y-111804761D01*
X46729034Y-111709523D01*
X46705225Y-111519047D01*
X46723082Y-111376190D01*
X46794511Y-111185714D01*
X46854034Y-111090476D01*
X46961177Y-110995238D01*
X47109987Y-110947619D01*
X47348082Y-110947619D01*
X45919511Y-110947619D02*
X45854034Y-111471428D01*
X45889749Y-111566666D01*
X45979034Y-111614285D01*
X46169511Y-111614285D01*
X46270701Y-111566666D01*
X45913558Y-110995238D02*
X46014749Y-110947619D01*
X46252844Y-110947619D01*
X46342130Y-110995238D01*
X46377844Y-111090476D01*
X46365939Y-111185714D01*
X46306415Y-111280952D01*
X46205225Y-111328571D01*
X45967130Y-111328571D01*
X45865939Y-111376190D01*
X44931415Y-111614285D02*
X45014749Y-110947619D01*
X45359987Y-111614285D02*
X45425463Y-111090476D01*
X45389749Y-110995238D01*
X45300463Y-110947619D01*
X45157606Y-110947619D01*
X45056415Y-110995238D01*
X45002844Y-111042857D01*
X44026653Y-111614285D02*
X44127844Y-110804761D01*
X44187368Y-110709523D01*
X44240939Y-110661904D01*
X44342130Y-110614285D01*
X44484987Y-110614285D01*
X44574273Y-110661904D01*
X44104034Y-110995238D02*
X44205225Y-110947619D01*
X44395701Y-110947619D01*
X44484987Y-110995238D01*
X44526653Y-111042857D01*
X44562368Y-111138095D01*
X44526653Y-111423809D01*
X44467130Y-111519047D01*
X44413558Y-111566666D01*
X44312368Y-111614285D01*
X44121892Y-111614285D01*
X44032606Y-111566666D01*
X43633796Y-110947619D02*
X43508796Y-111947619D01*
X43205225Y-110947619D02*
X43139749Y-111471428D01*
X43175463Y-111566666D01*
X43264749Y-111614285D01*
X43407606Y-111614285D01*
X43508796Y-111566666D01*
X43562368Y-111519047D01*
X42788558Y-111614285D02*
X42407606Y-111614285D01*
X42604034Y-111947619D02*
X42711177Y-111090476D01*
X42675463Y-110995238D01*
X42586177Y-110947619D01*
X42490939Y-110947619D01*
X41770701Y-110995238D02*
X41871892Y-110947619D01*
X42062368Y-110947619D01*
X42151653Y-110995238D01*
X42187368Y-111090476D01*
X42139749Y-111471428D01*
X42080225Y-111566666D01*
X41979034Y-111614285D01*
X41788558Y-111614285D01*
X41699273Y-111566666D01*
X41663558Y-111471428D01*
X41675463Y-111376190D01*
X42163558Y-111280952D01*
X41300463Y-110947619D02*
X41217130Y-111614285D01*
X41240939Y-111423809D02*
X41181415Y-111519047D01*
X41127844Y-111566666D01*
X41026653Y-111614285D01*
X40931415Y-111614285D01*
X40681415Y-110947619D02*
X40556415Y-111947619D01*
X40604034Y-111566666D02*
X40502844Y-111614285D01*
X40312368Y-111614285D01*
X40223082Y-111566666D01*
X40181415Y-111519047D01*
X40145701Y-111423809D01*
X40181415Y-111138095D01*
X40240939Y-111042857D01*
X40294511Y-110995238D01*
X40395701Y-110947619D01*
X40586177Y-110947619D01*
X40675463Y-110995238D01*
X39633796Y-110947619D02*
X39723082Y-110995238D01*
X39764749Y-111042857D01*
X39800463Y-111138095D01*
X39764749Y-111423809D01*
X39705225Y-111519047D01*
X39651653Y-111566666D01*
X39550463Y-111614285D01*
X39407606Y-111614285D01*
X39318320Y-111566666D01*
X39276653Y-111519047D01*
X39240939Y-111423809D01*
X39276653Y-111138095D01*
X39336177Y-111042857D01*
X39389749Y-110995238D01*
X39490939Y-110947619D01*
X39633796Y-110947619D01*
X38443320Y-110947619D02*
X38377844Y-111471428D01*
X38413558Y-111566666D01*
X38502844Y-111614285D01*
X38693320Y-111614285D01*
X38794511Y-111566666D01*
X38437368Y-110995238D02*
X38538558Y-110947619D01*
X38776653Y-110947619D01*
X38865939Y-110995238D01*
X38901653Y-111090476D01*
X38889749Y-111185714D01*
X38830225Y-111280952D01*
X38729034Y-111328571D01*
X38490939Y-111328571D01*
X38389749Y-111376190D01*
X37967130Y-110947619D02*
X37883796Y-111614285D01*
X37907606Y-111423809D02*
X37848082Y-111519047D01*
X37794511Y-111566666D01*
X37693320Y-111614285D01*
X37598082Y-111614285D01*
X36919511Y-110947619D02*
X36794511Y-111947619D01*
X36913558Y-110995238D02*
X37014749Y-110947619D01*
X37205225Y-110947619D01*
X37294511Y-110995238D01*
X37336177Y-111042857D01*
X37371892Y-111138095D01*
X37336177Y-111423809D01*
X37276653Y-111519047D01*
X37223082Y-111566666D01*
X37121892Y-111614285D01*
X36931415Y-111614285D01*
X36842130Y-111566666D01*
X53842130Y-76847619D02*
X53943320Y-76038095D01*
X53907606Y-75942857D01*
X53865939Y-75895238D01*
X53776653Y-75847619D01*
X53586177Y-75847619D01*
X53484987Y-75895238D01*
X53431415Y-75942857D01*
X53371892Y-76038095D01*
X53270701Y-76847619D01*
X52836177Y-76514285D02*
X52919511Y-75847619D01*
X52848082Y-76419047D02*
X52794511Y-76466666D01*
X52693320Y-76514285D01*
X52550463Y-76514285D01*
X52461177Y-76466666D01*
X52425463Y-76371428D01*
X52490939Y-75847619D01*
X52014749Y-75847619D02*
X51931415Y-76514285D01*
X51889749Y-76847619D02*
X51943320Y-76800000D01*
X51901653Y-76752380D01*
X51848082Y-76800000D01*
X51889749Y-76847619D01*
X51901653Y-76752380D01*
X51598082Y-76514285D02*
X51217130Y-76514285D01*
X51538558Y-75847619D02*
X51431415Y-76704761D01*
X51371892Y-76800000D01*
X51270701Y-76847619D01*
X51175463Y-76847619D01*
X50967130Y-75847619D02*
X50883796Y-76514285D01*
X50907606Y-76323809D02*
X50848082Y-76419047D01*
X50794511Y-76466666D01*
X50693320Y-76514285D01*
X50598082Y-76514285D01*
X50348082Y-75847619D02*
X50264749Y-76514285D01*
X50223082Y-76847619D02*
X50276653Y-76800000D01*
X50234987Y-76752380D01*
X50181415Y-76800000D01*
X50223082Y-76847619D01*
X50234987Y-76752380D01*
X49484987Y-75895238D02*
X49586177Y-75847619D01*
X49776653Y-75847619D01*
X49865939Y-75895238D01*
X49901653Y-75990476D01*
X49854034Y-76371428D01*
X49794511Y-76466666D01*
X49693320Y-76514285D01*
X49502844Y-76514285D01*
X49413558Y-76466666D01*
X49377844Y-76371428D01*
X49389749Y-76276190D01*
X49877844Y-76180952D01*
X48586177Y-75847619D02*
X48461177Y-76847619D01*
X48580225Y-75895238D02*
X48681415Y-75847619D01*
X48871892Y-75847619D01*
X48961177Y-75895238D01*
X49002844Y-75942857D01*
X49038558Y-76038095D01*
X49002844Y-76323809D01*
X48943320Y-76419047D01*
X48889749Y-76466666D01*
X48788558Y-76514285D01*
X48598082Y-76514285D01*
X48508796Y-76466666D01*
X47348082Y-75847619D02*
X47223082Y-76847619D01*
X46984987Y-76847619D01*
X46848082Y-76800000D01*
X46764749Y-76704761D01*
X46729034Y-76609523D01*
X46705225Y-76419047D01*
X46723082Y-76276190D01*
X46794511Y-76085714D01*
X46854034Y-75990476D01*
X46961177Y-75895238D01*
X47109987Y-75847619D01*
X47348082Y-75847619D01*
X45919511Y-75847619D02*
X45854034Y-76371428D01*
X45889749Y-76466666D01*
X45979034Y-76514285D01*
X46169511Y-76514285D01*
X46270701Y-76466666D01*
X45913558Y-75895238D02*
X46014749Y-75847619D01*
X46252844Y-75847619D01*
X46342130Y-75895238D01*
X46377844Y-75990476D01*
X46365939Y-76085714D01*
X46306415Y-76180952D01*
X46205225Y-76228571D01*
X45967130Y-76228571D01*
X45865939Y-76276190D01*
X44931415Y-76514285D02*
X45014749Y-75847619D01*
X45359987Y-76514285D02*
X45425463Y-75990476D01*
X45389749Y-75895238D01*
X45300463Y-75847619D01*
X45157606Y-75847619D01*
X45056415Y-75895238D01*
X45002844Y-75942857D01*
X44026653Y-76514285D02*
X44127844Y-75704761D01*
X44187368Y-75609523D01*
X44240939Y-75561904D01*
X44342130Y-75514285D01*
X44484987Y-75514285D01*
X44574273Y-75561904D01*
X44104034Y-75895238D02*
X44205225Y-75847619D01*
X44395701Y-75847619D01*
X44484987Y-75895238D01*
X44526653Y-75942857D01*
X44562368Y-76038095D01*
X44526653Y-76323809D01*
X44467130Y-76419047D01*
X44413558Y-76466666D01*
X44312368Y-76514285D01*
X44121892Y-76514285D01*
X44032606Y-76466666D01*
X43633796Y-75847619D02*
X43508796Y-76847619D01*
X43205225Y-75847619D02*
X43139749Y-76371428D01*
X43175463Y-76466666D01*
X43264749Y-76514285D01*
X43407606Y-76514285D01*
X43508796Y-76466666D01*
X43562368Y-76419047D01*
X42788558Y-76514285D02*
X42407606Y-76514285D01*
X42604034Y-76847619D02*
X42711177Y-75990476D01*
X42675463Y-75895238D01*
X42586177Y-75847619D01*
X42490939Y-75847619D01*
X41770701Y-75895238D02*
X41871892Y-75847619D01*
X42062368Y-75847619D01*
X42151653Y-75895238D01*
X42187368Y-75990476D01*
X42139749Y-76371428D01*
X42080225Y-76466666D01*
X41979034Y-76514285D01*
X41788558Y-76514285D01*
X41699273Y-76466666D01*
X41663558Y-76371428D01*
X41675463Y-76276190D01*
X42163558Y-76180952D01*
X41300463Y-75847619D02*
X41217130Y-76514285D01*
X41240939Y-76323809D02*
X41181415Y-76419047D01*
X41127844Y-76466666D01*
X41026653Y-76514285D01*
X40931415Y-76514285D01*
X40681415Y-75847619D02*
X40556415Y-76847619D01*
X40604034Y-76466666D02*
X40502844Y-76514285D01*
X40312368Y-76514285D01*
X40223082Y-76466666D01*
X40181415Y-76419047D01*
X40145701Y-76323809D01*
X40181415Y-76038095D01*
X40240939Y-75942857D01*
X40294511Y-75895238D01*
X40395701Y-75847619D01*
X40586177Y-75847619D01*
X40675463Y-75895238D01*
X39633796Y-75847619D02*
X39723082Y-75895238D01*
X39764749Y-75942857D01*
X39800463Y-76038095D01*
X39764749Y-76323809D01*
X39705225Y-76419047D01*
X39651653Y-76466666D01*
X39550463Y-76514285D01*
X39407606Y-76514285D01*
X39318320Y-76466666D01*
X39276653Y-76419047D01*
X39240939Y-76323809D01*
X39276653Y-76038095D01*
X39336177Y-75942857D01*
X39389749Y-75895238D01*
X39490939Y-75847619D01*
X39633796Y-75847619D01*
X38443320Y-75847619D02*
X38377844Y-76371428D01*
X38413558Y-76466666D01*
X38502844Y-76514285D01*
X38693320Y-76514285D01*
X38794511Y-76466666D01*
X38437368Y-75895238D02*
X38538558Y-75847619D01*
X38776653Y-75847619D01*
X38865939Y-75895238D01*
X38901653Y-75990476D01*
X38889749Y-76085714D01*
X38830225Y-76180952D01*
X38729034Y-76228571D01*
X38490939Y-76228571D01*
X38389749Y-76276190D01*
X37967130Y-75847619D02*
X37883796Y-76514285D01*
X37907606Y-76323809D02*
X37848082Y-76419047D01*
X37794511Y-76466666D01*
X37693320Y-76514285D01*
X37598082Y-76514285D01*
X36919511Y-75847619D02*
X36794511Y-76847619D01*
X36913558Y-75895238D02*
X37014749Y-75847619D01*
X37205225Y-75847619D01*
X37294511Y-75895238D01*
X37336177Y-75942857D01*
X37371892Y-76038095D01*
X37336177Y-76323809D01*
X37276653Y-76419047D01*
X37223082Y-76466666D01*
X37121892Y-76514285D01*
X36931415Y-76514285D01*
X36842130Y-76466666D01*
X103542130Y-65147619D02*
X103643320Y-64338095D01*
X103607606Y-64242857D01*
X103565939Y-64195238D01*
X103476653Y-64147619D01*
X103286177Y-64147619D01*
X103184987Y-64195238D01*
X103131415Y-64242857D01*
X103071892Y-64338095D01*
X102970701Y-65147619D01*
X102536177Y-64814285D02*
X102619511Y-64147619D01*
X102548082Y-64719047D02*
X102494511Y-64766666D01*
X102393320Y-64814285D01*
X102250463Y-64814285D01*
X102161177Y-64766666D01*
X102125463Y-64671428D01*
X102190939Y-64147619D01*
X101714749Y-64147619D02*
X101631415Y-64814285D01*
X101589749Y-65147619D02*
X101643320Y-65100000D01*
X101601653Y-65052380D01*
X101548082Y-65100000D01*
X101589749Y-65147619D01*
X101601653Y-65052380D01*
X101298082Y-64814285D02*
X100917130Y-64814285D01*
X101238558Y-64147619D02*
X101131415Y-65004761D01*
X101071892Y-65100000D01*
X100970701Y-65147619D01*
X100875463Y-65147619D01*
X100667130Y-64147619D02*
X100583796Y-64814285D01*
X100607606Y-64623809D02*
X100548082Y-64719047D01*
X100494511Y-64766666D01*
X100393320Y-64814285D01*
X100298082Y-64814285D01*
X100048082Y-64147619D02*
X99964749Y-64814285D01*
X99923082Y-65147619D02*
X99976653Y-65100000D01*
X99934987Y-65052380D01*
X99881415Y-65100000D01*
X99923082Y-65147619D01*
X99934987Y-65052380D01*
X99184987Y-64195238D02*
X99286177Y-64147619D01*
X99476653Y-64147619D01*
X99565939Y-64195238D01*
X99601653Y-64290476D01*
X99554034Y-64671428D01*
X99494511Y-64766666D01*
X99393320Y-64814285D01*
X99202844Y-64814285D01*
X99113558Y-64766666D01*
X99077844Y-64671428D01*
X99089749Y-64576190D01*
X99577844Y-64480952D01*
X98286177Y-64147619D02*
X98161177Y-65147619D01*
X98280225Y-64195238D02*
X98381415Y-64147619D01*
X98571892Y-64147619D01*
X98661177Y-64195238D01*
X98702844Y-64242857D01*
X98738558Y-64338095D01*
X98702844Y-64623809D01*
X98643320Y-64719047D01*
X98589749Y-64766666D01*
X98488558Y-64814285D01*
X98298082Y-64814285D01*
X98208796Y-64766666D01*
X97048082Y-64147619D02*
X96923082Y-65147619D01*
X96684987Y-65147619D01*
X96548082Y-65100000D01*
X96464749Y-65004761D01*
X96429034Y-64909523D01*
X96405225Y-64719047D01*
X96423082Y-64576190D01*
X96494511Y-64385714D01*
X96554034Y-64290476D01*
X96661177Y-64195238D01*
X96809987Y-64147619D01*
X97048082Y-64147619D01*
X95619511Y-64147619D02*
X95554034Y-64671428D01*
X95589749Y-64766666D01*
X95679034Y-64814285D01*
X95869511Y-64814285D01*
X95970701Y-64766666D01*
X95613558Y-64195238D02*
X95714749Y-64147619D01*
X95952844Y-64147619D01*
X96042130Y-64195238D01*
X96077844Y-64290476D01*
X96065939Y-64385714D01*
X96006415Y-64480952D01*
X95905225Y-64528571D01*
X95667130Y-64528571D01*
X95565939Y-64576190D01*
X94631415Y-64814285D02*
X94714749Y-64147619D01*
X95059987Y-64814285D02*
X95125463Y-64290476D01*
X95089749Y-64195238D01*
X95000463Y-64147619D01*
X94857606Y-64147619D01*
X94756415Y-64195238D01*
X94702844Y-64242857D01*
X93726653Y-64814285D02*
X93827844Y-64004761D01*
X93887368Y-63909523D01*
X93940939Y-63861904D01*
X94042130Y-63814285D01*
X94184987Y-63814285D01*
X94274273Y-63861904D01*
X93804034Y-64195238D02*
X93905225Y-64147619D01*
X94095701Y-64147619D01*
X94184987Y-64195238D01*
X94226653Y-64242857D01*
X94262368Y-64338095D01*
X94226653Y-64623809D01*
X94167130Y-64719047D01*
X94113558Y-64766666D01*
X94012368Y-64814285D01*
X93821892Y-64814285D01*
X93732606Y-64766666D01*
X93333796Y-64147619D02*
X93208796Y-65147619D01*
X92905225Y-64147619D02*
X92839749Y-64671428D01*
X92875463Y-64766666D01*
X92964749Y-64814285D01*
X93107606Y-64814285D01*
X93208796Y-64766666D01*
X93262368Y-64719047D01*
X92488558Y-64814285D02*
X92107606Y-64814285D01*
X92304034Y-65147619D02*
X92411177Y-64290476D01*
X92375463Y-64195238D01*
X92286177Y-64147619D01*
X92190939Y-64147619D01*
X91470701Y-64195238D02*
X91571892Y-64147619D01*
X91762368Y-64147619D01*
X91851653Y-64195238D01*
X91887368Y-64290476D01*
X91839749Y-64671428D01*
X91780225Y-64766666D01*
X91679034Y-64814285D01*
X91488558Y-64814285D01*
X91399273Y-64766666D01*
X91363558Y-64671428D01*
X91375463Y-64576190D01*
X91863558Y-64480952D01*
X91000463Y-64147619D02*
X90917130Y-64814285D01*
X90940939Y-64623809D02*
X90881415Y-64719047D01*
X90827844Y-64766666D01*
X90726653Y-64814285D01*
X90631415Y-64814285D01*
X90381415Y-64147619D02*
X90256415Y-65147619D01*
X90304034Y-64766666D02*
X90202844Y-64814285D01*
X90012368Y-64814285D01*
X89923082Y-64766666D01*
X89881415Y-64719047D01*
X89845701Y-64623809D01*
X89881415Y-64338095D01*
X89940939Y-64242857D01*
X89994511Y-64195238D01*
X90095701Y-64147619D01*
X90286177Y-64147619D01*
X90375463Y-64195238D01*
X89333796Y-64147619D02*
X89423082Y-64195238D01*
X89464749Y-64242857D01*
X89500463Y-64338095D01*
X89464749Y-64623809D01*
X89405225Y-64719047D01*
X89351653Y-64766666D01*
X89250463Y-64814285D01*
X89107606Y-64814285D01*
X89018320Y-64766666D01*
X88976653Y-64719047D01*
X88940939Y-64623809D01*
X88976653Y-64338095D01*
X89036177Y-64242857D01*
X89089749Y-64195238D01*
X89190939Y-64147619D01*
X89333796Y-64147619D01*
X88143320Y-64147619D02*
X88077844Y-64671428D01*
X88113558Y-64766666D01*
X88202844Y-64814285D01*
X88393320Y-64814285D01*
X88494511Y-64766666D01*
X88137368Y-64195238D02*
X88238558Y-64147619D01*
X88476653Y-64147619D01*
X88565939Y-64195238D01*
X88601653Y-64290476D01*
X88589749Y-64385714D01*
X88530225Y-64480952D01*
X88429034Y-64528571D01*
X88190939Y-64528571D01*
X88089749Y-64576190D01*
X87667130Y-64147619D02*
X87583796Y-64814285D01*
X87607606Y-64623809D02*
X87548082Y-64719047D01*
X87494511Y-64766666D01*
X87393320Y-64814285D01*
X87298082Y-64814285D01*
X86619511Y-64147619D02*
X86494511Y-65147619D01*
X86613558Y-64195238D02*
X86714749Y-64147619D01*
X86905225Y-64147619D01*
X86994511Y-64195238D01*
X87036177Y-64242857D01*
X87071892Y-64338095D01*
X87036177Y-64623809D01*
X86976653Y-64719047D01*
X86923082Y-64766666D01*
X86821892Y-64814285D01*
X86631415Y-64814285D01*
X86542130Y-64766666D01*
X53842130Y-65147619D02*
X53943320Y-64338095D01*
X53907606Y-64242857D01*
X53865939Y-64195238D01*
X53776653Y-64147619D01*
X53586177Y-64147619D01*
X53484987Y-64195238D01*
X53431415Y-64242857D01*
X53371892Y-64338095D01*
X53270701Y-65147619D01*
X52836177Y-64814285D02*
X52919511Y-64147619D01*
X52848082Y-64719047D02*
X52794511Y-64766666D01*
X52693320Y-64814285D01*
X52550463Y-64814285D01*
X52461177Y-64766666D01*
X52425463Y-64671428D01*
X52490939Y-64147619D01*
X52014749Y-64147619D02*
X51931415Y-64814285D01*
X51889749Y-65147619D02*
X51943320Y-65100000D01*
X51901653Y-65052380D01*
X51848082Y-65100000D01*
X51889749Y-65147619D01*
X51901653Y-65052380D01*
X51598082Y-64814285D02*
X51217130Y-64814285D01*
X51538558Y-64147619D02*
X51431415Y-65004761D01*
X51371892Y-65100000D01*
X51270701Y-65147619D01*
X51175463Y-65147619D01*
X50967130Y-64147619D02*
X50883796Y-64814285D01*
X50907606Y-64623809D02*
X50848082Y-64719047D01*
X50794511Y-64766666D01*
X50693320Y-64814285D01*
X50598082Y-64814285D01*
X50348082Y-64147619D02*
X50264749Y-64814285D01*
X50223082Y-65147619D02*
X50276653Y-65100000D01*
X50234987Y-65052380D01*
X50181415Y-65100000D01*
X50223082Y-65147619D01*
X50234987Y-65052380D01*
X49484987Y-64195238D02*
X49586177Y-64147619D01*
X49776653Y-64147619D01*
X49865939Y-64195238D01*
X49901653Y-64290476D01*
X49854034Y-64671428D01*
X49794511Y-64766666D01*
X49693320Y-64814285D01*
X49502844Y-64814285D01*
X49413558Y-64766666D01*
X49377844Y-64671428D01*
X49389749Y-64576190D01*
X49877844Y-64480952D01*
X48586177Y-64147619D02*
X48461177Y-65147619D01*
X48580225Y-64195238D02*
X48681415Y-64147619D01*
X48871892Y-64147619D01*
X48961177Y-64195238D01*
X49002844Y-64242857D01*
X49038558Y-64338095D01*
X49002844Y-64623809D01*
X48943320Y-64719047D01*
X48889749Y-64766666D01*
X48788558Y-64814285D01*
X48598082Y-64814285D01*
X48508796Y-64766666D01*
X47348082Y-64147619D02*
X47223082Y-65147619D01*
X46984987Y-65147619D01*
X46848082Y-65100000D01*
X46764749Y-65004761D01*
X46729034Y-64909523D01*
X46705225Y-64719047D01*
X46723082Y-64576190D01*
X46794511Y-64385714D01*
X46854034Y-64290476D01*
X46961177Y-64195238D01*
X47109987Y-64147619D01*
X47348082Y-64147619D01*
X45919511Y-64147619D02*
X45854034Y-64671428D01*
X45889749Y-64766666D01*
X45979034Y-64814285D01*
X46169511Y-64814285D01*
X46270701Y-64766666D01*
X45913558Y-64195238D02*
X46014749Y-64147619D01*
X46252844Y-64147619D01*
X46342130Y-64195238D01*
X46377844Y-64290476D01*
X46365939Y-64385714D01*
X46306415Y-64480952D01*
X46205225Y-64528571D01*
X45967130Y-64528571D01*
X45865939Y-64576190D01*
X44931415Y-64814285D02*
X45014749Y-64147619D01*
X45359987Y-64814285D02*
X45425463Y-64290476D01*
X45389749Y-64195238D01*
X45300463Y-64147619D01*
X45157606Y-64147619D01*
X45056415Y-64195238D01*
X45002844Y-64242857D01*
X44026653Y-64814285D02*
X44127844Y-64004761D01*
X44187368Y-63909523D01*
X44240939Y-63861904D01*
X44342130Y-63814285D01*
X44484987Y-63814285D01*
X44574273Y-63861904D01*
X44104034Y-64195238D02*
X44205225Y-64147619D01*
X44395701Y-64147619D01*
X44484987Y-64195238D01*
X44526653Y-64242857D01*
X44562368Y-64338095D01*
X44526653Y-64623809D01*
X44467130Y-64719047D01*
X44413558Y-64766666D01*
X44312368Y-64814285D01*
X44121892Y-64814285D01*
X44032606Y-64766666D01*
X43633796Y-64147619D02*
X43508796Y-65147619D01*
X43205225Y-64147619D02*
X43139749Y-64671428D01*
X43175463Y-64766666D01*
X43264749Y-64814285D01*
X43407606Y-64814285D01*
X43508796Y-64766666D01*
X43562368Y-64719047D01*
X42788558Y-64814285D02*
X42407606Y-64814285D01*
X42604034Y-65147619D02*
X42711177Y-64290476D01*
X42675463Y-64195238D01*
X42586177Y-64147619D01*
X42490939Y-64147619D01*
X41770701Y-64195238D02*
X41871892Y-64147619D01*
X42062368Y-64147619D01*
X42151653Y-64195238D01*
X42187368Y-64290476D01*
X42139749Y-64671428D01*
X42080225Y-64766666D01*
X41979034Y-64814285D01*
X41788558Y-64814285D01*
X41699273Y-64766666D01*
X41663558Y-64671428D01*
X41675463Y-64576190D01*
X42163558Y-64480952D01*
X41300463Y-64147619D02*
X41217130Y-64814285D01*
X41240939Y-64623809D02*
X41181415Y-64719047D01*
X41127844Y-64766666D01*
X41026653Y-64814285D01*
X40931415Y-64814285D01*
X40681415Y-64147619D02*
X40556415Y-65147619D01*
X40604034Y-64766666D02*
X40502844Y-64814285D01*
X40312368Y-64814285D01*
X40223082Y-64766666D01*
X40181415Y-64719047D01*
X40145701Y-64623809D01*
X40181415Y-64338095D01*
X40240939Y-64242857D01*
X40294511Y-64195238D01*
X40395701Y-64147619D01*
X40586177Y-64147619D01*
X40675463Y-64195238D01*
X39633796Y-64147619D02*
X39723082Y-64195238D01*
X39764749Y-64242857D01*
X39800463Y-64338095D01*
X39764749Y-64623809D01*
X39705225Y-64719047D01*
X39651653Y-64766666D01*
X39550463Y-64814285D01*
X39407606Y-64814285D01*
X39318320Y-64766666D01*
X39276653Y-64719047D01*
X39240939Y-64623809D01*
X39276653Y-64338095D01*
X39336177Y-64242857D01*
X39389749Y-64195238D01*
X39490939Y-64147619D01*
X39633796Y-64147619D01*
X38443320Y-64147619D02*
X38377844Y-64671428D01*
X38413558Y-64766666D01*
X38502844Y-64814285D01*
X38693320Y-64814285D01*
X38794511Y-64766666D01*
X38437368Y-64195238D02*
X38538558Y-64147619D01*
X38776653Y-64147619D01*
X38865939Y-64195238D01*
X38901653Y-64290476D01*
X38889749Y-64385714D01*
X38830225Y-64480952D01*
X38729034Y-64528571D01*
X38490939Y-64528571D01*
X38389749Y-64576190D01*
X37967130Y-64147619D02*
X37883796Y-64814285D01*
X37907606Y-64623809D02*
X37848082Y-64719047D01*
X37794511Y-64766666D01*
X37693320Y-64814285D01*
X37598082Y-64814285D01*
X36919511Y-64147619D02*
X36794511Y-65147619D01*
X36913558Y-64195238D02*
X37014749Y-64147619D01*
X37205225Y-64147619D01*
X37294511Y-64195238D01*
X37336177Y-64242857D01*
X37371892Y-64338095D01*
X37336177Y-64623809D01*
X37276653Y-64719047D01*
X37223082Y-64766666D01*
X37121892Y-64814285D01*
X36931415Y-64814285D01*
X36842130Y-64766666D01*
X103542130Y-53447619D02*
X103643320Y-52638095D01*
X103607606Y-52542857D01*
X103565939Y-52495238D01*
X103476653Y-52447619D01*
X103286177Y-52447619D01*
X103184987Y-52495238D01*
X103131415Y-52542857D01*
X103071892Y-52638095D01*
X102970701Y-53447619D01*
X102536177Y-53114285D02*
X102619511Y-52447619D01*
X102548082Y-53019047D02*
X102494511Y-53066666D01*
X102393320Y-53114285D01*
X102250463Y-53114285D01*
X102161177Y-53066666D01*
X102125463Y-52971428D01*
X102190939Y-52447619D01*
X101714749Y-52447619D02*
X101631415Y-53114285D01*
X101589749Y-53447619D02*
X101643320Y-53400000D01*
X101601653Y-53352380D01*
X101548082Y-53400000D01*
X101589749Y-53447619D01*
X101601653Y-53352380D01*
X101298082Y-53114285D02*
X100917130Y-53114285D01*
X101238558Y-52447619D02*
X101131415Y-53304761D01*
X101071892Y-53400000D01*
X100970701Y-53447619D01*
X100875463Y-53447619D01*
X100667130Y-52447619D02*
X100583796Y-53114285D01*
X100607606Y-52923809D02*
X100548082Y-53019047D01*
X100494511Y-53066666D01*
X100393320Y-53114285D01*
X100298082Y-53114285D01*
X100048082Y-52447619D02*
X99964749Y-53114285D01*
X99923082Y-53447619D02*
X99976653Y-53400000D01*
X99934987Y-53352380D01*
X99881415Y-53400000D01*
X99923082Y-53447619D01*
X99934987Y-53352380D01*
X99184987Y-52495238D02*
X99286177Y-52447619D01*
X99476653Y-52447619D01*
X99565939Y-52495238D01*
X99601653Y-52590476D01*
X99554034Y-52971428D01*
X99494511Y-53066666D01*
X99393320Y-53114285D01*
X99202844Y-53114285D01*
X99113558Y-53066666D01*
X99077844Y-52971428D01*
X99089749Y-52876190D01*
X99577844Y-52780952D01*
X98286177Y-52447619D02*
X98161177Y-53447619D01*
X98280225Y-52495238D02*
X98381415Y-52447619D01*
X98571892Y-52447619D01*
X98661177Y-52495238D01*
X98702844Y-52542857D01*
X98738558Y-52638095D01*
X98702844Y-52923809D01*
X98643320Y-53019047D01*
X98589749Y-53066666D01*
X98488558Y-53114285D01*
X98298082Y-53114285D01*
X98208796Y-53066666D01*
X97048082Y-52447619D02*
X96923082Y-53447619D01*
X96684987Y-53447619D01*
X96548082Y-53400000D01*
X96464749Y-53304761D01*
X96429034Y-53209523D01*
X96405225Y-53019047D01*
X96423082Y-52876190D01*
X96494511Y-52685714D01*
X96554034Y-52590476D01*
X96661177Y-52495238D01*
X96809987Y-52447619D01*
X97048082Y-52447619D01*
X95619511Y-52447619D02*
X95554034Y-52971428D01*
X95589749Y-53066666D01*
X95679034Y-53114285D01*
X95869511Y-53114285D01*
X95970701Y-53066666D01*
X95613558Y-52495238D02*
X95714749Y-52447619D01*
X95952844Y-52447619D01*
X96042130Y-52495238D01*
X96077844Y-52590476D01*
X96065939Y-52685714D01*
X96006415Y-52780952D01*
X95905225Y-52828571D01*
X95667130Y-52828571D01*
X95565939Y-52876190D01*
X94631415Y-53114285D02*
X94714749Y-52447619D01*
X95059987Y-53114285D02*
X95125463Y-52590476D01*
X95089749Y-52495238D01*
X95000463Y-52447619D01*
X94857606Y-52447619D01*
X94756415Y-52495238D01*
X94702844Y-52542857D01*
X93726653Y-53114285D02*
X93827844Y-52304761D01*
X93887368Y-52209523D01*
X93940939Y-52161904D01*
X94042130Y-52114285D01*
X94184987Y-52114285D01*
X94274273Y-52161904D01*
X93804034Y-52495238D02*
X93905225Y-52447619D01*
X94095701Y-52447619D01*
X94184987Y-52495238D01*
X94226653Y-52542857D01*
X94262368Y-52638095D01*
X94226653Y-52923809D01*
X94167130Y-53019047D01*
X94113558Y-53066666D01*
X94012368Y-53114285D01*
X93821892Y-53114285D01*
X93732606Y-53066666D01*
X93333796Y-52447619D02*
X93208796Y-53447619D01*
X92905225Y-52447619D02*
X92839749Y-52971428D01*
X92875463Y-53066666D01*
X92964749Y-53114285D01*
X93107606Y-53114285D01*
X93208796Y-53066666D01*
X93262368Y-53019047D01*
X92488558Y-53114285D02*
X92107606Y-53114285D01*
X92304034Y-53447619D02*
X92411177Y-52590476D01*
X92375463Y-52495238D01*
X92286177Y-52447619D01*
X92190939Y-52447619D01*
X91470701Y-52495238D02*
X91571892Y-52447619D01*
X91762368Y-52447619D01*
X91851653Y-52495238D01*
X91887368Y-52590476D01*
X91839749Y-52971428D01*
X91780225Y-53066666D01*
X91679034Y-53114285D01*
X91488558Y-53114285D01*
X91399273Y-53066666D01*
X91363558Y-52971428D01*
X91375463Y-52876190D01*
X91863558Y-52780952D01*
X91000463Y-52447619D02*
X90917130Y-53114285D01*
X90940939Y-52923809D02*
X90881415Y-53019047D01*
X90827844Y-53066666D01*
X90726653Y-53114285D01*
X90631415Y-53114285D01*
X90381415Y-52447619D02*
X90256415Y-53447619D01*
X90304034Y-53066666D02*
X90202844Y-53114285D01*
X90012368Y-53114285D01*
X89923082Y-53066666D01*
X89881415Y-53019047D01*
X89845701Y-52923809D01*
X89881415Y-52638095D01*
X89940939Y-52542857D01*
X89994511Y-52495238D01*
X90095701Y-52447619D01*
X90286177Y-52447619D01*
X90375463Y-52495238D01*
X89333796Y-52447619D02*
X89423082Y-52495238D01*
X89464749Y-52542857D01*
X89500463Y-52638095D01*
X89464749Y-52923809D01*
X89405225Y-53019047D01*
X89351653Y-53066666D01*
X89250463Y-53114285D01*
X89107606Y-53114285D01*
X89018320Y-53066666D01*
X88976653Y-53019047D01*
X88940939Y-52923809D01*
X88976653Y-52638095D01*
X89036177Y-52542857D01*
X89089749Y-52495238D01*
X89190939Y-52447619D01*
X89333796Y-52447619D01*
X88143320Y-52447619D02*
X88077844Y-52971428D01*
X88113558Y-53066666D01*
X88202844Y-53114285D01*
X88393320Y-53114285D01*
X88494511Y-53066666D01*
X88137368Y-52495238D02*
X88238558Y-52447619D01*
X88476653Y-52447619D01*
X88565939Y-52495238D01*
X88601653Y-52590476D01*
X88589749Y-52685714D01*
X88530225Y-52780952D01*
X88429034Y-52828571D01*
X88190939Y-52828571D01*
X88089749Y-52876190D01*
X87667130Y-52447619D02*
X87583796Y-53114285D01*
X87607606Y-52923809D02*
X87548082Y-53019047D01*
X87494511Y-53066666D01*
X87393320Y-53114285D01*
X87298082Y-53114285D01*
X86619511Y-52447619D02*
X86494511Y-53447619D01*
X86613558Y-52495238D02*
X86714749Y-52447619D01*
X86905225Y-52447619D01*
X86994511Y-52495238D01*
X87036177Y-52542857D01*
X87071892Y-52638095D01*
X87036177Y-52923809D01*
X86976653Y-53019047D01*
X86923082Y-53066666D01*
X86821892Y-53114285D01*
X86631415Y-53114285D01*
X86542130Y-53066666D01*
X103542130Y-76847619D02*
X103643320Y-76038095D01*
X103607606Y-75942857D01*
X103565939Y-75895238D01*
X103476653Y-75847619D01*
X103286177Y-75847619D01*
X103184987Y-75895238D01*
X103131415Y-75942857D01*
X103071892Y-76038095D01*
X102970701Y-76847619D01*
X102536177Y-76514285D02*
X102619511Y-75847619D01*
X102548082Y-76419047D02*
X102494511Y-76466666D01*
X102393320Y-76514285D01*
X102250463Y-76514285D01*
X102161177Y-76466666D01*
X102125463Y-76371428D01*
X102190939Y-75847619D01*
X101714749Y-75847619D02*
X101631415Y-76514285D01*
X101589749Y-76847619D02*
X101643320Y-76800000D01*
X101601653Y-76752380D01*
X101548082Y-76800000D01*
X101589749Y-76847619D01*
X101601653Y-76752380D01*
X101298082Y-76514285D02*
X100917130Y-76514285D01*
X101238558Y-75847619D02*
X101131415Y-76704761D01*
X101071892Y-76800000D01*
X100970701Y-76847619D01*
X100875463Y-76847619D01*
X100667130Y-75847619D02*
X100583796Y-76514285D01*
X100607606Y-76323809D02*
X100548082Y-76419047D01*
X100494511Y-76466666D01*
X100393320Y-76514285D01*
X100298082Y-76514285D01*
X100048082Y-75847619D02*
X99964749Y-76514285D01*
X99923082Y-76847619D02*
X99976653Y-76800000D01*
X99934987Y-76752380D01*
X99881415Y-76800000D01*
X99923082Y-76847619D01*
X99934987Y-76752380D01*
X99184987Y-75895238D02*
X99286177Y-75847619D01*
X99476653Y-75847619D01*
X99565939Y-75895238D01*
X99601653Y-75990476D01*
X99554034Y-76371428D01*
X99494511Y-76466666D01*
X99393320Y-76514285D01*
X99202844Y-76514285D01*
X99113558Y-76466666D01*
X99077844Y-76371428D01*
X99089749Y-76276190D01*
X99577844Y-76180952D01*
X98286177Y-75847619D02*
X98161177Y-76847619D01*
X98280225Y-75895238D02*
X98381415Y-75847619D01*
X98571892Y-75847619D01*
X98661177Y-75895238D01*
X98702844Y-75942857D01*
X98738558Y-76038095D01*
X98702844Y-76323809D01*
X98643320Y-76419047D01*
X98589749Y-76466666D01*
X98488558Y-76514285D01*
X98298082Y-76514285D01*
X98208796Y-76466666D01*
X97048082Y-75847619D02*
X96923082Y-76847619D01*
X96684987Y-76847619D01*
X96548082Y-76800000D01*
X96464749Y-76704761D01*
X96429034Y-76609523D01*
X96405225Y-76419047D01*
X96423082Y-76276190D01*
X96494511Y-76085714D01*
X96554034Y-75990476D01*
X96661177Y-75895238D01*
X96809987Y-75847619D01*
X97048082Y-75847619D01*
X95619511Y-75847619D02*
X95554034Y-76371428D01*
X95589749Y-76466666D01*
X95679034Y-76514285D01*
X95869511Y-76514285D01*
X95970701Y-76466666D01*
X95613558Y-75895238D02*
X95714749Y-75847619D01*
X95952844Y-75847619D01*
X96042130Y-75895238D01*
X96077844Y-75990476D01*
X96065939Y-76085714D01*
X96006415Y-76180952D01*
X95905225Y-76228571D01*
X95667130Y-76228571D01*
X95565939Y-76276190D01*
X94631415Y-76514285D02*
X94714749Y-75847619D01*
X95059987Y-76514285D02*
X95125463Y-75990476D01*
X95089749Y-75895238D01*
X95000463Y-75847619D01*
X94857606Y-75847619D01*
X94756415Y-75895238D01*
X94702844Y-75942857D01*
X93726653Y-76514285D02*
X93827844Y-75704761D01*
X93887368Y-75609523D01*
X93940939Y-75561904D01*
X94042130Y-75514285D01*
X94184987Y-75514285D01*
X94274273Y-75561904D01*
X93804034Y-75895238D02*
X93905225Y-75847619D01*
X94095701Y-75847619D01*
X94184987Y-75895238D01*
X94226653Y-75942857D01*
X94262368Y-76038095D01*
X94226653Y-76323809D01*
X94167130Y-76419047D01*
X94113558Y-76466666D01*
X94012368Y-76514285D01*
X93821892Y-76514285D01*
X93732606Y-76466666D01*
X93333796Y-75847619D02*
X93208796Y-76847619D01*
X92905225Y-75847619D02*
X92839749Y-76371428D01*
X92875463Y-76466666D01*
X92964749Y-76514285D01*
X93107606Y-76514285D01*
X93208796Y-76466666D01*
X93262368Y-76419047D01*
X92488558Y-76514285D02*
X92107606Y-76514285D01*
X92304034Y-76847619D02*
X92411177Y-75990476D01*
X92375463Y-75895238D01*
X92286177Y-75847619D01*
X92190939Y-75847619D01*
X91470701Y-75895238D02*
X91571892Y-75847619D01*
X91762368Y-75847619D01*
X91851653Y-75895238D01*
X91887368Y-75990476D01*
X91839749Y-76371428D01*
X91780225Y-76466666D01*
X91679034Y-76514285D01*
X91488558Y-76514285D01*
X91399273Y-76466666D01*
X91363558Y-76371428D01*
X91375463Y-76276190D01*
X91863558Y-76180952D01*
X91000463Y-75847619D02*
X90917130Y-76514285D01*
X90940939Y-76323809D02*
X90881415Y-76419047D01*
X90827844Y-76466666D01*
X90726653Y-76514285D01*
X90631415Y-76514285D01*
X90381415Y-75847619D02*
X90256415Y-76847619D01*
X90304034Y-76466666D02*
X90202844Y-76514285D01*
X90012368Y-76514285D01*
X89923082Y-76466666D01*
X89881415Y-76419047D01*
X89845701Y-76323809D01*
X89881415Y-76038095D01*
X89940939Y-75942857D01*
X89994511Y-75895238D01*
X90095701Y-75847619D01*
X90286177Y-75847619D01*
X90375463Y-75895238D01*
X89333796Y-75847619D02*
X89423082Y-75895238D01*
X89464749Y-75942857D01*
X89500463Y-76038095D01*
X89464749Y-76323809D01*
X89405225Y-76419047D01*
X89351653Y-76466666D01*
X89250463Y-76514285D01*
X89107606Y-76514285D01*
X89018320Y-76466666D01*
X88976653Y-76419047D01*
X88940939Y-76323809D01*
X88976653Y-76038095D01*
X89036177Y-75942857D01*
X89089749Y-75895238D01*
X89190939Y-75847619D01*
X89333796Y-75847619D01*
X88143320Y-75847619D02*
X88077844Y-76371428D01*
X88113558Y-76466666D01*
X88202844Y-76514285D01*
X88393320Y-76514285D01*
X88494511Y-76466666D01*
X88137368Y-75895238D02*
X88238558Y-75847619D01*
X88476653Y-75847619D01*
X88565939Y-75895238D01*
X88601653Y-75990476D01*
X88589749Y-76085714D01*
X88530225Y-76180952D01*
X88429034Y-76228571D01*
X88190939Y-76228571D01*
X88089749Y-76276190D01*
X87667130Y-75847619D02*
X87583796Y-76514285D01*
X87607606Y-76323809D02*
X87548082Y-76419047D01*
X87494511Y-76466666D01*
X87393320Y-76514285D01*
X87298082Y-76514285D01*
X86619511Y-75847619D02*
X86494511Y-76847619D01*
X86613558Y-75895238D02*
X86714749Y-75847619D01*
X86905225Y-75847619D01*
X86994511Y-75895238D01*
X87036177Y-75942857D01*
X87071892Y-76038095D01*
X87036177Y-76323809D01*
X86976653Y-76419047D01*
X86923082Y-76466666D01*
X86821892Y-76514285D01*
X86631415Y-76514285D01*
X86542130Y-76466666D01*
X53842130Y-53447619D02*
X53943320Y-52638095D01*
X53907606Y-52542857D01*
X53865939Y-52495238D01*
X53776653Y-52447619D01*
X53586177Y-52447619D01*
X53484987Y-52495238D01*
X53431415Y-52542857D01*
X53371892Y-52638095D01*
X53270701Y-53447619D01*
X52836177Y-53114285D02*
X52919511Y-52447619D01*
X52848082Y-53019047D02*
X52794511Y-53066666D01*
X52693320Y-53114285D01*
X52550463Y-53114285D01*
X52461177Y-53066666D01*
X52425463Y-52971428D01*
X52490939Y-52447619D01*
X52014749Y-52447619D02*
X51931415Y-53114285D01*
X51889749Y-53447619D02*
X51943320Y-53400000D01*
X51901653Y-53352380D01*
X51848082Y-53400000D01*
X51889749Y-53447619D01*
X51901653Y-53352380D01*
X51598082Y-53114285D02*
X51217130Y-53114285D01*
X51538558Y-52447619D02*
X51431415Y-53304761D01*
X51371892Y-53400000D01*
X51270701Y-53447619D01*
X51175463Y-53447619D01*
X50967130Y-52447619D02*
X50883796Y-53114285D01*
X50907606Y-52923809D02*
X50848082Y-53019047D01*
X50794511Y-53066666D01*
X50693320Y-53114285D01*
X50598082Y-53114285D01*
X50348082Y-52447619D02*
X50264749Y-53114285D01*
X50223082Y-53447619D02*
X50276653Y-53400000D01*
X50234987Y-53352380D01*
X50181415Y-53400000D01*
X50223082Y-53447619D01*
X50234987Y-53352380D01*
X49484987Y-52495238D02*
X49586177Y-52447619D01*
X49776653Y-52447619D01*
X49865939Y-52495238D01*
X49901653Y-52590476D01*
X49854034Y-52971428D01*
X49794511Y-53066666D01*
X49693320Y-53114285D01*
X49502844Y-53114285D01*
X49413558Y-53066666D01*
X49377844Y-52971428D01*
X49389749Y-52876190D01*
X49877844Y-52780952D01*
X48586177Y-52447619D02*
X48461177Y-53447619D01*
X48580225Y-52495238D02*
X48681415Y-52447619D01*
X48871892Y-52447619D01*
X48961177Y-52495238D01*
X49002844Y-52542857D01*
X49038558Y-52638095D01*
X49002844Y-52923809D01*
X48943320Y-53019047D01*
X48889749Y-53066666D01*
X48788558Y-53114285D01*
X48598082Y-53114285D01*
X48508796Y-53066666D01*
X47348082Y-52447619D02*
X47223082Y-53447619D01*
X46984987Y-53447619D01*
X46848082Y-53400000D01*
X46764749Y-53304761D01*
X46729034Y-53209523D01*
X46705225Y-53019047D01*
X46723082Y-52876190D01*
X46794511Y-52685714D01*
X46854034Y-52590476D01*
X46961177Y-52495238D01*
X47109987Y-52447619D01*
X47348082Y-52447619D01*
X45919511Y-52447619D02*
X45854034Y-52971428D01*
X45889749Y-53066666D01*
X45979034Y-53114285D01*
X46169511Y-53114285D01*
X46270701Y-53066666D01*
X45913558Y-52495238D02*
X46014749Y-52447619D01*
X46252844Y-52447619D01*
X46342130Y-52495238D01*
X46377844Y-52590476D01*
X46365939Y-52685714D01*
X46306415Y-52780952D01*
X46205225Y-52828571D01*
X45967130Y-52828571D01*
X45865939Y-52876190D01*
X44931415Y-53114285D02*
X45014749Y-52447619D01*
X45359987Y-53114285D02*
X45425463Y-52590476D01*
X45389749Y-52495238D01*
X45300463Y-52447619D01*
X45157606Y-52447619D01*
X45056415Y-52495238D01*
X45002844Y-52542857D01*
X44026653Y-53114285D02*
X44127844Y-52304761D01*
X44187368Y-52209523D01*
X44240939Y-52161904D01*
X44342130Y-52114285D01*
X44484987Y-52114285D01*
X44574273Y-52161904D01*
X44104034Y-52495238D02*
X44205225Y-52447619D01*
X44395701Y-52447619D01*
X44484987Y-52495238D01*
X44526653Y-52542857D01*
X44562368Y-52638095D01*
X44526653Y-52923809D01*
X44467130Y-53019047D01*
X44413558Y-53066666D01*
X44312368Y-53114285D01*
X44121892Y-53114285D01*
X44032606Y-53066666D01*
X43633796Y-52447619D02*
X43508796Y-53447619D01*
X43205225Y-52447619D02*
X43139749Y-52971428D01*
X43175463Y-53066666D01*
X43264749Y-53114285D01*
X43407606Y-53114285D01*
X43508796Y-53066666D01*
X43562368Y-53019047D01*
X42788558Y-53114285D02*
X42407606Y-53114285D01*
X42604034Y-53447619D02*
X42711177Y-52590476D01*
X42675463Y-52495238D01*
X42586177Y-52447619D01*
X42490939Y-52447619D01*
X41770701Y-52495238D02*
X41871892Y-52447619D01*
X42062368Y-52447619D01*
X42151653Y-52495238D01*
X42187368Y-52590476D01*
X42139749Y-52971428D01*
X42080225Y-53066666D01*
X41979034Y-53114285D01*
X41788558Y-53114285D01*
X41699273Y-53066666D01*
X41663558Y-52971428D01*
X41675463Y-52876190D01*
X42163558Y-52780952D01*
X41300463Y-52447619D02*
X41217130Y-53114285D01*
X41240939Y-52923809D02*
X41181415Y-53019047D01*
X41127844Y-53066666D01*
X41026653Y-53114285D01*
X40931415Y-53114285D01*
X40681415Y-52447619D02*
X40556415Y-53447619D01*
X40604034Y-53066666D02*
X40502844Y-53114285D01*
X40312368Y-53114285D01*
X40223082Y-53066666D01*
X40181415Y-53019047D01*
X40145701Y-52923809D01*
X40181415Y-52638095D01*
X40240939Y-52542857D01*
X40294511Y-52495238D01*
X40395701Y-52447619D01*
X40586177Y-52447619D01*
X40675463Y-52495238D01*
X39633796Y-52447619D02*
X39723082Y-52495238D01*
X39764749Y-52542857D01*
X39800463Y-52638095D01*
X39764749Y-52923809D01*
X39705225Y-53019047D01*
X39651653Y-53066666D01*
X39550463Y-53114285D01*
X39407606Y-53114285D01*
X39318320Y-53066666D01*
X39276653Y-53019047D01*
X39240939Y-52923809D01*
X39276653Y-52638095D01*
X39336177Y-52542857D01*
X39389749Y-52495238D01*
X39490939Y-52447619D01*
X39633796Y-52447619D01*
X38443320Y-52447619D02*
X38377844Y-52971428D01*
X38413558Y-53066666D01*
X38502844Y-53114285D01*
X38693320Y-53114285D01*
X38794511Y-53066666D01*
X38437368Y-52495238D02*
X38538558Y-52447619D01*
X38776653Y-52447619D01*
X38865939Y-52495238D01*
X38901653Y-52590476D01*
X38889749Y-52685714D01*
X38830225Y-52780952D01*
X38729034Y-52828571D01*
X38490939Y-52828571D01*
X38389749Y-52876190D01*
X37967130Y-52447619D02*
X37883796Y-53114285D01*
X37907606Y-52923809D02*
X37848082Y-53019047D01*
X37794511Y-53066666D01*
X37693320Y-53114285D01*
X37598082Y-53114285D01*
X36919511Y-52447619D02*
X36794511Y-53447619D01*
X36913558Y-52495238D02*
X37014749Y-52447619D01*
X37205225Y-52447619D01*
X37294511Y-52495238D01*
X37336177Y-52542857D01*
X37371892Y-52638095D01*
X37336177Y-52923809D01*
X37276653Y-53019047D01*
X37223082Y-53066666D01*
X37121892Y-53114285D01*
X36931415Y-53114285D01*
X36842130Y-53066666D01*
X103542130Y-41747619D02*
X103643320Y-40938095D01*
X103607606Y-40842857D01*
X103565939Y-40795238D01*
X103476653Y-40747619D01*
X103286177Y-40747619D01*
X103184987Y-40795238D01*
X103131415Y-40842857D01*
X103071892Y-40938095D01*
X102970701Y-41747619D01*
X102536177Y-41414285D02*
X102619511Y-40747619D01*
X102548082Y-41319047D02*
X102494511Y-41366666D01*
X102393320Y-41414285D01*
X102250463Y-41414285D01*
X102161177Y-41366666D01*
X102125463Y-41271428D01*
X102190939Y-40747619D01*
X101714749Y-40747619D02*
X101631415Y-41414285D01*
X101589749Y-41747619D02*
X101643320Y-41700000D01*
X101601653Y-41652380D01*
X101548082Y-41700000D01*
X101589749Y-41747619D01*
X101601653Y-41652380D01*
X101298082Y-41414285D02*
X100917130Y-41414285D01*
X101238558Y-40747619D02*
X101131415Y-41604761D01*
X101071892Y-41700000D01*
X100970701Y-41747619D01*
X100875463Y-41747619D01*
X100667130Y-40747619D02*
X100583796Y-41414285D01*
X100607606Y-41223809D02*
X100548082Y-41319047D01*
X100494511Y-41366666D01*
X100393320Y-41414285D01*
X100298082Y-41414285D01*
X100048082Y-40747619D02*
X99964749Y-41414285D01*
X99923082Y-41747619D02*
X99976653Y-41700000D01*
X99934987Y-41652380D01*
X99881415Y-41700000D01*
X99923082Y-41747619D01*
X99934987Y-41652380D01*
X99184987Y-40795238D02*
X99286177Y-40747619D01*
X99476653Y-40747619D01*
X99565939Y-40795238D01*
X99601653Y-40890476D01*
X99554034Y-41271428D01*
X99494511Y-41366666D01*
X99393320Y-41414285D01*
X99202844Y-41414285D01*
X99113558Y-41366666D01*
X99077844Y-41271428D01*
X99089749Y-41176190D01*
X99577844Y-41080952D01*
X98286177Y-40747619D02*
X98161177Y-41747619D01*
X98280225Y-40795238D02*
X98381415Y-40747619D01*
X98571892Y-40747619D01*
X98661177Y-40795238D01*
X98702844Y-40842857D01*
X98738558Y-40938095D01*
X98702844Y-41223809D01*
X98643320Y-41319047D01*
X98589749Y-41366666D01*
X98488558Y-41414285D01*
X98298082Y-41414285D01*
X98208796Y-41366666D01*
X97048082Y-40747619D02*
X96923082Y-41747619D01*
X96684987Y-41747619D01*
X96548082Y-41700000D01*
X96464749Y-41604761D01*
X96429034Y-41509523D01*
X96405225Y-41319047D01*
X96423082Y-41176190D01*
X96494511Y-40985714D01*
X96554034Y-40890476D01*
X96661177Y-40795238D01*
X96809987Y-40747619D01*
X97048082Y-40747619D01*
X95619511Y-40747619D02*
X95554034Y-41271428D01*
X95589749Y-41366666D01*
X95679034Y-41414285D01*
X95869511Y-41414285D01*
X95970701Y-41366666D01*
X95613558Y-40795238D02*
X95714749Y-40747619D01*
X95952844Y-40747619D01*
X96042130Y-40795238D01*
X96077844Y-40890476D01*
X96065939Y-40985714D01*
X96006415Y-41080952D01*
X95905225Y-41128571D01*
X95667130Y-41128571D01*
X95565939Y-41176190D01*
X94631415Y-41414285D02*
X94714749Y-40747619D01*
X95059987Y-41414285D02*
X95125463Y-40890476D01*
X95089749Y-40795238D01*
X95000463Y-40747619D01*
X94857606Y-40747619D01*
X94756415Y-40795238D01*
X94702844Y-40842857D01*
X93726653Y-41414285D02*
X93827844Y-40604761D01*
X93887368Y-40509523D01*
X93940939Y-40461904D01*
X94042130Y-40414285D01*
X94184987Y-40414285D01*
X94274273Y-40461904D01*
X93804034Y-40795238D02*
X93905225Y-40747619D01*
X94095701Y-40747619D01*
X94184987Y-40795238D01*
X94226653Y-40842857D01*
X94262368Y-40938095D01*
X94226653Y-41223809D01*
X94167130Y-41319047D01*
X94113558Y-41366666D01*
X94012368Y-41414285D01*
X93821892Y-41414285D01*
X93732606Y-41366666D01*
X93333796Y-40747619D02*
X93208796Y-41747619D01*
X92905225Y-40747619D02*
X92839749Y-41271428D01*
X92875463Y-41366666D01*
X92964749Y-41414285D01*
X93107606Y-41414285D01*
X93208796Y-41366666D01*
X93262368Y-41319047D01*
X92488558Y-41414285D02*
X92107606Y-41414285D01*
X92304034Y-41747619D02*
X92411177Y-40890476D01*
X92375463Y-40795238D01*
X92286177Y-40747619D01*
X92190939Y-40747619D01*
X91470701Y-40795238D02*
X91571892Y-40747619D01*
X91762368Y-40747619D01*
X91851653Y-40795238D01*
X91887368Y-40890476D01*
X91839749Y-41271428D01*
X91780225Y-41366666D01*
X91679034Y-41414285D01*
X91488558Y-41414285D01*
X91399273Y-41366666D01*
X91363558Y-41271428D01*
X91375463Y-41176190D01*
X91863558Y-41080952D01*
X91000463Y-40747619D02*
X90917130Y-41414285D01*
X90940939Y-41223809D02*
X90881415Y-41319047D01*
X90827844Y-41366666D01*
X90726653Y-41414285D01*
X90631415Y-41414285D01*
X90381415Y-40747619D02*
X90256415Y-41747619D01*
X90304034Y-41366666D02*
X90202844Y-41414285D01*
X90012368Y-41414285D01*
X89923082Y-41366666D01*
X89881415Y-41319047D01*
X89845701Y-41223809D01*
X89881415Y-40938095D01*
X89940939Y-40842857D01*
X89994511Y-40795238D01*
X90095701Y-40747619D01*
X90286177Y-40747619D01*
X90375463Y-40795238D01*
X89333796Y-40747619D02*
X89423082Y-40795238D01*
X89464749Y-40842857D01*
X89500463Y-40938095D01*
X89464749Y-41223809D01*
X89405225Y-41319047D01*
X89351653Y-41366666D01*
X89250463Y-41414285D01*
X89107606Y-41414285D01*
X89018320Y-41366666D01*
X88976653Y-41319047D01*
X88940939Y-41223809D01*
X88976653Y-40938095D01*
X89036177Y-40842857D01*
X89089749Y-40795238D01*
X89190939Y-40747619D01*
X89333796Y-40747619D01*
X88143320Y-40747619D02*
X88077844Y-41271428D01*
X88113558Y-41366666D01*
X88202844Y-41414285D01*
X88393320Y-41414285D01*
X88494511Y-41366666D01*
X88137368Y-40795238D02*
X88238558Y-40747619D01*
X88476653Y-40747619D01*
X88565939Y-40795238D01*
X88601653Y-40890476D01*
X88589749Y-40985714D01*
X88530225Y-41080952D01*
X88429034Y-41128571D01*
X88190939Y-41128571D01*
X88089749Y-41176190D01*
X87667130Y-40747619D02*
X87583796Y-41414285D01*
X87607606Y-41223809D02*
X87548082Y-41319047D01*
X87494511Y-41366666D01*
X87393320Y-41414285D01*
X87298082Y-41414285D01*
X86619511Y-40747619D02*
X86494511Y-41747619D01*
X86613558Y-40795238D02*
X86714749Y-40747619D01*
X86905225Y-40747619D01*
X86994511Y-40795238D01*
X87036177Y-40842857D01*
X87071892Y-40938095D01*
X87036177Y-41223809D01*
X86976653Y-41319047D01*
X86923082Y-41366666D01*
X86821892Y-41414285D01*
X86631415Y-41414285D01*
X86542130Y-41366666D01*
X103542130Y-30047619D02*
X103643320Y-29238095D01*
X103607606Y-29142857D01*
X103565939Y-29095238D01*
X103476653Y-29047619D01*
X103286177Y-29047619D01*
X103184987Y-29095238D01*
X103131415Y-29142857D01*
X103071892Y-29238095D01*
X102970701Y-30047619D01*
X102536177Y-29714285D02*
X102619511Y-29047619D01*
X102548082Y-29619047D02*
X102494511Y-29666666D01*
X102393320Y-29714285D01*
X102250463Y-29714285D01*
X102161177Y-29666666D01*
X102125463Y-29571428D01*
X102190939Y-29047619D01*
X101714749Y-29047619D02*
X101631415Y-29714285D01*
X101589749Y-30047619D02*
X101643320Y-30000000D01*
X101601653Y-29952380D01*
X101548082Y-30000000D01*
X101589749Y-30047619D01*
X101601653Y-29952380D01*
X101298082Y-29714285D02*
X100917130Y-29714285D01*
X101238558Y-29047619D02*
X101131415Y-29904761D01*
X101071892Y-30000000D01*
X100970701Y-30047619D01*
X100875463Y-30047619D01*
X100667130Y-29047619D02*
X100583796Y-29714285D01*
X100607606Y-29523809D02*
X100548082Y-29619047D01*
X100494511Y-29666666D01*
X100393320Y-29714285D01*
X100298082Y-29714285D01*
X100048082Y-29047619D02*
X99964749Y-29714285D01*
X99923082Y-30047619D02*
X99976653Y-30000000D01*
X99934987Y-29952380D01*
X99881415Y-30000000D01*
X99923082Y-30047619D01*
X99934987Y-29952380D01*
X99184987Y-29095238D02*
X99286177Y-29047619D01*
X99476653Y-29047619D01*
X99565939Y-29095238D01*
X99601653Y-29190476D01*
X99554034Y-29571428D01*
X99494511Y-29666666D01*
X99393320Y-29714285D01*
X99202844Y-29714285D01*
X99113558Y-29666666D01*
X99077844Y-29571428D01*
X99089749Y-29476190D01*
X99577844Y-29380952D01*
X98286177Y-29047619D02*
X98161177Y-30047619D01*
X98280225Y-29095238D02*
X98381415Y-29047619D01*
X98571892Y-29047619D01*
X98661177Y-29095238D01*
X98702844Y-29142857D01*
X98738558Y-29238095D01*
X98702844Y-29523809D01*
X98643320Y-29619047D01*
X98589749Y-29666666D01*
X98488558Y-29714285D01*
X98298082Y-29714285D01*
X98208796Y-29666666D01*
X97048082Y-29047619D02*
X96923082Y-30047619D01*
X96684987Y-30047619D01*
X96548082Y-30000000D01*
X96464749Y-29904761D01*
X96429034Y-29809523D01*
X96405225Y-29619047D01*
X96423082Y-29476190D01*
X96494511Y-29285714D01*
X96554034Y-29190476D01*
X96661177Y-29095238D01*
X96809987Y-29047619D01*
X97048082Y-29047619D01*
X95619511Y-29047619D02*
X95554034Y-29571428D01*
X95589749Y-29666666D01*
X95679034Y-29714285D01*
X95869511Y-29714285D01*
X95970701Y-29666666D01*
X95613558Y-29095238D02*
X95714749Y-29047619D01*
X95952844Y-29047619D01*
X96042130Y-29095238D01*
X96077844Y-29190476D01*
X96065939Y-29285714D01*
X96006415Y-29380952D01*
X95905225Y-29428571D01*
X95667130Y-29428571D01*
X95565939Y-29476190D01*
X94631415Y-29714285D02*
X94714749Y-29047619D01*
X95059987Y-29714285D02*
X95125463Y-29190476D01*
X95089749Y-29095238D01*
X95000463Y-29047619D01*
X94857606Y-29047619D01*
X94756415Y-29095238D01*
X94702844Y-29142857D01*
X93726653Y-29714285D02*
X93827844Y-28904761D01*
X93887368Y-28809523D01*
X93940939Y-28761904D01*
X94042130Y-28714285D01*
X94184987Y-28714285D01*
X94274273Y-28761904D01*
X93804034Y-29095238D02*
X93905225Y-29047619D01*
X94095701Y-29047619D01*
X94184987Y-29095238D01*
X94226653Y-29142857D01*
X94262368Y-29238095D01*
X94226653Y-29523809D01*
X94167130Y-29619047D01*
X94113558Y-29666666D01*
X94012368Y-29714285D01*
X93821892Y-29714285D01*
X93732606Y-29666666D01*
X93333796Y-29047619D02*
X93208796Y-30047619D01*
X92905225Y-29047619D02*
X92839749Y-29571428D01*
X92875463Y-29666666D01*
X92964749Y-29714285D01*
X93107606Y-29714285D01*
X93208796Y-29666666D01*
X93262368Y-29619047D01*
X92488558Y-29714285D02*
X92107606Y-29714285D01*
X92304034Y-30047619D02*
X92411177Y-29190476D01*
X92375463Y-29095238D01*
X92286177Y-29047619D01*
X92190939Y-29047619D01*
X91470701Y-29095238D02*
X91571892Y-29047619D01*
X91762368Y-29047619D01*
X91851653Y-29095238D01*
X91887368Y-29190476D01*
X91839749Y-29571428D01*
X91780225Y-29666666D01*
X91679034Y-29714285D01*
X91488558Y-29714285D01*
X91399273Y-29666666D01*
X91363558Y-29571428D01*
X91375463Y-29476190D01*
X91863558Y-29380952D01*
X91000463Y-29047619D02*
X90917130Y-29714285D01*
X90940939Y-29523809D02*
X90881415Y-29619047D01*
X90827844Y-29666666D01*
X90726653Y-29714285D01*
X90631415Y-29714285D01*
X90381415Y-29047619D02*
X90256415Y-30047619D01*
X90304034Y-29666666D02*
X90202844Y-29714285D01*
X90012368Y-29714285D01*
X89923082Y-29666666D01*
X89881415Y-29619047D01*
X89845701Y-29523809D01*
X89881415Y-29238095D01*
X89940939Y-29142857D01*
X89994511Y-29095238D01*
X90095701Y-29047619D01*
X90286177Y-29047619D01*
X90375463Y-29095238D01*
X89333796Y-29047619D02*
X89423082Y-29095238D01*
X89464749Y-29142857D01*
X89500463Y-29238095D01*
X89464749Y-29523809D01*
X89405225Y-29619047D01*
X89351653Y-29666666D01*
X89250463Y-29714285D01*
X89107606Y-29714285D01*
X89018320Y-29666666D01*
X88976653Y-29619047D01*
X88940939Y-29523809D01*
X88976653Y-29238095D01*
X89036177Y-29142857D01*
X89089749Y-29095238D01*
X89190939Y-29047619D01*
X89333796Y-29047619D01*
X88143320Y-29047619D02*
X88077844Y-29571428D01*
X88113558Y-29666666D01*
X88202844Y-29714285D01*
X88393320Y-29714285D01*
X88494511Y-29666666D01*
X88137368Y-29095238D02*
X88238558Y-29047619D01*
X88476653Y-29047619D01*
X88565939Y-29095238D01*
X88601653Y-29190476D01*
X88589749Y-29285714D01*
X88530225Y-29380952D01*
X88429034Y-29428571D01*
X88190939Y-29428571D01*
X88089749Y-29476190D01*
X87667130Y-29047619D02*
X87583796Y-29714285D01*
X87607606Y-29523809D02*
X87548082Y-29619047D01*
X87494511Y-29666666D01*
X87393320Y-29714285D01*
X87298082Y-29714285D01*
X86619511Y-29047619D02*
X86494511Y-30047619D01*
X86613558Y-29095238D02*
X86714749Y-29047619D01*
X86905225Y-29047619D01*
X86994511Y-29095238D01*
X87036177Y-29142857D01*
X87071892Y-29238095D01*
X87036177Y-29523809D01*
X86976653Y-29619047D01*
X86923082Y-29666666D01*
X86821892Y-29714285D01*
X86631415Y-29714285D01*
X86542130Y-29666666D01*
X53842130Y-41747619D02*
X53943320Y-40938095D01*
X53907606Y-40842857D01*
X53865939Y-40795238D01*
X53776653Y-40747619D01*
X53586177Y-40747619D01*
X53484987Y-40795238D01*
X53431415Y-40842857D01*
X53371892Y-40938095D01*
X53270701Y-41747619D01*
X52836177Y-41414285D02*
X52919511Y-40747619D01*
X52848082Y-41319047D02*
X52794511Y-41366666D01*
X52693320Y-41414285D01*
X52550463Y-41414285D01*
X52461177Y-41366666D01*
X52425463Y-41271428D01*
X52490939Y-40747619D01*
X52014749Y-40747619D02*
X51931415Y-41414285D01*
X51889749Y-41747619D02*
X51943320Y-41700000D01*
X51901653Y-41652380D01*
X51848082Y-41700000D01*
X51889749Y-41747619D01*
X51901653Y-41652380D01*
X51598082Y-41414285D02*
X51217130Y-41414285D01*
X51538558Y-40747619D02*
X51431415Y-41604761D01*
X51371892Y-41700000D01*
X51270701Y-41747619D01*
X51175463Y-41747619D01*
X50967130Y-40747619D02*
X50883796Y-41414285D01*
X50907606Y-41223809D02*
X50848082Y-41319047D01*
X50794511Y-41366666D01*
X50693320Y-41414285D01*
X50598082Y-41414285D01*
X50348082Y-40747619D02*
X50264749Y-41414285D01*
X50223082Y-41747619D02*
X50276653Y-41700000D01*
X50234987Y-41652380D01*
X50181415Y-41700000D01*
X50223082Y-41747619D01*
X50234987Y-41652380D01*
X49484987Y-40795238D02*
X49586177Y-40747619D01*
X49776653Y-40747619D01*
X49865939Y-40795238D01*
X49901653Y-40890476D01*
X49854034Y-41271428D01*
X49794511Y-41366666D01*
X49693320Y-41414285D01*
X49502844Y-41414285D01*
X49413558Y-41366666D01*
X49377844Y-41271428D01*
X49389749Y-41176190D01*
X49877844Y-41080952D01*
X48586177Y-40747619D02*
X48461177Y-41747619D01*
X48580225Y-40795238D02*
X48681415Y-40747619D01*
X48871892Y-40747619D01*
X48961177Y-40795238D01*
X49002844Y-40842857D01*
X49038558Y-40938095D01*
X49002844Y-41223809D01*
X48943320Y-41319047D01*
X48889749Y-41366666D01*
X48788558Y-41414285D01*
X48598082Y-41414285D01*
X48508796Y-41366666D01*
X47348082Y-40747619D02*
X47223082Y-41747619D01*
X46984987Y-41747619D01*
X46848082Y-41700000D01*
X46764749Y-41604761D01*
X46729034Y-41509523D01*
X46705225Y-41319047D01*
X46723082Y-41176190D01*
X46794511Y-40985714D01*
X46854034Y-40890476D01*
X46961177Y-40795238D01*
X47109987Y-40747619D01*
X47348082Y-40747619D01*
X45919511Y-40747619D02*
X45854034Y-41271428D01*
X45889749Y-41366666D01*
X45979034Y-41414285D01*
X46169511Y-41414285D01*
X46270701Y-41366666D01*
X45913558Y-40795238D02*
X46014749Y-40747619D01*
X46252844Y-40747619D01*
X46342130Y-40795238D01*
X46377844Y-40890476D01*
X46365939Y-40985714D01*
X46306415Y-41080952D01*
X46205225Y-41128571D01*
X45967130Y-41128571D01*
X45865939Y-41176190D01*
X44931415Y-41414285D02*
X45014749Y-40747619D01*
X45359987Y-41414285D02*
X45425463Y-40890476D01*
X45389749Y-40795238D01*
X45300463Y-40747619D01*
X45157606Y-40747619D01*
X45056415Y-40795238D01*
X45002844Y-40842857D01*
X44026653Y-41414285D02*
X44127844Y-40604761D01*
X44187368Y-40509523D01*
X44240939Y-40461904D01*
X44342130Y-40414285D01*
X44484987Y-40414285D01*
X44574273Y-40461904D01*
X44104034Y-40795238D02*
X44205225Y-40747619D01*
X44395701Y-40747619D01*
X44484987Y-40795238D01*
X44526653Y-40842857D01*
X44562368Y-40938095D01*
X44526653Y-41223809D01*
X44467130Y-41319047D01*
X44413558Y-41366666D01*
X44312368Y-41414285D01*
X44121892Y-41414285D01*
X44032606Y-41366666D01*
X43633796Y-40747619D02*
X43508796Y-41747619D01*
X43205225Y-40747619D02*
X43139749Y-41271428D01*
X43175463Y-41366666D01*
X43264749Y-41414285D01*
X43407606Y-41414285D01*
X43508796Y-41366666D01*
X43562368Y-41319047D01*
X42788558Y-41414285D02*
X42407606Y-41414285D01*
X42604034Y-41747619D02*
X42711177Y-40890476D01*
X42675463Y-40795238D01*
X42586177Y-40747619D01*
X42490939Y-40747619D01*
X41770701Y-40795238D02*
X41871892Y-40747619D01*
X42062368Y-40747619D01*
X42151653Y-40795238D01*
X42187368Y-40890476D01*
X42139749Y-41271428D01*
X42080225Y-41366666D01*
X41979034Y-41414285D01*
X41788558Y-41414285D01*
X41699273Y-41366666D01*
X41663558Y-41271428D01*
X41675463Y-41176190D01*
X42163558Y-41080952D01*
X41300463Y-40747619D02*
X41217130Y-41414285D01*
X41240939Y-41223809D02*
X41181415Y-41319047D01*
X41127844Y-41366666D01*
X41026653Y-41414285D01*
X40931415Y-41414285D01*
X40681415Y-40747619D02*
X40556415Y-41747619D01*
X40604034Y-41366666D02*
X40502844Y-41414285D01*
X40312368Y-41414285D01*
X40223082Y-41366666D01*
X40181415Y-41319047D01*
X40145701Y-41223809D01*
X40181415Y-40938095D01*
X40240939Y-40842857D01*
X40294511Y-40795238D01*
X40395701Y-40747619D01*
X40586177Y-40747619D01*
X40675463Y-40795238D01*
X39633796Y-40747619D02*
X39723082Y-40795238D01*
X39764749Y-40842857D01*
X39800463Y-40938095D01*
X39764749Y-41223809D01*
X39705225Y-41319047D01*
X39651653Y-41366666D01*
X39550463Y-41414285D01*
X39407606Y-41414285D01*
X39318320Y-41366666D01*
X39276653Y-41319047D01*
X39240939Y-41223809D01*
X39276653Y-40938095D01*
X39336177Y-40842857D01*
X39389749Y-40795238D01*
X39490939Y-40747619D01*
X39633796Y-40747619D01*
X38443320Y-40747619D02*
X38377844Y-41271428D01*
X38413558Y-41366666D01*
X38502844Y-41414285D01*
X38693320Y-41414285D01*
X38794511Y-41366666D01*
X38437368Y-40795238D02*
X38538558Y-40747619D01*
X38776653Y-40747619D01*
X38865939Y-40795238D01*
X38901653Y-40890476D01*
X38889749Y-40985714D01*
X38830225Y-41080952D01*
X38729034Y-41128571D01*
X38490939Y-41128571D01*
X38389749Y-41176190D01*
X37967130Y-40747619D02*
X37883796Y-41414285D01*
X37907606Y-41223809D02*
X37848082Y-41319047D01*
X37794511Y-41366666D01*
X37693320Y-41414285D01*
X37598082Y-41414285D01*
X36919511Y-40747619D02*
X36794511Y-41747619D01*
X36913558Y-40795238D02*
X37014749Y-40747619D01*
X37205225Y-40747619D01*
X37294511Y-40795238D01*
X37336177Y-40842857D01*
X37371892Y-40938095D01*
X37336177Y-41223809D01*
X37276653Y-41319047D01*
X37223082Y-41366666D01*
X37121892Y-41414285D01*
X36931415Y-41414285D01*
X36842130Y-41366666D01*
X53842130Y-30047619D02*
X53943320Y-29238095D01*
X53907606Y-29142857D01*
X53865939Y-29095238D01*
X53776653Y-29047619D01*
X53586177Y-29047619D01*
X53484987Y-29095238D01*
X53431415Y-29142857D01*
X53371892Y-29238095D01*
X53270701Y-30047619D01*
X52836177Y-29714285D02*
X52919511Y-29047619D01*
X52848082Y-29619047D02*
X52794511Y-29666666D01*
X52693320Y-29714285D01*
X52550463Y-29714285D01*
X52461177Y-29666666D01*
X52425463Y-29571428D01*
X52490939Y-29047619D01*
X52014749Y-29047619D02*
X51931415Y-29714285D01*
X51889749Y-30047619D02*
X51943320Y-30000000D01*
X51901653Y-29952380D01*
X51848082Y-30000000D01*
X51889749Y-30047619D01*
X51901653Y-29952380D01*
X51598082Y-29714285D02*
X51217130Y-29714285D01*
X51538558Y-29047619D02*
X51431415Y-29904761D01*
X51371892Y-30000000D01*
X51270701Y-30047619D01*
X51175463Y-30047619D01*
X50967130Y-29047619D02*
X50883796Y-29714285D01*
X50907606Y-29523809D02*
X50848082Y-29619047D01*
X50794511Y-29666666D01*
X50693320Y-29714285D01*
X50598082Y-29714285D01*
X50348082Y-29047619D02*
X50264749Y-29714285D01*
X50223082Y-30047619D02*
X50276653Y-30000000D01*
X50234987Y-29952380D01*
X50181415Y-30000000D01*
X50223082Y-30047619D01*
X50234987Y-29952380D01*
X49484987Y-29095238D02*
X49586177Y-29047619D01*
X49776653Y-29047619D01*
X49865939Y-29095238D01*
X49901653Y-29190476D01*
X49854034Y-29571428D01*
X49794511Y-29666666D01*
X49693320Y-29714285D01*
X49502844Y-29714285D01*
X49413558Y-29666666D01*
X49377844Y-29571428D01*
X49389749Y-29476190D01*
X49877844Y-29380952D01*
X48586177Y-29047619D02*
X48461177Y-30047619D01*
X48580225Y-29095238D02*
X48681415Y-29047619D01*
X48871892Y-29047619D01*
X48961177Y-29095238D01*
X49002844Y-29142857D01*
X49038558Y-29238095D01*
X49002844Y-29523809D01*
X48943320Y-29619047D01*
X48889749Y-29666666D01*
X48788558Y-29714285D01*
X48598082Y-29714285D01*
X48508796Y-29666666D01*
X47348082Y-29047619D02*
X47223082Y-30047619D01*
X46984987Y-30047619D01*
X46848082Y-30000000D01*
X46764749Y-29904761D01*
X46729034Y-29809523D01*
X46705225Y-29619047D01*
X46723082Y-29476190D01*
X46794511Y-29285714D01*
X46854034Y-29190476D01*
X46961177Y-29095238D01*
X47109987Y-29047619D01*
X47348082Y-29047619D01*
X45919511Y-29047619D02*
X45854034Y-29571428D01*
X45889749Y-29666666D01*
X45979034Y-29714285D01*
X46169511Y-29714285D01*
X46270701Y-29666666D01*
X45913558Y-29095238D02*
X46014749Y-29047619D01*
X46252844Y-29047619D01*
X46342130Y-29095238D01*
X46377844Y-29190476D01*
X46365939Y-29285714D01*
X46306415Y-29380952D01*
X46205225Y-29428571D01*
X45967130Y-29428571D01*
X45865939Y-29476190D01*
X44931415Y-29714285D02*
X45014749Y-29047619D01*
X45359987Y-29714285D02*
X45425463Y-29190476D01*
X45389749Y-29095238D01*
X45300463Y-29047619D01*
X45157606Y-29047619D01*
X45056415Y-29095238D01*
X45002844Y-29142857D01*
X44026653Y-29714285D02*
X44127844Y-28904761D01*
X44187368Y-28809523D01*
X44240939Y-28761904D01*
X44342130Y-28714285D01*
X44484987Y-28714285D01*
X44574273Y-28761904D01*
X44104034Y-29095238D02*
X44205225Y-29047619D01*
X44395701Y-29047619D01*
X44484987Y-29095238D01*
X44526653Y-29142857D01*
X44562368Y-29238095D01*
X44526653Y-29523809D01*
X44467130Y-29619047D01*
X44413558Y-29666666D01*
X44312368Y-29714285D01*
X44121892Y-29714285D01*
X44032606Y-29666666D01*
X43633796Y-29047619D02*
X43508796Y-30047619D01*
X43205225Y-29047619D02*
X43139749Y-29571428D01*
X43175463Y-29666666D01*
X43264749Y-29714285D01*
X43407606Y-29714285D01*
X43508796Y-29666666D01*
X43562368Y-29619047D01*
X42788558Y-29714285D02*
X42407606Y-29714285D01*
X42604034Y-30047619D02*
X42711177Y-29190476D01*
X42675463Y-29095238D01*
X42586177Y-29047619D01*
X42490939Y-29047619D01*
X41770701Y-29095238D02*
X41871892Y-29047619D01*
X42062368Y-29047619D01*
X42151653Y-29095238D01*
X42187368Y-29190476D01*
X42139749Y-29571428D01*
X42080225Y-29666666D01*
X41979034Y-29714285D01*
X41788558Y-29714285D01*
X41699273Y-29666666D01*
X41663558Y-29571428D01*
X41675463Y-29476190D01*
X42163558Y-29380952D01*
X41300463Y-29047619D02*
X41217130Y-29714285D01*
X41240939Y-29523809D02*
X41181415Y-29619047D01*
X41127844Y-29666666D01*
X41026653Y-29714285D01*
X40931415Y-29714285D01*
X40681415Y-29047619D02*
X40556415Y-30047619D01*
X40604034Y-29666666D02*
X40502844Y-29714285D01*
X40312368Y-29714285D01*
X40223082Y-29666666D01*
X40181415Y-29619047D01*
X40145701Y-29523809D01*
X40181415Y-29238095D01*
X40240939Y-29142857D01*
X40294511Y-29095238D01*
X40395701Y-29047619D01*
X40586177Y-29047619D01*
X40675463Y-29095238D01*
X39633796Y-29047619D02*
X39723082Y-29095238D01*
X39764749Y-29142857D01*
X39800463Y-29238095D01*
X39764749Y-29523809D01*
X39705225Y-29619047D01*
X39651653Y-29666666D01*
X39550463Y-29714285D01*
X39407606Y-29714285D01*
X39318320Y-29666666D01*
X39276653Y-29619047D01*
X39240939Y-29523809D01*
X39276653Y-29238095D01*
X39336177Y-29142857D01*
X39389749Y-29095238D01*
X39490939Y-29047619D01*
X39633796Y-29047619D01*
X38443320Y-29047619D02*
X38377844Y-29571428D01*
X38413558Y-29666666D01*
X38502844Y-29714285D01*
X38693320Y-29714285D01*
X38794511Y-29666666D01*
X38437368Y-29095238D02*
X38538558Y-29047619D01*
X38776653Y-29047619D01*
X38865939Y-29095238D01*
X38901653Y-29190476D01*
X38889749Y-29285714D01*
X38830225Y-29380952D01*
X38729034Y-29428571D01*
X38490939Y-29428571D01*
X38389749Y-29476190D01*
X37967130Y-29047619D02*
X37883796Y-29714285D01*
X37907606Y-29523809D02*
X37848082Y-29619047D01*
X37794511Y-29666666D01*
X37693320Y-29714285D01*
X37598082Y-29714285D01*
X36919511Y-29047619D02*
X36794511Y-30047619D01*
X36913558Y-29095238D02*
X37014749Y-29047619D01*
X37205225Y-29047619D01*
X37294511Y-29095238D01*
X37336177Y-29142857D01*
X37371892Y-29238095D01*
X37336177Y-29523809D01*
X37276653Y-29619047D01*
X37223082Y-29666666D01*
X37121892Y-29714285D01*
X36931415Y-29714285D01*
X36842130Y-29666666D01*
%LPC*%
D11*
%TO.C,J1*%
X92158648Y-109650000D03*
X97938648Y-109650000D03*
D12*
X99368648Y-109120000D03*
X90728648Y-109120000D03*
D13*
X90728648Y-113300000D03*
X99368648Y-113300000D03*
%TD*%
D11*
%TO.C,J1*%
X42458648Y-109650000D03*
X48238648Y-109650000D03*
D12*
X49668648Y-109120000D03*
X41028648Y-109120000D03*
D13*
X41028648Y-113300000D03*
X49668648Y-113300000D03*
%TD*%
D11*
%TO.C,J1*%
X92158648Y-97950000D03*
X97938648Y-97950000D03*
D12*
X99368648Y-97420000D03*
X90728648Y-97420000D03*
D13*
X90728648Y-101600000D03*
X99368648Y-101600000D03*
%TD*%
D11*
%TO.C,J1*%
X42458648Y-97950000D03*
X48238648Y-97950000D03*
D12*
X49668648Y-97420000D03*
X41028648Y-97420000D03*
D13*
X41028648Y-101600000D03*
X49668648Y-101600000D03*
%TD*%
D11*
%TO.C,J1*%
X92158648Y-86250000D03*
X97938648Y-86250000D03*
D12*
X99368648Y-85720000D03*
X90728648Y-85720000D03*
D13*
X90728648Y-89900000D03*
X99368648Y-89900000D03*
%TD*%
D11*
%TO.C,J1*%
X42458648Y-86250000D03*
X48238648Y-86250000D03*
D12*
X49668648Y-85720000D03*
X41028648Y-85720000D03*
D13*
X41028648Y-89900000D03*
X49668648Y-89900000D03*
%TD*%
D11*
%TO.C,J1*%
X92158648Y-74550000D03*
X97938648Y-74550000D03*
D12*
X99368648Y-74020000D03*
X90728648Y-74020000D03*
D13*
X90728648Y-78200000D03*
X99368648Y-78200000D03*
%TD*%
D11*
%TO.C,J1*%
X42458648Y-74550000D03*
X48238648Y-74550000D03*
D12*
X49668648Y-74020000D03*
X41028648Y-74020000D03*
D13*
X41028648Y-78200000D03*
X49668648Y-78200000D03*
%TD*%
D11*
%TO.C,J1*%
X92158648Y-62850000D03*
X97938648Y-62850000D03*
D12*
X99368648Y-62320000D03*
X90728648Y-62320000D03*
D13*
X90728648Y-66500000D03*
X99368648Y-66500000D03*
%TD*%
D11*
%TO.C,J1*%
X42458648Y-62850000D03*
X48238648Y-62850000D03*
D12*
X49668648Y-62320000D03*
X41028648Y-62320000D03*
D13*
X41028648Y-66500000D03*
X49668648Y-66500000D03*
%TD*%
D11*
%TO.C,J1*%
X92158648Y-51150000D03*
X97938648Y-51150000D03*
D12*
X99368648Y-50620000D03*
X90728648Y-50620000D03*
D13*
X90728648Y-54800000D03*
X99368648Y-54800000D03*
%TD*%
D11*
%TO.C,J1*%
X42458648Y-51150000D03*
X48238648Y-51150000D03*
D12*
X49668648Y-50620000D03*
X41028648Y-50620000D03*
D13*
X41028648Y-54800000D03*
X49668648Y-54800000D03*
%TD*%
D11*
%TO.C,J1*%
X92158648Y-39450000D03*
X97938648Y-39450000D03*
D12*
X99368648Y-38920000D03*
X90728648Y-38920000D03*
D13*
X90728648Y-43100000D03*
X99368648Y-43100000D03*
%TD*%
D11*
%TO.C,J1*%
X42458648Y-39450000D03*
X48238648Y-39450000D03*
D12*
X49668648Y-38920000D03*
X41028648Y-38920000D03*
D13*
X41028648Y-43100000D03*
X49668648Y-43100000D03*
%TD*%
D11*
%TO.C,J1*%
X92158648Y-27750000D03*
X97938648Y-27750000D03*
D12*
X99368648Y-27220000D03*
X90728648Y-27220000D03*
D13*
X90728648Y-31400000D03*
X99368648Y-31400000D03*
%TD*%
%TO.C,J1*%
X49668648Y-31400000D03*
X41028648Y-31400000D03*
D12*
X41028648Y-27220000D03*
X49668648Y-27220000D03*
D11*
X48238648Y-27750000D03*
X42458648Y-27750000D03*
%TD*%
D14*
%TO.C,REF\u002A\u002A*%
X24029255Y-52259398D03*
%TD*%
%TO.C,REF\u002A\u002A*%
X125111580Y-24000000D03*
%TD*%
%TO.C,REF\u002A\u002A*%
X87765765Y-82500000D03*
%TD*%
%TO.C,REF\u002A\u002A*%
X104331530Y-67800000D03*
%TD*%
%TO.C,REF\u002A\u002A*%
X41065765Y-47400000D03*
%TD*%
%TO.C,REF\u002A\u002A*%
X40065765Y-32700000D03*
%TD*%
%TO.C,REF\u002A\u002A*%
X73729255Y-63959398D03*
%TD*%
%TO.C,REF\u002A\u002A*%
X24000000Y-15857142D03*
%TD*%
%TO.C,REF\u002A\u002A*%
X53631530Y-79500000D03*
%TD*%
%TO.C,REF\u002A\u002A*%
X106331530Y-32700000D03*
%TD*%
%TO.C,REF\u002A\u002A*%
X39065765Y-114600000D03*
%TD*%
%TO.C,REF\u002A\u002A*%
X103331530Y-32700000D03*
%TD*%
%TO.C,REF\u002A\u002A*%
X53631530Y-114600000D03*
%TD*%
%TO.C,REF\u002A\u002A*%
X120130427Y-73650000D03*
%TD*%
%TO.C,REF\u002A\u002A*%
X70668040Y-75659398D03*
%TD*%
%TO.C,REF\u002A\u002A*%
X54631530Y-91200000D03*
%TD*%
%TO.C,REF\u002A\u002A*%
X105331530Y-24000000D03*
%TD*%
%TO.C,REF\u002A\u002A*%
X70668040Y-99059398D03*
%TD*%
D15*
%TO.C,MH2*%
X75648648Y-110250000D03*
X79745704Y-111947056D03*
X80448648Y-110250000D03*
D16*
X78048648Y-110250000D03*
D15*
X78048648Y-112650000D03*
X78048648Y-107850000D03*
X76351592Y-108552944D03*
X76351592Y-111947056D03*
X79745704Y-108552944D03*
%TD*%
D14*
%TO.C,REF\u002A\u002A*%
X125968723Y-114600000D03*
%TD*%
%TO.C,REF\u002A\u002A*%
X18428571Y-24000000D03*
%TD*%
%TO.C,REF\u002A\u002A*%
X24266868Y-29850000D03*
%TD*%
%TO.C,REF\u002A\u002A*%
X41065765Y-32700000D03*
%TD*%
D16*
%TO.C,MH1*%
X116048648Y-63450000D03*
D15*
X116048648Y-65850000D03*
X118448648Y-63450000D03*
X114351592Y-65147056D03*
X114351592Y-61752944D03*
X117745704Y-65147056D03*
X113648648Y-63450000D03*
X116048648Y-61050000D03*
X117745704Y-61752944D03*
%TD*%
D14*
%TO.C,REF\u002A\u002A*%
X56631530Y-105900000D03*
%TD*%
%TO.C,REF\u002A\u002A*%
X120368040Y-75659398D03*
%TD*%
%TO.C,REF\u002A\u002A*%
X90765765Y-67800000D03*
%TD*%
%TO.C,REF\u002A\u002A*%
X120130427Y-50250000D03*
%TD*%
D15*
%TO.C,MH2*%
X30045704Y-73452944D03*
X30045704Y-76847056D03*
X26651592Y-76847056D03*
X28348648Y-77550000D03*
X30748648Y-75150000D03*
X28348648Y-72750000D03*
X26651592Y-73452944D03*
X25948648Y-75150000D03*
D16*
X28348648Y-75150000D03*
%TD*%
D14*
%TO.C,REF\u002A\u002A*%
X53631530Y-59100000D03*
%TD*%
%TO.C,REF\u002A\u002A*%
X70668040Y-27840601D03*
%TD*%
%TO.C,REF\u002A\u002A*%
X24000000Y-16714285D03*
%TD*%
%TO.C,REF\u002A\u002A*%
X90765765Y-105900000D03*
%TD*%
%TO.C,REF\u002A\u002A*%
X88765765Y-32700000D03*
%TD*%
%TO.C,REF\u002A\u002A*%
X70430427Y-100050000D03*
%TD*%
%TO.C,REF\u002A\u002A*%
X120368040Y-74640601D03*
%TD*%
%TO.C,REF\u002A\u002A*%
X120130427Y-111750000D03*
%TD*%
%TO.C,REF\u002A\u002A*%
X105331530Y-102900000D03*
%TD*%
D15*
%TO.C,MH2*%
X78048648Y-49350000D03*
X79745704Y-53447056D03*
X75648648Y-51750000D03*
X76351592Y-50052944D03*
X80448648Y-51750000D03*
X79745704Y-50052944D03*
X76351592Y-53447056D03*
D16*
X78048648Y-51750000D03*
D15*
X78048648Y-54150000D03*
%TD*%
D14*
%TO.C,REF\u002A\u002A*%
X56631530Y-32700000D03*
%TD*%
%TO.C,REF\u002A\u002A*%
X70430427Y-53250000D03*
%TD*%
%TO.C,REF\u002A\u002A*%
X40065765Y-56100000D03*
%TD*%
D15*
%TO.C,MH1*%
X66348648Y-61050000D03*
D16*
X66348648Y-63450000D03*
D15*
X64651592Y-65147056D03*
X68045704Y-61752944D03*
X66348648Y-65850000D03*
X68748648Y-63450000D03*
X68045704Y-65147056D03*
X63948648Y-63450000D03*
X64651592Y-61752944D03*
%TD*%
%TO.C,MH2*%
X30748648Y-28350000D03*
X30045704Y-26652944D03*
X25948648Y-28350000D03*
X26651592Y-30047056D03*
X26651592Y-26652944D03*
X30045704Y-30047056D03*
X28348648Y-25950000D03*
D16*
X28348648Y-28350000D03*
D15*
X28348648Y-30750000D03*
%TD*%
D14*
%TO.C,REF\u002A\u002A*%
X88765765Y-35700000D03*
%TD*%
%TO.C,REF\u002A\u002A*%
X120368040Y-99059398D03*
%TD*%
D15*
%TO.C,MH1*%
X118448648Y-28350000D03*
X116048648Y-25950000D03*
X114351592Y-26652944D03*
X116048648Y-30750000D03*
X113648648Y-28350000D03*
X117745704Y-30047056D03*
X114351592Y-30047056D03*
D16*
X116048648Y-28350000D03*
D15*
X117745704Y-26652944D03*
%TD*%
%TO.C,MH1*%
X68045704Y-85152944D03*
X68045704Y-88547056D03*
D16*
X66348648Y-86850000D03*
D15*
X63948648Y-86850000D03*
X66348648Y-84450000D03*
X66348648Y-89250000D03*
X64651592Y-85152944D03*
X68748648Y-86850000D03*
X64651592Y-88547056D03*
%TD*%
D14*
%TO.C,REF\u002A\u002A*%
X40065765Y-59100000D03*
%TD*%
%TO.C,REF\u002A\u002A*%
X89765765Y-114600000D03*
%TD*%
%TO.C,REF\u002A\u002A*%
X24000000Y-18428571D03*
%TD*%
%TO.C,REF\u002A\u002A*%
X120130427Y-61950000D03*
%TD*%
%TO.C,REF\u002A\u002A*%
X24000000Y-19285714D03*
%TD*%
%TO.C,REF\u002A\u002A*%
X40065765Y-102900000D03*
%TD*%
%TO.C,REF\u002A\u002A*%
X40065765Y-82500000D03*
%TD*%
%TO.C,REF\u002A\u002A*%
X24029255Y-99059398D03*
%TD*%
%TO.C,REF\u002A\u002A*%
X38065765Y-70800000D03*
%TD*%
%TO.C,REF\u002A\u002A*%
X40065765Y-91200000D03*
%TD*%
%TO.C,REF\u002A\u002A*%
X120368040Y-40559398D03*
%TD*%
%TO.C,REF\u002A\u002A*%
X90765765Y-44400000D03*
%TD*%
%TO.C,REF\u002A\u002A*%
X73966868Y-53250000D03*
%TD*%
%TO.C,REF\u002A\u002A*%
X56631530Y-79500000D03*
%TD*%
%TO.C,REF\u002A\u002A*%
X120368040Y-110759398D03*
%TD*%
D15*
%TO.C,MH2*%
X76351592Y-96852944D03*
X75648648Y-98550000D03*
X78048648Y-96150000D03*
X79745704Y-100247056D03*
D16*
X78048648Y-98550000D03*
D15*
X79745704Y-96852944D03*
X76351592Y-100247056D03*
X78048648Y-100950000D03*
X80448648Y-98550000D03*
%TD*%
D14*
%TO.C,REF\u002A\u002A*%
X126825866Y-24000000D03*
%TD*%
%TO.C,REF\u002A\u002A*%
X73966868Y-108750000D03*
%TD*%
%TO.C,REF\u002A\u002A*%
X103331530Y-114600000D03*
%TD*%
%TO.C,REF\u002A\u002A*%
X54631530Y-94200000D03*
%TD*%
D15*
%TO.C,MH2*%
X26651592Y-85152944D03*
X30045704Y-85152944D03*
X26651592Y-88547056D03*
X30748648Y-86850000D03*
X30045704Y-88547056D03*
X25948648Y-86850000D03*
D16*
X28348648Y-86850000D03*
D15*
X28348648Y-89250000D03*
X28348648Y-84450000D03*
%TD*%
D14*
%TO.C,REF\u002A\u002A*%
X120397295Y-122742857D03*
%TD*%
%TO.C,REF\u002A\u002A*%
X104331530Y-102900000D03*
%TD*%
%TO.C,REF\u002A\u002A*%
X55631530Y-35700000D03*
%TD*%
%TO.C,REF\u002A\u002A*%
X38065765Y-114600000D03*
%TD*%
%TO.C,REF\u002A\u002A*%
X120397295Y-15857142D03*
%TD*%
%TO.C,REF\u002A\u002A*%
X56631530Y-47400000D03*
%TD*%
%TO.C,REF\u002A\u002A*%
X89765765Y-79500000D03*
%TD*%
%TO.C,REF\u002A\u002A*%
X40065765Y-44400000D03*
%TD*%
%TO.C,REF\u002A\u002A*%
X55631530Y-47400000D03*
%TD*%
D15*
%TO.C,MH2*%
X76351592Y-85152944D03*
X80448648Y-86850000D03*
X78048648Y-84450000D03*
X79745704Y-88547056D03*
X75648648Y-86850000D03*
D16*
X78048648Y-86850000D03*
D15*
X78048648Y-89250000D03*
X76351592Y-88547056D03*
X79745704Y-85152944D03*
%TD*%
D14*
%TO.C,REF\u002A\u002A*%
X87765765Y-59100000D03*
%TD*%
%TO.C,REF\u002A\u002A*%
X87765765Y-35700000D03*
%TD*%
%TO.C,REF\u002A\u002A*%
X103331530Y-35700000D03*
%TD*%
%TO.C,REF\u002A\u002A*%
X54631530Y-59100000D03*
%TD*%
%TO.C,REF\u002A\u002A*%
X24000000Y-119314285D03*
%TD*%
%TO.C,REF\u002A\u002A*%
X129397295Y-114600000D03*
%TD*%
D15*
%TO.C,MH1*%
X113648648Y-75150000D03*
X116048648Y-77550000D03*
X116048648Y-72750000D03*
X114351592Y-73452944D03*
X117745704Y-76847056D03*
D16*
X116048648Y-75150000D03*
D15*
X114351592Y-76847056D03*
X117745704Y-73452944D03*
X118448648Y-75150000D03*
%TD*%
D14*
%TO.C,REF\u002A\u002A*%
X56631530Y-24000000D03*
%TD*%
%TO.C,REF\u002A\u002A*%
X89765765Y-105900000D03*
%TD*%
D15*
%TO.C,MH2*%
X26651592Y-65147056D03*
X25948648Y-63450000D03*
X30748648Y-63450000D03*
D16*
X28348648Y-63450000D03*
D15*
X28348648Y-61050000D03*
X26651592Y-61752944D03*
X30045704Y-65147056D03*
X28348648Y-65850000D03*
X30045704Y-61752944D03*
%TD*%
D14*
%TO.C,REF\u002A\u002A*%
X90765765Y-32700000D03*
%TD*%
%TO.C,REF\u002A\u002A*%
X104331530Y-35700000D03*
%TD*%
%TO.C,REF\u002A\u002A*%
X24029255Y-51240601D03*
%TD*%
D16*
%TO.C,MH1*%
X116048648Y-110250000D03*
D15*
X117745704Y-111947056D03*
X113648648Y-110250000D03*
X116048648Y-112650000D03*
X114351592Y-111947056D03*
X116048648Y-107850000D03*
X117745704Y-108552944D03*
X114351592Y-108552944D03*
X118448648Y-110250000D03*
%TD*%
D14*
%TO.C,REF\u002A\u002A*%
X55631530Y-56100000D03*
%TD*%
%TO.C,REF\u002A\u002A*%
X90765765Y-79500000D03*
%TD*%
%TO.C,REF\u002A\u002A*%
X120397295Y-121028571D03*
%TD*%
D15*
%TO.C,MH1*%
X116048648Y-89250000D03*
X118448648Y-86850000D03*
X114351592Y-85152944D03*
X116048648Y-84450000D03*
X113648648Y-86850000D03*
X117745704Y-85152944D03*
D16*
X116048648Y-86850000D03*
D15*
X114351592Y-88547056D03*
X117745704Y-88547056D03*
%TD*%
D14*
%TO.C,REF\u002A\u002A*%
X70430427Y-85350000D03*
%TD*%
%TO.C,REF\u002A\u002A*%
X55631530Y-67800000D03*
%TD*%
%TO.C,REF\u002A\u002A*%
X120368040Y-27840601D03*
%TD*%
%TO.C,REF\u002A\u002A*%
X90765765Y-70800000D03*
%TD*%
%TO.C,REF\u002A\u002A*%
X106331530Y-59100000D03*
%TD*%
%TO.C,REF\u002A\u002A*%
X73729255Y-86340601D03*
%TD*%
%TO.C,REF\u002A\u002A*%
X120130427Y-76650000D03*
%TD*%
%TO.C,REF\u002A\u002A*%
X73729255Y-39540601D03*
%TD*%
%TO.C,REF\u002A\u002A*%
X87765765Y-102900000D03*
%TD*%
%TO.C,REF\u002A\u002A*%
X55631530Y-32700000D03*
%TD*%
%TO.C,REF\u002A\u002A*%
X106331530Y-102900000D03*
%TD*%
%TO.C,REF\u002A\u002A*%
X90765765Y-56100000D03*
%TD*%
%TO.C,REF\u002A\u002A*%
X55631530Y-102900000D03*
%TD*%
%TO.C,REF\u002A\u002A*%
X120368040Y-87359398D03*
%TD*%
%TO.C,REF\u002A\u002A*%
X73729255Y-75659398D03*
%TD*%
D15*
%TO.C,MH2*%
X28348648Y-100950000D03*
X26651592Y-100247056D03*
D16*
X28348648Y-98550000D03*
D15*
X25948648Y-98550000D03*
X26651592Y-96852944D03*
X30045704Y-100247056D03*
X28348648Y-96150000D03*
X30045704Y-96852944D03*
X30748648Y-98550000D03*
%TD*%
D14*
%TO.C,REF\u002A\u002A*%
X87765765Y-56100000D03*
%TD*%
%TO.C,REF\u002A\u002A*%
X24266868Y-111750000D03*
%TD*%
%TO.C,REF\u002A\u002A*%
X55631530Y-105900000D03*
%TD*%
%TO.C,REF\u002A\u002A*%
X123397295Y-114600000D03*
%TD*%
%TO.C,REF\u002A\u002A*%
X39065765Y-67800000D03*
%TD*%
D16*
%TO.C,MH2*%
X78048648Y-75150000D03*
D15*
X75648648Y-75150000D03*
X79745704Y-73452944D03*
X76351592Y-76847056D03*
X76351592Y-73452944D03*
X78048648Y-72750000D03*
X79745704Y-76847056D03*
X78048648Y-77550000D03*
X80448648Y-75150000D03*
%TD*%
D14*
%TO.C,REF\u002A\u002A*%
X106331530Y-114600000D03*
%TD*%
%TO.C,REF\u002A\u002A*%
X104331530Y-44400000D03*
%TD*%
%TO.C,REF\u002A\u002A*%
X120130427Y-64950000D03*
%TD*%
%TO.C,REF\u002A\u002A*%
X120130427Y-100050000D03*
%TD*%
%TO.C,REF\u002A\u002A*%
X90765765Y-94200000D03*
%TD*%
%TO.C,REF\u002A\u002A*%
X40065765Y-94200000D03*
%TD*%
%TO.C,REF\u002A\u002A*%
X120397295Y-15000000D03*
%TD*%
%TO.C,REF\u002A\u002A*%
X106331530Y-67800000D03*
%TD*%
%TO.C,REF\u002A\u002A*%
X70430427Y-41550000D03*
%TD*%
%TO.C,REF\u002A\u002A*%
X56631530Y-67800000D03*
%TD*%
%TO.C,REF\u002A\u002A*%
X41065765Y-44400000D03*
%TD*%
%TO.C,REF\u002A\u002A*%
X88765765Y-82500000D03*
%TD*%
%TO.C,REF\u002A\u002A*%
X90765765Y-102900000D03*
%TD*%
%TO.C,REF\u002A\u002A*%
X105331530Y-105900000D03*
%TD*%
%TO.C,REF\u002A\u002A*%
X54631530Y-67800000D03*
%TD*%
%TO.C,REF\u002A\u002A*%
X70668040Y-110759398D03*
%TD*%
%TO.C,REF\u002A\u002A*%
X40065765Y-35700000D03*
%TD*%
%TO.C,REF\u002A\u002A*%
X24029255Y-27840601D03*
%TD*%
%TO.C,REF\u002A\u002A*%
X88765765Y-105900000D03*
%TD*%
%TO.C,REF\u002A\u002A*%
X24266868Y-64950000D03*
%TD*%
%TO.C,REF\u002A\u002A*%
X106331530Y-47400000D03*
%TD*%
%TO.C,REF\u002A\u002A*%
X124254437Y-114600000D03*
%TD*%
%TO.C,REF\u002A\u002A*%
X73966868Y-29850000D03*
%TD*%
%TO.C,REF\u002A\u002A*%
X104331530Y-82500000D03*
%TD*%
%TO.C,REF\u002A\u002A*%
X41065765Y-59100000D03*
%TD*%
%TO.C,REF\u002A\u002A*%
X120130427Y-38550000D03*
%TD*%
%TO.C,REF\u002A\u002A*%
X21000000Y-24000000D03*
%TD*%
%TO.C,REF\u002A\u002A*%
X73729255Y-99059398D03*
%TD*%
%TO.C,REF\u002A\u002A*%
X120397295Y-123600000D03*
%TD*%
%TO.C,REF\u002A\u002A*%
X124254437Y-24000000D03*
%TD*%
%TO.C,REF\u002A\u002A*%
X24000000Y-121028571D03*
%TD*%
%TO.C,REF\u002A\u002A*%
X70668040Y-86340601D03*
%TD*%
%TO.C,REF\u002A\u002A*%
X38065765Y-79500000D03*
%TD*%
%TO.C,REF\u002A\u002A*%
X24266868Y-38550000D03*
%TD*%
%TO.C,REF\u002A\u002A*%
X53631530Y-56100000D03*
%TD*%
%TO.C,REF\u002A\u002A*%
X73729255Y-109740601D03*
%TD*%
%TO.C,REF\u002A\u002A*%
X104331530Y-59100000D03*
%TD*%
%TO.C,REF\u002A\u002A*%
X40065765Y-47400000D03*
%TD*%
%TO.C,REF\u002A\u002A*%
X90765765Y-91200000D03*
%TD*%
%TO.C,REF\u002A\u002A*%
X120368040Y-28859398D03*
%TD*%
%TO.C,REF\u002A\u002A*%
X54631530Y-35700000D03*
%TD*%
%TO.C,REF\u002A\u002A*%
X56631530Y-56100000D03*
%TD*%
%TO.C,REF\u002A\u002A*%
X103331530Y-24000000D03*
%TD*%
%TO.C,REF\u002A\u002A*%
X89765765Y-44400000D03*
%TD*%
%TO.C,REF\u002A\u002A*%
X120397295Y-16714285D03*
%TD*%
%TO.C,REF\u002A\u002A*%
X21000000Y-114600000D03*
%TD*%
%TO.C,REF\u002A\u002A*%
X87765765Y-67800000D03*
%TD*%
%TO.C,REF\u002A\u002A*%
X70430427Y-38550000D03*
%TD*%
%TO.C,REF\u002A\u002A*%
X120130427Y-53250000D03*
%TD*%
%TO.C,REF\u002A\u002A*%
X88765765Y-24000000D03*
%TD*%
%TO.C,REF\u002A\u002A*%
X73966868Y-64950000D03*
%TD*%
%TO.C,REF\u002A\u002A*%
X127683009Y-114600000D03*
%TD*%
%TO.C,REF\u002A\u002A*%
X88765765Y-79500000D03*
%TD*%
%TO.C,REF\u002A\u002A*%
X73729255Y-40559398D03*
%TD*%
%TO.C,REF\u002A\u002A*%
X24000000Y-122742857D03*
%TD*%
%TO.C,REF\u002A\u002A*%
X54631530Y-24000000D03*
%TD*%
%TO.C,REF\u002A\u002A*%
X53631530Y-91200000D03*
%TD*%
%TO.C,REF\u002A\u002A*%
X103331530Y-94200000D03*
%TD*%
%TO.C,REF\u002A\u002A*%
X24266868Y-100050000D03*
%TD*%
%TO.C,REF\u002A\u002A*%
X103331530Y-47400000D03*
%TD*%
%TO.C,REF\u002A\u002A*%
X40065765Y-114600000D03*
%TD*%
%TO.C,REF\u002A\u002A*%
X55631530Y-79500000D03*
%TD*%
%TO.C,REF\u002A\u002A*%
X40065765Y-70800000D03*
%TD*%
%TO.C,REF\u002A\u002A*%
X56631530Y-35700000D03*
%TD*%
%TO.C,REF\u002A\u002A*%
X24266868Y-97050000D03*
%TD*%
D15*
%TO.C,MH1*%
X66348648Y-42450000D03*
X68045704Y-41747056D03*
X64651592Y-38352944D03*
D16*
X66348648Y-40050000D03*
D15*
X63948648Y-40050000D03*
X68045704Y-38352944D03*
X64651592Y-41747056D03*
X66348648Y-37650000D03*
X68748648Y-40050000D03*
%TD*%
%TO.C,MH1*%
X116048648Y-42450000D03*
X113648648Y-40050000D03*
X117745704Y-38352944D03*
D16*
X116048648Y-40050000D03*
D15*
X118448648Y-40050000D03*
X116048648Y-37650000D03*
X114351592Y-41747056D03*
X114351592Y-38352944D03*
X117745704Y-41747056D03*
%TD*%
D14*
%TO.C,REF\u002A\u002A*%
X104331530Y-94200000D03*
%TD*%
%TO.C,REF\u002A\u002A*%
X120397295Y-21000000D03*
%TD*%
%TO.C,REF\u002A\u002A*%
X105331530Y-35700000D03*
%TD*%
%TO.C,REF\u002A\u002A*%
X120368040Y-98040601D03*
%TD*%
%TO.C,REF\u002A\u002A*%
X53631530Y-35700000D03*
%TD*%
%TO.C,REF\u002A\u002A*%
X54631530Y-82500000D03*
%TD*%
%TO.C,REF\u002A\u002A*%
X20142857Y-114600000D03*
%TD*%
%TO.C,REF\u002A\u002A*%
X127683009Y-24000000D03*
%TD*%
%TO.C,REF\u002A\u002A*%
X90765765Y-114600000D03*
%TD*%
%TO.C,REF\u002A\u002A*%
X55631530Y-70800000D03*
%TD*%
%TO.C,REF\u002A\u002A*%
X41065765Y-105900000D03*
%TD*%
%TO.C,REF\u002A\u002A*%
X38065765Y-59100000D03*
%TD*%
%TO.C,REF\u002A\u002A*%
X38065765Y-35700000D03*
%TD*%
%TO.C,REF\u002A\u002A*%
X17571428Y-114600000D03*
%TD*%
%TO.C,REF\u002A\u002A*%
X41065765Y-94200000D03*
%TD*%
%TO.C,REF\u002A\u002A*%
X70430427Y-76650000D03*
%TD*%
%TO.C,REF\u002A\u002A*%
X120397295Y-20142857D03*
%TD*%
%TO.C,REF\u002A\u002A*%
X53631530Y-24000000D03*
%TD*%
%TO.C,REF\u002A\u002A*%
X88765765Y-44400000D03*
%TD*%
%TO.C,REF\u002A\u002A*%
X41065765Y-70800000D03*
%TD*%
%TO.C,REF\u002A\u002A*%
X24000000Y-20142857D03*
%TD*%
%TO.C,REF\u002A\u002A*%
X120397295Y-118457142D03*
%TD*%
%TO.C,REF\u002A\u002A*%
X55631530Y-114600000D03*
%TD*%
%TO.C,REF\u002A\u002A*%
X16714285Y-24000000D03*
%TD*%
%TO.C,REF\u002A\u002A*%
X24029255Y-28859398D03*
%TD*%
%TO.C,REF\u002A\u002A*%
X73966868Y-97050000D03*
%TD*%
%TO.C,REF\u002A\u002A*%
X73966868Y-100050000D03*
%TD*%
%TO.C,REF\u002A\u002A*%
X120368040Y-63959398D03*
%TD*%
%TO.C,REF\u002A\u002A*%
X38065765Y-67800000D03*
%TD*%
%TO.C,REF\u002A\u002A*%
X105331530Y-94200000D03*
%TD*%
%TO.C,REF\u002A\u002A*%
X24000000Y-121885714D03*
%TD*%
%TO.C,REF\u002A\u002A*%
X89765765Y-56100000D03*
%TD*%
%TO.C,REF\u002A\u002A*%
X54631530Y-105900000D03*
%TD*%
%TO.C,REF\u002A\u002A*%
X24029255Y-40559398D03*
%TD*%
%TO.C,REF\u002A\u002A*%
X70668040Y-39540601D03*
%TD*%
%TO.C,REF\u002A\u002A*%
X41065765Y-67800000D03*
%TD*%
%TO.C,REF\u002A\u002A*%
X24029255Y-74640601D03*
%TD*%
%TO.C,REF\u002A\u002A*%
X105331530Y-91200000D03*
%TD*%
%TO.C,REF\u002A\u002A*%
X104331530Y-79500000D03*
%TD*%
%TO.C,REF\u002A\u002A*%
X120130427Y-29850000D03*
%TD*%
%TO.C,REF\u002A\u002A*%
X70430427Y-29850000D03*
%TD*%
%TO.C,REF\u002A\u002A*%
X123397295Y-24000000D03*
%TD*%
%TO.C,REF\u002A\u002A*%
X103331530Y-79500000D03*
%TD*%
D15*
%TO.C,MH2*%
X76351592Y-26652944D03*
X79745704Y-26652944D03*
D16*
X78048648Y-28350000D03*
D15*
X76351592Y-30047056D03*
X80448648Y-28350000D03*
X78048648Y-25950000D03*
X79745704Y-30047056D03*
X78048648Y-30750000D03*
X75648648Y-28350000D03*
%TD*%
D14*
%TO.C,REF\u002A\u002A*%
X106331530Y-94200000D03*
%TD*%
%TO.C,REF\u002A\u002A*%
X70668040Y-87359398D03*
%TD*%
D15*
%TO.C,MH1*%
X66348648Y-100950000D03*
X63948648Y-98550000D03*
X64651592Y-96852944D03*
X64651592Y-100247056D03*
X66348648Y-96150000D03*
X68748648Y-98550000D03*
D16*
X66348648Y-98550000D03*
D15*
X68045704Y-100247056D03*
X68045704Y-96852944D03*
%TD*%
%TO.C,MH1*%
X64651592Y-111947056D03*
X68045704Y-108552944D03*
X68748648Y-110250000D03*
X66348648Y-112650000D03*
D16*
X66348648Y-110250000D03*
D15*
X63948648Y-110250000D03*
X66348648Y-107850000D03*
X68045704Y-111947056D03*
X64651592Y-108552944D03*
%TD*%
D14*
%TO.C,REF\u002A\u002A*%
X73966868Y-38550000D03*
%TD*%
%TO.C,REF\u002A\u002A*%
X70668040Y-52259398D03*
%TD*%
%TO.C,REF\u002A\u002A*%
X41065765Y-82500000D03*
%TD*%
%TO.C,REF\u002A\u002A*%
X53631530Y-47400000D03*
%TD*%
%TO.C,REF\u002A\u002A*%
X53631530Y-70800000D03*
%TD*%
%TO.C,REF\u002A\u002A*%
X105331530Y-44400000D03*
%TD*%
%TO.C,REF\u002A\u002A*%
X89765765Y-32700000D03*
%TD*%
%TO.C,REF\u002A\u002A*%
X18428571Y-114600000D03*
%TD*%
%TO.C,REF\u002A\u002A*%
X90765765Y-59100000D03*
%TD*%
%TO.C,REF\u002A\u002A*%
X24029255Y-110759398D03*
%TD*%
%TO.C,REF\u002A\u002A*%
X120368040Y-39540601D03*
%TD*%
%TO.C,REF\u002A\u002A*%
X88765765Y-59100000D03*
%TD*%
%TO.C,REF\u002A\u002A*%
X87765765Y-32700000D03*
%TD*%
%TO.C,REF\u002A\u002A*%
X87765765Y-105900000D03*
%TD*%
%TO.C,REF\u002A\u002A*%
X105331530Y-56100000D03*
%TD*%
%TO.C,REF\u002A\u002A*%
X40065765Y-105900000D03*
%TD*%
%TO.C,REF\u002A\u002A*%
X41065765Y-79500000D03*
%TD*%
%TO.C,REF\u002A\u002A*%
X40065765Y-67800000D03*
%TD*%
%TO.C,REF\u002A\u002A*%
X53631530Y-67800000D03*
%TD*%
D15*
%TO.C,MH2*%
X30045704Y-50052944D03*
X26651592Y-53447056D03*
X25948648Y-51750000D03*
X28348648Y-49350000D03*
X30045704Y-53447056D03*
X28348648Y-54150000D03*
X30748648Y-51750000D03*
X26651592Y-50052944D03*
D16*
X28348648Y-51750000D03*
%TD*%
D14*
%TO.C,REF\u002A\u002A*%
X17571428Y-24000000D03*
%TD*%
%TO.C,REF\u002A\u002A*%
X120130427Y-85350000D03*
%TD*%
%TO.C,REF\u002A\u002A*%
X88765765Y-70800000D03*
%TD*%
%TO.C,REF\u002A\u002A*%
X24266868Y-50250000D03*
%TD*%
%TO.C,REF\u002A\u002A*%
X56631530Y-102900000D03*
%TD*%
%TO.C,REF\u002A\u002A*%
X70430427Y-64950000D03*
%TD*%
%TO.C,REF\u002A\u002A*%
X128540152Y-24000000D03*
%TD*%
%TO.C,REF\u002A\u002A*%
X73966868Y-85350000D03*
%TD*%
%TO.C,REF\u002A\u002A*%
X15000000Y-114600000D03*
%TD*%
%TO.C,REF\u002A\u002A*%
X54631530Y-47400000D03*
%TD*%
%TO.C,REF\u002A\u002A*%
X55631530Y-44400000D03*
%TD*%
%TO.C,REF\u002A\u002A*%
X88765765Y-102900000D03*
%TD*%
%TO.C,REF\u002A\u002A*%
X38065765Y-105900000D03*
%TD*%
%TO.C,REF\u002A\u002A*%
X70430427Y-108750000D03*
%TD*%
%TO.C,REF\u002A\u002A*%
X73966868Y-26850000D03*
%TD*%
%TO.C,REF\u002A\u002A*%
X24029255Y-109740601D03*
%TD*%
%TO.C,REF\u002A\u002A*%
X41065765Y-35700000D03*
%TD*%
%TO.C,REF\u002A\u002A*%
X41065765Y-24000000D03*
%TD*%
%TO.C,REF\u002A\u002A*%
X88765765Y-47400000D03*
%TD*%
%TO.C,REF\u002A\u002A*%
X89765765Y-70800000D03*
%TD*%
%TO.C,REF\u002A\u002A*%
X70668040Y-40559398D03*
%TD*%
%TO.C,REF\u002A\u002A*%
X40065765Y-79500000D03*
%TD*%
%TO.C,REF\u002A\u002A*%
X73729255Y-51240601D03*
%TD*%
%TO.C,REF\u002A\u002A*%
X120130427Y-41550000D03*
%TD*%
%TO.C,REF\u002A\u002A*%
X70430427Y-88350000D03*
%TD*%
D15*
%TO.C,MH2*%
X26651592Y-111947056D03*
X30748648Y-110250000D03*
X30045704Y-108552944D03*
X30045704Y-111947056D03*
D16*
X28348648Y-110250000D03*
D15*
X26651592Y-108552944D03*
X25948648Y-110250000D03*
X28348648Y-112650000D03*
X28348648Y-107850000D03*
%TD*%
D14*
%TO.C,REF\u002A\u002A*%
X104331530Y-24000000D03*
%TD*%
%TO.C,REF\u002A\u002A*%
X120368040Y-62940601D03*
%TD*%
%TO.C,REF\u002A\u002A*%
X106331530Y-24000000D03*
%TD*%
%TO.C,REF\u002A\u002A*%
X73966868Y-111750000D03*
%TD*%
%TO.C,REF\u002A\u002A*%
X88765765Y-56100000D03*
%TD*%
%TO.C,REF\u002A\u002A*%
X87765765Y-24000000D03*
%TD*%
%TO.C,REF\u002A\u002A*%
X54631530Y-32700000D03*
%TD*%
%TO.C,REF\u002A\u002A*%
X89765765Y-47400000D03*
%TD*%
%TO.C,REF\u002A\u002A*%
X89765765Y-59100000D03*
%TD*%
%TO.C,REF\u002A\u002A*%
X104331530Y-32700000D03*
%TD*%
%TO.C,REF\u002A\u002A*%
X38065765Y-24000000D03*
%TD*%
%TO.C,REF\u002A\u002A*%
X105331530Y-32700000D03*
%TD*%
%TO.C,REF\u002A\u002A*%
X104331530Y-105900000D03*
%TD*%
%TO.C,REF\u002A\u002A*%
X120130427Y-97050000D03*
%TD*%
%TO.C,REF\u002A\u002A*%
X15857142Y-114600000D03*
%TD*%
%TO.C,REF\u002A\u002A*%
X24000000Y-123600000D03*
%TD*%
%TO.C,REF\u002A\u002A*%
X56631530Y-94200000D03*
%TD*%
%TO.C,REF\u002A\u002A*%
X19285714Y-114600000D03*
%TD*%
%TO.C,REF\u002A\u002A*%
X120397295Y-18428571D03*
%TD*%
%TO.C,REF\u002A\u002A*%
X39065765Y-56100000D03*
%TD*%
%TO.C,REF\u002A\u002A*%
X105331530Y-47400000D03*
%TD*%
%TO.C,REF\u002A\u002A*%
X24000000Y-120171428D03*
%TD*%
%TO.C,REF\u002A\u002A*%
X106331530Y-82500000D03*
%TD*%
%TO.C,REF\u002A\u002A*%
X88765765Y-67800000D03*
%TD*%
%TO.C,REF\u002A\u002A*%
X38065765Y-82500000D03*
%TD*%
%TO.C,REF\u002A\u002A*%
X103331530Y-70800000D03*
%TD*%
%TO.C,REF\u002A\u002A*%
X41065765Y-102900000D03*
%TD*%
D15*
%TO.C,MH2*%
X26651592Y-38352944D03*
X28348648Y-37650000D03*
X30045704Y-41747056D03*
D16*
X28348648Y-40050000D03*
D15*
X28348648Y-42450000D03*
X26651592Y-41747056D03*
X30045704Y-38352944D03*
X25948648Y-40050000D03*
X30748648Y-40050000D03*
%TD*%
D14*
%TO.C,REF\u002A\u002A*%
X90765765Y-24000000D03*
%TD*%
%TO.C,REF\u002A\u002A*%
X39065765Y-44400000D03*
%TD*%
%TO.C,REF\u002A\u002A*%
X73729255Y-52259398D03*
%TD*%
%TO.C,REF\u002A\u002A*%
X106331530Y-35700000D03*
%TD*%
%TO.C,REF\u002A\u002A*%
X39065765Y-94200000D03*
%TD*%
%TO.C,REF\u002A\u002A*%
X120368040Y-86340601D03*
%TD*%
%TO.C,REF\u002A\u002A*%
X54631530Y-102900000D03*
%TD*%
%TO.C,REF\u002A\u002A*%
X54631530Y-114600000D03*
%TD*%
%TO.C,REF\u002A\u002A*%
X89765765Y-102900000D03*
%TD*%
%TO.C,REF\u002A\u002A*%
X103331530Y-56100000D03*
%TD*%
%TO.C,REF\u002A\u002A*%
X38065765Y-94200000D03*
%TD*%
%TO.C,REF\u002A\u002A*%
X105331530Y-70800000D03*
%TD*%
%TO.C,REF\u002A\u002A*%
X129397295Y-24000000D03*
%TD*%
%TO.C,REF\u002A\u002A*%
X55631530Y-82500000D03*
%TD*%
%TO.C,REF\u002A\u002A*%
X73966868Y-76650000D03*
%TD*%
D15*
%TO.C,MH1*%
X117745704Y-53447056D03*
X118448648Y-51750000D03*
X114351592Y-50052944D03*
X113648648Y-51750000D03*
X116048648Y-54150000D03*
X117745704Y-50052944D03*
X114351592Y-53447056D03*
D16*
X116048648Y-51750000D03*
D15*
X116048648Y-49350000D03*
%TD*%
D14*
%TO.C,REF\u002A\u002A*%
X70430427Y-73650000D03*
%TD*%
%TO.C,REF\u002A\u002A*%
X41065765Y-91200000D03*
%TD*%
%TO.C,REF\u002A\u002A*%
X56631530Y-91200000D03*
%TD*%
%TO.C,REF\u002A\u002A*%
X90765765Y-82500000D03*
%TD*%
%TO.C,REF\u002A\u002A*%
X53631530Y-82500000D03*
%TD*%
%TO.C,REF\u002A\u002A*%
X39065765Y-24000000D03*
%TD*%
%TO.C,REF\u002A\u002A*%
X39065765Y-82500000D03*
%TD*%
%TO.C,REF\u002A\u002A*%
X103331530Y-59100000D03*
%TD*%
%TO.C,REF\u002A\u002A*%
X73966868Y-41550000D03*
%TD*%
%TO.C,REF\u002A\u002A*%
X90765765Y-47400000D03*
%TD*%
%TO.C,REF\u002A\u002A*%
X70668040Y-74640601D03*
%TD*%
%TO.C,REF\u002A\u002A*%
X20142857Y-24000000D03*
%TD*%
D15*
%TO.C,MH1*%
X68045704Y-50052944D03*
X63948648Y-51750000D03*
X68045704Y-53447056D03*
X66348648Y-54150000D03*
X66348648Y-49350000D03*
D16*
X66348648Y-51750000D03*
D15*
X68748648Y-51750000D03*
X64651592Y-53447056D03*
X64651592Y-50052944D03*
%TD*%
D14*
%TO.C,REF\u002A\u002A*%
X16714285Y-114600000D03*
%TD*%
%TO.C,REF\u002A\u002A*%
X105331530Y-67800000D03*
%TD*%
%TO.C,REF\u002A\u002A*%
X39065765Y-47400000D03*
%TD*%
%TO.C,REF\u002A\u002A*%
X89765765Y-67800000D03*
%TD*%
%TO.C,REF\u002A\u002A*%
X105331530Y-114600000D03*
%TD*%
%TO.C,REF\u002A\u002A*%
X55631530Y-94200000D03*
%TD*%
%TO.C,REF\u002A\u002A*%
X73966868Y-88350000D03*
%TD*%
%TO.C,REF\u002A\u002A*%
X89765765Y-94200000D03*
%TD*%
%TO.C,REF\u002A\u002A*%
X70430427Y-50250000D03*
%TD*%
%TO.C,REF\u002A\u002A*%
X56631530Y-44400000D03*
%TD*%
%TO.C,REF\u002A\u002A*%
X120397295Y-119314285D03*
%TD*%
%TO.C,REF\u002A\u002A*%
X39065765Y-32700000D03*
%TD*%
%TO.C,REF\u002A\u002A*%
X120130427Y-26850000D03*
%TD*%
D15*
%TO.C,MH1*%
X68748648Y-28350000D03*
D16*
X66348648Y-28350000D03*
D15*
X66348648Y-25950000D03*
X66348648Y-30750000D03*
X68045704Y-26652944D03*
X64651592Y-26652944D03*
X68045704Y-30047056D03*
X63948648Y-28350000D03*
X64651592Y-30047056D03*
%TD*%
D14*
%TO.C,REF\u002A\u002A*%
X56631530Y-59100000D03*
%TD*%
%TO.C,REF\u002A\u002A*%
X24029255Y-63959398D03*
%TD*%
%TO.C,REF\u002A\u002A*%
X89765765Y-35700000D03*
%TD*%
D15*
%TO.C,MH2*%
X78048648Y-65850000D03*
X76351592Y-65147056D03*
X80448648Y-63450000D03*
X78048648Y-61050000D03*
X76351592Y-61752944D03*
X79745704Y-61752944D03*
D16*
X78048648Y-63450000D03*
D15*
X75648648Y-63450000D03*
X79745704Y-65147056D03*
%TD*%
D14*
%TO.C,REF\u002A\u002A*%
X105331530Y-82500000D03*
%TD*%
%TO.C,REF\u002A\u002A*%
X41065765Y-56100000D03*
%TD*%
%TO.C,REF\u002A\u002A*%
X120368040Y-52259398D03*
%TD*%
%TO.C,REF\u002A\u002A*%
X15857142Y-24000000D03*
%TD*%
%TO.C,REF\u002A\u002A*%
X70430427Y-111750000D03*
%TD*%
%TO.C,REF\u002A\u002A*%
X70668040Y-28859398D03*
%TD*%
%TO.C,REF\u002A\u002A*%
X53631530Y-102900000D03*
%TD*%
%TO.C,REF\u002A\u002A*%
X24266868Y-108750000D03*
%TD*%
%TO.C,REF\u002A\u002A*%
X120397295Y-117600000D03*
%TD*%
%TO.C,REF\u002A\u002A*%
X38065765Y-32700000D03*
%TD*%
%TO.C,REF\u002A\u002A*%
X73729255Y-74640601D03*
%TD*%
%TO.C,REF\u002A\u002A*%
X128540152Y-114600000D03*
%TD*%
%TO.C,REF\u002A\u002A*%
X38065765Y-91200000D03*
%TD*%
%TO.C,REF\u002A\u002A*%
X104331530Y-114600000D03*
%TD*%
%TO.C,REF\u002A\u002A*%
X103331530Y-44400000D03*
%TD*%
%TO.C,REF\u002A\u002A*%
X104331530Y-91200000D03*
%TD*%
%TO.C,REF\u002A\u002A*%
X56631530Y-70800000D03*
%TD*%
%TO.C,REF\u002A\u002A*%
X106331530Y-91200000D03*
%TD*%
%TO.C,REF\u002A\u002A*%
X88765765Y-114600000D03*
%TD*%
%TO.C,REF\u002A\u002A*%
X125111580Y-114600000D03*
%TD*%
%TO.C,REF\u002A\u002A*%
X24029255Y-39540601D03*
%TD*%
%TO.C,REF\u002A\u002A*%
X103331530Y-82500000D03*
%TD*%
%TO.C,REF\u002A\u002A*%
X24000000Y-117600000D03*
%TD*%
%TO.C,REF\u002A\u002A*%
X70430427Y-26850000D03*
%TD*%
%TO.C,REF\u002A\u002A*%
X41065765Y-114600000D03*
%TD*%
%TO.C,REF\u002A\u002A*%
X24000000Y-17571428D03*
%TD*%
%TO.C,REF\u002A\u002A*%
X70668040Y-63959398D03*
%TD*%
%TO.C,REF\u002A\u002A*%
X24029255Y-75659398D03*
%TD*%
%TO.C,REF\u002A\u002A*%
X24266868Y-76650000D03*
%TD*%
%TO.C,REF\u002A\u002A*%
X24266868Y-61950000D03*
%TD*%
%TO.C,REF\u002A\u002A*%
X70668040Y-98040601D03*
%TD*%
%TO.C,REF\u002A\u002A*%
X39065765Y-79500000D03*
%TD*%
%TO.C,REF\u002A\u002A*%
X70430427Y-61950000D03*
%TD*%
%TO.C,REF\u002A\u002A*%
X87765765Y-91200000D03*
%TD*%
%TO.C,REF\u002A\u002A*%
X38065765Y-47400000D03*
%TD*%
%TO.C,REF\u002A\u002A*%
X104331530Y-70800000D03*
%TD*%
%TO.C,REF\u002A\u002A*%
X24266868Y-85350000D03*
%TD*%
%TO.C,REF\u002A\u002A*%
X120397295Y-121885714D03*
%TD*%
%TO.C,REF\u002A\u002A*%
X87765765Y-70800000D03*
%TD*%
%TO.C,REF\u002A\u002A*%
X73729255Y-62940601D03*
%TD*%
%TO.C,REF\u002A\u002A*%
X70430427Y-97050000D03*
%TD*%
%TO.C,REF\u002A\u002A*%
X39065765Y-102900000D03*
%TD*%
%TO.C,REF\u002A\u002A*%
X70668040Y-51240601D03*
%TD*%
%TO.C,REF\u002A\u002A*%
X103331530Y-91200000D03*
%TD*%
%TO.C,REF\u002A\u002A*%
X24266868Y-88350000D03*
%TD*%
%TO.C,REF\u002A\u002A*%
X120397295Y-19285714D03*
%TD*%
%TO.C,REF\u002A\u002A*%
X104331530Y-56100000D03*
%TD*%
%TO.C,REF\u002A\u002A*%
X73729255Y-98040601D03*
%TD*%
D15*
%TO.C,MH1*%
X117745704Y-100247056D03*
X113648648Y-98550000D03*
X118448648Y-98550000D03*
X114351592Y-100247056D03*
X117745704Y-96852944D03*
X116048648Y-100950000D03*
D16*
X116048648Y-98550000D03*
D15*
X114351592Y-96852944D03*
X116048648Y-96150000D03*
%TD*%
D14*
%TO.C,REF\u002A\u002A*%
X103331530Y-105900000D03*
%TD*%
%TO.C,REF\u002A\u002A*%
X106331530Y-79500000D03*
%TD*%
%TO.C,REF\u002A\u002A*%
X87765765Y-44400000D03*
%TD*%
%TO.C,REF\u002A\u002A*%
X88765765Y-91200000D03*
%TD*%
%TO.C,REF\u002A\u002A*%
X24266868Y-73650000D03*
%TD*%
%TO.C,REF\u002A\u002A*%
X120130427Y-108750000D03*
%TD*%
%TO.C,REF\u002A\u002A*%
X54631530Y-44400000D03*
%TD*%
%TO.C,REF\u002A\u002A*%
X15000000Y-24000000D03*
%TD*%
%TO.C,REF\u002A\u002A*%
X73729255Y-110759398D03*
%TD*%
%TO.C,REF\u002A\u002A*%
X54631530Y-56100000D03*
%TD*%
%TO.C,REF\u002A\u002A*%
X54631530Y-79500000D03*
%TD*%
%TO.C,REF\u002A\u002A*%
X73966868Y-50250000D03*
%TD*%
%TO.C,REF\u002A\u002A*%
X73729255Y-28859398D03*
%TD*%
%TO.C,REF\u002A\u002A*%
X89765765Y-91200000D03*
%TD*%
%TO.C,REF\u002A\u002A*%
X40065765Y-24000000D03*
%TD*%
%TO.C,REF\u002A\u002A*%
X24029255Y-98040601D03*
%TD*%
%TO.C,REF\u002A\u002A*%
X70668040Y-62940601D03*
%TD*%
%TO.C,REF\u002A\u002A*%
X55631530Y-59100000D03*
%TD*%
%TO.C,REF\u002A\u002A*%
X120368040Y-51240601D03*
%TD*%
%TO.C,REF\u002A\u002A*%
X103331530Y-67800000D03*
%TD*%
%TO.C,REF\u002A\u002A*%
X73966868Y-61950000D03*
%TD*%
%TO.C,REF\u002A\u002A*%
X53631530Y-94200000D03*
%TD*%
%TO.C,REF\u002A\u002A*%
X38065765Y-56100000D03*
%TD*%
%TO.C,REF\u002A\u002A*%
X73729255Y-27840601D03*
%TD*%
%TO.C,REF\u002A\u002A*%
X87765765Y-47400000D03*
%TD*%
%TO.C,REF\u002A\u002A*%
X104331530Y-47400000D03*
%TD*%
%TO.C,REF\u002A\u002A*%
X24000000Y-21000000D03*
%TD*%
%TO.C,REF\u002A\u002A*%
X125968723Y-24000000D03*
%TD*%
%TO.C,REF\u002A\u002A*%
X24029255Y-87359398D03*
%TD*%
%TO.C,REF\u002A\u002A*%
X70668040Y-109740601D03*
%TD*%
D15*
%TO.C,MH2*%
X78048648Y-42450000D03*
X80448648Y-40050000D03*
X79745704Y-41747056D03*
X76351592Y-38352944D03*
X79745704Y-38352944D03*
X78048648Y-37650000D03*
X75648648Y-40050000D03*
X76351592Y-41747056D03*
D16*
X78048648Y-40050000D03*
%TD*%
D14*
%TO.C,REF\u002A\u002A*%
X89765765Y-24000000D03*
%TD*%
%TO.C,REF\u002A\u002A*%
X120130427Y-88350000D03*
%TD*%
%TO.C,REF\u002A\u002A*%
X105331530Y-79500000D03*
%TD*%
%TO.C,REF\u002A\u002A*%
X87765765Y-94200000D03*
%TD*%
%TO.C,REF\u002A\u002A*%
X39065765Y-105900000D03*
%TD*%
%TO.C,REF\u002A\u002A*%
X19285714Y-24000000D03*
%TD*%
%TO.C,REF\u002A\u002A*%
X24266868Y-53250000D03*
%TD*%
%TO.C,REF\u002A\u002A*%
X38065765Y-102900000D03*
%TD*%
%TO.C,REF\u002A\u002A*%
X120368040Y-109740601D03*
%TD*%
%TO.C,REF\u002A\u002A*%
X106331530Y-105900000D03*
%TD*%
%TO.C,REF\u002A\u002A*%
X39065765Y-59100000D03*
%TD*%
%TO.C,REF\u002A\u002A*%
X120397295Y-17571428D03*
%TD*%
%TO.C,REF\u002A\u002A*%
X73729255Y-87359398D03*
%TD*%
%TO.C,REF\u002A\u002A*%
X24000000Y-118457142D03*
%TD*%
%TO.C,REF\u002A\u002A*%
X24029255Y-62940601D03*
%TD*%
%TO.C,REF\u002A\u002A*%
X54631530Y-70800000D03*
%TD*%
%TO.C,REF\u002A\u002A*%
X106331530Y-44400000D03*
%TD*%
%TO.C,REF\u002A\u002A*%
X90765765Y-35700000D03*
%TD*%
%TO.C,REF\u002A\u002A*%
X24029255Y-86340601D03*
%TD*%
%TO.C,REF\u002A\u002A*%
X24266868Y-41550000D03*
%TD*%
%TO.C,REF\u002A\u002A*%
X106331530Y-56100000D03*
%TD*%
%TO.C,REF\u002A\u002A*%
X38065765Y-44400000D03*
%TD*%
%TO.C,REF\u002A\u002A*%
X24000000Y-15000000D03*
%TD*%
%TO.C,REF\u002A\u002A*%
X24266868Y-26850000D03*
%TD*%
%TO.C,REF\u002A\u002A*%
X56631530Y-114600000D03*
%TD*%
%TO.C,REF\u002A\u002A*%
X120397295Y-120171428D03*
%TD*%
%TO.C,REF\u002A\u002A*%
X87765765Y-114600000D03*
%TD*%
%TO.C,REF\u002A\u002A*%
X89765765Y-82500000D03*
%TD*%
%TO.C,REF\u002A\u002A*%
X53631530Y-44400000D03*
%TD*%
%TO.C,REF\u002A\u002A*%
X105331530Y-59100000D03*
%TD*%
D15*
%TO.C,MH1*%
X64651592Y-76847056D03*
X64651592Y-73452944D03*
X68045704Y-76847056D03*
D16*
X66348648Y-75150000D03*
D15*
X68045704Y-73452944D03*
X66348648Y-72750000D03*
X66348648Y-77550000D03*
X63948648Y-75150000D03*
X68748648Y-75150000D03*
%TD*%
D14*
%TO.C,REF\u002A\u002A*%
X55631530Y-24000000D03*
%TD*%
%TO.C,REF\u002A\u002A*%
X87765765Y-79500000D03*
%TD*%
%TO.C,REF\u002A\u002A*%
X39065765Y-70800000D03*
%TD*%
%TO.C,REF\u002A\u002A*%
X103331530Y-102900000D03*
%TD*%
%TO.C,REF\u002A\u002A*%
X39065765Y-91200000D03*
%TD*%
%TO.C,REF\u002A\u002A*%
X53631530Y-105900000D03*
%TD*%
%TO.C,REF\u002A\u002A*%
X55631530Y-91200000D03*
%TD*%
%TO.C,REF\u002A\u002A*%
X53631530Y-32700000D03*
%TD*%
%TO.C,REF\u002A\u002A*%
X56631530Y-82500000D03*
%TD*%
%TO.C,REF\u002A\u002A*%
X39065765Y-35700000D03*
%TD*%
%TO.C,REF\u002A\u002A*%
X88765765Y-94200000D03*
%TD*%
%TO.C,REF\u002A\u002A*%
X73966868Y-73650000D03*
%TD*%
%TO.C,REF\u002A\u002A*%
X106331530Y-70800000D03*
%TD*%
%TO.C,REF\u002A\u002A*%
X126825866Y-114600000D03*
%TD*%
M02*
