G04 #@! TF.GenerationSoftware,KiCad,Pcbnew,(5.1.4)-1*
G04 #@! TF.CreationDate,2022-06-03T12:00:55+08:00*
G04 #@! TF.ProjectId,Unified-Daughterboard,556e6966-6965-4642-9d44-617567687465,rev?*
G04 #@! TF.SameCoordinates,Original*
G04 #@! TF.FileFunction,Legend,Top*
G04 #@! TF.FilePolarity,Positive*
%FSLAX46Y46*%
G04 Gerber Fmt 4.6, Leading zero omitted, Abs format (unit mm)*
G04 Created by KiCad (PCBNEW (5.1.4)-1) date 2022-06-03 12:00:55*
%MOMM*%
%LPD*%
G04 APERTURE LIST*
%ADD10C,0.150000*%
%ADD11C,0.650000*%
%ADD12O,1.200000X2.300000*%
%ADD13O,1.200000X1.800000*%
%ADD14C,0.800000*%
%ADD15C,6.400000*%
G04 APERTURE END LIST*
D10*
X-28501205Y-7347619D02*
X-28400014Y-6538095D01*
X-28435729Y-6442857D01*
X-28477395Y-6395238D01*
X-28566681Y-6347619D01*
X-28757157Y-6347619D01*
X-28858348Y-6395238D01*
X-28911919Y-6442857D01*
X-28971443Y-6538095D01*
X-29072633Y-7347619D01*
X-29507157Y-7014285D02*
X-29423824Y-6347619D01*
X-29495252Y-6919047D02*
X-29548824Y-6966666D01*
X-29650014Y-7014285D01*
X-29792872Y-7014285D01*
X-29882157Y-6966666D01*
X-29917872Y-6871428D01*
X-29852395Y-6347619D01*
X-30328586Y-6347619D02*
X-30411919Y-7014285D01*
X-30453586Y-7347619D02*
X-30400014Y-7300000D01*
X-30441681Y-7252380D01*
X-30495252Y-7300000D01*
X-30453586Y-7347619D01*
X-30441681Y-7252380D01*
X-30745252Y-7014285D02*
X-31126205Y-7014285D01*
X-30804776Y-6347619D02*
X-30911919Y-7204761D01*
X-30971443Y-7300000D01*
X-31072633Y-7347619D01*
X-31167872Y-7347619D01*
X-31376205Y-6347619D02*
X-31459538Y-7014285D01*
X-31435729Y-6823809D02*
X-31495252Y-6919047D01*
X-31548824Y-6966666D01*
X-31650014Y-7014285D01*
X-31745252Y-7014285D01*
X-31995252Y-6347619D02*
X-32078586Y-7014285D01*
X-32120252Y-7347619D02*
X-32066681Y-7300000D01*
X-32108348Y-7252380D01*
X-32161919Y-7300000D01*
X-32120252Y-7347619D01*
X-32108348Y-7252380D01*
X-32858348Y-6395238D02*
X-32757157Y-6347619D01*
X-32566681Y-6347619D01*
X-32477395Y-6395238D01*
X-32441681Y-6490476D01*
X-32489300Y-6871428D01*
X-32548824Y-6966666D01*
X-32650014Y-7014285D01*
X-32840491Y-7014285D01*
X-32929776Y-6966666D01*
X-32965491Y-6871428D01*
X-32953586Y-6776190D01*
X-32465491Y-6680952D01*
X-33757157Y-6347619D02*
X-33882157Y-7347619D01*
X-33763110Y-6395238D02*
X-33661919Y-6347619D01*
X-33471443Y-6347619D01*
X-33382157Y-6395238D01*
X-33340491Y-6442857D01*
X-33304776Y-6538095D01*
X-33340491Y-6823809D01*
X-33400014Y-6919047D01*
X-33453586Y-6966666D01*
X-33554776Y-7014285D01*
X-33745252Y-7014285D01*
X-33834538Y-6966666D01*
X-34995252Y-6347619D02*
X-35120252Y-7347619D01*
X-35358348Y-7347619D01*
X-35495252Y-7300000D01*
X-35578586Y-7204761D01*
X-35614300Y-7109523D01*
X-35638110Y-6919047D01*
X-35620252Y-6776190D01*
X-35548824Y-6585714D01*
X-35489300Y-6490476D01*
X-35382157Y-6395238D01*
X-35233348Y-6347619D01*
X-34995252Y-6347619D01*
X-36423824Y-6347619D02*
X-36489300Y-6871428D01*
X-36453586Y-6966666D01*
X-36364300Y-7014285D01*
X-36173824Y-7014285D01*
X-36072633Y-6966666D01*
X-36429776Y-6395238D02*
X-36328586Y-6347619D01*
X-36090491Y-6347619D01*
X-36001205Y-6395238D01*
X-35965491Y-6490476D01*
X-35977395Y-6585714D01*
X-36036919Y-6680952D01*
X-36138110Y-6728571D01*
X-36376205Y-6728571D01*
X-36477395Y-6776190D01*
X-37411919Y-7014285D02*
X-37328586Y-6347619D01*
X-36983348Y-7014285D02*
X-36917872Y-6490476D01*
X-36953586Y-6395238D01*
X-37042872Y-6347619D01*
X-37185729Y-6347619D01*
X-37286919Y-6395238D01*
X-37340491Y-6442857D01*
X-38316681Y-7014285D02*
X-38215491Y-6204761D01*
X-38155967Y-6109523D01*
X-38102395Y-6061904D01*
X-38001205Y-6014285D01*
X-37858348Y-6014285D01*
X-37769062Y-6061904D01*
X-38239300Y-6395238D02*
X-38138110Y-6347619D01*
X-37947633Y-6347619D01*
X-37858348Y-6395238D01*
X-37816681Y-6442857D01*
X-37780967Y-6538095D01*
X-37816681Y-6823809D01*
X-37876205Y-6919047D01*
X-37929776Y-6966666D01*
X-38030967Y-7014285D01*
X-38221443Y-7014285D01*
X-38310729Y-6966666D01*
X-38709538Y-6347619D02*
X-38834538Y-7347619D01*
X-39138110Y-6347619D02*
X-39203586Y-6871428D01*
X-39167872Y-6966666D01*
X-39078586Y-7014285D01*
X-38935729Y-7014285D01*
X-38834538Y-6966666D01*
X-38780967Y-6919047D01*
X-39554776Y-7014285D02*
X-39935729Y-7014285D01*
X-39739300Y-7347619D02*
X-39632157Y-6490476D01*
X-39667872Y-6395238D01*
X-39757157Y-6347619D01*
X-39852395Y-6347619D01*
X-40572633Y-6395238D02*
X-40471443Y-6347619D01*
X-40280967Y-6347619D01*
X-40191681Y-6395238D01*
X-40155967Y-6490476D01*
X-40203586Y-6871428D01*
X-40263110Y-6966666D01*
X-40364300Y-7014285D01*
X-40554776Y-7014285D01*
X-40644062Y-6966666D01*
X-40679776Y-6871428D01*
X-40667872Y-6776190D01*
X-40179776Y-6680952D01*
X-41042872Y-6347619D02*
X-41126205Y-7014285D01*
X-41102395Y-6823809D02*
X-41161919Y-6919047D01*
X-41215491Y-6966666D01*
X-41316681Y-7014285D01*
X-41411919Y-7014285D01*
X-41661919Y-6347619D02*
X-41786919Y-7347619D01*
X-41739300Y-6966666D02*
X-41840491Y-7014285D01*
X-42030967Y-7014285D01*
X-42120252Y-6966666D01*
X-42161919Y-6919047D01*
X-42197633Y-6823809D01*
X-42161919Y-6538095D01*
X-42102395Y-6442857D01*
X-42048824Y-6395238D01*
X-41947633Y-6347619D01*
X-41757157Y-6347619D01*
X-41667872Y-6395238D01*
X-42709538Y-6347619D02*
X-42620252Y-6395238D01*
X-42578586Y-6442857D01*
X-42542872Y-6538095D01*
X-42578586Y-6823809D01*
X-42638110Y-6919047D01*
X-42691681Y-6966666D01*
X-42792872Y-7014285D01*
X-42935729Y-7014285D01*
X-43025014Y-6966666D01*
X-43066681Y-6919047D01*
X-43102395Y-6823809D01*
X-43066681Y-6538095D01*
X-43007157Y-6442857D01*
X-42953586Y-6395238D01*
X-42852395Y-6347619D01*
X-42709538Y-6347619D01*
X-43900014Y-6347619D02*
X-43965491Y-6871428D01*
X-43929776Y-6966666D01*
X-43840491Y-7014285D01*
X-43650014Y-7014285D01*
X-43548824Y-6966666D01*
X-43905967Y-6395238D02*
X-43804776Y-6347619D01*
X-43566681Y-6347619D01*
X-43477395Y-6395238D01*
X-43441681Y-6490476D01*
X-43453586Y-6585714D01*
X-43513110Y-6680952D01*
X-43614300Y-6728571D01*
X-43852395Y-6728571D01*
X-43953586Y-6776190D01*
X-44376205Y-6347619D02*
X-44459538Y-7014285D01*
X-44435729Y-6823809D02*
X-44495252Y-6919047D01*
X-44548824Y-6966666D01*
X-44650014Y-7014285D01*
X-44745252Y-7014285D01*
X-45423824Y-6347619D02*
X-45548824Y-7347619D01*
X-45429776Y-6395238D02*
X-45328586Y-6347619D01*
X-45138110Y-6347619D01*
X-45048824Y-6395238D01*
X-45007157Y-6442857D01*
X-44971443Y-6538095D01*
X-45007157Y-6823809D01*
X-45066681Y-6919047D01*
X-45120252Y-6966666D01*
X-45221443Y-7014285D01*
X-45411919Y-7014285D01*
X-45501205Y-6966666D01*
%LPC*%
D11*
X-39890000Y-5050000D03*
X-34110000Y-5050000D03*
D12*
X-32680000Y-4520000D03*
X-41320000Y-4520000D03*
D13*
X-32680000Y-8700000D03*
X-41320000Y-8700000D03*
D14*
X-55697056Y-7347056D03*
X-54000000Y-8050000D03*
X-52302944Y-7347056D03*
X-51600000Y-5650000D03*
X-52302944Y-3952944D03*
X-54000000Y-3250000D03*
X-55697056Y-3952944D03*
X-56400000Y-5650000D03*
D15*
X-54000000Y-5650000D03*
D14*
X-17697056Y-7347056D03*
X-16000000Y-8050000D03*
X-14302944Y-7347056D03*
X-13600000Y-5650000D03*
X-14302944Y-3952944D03*
X-16000000Y-3250000D03*
X-17697056Y-3952944D03*
X-18400000Y-5650000D03*
D15*
X-16000000Y-5650000D03*
M02*
