G04 #@! TF.GenerationSoftware,KiCad,Pcbnew,(5.1.4)-1*
G04 #@! TF.CreationDate,2022-06-03T12:00:55+08:00*
G04 #@! TF.ProjectId,Unified-Daughterboard,556e6966-6965-4642-9d44-617567687465,rev?*
G04 #@! TF.SameCoordinates,Original*
G04 #@! TF.FileFunction,Copper,L2,Bot*
G04 #@! TF.FilePolarity,Positive*
%FSLAX46Y46*%
G04 Gerber Fmt 4.6, Leading zero omitted, Abs format (unit mm)*
G04 Created by KiCad (PCBNEW (5.1.4)-1) date 2022-06-03 12:00:55*
%MOMM*%
%LPD*%
G04 APERTURE LIST*
%ADD10C,0.500000*%
%ADD11C,0.100000*%
%ADD12C,0.800000*%
%ADD13R,0.575000X1.450000*%
%ADD14R,0.300000X1.450000*%
%ADD15O,1.200000X2.300000*%
%ADD16O,1.200000X1.800000*%
%ADD17C,6.400000*%
%ADD18C,1.025000*%
%ADD19C,0.900000*%
%ADD20R,0.600000X1.550000*%
%ADD21R,1.200000X1.800000*%
%ADD22C,0.250000*%
%ADD23C,0.350000*%
%ADD24C,0.800000*%
%ADD25C,0.254000*%
G04 APERTURE END LIST*
D10*
X-22240761Y-6715000D02*
X-21288380Y-7381666D01*
X-22240761Y-7857857D02*
X-20240761Y-7857857D01*
X-20240761Y-7095952D01*
X-20336000Y-6905476D01*
X-20431238Y-6810238D01*
X-20621714Y-6715000D01*
X-20907428Y-6715000D01*
X-21097904Y-6810238D01*
X-21193142Y-6905476D01*
X-21288380Y-7095952D01*
X-21288380Y-7857857D01*
X-22240761Y-5857857D02*
X-20240761Y-5857857D01*
X-21669333Y-5191190D01*
X-20240761Y-4524523D01*
X-22240761Y-4524523D01*
X-22240761Y-3572142D02*
X-20240761Y-3572142D01*
D11*
G36*
X-19304000Y-9144000D02*
G01*
X-19304000Y-2286000D01*
X-19804000Y-2286000D01*
X-19804000Y-9144000D01*
X-19304000Y-9144000D01*
G37*
X-19304000Y-9144000D02*
X-19304000Y-2286000D01*
X-19804000Y-2286000D01*
X-19804000Y-9144000D01*
X-19304000Y-9144000D01*
G36*
X-23114000Y-9144000D02*
G01*
X-23114000Y-2286000D01*
X-23614000Y-2286000D01*
X-23614000Y-9144000D01*
X-23114000Y-9144000D01*
G37*
X-23114000Y-9144000D02*
X-23114000Y-2286000D01*
X-23614000Y-2286000D01*
X-23614000Y-9144000D01*
X-23114000Y-9144000D01*
G36*
X-19367500Y-9144000D02*
G01*
X-19367500Y-8644000D01*
X-23558500Y-8640000D01*
X-23558500Y-9140000D01*
X-19367500Y-9144000D01*
G37*
X-19367500Y-9144000D02*
X-19367500Y-8644000D01*
X-23558500Y-8640000D01*
X-23558500Y-9140000D01*
X-19367500Y-9144000D01*
G36*
X-19367500Y-2790000D02*
G01*
X-19367500Y-2290000D01*
X-23558500Y-2286000D01*
X-23558500Y-2786000D01*
X-19367500Y-2790000D01*
G37*
X-19367500Y-2790000D02*
X-19367500Y-2290000D01*
X-23558500Y-2286000D01*
X-23558500Y-2786000D01*
X-19367500Y-2790000D01*
G36*
X-45105397Y-5075963D02*
G01*
X-45085982Y-5078843D01*
X-45066943Y-5083612D01*
X-45048463Y-5090224D01*
X-45030721Y-5098616D01*
X-45013886Y-5108706D01*
X-44998121Y-5120398D01*
X-44983579Y-5133579D01*
X-44970398Y-5148121D01*
X-44958706Y-5163886D01*
X-44948616Y-5180721D01*
X-44940224Y-5198463D01*
X-44933612Y-5216943D01*
X-44928843Y-5235982D01*
X-44925963Y-5255397D01*
X-44925000Y-5275000D01*
X-44925000Y-5675000D01*
X-44925963Y-5694603D01*
X-44928843Y-5714018D01*
X-44933612Y-5733057D01*
X-44940224Y-5751537D01*
X-44948616Y-5769279D01*
X-44958706Y-5786114D01*
X-44970398Y-5801879D01*
X-44983579Y-5816421D01*
X-44998121Y-5829602D01*
X-45013886Y-5841294D01*
X-45030721Y-5851384D01*
X-45048463Y-5859776D01*
X-45066943Y-5866388D01*
X-45085982Y-5871157D01*
X-45105397Y-5874037D01*
X-45125000Y-5875000D01*
X-45675000Y-5875000D01*
X-45694603Y-5874037D01*
X-45714018Y-5871157D01*
X-45733057Y-5866388D01*
X-45751537Y-5859776D01*
X-45769279Y-5851384D01*
X-45786114Y-5841294D01*
X-45801879Y-5829602D01*
X-45816421Y-5816421D01*
X-45829602Y-5801879D01*
X-45841294Y-5786114D01*
X-45851384Y-5769279D01*
X-45859776Y-5751537D01*
X-45866388Y-5733057D01*
X-45871157Y-5714018D01*
X-45874037Y-5694603D01*
X-45875000Y-5675000D01*
X-45875000Y-5275000D01*
X-45874037Y-5255397D01*
X-45871157Y-5235982D01*
X-45866388Y-5216943D01*
X-45859776Y-5198463D01*
X-45851384Y-5180721D01*
X-45841294Y-5163886D01*
X-45829602Y-5148121D01*
X-45816421Y-5133579D01*
X-45801879Y-5120398D01*
X-45786114Y-5108706D01*
X-45769279Y-5098616D01*
X-45751537Y-5090224D01*
X-45733057Y-5083612D01*
X-45714018Y-5078843D01*
X-45694603Y-5075963D01*
X-45675000Y-5075000D01*
X-45125000Y-5075000D01*
X-45105397Y-5075963D01*
X-45105397Y-5075963D01*
G37*
D12*
X-45400000Y-5475000D03*
D11*
G36*
X-45105397Y-6725963D02*
G01*
X-45085982Y-6728843D01*
X-45066943Y-6733612D01*
X-45048463Y-6740224D01*
X-45030721Y-6748616D01*
X-45013886Y-6758706D01*
X-44998121Y-6770398D01*
X-44983579Y-6783579D01*
X-44970398Y-6798121D01*
X-44958706Y-6813886D01*
X-44948616Y-6830721D01*
X-44940224Y-6848463D01*
X-44933612Y-6866943D01*
X-44928843Y-6885982D01*
X-44925963Y-6905397D01*
X-44925000Y-6925000D01*
X-44925000Y-7325000D01*
X-44925963Y-7344603D01*
X-44928843Y-7364018D01*
X-44933612Y-7383057D01*
X-44940224Y-7401537D01*
X-44948616Y-7419279D01*
X-44958706Y-7436114D01*
X-44970398Y-7451879D01*
X-44983579Y-7466421D01*
X-44998121Y-7479602D01*
X-45013886Y-7491294D01*
X-45030721Y-7501384D01*
X-45048463Y-7509776D01*
X-45066943Y-7516388D01*
X-45085982Y-7521157D01*
X-45105397Y-7524037D01*
X-45125000Y-7525000D01*
X-45675000Y-7525000D01*
X-45694603Y-7524037D01*
X-45714018Y-7521157D01*
X-45733057Y-7516388D01*
X-45751537Y-7509776D01*
X-45769279Y-7501384D01*
X-45786114Y-7491294D01*
X-45801879Y-7479602D01*
X-45816421Y-7466421D01*
X-45829602Y-7451879D01*
X-45841294Y-7436114D01*
X-45851384Y-7419279D01*
X-45859776Y-7401537D01*
X-45866388Y-7383057D01*
X-45871157Y-7364018D01*
X-45874037Y-7344603D01*
X-45875000Y-7325000D01*
X-45875000Y-6925000D01*
X-45874037Y-6905397D01*
X-45871157Y-6885982D01*
X-45866388Y-6866943D01*
X-45859776Y-6848463D01*
X-45851384Y-6830721D01*
X-45841294Y-6813886D01*
X-45829602Y-6798121D01*
X-45816421Y-6783579D01*
X-45801879Y-6770398D01*
X-45786114Y-6758706D01*
X-45769279Y-6748616D01*
X-45751537Y-6740224D01*
X-45733057Y-6733612D01*
X-45714018Y-6728843D01*
X-45694603Y-6725963D01*
X-45675000Y-6725000D01*
X-45125000Y-6725000D01*
X-45105397Y-6725963D01*
X-45105397Y-6725963D01*
G37*
D12*
X-45400000Y-7125000D03*
D11*
G36*
X-43305397Y-5075963D02*
G01*
X-43285982Y-5078843D01*
X-43266943Y-5083612D01*
X-43248463Y-5090224D01*
X-43230721Y-5098616D01*
X-43213886Y-5108706D01*
X-43198121Y-5120398D01*
X-43183579Y-5133579D01*
X-43170398Y-5148121D01*
X-43158706Y-5163886D01*
X-43148616Y-5180721D01*
X-43140224Y-5198463D01*
X-43133612Y-5216943D01*
X-43128843Y-5235982D01*
X-43125963Y-5255397D01*
X-43125000Y-5275000D01*
X-43125000Y-5675000D01*
X-43125963Y-5694603D01*
X-43128843Y-5714018D01*
X-43133612Y-5733057D01*
X-43140224Y-5751537D01*
X-43148616Y-5769279D01*
X-43158706Y-5786114D01*
X-43170398Y-5801879D01*
X-43183579Y-5816421D01*
X-43198121Y-5829602D01*
X-43213886Y-5841294D01*
X-43230721Y-5851384D01*
X-43248463Y-5859776D01*
X-43266943Y-5866388D01*
X-43285982Y-5871157D01*
X-43305397Y-5874037D01*
X-43325000Y-5875000D01*
X-43875000Y-5875000D01*
X-43894603Y-5874037D01*
X-43914018Y-5871157D01*
X-43933057Y-5866388D01*
X-43951537Y-5859776D01*
X-43969279Y-5851384D01*
X-43986114Y-5841294D01*
X-44001879Y-5829602D01*
X-44016421Y-5816421D01*
X-44029602Y-5801879D01*
X-44041294Y-5786114D01*
X-44051384Y-5769279D01*
X-44059776Y-5751537D01*
X-44066388Y-5733057D01*
X-44071157Y-5714018D01*
X-44074037Y-5694603D01*
X-44075000Y-5675000D01*
X-44075000Y-5275000D01*
X-44074037Y-5255397D01*
X-44071157Y-5235982D01*
X-44066388Y-5216943D01*
X-44059776Y-5198463D01*
X-44051384Y-5180721D01*
X-44041294Y-5163886D01*
X-44029602Y-5148121D01*
X-44016421Y-5133579D01*
X-44001879Y-5120398D01*
X-43986114Y-5108706D01*
X-43969279Y-5098616D01*
X-43951537Y-5090224D01*
X-43933057Y-5083612D01*
X-43914018Y-5078843D01*
X-43894603Y-5075963D01*
X-43875000Y-5075000D01*
X-43325000Y-5075000D01*
X-43305397Y-5075963D01*
X-43305397Y-5075963D01*
G37*
D12*
X-43600000Y-5475000D03*
D11*
G36*
X-43305397Y-6725963D02*
G01*
X-43285982Y-6728843D01*
X-43266943Y-6733612D01*
X-43248463Y-6740224D01*
X-43230721Y-6748616D01*
X-43213886Y-6758706D01*
X-43198121Y-6770398D01*
X-43183579Y-6783579D01*
X-43170398Y-6798121D01*
X-43158706Y-6813886D01*
X-43148616Y-6830721D01*
X-43140224Y-6848463D01*
X-43133612Y-6866943D01*
X-43128843Y-6885982D01*
X-43125963Y-6905397D01*
X-43125000Y-6925000D01*
X-43125000Y-7325000D01*
X-43125963Y-7344603D01*
X-43128843Y-7364018D01*
X-43133612Y-7383057D01*
X-43140224Y-7401537D01*
X-43148616Y-7419279D01*
X-43158706Y-7436114D01*
X-43170398Y-7451879D01*
X-43183579Y-7466421D01*
X-43198121Y-7479602D01*
X-43213886Y-7491294D01*
X-43230721Y-7501384D01*
X-43248463Y-7509776D01*
X-43266943Y-7516388D01*
X-43285982Y-7521157D01*
X-43305397Y-7524037D01*
X-43325000Y-7525000D01*
X-43875000Y-7525000D01*
X-43894603Y-7524037D01*
X-43914018Y-7521157D01*
X-43933057Y-7516388D01*
X-43951537Y-7509776D01*
X-43969279Y-7501384D01*
X-43986114Y-7491294D01*
X-44001879Y-7479602D01*
X-44016421Y-7466421D01*
X-44029602Y-7451879D01*
X-44041294Y-7436114D01*
X-44051384Y-7419279D01*
X-44059776Y-7401537D01*
X-44066388Y-7383057D01*
X-44071157Y-7364018D01*
X-44074037Y-7344603D01*
X-44075000Y-7325000D01*
X-44075000Y-6925000D01*
X-44074037Y-6905397D01*
X-44071157Y-6885982D01*
X-44066388Y-6866943D01*
X-44059776Y-6848463D01*
X-44051384Y-6830721D01*
X-44041294Y-6813886D01*
X-44029602Y-6798121D01*
X-44016421Y-6783579D01*
X-44001879Y-6770398D01*
X-43986114Y-6758706D01*
X-43969279Y-6748616D01*
X-43951537Y-6740224D01*
X-43933057Y-6733612D01*
X-43914018Y-6728843D01*
X-43894603Y-6725963D01*
X-43875000Y-6725000D01*
X-43325000Y-6725000D01*
X-43305397Y-6725963D01*
X-43305397Y-6725963D01*
G37*
D12*
X-43600000Y-7125000D03*
D13*
X-40225000Y-3605000D03*
X-33775000Y-3605000D03*
X-39450000Y-3605000D03*
X-34550000Y-3605000D03*
D14*
X-35250000Y-3605000D03*
X-38750000Y-3605000D03*
X-35750000Y-3605000D03*
X-38250000Y-3605000D03*
X-36250000Y-3605000D03*
X-37750000Y-3605000D03*
X-37250000Y-3605000D03*
X-36750000Y-3605000D03*
D15*
X-32680000Y-4520000D03*
X-41320000Y-4520000D03*
D16*
X-32680000Y-8700000D03*
X-41320000Y-8700000D03*
D12*
X-55697056Y-7347056D03*
X-54000000Y-8050000D03*
X-52302944Y-7347056D03*
X-51600000Y-5650000D03*
X-52302944Y-3952944D03*
X-54000000Y-3250000D03*
X-55697056Y-3952944D03*
X-56400000Y-5650000D03*
D17*
X-54000000Y-5650000D03*
D12*
X-17697056Y-7347056D03*
X-16000000Y-8050000D03*
X-14302944Y-7347056D03*
X-13600000Y-5650000D03*
X-14302944Y-3952944D03*
X-16000000Y-3250000D03*
X-17697056Y-3952944D03*
X-18400000Y-5650000D03*
D17*
X-16000000Y-5650000D03*
D11*
G36*
X-46925494Y-6901204D02*
G01*
X-46901226Y-6904804D01*
X-46877427Y-6910765D01*
X-46854328Y-6919030D01*
X-46832150Y-6929519D01*
X-46811107Y-6942132D01*
X-46791401Y-6956747D01*
X-46773223Y-6973223D01*
X-46756747Y-6991401D01*
X-46742132Y-7011107D01*
X-46729519Y-7032150D01*
X-46719030Y-7054328D01*
X-46710765Y-7077427D01*
X-46704804Y-7101226D01*
X-46701204Y-7125494D01*
X-46700000Y-7149998D01*
X-46700000Y-7675002D01*
X-46701204Y-7699506D01*
X-46704804Y-7723774D01*
X-46710765Y-7747573D01*
X-46719030Y-7770672D01*
X-46729519Y-7792850D01*
X-46742132Y-7813893D01*
X-46756747Y-7833599D01*
X-46773223Y-7851777D01*
X-46791401Y-7868253D01*
X-46811107Y-7882868D01*
X-46832150Y-7895481D01*
X-46854328Y-7905970D01*
X-46877427Y-7914235D01*
X-46901226Y-7920196D01*
X-46925494Y-7923796D01*
X-46949998Y-7925000D01*
X-47850002Y-7925000D01*
X-47874506Y-7923796D01*
X-47898774Y-7920196D01*
X-47922573Y-7914235D01*
X-47945672Y-7905970D01*
X-47967850Y-7895481D01*
X-47988893Y-7882868D01*
X-48008599Y-7868253D01*
X-48026777Y-7851777D01*
X-48043253Y-7833599D01*
X-48057868Y-7813893D01*
X-48070481Y-7792850D01*
X-48080970Y-7770672D01*
X-48089235Y-7747573D01*
X-48095196Y-7723774D01*
X-48098796Y-7699506D01*
X-48100000Y-7675002D01*
X-48100000Y-7149998D01*
X-48098796Y-7125494D01*
X-48095196Y-7101226D01*
X-48089235Y-7077427D01*
X-48080970Y-7054328D01*
X-48070481Y-7032150D01*
X-48057868Y-7011107D01*
X-48043253Y-6991401D01*
X-48026777Y-6973223D01*
X-48008599Y-6956747D01*
X-47988893Y-6942132D01*
X-47967850Y-6929519D01*
X-47945672Y-6919030D01*
X-47922573Y-6910765D01*
X-47898774Y-6904804D01*
X-47874506Y-6901204D01*
X-47850002Y-6900000D01*
X-46949998Y-6900000D01*
X-46925494Y-6901204D01*
X-46925494Y-6901204D01*
G37*
D18*
X-47400000Y-7412500D03*
D11*
G36*
X-46925494Y-5076204D02*
G01*
X-46901226Y-5079804D01*
X-46877427Y-5085765D01*
X-46854328Y-5094030D01*
X-46832150Y-5104519D01*
X-46811107Y-5117132D01*
X-46791401Y-5131747D01*
X-46773223Y-5148223D01*
X-46756747Y-5166401D01*
X-46742132Y-5186107D01*
X-46729519Y-5207150D01*
X-46719030Y-5229328D01*
X-46710765Y-5252427D01*
X-46704804Y-5276226D01*
X-46701204Y-5300494D01*
X-46700000Y-5324998D01*
X-46700000Y-5850002D01*
X-46701204Y-5874506D01*
X-46704804Y-5898774D01*
X-46710765Y-5922573D01*
X-46719030Y-5945672D01*
X-46729519Y-5967850D01*
X-46742132Y-5988893D01*
X-46756747Y-6008599D01*
X-46773223Y-6026777D01*
X-46791401Y-6043253D01*
X-46811107Y-6057868D01*
X-46832150Y-6070481D01*
X-46854328Y-6080970D01*
X-46877427Y-6089235D01*
X-46901226Y-6095196D01*
X-46925494Y-6098796D01*
X-46949998Y-6100000D01*
X-47850002Y-6100000D01*
X-47874506Y-6098796D01*
X-47898774Y-6095196D01*
X-47922573Y-6089235D01*
X-47945672Y-6080970D01*
X-47967850Y-6070481D01*
X-47988893Y-6057868D01*
X-48008599Y-6043253D01*
X-48026777Y-6026777D01*
X-48043253Y-6008599D01*
X-48057868Y-5988893D01*
X-48070481Y-5967850D01*
X-48080970Y-5945672D01*
X-48089235Y-5922573D01*
X-48095196Y-5898774D01*
X-48098796Y-5874506D01*
X-48100000Y-5850002D01*
X-48100000Y-5324998D01*
X-48098796Y-5300494D01*
X-48095196Y-5276226D01*
X-48089235Y-5252427D01*
X-48080970Y-5229328D01*
X-48070481Y-5207150D01*
X-48057868Y-5186107D01*
X-48043253Y-5166401D01*
X-48026777Y-5148223D01*
X-48008599Y-5131747D01*
X-47988893Y-5117132D01*
X-47967850Y-5104519D01*
X-47945672Y-5094030D01*
X-47922573Y-5085765D01*
X-47898774Y-5079804D01*
X-47874506Y-5076204D01*
X-47850002Y-5075000D01*
X-46949998Y-5075000D01*
X-46925494Y-5076204D01*
X-46925494Y-5076204D01*
G37*
D18*
X-47400000Y-5587500D03*
D11*
G36*
X-49127946Y-6826083D02*
G01*
X-49106105Y-6829323D01*
X-49084686Y-6834688D01*
X-49063896Y-6842127D01*
X-49043936Y-6851568D01*
X-49024997Y-6862919D01*
X-49007262Y-6876073D01*
X-48990901Y-6890901D01*
X-48976073Y-6907262D01*
X-48962919Y-6924997D01*
X-48951568Y-6943936D01*
X-48942127Y-6963896D01*
X-48934688Y-6984686D01*
X-48929323Y-7006105D01*
X-48926083Y-7027946D01*
X-48925000Y-7050000D01*
X-48925000Y-7500000D01*
X-48926083Y-7522054D01*
X-48929323Y-7543895D01*
X-48934688Y-7565314D01*
X-48942127Y-7586104D01*
X-48951568Y-7606064D01*
X-48962919Y-7625003D01*
X-48976073Y-7642738D01*
X-48990901Y-7659099D01*
X-49007262Y-7673927D01*
X-49024997Y-7687081D01*
X-49043936Y-7698432D01*
X-49063896Y-7707873D01*
X-49084686Y-7715312D01*
X-49106105Y-7720677D01*
X-49127946Y-7723917D01*
X-49150000Y-7725000D01*
X-49650000Y-7725000D01*
X-49672054Y-7723917D01*
X-49693895Y-7720677D01*
X-49715314Y-7715312D01*
X-49736104Y-7707873D01*
X-49756064Y-7698432D01*
X-49775003Y-7687081D01*
X-49792738Y-7673927D01*
X-49809099Y-7659099D01*
X-49823927Y-7642738D01*
X-49837081Y-7625003D01*
X-49848432Y-7606064D01*
X-49857873Y-7586104D01*
X-49865312Y-7565314D01*
X-49870677Y-7543895D01*
X-49873917Y-7522054D01*
X-49875000Y-7500000D01*
X-49875000Y-7050000D01*
X-49873917Y-7027946D01*
X-49870677Y-7006105D01*
X-49865312Y-6984686D01*
X-49857873Y-6963896D01*
X-49848432Y-6943936D01*
X-49837081Y-6924997D01*
X-49823927Y-6907262D01*
X-49809099Y-6890901D01*
X-49792738Y-6876073D01*
X-49775003Y-6862919D01*
X-49756064Y-6851568D01*
X-49736104Y-6842127D01*
X-49715314Y-6834688D01*
X-49693895Y-6829323D01*
X-49672054Y-6826083D01*
X-49650000Y-6825000D01*
X-49150000Y-6825000D01*
X-49127946Y-6826083D01*
X-49127946Y-6826083D01*
G37*
D19*
X-49400000Y-7275000D03*
D11*
G36*
X-49127946Y-5276083D02*
G01*
X-49106105Y-5279323D01*
X-49084686Y-5284688D01*
X-49063896Y-5292127D01*
X-49043936Y-5301568D01*
X-49024997Y-5312919D01*
X-49007262Y-5326073D01*
X-48990901Y-5340901D01*
X-48976073Y-5357262D01*
X-48962919Y-5374997D01*
X-48951568Y-5393936D01*
X-48942127Y-5413896D01*
X-48934688Y-5434686D01*
X-48929323Y-5456105D01*
X-48926083Y-5477946D01*
X-48925000Y-5500000D01*
X-48925000Y-5950000D01*
X-48926083Y-5972054D01*
X-48929323Y-5993895D01*
X-48934688Y-6015314D01*
X-48942127Y-6036104D01*
X-48951568Y-6056064D01*
X-48962919Y-6075003D01*
X-48976073Y-6092738D01*
X-48990901Y-6109099D01*
X-49007262Y-6123927D01*
X-49024997Y-6137081D01*
X-49043936Y-6148432D01*
X-49063896Y-6157873D01*
X-49084686Y-6165312D01*
X-49106105Y-6170677D01*
X-49127946Y-6173917D01*
X-49150000Y-6175000D01*
X-49650000Y-6175000D01*
X-49672054Y-6173917D01*
X-49693895Y-6170677D01*
X-49715314Y-6165312D01*
X-49736104Y-6157873D01*
X-49756064Y-6148432D01*
X-49775003Y-6137081D01*
X-49792738Y-6123927D01*
X-49809099Y-6109099D01*
X-49823927Y-6092738D01*
X-49837081Y-6075003D01*
X-49848432Y-6056064D01*
X-49857873Y-6036104D01*
X-49865312Y-6015314D01*
X-49870677Y-5993895D01*
X-49873917Y-5972054D01*
X-49875000Y-5950000D01*
X-49875000Y-5500000D01*
X-49873917Y-5477946D01*
X-49870677Y-5456105D01*
X-49865312Y-5434686D01*
X-49857873Y-5413896D01*
X-49848432Y-5393936D01*
X-49837081Y-5374997D01*
X-49823927Y-5357262D01*
X-49809099Y-5340901D01*
X-49792738Y-5326073D01*
X-49775003Y-5312919D01*
X-49756064Y-5301568D01*
X-49736104Y-5292127D01*
X-49715314Y-5284688D01*
X-49693895Y-5279323D01*
X-49672054Y-5276083D01*
X-49650000Y-5275000D01*
X-49150000Y-5275000D01*
X-49127946Y-5276083D01*
X-49127946Y-5276083D01*
G37*
D19*
X-49400000Y-5725000D03*
D20*
X-26800000Y-8075000D03*
X-25800000Y-8075000D03*
X-27800000Y-8075000D03*
X-28800000Y-8075000D03*
D21*
X-30100000Y-4200000D03*
X-24500000Y-4200000D03*
D12*
X-30400000Y-6500000D03*
X-38800000Y-2100000D03*
X-26000000Y-6100000D03*
X-26400000Y-2500000D03*
X-42800000Y-2700000D03*
X-31400000Y-3175010D03*
X-48550000Y-2700000D03*
X-24892000Y-8064500D03*
X-38200000Y-5100000D03*
X-40000000Y-6400000D03*
X-35600000Y-5225000D03*
X-38800000Y-7500000D03*
D22*
X-37750000Y-2644998D02*
X-37750000Y-3605000D01*
X-37660001Y-2554999D02*
X-37750000Y-2644998D01*
X-36839999Y-2554999D02*
X-37660001Y-2554999D01*
X-36750000Y-2644998D02*
X-36839999Y-2554999D01*
X-36750000Y-3605000D02*
X-36750000Y-2644998D01*
X-26800000Y-6912499D02*
X-26800000Y-8075000D01*
X-27050000Y-6662499D02*
X-26800000Y-6912499D01*
X-27050000Y-3496446D02*
X-27050000Y-6662499D01*
X-28546446Y-2000000D02*
X-27050000Y-3496446D01*
X-36200000Y-2000000D02*
X-28546446Y-2000000D01*
X-36750000Y-2550000D02*
X-36200000Y-2000000D01*
X-36750000Y-3605000D02*
X-36750000Y-2550000D01*
D23*
X-40225000Y-3605000D02*
X-40225000Y-2530000D01*
X-40225000Y-2530000D02*
X-39795000Y-2100000D01*
X-39795000Y-2100000D02*
X-38800000Y-2100000D01*
X-33775000Y-3605000D02*
X-33164990Y-2994990D01*
X-33164990Y-2994990D02*
X-31580020Y-2994990D01*
X-31580020Y-2994990D02*
X-31400000Y-3175010D01*
D10*
X-24500000Y-4200000D02*
X-25600000Y-4200000D01*
X-26000000Y-4600000D02*
X-25600000Y-4200000D01*
X-26000000Y-6100000D02*
X-26000000Y-4600000D01*
D22*
X-37250000Y-4565002D02*
X-37250000Y-3605000D01*
X-37160001Y-4655001D02*
X-37250000Y-4565002D01*
X-36339999Y-4655001D02*
X-37160001Y-4655001D01*
X-36250000Y-4565002D02*
X-36339999Y-4655001D01*
X-36250000Y-3605000D02*
X-36250000Y-4565002D01*
X-27800000Y-7050000D02*
X-27800000Y-8075000D01*
X-27550000Y-6800000D02*
X-27800000Y-7050000D01*
X-27550000Y-3703554D02*
X-27550000Y-6800000D01*
X-28803554Y-2450000D02*
X-27550000Y-3703554D01*
X-36013590Y-2450000D02*
X-28803554Y-2450000D01*
X-36250000Y-2686410D02*
X-36013590Y-2450000D01*
X-36250000Y-3605000D02*
X-36250000Y-2686410D01*
D23*
X-39189999Y-5310001D02*
X-39189999Y-4713999D01*
X-34900000Y-6000000D02*
X-35500000Y-6000000D01*
X-35500000Y-6000000D02*
X-38500000Y-6000000D01*
X-38500000Y-6000000D02*
X-39189999Y-5310001D01*
X-39450000Y-4453998D02*
X-39450000Y-3605000D01*
X-39189999Y-4713999D02*
X-39450000Y-4453998D01*
X-34810001Y-5910001D02*
X-34900000Y-6000000D01*
X-34550000Y-3605000D02*
X-34550000Y-4453998D01*
X-34550000Y-4453998D02*
X-34810001Y-4713999D01*
X-34810001Y-4713999D02*
X-34810001Y-5910001D01*
X-33128872Y-6000000D02*
X-34900000Y-6000000D01*
X-31053872Y-8075000D02*
X-33128872Y-6000000D01*
X-28800000Y-8075000D02*
X-31053872Y-8075000D01*
D22*
X-44675000Y-6400000D02*
X-45400000Y-7125000D01*
X-40000000Y-6400000D02*
X-44675000Y-6400000D01*
X-38599999Y-4700001D02*
X-38200000Y-5100000D01*
X-38599999Y-4596879D02*
X-38599999Y-4700001D01*
X-38750000Y-4446878D02*
X-38599999Y-4596879D01*
X-38750000Y-3605000D02*
X-38750000Y-4446878D01*
X-38800000Y-7500000D02*
X-40911839Y-7500000D01*
X-35600000Y-5225000D02*
X-35600000Y-5300000D01*
X-43225000Y-7500000D02*
X-43600000Y-7125000D01*
X-40936849Y-7474990D02*
X-41703151Y-7474990D01*
X-41728161Y-7500000D02*
X-43225000Y-7500000D01*
X-35750000Y-5075000D02*
X-35600000Y-5225000D01*
X-35750000Y-3605000D02*
X-35750000Y-5075000D01*
D24*
X-49262500Y-7412500D02*
X-49400000Y-7275000D01*
X-48400000Y-7275000D02*
X-52375000Y-7275000D01*
X-47400000Y-7412500D02*
X-49262500Y-7412500D01*
D25*
G36*
X-15264050Y-1828287D02*
G01*
X-15127000Y-1868493D01*
X-15127000Y-2172495D01*
X-15647302Y-2069000D01*
X-16352698Y-2069000D01*
X-17044539Y-2206616D01*
X-17696240Y-2476559D01*
X-18282754Y-2868456D01*
X-18781544Y-3367246D01*
X-18873000Y-3504119D01*
X-18873000Y-2286000D01*
X-18876962Y-2245588D01*
X-18880634Y-2205239D01*
X-18881060Y-2203790D01*
X-18881208Y-2202285D01*
X-18892936Y-2163442D01*
X-18904384Y-2124545D01*
X-18905084Y-2123206D01*
X-18905521Y-2121759D01*
X-18924572Y-2085929D01*
X-18943355Y-2050000D01*
X-18944301Y-2048824D01*
X-18945011Y-2047488D01*
X-18970637Y-2016067D01*
X-18996062Y-1984445D01*
X-18997222Y-1983472D01*
X-18998175Y-1982303D01*
X-19029375Y-1956492D01*
X-19060499Y-1930376D01*
X-19061825Y-1929647D01*
X-19062988Y-1928685D01*
X-19098651Y-1909402D01*
X-19134211Y-1889853D01*
X-19135651Y-1889396D01*
X-19136981Y-1888677D01*
X-19175727Y-1876683D01*
X-19214390Y-1864418D01*
X-19215893Y-1864249D01*
X-19217335Y-1863803D01*
X-19257619Y-1859569D01*
X-19297982Y-1855042D01*
X-19300889Y-1855022D01*
X-19300991Y-1855011D01*
X-19301093Y-1855020D01*
X-19304000Y-1855000D01*
X-19804000Y-1855000D01*
X-19840191Y-1858548D01*
X-23104497Y-1855433D01*
X-23107982Y-1855042D01*
X-23110889Y-1855022D01*
X-23110991Y-1855011D01*
X-23111093Y-1855020D01*
X-23114000Y-1855000D01*
X-23614000Y-1855000D01*
X-23654412Y-1858962D01*
X-23694761Y-1862634D01*
X-23696210Y-1863060D01*
X-23697715Y-1863208D01*
X-23736558Y-1874936D01*
X-23775455Y-1886384D01*
X-23776794Y-1887084D01*
X-23778241Y-1887521D01*
X-23814071Y-1906572D01*
X-23850000Y-1925355D01*
X-23851176Y-1926301D01*
X-23852512Y-1927011D01*
X-23883933Y-1952637D01*
X-23915555Y-1978062D01*
X-23916528Y-1979222D01*
X-23917697Y-1980175D01*
X-23943508Y-2011375D01*
X-23969624Y-2042499D01*
X-23970353Y-2043825D01*
X-23971315Y-2044988D01*
X-23990598Y-2080651D01*
X-24010147Y-2116211D01*
X-24010604Y-2117651D01*
X-24011323Y-2118981D01*
X-24023317Y-2157727D01*
X-24035582Y-2196390D01*
X-24035751Y-2197893D01*
X-24036197Y-2199335D01*
X-24040431Y-2239619D01*
X-24044958Y-2279982D01*
X-24044978Y-2282889D01*
X-24044989Y-2282991D01*
X-24044980Y-2283093D01*
X-24045000Y-2286000D01*
X-24045000Y-2663345D01*
X-24214250Y-2665000D01*
X-24373000Y-2823750D01*
X-24373000Y-3769000D01*
X-24627000Y-3769000D01*
X-24627000Y-2823750D01*
X-24785750Y-2665000D01*
X-25100000Y-2661928D01*
X-25224482Y-2674188D01*
X-25344180Y-2710498D01*
X-25454494Y-2769463D01*
X-25551185Y-2848815D01*
X-25630537Y-2945506D01*
X-25689502Y-3055820D01*
X-25725812Y-3175518D01*
X-25738072Y-3300000D01*
X-25735000Y-3914250D01*
X-25576250Y-4073000D01*
X-24804797Y-4073000D01*
X-24804797Y-4327000D01*
X-25576250Y-4327000D01*
X-25735000Y-4485750D01*
X-25738072Y-5100000D01*
X-25725812Y-5224482D01*
X-25689502Y-5344180D01*
X-25630537Y-5454494D01*
X-25551185Y-5551185D01*
X-25454494Y-5630537D01*
X-25344180Y-5689502D01*
X-25224482Y-5725812D01*
X-25100000Y-5738072D01*
X-24804797Y-5735186D01*
X-24804797Y-8031000D01*
X-24045000Y-8031000D01*
X-24045000Y-9144000D01*
X-24041038Y-9184412D01*
X-24037366Y-9224761D01*
X-24036940Y-9226210D01*
X-24036792Y-9227715D01*
X-24025064Y-9266558D01*
X-24013616Y-9305455D01*
X-24012916Y-9306794D01*
X-24012479Y-9308241D01*
X-23993428Y-9344071D01*
X-23974645Y-9380000D01*
X-23973699Y-9381176D01*
X-23972989Y-9382512D01*
X-23947363Y-9413933D01*
X-23921938Y-9445555D01*
X-23920778Y-9446528D01*
X-23919825Y-9447697D01*
X-23888625Y-9473508D01*
X-23857501Y-9499624D01*
X-23856175Y-9500353D01*
X-23855012Y-9501315D01*
X-23819349Y-9520598D01*
X-23783789Y-9540147D01*
X-23782349Y-9540604D01*
X-23781019Y-9541323D01*
X-23772371Y-9544000D01*
X-31858430Y-9544000D01*
X-31769289Y-9377229D01*
X-31713195Y-9192310D01*
X-31699000Y-9048187D01*
X-31699000Y-8351814D01*
X-31713195Y-8207691D01*
X-31715682Y-8199492D01*
X-31466337Y-8448837D01*
X-31448925Y-8470053D01*
X-31364264Y-8539534D01*
X-31267673Y-8591162D01*
X-31162867Y-8622955D01*
X-31081184Y-8631000D01*
X-31081177Y-8631000D01*
X-31053873Y-8633689D01*
X-31026568Y-8631000D01*
X-29482843Y-8631000D01*
X-29482843Y-8850000D01*
X-29475487Y-8924689D01*
X-29453701Y-8996508D01*
X-29418322Y-9062696D01*
X-29370711Y-9120711D01*
X-29312696Y-9168322D01*
X-29246508Y-9203701D01*
X-29174689Y-9225487D01*
X-29100000Y-9232843D01*
X-28500000Y-9232843D01*
X-28425311Y-9225487D01*
X-28353492Y-9203701D01*
X-28300000Y-9175108D01*
X-28246508Y-9203701D01*
X-28174689Y-9225487D01*
X-28100000Y-9232843D01*
X-27500000Y-9232843D01*
X-27425311Y-9225487D01*
X-27353492Y-9203701D01*
X-27300000Y-9175108D01*
X-27246508Y-9203701D01*
X-27174689Y-9225487D01*
X-27100000Y-9232843D01*
X-26607272Y-9232843D01*
X-26551185Y-9301185D01*
X-26454494Y-9380537D01*
X-26344180Y-9439502D01*
X-26224482Y-9475812D01*
X-26100000Y-9488072D01*
X-26085750Y-9485000D01*
X-25927000Y-9326250D01*
X-25927000Y-8202000D01*
X-25673000Y-8202000D01*
X-25673000Y-9326250D01*
X-25514250Y-9485000D01*
X-25500000Y-9488072D01*
X-25375518Y-9475812D01*
X-25255820Y-9439502D01*
X-25145506Y-9380537D01*
X-25048815Y-9301185D01*
X-24969463Y-9204494D01*
X-24910498Y-9094180D01*
X-24874188Y-8974482D01*
X-24861928Y-8850000D01*
X-24865000Y-8360750D01*
X-25023750Y-8202000D01*
X-25673000Y-8202000D01*
X-25927000Y-8202000D01*
X-25947000Y-8202000D01*
X-25947000Y-7948000D01*
X-25927000Y-7948000D01*
X-25927000Y-6823750D01*
X-25673000Y-6823750D01*
X-25673000Y-7948000D01*
X-25023750Y-7948000D01*
X-24865000Y-7789250D01*
X-24861928Y-7300000D01*
X-24874188Y-7175518D01*
X-24910498Y-7055820D01*
X-24969463Y-6945506D01*
X-25048815Y-6848815D01*
X-25145506Y-6769463D01*
X-25255820Y-6710498D01*
X-25375518Y-6674188D01*
X-25500000Y-6661928D01*
X-25514250Y-6665000D01*
X-25673000Y-6823750D01*
X-25927000Y-6823750D01*
X-26085750Y-6665000D01*
X-26100000Y-6661928D01*
X-26224482Y-6674188D01*
X-26335613Y-6707899D01*
X-26377241Y-6630020D01*
X-26440473Y-6552972D01*
X-26459785Y-6537123D01*
X-26544000Y-6452908D01*
X-26544000Y-3521291D01*
X-26541553Y-3496445D01*
X-26544000Y-3471599D01*
X-26544000Y-3471592D01*
X-26551322Y-3397253D01*
X-26554965Y-3385241D01*
X-26580255Y-3301871D01*
X-26585082Y-3292840D01*
X-26627241Y-3213967D01*
X-26690473Y-3136919D01*
X-26709780Y-3121074D01*
X-28074855Y-1756000D01*
X-16021708Y-1756000D01*
X-15264050Y-1828287D01*
X-15264050Y-1828287D01*
G37*
X-15264050Y-1828287D02*
X-15127000Y-1868493D01*
X-15127000Y-2172495D01*
X-15647302Y-2069000D01*
X-16352698Y-2069000D01*
X-17044539Y-2206616D01*
X-17696240Y-2476559D01*
X-18282754Y-2868456D01*
X-18781544Y-3367246D01*
X-18873000Y-3504119D01*
X-18873000Y-2286000D01*
X-18876962Y-2245588D01*
X-18880634Y-2205239D01*
X-18881060Y-2203790D01*
X-18881208Y-2202285D01*
X-18892936Y-2163442D01*
X-18904384Y-2124545D01*
X-18905084Y-2123206D01*
X-18905521Y-2121759D01*
X-18924572Y-2085929D01*
X-18943355Y-2050000D01*
X-18944301Y-2048824D01*
X-18945011Y-2047488D01*
X-18970637Y-2016067D01*
X-18996062Y-1984445D01*
X-18997222Y-1983472D01*
X-18998175Y-1982303D01*
X-19029375Y-1956492D01*
X-19060499Y-1930376D01*
X-19061825Y-1929647D01*
X-19062988Y-1928685D01*
X-19098651Y-1909402D01*
X-19134211Y-1889853D01*
X-19135651Y-1889396D01*
X-19136981Y-1888677D01*
X-19175727Y-1876683D01*
X-19214390Y-1864418D01*
X-19215893Y-1864249D01*
X-19217335Y-1863803D01*
X-19257619Y-1859569D01*
X-19297982Y-1855042D01*
X-19300889Y-1855022D01*
X-19300991Y-1855011D01*
X-19301093Y-1855020D01*
X-19304000Y-1855000D01*
X-19804000Y-1855000D01*
X-19840191Y-1858548D01*
X-23104497Y-1855433D01*
X-23107982Y-1855042D01*
X-23110889Y-1855022D01*
X-23110991Y-1855011D01*
X-23111093Y-1855020D01*
X-23114000Y-1855000D01*
X-23614000Y-1855000D01*
X-23654412Y-1858962D01*
X-23694761Y-1862634D01*
X-23696210Y-1863060D01*
X-23697715Y-1863208D01*
X-23736558Y-1874936D01*
X-23775455Y-1886384D01*
X-23776794Y-1887084D01*
X-23778241Y-1887521D01*
X-23814071Y-1906572D01*
X-23850000Y-1925355D01*
X-23851176Y-1926301D01*
X-23852512Y-1927011D01*
X-23883933Y-1952637D01*
X-23915555Y-1978062D01*
X-23916528Y-1979222D01*
X-23917697Y-1980175D01*
X-23943508Y-2011375D01*
X-23969624Y-2042499D01*
X-23970353Y-2043825D01*
X-23971315Y-2044988D01*
X-23990598Y-2080651D01*
X-24010147Y-2116211D01*
X-24010604Y-2117651D01*
X-24011323Y-2118981D01*
X-24023317Y-2157727D01*
X-24035582Y-2196390D01*
X-24035751Y-2197893D01*
X-24036197Y-2199335D01*
X-24040431Y-2239619D01*
X-24044958Y-2279982D01*
X-24044978Y-2282889D01*
X-24044989Y-2282991D01*
X-24044980Y-2283093D01*
X-24045000Y-2286000D01*
X-24045000Y-2663345D01*
X-24214250Y-2665000D01*
X-24373000Y-2823750D01*
X-24373000Y-3769000D01*
X-24627000Y-3769000D01*
X-24627000Y-2823750D01*
X-24785750Y-2665000D01*
X-25100000Y-2661928D01*
X-25224482Y-2674188D01*
X-25344180Y-2710498D01*
X-25454494Y-2769463D01*
X-25551185Y-2848815D01*
X-25630537Y-2945506D01*
X-25689502Y-3055820D01*
X-25725812Y-3175518D01*
X-25738072Y-3300000D01*
X-25735000Y-3914250D01*
X-25576250Y-4073000D01*
X-24804797Y-4073000D01*
X-24804797Y-4327000D01*
X-25576250Y-4327000D01*
X-25735000Y-4485750D01*
X-25738072Y-5100000D01*
X-25725812Y-5224482D01*
X-25689502Y-5344180D01*
X-25630537Y-5454494D01*
X-25551185Y-5551185D01*
X-25454494Y-5630537D01*
X-25344180Y-5689502D01*
X-25224482Y-5725812D01*
X-25100000Y-5738072D01*
X-24804797Y-5735186D01*
X-24804797Y-8031000D01*
X-24045000Y-8031000D01*
X-24045000Y-9144000D01*
X-24041038Y-9184412D01*
X-24037366Y-9224761D01*
X-24036940Y-9226210D01*
X-24036792Y-9227715D01*
X-24025064Y-9266558D01*
X-24013616Y-9305455D01*
X-24012916Y-9306794D01*
X-24012479Y-9308241D01*
X-23993428Y-9344071D01*
X-23974645Y-9380000D01*
X-23973699Y-9381176D01*
X-23972989Y-9382512D01*
X-23947363Y-9413933D01*
X-23921938Y-9445555D01*
X-23920778Y-9446528D01*
X-23919825Y-9447697D01*
X-23888625Y-9473508D01*
X-23857501Y-9499624D01*
X-23856175Y-9500353D01*
X-23855012Y-9501315D01*
X-23819349Y-9520598D01*
X-23783789Y-9540147D01*
X-23782349Y-9540604D01*
X-23781019Y-9541323D01*
X-23772371Y-9544000D01*
X-31858430Y-9544000D01*
X-31769289Y-9377229D01*
X-31713195Y-9192310D01*
X-31699000Y-9048187D01*
X-31699000Y-8351814D01*
X-31713195Y-8207691D01*
X-31715682Y-8199492D01*
X-31466337Y-8448837D01*
X-31448925Y-8470053D01*
X-31364264Y-8539534D01*
X-31267673Y-8591162D01*
X-31162867Y-8622955D01*
X-31081184Y-8631000D01*
X-31081177Y-8631000D01*
X-31053873Y-8633689D01*
X-31026568Y-8631000D01*
X-29482843Y-8631000D01*
X-29482843Y-8850000D01*
X-29475487Y-8924689D01*
X-29453701Y-8996508D01*
X-29418322Y-9062696D01*
X-29370711Y-9120711D01*
X-29312696Y-9168322D01*
X-29246508Y-9203701D01*
X-29174689Y-9225487D01*
X-29100000Y-9232843D01*
X-28500000Y-9232843D01*
X-28425311Y-9225487D01*
X-28353492Y-9203701D01*
X-28300000Y-9175108D01*
X-28246508Y-9203701D01*
X-28174689Y-9225487D01*
X-28100000Y-9232843D01*
X-27500000Y-9232843D01*
X-27425311Y-9225487D01*
X-27353492Y-9203701D01*
X-27300000Y-9175108D01*
X-27246508Y-9203701D01*
X-27174689Y-9225487D01*
X-27100000Y-9232843D01*
X-26607272Y-9232843D01*
X-26551185Y-9301185D01*
X-26454494Y-9380537D01*
X-26344180Y-9439502D01*
X-26224482Y-9475812D01*
X-26100000Y-9488072D01*
X-26085750Y-9485000D01*
X-25927000Y-9326250D01*
X-25927000Y-8202000D01*
X-25673000Y-8202000D01*
X-25673000Y-9326250D01*
X-25514250Y-9485000D01*
X-25500000Y-9488072D01*
X-25375518Y-9475812D01*
X-25255820Y-9439502D01*
X-25145506Y-9380537D01*
X-25048815Y-9301185D01*
X-24969463Y-9204494D01*
X-24910498Y-9094180D01*
X-24874188Y-8974482D01*
X-24861928Y-8850000D01*
X-24865000Y-8360750D01*
X-25023750Y-8202000D01*
X-25673000Y-8202000D01*
X-25927000Y-8202000D01*
X-25947000Y-8202000D01*
X-25947000Y-7948000D01*
X-25927000Y-7948000D01*
X-25927000Y-6823750D01*
X-25673000Y-6823750D01*
X-25673000Y-7948000D01*
X-25023750Y-7948000D01*
X-24865000Y-7789250D01*
X-24861928Y-7300000D01*
X-24874188Y-7175518D01*
X-24910498Y-7055820D01*
X-24969463Y-6945506D01*
X-25048815Y-6848815D01*
X-25145506Y-6769463D01*
X-25255820Y-6710498D01*
X-25375518Y-6674188D01*
X-25500000Y-6661928D01*
X-25514250Y-6665000D01*
X-25673000Y-6823750D01*
X-25927000Y-6823750D01*
X-26085750Y-6665000D01*
X-26100000Y-6661928D01*
X-26224482Y-6674188D01*
X-26335613Y-6707899D01*
X-26377241Y-6630020D01*
X-26440473Y-6552972D01*
X-26459785Y-6537123D01*
X-26544000Y-6452908D01*
X-26544000Y-3521291D01*
X-26541553Y-3496445D01*
X-26544000Y-3471599D01*
X-26544000Y-3471592D01*
X-26551322Y-3397253D01*
X-26554965Y-3385241D01*
X-26580255Y-3301871D01*
X-26585082Y-3292840D01*
X-26627241Y-3213967D01*
X-26690473Y-3136919D01*
X-26709780Y-3121074D01*
X-28074855Y-1756000D01*
X-16021708Y-1756000D01*
X-15264050Y-1828287D01*
G36*
X-31289502Y-3055820D02*
G01*
X-31325812Y-3175518D01*
X-31338072Y-3300000D01*
X-31335000Y-3914250D01*
X-31176250Y-4073000D01*
X-30227000Y-4073000D01*
X-30227000Y-4053000D01*
X-29973000Y-4053000D01*
X-29973000Y-4073000D01*
X-29023750Y-4073000D01*
X-28865000Y-3914250D01*
X-28861928Y-3300000D01*
X-28874188Y-3175518D01*
X-28909267Y-3059878D01*
X-28056000Y-3913146D01*
X-28055999Y-6590408D01*
X-28140215Y-6674624D01*
X-28159527Y-6690473D01*
X-28222759Y-6767521D01*
X-28269745Y-6855426D01*
X-28298678Y-6950808D01*
X-28300998Y-6974358D01*
X-28353492Y-6946299D01*
X-28425311Y-6924513D01*
X-28500000Y-6917157D01*
X-29100000Y-6917157D01*
X-29174689Y-6924513D01*
X-29246508Y-6946299D01*
X-29312696Y-6981678D01*
X-29370711Y-7029289D01*
X-29418322Y-7087304D01*
X-29453701Y-7153492D01*
X-29475487Y-7225311D01*
X-29482843Y-7300000D01*
X-29482843Y-7519000D01*
X-30823570Y-7519000D01*
X-32348108Y-5994463D01*
X-32302772Y-5980711D01*
X-32132349Y-5889618D01*
X-31982972Y-5767028D01*
X-31860382Y-5617651D01*
X-31769289Y-5447229D01*
X-31713195Y-5262310D01*
X-31699000Y-5118187D01*
X-31699000Y-5100000D01*
X-31338072Y-5100000D01*
X-31325812Y-5224482D01*
X-31289502Y-5344180D01*
X-31230537Y-5454494D01*
X-31151185Y-5551185D01*
X-31054494Y-5630537D01*
X-30944180Y-5689502D01*
X-30824482Y-5725812D01*
X-30700000Y-5738072D01*
X-30385750Y-5735000D01*
X-30227000Y-5576250D01*
X-30227000Y-4327000D01*
X-29973000Y-4327000D01*
X-29973000Y-5576250D01*
X-29814250Y-5735000D01*
X-29500000Y-5738072D01*
X-29375518Y-5725812D01*
X-29255820Y-5689502D01*
X-29145506Y-5630537D01*
X-29048815Y-5551185D01*
X-28969463Y-5454494D01*
X-28910498Y-5344180D01*
X-28874188Y-5224482D01*
X-28861928Y-5100000D01*
X-28865000Y-4485750D01*
X-29023750Y-4327000D01*
X-29973000Y-4327000D01*
X-30227000Y-4327000D01*
X-31176250Y-4327000D01*
X-31335000Y-4485750D01*
X-31338072Y-5100000D01*
X-31699000Y-5100000D01*
X-31699000Y-3921813D01*
X-31713195Y-3777690D01*
X-31769289Y-3592771D01*
X-31860382Y-3422349D01*
X-31982972Y-3272972D01*
X-32132349Y-3150382D01*
X-32302771Y-3059289D01*
X-32487690Y-3003195D01*
X-32680000Y-2984254D01*
X-32850274Y-3001025D01*
X-32849960Y-2956000D01*
X-31236146Y-2956000D01*
X-31289502Y-3055820D01*
X-31289502Y-3055820D01*
G37*
X-31289502Y-3055820D02*
X-31325812Y-3175518D01*
X-31338072Y-3300000D01*
X-31335000Y-3914250D01*
X-31176250Y-4073000D01*
X-30227000Y-4073000D01*
X-30227000Y-4053000D01*
X-29973000Y-4053000D01*
X-29973000Y-4073000D01*
X-29023750Y-4073000D01*
X-28865000Y-3914250D01*
X-28861928Y-3300000D01*
X-28874188Y-3175518D01*
X-28909267Y-3059878D01*
X-28056000Y-3913146D01*
X-28055999Y-6590408D01*
X-28140215Y-6674624D01*
X-28159527Y-6690473D01*
X-28222759Y-6767521D01*
X-28269745Y-6855426D01*
X-28298678Y-6950808D01*
X-28300998Y-6974358D01*
X-28353492Y-6946299D01*
X-28425311Y-6924513D01*
X-28500000Y-6917157D01*
X-29100000Y-6917157D01*
X-29174689Y-6924513D01*
X-29246508Y-6946299D01*
X-29312696Y-6981678D01*
X-29370711Y-7029289D01*
X-29418322Y-7087304D01*
X-29453701Y-7153492D01*
X-29475487Y-7225311D01*
X-29482843Y-7300000D01*
X-29482843Y-7519000D01*
X-30823570Y-7519000D01*
X-32348108Y-5994463D01*
X-32302772Y-5980711D01*
X-32132349Y-5889618D01*
X-31982972Y-5767028D01*
X-31860382Y-5617651D01*
X-31769289Y-5447229D01*
X-31713195Y-5262310D01*
X-31699000Y-5118187D01*
X-31699000Y-5100000D01*
X-31338072Y-5100000D01*
X-31325812Y-5224482D01*
X-31289502Y-5344180D01*
X-31230537Y-5454494D01*
X-31151185Y-5551185D01*
X-31054494Y-5630537D01*
X-30944180Y-5689502D01*
X-30824482Y-5725812D01*
X-30700000Y-5738072D01*
X-30385750Y-5735000D01*
X-30227000Y-5576250D01*
X-30227000Y-4327000D01*
X-29973000Y-4327000D01*
X-29973000Y-5576250D01*
X-29814250Y-5735000D01*
X-29500000Y-5738072D01*
X-29375518Y-5725812D01*
X-29255820Y-5689502D01*
X-29145506Y-5630537D01*
X-29048815Y-5551185D01*
X-28969463Y-5454494D01*
X-28910498Y-5344180D01*
X-28874188Y-5224482D01*
X-28861928Y-5100000D01*
X-28865000Y-4485750D01*
X-29023750Y-4327000D01*
X-29973000Y-4327000D01*
X-30227000Y-4327000D01*
X-31176250Y-4327000D01*
X-31335000Y-4485750D01*
X-31338072Y-5100000D01*
X-31699000Y-5100000D01*
X-31699000Y-3921813D01*
X-31713195Y-3777690D01*
X-31769289Y-3592771D01*
X-31860382Y-3422349D01*
X-31982972Y-3272972D01*
X-32132349Y-3150382D01*
X-32302771Y-3059289D01*
X-32487690Y-3003195D01*
X-32680000Y-2984254D01*
X-32850274Y-3001025D01*
X-32849960Y-2956000D01*
X-31236146Y-2956000D01*
X-31289502Y-3055820D01*
G36*
X-36964590Y-2048999D02*
G01*
X-37635147Y-2048999D01*
X-37660001Y-2046551D01*
X-37684855Y-2048999D01*
X-37759194Y-2056321D01*
X-37854576Y-2085254D01*
X-37942480Y-2132240D01*
X-38019528Y-2195472D01*
X-38035377Y-2214784D01*
X-38090215Y-2269622D01*
X-38109527Y-2285471D01*
X-38172759Y-2362519D01*
X-38219745Y-2450424D01*
X-38233921Y-2497157D01*
X-38400000Y-2497157D01*
X-38474689Y-2504513D01*
X-38500000Y-2512191D01*
X-38525311Y-2504513D01*
X-38600000Y-2497157D01*
X-38900000Y-2497157D01*
X-38974689Y-2504513D01*
X-39031250Y-2521671D01*
X-39087811Y-2504513D01*
X-39162500Y-2497157D01*
X-39430228Y-2497157D01*
X-39486315Y-2428815D01*
X-39583006Y-2349463D01*
X-39693320Y-2290498D01*
X-39813018Y-2254188D01*
X-39937500Y-2241928D01*
X-39939250Y-2245000D01*
X-40098000Y-2403750D01*
X-40098000Y-2755905D01*
X-40112987Y-2805311D01*
X-40120343Y-2880000D01*
X-40120343Y-3752000D01*
X-40352000Y-3752000D01*
X-40352000Y-3732000D01*
X-40367055Y-3732000D01*
X-40372000Y-3715698D01*
X-40372000Y-3478000D01*
X-40352000Y-3478000D01*
X-40352000Y-2403750D01*
X-40510750Y-2245000D01*
X-40512500Y-2241928D01*
X-40636982Y-2254188D01*
X-40756680Y-2290498D01*
X-40866994Y-2349463D01*
X-40963685Y-2428815D01*
X-41043037Y-2525506D01*
X-41102002Y-2635820D01*
X-41138312Y-2755518D01*
X-41150572Y-2880000D01*
X-41149726Y-3001025D01*
X-41320000Y-2984254D01*
X-41512309Y-3003195D01*
X-41697228Y-3059289D01*
X-41867650Y-3150382D01*
X-42017027Y-3272972D01*
X-42139617Y-3422349D01*
X-42230710Y-3592771D01*
X-42286804Y-3777690D01*
X-42300999Y-3921813D01*
X-42301000Y-5118186D01*
X-42286805Y-5262309D01*
X-42230711Y-5447228D01*
X-42139618Y-5617651D01*
X-42017028Y-5767028D01*
X-41867651Y-5889618D01*
X-41859453Y-5894000D01*
X-42488799Y-5894000D01*
X-42486928Y-5875000D01*
X-42490000Y-5760750D01*
X-42648750Y-5602000D01*
X-43473000Y-5602000D01*
X-43473000Y-5622000D01*
X-43727000Y-5622000D01*
X-43727000Y-5602000D01*
X-45273000Y-5602000D01*
X-45273000Y-5622000D01*
X-45527000Y-5622000D01*
X-45527000Y-5602000D01*
X-46351250Y-5602000D01*
X-46463750Y-5714500D01*
X-47273000Y-5714500D01*
X-47273000Y-5734500D01*
X-47527000Y-5734500D01*
X-47527000Y-5714500D01*
X-47547000Y-5714500D01*
X-47547000Y-5460500D01*
X-47527000Y-5460500D01*
X-47527000Y-4598750D01*
X-47273000Y-4598750D01*
X-47273000Y-5460500D01*
X-46223750Y-5460500D01*
X-46111250Y-5348000D01*
X-45527000Y-5348000D01*
X-45527000Y-4598750D01*
X-45273000Y-4598750D01*
X-45273000Y-5348000D01*
X-43727000Y-5348000D01*
X-43727000Y-4598750D01*
X-43473000Y-4598750D01*
X-43473000Y-5348000D01*
X-42648750Y-5348000D01*
X-42490000Y-5189250D01*
X-42486928Y-5075000D01*
X-42499188Y-4950518D01*
X-42535498Y-4830820D01*
X-42594463Y-4720506D01*
X-42673815Y-4623815D01*
X-42770506Y-4544463D01*
X-42880820Y-4485498D01*
X-43000518Y-4449188D01*
X-43125000Y-4436928D01*
X-43314250Y-4440000D01*
X-43473000Y-4598750D01*
X-43727000Y-4598750D01*
X-43885750Y-4440000D01*
X-44075000Y-4436928D01*
X-44199482Y-4449188D01*
X-44319180Y-4485498D01*
X-44429494Y-4544463D01*
X-44500000Y-4602326D01*
X-44570506Y-4544463D01*
X-44680820Y-4485498D01*
X-44800518Y-4449188D01*
X-44925000Y-4436928D01*
X-45114250Y-4440000D01*
X-45273000Y-4598750D01*
X-45527000Y-4598750D01*
X-45685750Y-4440000D01*
X-45875000Y-4436928D01*
X-45999482Y-4449188D01*
X-46119180Y-4485498D01*
X-46229494Y-4544463D01*
X-46287500Y-4592067D01*
X-46345506Y-4544463D01*
X-46455820Y-4485498D01*
X-46575518Y-4449188D01*
X-46700000Y-4436928D01*
X-47114250Y-4440000D01*
X-47273000Y-4598750D01*
X-47527000Y-4598750D01*
X-47685750Y-4440000D01*
X-48100000Y-4436928D01*
X-48224482Y-4449188D01*
X-48344180Y-4485498D01*
X-48454494Y-4544463D01*
X-48551185Y-4623815D01*
X-48625899Y-4714854D01*
X-48680820Y-4685498D01*
X-48800518Y-4649188D01*
X-48925000Y-4636928D01*
X-49114250Y-4640000D01*
X-49273000Y-4798750D01*
X-49273000Y-5598000D01*
X-49253000Y-5598000D01*
X-49253000Y-5852000D01*
X-49273000Y-5852000D01*
X-49273000Y-5872000D01*
X-49527000Y-5872000D01*
X-49527000Y-5852000D01*
X-49547000Y-5852000D01*
X-49547000Y-5598000D01*
X-49527000Y-5598000D01*
X-49527000Y-4798750D01*
X-49685750Y-4640000D01*
X-49875000Y-4636928D01*
X-49999482Y-4649188D01*
X-50119180Y-4685498D01*
X-50229494Y-4744463D01*
X-50326185Y-4823815D01*
X-50405537Y-4920506D01*
X-50464502Y-5030820D01*
X-50469035Y-5045762D01*
X-50556616Y-4605461D01*
X-50826559Y-3953760D01*
X-51218456Y-3367246D01*
X-51717246Y-2868456D01*
X-52303760Y-2476559D01*
X-52955461Y-2206616D01*
X-53647302Y-2069000D01*
X-54352698Y-2069000D01*
X-55044539Y-2206616D01*
X-55696240Y-2476559D01*
X-56282754Y-2868456D01*
X-56781544Y-3367246D01*
X-56873000Y-3504119D01*
X-56873000Y-3036888D01*
X-56412136Y-2595706D01*
X-55791066Y-2194686D01*
X-55105368Y-1918341D01*
X-54369366Y-1774611D01*
X-53988848Y-1756000D01*
X-36671592Y-1756000D01*
X-36964590Y-2048999D01*
X-36964590Y-2048999D01*
G37*
X-36964590Y-2048999D02*
X-37635147Y-2048999D01*
X-37660001Y-2046551D01*
X-37684855Y-2048999D01*
X-37759194Y-2056321D01*
X-37854576Y-2085254D01*
X-37942480Y-2132240D01*
X-38019528Y-2195472D01*
X-38035377Y-2214784D01*
X-38090215Y-2269622D01*
X-38109527Y-2285471D01*
X-38172759Y-2362519D01*
X-38219745Y-2450424D01*
X-38233921Y-2497157D01*
X-38400000Y-2497157D01*
X-38474689Y-2504513D01*
X-38500000Y-2512191D01*
X-38525311Y-2504513D01*
X-38600000Y-2497157D01*
X-38900000Y-2497157D01*
X-38974689Y-2504513D01*
X-39031250Y-2521671D01*
X-39087811Y-2504513D01*
X-39162500Y-2497157D01*
X-39430228Y-2497157D01*
X-39486315Y-2428815D01*
X-39583006Y-2349463D01*
X-39693320Y-2290498D01*
X-39813018Y-2254188D01*
X-39937500Y-2241928D01*
X-39939250Y-2245000D01*
X-40098000Y-2403750D01*
X-40098000Y-2755905D01*
X-40112987Y-2805311D01*
X-40120343Y-2880000D01*
X-40120343Y-3752000D01*
X-40352000Y-3752000D01*
X-40352000Y-3732000D01*
X-40367055Y-3732000D01*
X-40372000Y-3715698D01*
X-40372000Y-3478000D01*
X-40352000Y-3478000D01*
X-40352000Y-2403750D01*
X-40510750Y-2245000D01*
X-40512500Y-2241928D01*
X-40636982Y-2254188D01*
X-40756680Y-2290498D01*
X-40866994Y-2349463D01*
X-40963685Y-2428815D01*
X-41043037Y-2525506D01*
X-41102002Y-2635820D01*
X-41138312Y-2755518D01*
X-41150572Y-2880000D01*
X-41149726Y-3001025D01*
X-41320000Y-2984254D01*
X-41512309Y-3003195D01*
X-41697228Y-3059289D01*
X-41867650Y-3150382D01*
X-42017027Y-3272972D01*
X-42139617Y-3422349D01*
X-42230710Y-3592771D01*
X-42286804Y-3777690D01*
X-42300999Y-3921813D01*
X-42301000Y-5118186D01*
X-42286805Y-5262309D01*
X-42230711Y-5447228D01*
X-42139618Y-5617651D01*
X-42017028Y-5767028D01*
X-41867651Y-5889618D01*
X-41859453Y-5894000D01*
X-42488799Y-5894000D01*
X-42486928Y-5875000D01*
X-42490000Y-5760750D01*
X-42648750Y-5602000D01*
X-43473000Y-5602000D01*
X-43473000Y-5622000D01*
X-43727000Y-5622000D01*
X-43727000Y-5602000D01*
X-45273000Y-5602000D01*
X-45273000Y-5622000D01*
X-45527000Y-5622000D01*
X-45527000Y-5602000D01*
X-46351250Y-5602000D01*
X-46463750Y-5714500D01*
X-47273000Y-5714500D01*
X-47273000Y-5734500D01*
X-47527000Y-5734500D01*
X-47527000Y-5714500D01*
X-47547000Y-5714500D01*
X-47547000Y-5460500D01*
X-47527000Y-5460500D01*
X-47527000Y-4598750D01*
X-47273000Y-4598750D01*
X-47273000Y-5460500D01*
X-46223750Y-5460500D01*
X-46111250Y-5348000D01*
X-45527000Y-5348000D01*
X-45527000Y-4598750D01*
X-45273000Y-4598750D01*
X-45273000Y-5348000D01*
X-43727000Y-5348000D01*
X-43727000Y-4598750D01*
X-43473000Y-4598750D01*
X-43473000Y-5348000D01*
X-42648750Y-5348000D01*
X-42490000Y-5189250D01*
X-42486928Y-5075000D01*
X-42499188Y-4950518D01*
X-42535498Y-4830820D01*
X-42594463Y-4720506D01*
X-42673815Y-4623815D01*
X-42770506Y-4544463D01*
X-42880820Y-4485498D01*
X-43000518Y-4449188D01*
X-43125000Y-4436928D01*
X-43314250Y-4440000D01*
X-43473000Y-4598750D01*
X-43727000Y-4598750D01*
X-43885750Y-4440000D01*
X-44075000Y-4436928D01*
X-44199482Y-4449188D01*
X-44319180Y-4485498D01*
X-44429494Y-4544463D01*
X-44500000Y-4602326D01*
X-44570506Y-4544463D01*
X-44680820Y-4485498D01*
X-44800518Y-4449188D01*
X-44925000Y-4436928D01*
X-45114250Y-4440000D01*
X-45273000Y-4598750D01*
X-45527000Y-4598750D01*
X-45685750Y-4440000D01*
X-45875000Y-4436928D01*
X-45999482Y-4449188D01*
X-46119180Y-4485498D01*
X-46229494Y-4544463D01*
X-46287500Y-4592067D01*
X-46345506Y-4544463D01*
X-46455820Y-4485498D01*
X-46575518Y-4449188D01*
X-46700000Y-4436928D01*
X-47114250Y-4440000D01*
X-47273000Y-4598750D01*
X-47527000Y-4598750D01*
X-47685750Y-4440000D01*
X-48100000Y-4436928D01*
X-48224482Y-4449188D01*
X-48344180Y-4485498D01*
X-48454494Y-4544463D01*
X-48551185Y-4623815D01*
X-48625899Y-4714854D01*
X-48680820Y-4685498D01*
X-48800518Y-4649188D01*
X-48925000Y-4636928D01*
X-49114250Y-4640000D01*
X-49273000Y-4798750D01*
X-49273000Y-5598000D01*
X-49253000Y-5598000D01*
X-49253000Y-5852000D01*
X-49273000Y-5852000D01*
X-49273000Y-5872000D01*
X-49527000Y-5872000D01*
X-49527000Y-5852000D01*
X-49547000Y-5852000D01*
X-49547000Y-5598000D01*
X-49527000Y-5598000D01*
X-49527000Y-4798750D01*
X-49685750Y-4640000D01*
X-49875000Y-4636928D01*
X-49999482Y-4649188D01*
X-50119180Y-4685498D01*
X-50229494Y-4744463D01*
X-50326185Y-4823815D01*
X-50405537Y-4920506D01*
X-50464502Y-5030820D01*
X-50469035Y-5045762D01*
X-50556616Y-4605461D01*
X-50826559Y-3953760D01*
X-51218456Y-3367246D01*
X-51717246Y-2868456D01*
X-52303760Y-2476559D01*
X-52955461Y-2206616D01*
X-53647302Y-2069000D01*
X-54352698Y-2069000D01*
X-55044539Y-2206616D01*
X-55696240Y-2476559D01*
X-56282754Y-2868456D01*
X-56781544Y-3367246D01*
X-56873000Y-3504119D01*
X-56873000Y-3036888D01*
X-56412136Y-2595706D01*
X-55791066Y-2194686D01*
X-55105368Y-1918341D01*
X-54369366Y-1774611D01*
X-53988848Y-1756000D01*
X-36671592Y-1756000D01*
X-36964590Y-2048999D01*
G36*
X-33648000Y-3478000D02*
G01*
X-33628000Y-3478000D01*
X-33628000Y-3715702D01*
X-33632944Y-3732000D01*
X-33648000Y-3732000D01*
X-33648000Y-3752000D01*
X-33879657Y-3752000D01*
X-33879657Y-3458000D01*
X-33648000Y-3458000D01*
X-33648000Y-3478000D01*
X-33648000Y-3478000D01*
G37*
X-33648000Y-3478000D02*
X-33628000Y-3478000D01*
X-33628000Y-3715702D01*
X-33632944Y-3732000D01*
X-33648000Y-3732000D01*
X-33648000Y-3752000D01*
X-33879657Y-3752000D01*
X-33879657Y-3458000D01*
X-33648000Y-3458000D01*
X-33648000Y-3478000D01*
M02*
