M48
; DRILL file {KiCad (5.1.4)-1} date 3 Jun 2022 12:00:58 pm
; FORMAT={-:-/ absolute / inch / decimal}
; #@! TF.CreationDate,2022-06-03T12:00:58+08:00
; #@! TF.GenerationSoftware,Kicad,Pcbnew,(5.1.4)-1
; #@! TF.FileFunction,Plated,1,2,PTH
FMAT,2
INCH
T1C0.0157
T2C0.0197
T3C0.0236
T4C0.1260
%
G90
G05
T1
X-1.9114Y-0.1063
X-1.685Y-0.1063
X-1.5748Y-0.252
X-1.5276Y-0.0827
X-1.5276Y-0.2953
X-1.5039Y-0.2008
X-1.4016Y-0.2057
X-1.2362Y-0.125
X-1.1969Y-0.2559
X-1.0394Y-0.0984
X-1.0236Y-0.2402
X-0.98Y-0.3175
T2
X-0.7244Y-0.2224
X-0.6967Y-0.1556
X-0.6967Y-0.2893
X-0.6299Y-0.128
X-0.6299Y-0.3169
X-0.5631Y-0.1556
X-0.5631Y-0.2893
X-0.5354Y-0.2224
X-2.2205Y-0.2224
X-2.1928Y-0.1556
X-2.1928Y-0.2893
X-2.126Y-0.128
X-2.126Y-0.3169
X-2.0592Y-0.1556
X-2.0592Y-0.2893
X-2.0315Y-0.2224
T4
X-0.6299Y-0.2224
X-2.126Y-0.2224
T3
G00X-1.6268Y-0.1996
M15
G01X-1.6268Y-0.1563
M16
G05
G00X-1.6268Y-0.3543
M15
G01X-1.6268Y-0.3307
M16
G05
G00X-1.2866Y-0.1996
M15
G01X-1.2866Y-0.1563
M16
G05
G00X-1.2866Y-0.3543
M15
G01X-1.2866Y-0.3307
M16
G05
T0
M30
